<svg width="110" height="153" viewBox="0 0 110 153" fill="none" xmlns="http://www.w3.org/2000/svg">
<path d="M106.07 153H3.92995C1.75986 153 0 151.252 0 149.097V3.9032C0 1.7479 1.75986 0 3.92995 0H106.07C108.24 0 110 1.7479 110 3.9032V149.097C109.993 151.252 108.233 153 106.07 153Z" fill="white"/>
<path d="M9.29565 15.3302H10.5262C10.652 15.3302 10.7446 15.3039 10.8042 15.2513C10.8637 15.1988 10.8902 15.1133 10.8902 14.9951V8.73943H9.29565V8.27946H10.0036C10.4668 8.27946 10.8372 8.15461 11.1283 7.91148C11.4128 7.66835 11.5915 7.36609 11.6577 7.01782H12.0679V15.0016C12.0679 15.1199 12.0943 15.2053 12.1539 15.2579C12.2068 15.3105 12.2994 15.3368 12.4317 15.3368H13.6623V15.7442H9.29565V15.3302Z" fill="#A43E32"/>
<path d="M17.3011 15.2974C16.8314 14.8637 16.4676 14.2986 16.2029 13.5955C15.9449 12.8924 15.8125 12.1564 15.8125 11.381C15.8125 10.6056 15.9449 9.86968 16.2029 9.16658C16.4609 8.46348 16.8314 7.89837 17.3011 7.46468C17.7709 7.03099 18.3134 6.81415 18.9155 6.81415C19.511 6.81415 20.0535 7.03099 20.5233 7.46468C20.9996 7.89837 21.3635 8.46348 21.6281 9.16658C21.8861 9.86968 22.0184 10.6056 22.0184 11.381C22.0184 12.1564 21.8861 12.8924 21.6281 13.5955C21.3701 14.2986 20.9996 14.8637 20.5233 15.2974C20.0469 15.731 19.511 15.9479 18.9155 15.9479C18.3134 15.9479 17.7775 15.731 17.3011 15.2974ZM20.3248 14.338C20.5497 13.5363 20.6622 12.5507 20.6622 11.381C20.6622 10.2114 20.5497 9.21915 20.3248 8.42405C20.0998 7.62239 19.6301 7.22812 18.9221 7.22812C18.2142 7.22812 17.7445 7.62239 17.5195 8.41748C17.2946 9.21258 17.1821 10.1982 17.1821 11.381C17.1821 12.5638 17.2946 13.5495 17.5195 14.3446C17.7445 15.1397 18.2142 15.5339 18.9221 15.5339C19.6301 15.5405 20.0998 15.1397 20.3248 14.338Z" fill="#A43E32"/>
<path d="M101.095 135.876H99.864C99.7383 135.876 99.6458 135.902 99.5862 135.955C99.5333 136.007 99.5002 136.093 99.5002 136.211V142.473H101.095V142.933H100.387C99.9236 142.933 99.5531 143.058 99.262 143.301C98.9775 143.551 98.7989 143.847 98.7327 144.195H98.3225V136.211C98.3225 136.093 98.296 136.007 98.2365 135.955C98.1836 135.902 98.0909 135.876 97.9586 135.876H96.7346V135.468H101.101V135.876H101.095Z" fill="#AF0F07"/>
<path d="M93.0891 135.915C93.5588 136.349 93.9227 136.914 94.1874 137.617C94.4454 138.32 94.5777 139.056 94.5777 139.832C94.5777 140.607 94.4454 141.343 94.1874 142.046C93.9294 142.749 93.5588 143.314 93.0891 143.748C92.6193 144.182 92.0768 144.399 91.4748 144.399C90.8793 144.399 90.3368 144.182 89.867 143.748C89.3907 143.314 89.0267 142.749 88.7621 142.046C88.5041 141.343 88.3718 140.607 88.3718 139.832C88.3718 139.056 88.5041 138.32 88.7621 137.617C89.0201 136.914 89.3907 136.349 89.867 135.915C90.3434 135.482 90.8793 135.265 91.4748 135.265C92.0768 135.265 92.6193 135.482 93.0891 135.915ZM90.0655 136.875C89.8406 137.676 89.7281 138.662 89.7281 139.832C89.7281 141.001 89.8406 141.994 90.0655 142.789C90.2905 143.59 90.7602 143.985 91.4682 143.985C92.1761 143.985 92.6458 143.59 92.8708 142.795C93.0957 142 93.2082 141.014 93.2082 139.832C93.2082 138.649 93.0957 137.663 92.8708 136.868C92.6458 136.073 92.1761 135.679 91.4682 135.679C90.7602 135.672 90.2905 136.073 90.0655 136.875Z" fill="#AF0F07"/>
<path d="M98.296 132.492C97.0389 132.525 96.7479 131.565 96.6817 131.112C96.6155 131.572 96.3244 132.525 95.0673 132.492C93.4133 132.452 93.195 130.612 93.7706 129.679C94.3462 128.746 94.6439 128.451 95.2261 127.859C95.7686 127.301 96.417 126.67 96.6618 126.282C96.6618 126.282 96.6751 126.236 96.6817 126.249C96.6883 126.236 96.7015 126.282 96.7015 126.282C96.9397 126.67 97.5947 127.294 98.1372 127.859C98.7128 128.451 99.0105 128.753 99.5927 129.679C100.168 130.612 99.95 132.452 98.296 132.492Z" fill="#AF0F07"/>
<path d="M15.8324 19.1808C14.5753 19.148 14.2842 20.1073 14.2181 20.5607C14.1519 20.1008 13.8608 19.148 12.6037 19.1808C10.9497 19.2202 10.7313 21.0601 11.3069 21.9932C11.8826 22.9263 12.1802 23.222 12.7625 23.8134C13.305 24.3719 13.9534 25.0028 14.1982 25.3904C14.1982 25.3904 14.2115 25.4364 14.2181 25.4233C14.2247 25.4364 14.2379 25.3904 14.2379 25.3904C14.4761 25.0028 15.1311 24.3785 15.6736 23.8134C16.2492 23.222 16.547 22.9197 17.1292 21.9932C17.7048 21.0667 17.4864 19.2202 15.8324 19.1808Z" fill="#AF0F07"/>
<path d="M36.8518 17.7812C33.2262 17.6958 32.3925 20.4425 32.2007 21.7698C32.0088 20.449 31.1752 17.6958 27.5496 17.7812C22.786 17.8929 22.1508 23.2023 23.8181 25.8833C25.4853 28.5643 26.3454 29.4185 28.0127 31.1335C29.5807 32.7434 31.4531 34.557 32.1478 35.6741C32.1478 35.6741 32.1874 35.8055 32.2073 35.7661C32.2271 35.799 32.2669 35.6741 32.2669 35.6741C32.9616 34.5636 34.834 32.75 36.402 31.1335C38.0693 29.4185 38.9293 28.5643 40.5966 25.8833C42.2506 23.2023 41.6221 17.8995 36.8518 17.7812Z" fill="#AF0F07"/>
<path d="M59.704 32.9866C56.0784 32.9011 55.2447 35.6478 55.0529 36.9752C54.861 35.6544 54.0273 32.9011 50.4017 32.9866C45.6381 33.0983 45.0029 38.4077 46.6702 41.0887C48.3374 43.7696 49.1976 44.6239 50.8649 46.3389C52.4329 47.9488 54.3053 49.7624 55 50.8795C55 50.8795 55.0396 51.0109 55.0595 50.9715C55.0793 51.0043 55.119 50.8795 55.119 50.8795C55.8137 49.769 57.6861 47.9554 59.2541 46.3389C60.9214 44.6304 61.7814 43.7696 63.4487 41.0887C65.1027 38.4077 64.4743 33.0983 59.704 32.9866Z" fill="#AF0F07"/>
<path d="M59.9223 120.592C56.2967 120.677 55.463 117.93 55.2712 116.603C55.0793 117.924 54.2457 120.677 50.6201 120.592C45.8565 120.48 45.2213 115.171 46.8886 112.49C48.5558 109.809 49.4159 108.954 51.0832 107.239C52.6512 105.629 54.5236 103.816 55.2183 102.699C55.2183 102.699 55.2579 102.567 55.2778 102.607C55.2976 102.574 55.3374 102.699 55.3374 102.699C56.0321 103.809 57.9045 105.623 59.4725 107.239C61.1397 108.948 61.9998 109.809 63.6671 112.49C65.3211 115.171 64.6926 120.48 59.9223 120.592Z" fill="#AF0F07"/>
<path d="M36.8518 50.9781C33.2262 50.8927 32.3925 53.6394 32.2007 54.9667C32.0088 53.6459 31.1752 50.8927 27.5496 50.9781C22.786 51.0898 22.1508 56.3992 23.8181 59.0802C25.4853 61.7612 26.3454 62.6154 28.0127 64.3304C29.5807 65.9403 31.4531 67.7539 32.1478 68.871C32.1478 68.871 32.1874 69.0024 32.2073 68.963C32.2271 68.9959 32.2669 68.871 32.2669 68.871C32.9616 67.7605 34.834 65.9469 36.402 64.3304C38.0693 62.622 38.9293 61.7612 40.5966 59.0802C42.2506 56.3992 41.6221 51.0898 36.8518 50.9781Z" fill="#AF0F07"/>
<path d="M36.8518 135.357C33.2262 135.442 32.3925 132.695 32.2007 131.368C32.0088 132.689 31.1752 135.442 27.5496 135.357C22.786 135.245 22.1508 129.936 23.8181 127.255C25.4853 124.574 26.3454 123.719 28.0127 122.004C29.5807 120.394 31.4531 118.581 32.1478 117.464C32.1478 117.464 32.1874 117.332 32.2073 117.372C32.2271 117.339 32.2669 117.464 32.2669 117.464C32.9616 118.574 34.834 120.388 36.402 122.004C38.0693 123.713 38.9293 124.574 40.5966 127.255C42.2506 129.936 41.6221 135.245 36.8518 135.357Z" fill="#AF0F07"/>
<path d="M36.8518 102.16C33.2262 102.245 32.3925 99.4986 32.2007 98.1713C32.0088 99.4921 31.1752 102.245 27.5496 102.16C22.786 102.048 22.1508 96.7388 23.8181 94.0578C25.4853 91.3768 26.3454 90.5226 28.0127 88.8076C29.5807 87.1976 31.4531 85.3841 32.1478 84.267C32.1478 84.267 32.1874 84.1356 32.2073 84.175C32.2271 84.1421 32.2669 84.267 32.2669 84.267C32.9616 85.3775 34.834 87.1911 36.402 88.8076C38.0693 90.5226 38.9293 91.3768 40.5966 94.0578C42.2506 96.7388 41.6221 102.048 36.8518 102.16Z" fill="#AF0F07"/>
<path d="M85.7386 17.7812C82.1129 17.6958 81.2793 20.4425 81.0874 21.7698C80.8955 20.449 80.0619 17.6958 76.4362 17.7812C71.6726 17.8929 71.0375 23.2023 72.7048 25.8833C74.3721 28.5643 75.2321 29.4185 76.8994 31.1335C78.4674 32.7434 80.3398 34.557 81.0345 35.6741C81.0345 35.6741 81.0742 35.8055 81.094 35.7661C81.1139 35.799 81.1536 35.6741 81.1536 35.6741C81.8482 34.5636 83.7206 32.75 85.2886 31.1335C86.9559 29.4185 87.8161 28.5643 89.4833 25.8833C91.1374 23.2023 90.5088 17.8995 85.7386 17.7812Z" fill="#AF0F07"/>
<path d="M85.7386 50.9781C82.1129 50.8927 81.2793 53.6394 81.0874 54.9667C80.8955 53.6459 80.0619 50.8927 76.4362 50.9781C71.6726 51.0898 71.0375 56.3992 72.7048 59.0802C74.3721 61.7612 75.2321 62.6154 76.8994 64.3304C78.4674 65.9403 80.3398 67.7539 81.0345 68.871C81.0345 68.871 81.0742 69.0024 81.094 68.963C81.1139 68.9959 81.1536 68.871 81.1536 68.871C81.8482 67.7605 83.7206 65.9469 85.2886 64.3304C86.9559 62.622 87.8161 61.7612 89.4833 59.0802C91.1374 56.3992 90.5088 51.0898 85.7386 50.9781Z" fill="#AF0F07"/>
<path d="M85.7386 135.357C82.1129 135.442 81.2793 132.695 81.0874 131.368C80.8955 132.689 80.0619 135.442 76.4362 135.357C71.6726 135.245 71.0375 129.936 72.7048 127.255C74.3721 124.574 75.2321 123.719 76.8994 122.004C78.4674 120.394 80.3398 118.581 81.0345 117.464C81.0345 117.464 81.0742 117.332 81.094 117.372C81.1139 117.339 81.1536 117.464 81.1536 117.464C81.8482 118.574 83.7206 120.388 85.2886 122.004C86.9559 123.713 87.8161 124.574 89.4833 127.255C91.1374 129.936 90.5088 135.245 85.7386 135.357Z" fill="#AF0F07"/>
<path d="M85.7386 102.16C82.1129 102.245 81.2793 99.4986 81.0874 98.1713C80.8955 99.4921 80.0619 102.245 76.4362 102.16C71.6726 102.048 71.0375 96.7388 72.7048 94.0578C74.3721 91.3768 75.2321 90.5226 76.8994 88.8076C78.4674 87.1976 80.3398 85.3841 81.0345 84.267C81.0345 84.267 81.0742 84.1356 81.094 84.175C81.1139 84.1421 81.1536 84.267 81.1536 84.267C81.8482 85.3775 83.7206 87.1911 85.2886 88.8076C86.9559 90.5226 87.8161 91.3768 89.4833 94.0578C91.1374 96.7388 90.5088 102.048 85.7386 102.16Z" fill="#AF0F07"/>
<path d="M98.1967 12.439C98.405 12.439 98.5739 12.2713 98.5739 12.0644C98.5739 11.8576 98.405 11.6899 98.1967 11.6899C97.9884 11.6899 97.8196 11.8576 97.8196 12.0644C97.8196 12.2713 97.9884 12.439 98.1967 12.439Z" fill="white"/>
<path d="M80.2604 12.439C80.4687 12.439 80.6376 12.2713 80.6376 12.0644C80.6376 11.8576 80.4687 11.6899 80.2604 11.6899C80.0521 11.6899 79.8833 11.8576 79.8833 12.0644C79.8833 12.2713 80.0521 12.439 80.2604 12.439Z" fill="white"/>
<path d="M63.7598 12.439C63.9681 12.439 64.1369 12.2713 64.1369 12.0644C64.1369 11.8576 63.9681 11.6899 63.7598 11.6899C63.5515 11.6899 63.3826 11.8576 63.3826 12.0644C63.3826 12.2713 63.5515 12.439 63.7598 12.439Z" fill="white"/>
<path d="M47.57 12.1827C47.57 12.3864 47.4047 12.5573 47.1929 12.5573C46.9878 12.5573 46.8159 12.393 46.8159 12.1827C46.8159 11.979 46.9812 11.8082 47.1929 11.8082C47.4047 11.8147 47.57 11.979 47.57 12.1827Z" fill="white"/>
<path d="M98.1967 26.3302C98.405 26.3302 98.5739 26.1625 98.5739 25.9556C98.5739 25.7487 98.405 25.5811 98.1967 25.5811C97.9884 25.5811 97.8196 25.7487 97.8196 25.9556C97.8196 26.1625 97.9884 26.3302 98.1967 26.3302Z" fill="white"/>
<path d="M98.1967 38.9991C98.405 38.9991 98.5739 38.8314 98.5739 38.6245C98.5739 38.4177 98.405 38.25 98.1967 38.25C97.9884 38.25 97.8196 38.4177 97.8196 38.6245C97.8196 38.8314 97.9884 38.9991 98.1967 38.9991Z" fill="white"/>
<path d="M98.1967 52.2857C98.405 52.2857 98.5739 52.118 98.5739 51.9112C98.5739 51.7043 98.405 51.5366 98.1967 51.5366C97.9884 51.5366 97.8196 51.7043 97.8196 51.9112C97.8196 52.118 97.9884 52.2857 98.1967 52.2857Z" fill="white"/>
<path d="M98.1967 60.6835C98.405 60.6835 98.5739 60.5159 98.5739 60.309C98.5739 60.1021 98.405 59.9344 98.1967 59.9344C97.9884 59.9344 97.8196 60.1021 97.8196 60.309C97.8196 60.5159 97.9884 60.6835 98.1967 60.6835Z" fill="white"/>
<path d="M98.1967 69.1076C98.405 69.1076 98.5739 68.9399 98.5739 68.7331C98.5739 68.5262 98.405 68.3585 98.1967 68.3585C97.9884 68.3585 97.8196 68.5262 97.8196 68.7331C97.8196 68.9399 97.9884 69.1076 98.1967 69.1076Z" fill="white"/>
<path d="M12.0413 12.8136C12.2496 12.8136 12.4185 12.6459 12.4185 12.439C12.4185 12.2321 12.2496 12.0645 12.0413 12.0645C11.8331 12.0645 11.6642 12.2321 11.6642 12.439C11.6642 12.6459 11.8331 12.8136 12.0413 12.8136Z" fill="white"/>
<path d="M30.5599 12.1827C30.5599 12.3864 30.3945 12.5573 30.1828 12.5573C29.9777 12.5573 29.8057 12.393 29.8057 12.1827C29.8057 11.979 29.9711 11.8082 30.1828 11.8082C30.3945 11.8147 30.5599 11.979 30.5599 12.1827Z" fill="white"/>
<path d="M12.4185 25.6599C12.4185 25.8636 12.253 26.0344 12.0413 26.0344C11.8296 26.0344 11.6642 25.8702 11.6642 25.6599C11.6642 25.4562 11.8296 25.2853 12.0413 25.2853C12.253 25.2853 12.4185 25.4496 12.4185 25.6599Z" fill="white"/>
<path d="M12.0413 39.0845C12.2496 39.0845 12.4185 38.9169 12.4185 38.71C12.4185 38.5031 12.2496 38.3354 12.0413 38.3354C11.8331 38.3354 11.6642 38.5031 11.6642 38.71C11.6642 38.9169 11.8331 39.0845 12.0413 39.0845Z" fill="white"/>
<path d="M12.0413 52.1871C12.2496 52.1871 12.4185 52.0195 12.4185 51.8126C12.4185 51.6057 12.2496 51.438 12.0413 51.438C11.8331 51.438 11.6642 51.6057 11.6642 51.8126C11.6642 52.0195 11.8331 52.1871 12.0413 52.1871Z" fill="white"/>
<path d="M12.0413 60.6835C12.2496 60.6835 12.4185 60.5159 12.4185 60.309C12.4185 60.1021 12.2496 59.9344 12.0413 59.9344C11.8331 59.9344 11.6642 60.1021 11.6642 60.309C11.6642 60.5159 11.8331 60.6835 12.0413 60.6835Z" fill="white"/>
<path d="M12.0413 69.4821C12.2496 69.4821 12.4185 69.3144 12.4185 69.1076C12.4185 68.9007 12.2496 68.733 12.0413 68.733C11.8331 68.733 11.6642 68.9007 11.6642 69.1076C11.6642 69.3144 11.8331 69.4821 12.0413 69.4821Z" fill="white"/>
<path d="M12.0413 77.9785C12.2496 77.9785 12.4185 77.8108 12.4185 77.6039C12.4185 77.3971 12.2496 77.2294 12.0413 77.2294C11.8331 77.2294 11.6642 77.3971 11.6642 77.6039C11.6642 77.8108 11.8331 77.9785 12.0413 77.9785Z" fill="white"/>
<path d="M12.0413 86.4683C12.2496 86.4683 12.4185 86.3006 12.4185 86.0937C12.4185 85.8869 12.2496 85.7192 12.0413 85.7192C11.8331 85.7192 11.6642 85.8869 11.6642 86.0937C11.6642 86.3006 11.8331 86.4683 12.0413 86.4683Z" fill="white"/>
<path d="M12.0413 95.2669C12.2496 95.2669 12.4185 95.0992 12.4185 94.8923C12.4185 94.6855 12.2496 94.5178 12.0413 94.5178C11.8331 94.5178 11.6642 94.6855 11.6642 94.8923C11.6642 95.0992 11.8331 95.2669 12.0413 95.2669Z" fill="white"/>
<path d="M12.0413 104.092C12.2496 104.092 12.4185 103.924 12.4185 103.717C12.4185 103.51 12.2496 103.343 12.0413 103.343C11.8331 103.343 11.6642 103.51 11.6642 103.717C11.6642 103.924 11.8331 104.092 12.0413 104.092Z" fill="white"/>
<path d="M12.0413 111.977C12.2496 111.977 12.4185 111.809 12.4185 111.602C12.4185 111.396 12.2496 111.228 12.0413 111.228C11.8331 111.228 11.6642 111.396 11.6642 111.602C11.6642 111.809 11.8331 111.977 12.0413 111.977Z" fill="white"/>
<path d="M12.4185 120.401C12.4185 120.605 12.253 120.776 12.0413 120.776C11.8296 120.776 11.6642 120.611 11.6642 120.401C11.6642 120.197 11.8296 120.027 12.0413 120.027C12.253 120.027 12.4185 120.197 12.4185 120.401Z" fill="white"/>
<path d="M12.0413 129.344C12.2496 129.344 12.4185 129.177 12.4185 128.97C12.4185 128.763 12.2496 128.595 12.0413 128.595C11.8331 128.595 11.6642 128.763 11.6642 128.97C11.6642 129.177 11.8331 129.344 12.0413 129.344Z" fill="white"/>
<path d="M12.2001 141.948C12.4084 141.948 12.5773 141.78 12.5773 141.573C12.5773 141.366 12.4084 141.198 12.2001 141.198C11.9919 141.198 11.8231 141.366 11.8231 141.573C11.8231 141.78 11.9919 141.948 12.2001 141.948Z" fill="white"/>
<path d="M26.147 141.948C26.147 142.151 25.9816 142.322 25.7698 142.322C25.5581 142.322 25.3928 142.158 25.3928 141.948C25.3928 141.744 25.5581 141.573 25.7698 141.573C25.9816 141.573 26.147 141.744 26.147 141.948Z" fill="white"/>
<path d="M43.6334 141.948C43.6334 142.151 43.468 142.322 43.2563 142.322C43.0446 142.322 42.8792 142.158 42.8792 141.948C42.8792 141.744 43.0446 141.573 43.2563 141.573C43.468 141.573 43.6334 141.744 43.6334 141.948Z" fill="white"/>
<path d="M60.7163 142.322C60.9246 142.322 61.0934 142.154 61.0934 141.948C61.0934 141.741 60.9246 141.573 60.7163 141.573C60.5081 141.573 60.3392 141.741 60.3392 141.948C60.3392 142.154 60.5081 142.322 60.7163 142.322Z" fill="white"/>
<path d="M77.7264 142.322C77.9347 142.322 78.1035 142.154 78.1035 141.948C78.1035 141.741 77.9347 141.573 77.7264 141.573C77.5181 141.573 77.3492 141.741 77.3492 141.948C77.3492 142.154 77.5181 142.322 77.7264 142.322Z" fill="white"/>
<path d="M98.1967 77.7682C98.405 77.7682 98.5739 77.6005 98.5739 77.3937C98.5739 77.1868 98.405 77.0191 98.1967 77.0191C97.9884 77.0191 97.8196 77.1868 97.8196 77.3937C97.8196 77.6005 97.9884 77.7682 98.1967 77.7682Z" fill="white"/>
<path d="M98.1967 85.8703C98.405 85.8703 98.5739 85.7026 98.5739 85.4958C98.5739 85.2889 98.405 85.1212 98.1967 85.1212C97.9884 85.1212 97.8196 85.2889 97.8196 85.4958C97.8196 85.7026 97.9884 85.8703 98.1967 85.8703Z" fill="white"/>
<path d="M98.1967 94.6032C98.405 94.6032 98.5739 94.4355 98.5739 94.2287C98.5739 94.0218 98.405 93.8541 98.1967 93.8541C97.9884 93.8541 97.8196 94.0218 97.8196 94.2287C97.8196 94.4355 97.9884 94.6032 98.1967 94.6032Z" fill="white"/>
<path d="M98.1967 103.211C98.405 103.211 98.5739 103.044 98.5739 102.837C98.5739 102.63 98.405 102.462 98.1967 102.462C97.9884 102.462 97.8196 102.63 97.8196 102.837C97.8196 103.044 97.9884 103.211 98.1967 103.211Z" fill="white"/>
<path d="M98.1967 111.589C98.405 111.589 98.5739 111.422 98.5739 111.215C98.5739 111.008 98.405 110.84 98.1967 110.84C97.9884 110.84 97.8196 111.008 97.8196 111.215C97.8196 111.422 97.9884 111.589 98.1967 111.589Z" fill="white"/>
<path d="M98.1967 119.849C98.405 119.849 98.5739 119.681 98.5739 119.475C98.5739 119.268 98.405 119.1 98.1967 119.1C97.9884 119.1 97.8196 119.268 97.8196 119.475C97.8196 119.681 97.9884 119.849 98.1967 119.849Z" fill="white"/>
<path d="M98.1967 128.286C98.405 128.286 98.5739 128.119 98.5739 127.912C98.5739 127.705 98.405 127.537 98.1967 127.537C97.9884 127.537 97.8196 127.705 97.8196 127.912C97.8196 128.119 97.9884 128.286 98.1967 128.286Z" fill="white"/>
<path d="M98.1967 141.139C98.405 141.139 98.5739 140.972 98.5739 140.765C98.5739 140.558 98.405 140.39 98.1967 140.39C97.9884 140.39 97.8196 140.558 97.8196 140.765C97.8196 140.972 97.9884 141.139 98.1967 141.139Z" fill="white"/>
</svg>
