<svg width="110" height="153" viewBox="0 0 110 153" fill="none" xmlns="http://www.w3.org/2000/svg">
<path d="M106.072 153H3.92763C1.75884 153 0 151.253 0 149.098V3.90219C0 1.74745 1.75884 0 3.92763 0H106.072C108.241 0 110 1.74745 110 3.90219V149.098C110 151.253 108.241 153 106.072 153Z" fill="white"/>
<path d="M98.5741 12.0679C98.5741 12.2715 98.4088 12.4423 98.1972 12.4423C97.9922 12.4423 97.8203 12.2781 97.8203 12.0679C97.8203 11.8577 97.9856 11.6934 98.1972 11.6934C98.4088 11.6934 98.5741 11.8577 98.5741 12.0679Z" fill="white"/>
<path d="M80.6354 12.0679C80.6354 12.2715 80.4701 12.4423 80.2585 12.4423C80.0535 12.4423 79.8816 12.2781 79.8816 12.0679C79.8816 11.8577 80.0469 11.6934 80.2585 11.6934C80.4701 11.6934 80.6354 11.8577 80.6354 12.0679Z" fill="white"/>
<path d="M64.1381 12.0679C64.1381 12.2715 63.9728 12.4423 63.7612 12.4423C63.5562 12.4423 63.3843 12.2781 63.3843 12.0679C63.3843 11.8577 63.5496 11.6934 63.7612 11.6934C63.9661 11.6934 64.1381 11.8577 64.1381 12.0679Z" fill="white"/>
<path d="M47.5746 12.1861C47.5746 12.3897 47.4093 12.5606 47.1977 12.5606C46.9861 12.5606 46.8208 12.3963 46.8208 12.1861C46.8208 11.9759 46.9861 11.8116 47.1977 11.8116C47.4093 11.8116 47.5746 11.9824 47.5746 12.1861Z" fill="white"/>
<path d="M98.5741 25.9555C98.5741 26.1592 98.4088 26.33 98.1972 26.33C97.9922 26.33 97.8203 26.1657 97.8203 25.9555C97.8203 25.7519 97.9856 25.5811 98.1972 25.5811C98.4088 25.5811 98.5741 25.7453 98.5741 25.9555Z" fill="white"/>
<path d="M98.5741 38.6277C98.5741 38.8314 98.4088 39.0022 98.1972 39.0022C97.9922 39.0022 97.8203 38.838 97.8203 38.6277C97.8203 38.4241 97.9856 38.2533 98.1972 38.2533C98.4088 38.2533 98.5741 38.4241 98.5741 38.6277Z" fill="white"/>
<path d="M98.5741 51.911C98.5741 52.1146 98.4088 52.2854 98.1972 52.2854C97.9922 52.2854 97.8203 52.1212 97.8203 51.911C97.8203 51.7073 97.9856 51.5365 98.1972 51.5365C98.4088 51.5365 98.5741 51.7007 98.5741 51.911Z" fill="white"/>
<path d="M98.5741 60.3066C98.5741 60.5102 98.4088 60.681 98.1972 60.681C97.9922 60.681 97.8203 60.5168 97.8203 60.3066C97.8203 60.1029 97.9856 59.9321 98.1972 59.9321C98.4088 59.9321 98.5741 60.1029 98.5741 60.3066Z" fill="white"/>
<path d="M98.5741 68.735C98.5741 68.9387 98.4088 69.1095 98.1972 69.1095C97.9922 69.1095 97.8203 68.9453 97.8203 68.735C97.8203 68.5248 97.9856 68.3606 98.1972 68.3606C98.4088 68.3606 98.5741 68.5314 98.5741 68.735Z" fill="white"/>
<path d="M12.4243 12.4358C12.4243 12.6394 12.259 12.8102 12.0474 12.8102C11.8425 12.8102 11.6705 12.646 11.6705 12.4358C11.6705 12.2321 11.8358 12.0613 12.0474 12.0613C12.2524 12.0679 12.4243 12.2321 12.4243 12.4358Z" fill="white"/>
<path d="M30.568 12.1861C30.568 12.3897 30.4027 12.5606 30.1911 12.5606C29.9861 12.5606 29.8142 12.3963 29.8142 12.1861C29.8142 11.9759 29.9795 11.8116 30.1911 11.8116C30.3961 11.8116 30.568 11.9824 30.568 12.1861Z" fill="white"/>
<path d="M12.4243 25.6599C12.4243 25.8635 12.259 26.0343 12.0474 26.0343C11.8425 26.0343 11.6705 25.8701 11.6705 25.6599C11.6705 25.4562 11.8358 25.2854 12.0474 25.2854C12.2524 25.2854 12.4243 25.4496 12.4243 25.6599Z" fill="white"/>
<path d="M12.4243 38.7131C12.4243 38.9168 12.259 39.0876 12.0474 39.0876C11.8425 39.0876 11.6705 38.9234 11.6705 38.7131C11.6705 38.5095 11.8358 38.3387 12.0474 38.3387C12.2524 38.3387 12.4243 38.5095 12.4243 38.7131Z" fill="white"/>
<path d="M12.4243 51.819C12.4243 52.0226 12.259 52.1934 12.0474 52.1934C11.8425 52.1934 11.6705 52.0292 11.6705 51.819C11.6705 51.6088 11.8358 51.4445 12.0474 51.4445C12.2524 51.4445 12.4243 51.6088 12.4243 51.819Z" fill="white"/>
<path d="M12.4243 60.3066C12.4243 60.5102 12.259 60.681 12.0474 60.681C11.8425 60.681 11.6705 60.5168 11.6705 60.3066C11.6705 60.1029 11.8358 59.9321 12.0474 59.9321C12.2524 59.9321 12.4243 60.1029 12.4243 60.3066Z" fill="white"/>
<path d="M12.4243 69.1095C12.4243 69.3131 12.259 69.484 12.0474 69.484C11.8425 69.484 11.6705 69.3197 11.6705 69.1095C11.6705 68.9058 11.8358 68.735 12.0474 68.735C12.2524 68.735 12.4243 68.8993 12.4243 69.1095Z" fill="white"/>
<path d="M12.4243 77.6036C12.4243 77.8073 12.259 77.9781 12.0474 77.9781C11.8425 77.9781 11.6705 77.8139 11.6705 77.6036C11.6705 77.4 11.8358 77.2292 12.0474 77.2292C12.2524 77.2292 12.4243 77.4 12.4243 77.6036Z" fill="white"/>
<path d="M12.4243 86.0913C12.4243 86.2949 12.259 86.4657 12.0474 86.4657C11.8425 86.4657 11.6705 86.3015 11.6705 86.0913C11.6705 85.8876 11.8358 85.7168 12.0474 85.7168C12.2524 85.7234 12.4243 85.8876 12.4243 86.0913Z" fill="white"/>
<path d="M12.4243 94.8942C12.4243 95.0978 12.259 95.2686 12.0474 95.2686C11.8425 95.2686 11.6705 95.1044 11.6705 94.8942C11.6705 94.6839 11.8358 94.5197 12.0474 94.5197C12.2524 94.5197 12.4243 94.6905 12.4243 94.8942Z" fill="white"/>
<path d="M12.4243 103.717C12.4243 103.92 12.259 104.091 12.0474 104.091C11.8425 104.091 11.6705 103.927 11.6705 103.717C11.6705 103.513 11.8358 103.342 12.0474 103.342C12.2524 103.342 12.4243 103.513 12.4243 103.717Z" fill="white"/>
<path d="M12.4243 111.6C12.4243 111.804 12.259 111.974 12.0474 111.974C11.8425 111.974 11.6705 111.81 11.6705 111.6C11.6705 111.396 11.8358 111.226 12.0474 111.226C12.2524 111.226 12.4243 111.396 12.4243 111.6Z" fill="white"/>
<path d="M12.4243 120.403C12.4243 120.607 12.259 120.777 12.0474 120.777C11.8425 120.777 11.6705 120.613 11.6705 120.403C11.6705 120.199 11.8358 120.028 12.0474 120.028C12.2524 120.028 12.4243 120.193 12.4243 120.403Z" fill="white"/>
<path d="M12.4243 128.976C12.4243 129.18 12.259 129.35 12.0474 129.35C11.8425 129.35 11.6705 129.186 11.6705 128.976C11.6705 128.766 11.8358 128.601 12.0474 128.601C12.2524 128.601 12.4243 128.766 12.4243 128.976Z" fill="white"/>
<path d="M12.5763 141.576C12.5763 141.78 12.411 141.95 12.1994 141.95C11.9944 141.95 11.8225 141.786 11.8225 141.576C11.8225 141.372 11.9878 141.201 12.1994 141.201C12.4044 141.201 12.5763 141.372 12.5763 141.576Z" fill="white"/>
<path d="M26.1445 141.95C26.1445 142.154 25.9792 142.325 25.7676 142.325C25.5627 142.325 25.3907 142.161 25.3907 141.95C25.3907 141.747 25.5561 141.576 25.7676 141.576C25.9792 141.576 26.1445 141.747 26.1445 141.95Z" fill="white"/>
<path d="M43.6337 141.95C43.6337 142.154 43.4684 142.325 43.2568 142.325C43.0518 142.325 42.8799 142.161 42.8799 141.95C42.8799 141.747 43.0452 141.576 43.2568 141.576C43.4684 141.576 43.6337 141.747 43.6337 141.95Z" fill="white"/>
<path d="M61.0964 141.95C61.0964 142.154 60.9311 142.325 60.7195 142.325C60.5146 142.325 60.3427 142.161 60.3427 141.95C60.3427 141.747 60.508 141.576 60.7195 141.576C60.9245 141.576 61.0964 141.747 61.0964 141.95Z" fill="white"/>
<path d="M78.1029 141.95C78.1029 142.154 77.9376 142.325 77.726 142.325C77.521 142.325 77.3491 142.161 77.3491 141.95C77.3491 141.747 77.5144 141.576 77.726 141.576C77.9376 141.576 78.1029 141.747 78.1029 141.95Z" fill="white"/>
<path d="M98.5741 77.3934C98.5741 77.5971 98.4088 77.7679 98.1972 77.7679C97.9922 77.7679 97.8203 77.6037 97.8203 77.3934C97.8203 77.1832 97.9856 77.019 98.1972 77.019C98.4088 77.019 98.5741 77.1898 98.5741 77.3934Z" fill="white"/>
<path d="M98.5741 85.4935C98.5741 85.6971 98.4088 85.8679 98.1972 85.8679C97.9922 85.8679 97.8203 85.7037 97.8203 85.4935C97.8203 85.2898 97.9856 85.119 98.1972 85.119C98.4088 85.119 98.5741 85.2898 98.5741 85.4935Z" fill="white"/>
<path d="M98.5741 94.2241C98.5741 94.4277 98.4088 94.5985 98.1972 94.5985C97.9922 94.5985 97.8203 94.4343 97.8203 94.2241C97.8203 94.0204 97.9856 93.8496 98.1972 93.8496C98.4088 93.8562 98.5741 94.0204 98.5741 94.2241Z" fill="white"/>
<path d="M98.5741 102.836C98.5741 103.04 98.4088 103.211 98.1972 103.211C97.9922 103.211 97.8203 103.047 97.8203 102.836C97.8203 102.633 97.9856 102.462 98.1972 102.462C98.4088 102.462 98.5741 102.626 98.5741 102.836Z" fill="white"/>
<path d="M98.5741 111.212C98.5741 111.416 98.4088 111.587 98.1972 111.587C97.9922 111.587 97.8203 111.423 97.8203 111.212C97.8203 111.009 97.9856 110.838 98.1972 110.838C98.4088 110.838 98.5741 111.009 98.5741 111.212Z" fill="white"/>
<path d="M98.5741 119.477C98.5741 119.68 98.4088 119.851 98.1972 119.851C97.9922 119.851 97.8203 119.687 97.8203 119.477C97.8203 119.273 97.9856 119.102 98.1972 119.102C98.4088 119.102 98.5741 119.266 98.5741 119.477Z" fill="white"/>
<path d="M98.5741 127.912C98.5741 128.115 98.4088 128.286 98.1972 128.286C97.9922 128.286 97.8203 128.122 97.8203 127.912C97.8203 127.708 97.9856 127.537 98.1972 127.537C98.4088 127.537 98.5741 127.701 98.5741 127.912Z" fill="white"/>
<path d="M98.5741 140.768C98.5741 140.972 98.4088 141.142 98.1972 141.142C97.9922 141.142 97.8203 140.978 97.8203 140.768C97.8203 140.564 97.9856 140.393 98.1972 140.393C98.4088 140.393 98.5741 140.558 98.5741 140.768Z" fill="white"/>
<path d="M59.3046 13.8876C55.6811 13.8022 54.8479 16.5482 54.6496 17.8752C54.4578 16.5548 53.6247 13.8022 49.9946 13.8876C45.2272 13.9993 44.5991 19.3073 46.2588 21.9876C47.925 24.6679 48.7846 25.5219 50.4509 27.2365C52.0179 28.846 53.8958 30.6657 54.5835 31.7759C54.5835 31.7759 54.6231 31.9073 54.643 31.8679C54.6628 31.9008 54.7025 31.7759 54.7025 31.7759C55.3968 30.6657 57.268 28.8526 58.8351 27.2365C60.5014 25.5219 61.3609 24.6679 63.0272 21.9876C64.6935 19.3073 64.0719 13.9993 59.3046 13.8876Z" fill="#AF0F07"/>
<path d="M59.3046 131.459C55.6811 131.545 54.8479 128.799 54.6496 127.472C54.4578 128.792 53.6247 131.545 49.9946 131.459C45.2272 131.347 44.5991 126.039 46.2588 123.359C47.925 120.679 48.7846 119.818 50.4509 118.11C52.0179 116.501 53.8958 114.681 54.5835 113.571C54.5835 113.571 54.6231 113.439 54.643 113.479C54.6628 113.446 54.7025 113.571 54.7025 113.571C55.3968 114.681 57.268 116.494 58.8351 118.11C60.5014 119.825 61.3609 120.679 63.0272 123.359C64.7001 126.039 64.0719 131.347 59.3046 131.459Z" fill="#AF0F07"/>
<path d="M13.6343 19.0577C12.378 19.0249 12.087 19.984 12.0209 20.4438C11.9548 19.984 11.6639 19.0314 10.4076 19.0577C8.75453 19.0971 8.53632 20.9365 9.11158 21.8694C9.68684 22.8022 9.99099 23.0979 10.5663 23.6891C11.1085 24.2475 11.7631 24.8781 12.0011 25.2657C12.0011 25.2657 12.0143 25.3117 12.0209 25.2986C12.0275 25.3117 12.0408 25.2657 12.0408 25.2657C12.2788 24.8781 12.9334 24.2541 13.4756 23.6891C14.0509 23.0979 14.355 22.7957 14.9303 21.8694C15.5055 20.9431 15.2873 19.0971 13.6343 19.0577Z" fill="#AF0F07"/>
<path d="M9.01902 14.8402C9.19755 14.3803 9.6009 13.8876 10.2224 13.362L11.4523 12.3175C11.8556 11.9825 12.1598 11.6212 12.3714 11.2204C12.583 10.8197 12.6888 10.3599 12.6888 9.84088C12.6888 9.17738 12.5235 8.66497 12.1995 8.30366C11.8755 7.94234 11.4126 7.76497 10.8109 7.76497C10.5398 7.76497 10.2753 7.83066 10.0241 7.95548C9.77281 8.0803 9.56783 8.2511 9.40914 8.46132C9.25045 8.67154 9.1711 8.88176 9.1711 9.10511C9.1711 9.30876 9.21739 9.45986 9.30996 9.5584C9.40253 9.65694 9.53477 9.71606 9.69347 9.74234C9.96456 9.78176 10.1695 9.87373 10.3018 10.0183C10.434 10.1562 10.5002 10.327 10.5002 10.5241C10.5002 10.6883 10.4406 10.8197 10.3282 10.9314C10.2092 11.0431 10.0505 11.0956 9.84554 11.0956C9.4951 11.0956 9.20417 10.9577 8.97274 10.6818C8.74132 10.4058 8.62891 10.0445 8.62891 9.59125C8.62891 9.15767 8.74131 8.76351 8.95951 8.41533C9.17772 8.06716 9.48187 7.79782 9.87199 7.60074C10.2621 7.40365 10.6985 7.30511 11.1746 7.30511C11.7234 7.30511 12.2127 7.41022 12.6491 7.61387C13.0855 7.81752 13.4293 8.11314 13.674 8.49417C13.9252 8.87519 14.0443 9.32847 14.0443 9.84745C14.0443 10.3664 13.8591 10.8329 13.4955 11.2467C13.1252 11.6606 12.6425 12.081 12.0474 12.508L10.7911 13.4737C10.434 13.7234 10.1563 13.9533 9.96457 14.1832C9.77281 14.4066 9.67363 14.6431 9.67363 14.8796C9.67363 15.0832 9.80587 15.1883 10.0704 15.1883H12.497C12.8409 15.1883 13.0789 15.1161 13.2244 14.965C13.3632 14.8139 13.4624 14.6037 13.5153 14.3343L13.6541 13.5788H13.9385L13.7599 16.2329H8.75454C8.74793 15.7599 8.84049 15.3 9.01902 14.8402Z" fill="#A43E32"/>
<path d="M100.578 136.045C100.399 136.504 99.9959 136.997 99.3743 137.523L98.1444 138.567C97.7411 138.902 97.437 139.264 97.2254 139.664C97.0138 140.065 96.908 140.525 96.908 141.044C96.908 141.707 97.0733 142.22 97.3973 142.581C97.7213 142.942 98.1841 143.12 98.7858 143.12C99.0569 143.12 99.3214 143.054 99.5727 142.929C99.8239 142.804 100.029 142.634 100.188 142.423C100.346 142.213 100.426 142.003 100.426 141.78C100.426 141.576 100.379 141.425 100.287 141.326C100.194 141.228 100.062 141.169 99.9033 141.142C99.6322 141.096 99.4272 141.011 99.295 140.866C99.1627 140.728 99.0966 140.558 99.0966 140.361C99.0966 140.196 99.1561 140.065 99.2685 139.953C99.3875 139.842 99.5462 139.789 99.7512 139.789C100.102 139.789 100.393 139.927 100.624 140.203C100.855 140.479 100.968 140.84 100.968 141.293C100.968 141.727 100.855 142.115 100.637 142.469C100.419 142.818 100.115 143.087 99.7248 143.284C99.3346 143.481 98.8982 143.58 98.4222 143.58C97.8734 143.58 97.3841 143.474 96.9476 143.271C96.5112 143.067 96.1674 142.772 95.9228 142.391C95.6715 142.009 95.5525 141.556 95.5525 141.037C95.5525 140.518 95.7376 140.052 96.1013 139.631C96.4716 139.218 96.9543 138.797 97.5494 138.37L98.8057 137.404C99.1627 137.155 99.4404 136.925 99.6322 136.695C99.8239 136.472 99.9231 136.235 99.9231 135.999C99.9231 135.795 99.7909 135.69 99.5264 135.69H97.0997C96.7559 135.69 96.5179 135.762 96.3724 135.913C96.2335 136.064 96.1344 136.274 96.0815 136.544L95.9426 137.299H95.6583L95.8368 134.645H100.842C100.842 135.125 100.756 135.585 100.578 136.045Z" fill="#AF0F07"/>
<path d="M99.7975 131.551C98.5412 131.584 98.2503 130.625 98.1841 130.172C98.118 130.631 97.8271 131.584 96.5708 131.551C94.9177 131.512 94.6995 129.672 95.2748 128.739C95.85 127.807 96.1542 127.511 96.7295 126.92C97.2717 126.361 97.9263 125.731 98.1643 125.343C98.1643 125.343 98.1775 125.297 98.1841 125.31C98.1908 125.297 98.204 125.343 98.204 125.343C98.442 125.731 99.0966 126.355 99.6388 126.92C100.214 127.511 100.518 127.813 101.094 128.739C101.669 129.672 101.451 131.512 99.7975 131.551Z" fill="#AF0F07"/>
</svg>
