<svg width="110" height="153" viewBox="0 0 110 153" fill="none" xmlns="http://www.w3.org/2000/svg">
<path d="M106.072 153H3.92763C1.75884 153 0 151.253 0 149.098V3.90219C0 1.74745 1.75884 0 3.92763 0H106.072C108.241 0 110 1.74745 110 3.90219V149.098C110 151.253 108.241 153 106.072 153Z" fill="white"/>
<path d="M59.5624 13.8876C55.9389 13.8022 55.1058 16.5482 54.9074 17.8752C54.7157 16.5547 53.8825 13.8022 50.2524 13.8876C45.4851 13.9992 44.8569 19.3073 46.5166 21.9876C48.1762 24.6679 49.0424 25.5219 50.7087 27.2365C52.2758 28.846 54.1536 30.6657 54.8413 31.7759C54.8413 31.7759 54.8809 31.9073 54.9008 31.8679C54.9206 31.9007 54.9603 31.7759 54.9603 31.7759C55.6546 30.6657 57.5258 28.8525 59.0929 27.2365C60.7592 25.5219 61.6187 24.6679 63.285 21.9876C64.9513 19.3073 64.3231 13.9992 59.5624 13.8876Z" fill="#AF0F07"/>
<path d="M59.5624 63.6766C55.9389 63.5912 55.1058 66.3372 54.9074 67.6642C54.7157 66.3438 53.8825 63.5912 50.2524 63.6766C45.4851 63.7883 44.8569 69.0963 46.5166 71.7766C48.1828 74.4569 49.0424 75.3175 50.7087 77.0255C52.2758 78.635 54.1536 80.4547 54.8413 81.565C54.8413 81.565 54.8809 81.6963 54.9008 81.6569C54.9206 81.6898 54.9603 81.565 54.9603 81.565C55.6546 80.4547 57.5258 78.6416 59.0929 77.0255C60.7592 75.3109 61.6187 74.4569 63.285 71.7766C64.9579 69.1029 64.3231 63.7949 59.5624 63.6766Z" fill="#AF0F07"/>
<path d="M59.5624 131.459C55.9389 131.545 55.1058 128.799 54.9074 127.472C54.7157 128.792 53.8825 131.545 50.2524 131.459C45.4851 131.347 44.8569 126.039 46.5166 123.359C48.1828 120.679 49.0424 119.818 50.7087 118.11C52.2758 116.501 54.1536 114.681 54.8413 113.571C54.8413 113.571 54.8809 113.439 54.9008 113.479C54.9206 113.446 54.9603 113.571 54.9603 113.571C55.6546 114.681 57.5258 116.494 59.0929 118.11C60.7592 119.825 61.6187 120.679 63.285 123.359C64.9579 126.039 64.3231 131.347 59.5624 131.459Z" fill="#AF0F07"/>
<path d="M13.6475 19.0576C12.3912 19.0248 12.1003 19.9839 12.0341 20.4438C11.968 19.9839 11.6771 19.0314 10.4208 19.0576C8.76772 19.0971 8.5495 20.9365 9.12476 21.8693C9.70002 22.8022 10.0042 23.0978 10.5794 23.689C11.1216 24.2474 11.7763 24.8781 12.0143 25.2657C12.0143 25.2657 12.0275 25.3117 12.0341 25.2985C12.0407 25.3117 12.054 25.2657 12.054 25.2657C12.292 24.8781 12.9466 24.254 13.4888 23.689C14.0641 23.0978 14.3682 22.7956 14.9435 21.8693C15.5187 20.943 15.3005 19.0971 13.6475 19.0576Z" fill="#AF0F07"/>
<path d="M9.54135 15.9898C9.09834 15.6941 8.87354 15.2671 8.87354 14.7087C8.87354 14.4 8.96609 14.1438 9.14462 13.927C9.32314 13.7102 9.56119 13.5985 9.85212 13.5985C10.0968 13.5985 10.2951 13.6642 10.434 13.7956C10.5729 13.927 10.6456 14.1109 10.6456 14.3343C10.6456 14.5117 10.5927 14.6693 10.4869 14.8007C10.3811 14.9321 10.2423 14.9978 10.0703 14.9978C9.77279 14.9978 9.62069 15.07 9.62069 15.2146C9.62069 15.7533 10.1629 16.016 11.2407 16.016C11.8622 16.016 12.3185 15.8058 12.5962 15.3788C12.8739 14.9518 13.0127 14.446 13.0127 13.8482C13.0127 13.1649 12.8673 12.6591 12.5697 12.3175C12.2722 11.9759 11.9151 11.8051 11.4853 11.8051C11.3597 11.8051 11.2539 11.8117 11.168 11.8314C11.0886 11.8511 10.9828 11.8773 10.8638 11.9233C10.5795 12.0153 10.3613 12.0613 10.2092 12.0613C10.0836 12.0613 9.96453 12.0284 9.87196 11.9693C9.77278 11.9102 9.72649 11.8182 9.72649 11.7C9.72649 11.5817 9.77279 11.4898 9.86536 11.4306C9.95793 11.3715 10.0769 11.3387 10.2092 11.3387C10.3547 11.3387 10.553 11.3584 10.8109 11.4044C10.9828 11.4306 11.2142 11.4438 11.5184 11.4438C11.9284 11.4438 12.2457 11.2598 12.4639 10.8919C12.6821 10.5241 12.7879 10.0971 12.7879 9.62406C12.7879 9.07224 12.6623 8.61239 12.4044 8.2445C12.1466 7.87662 11.7763 7.69925 11.287 7.69925C10.7844 7.69925 10.4274 7.77808 10.2158 7.94231C10.0042 8.10655 9.90503 8.28392 9.90503 8.48757C9.90503 8.5664 9.93808 8.64523 9.99759 8.72406C10.0571 8.8029 10.1364 8.86859 10.2422 8.92114C10.553 9.04596 10.7051 9.25618 10.7051 9.54523C10.7051 9.7226 10.6456 9.8737 10.5266 9.98538C10.4076 10.0971 10.2356 10.1562 10.0108 10.1562C9.75957 10.1562 9.54797 10.0511 9.36283 9.84085C9.17769 9.63063 9.08511 9.40071 9.08511 9.1445C9.08511 8.54669 9.31654 8.09341 9.77278 7.76494C10.229 7.44304 10.7844 7.27881 11.4324 7.27881C12.2127 7.27881 12.8342 7.48246 13.3103 7.89633C13.7864 8.3102 14.0244 8.84888 14.0244 9.51895C14.0244 9.8737 13.9384 10.1956 13.7731 10.4715C13.6078 10.7474 13.3963 10.9708 13.145 11.1482C12.8937 11.3255 12.6359 11.4372 12.3846 11.4963V11.6014C12.6689 11.654 12.9599 11.7722 13.2706 11.9627C13.5814 12.1533 13.8393 12.4095 14.0509 12.7314C14.2624 13.0533 14.3748 13.4211 14.3748 13.8416C14.3748 14.3606 14.236 14.8138 13.9517 15.2014C13.6674 15.589 13.2905 15.8846 12.8144 16.0949C12.3383 16.3051 11.8159 16.4102 11.2407 16.4102C10.553 16.4299 9.98437 16.2854 9.54135 15.9898Z" fill="#A43E32"/>
<path d="M100.584 134.888C101.027 135.184 101.252 135.611 101.252 136.169C101.252 136.478 101.16 136.734 100.981 136.951C100.803 137.168 100.565 137.273 100.274 137.273C100.029 137.273 99.8306 137.207 99.6917 137.076C99.5528 136.945 99.4801 136.761 99.4801 136.537C99.4801 136.36 99.533 136.202 99.6388 136.071C99.7446 135.939 99.8835 135.874 100.055 135.874C100.353 135.874 100.505 135.801 100.505 135.657C100.505 135.118 99.9628 134.855 98.885 134.855C98.2635 134.855 97.8072 135.066 97.5295 135.493C97.2518 135.92 97.113 136.426 97.113 137.023C97.113 137.707 97.2584 138.212 97.556 138.554C97.8535 138.896 98.2106 139.066 98.6404 139.066C98.766 139.066 98.8718 139.06 98.9578 139.04C99.0371 139.02 99.1429 138.994 99.2619 138.948C99.5462 138.856 99.7644 138.81 99.9165 138.81C100.042 138.81 100.161 138.843 100.254 138.902C100.353 138.961 100.399 139.053 100.399 139.172C100.399 139.29 100.353 139.382 100.26 139.441C100.168 139.5 100.049 139.533 99.9165 139.533C99.771 139.533 99.5727 139.513 99.3148 139.467C99.1429 139.441 98.9115 139.428 98.6073 139.428C98.1974 139.428 97.88 139.612 97.6618 139.98C97.4436 140.347 97.3378 140.774 97.3378 141.247C97.3378 141.799 97.4634 142.259 97.7213 142.627C97.9792 142.995 98.3494 143.172 98.8387 143.172C99.3413 143.172 99.6983 143.093 99.9099 142.929C100.122 142.765 100.221 142.588 100.221 142.384C100.221 142.305 100.188 142.226 100.128 142.147C100.069 142.069 99.9893 142.003 99.8835 141.95C99.5727 141.826 99.4206 141.615 99.4206 141.326C99.4206 141.149 99.4801 140.998 99.5991 140.886C99.7182 140.774 99.8901 140.715 100.115 140.715C100.366 140.715 100.578 140.82 100.763 141.031C100.948 141.241 101.041 141.471 101.041 141.727C101.041 142.325 100.809 142.778 100.353 143.107C99.8967 143.428 99.3413 143.593 98.6933 143.593C97.913 143.593 97.2915 143.389 96.8154 142.975C96.3393 142.561 96.1013 142.023 96.1013 141.353C96.1013 140.998 96.1873 140.676 96.3526 140.4C96.5179 140.124 96.7295 139.901 96.9807 139.723C97.232 139.546 97.4899 139.434 97.7411 139.375V139.27C97.4568 139.218 97.1659 139.099 96.8551 138.909C96.5443 138.718 96.2864 138.462 96.0748 138.14C95.8633 137.818 95.7509 137.444 95.7509 137.03C95.7509 136.511 95.8897 136.058 96.174 135.67C96.4584 135.282 96.8353 134.987 97.3113 134.777C97.7874 134.566 98.3098 134.461 98.885 134.461C99.5727 134.448 100.141 134.599 100.584 134.888Z" fill="#AF0F07"/>
<path d="M99.8107 131.551C98.5544 131.584 98.2635 130.625 98.1973 130.171C98.1312 130.631 97.8403 131.584 96.584 131.551C94.9309 131.512 94.7127 129.672 95.288 128.739C95.8632 127.807 96.1674 127.511 96.7427 126.92C97.2849 126.361 97.9395 125.731 98.1775 125.343C98.1775 125.343 98.1907 125.297 98.1973 125.31C98.2039 125.297 98.2172 125.343 98.2172 125.343C98.4552 125.731 99.1098 126.355 99.652 126.92C100.227 127.511 100.531 127.813 101.107 128.739C101.682 129.672 101.464 131.512 99.8107 131.551Z" fill="#AF0F07"/>
</svg>
