<svg width="110" height="153" viewBox="0 0 110 153" fill="none" xmlns="http://www.w3.org/2000/svg">
<path d="M106.072 153H3.92763C1.75884 153 0 151.253 0 149.098V3.90219C0 1.74745 1.75884 0 3.92763 0H106.072C108.241 0 110 1.74745 110 3.90219V149.098C110 151.253 108.241 153 106.072 153Z" fill="white"/>
<path d="M98.5741 12.0679C98.5741 12.2715 98.4088 12.4423 98.1972 12.4423C97.9856 12.4423 97.8203 12.2781 97.8203 12.0679C97.8203 11.8577 97.9856 11.6934 98.1972 11.6934C98.4088 11.6934 98.5741 11.8577 98.5741 12.0679Z" fill="white"/>
<path d="M80.642 12.0679C80.642 12.2715 80.4767 12.4423 80.2651 12.4423C80.0601 12.4423 79.8882 12.2781 79.8882 12.0679C79.8882 11.8577 80.0535 11.6934 80.2651 11.6934C80.4701 11.6934 80.642 11.8577 80.642 12.0679Z" fill="white"/>
<path d="M47.5746 12.1861C47.5746 12.3897 47.4093 12.5606 47.1977 12.5606C46.9927 12.5606 46.8208 12.3963 46.8208 12.1861C46.8208 11.9759 46.9861 11.8116 47.1977 11.8116C47.4093 11.8116 47.5746 11.9824 47.5746 12.1861Z" fill="white"/>
<path d="M98.5741 25.9555C98.5741 26.1592 98.4088 26.33 98.1972 26.33C97.9856 26.33 97.8203 26.1657 97.8203 25.9555C97.8203 25.7519 97.9856 25.5811 98.1972 25.5811C98.4088 25.5811 98.5741 25.7453 98.5741 25.9555Z" fill="white"/>
<path d="M98.5741 38.6277C98.5741 38.8314 98.4088 39.0022 98.1972 39.0022C97.9856 39.0022 97.8203 38.838 97.8203 38.6277C97.8203 38.4241 97.9856 38.2533 98.1972 38.2533C98.4088 38.2533 98.5741 38.4241 98.5741 38.6277Z" fill="white"/>
<path d="M12.4243 12.4358C12.4243 12.6394 12.259 12.8102 12.0474 12.8102C11.8425 12.8102 11.6705 12.646 11.6705 12.4358C11.6705 12.2321 11.8358 12.0613 12.0474 12.0613C12.259 12.0679 12.4243 12.2321 12.4243 12.4358Z" fill="white"/>
<path d="M30.568 12.1861C30.568 12.3897 30.4027 12.5606 30.1911 12.5606C29.9861 12.5606 29.8142 12.3963 29.8142 12.1861C29.8142 11.9759 29.9795 11.8116 30.1911 11.8116C30.3961 11.8116 30.568 11.9824 30.568 12.1861Z" fill="white"/>
<path d="M12.4243 25.6599C12.4243 25.8635 12.259 26.0343 12.0474 26.0343C11.8425 26.0343 11.6705 25.8701 11.6705 25.6599C11.6705 25.4562 11.8358 25.2854 12.0474 25.2854C12.259 25.2854 12.4243 25.4496 12.4243 25.6599Z" fill="white"/>
<path d="M12.4243 38.7131C12.4243 38.9168 12.259 39.0876 12.0474 39.0876C11.8425 39.0876 11.6705 38.9234 11.6705 38.7131C11.6705 38.5095 11.8358 38.3387 12.0474 38.3387C12.259 38.3387 12.4243 38.5095 12.4243 38.7131Z" fill="white"/>
<path d="M12.4243 51.819C12.4243 52.0226 12.259 52.1934 12.0474 52.1934C11.8425 52.1934 11.6705 52.0292 11.6705 51.819C11.6705 51.6088 11.8358 51.4445 12.0474 51.4445C12.259 51.4445 12.4243 51.6088 12.4243 51.819Z" fill="white"/>
<path d="M12.4243 60.3066C12.4243 60.5102 12.259 60.681 12.0474 60.681C11.8425 60.681 11.6705 60.5168 11.6705 60.3066C11.6705 60.1029 11.8358 59.9321 12.0474 59.9321C12.259 59.9321 12.4243 60.1029 12.4243 60.3066Z" fill="white"/>
<path d="M12.4243 69.1095C12.4243 69.3131 12.259 69.484 12.0474 69.484C11.8425 69.484 11.6705 69.3197 11.6705 69.1095C11.6705 68.9058 11.8358 68.735 12.0474 68.735C12.259 68.735 12.4243 68.8993 12.4243 69.1095Z" fill="white"/>
<path d="M12.4243 77.6036C12.4243 77.8073 12.259 77.9781 12.0474 77.9781C11.8425 77.9781 11.6705 77.8139 11.6705 77.6036C11.6705 77.4 11.8358 77.2292 12.0474 77.2292C12.259 77.2292 12.4243 77.4 12.4243 77.6036Z" fill="white"/>
<path d="M12.4243 111.6C12.4243 111.804 12.259 111.974 12.0474 111.974C11.8425 111.974 11.6705 111.81 11.6705 111.6C11.6705 111.396 11.8358 111.226 12.0474 111.226C12.259 111.226 12.4243 111.396 12.4243 111.6Z" fill="white"/>
<path d="M12.4243 120.403C12.4243 120.607 12.259 120.777 12.0474 120.777C11.8425 120.777 11.6705 120.613 11.6705 120.403C11.6705 120.199 11.8358 120.028 12.0474 120.028C12.259 120.028 12.4243 120.193 12.4243 120.403Z" fill="white"/>
<path d="M12.4243 128.976C12.4243 129.18 12.259 129.35 12.0474 129.35C11.8425 129.35 11.6705 129.186 11.6705 128.976C11.6705 128.766 11.8358 128.601 12.0474 128.601C12.259 128.601 12.4243 128.766 12.4243 128.976Z" fill="white"/>
<path d="M12.5763 141.576C12.5763 141.78 12.411 141.95 12.1994 141.95C11.9878 141.95 11.8225 141.786 11.8225 141.576C11.8225 141.372 11.9878 141.201 12.1994 141.201C12.411 141.201 12.5763 141.372 12.5763 141.576Z" fill="white"/>
<path d="M43.6403 141.95C43.6403 142.154 43.475 142.325 43.2634 142.325C43.0584 142.325 42.8865 142.161 42.8865 141.95C42.8865 141.747 43.0518 141.576 43.2634 141.576C43.4684 141.576 43.6403 141.747 43.6403 141.95Z" fill="white"/>
<path d="M61.0964 141.95C61.0964 142.154 60.9311 142.325 60.7195 142.325C60.5146 142.325 60.3427 142.161 60.3427 141.95C60.3427 141.747 60.5079 141.576 60.7195 141.576C60.9311 141.576 61.0964 141.747 61.0964 141.95Z" fill="white"/>
<path d="M78.1029 141.95C78.1029 142.154 77.9376 142.325 77.726 142.325C77.5144 142.325 77.3491 142.161 77.3491 141.95C77.3491 141.747 77.5144 141.576 77.726 141.576C77.9376 141.576 78.1029 141.747 78.1029 141.95Z" fill="white"/>
<path d="M98.5741 102.836C98.5741 103.04 98.4088 103.211 98.1972 103.211C97.9856 103.211 97.8203 103.047 97.8203 102.836C97.8203 102.633 97.9856 102.462 98.1972 102.462C98.4088 102.462 98.5741 102.626 98.5741 102.836Z" fill="white"/>
<path d="M98.5741 111.212C98.5741 111.416 98.4088 111.587 98.1972 111.587C97.9856 111.587 97.8203 111.423 97.8203 111.212C97.8203 111.009 97.9856 110.838 98.1972 110.838C98.4088 110.838 98.5741 111.009 98.5741 111.212Z" fill="white"/>
<path d="M98.5741 119.477C98.5741 119.68 98.4088 119.851 98.1972 119.851C97.9856 119.851 97.8203 119.687 97.8203 119.477C97.8203 119.273 97.9856 119.102 98.1972 119.102C98.4088 119.102 98.5741 119.266 98.5741 119.477Z" fill="white"/>
<path d="M98.5741 127.912C98.5741 128.115 98.4088 128.286 98.1972 128.286C97.9856 128.286 97.8203 128.122 97.8203 127.912C97.8203 127.708 97.9856 127.537 98.1972 127.537C98.4088 127.537 98.5741 127.701 98.5741 127.912Z" fill="white"/>
<path d="M98.5741 140.768C98.5741 140.972 98.4088 141.142 98.1972 141.142C97.9856 141.142 97.8203 140.978 97.8203 140.768C97.8203 140.564 97.9856 140.393 98.1972 140.393C98.4088 140.393 98.5741 140.558 98.5741 140.768Z" fill="white"/>
<path d="M13.6608 19.0577C12.4045 19.0249 12.1135 19.984 12.0474 20.4438C11.9813 19.984 11.6904 19.0314 10.434 19.0577C8.78101 19.0971 8.56281 20.9365 9.13807 21.8694C9.71333 22.8022 10.0175 23.0979 10.5927 23.6891C11.1349 24.2475 11.7895 24.8781 12.0276 25.2657C12.0276 25.2657 12.0408 25.3117 12.0474 25.2986C12.054 25.3117 12.0673 25.2657 12.0673 25.2657C12.3053 24.8781 12.9599 24.2541 13.5021 23.6891C14.0774 23.0979 14.3815 22.7957 14.9568 21.8694C15.532 20.9431 15.3138 19.0971 13.6608 19.0577Z" fill="#AF0F07"/>
<path d="M10.606 15.819H11.8491C11.9681 15.819 12.054 15.7927 12.1135 15.7402C12.1664 15.6876 12.1995 15.6022 12.1995 15.484V13.7759H8.9397V13.3161L12.9202 7.48907H13.3831V13.3161H14.9369V13.7759H13.3831V15.484C13.3831 15.6022 13.4095 15.6876 13.469 15.7402C13.5285 15.7927 13.6145 15.819 13.7335 15.819H14.9766V16.2263H10.6126V15.819H10.606ZM9.52819 13.3227H12.1995V9.42046L9.52819 13.3227Z" fill="#A43E32"/>
<path d="M100.055 135.066H98.8122C98.6932 135.066 98.6072 135.092 98.5477 135.145C98.4948 135.197 98.4618 135.283 98.4618 135.401V137.109H101.722V137.569L97.7411 143.396H97.2782V137.569H95.7244V137.109H97.2782V135.401C97.2782 135.283 97.2518 135.197 97.1922 135.145C97.1393 135.092 97.0468 135.066 96.9278 135.066H95.6847V134.658H100.049V135.066H100.055ZM101.133 137.562H98.4618V141.464L101.133 137.562Z" fill="#AF0F07"/>
<path d="M99.824 131.551C98.5677 131.584 98.2768 130.625 98.2106 130.172C98.1445 130.631 97.8536 131.584 96.5973 131.551C94.9442 131.512 94.726 129.672 95.3013 128.739C95.8765 127.807 96.1807 127.511 96.756 126.92C97.2982 126.361 97.9527 125.731 98.1908 125.343C98.1908 125.343 98.204 125.297 98.2106 125.31C98.2173 125.297 98.2305 125.343 98.2305 125.343C98.4685 125.731 99.1231 126.355 99.6653 126.92C100.241 127.511 100.545 127.813 101.12 128.739C101.695 129.672 101.477 131.512 99.824 131.551Z" fill="#AF0F07"/>
<path d="M42.6683 16.3183C39.0449 16.2329 38.2117 18.9789 38.0134 20.3059C37.8216 18.9854 36.9885 16.2329 33.3584 16.3183C28.591 16.43 27.9629 21.738 29.6225 24.4183C31.2822 27.0986 32.1484 27.9526 33.8146 29.6672C35.3817 31.2767 37.2596 33.0964 37.9473 34.2066C37.9473 34.2066 37.9869 34.338 38.0068 34.2986C38.0266 34.3314 38.0663 34.2066 38.0663 34.2066C38.7605 33.0964 40.6318 31.2833 42.1989 29.6672C43.8651 27.9526 44.7247 27.0986 46.391 24.4183C48.0572 21.738 47.4357 16.43 42.6683 16.3183Z" fill="#AF0F07"/>
<path d="M42.6683 130.855C39.0449 130.94 38.2117 128.194 38.0134 126.867C37.8216 128.188 36.9885 130.94 33.3584 130.855C28.591 130.743 27.9629 125.435 29.6225 122.755C31.2822 120.074 32.1484 119.214 33.8146 117.506C35.3817 115.896 37.2596 114.077 37.9473 112.966C37.9473 112.966 37.9869 112.835 38.0068 112.875C38.0266 112.842 38.0663 112.966 38.0663 112.966C38.7605 114.077 40.6318 115.89 42.1989 117.506C43.8651 119.22 44.7247 120.074 46.391 122.755C48.0572 125.435 47.4357 130.743 42.6683 130.855Z" fill="#AF0F07"/>
<path d="M76.8929 16.3183C73.2695 16.2329 72.4363 18.9789 72.238 20.3059C72.0462 18.9854 71.2131 16.2329 67.583 16.3183C62.8156 16.43 62.1875 21.738 63.8471 24.4183C65.5068 27.0986 66.373 27.9526 68.0392 29.6672C69.6063 31.2767 71.4842 33.0964 72.1719 34.2066C72.1719 34.2066 72.2115 34.338 72.2314 34.2986C72.2512 34.3314 72.2909 34.2066 72.2909 34.2066C72.9852 33.0964 74.8564 31.2833 76.4235 29.6672C78.0898 27.9526 78.9493 27.0986 80.6156 24.4183C82.2885 21.738 81.6537 16.43 76.8929 16.3183Z" fill="#AF0F07"/>
<path d="M76.8929 130.855C73.2695 130.94 72.4363 128.194 72.238 126.867C72.0462 128.188 71.2131 130.94 67.583 130.855C62.8156 130.743 62.1875 125.435 63.8471 122.755C65.5068 120.074 66.373 119.214 68.0392 117.506C69.6063 115.896 71.4842 114.077 72.1719 112.966C72.1719 112.966 72.2115 112.835 72.2314 112.875C72.2512 112.842 72.2909 112.966 72.2909 112.966C72.9852 114.077 74.8564 115.89 76.4235 117.506C78.0898 119.22 78.9493 120.074 80.6156 122.755C82.2885 125.435 81.6537 130.743 76.8929 130.855Z" fill="#AF0F07"/>
</svg>
