<svg width="110" height="153" viewBox="0 0 110 153" fill="none" xmlns="http://www.w3.org/2000/svg">
<path d="M99.5197 135.801C98.2634 135.834 97.9724 134.875 97.9063 134.415C97.8402 134.875 97.5493 135.828 96.293 135.801C94.6399 135.762 94.4217 133.923 94.997 132.99C95.5722 132.057 95.8764 131.761 96.4516 131.17C96.9938 130.612 97.6484 129.981 97.8865 129.593C97.8865 129.593 97.8997 129.547 97.9063 129.561C97.9129 129.547 97.9261 129.593 97.9261 129.593C98.1642 129.981 98.8188 130.605 99.361 131.17C99.9363 131.761 100.24 132.064 100.816 132.99C101.391 133.923 101.173 135.762 99.5197 135.801Z" fill="#AF0F07"/>
<path d="M106.066 153H3.92763C1.75884 153 0 151.253 0 149.098V3.90219C0 1.74745 1.75884 0 3.92763 0H106.072C108.241 0 110 1.74745 110 3.90219V149.098C109.993 151.253 108.235 153 106.066 153Z" fill="white"/>
<path d="M98.5675 12.0679C98.5675 12.2715 98.4022 12.4423 98.1906 12.4423C97.979 12.4423 97.8137 12.2781 97.8137 12.0679C97.8137 11.8577 97.979 11.6934 98.1906 11.6934C98.4022 11.6934 98.5675 11.8577 98.5675 12.0679Z" fill="white"/>
<path d="M80.6354 12.0679C80.6354 12.2715 80.4701 12.4423 80.2585 12.4423C80.0469 12.4423 79.8816 12.2781 79.8816 12.0679C79.8816 11.8577 80.0469 11.6934 80.2585 11.6934C80.4701 11.6934 80.6354 11.8577 80.6354 12.0679Z" fill="white"/>
<path d="M64.1314 12.0679C64.1314 12.2715 63.9661 12.4423 63.7545 12.4423C63.5429 12.4423 63.3776 12.2781 63.3776 12.0679C63.3776 11.8577 63.5429 11.6934 63.7545 11.6934C63.9661 11.6934 64.1314 11.8577 64.1314 12.0679Z" fill="white"/>
<path d="M47.568 12.1861C47.568 12.3897 47.4027 12.5606 47.1911 12.5606C46.9861 12.5606 46.8142 12.3963 46.8142 12.1861C46.8142 11.9759 46.9795 11.8116 47.1911 11.8116C47.4027 11.8116 47.568 11.9824 47.568 12.1861Z" fill="white"/>
<path d="M98.5675 25.9555C98.5675 26.1592 98.4022 26.33 98.1906 26.33C97.979 26.33 97.8137 26.1657 97.8137 25.9555C97.8137 25.7519 97.979 25.5811 98.1906 25.5811C98.4022 25.5811 98.5675 25.7453 98.5675 25.9555Z" fill="white"/>
<path d="M98.5675 38.6277C98.5675 38.8314 98.4022 39.0022 98.1906 39.0022C97.979 39.0022 97.8137 38.838 97.8137 38.6277C97.8137 38.4241 97.979 38.2533 98.1906 38.2533C98.4022 38.2533 98.5675 38.4241 98.5675 38.6277Z" fill="white"/>
<path d="M98.5675 51.911C98.5675 52.1146 98.4022 52.2854 98.1906 52.2854C97.979 52.2854 97.8137 52.1212 97.8137 51.911C97.8137 51.7073 97.979 51.5365 98.1906 51.5365C98.4022 51.5365 98.5675 51.7007 98.5675 51.911Z" fill="white"/>
<path d="M98.5675 60.3066C98.5675 60.5102 98.4022 60.681 98.1906 60.681C97.979 60.681 97.8137 60.5168 97.8137 60.3066C97.8137 60.1029 97.979 59.9321 98.1906 59.9321C98.4022 59.9321 98.5675 60.1029 98.5675 60.3066Z" fill="white"/>
<path d="M98.5675 68.735C98.5675 68.9387 98.4022 69.1095 98.1906 69.1095C97.979 69.1095 97.8137 68.9453 97.8137 68.735C97.8137 68.5248 97.979 68.3606 98.1906 68.3606C98.4022 68.3606 98.5675 68.5314 98.5675 68.735Z" fill="white"/>
<path d="M12.4176 12.4358C12.4176 12.6394 12.2523 12.8102 12.0407 12.8102C11.8357 12.8102 11.6638 12.646 11.6638 12.4358C11.6638 12.2321 11.8291 12.0613 12.0407 12.0613C12.2523 12.0679 12.4176 12.2321 12.4176 12.4358Z" fill="white"/>
<path d="M30.5615 12.1861C30.5615 12.3897 30.3962 12.5606 30.1846 12.5606C29.973 12.5606 29.8077 12.3963 29.8077 12.1861C29.8077 11.9759 29.973 11.8116 30.1846 11.8116C30.3962 11.8116 30.5615 11.9824 30.5615 12.1861Z" fill="white"/>
<path d="M12.4176 25.6599C12.4176 25.8635 12.2523 26.0343 12.0407 26.0343C11.8357 26.0343 11.6638 25.8701 11.6638 25.6599C11.6638 25.4562 11.8291 25.2854 12.0407 25.2854C12.2523 25.2854 12.4176 25.4496 12.4176 25.6599Z" fill="white"/>
<path d="M12.4176 38.7131C12.4176 38.9168 12.2523 39.0876 12.0407 39.0876C11.8357 39.0876 11.6638 38.9234 11.6638 38.7131C11.6638 38.5095 11.8291 38.3387 12.0407 38.3387C12.2523 38.3387 12.4176 38.5095 12.4176 38.7131Z" fill="white"/>
<path d="M12.4176 51.819C12.4176 52.0226 12.2523 52.1934 12.0407 52.1934C11.8357 52.1934 11.6638 52.0292 11.6638 51.819C11.6638 51.6088 11.8291 51.4445 12.0407 51.4445C12.2523 51.4445 12.4176 51.6088 12.4176 51.819Z" fill="white"/>
<path d="M12.4176 60.3066C12.4176 60.5102 12.2523 60.681 12.0407 60.681C11.8357 60.681 11.6638 60.5168 11.6638 60.3066C11.6638 60.1029 11.8291 59.9321 12.0407 59.9321C12.2523 59.9321 12.4176 60.1029 12.4176 60.3066Z" fill="white"/>
<path d="M12.4176 69.1095C12.4176 69.3131 12.2523 69.484 12.0407 69.484C11.8357 69.484 11.6638 69.3197 11.6638 69.1095C11.6638 68.9058 11.8291 68.735 12.0407 68.735C12.2523 68.735 12.4176 68.8993 12.4176 69.1095Z" fill="white"/>
<path d="M12.4176 77.6036C12.4176 77.8073 12.2523 77.9781 12.0407 77.9781C11.8357 77.9781 11.6638 77.8139 11.6638 77.6036C11.6638 77.4 11.8291 77.2292 12.0407 77.2292C12.2523 77.2292 12.4176 77.4 12.4176 77.6036Z" fill="white"/>
<path d="M12.4176 86.0913C12.4176 86.2949 12.2523 86.4657 12.0407 86.4657C11.8357 86.4657 11.6638 86.3015 11.6638 86.0913C11.6638 85.8876 11.8291 85.7168 12.0407 85.7168C12.2523 85.7234 12.4176 85.8876 12.4176 86.0913Z" fill="white"/>
<path d="M12.4176 94.8942C12.4176 95.0978 12.2523 95.2686 12.0407 95.2686C11.8357 95.2686 11.6638 95.1044 11.6638 94.8942C11.6638 94.6839 11.8291 94.5197 12.0407 94.5197C12.2523 94.5197 12.4176 94.6905 12.4176 94.8942Z" fill="white"/>
<path d="M12.4176 103.717C12.4176 103.92 12.2523 104.091 12.0407 104.091C11.8357 104.091 11.6638 103.927 11.6638 103.717C11.6638 103.513 11.8291 103.342 12.0407 103.342C12.2523 103.342 12.4176 103.513 12.4176 103.717Z" fill="white"/>
<path d="M12.4176 111.6C12.4176 111.804 12.2523 111.974 12.0407 111.974C11.8357 111.974 11.6638 111.81 11.6638 111.6C11.6638 111.396 11.8291 111.226 12.0407 111.226C12.2523 111.226 12.4176 111.396 12.4176 111.6Z" fill="white"/>
<path d="M12.4176 120.403C12.4176 120.607 12.2523 120.777 12.0407 120.777C11.8357 120.777 11.6638 120.613 11.6638 120.403C11.6638 120.199 11.8291 120.028 12.0407 120.028C12.2523 120.028 12.4176 120.193 12.4176 120.403Z" fill="white"/>
<path d="M12.4176 128.976C12.4176 129.18 12.2523 129.35 12.0407 129.35C11.8357 129.35 11.6638 129.186 11.6638 128.976C11.6638 128.766 11.8291 128.601 12.0407 128.601C12.2523 128.601 12.4176 128.766 12.4176 128.976Z" fill="white"/>
<path d="M12.5697 141.576C12.5697 141.78 12.4044 141.95 12.1928 141.95C11.9878 141.95 11.8159 141.786 11.8159 141.576C11.8159 141.372 11.9812 141.201 12.1928 141.201C12.4044 141.201 12.5697 141.372 12.5697 141.576Z" fill="white"/>
<path d="M26.1444 141.95C26.1444 142.154 25.9791 142.325 25.7675 142.325C25.5559 142.325 25.3906 142.161 25.3906 141.95C25.3906 141.747 25.5559 141.576 25.7675 141.576C25.9791 141.576 26.1444 141.747 26.1444 141.95Z" fill="white"/>
<path d="M43.6337 141.95C43.6337 142.154 43.4684 142.325 43.2568 142.325C43.0452 142.325 42.8799 142.161 42.8799 141.95C42.8799 141.747 43.0452 141.576 43.2568 141.576C43.4684 141.576 43.6337 141.747 43.6337 141.95Z" fill="white"/>
<path d="M61.0899 141.95C61.0899 142.154 60.9245 142.325 60.713 142.325C60.5014 142.325 60.3361 142.161 60.3361 141.95C60.3361 141.747 60.5014 141.576 60.713 141.576C60.9245 141.576 61.0899 141.747 61.0899 141.95Z" fill="white"/>
<path d="M78.0963 141.95C78.0963 142.154 77.931 142.325 77.7194 142.325C77.5078 142.325 77.3425 142.161 77.3425 141.95C77.3425 141.747 77.5078 141.576 77.7194 141.576C77.931 141.576 78.0963 141.747 78.0963 141.95Z" fill="white"/>
<path d="M98.5675 77.3934C98.5675 77.5971 98.4022 77.7679 98.1906 77.7679C97.979 77.7679 97.8137 77.6037 97.8137 77.3934C97.8137 77.1832 97.979 77.019 98.1906 77.019C98.4022 77.019 98.5675 77.1898 98.5675 77.3934Z" fill="white"/>
<path d="M98.5675 85.4935C98.5675 85.6971 98.4022 85.8679 98.1906 85.8679C97.979 85.8679 97.8137 85.7037 97.8137 85.4935C97.8137 85.2898 97.979 85.119 98.1906 85.119C98.4022 85.119 98.5675 85.2898 98.5675 85.4935Z" fill="white"/>
<path d="M98.5675 94.2241C98.5675 94.4277 98.4022 94.5985 98.1906 94.5985C97.979 94.5985 97.8137 94.4343 97.8137 94.2241C97.8137 94.0204 97.979 93.8496 98.1906 93.8496C98.4022 93.8496 98.5675 94.0204 98.5675 94.2241Z" fill="white"/>
<path d="M98.5675 102.836C98.5675 103.04 98.4022 103.211 98.1906 103.211C97.979 103.211 97.8137 103.047 97.8137 102.836C97.8137 102.633 97.979 102.462 98.1906 102.462C98.4022 102.462 98.5675 102.626 98.5675 102.836Z" fill="white"/>
<path d="M98.5675 111.212C98.5675 111.416 98.4022 111.587 98.1906 111.587C97.979 111.587 97.8137 111.423 97.8137 111.212C97.8137 111.009 97.979 110.838 98.1906 110.838C98.4022 110.838 98.5675 111.009 98.5675 111.212Z" fill="white"/>
<path d="M98.5675 119.477C98.5675 119.68 98.4022 119.851 98.1906 119.851C97.979 119.851 97.8137 119.687 97.8137 119.477C97.8137 119.273 97.979 119.102 98.1906 119.102C98.4022 119.102 98.5675 119.266 98.5675 119.477Z" fill="white"/>
<path d="M98.5675 127.912C98.5675 128.115 98.4022 128.286 98.1906 128.286C97.979 128.286 97.8137 128.122 97.8137 127.912C97.8137 127.708 97.979 127.537 98.1906 127.537C98.4022 127.537 98.5675 127.701 98.5675 127.912Z" fill="white"/>
<path d="M98.5675 140.768C98.5675 140.972 98.4022 141.142 98.1906 141.142C97.979 141.142 97.8137 140.978 97.8137 140.768C97.8137 140.564 97.979 140.393 98.1906 140.393C98.4022 140.393 98.5675 140.558 98.5675 140.768Z" fill="white"/>
<path d="M8.78752 18.8146C8.43707 18.6503 8.16599 18.427 7.98085 18.1379C7.79571 17.8555 7.69653 17.5336 7.69653 17.1854C7.69653 16.7846 7.80231 16.4825 8.00729 16.2657C8.21226 16.0555 8.45032 15.9503 8.72803 15.9503C8.95946 15.9503 9.13799 16.0226 9.27023 16.1606C9.40248 16.2985 9.46859 16.4759 9.46859 16.6927C9.46859 16.8372 9.4223 16.9686 9.34296 17.0934C9.257 17.2182 9.14459 17.3102 9.01235 17.3693C8.89333 17.4284 8.80076 17.4876 8.72803 17.5467C8.66191 17.6058 8.62221 17.6846 8.62221 17.7898C8.62221 18.0591 8.72803 18.2759 8.93962 18.427C9.15121 18.5781 9.51486 18.6569 10.0306 18.6569C10.6654 18.6569 11.1216 18.3876 11.4059 17.8423C11.6903 17.2971 11.8291 16.6073 11.8291 15.7795C11.8291 14.9978 11.6903 14.4 11.4192 13.9795C11.1481 13.5657 10.6984 13.3555 10.0835 13.3555C9.83225 13.3555 9.62064 13.3949 9.44211 13.4671C9.26359 13.5394 9.07847 13.6708 8.89333 13.8547C8.80738 13.9401 8.73464 14.0518 8.68174 14.1898C8.62884 14.3277 8.59578 14.4525 8.59578 14.5511C8.59578 14.643 8.56934 14.7219 8.52305 14.781C8.47677 14.8401 8.41724 14.873 8.33789 14.873C8.19904 14.873 8.13292 14.7679 8.13292 14.5576V10.1562L8.41724 9.93939C8.59577 10.0905 8.86025 10.2219 9.20409 10.3204C9.54792 10.4255 9.87194 10.4715 10.1761 10.4715C10.5861 10.4715 10.9563 10.4321 11.2936 10.3598C11.6308 10.281 11.968 10.143 12.3184 9.93939L12.4705 10.1168C12.1597 10.5175 11.7829 10.8394 11.3332 11.0825C10.8836 11.3255 10.4075 11.4438 9.90497 11.4438C9.58759 11.4438 9.33635 11.4241 9.1446 11.3846C8.95946 11.3452 8.77431 11.2795 8.59578 11.1876V13.6248L8.67512 13.6511C8.8801 13.4146 9.13137 13.2306 9.42892 13.0992C9.72647 12.9679 10.0306 12.9022 10.348 12.9022C11.2472 12.9022 11.9482 13.1649 12.4441 13.6905C12.9466 14.216 13.1978 14.9124 13.1978 15.7795C13.1978 16.3971 13.0524 16.962 12.7681 17.4613C12.4837 17.9606 12.1002 18.3547 11.6175 18.6438C11.1415 18.9263 10.6125 19.0708 10.0372 19.0708C9.55454 19.0642 9.13796 18.9788 8.78752 18.8146Z" fill="#A43E32"/>
<path d="M99.2817 138.62C99.6321 138.784 99.9032 139.007 100.088 139.296C100.274 139.579 100.373 139.901 100.373 140.249C100.373 140.65 100.267 140.952 100.062 141.169C99.857 141.379 99.6189 141.484 99.3412 141.484C99.1098 141.484 98.9312 141.412 98.7924 141.274C98.6601 141.136 98.594 140.958 98.594 140.742C98.594 140.597 98.6403 140.466 98.7197 140.341C98.8056 140.216 98.918 140.124 99.0503 140.065C99.1693 140.006 99.2618 139.947 99.3346 139.888C99.4007 139.828 99.4404 139.75 99.4404 139.644C99.4404 139.375 99.3346 139.158 99.123 139.007C98.9114 138.856 98.5477 138.777 98.032 138.777C97.3972 138.777 96.941 139.047 96.6567 139.592C96.3723 140.137 96.2335 140.827 96.2335 141.655C96.2335 142.436 96.3723 143.034 96.6434 143.455C96.9145 143.869 97.3642 144.079 97.9791 144.079C98.2304 144.079 98.4419 144.046 98.6205 143.967C98.799 143.895 98.9841 143.763 99.1693 143.58C99.2552 143.494 99.328 143.382 99.3809 143.244C99.4338 143.107 99.4668 142.982 99.4668 142.883C99.4668 142.791 99.4933 142.712 99.5396 142.653C99.5858 142.594 99.6454 142.561 99.7247 142.561C99.8636 142.561 99.9297 142.666 99.9297 142.883V147.285L99.6454 147.501C99.4668 147.35 99.2024 147.219 98.8585 147.12C98.5147 147.015 98.1907 146.969 97.8865 146.969C97.4766 146.969 97.1063 147.009 96.7691 147.081C96.4318 147.16 96.0946 147.298 95.7442 147.501L95.5921 147.324C95.9029 146.923 96.2798 146.601 96.7294 146.365C97.179 146.122 97.6551 146.004 98.1576 146.004C98.475 146.004 98.7263 146.023 98.918 146.063C99.1031 146.102 99.2883 146.168 99.4668 146.26V143.823L99.3875 143.796C99.1825 144.033 98.9312 144.217 98.6337 144.348C98.3361 144.48 98.032 144.545 97.7146 144.545C96.8153 144.545 96.1145 144.282 95.6185 143.757C95.116 143.231 94.8647 142.535 94.8647 141.668C94.8647 141.05 95.0102 140.485 95.2946 139.986C95.5789 139.487 95.9624 139.093 96.4451 138.804C96.9211 138.521 97.4501 138.377 98.0254 138.377C98.5147 138.377 98.9312 138.455 99.2817 138.62Z" fill="#A43E32"/>
<path d="M12.7416 22.7036C11.4853 22.6708 11.1944 23.6299 11.1282 24.0832C11.0621 23.6234 10.7712 22.6708 9.51487 22.7036C7.86183 22.7431 7.64362 24.5825 8.21888 25.5153C8.79413 26.4482 9.0983 26.7438 9.67356 27.335C10.2158 27.8934 10.8704 28.5241 11.1084 28.9117C11.1084 28.9117 11.1216 28.9577 11.1282 28.9445C11.1349 28.9577 11.1481 28.9117 11.1481 28.9117C11.3861 28.5241 12.0407 27.9 12.5829 27.335C13.1581 26.7438 13.4623 26.4416 14.0376 25.5153C14.6194 24.5825 14.3947 22.7431 12.7416 22.7036Z" fill="#AF0F07"/>
<path d="M41.1343 19.9642C37.5108 19.8788 36.6777 22.6248 36.4793 23.9518C36.2875 22.6314 35.4544 19.8788 31.8243 19.9642C27.057 20.0759 26.4288 25.3839 28.0885 28.0642C29.7481 30.7445 30.6143 31.6051 32.2806 33.3131C33.8477 34.9226 35.7255 36.7423 36.4132 37.8525C36.4132 37.8525 36.4528 37.9839 36.4727 37.9445C36.4925 37.9774 36.5322 37.8525 36.5322 37.8525C37.2265 36.7423 39.0977 34.9292 40.6648 33.3131C42.3311 31.5985 43.1906 30.7445 44.8569 28.0642C46.5232 25.3839 45.9016 20.0759 41.1343 19.9642Z" fill="#AF0F07"/>
<path d="M41.1343 134.501C37.5108 134.586 36.6777 131.84 36.4793 130.513C36.2875 131.834 35.4544 134.586 31.8243 134.501C27.057 134.389 26.4288 129.081 28.0885 126.401C29.7547 123.72 30.6143 122.86 32.2806 121.152C33.8477 119.542 35.7255 117.723 36.4132 116.612C36.4132 116.612 36.4528 116.481 36.4727 116.52C36.4925 116.488 36.5322 116.612 36.5322 116.612C37.2265 117.723 39.0977 119.536 40.6648 121.152C42.3311 122.866 43.1906 123.72 44.8569 126.401C46.5298 129.081 45.9016 134.382 41.1343 134.501Z" fill="#AF0F07"/>
<path d="M75.9672 19.9642C72.3437 19.8788 71.5105 22.6248 71.3122 23.9518C71.1204 22.6314 70.2873 19.8788 66.6572 19.9642C61.8899 20.0759 61.2617 25.3839 62.9213 28.0642C64.581 30.7445 65.4472 31.6051 67.1135 33.3131C68.6806 34.9226 70.5584 36.7423 71.2461 37.8525C71.2461 37.8525 71.2857 37.9839 71.3056 37.9445C71.3254 37.9774 71.3651 37.8525 71.3651 37.8525C72.0594 36.7423 73.9306 34.9292 75.4977 33.3131C77.164 31.5985 78.0236 30.7445 79.6898 28.0642C81.3561 25.3839 80.7345 20.0759 75.9672 19.9642Z" fill="#AF0F07"/>
<path d="M75.9672 134.501C72.3437 134.586 71.5105 131.84 71.3122 130.513C71.1204 131.834 70.2873 134.586 66.6572 134.501C61.8899 134.389 61.2617 129.081 62.9213 126.401C64.5876 123.72 65.4472 122.86 67.1135 121.152C68.6806 119.542 70.5584 117.723 71.2461 116.612C71.2461 116.612 71.2857 116.481 71.3056 116.52C71.3254 116.488 71.3651 116.612 71.3651 116.612C72.0594 117.723 73.9306 119.536 75.4977 121.152C77.164 122.866 78.0236 123.72 79.6898 126.401C81.3627 129.081 80.7345 134.382 75.9672 134.501Z" fill="#AF0F07"/>
<path d="M58.2466 67.316C54.6231 67.2306 53.79 69.9766 53.5916 71.3036C53.3999 69.9832 52.5667 67.2306 48.9367 67.316C44.1693 67.4277 43.5411 72.7357 45.2008 75.416C46.8604 78.0963 47.7266 78.9569 49.3929 80.6649C50.96 82.2744 52.8378 84.0941 53.5255 85.2044C53.5255 85.2044 53.5651 85.3357 53.585 85.2963C53.6048 85.3292 53.6445 85.2044 53.6445 85.2044C54.3388 84.0941 56.21 82.281 57.7771 80.6649C59.4434 78.9503 60.3029 78.0963 61.9692 75.416C63.6355 72.7357 63.0073 67.4343 58.2466 67.316Z" fill="#AF0F07"/>
</svg>
