<svg width="110" height="153" viewBox="0 0 110 153" fill="none" xmlns="http://www.w3.org/2000/svg">
<path d="M106.066 153H3.92763C1.75884 153 0 151.253 0 149.098V3.90219C0 1.74745 1.75884 0 3.92763 0H106.072C108.241 0 110 1.74745 110 3.90219V149.098C109.993 151.253 108.235 153 106.066 153Z" fill="white"/>
<path d="M98.5741 12.0679C98.5741 12.2715 98.4088 12.4423 98.1972 12.4423C97.9856 12.4423 97.8203 12.2781 97.8203 12.0679C97.8203 11.8577 97.9856 11.6934 98.1972 11.6934C98.4088 11.6934 98.5741 11.8577 98.5741 12.0679Z" fill="white"/>
<path d="M80.6354 12.0679C80.6354 12.2715 80.4701 12.4423 80.2585 12.4423C80.0535 12.4423 79.8816 12.2781 79.8816 12.0679C79.8816 11.8577 80.0469 11.6934 80.2585 11.6934C80.4635 11.6934 80.6354 11.8577 80.6354 12.0679Z" fill="white"/>
<path d="M64.1314 12.0679C64.1314 12.2715 63.9661 12.4423 63.7545 12.4423C63.5495 12.4423 63.3776 12.2781 63.3776 12.0679C63.3776 11.8577 63.5429 11.6934 63.7545 11.6934C63.9661 11.6934 64.1314 11.8577 64.1314 12.0679Z" fill="white"/>
<path d="M47.568 12.1861C47.568 12.3897 47.4027 12.5606 47.1911 12.5606C46.9861 12.5606 46.8142 12.3963 46.8142 12.1861C46.8142 11.9759 46.9795 11.8116 47.1911 11.8116C47.4027 11.8116 47.568 11.9824 47.568 12.1861Z" fill="white"/>
<path d="M98.5741 25.9555C98.5741 26.1592 98.4088 26.33 98.1972 26.33C97.9856 26.33 97.8203 26.1657 97.8203 25.9555C97.8203 25.7519 97.9856 25.5811 98.1972 25.5811C98.4088 25.5811 98.5741 25.7453 98.5741 25.9555Z" fill="white"/>
<path d="M98.5741 38.6277C98.5741 38.8314 98.4088 39.0022 98.1972 39.0022C97.9856 39.0022 97.8203 38.838 97.8203 38.6277C97.8203 38.4241 97.9856 38.2533 98.1972 38.2533C98.4088 38.2533 98.5741 38.4241 98.5741 38.6277Z" fill="white"/>
<path d="M98.5741 51.911C98.5741 52.1146 98.4088 52.2854 98.1972 52.2854C97.9856 52.2854 97.8203 52.1212 97.8203 51.911C97.8203 51.7073 97.9856 51.5365 98.1972 51.5365C98.4088 51.5365 98.5741 51.7007 98.5741 51.911Z" fill="white"/>
<path d="M98.5741 60.3066C98.5741 60.5102 98.4088 60.681 98.1972 60.681C97.9856 60.681 97.8203 60.5168 97.8203 60.3066C97.8203 60.1029 97.9856 59.9321 98.1972 59.9321C98.4088 59.9321 98.5741 60.1029 98.5741 60.3066Z" fill="white"/>
<path d="M98.5741 68.735C98.5741 68.9387 98.4088 69.1095 98.1972 69.1095C97.9856 69.1095 97.8203 68.9453 97.8203 68.735C97.8203 68.5248 97.9856 68.3606 98.1972 68.3606C98.4088 68.3606 98.5741 68.5314 98.5741 68.735Z" fill="white"/>
<path d="M12.4176 12.4358C12.4176 12.6394 12.2523 12.8102 12.0407 12.8102C11.8357 12.8102 11.6638 12.646 11.6638 12.4358C11.6638 12.2321 11.8291 12.0613 12.0407 12.0613C12.2523 12.0679 12.4176 12.2321 12.4176 12.4358Z" fill="white"/>
<path d="M30.5615 12.1861C30.5615 12.3897 30.3962 12.5606 30.1846 12.5606C29.973 12.5606 29.8077 12.3963 29.8077 12.1861C29.8077 11.9759 29.973 11.8116 30.1846 11.8116C30.3962 11.8116 30.5615 11.9824 30.5615 12.1861Z" fill="white"/>
<path d="M12.4176 25.6599C12.4176 25.8635 12.2523 26.0343 12.0407 26.0343C11.8291 26.0343 11.6638 25.8701 11.6638 25.6599C11.6638 25.4562 11.8291 25.2854 12.0407 25.2854C12.2523 25.2854 12.4176 25.4496 12.4176 25.6599Z" fill="white"/>
<path d="M12.4176 38.7131C12.4176 38.9168 12.2523 39.0876 12.0407 39.0876C11.8291 39.0876 11.6638 38.9234 11.6638 38.7131C11.6638 38.5095 11.8291 38.3387 12.0407 38.3387C12.2523 38.3387 12.4176 38.5095 12.4176 38.7131Z" fill="white"/>
<path d="M12.4176 51.819C12.4176 52.0226 12.2523 52.1934 12.0407 52.1934C11.8291 52.1934 11.6638 52.0292 11.6638 51.819C11.6638 51.6088 11.8291 51.4445 12.0407 51.4445C12.2523 51.4445 12.4176 51.6088 12.4176 51.819Z" fill="white"/>
<path d="M12.4176 60.3066C12.4176 60.5102 12.2523 60.681 12.0407 60.681C11.8357 60.681 11.6638 60.5168 11.6638 60.3066C11.6638 60.1029 11.8291 59.9321 12.0407 59.9321C12.2523 59.9321 12.4176 60.1029 12.4176 60.3066Z" fill="white"/>
<path d="M12.4176 69.1095C12.4176 69.3131 12.2523 69.484 12.0407 69.484C11.8357 69.484 11.6638 69.3197 11.6638 69.1095C11.6638 68.9058 11.8291 68.735 12.0407 68.735C12.2523 68.735 12.4176 68.8993 12.4176 69.1095Z" fill="white"/>
<path d="M12.4176 77.6036C12.4176 77.8073 12.2523 77.9781 12.0407 77.9781C11.8291 77.9781 11.6638 77.8139 11.6638 77.6036C11.6638 77.4 11.8291 77.2292 12.0407 77.2292C12.2523 77.2292 12.4176 77.4 12.4176 77.6036Z" fill="white"/>
<path d="M12.4176 86.0913C12.4176 86.2949 12.2523 86.4657 12.0407 86.4657C11.8357 86.4657 11.6638 86.3015 11.6638 86.0913C11.6638 85.8876 11.8291 85.7168 12.0407 85.7168C12.2523 85.7234 12.4176 85.8876 12.4176 86.0913Z" fill="white"/>
<path d="M12.4176 94.8942C12.4176 95.0978 12.2523 95.2686 12.0407 95.2686C11.8357 95.2686 11.6638 95.1044 11.6638 94.8942C11.6638 94.6839 11.8291 94.5197 12.0407 94.5197C12.2523 94.5197 12.4176 94.6905 12.4176 94.8942Z" fill="white"/>
<path d="M12.4176 103.717C12.4176 103.92 12.2523 104.091 12.0407 104.091C11.8291 104.091 11.6638 103.927 11.6638 103.717C11.6638 103.513 11.8291 103.342 12.0407 103.342C12.2523 103.342 12.4176 103.513 12.4176 103.717Z" fill="white"/>
<path d="M12.4176 111.6C12.4176 111.804 12.2523 111.974 12.0407 111.974C11.8357 111.974 11.6638 111.81 11.6638 111.6C11.6638 111.396 11.8291 111.226 12.0407 111.226C12.2523 111.226 12.4176 111.396 12.4176 111.6Z" fill="white"/>
<path d="M12.4176 120.403C12.4176 120.607 12.2523 120.777 12.0407 120.777C11.8291 120.777 11.6638 120.613 11.6638 120.403C11.6638 120.199 11.8291 120.028 12.0407 120.028C12.2523 120.028 12.4176 120.193 12.4176 120.403Z" fill="white"/>
<path d="M12.4176 128.976C12.4176 129.18 12.2523 129.35 12.0407 129.35C11.8291 129.35 11.6638 129.186 11.6638 128.976C11.6638 128.766 11.8291 128.601 12.0407 128.601C12.2523 128.601 12.4176 128.766 12.4176 128.976Z" fill="white"/>
<path d="M12.5697 141.576C12.5697 141.78 12.4044 141.95 12.1928 141.95C11.9878 141.95 11.8159 141.786 11.8159 141.576C11.8159 141.372 11.9812 141.201 12.1928 141.201C12.4044 141.201 12.5697 141.372 12.5697 141.576Z" fill="white"/>
<path d="M26.1444 141.95C26.1444 142.154 25.9791 142.325 25.7675 142.325C25.5625 142.325 25.3906 142.161 25.3906 141.95C25.3906 141.747 25.5559 141.576 25.7675 141.576C25.9791 141.576 26.1444 141.747 26.1444 141.95Z" fill="white"/>
<path d="M43.6337 141.95C43.6337 142.154 43.4684 142.325 43.2568 142.325C43.0452 142.325 42.8799 142.161 42.8799 141.95C42.8799 141.747 43.0452 141.576 43.2568 141.576C43.4684 141.576 43.6337 141.747 43.6337 141.95Z" fill="white"/>
<path d="M61.0899 141.95C61.0899 142.154 60.9245 142.325 60.713 142.325C60.5014 142.325 60.3361 142.161 60.3361 141.95C60.3361 141.747 60.5014 141.576 60.713 141.576C60.9245 141.576 61.0899 141.747 61.0899 141.95Z" fill="white"/>
<path d="M78.1029 141.95C78.1029 142.154 77.9376 142.325 77.726 142.325C77.5144 142.325 77.3491 142.161 77.3491 141.95C77.3491 141.747 77.5144 141.576 77.726 141.576C77.9376 141.576 78.1029 141.747 78.1029 141.95Z" fill="white"/>
<path d="M98.5741 77.3934C98.5741 77.5971 98.4088 77.7679 98.1972 77.7679C97.9856 77.7679 97.8203 77.6037 97.8203 77.3934C97.8203 77.1832 97.9856 77.019 98.1972 77.019C98.4088 77.019 98.5741 77.1898 98.5741 77.3934Z" fill="white"/>
<path d="M98.5741 85.4935C98.5741 85.6971 98.4088 85.8679 98.1972 85.8679C97.9856 85.8679 97.8203 85.7037 97.8203 85.4935C97.8203 85.2898 97.9856 85.119 98.1972 85.119C98.4088 85.119 98.5741 85.2898 98.5741 85.4935Z" fill="white"/>
<path d="M98.5741 94.2241C98.5741 94.4277 98.4088 94.5985 98.1972 94.5985C97.9856 94.5985 97.8203 94.4343 97.8203 94.2241C97.8203 94.0204 97.9856 93.8496 98.1972 93.8496C98.4088 93.8496 98.5741 94.0204 98.5741 94.2241Z" fill="white"/>
<path d="M98.5741 102.836C98.5741 103.04 98.4088 103.211 98.1972 103.211C97.9856 103.211 97.8203 103.047 97.8203 102.836C97.8203 102.633 97.9856 102.462 98.1972 102.462C98.4088 102.462 98.5741 102.626 98.5741 102.836Z" fill="white"/>
<path d="M98.5741 111.212C98.5741 111.416 98.4088 111.587 98.1972 111.587C97.9856 111.587 97.8203 111.423 97.8203 111.212C97.8203 111.009 97.9856 110.838 98.1972 110.838C98.4088 110.838 98.5741 111.009 98.5741 111.212Z" fill="white"/>
<path d="M98.5741 119.477C98.5741 119.68 98.4088 119.851 98.1972 119.851C97.9856 119.851 97.8203 119.687 97.8203 119.477C97.8203 119.273 97.9856 119.102 98.1972 119.102C98.4088 119.102 98.5741 119.266 98.5741 119.477Z" fill="white"/>
<path d="M98.5741 127.912C98.5741 128.115 98.4088 128.286 98.1972 128.286C97.9856 128.286 97.8203 128.122 97.8203 127.912C97.8203 127.708 97.9856 127.537 98.1972 127.537C98.4088 127.537 98.5741 127.701 98.5741 127.912Z" fill="white"/>
<path d="M98.5741 140.768C98.5741 140.972 98.4088 141.142 98.1972 141.142C97.9856 141.142 97.8203 140.978 97.8203 140.768C97.8203 140.564 97.9856 140.393 98.1972 140.393C98.4088 140.393 98.5741 140.558 98.5741 140.768Z" fill="white"/>
<path d="M42.6618 18.7489C39.0383 18.6635 38.2051 21.4095 38.0068 22.7365C37.815 21.416 36.9819 18.6635 33.3518 18.7489C28.5844 18.8606 27.9563 24.1686 29.6159 26.8489C31.2822 29.5292 32.1418 30.3898 33.8081 32.0978C35.3751 33.7073 37.253 35.527 37.9407 36.6372C37.9407 36.6372 37.9803 36.7686 38.0001 36.7292C38.02 36.762 38.0597 36.6372 38.0597 36.6372C38.754 35.527 40.6252 33.7139 42.1923 32.0978C43.8585 30.3832 44.7181 29.5292 46.3844 26.8489C48.0506 24.1686 47.4291 18.8606 42.6618 18.7489Z" fill="#AF0F07"/>
<path d="M42.6618 68.538C39.0383 68.4526 38.2051 71.1985 38.0068 72.5255C37.815 71.2051 36.9819 68.4526 33.3518 68.538C28.5844 68.6496 27.9563 73.9577 29.6159 76.638C31.2822 79.3183 32.1418 80.1788 33.8081 81.8869C35.3751 83.4964 37.253 85.3161 37.9407 86.4263C37.9407 86.4263 37.9803 86.5577 38.0001 86.5182C38.02 86.5511 38.0597 86.4263 38.0597 86.4263C38.754 85.3161 40.6252 83.5029 42.1923 81.8869C43.8585 80.1723 44.7181 79.3183 46.3844 76.638C48.0506 73.9577 47.4291 68.6562 42.6618 68.538Z" fill="#AF0F07"/>
<path d="M42.6618 136.32C39.0383 136.406 38.2051 133.66 38.0068 132.333C37.815 133.653 36.9819 136.406 33.3518 136.32C28.5844 136.209 27.9563 130.901 29.6159 128.22C31.2822 125.54 32.1418 124.68 33.8081 122.972C35.3751 121.362 37.253 119.542 37.9407 118.432C37.9407 118.432 37.9803 118.301 38.0001 118.34C38.02 118.307 38.0597 118.432 38.0597 118.432C38.754 119.542 40.6252 121.355 42.1923 122.972C43.8585 124.686 44.7181 125.54 46.3844 128.22C48.0506 130.901 47.4291 136.209 42.6618 136.32Z" fill="#AF0F07"/>
<path d="M76.8863 18.7489C73.2629 18.6635 72.4297 21.4095 72.2314 22.7365C72.0396 21.416 71.2065 18.6635 67.5764 18.7489C62.8091 18.8606 62.1809 24.1686 63.8405 26.8489C65.5002 29.5292 66.3664 30.3898 68.0327 32.0978C69.5997 33.7073 71.4776 35.527 72.1653 36.6372C72.1653 36.6372 72.2049 36.7686 72.2248 36.7292C72.2446 36.762 72.2843 36.6372 72.2843 36.6372C72.9786 35.527 74.8498 33.7139 76.4169 32.0978C78.0832 30.3832 78.9427 29.5292 80.609 26.8489C82.2752 24.1686 81.6537 18.8606 76.8863 18.7489Z" fill="#AF0F07"/>
<path d="M76.8863 68.538C73.2629 68.4526 72.4297 71.1985 72.2314 72.5255C72.0396 71.2051 71.2065 68.4526 67.5764 68.538C62.8091 68.6496 62.1809 73.9577 63.8405 76.638C65.5002 79.3183 66.3664 80.1788 68.0327 81.8869C69.5997 83.4964 71.4776 85.3161 72.1653 86.4263C72.1653 86.4263 72.2049 86.5577 72.2248 86.5182C72.2446 86.5511 72.2843 86.4263 72.2843 86.4263C72.9786 85.3161 74.8498 83.5029 76.4169 81.8869C78.0832 80.1723 78.9427 79.3183 80.609 76.638C82.2752 73.9577 81.6537 68.6562 76.8863 68.538Z" fill="#AF0F07"/>
<path d="M76.8863 136.32C73.2629 136.406 72.4297 133.66 72.2314 132.333C72.0396 133.653 71.2065 136.406 67.5764 136.32C62.8091 136.209 62.1809 130.901 63.8405 128.22C65.5002 125.54 66.3664 124.68 68.0327 122.972C69.5997 121.362 71.4776 119.542 72.1653 118.432C72.1653 118.432 72.2049 118.301 72.2248 118.34C72.2446 118.307 72.2843 118.432 72.2843 118.432C72.9786 119.542 74.8498 121.355 76.4169 122.972C78.0832 124.686 78.9427 125.54 80.609 128.22C82.2752 130.901 81.6537 136.209 76.8863 136.32Z" fill="#AF0F07"/>
<path d="M9.30339 18.5518C8.88021 18.2102 8.54958 17.7241 8.32476 17.0934C8.09334 16.4628 7.98096 15.7138 7.98096 14.8533C7.98096 14.1569 8.07351 13.4737 8.25204 12.8036C8.43057 12.1336 8.69505 11.5752 9.03227 11.135C9.65381 10.3336 10.3878 9.93939 11.2275 9.93939C11.8358 9.93939 12.3251 10.143 12.702 10.5503C12.8276 10.7014 12.9202 10.8722 12.9798 11.0627C13.0327 11.2467 13.0657 11.4175 13.0657 11.562C13.0657 11.8576 12.9599 12.1007 12.7417 12.2912C12.5963 12.416 12.4243 12.4817 12.2127 12.4817C12.0144 12.4817 11.8623 12.4029 11.7499 12.2518C11.7102 12.1927 11.6772 12.1336 11.6639 12.0876C11.6507 12.035 11.6441 11.9693 11.6441 11.8839C11.6441 11.7591 11.697 11.6277 11.8094 11.5029C11.8887 11.4175 11.9681 11.3452 12.054 11.2861C12.1334 11.2336 12.1863 11.181 12.2127 11.1284C12.2458 11.0759 12.259 11.0102 12.259 10.9314C12.259 10.7803 12.1731 10.6423 11.9945 10.5306C11.816 10.4124 11.5515 10.3598 11.1945 10.3598C10.8837 10.3598 10.5927 10.4518 10.315 10.6292C10.0373 10.8065 9.8059 11.1022 9.61414 11.5226C9.46868 11.8379 9.35627 12.2321 9.28353 12.7117C9.20419 13.1846 9.16452 13.5854 9.16452 13.9073V14.4788L9.2571 14.5182C9.40918 14.1963 9.64723 13.927 9.97123 13.7233C10.2952 13.5131 10.5994 13.408 10.9035 13.408C11.4788 13.408 11.9615 13.546 12.3516 13.8284C12.6822 14.0649 12.9401 14.3868 13.1186 14.7941C13.2971 15.1949 13.3897 15.6284 13.3897 16.0883C13.3897 16.5482 13.2839 17.008 13.0789 17.4744C12.8739 17.9409 12.5698 18.3219 12.173 18.6306C11.7763 18.9394 11.3069 19.0905 10.7647 19.0905C10.2158 19.0642 9.72657 18.8934 9.30339 18.5518ZM11.9086 17.9146C12.1466 17.4219 12.259 16.8635 12.259 16.2328C12.259 15.5562 12.1532 14.9846 11.9483 14.5379C11.7433 14.0846 11.3995 13.8613 10.9234 13.8613C10.6258 13.8613 10.3547 13.9598 10.1167 14.1569C9.87864 14.354 9.68689 14.6299 9.54804 14.9912C9.40918 15.3525 9.33644 15.7664 9.33644 16.2328C9.33644 16.9357 9.44885 17.5204 9.66705 17.9737C9.89187 18.427 10.2555 18.6569 10.7713 18.6569C11.2936 18.6569 11.6705 18.4073 11.9086 17.9146Z" fill="#A43E32"/>
<path d="M99.4734 138.882C99.8966 139.224 100.227 139.71 100.452 140.341C100.683 140.971 100.796 141.72 100.796 142.581C100.796 143.277 100.703 143.961 100.525 144.631C100.346 145.301 100.082 145.859 99.7445 146.299C99.1229 147.101 98.389 147.495 97.5492 147.495C96.9409 147.495 96.4516 147.291 96.0747 146.884C95.9491 146.733 95.8565 146.562 95.797 146.371C95.7441 146.181 95.7111 146.017 95.7111 145.872C95.7111 145.577 95.8169 145.334 96.0351 145.143C96.1805 145.018 96.3524 144.953 96.564 144.953C96.7624 144.953 96.9145 145.031 97.0269 145.182C97.0666 145.242 97.0996 145.301 97.1129 145.347C97.1261 145.399 97.1327 145.465 97.1327 145.55C97.1327 145.675 97.0798 145.807 96.9674 145.931C96.888 146.017 96.8087 146.089 96.7227 146.148C96.6434 146.201 96.5905 146.253 96.564 146.306C96.531 146.358 96.5177 146.424 96.5177 146.503C96.5177 146.654 96.6037 146.792 96.7822 146.904C96.9608 147.022 97.2253 147.074 97.5823 147.074C97.8931 147.074 98.184 146.982 98.4617 146.805C98.7394 146.628 98.9709 146.332 99.1626 145.912C99.3081 145.596 99.4205 145.202 99.4932 144.723C99.5726 144.243 99.6122 143.849 99.6122 143.527V142.955L99.5197 142.916C99.3676 143.238 99.1296 143.507 98.8056 143.711C98.4816 143.921 98.1774 144.02 97.8733 144.02C97.298 144.02 96.8153 143.882 96.4252 143.599C96.0946 143.363 95.8367 143.041 95.6582 142.64C95.4796 142.233 95.3871 141.806 95.3871 141.346C95.3871 140.886 95.4929 140.426 95.6978 139.96C95.9028 139.493 96.207 139.112 96.6037 138.804C97.0004 138.495 97.4699 138.344 98.0121 138.344C98.5609 138.377 99.0502 138.541 99.4734 138.882ZM96.8682 139.52C96.6302 140.012 96.5177 140.571 96.5177 141.201C96.5177 141.878 96.6236 142.45 96.8285 142.896C97.0335 143.343 97.3773 143.573 97.8534 143.573C98.151 143.573 98.422 143.474 98.6601 143.277C98.8981 143.08 99.0899 142.804 99.2288 142.443C99.3676 142.082 99.4403 141.668 99.4403 141.201C99.4403 140.498 99.3279 139.914 99.1097 139.461C98.8849 139.007 98.5212 138.777 98.0055 138.777C97.4831 138.784 97.0996 139.027 96.8682 139.52Z" fill="#A43E32"/>
<path d="M12.8475 22.7036C11.5911 22.6708 11.3002 23.6299 11.2341 24.0832C11.168 23.6234 10.877 22.6708 9.62071 22.7036C7.96767 22.7431 7.74945 24.5825 8.32471 25.5153C8.89997 26.4482 9.20414 26.7438 9.7794 27.335C10.3216 27.8934 10.9762 28.5241 11.2142 28.9117C11.2142 28.9117 11.2275 28.9577 11.2341 28.9445C11.2407 28.9577 11.2539 28.9117 11.2539 28.9117C11.492 28.5241 12.1466 27.9 12.6888 27.335C13.264 26.7438 13.5682 26.4416 14.1434 25.5153C14.7187 24.5825 14.5005 22.7431 12.8475 22.7036Z" fill="#AF0F07"/>
<path d="M99.6189 135.801C98.3626 135.834 98.0717 134.875 98.0055 134.415C97.9394 134.875 97.6485 135.828 96.3922 135.801C94.7391 135.762 94.5209 133.923 95.0962 132.99C95.6715 132.057 95.9756 131.761 96.5509 131.17C97.0931 130.612 97.7477 129.981 97.9857 129.593C97.9857 129.593 97.9989 129.547 98.0055 129.561C98.0121 129.547 98.0254 129.593 98.0254 129.593C98.2634 129.981 98.918 130.605 99.4602 131.17C100.035 131.761 100.34 132.063 100.915 132.99C101.497 133.923 101.272 135.762 99.6189 135.801Z" fill="#AF0F07"/>
</svg>
