<svg width="110" height="153" viewBox="0 0 110 153" fill="none" xmlns="http://www.w3.org/2000/svg">
<path d="M106.066 153H3.92763C1.75884 153 0 151.253 0 149.098V3.90219C0 1.74745 1.75884 0 3.92763 0H106.072C108.241 0 110 1.74745 110 3.90219V149.098C109.993 151.253 108.241 153 106.066 153Z" fill="white"/>
<path d="M98.5741 12.0679C98.5741 12.2715 98.4088 12.4423 98.1972 12.4423C97.9922 12.4423 97.8203 12.2781 97.8203 12.0679C97.8203 11.8577 97.9856 11.6934 98.1972 11.6934C98.4022 11.6934 98.5741 11.8577 98.5741 12.0679Z" fill="white"/>
<path d="M80.6354 12.0679C80.6354 12.2715 80.4701 12.4423 80.2585 12.4423C80.0469 12.4423 79.8816 12.2781 79.8816 12.0679C79.8816 11.8577 80.0469 11.6934 80.2585 11.6934C80.4701 11.6934 80.6354 11.8577 80.6354 12.0679Z" fill="white"/>
<path d="M64.1381 12.0679C64.1381 12.2715 63.9728 12.4423 63.7612 12.4423C63.5496 12.4423 63.3843 12.2781 63.3843 12.0679C63.3843 11.8577 63.5496 11.6934 63.7612 11.6934C63.9728 11.6934 64.1381 11.8577 64.1381 12.0679Z" fill="white"/>
<path d="M47.568 12.1861C47.568 12.3897 47.4027 12.5606 47.1911 12.5606C46.9795 12.5606 46.8142 12.3963 46.8142 12.1861C46.8142 11.9759 46.9795 11.8116 47.1911 11.8116C47.4027 11.8116 47.568 11.9824 47.568 12.1861Z" fill="white"/>
<path d="M98.5741 25.9555C98.5741 26.1592 98.4088 26.33 98.1972 26.33C97.9922 26.33 97.8203 26.1657 97.8203 25.9555C97.8203 25.7519 97.9856 25.5811 98.1972 25.5811C98.4022 25.5811 98.5741 25.7453 98.5741 25.9555Z" fill="white"/>
<path d="M98.5741 38.6277C98.5741 38.8314 98.4088 39.0022 98.1972 39.0022C97.9922 39.0022 97.8203 38.838 97.8203 38.6277C97.8203 38.4241 97.9856 38.2533 98.1972 38.2533C98.4022 38.2533 98.5741 38.4241 98.5741 38.6277Z" fill="white"/>
<path d="M98.5741 51.911C98.5741 52.1146 98.4088 52.2854 98.1972 52.2854C97.9922 52.2854 97.8203 52.1212 97.8203 51.911C97.8203 51.7073 97.9856 51.5365 98.1972 51.5365C98.4022 51.5365 98.5741 51.7007 98.5741 51.911Z" fill="white"/>
<path d="M98.5741 60.3066C98.5741 60.5102 98.4088 60.681 98.1972 60.681C97.9922 60.681 97.8203 60.5168 97.8203 60.3066C97.8203 60.1029 97.9856 59.9321 98.1972 59.9321C98.4022 59.9321 98.5741 60.1029 98.5741 60.3066Z" fill="white"/>
<path d="M98.5741 68.735C98.5741 68.9387 98.4088 69.1095 98.1972 69.1095C97.9922 69.1095 97.8203 68.9453 97.8203 68.735C97.8203 68.5248 97.9856 68.3606 98.1972 68.3606C98.4022 68.3606 98.5741 68.5314 98.5741 68.735Z" fill="white"/>
<path d="M12.4176 12.4358C12.4176 12.6394 12.2523 12.8102 12.0407 12.8102C11.8291 12.8102 11.6638 12.646 11.6638 12.4358C11.6638 12.2321 11.8291 12.0613 12.0407 12.0613C12.2523 12.0613 12.4176 12.2321 12.4176 12.4358Z" fill="white"/>
<path d="M30.5615 12.1861C30.5615 12.3897 30.3962 12.5606 30.1846 12.5606C29.9796 12.5606 29.8077 12.3963 29.8077 12.1861C29.8077 11.9759 29.973 11.8116 30.1846 11.8116C30.3962 11.8116 30.5615 11.9824 30.5615 12.1861Z" fill="white"/>
<path d="M12.4176 25.6599C12.4176 25.8635 12.2523 26.0343 12.0407 26.0343C11.8291 26.0343 11.6638 25.8701 11.6638 25.6599C11.6638 25.4562 11.8291 25.2854 12.0407 25.2854C12.2523 25.2854 12.4176 25.4496 12.4176 25.6599Z" fill="white"/>
<path d="M12.4176 38.7131C12.4176 38.9168 12.2523 39.0876 12.0407 39.0876C11.8291 39.0876 11.6638 38.9234 11.6638 38.7131C11.6638 38.5095 11.8291 38.3387 12.0407 38.3387C12.2523 38.3387 12.4176 38.5095 12.4176 38.7131Z" fill="white"/>
<path d="M12.4176 51.819C12.4176 52.0226 12.2523 52.1934 12.0407 52.1934C11.8291 52.1934 11.6638 52.0292 11.6638 51.819C11.6638 51.6088 11.8291 51.4445 12.0407 51.4445C12.2523 51.4445 12.4176 51.6088 12.4176 51.819Z" fill="white"/>
<path d="M12.4176 60.3066C12.4176 60.5102 12.2523 60.681 12.0407 60.681C11.8291 60.681 11.6638 60.5168 11.6638 60.3066C11.6638 60.1029 11.8291 59.9321 12.0407 59.9321C12.2523 59.9321 12.4176 60.1029 12.4176 60.3066Z" fill="white"/>
<path d="M12.4176 69.1095C12.4176 69.3131 12.2523 69.484 12.0407 69.484C11.8291 69.484 11.6638 69.3197 11.6638 69.1095C11.6638 68.9058 11.8291 68.735 12.0407 68.735C12.2523 68.735 12.4176 68.8993 12.4176 69.1095Z" fill="white"/>
<path d="M12.4176 77.6036C12.4176 77.8073 12.2523 77.9781 12.0407 77.9781C11.8291 77.9781 11.6638 77.8139 11.6638 77.6036C11.6638 77.4 11.8291 77.2292 12.0407 77.2292C12.2523 77.2292 12.4176 77.4 12.4176 77.6036Z" fill="white"/>
<path d="M12.4176 86.0913C12.4176 86.2949 12.2523 86.4657 12.0407 86.4657C11.8291 86.4657 11.6638 86.3015 11.6638 86.0913C11.6638 85.8876 11.8291 85.7168 12.0407 85.7168C12.2523 85.7168 12.4176 85.8876 12.4176 86.0913Z" fill="white"/>
<path d="M12.4176 94.8942C12.4176 95.0978 12.2523 95.2686 12.0407 95.2686C11.8291 95.2686 11.6638 95.1044 11.6638 94.8942C11.6638 94.6839 11.8291 94.5197 12.0407 94.5197C12.2523 94.5197 12.4176 94.6905 12.4176 94.8942Z" fill="white"/>
<path d="M12.4176 103.717C12.4176 103.92 12.2523 104.091 12.0407 104.091C11.8291 104.091 11.6638 103.927 11.6638 103.717C11.6638 103.513 11.8291 103.342 12.0407 103.342C12.2523 103.342 12.4176 103.513 12.4176 103.717Z" fill="white"/>
<path d="M12.4176 111.6C12.4176 111.804 12.2523 111.974 12.0407 111.974C11.8291 111.974 11.6638 111.81 11.6638 111.6C11.6638 111.396 11.8291 111.226 12.0407 111.226C12.2523 111.226 12.4176 111.396 12.4176 111.6Z" fill="white"/>
<path d="M12.4176 120.403C12.4176 120.607 12.2523 120.777 12.0407 120.777C11.8291 120.777 11.6638 120.613 11.6638 120.403C11.6638 120.199 11.8291 120.028 12.0407 120.028C12.2523 120.028 12.4176 120.193 12.4176 120.403Z" fill="white"/>
<path d="M12.4176 128.976C12.4176 129.18 12.2523 129.35 12.0407 129.35C11.8291 129.35 11.6638 129.186 11.6638 128.976C11.6638 128.766 11.8291 128.601 12.0407 128.601C12.2523 128.601 12.4176 128.766 12.4176 128.976Z" fill="white"/>
<path d="M12.5697 141.576C12.5697 141.78 12.4044 141.95 12.1928 141.95C11.9878 141.95 11.8159 141.786 11.8159 141.576C11.8159 141.372 11.9812 141.201 12.1928 141.201C12.4044 141.201 12.5697 141.372 12.5697 141.576Z" fill="white"/>
<path d="M26.1444 141.95C26.1444 142.154 25.9791 142.325 25.7675 142.325C25.5559 142.325 25.3906 142.161 25.3906 141.95C25.3906 141.747 25.5559 141.576 25.7675 141.576C25.9791 141.576 26.1444 141.747 26.1444 141.95Z" fill="white"/>
<path d="M43.6337 141.95C43.6337 142.154 43.4684 142.325 43.2568 142.325C43.0518 142.325 42.8799 142.161 42.8799 141.95C42.8799 141.747 43.0452 141.576 43.2568 141.576C43.4684 141.576 43.6337 141.747 43.6337 141.95Z" fill="white"/>
<path d="M61.0964 141.95C61.0964 142.154 60.9311 142.325 60.7195 142.325C60.5146 142.325 60.3427 142.161 60.3427 141.95C60.3427 141.747 60.508 141.576 60.7195 141.576C60.9245 141.576 61.0964 141.747 61.0964 141.95Z" fill="white"/>
<path d="M78.1029 141.95C78.1029 142.154 77.9376 142.325 77.726 142.325C77.521 142.325 77.3491 142.161 77.3491 141.95C77.3491 141.747 77.5144 141.576 77.726 141.576C77.931 141.576 78.1029 141.747 78.1029 141.95Z" fill="white"/>
<path d="M98.5741 77.3934C98.5741 77.5971 98.4088 77.7679 98.1972 77.7679C97.9922 77.7679 97.8203 77.6037 97.8203 77.3934C97.8203 77.1832 97.9856 77.019 98.1972 77.019C98.4022 77.019 98.5741 77.1898 98.5741 77.3934Z" fill="white"/>
<path d="M98.5741 85.4935C98.5741 85.6971 98.4088 85.8679 98.1972 85.8679C97.9922 85.8679 97.8203 85.7037 97.8203 85.4935C97.8203 85.2898 97.9856 85.119 98.1972 85.119C98.4022 85.119 98.5741 85.2898 98.5741 85.4935Z" fill="white"/>
<path d="M98.5741 94.2241C98.5741 94.4277 98.4088 94.5985 98.1972 94.5985C97.9922 94.5985 97.8203 94.4343 97.8203 94.2241C97.8203 94.0204 97.9856 93.8496 98.1972 93.8496C98.4022 93.8562 98.5741 94.0204 98.5741 94.2241Z" fill="white"/>
<path d="M98.5741 102.836C98.5741 103.04 98.4088 103.211 98.1972 103.211C97.9922 103.211 97.8203 103.047 97.8203 102.836C97.8203 102.633 97.9856 102.462 98.1972 102.462C98.4022 102.462 98.5741 102.626 98.5741 102.836Z" fill="white"/>
<path d="M98.5741 111.212C98.5741 111.416 98.4088 111.587 98.1972 111.587C97.9922 111.587 97.8203 111.423 97.8203 111.212C97.8203 111.009 97.9856 110.838 98.1972 110.838C98.4022 110.838 98.5741 111.009 98.5741 111.212Z" fill="white"/>
<path d="M98.5741 119.477C98.5741 119.68 98.4088 119.851 98.1972 119.851C97.9922 119.851 97.8203 119.687 97.8203 119.477C97.8203 119.273 97.9856 119.102 98.1972 119.102C98.4022 119.102 98.5741 119.266 98.5741 119.477Z" fill="white"/>
<path d="M98.5741 127.912C98.5741 128.115 98.4088 128.286 98.1972 128.286C97.9922 128.286 97.8203 128.122 97.8203 127.912C97.8203 127.708 97.9856 127.537 98.1972 127.537C98.4022 127.537 98.5741 127.701 98.5741 127.912Z" fill="white"/>
<path d="M98.5741 140.768C98.5741 140.972 98.4088 141.142 98.1972 141.142C97.9922 141.142 97.8203 140.978 97.8203 140.768C97.8203 140.564 97.9856 140.393 98.1972 140.393C98.4022 140.393 98.5741 140.558 98.5741 140.768Z" fill="white"/>
<path d="M10.1959 18.7292C10.0108 18.5058 9.91823 18.2102 9.91823 17.8357C9.91823 17.3233 10.0439 16.8044 10.2951 16.2591C10.5464 15.7204 10.8704 15.1686 11.2671 14.6102L12.292 13.1452C12.4771 12.8825 12.6358 12.6 12.7614 12.2978C12.8871 11.9956 12.9466 11.7328 12.9466 11.516C12.9466 11.3912 12.9135 11.2992 12.8474 11.2533C12.7813 11.2073 12.6821 11.181 12.5432 11.181H9.88517C9.54134 11.181 9.30328 11.2533 9.15781 11.4044C9.01896 11.5555 8.91977 11.7657 8.86687 12.035L8.72804 12.7905H8.44373L8.62223 10.1365H13.5483C13.5483 10.5766 13.4822 11.0825 13.3499 11.654C13.2177 12.2255 12.9929 12.7445 12.6755 13.2109L11.9415 14.308C11.5911 14.8204 11.4126 15.3722 11.4126 15.9635C11.4126 16.3314 11.439 16.6467 11.4919 16.9226L11.5713 17.3693C11.6374 17.7109 11.677 18.0065 11.677 18.2628C11.677 18.8014 11.4258 19.0642 10.9233 19.0642C10.6257 19.0642 10.3745 18.9525 10.1959 18.7292Z" fill="#A43E32"/>
<path d="M99.2882 138.705C99.4733 138.928 99.5659 139.224 99.5659 139.598C99.5659 140.111 99.4403 140.63 99.189 141.175C98.9377 141.714 98.6137 142.266 98.217 142.824L97.1921 144.289C97.007 144.552 96.8483 144.834 96.7226 145.136C96.597 145.439 96.5375 145.701 96.5375 145.918C96.5375 146.043 96.5706 146.135 96.6367 146.181C96.7028 146.227 96.802 146.253 96.9409 146.253H99.599C99.9428 146.253 100.181 146.181 100.326 146.03C100.465 145.879 100.564 145.669 100.617 145.399L100.756 144.65H101.04L100.862 147.304H95.9358C95.9358 146.864 96.0019 146.358 96.1342 145.787C96.2664 145.215 96.4912 144.696 96.8086 144.23L97.5426 143.133C97.893 142.62 98.0715 142.069 98.0715 141.477C98.0715 141.109 98.0451 140.794 97.9922 140.518L97.9129 140.071C97.8467 139.73 97.807 139.434 97.807 139.178C97.807 138.646 98.0583 138.377 98.5608 138.377C98.8584 138.377 99.103 138.482 99.2882 138.705Z" fill="#A43E32"/>
<path d="M12.9466 22.7036C11.6903 22.6708 11.3993 23.6299 11.3332 24.0832C11.2671 23.6234 10.9761 22.6708 9.71983 22.7036C8.06679 22.7431 7.84857 24.5825 8.42383 25.5153C8.99909 26.4482 9.30326 26.7438 9.87852 27.335C10.4207 27.8934 11.0753 28.5241 11.3133 28.9117C11.3133 28.9117 11.3266 28.9577 11.3332 28.9445C11.3398 28.9577 11.353 28.9117 11.353 28.9117C11.5911 28.5241 12.2456 27.9 12.7878 27.335C13.3631 26.7438 13.6673 26.4416 14.2425 25.5153C14.8178 24.5825 14.5996 22.7431 12.9466 22.7036Z" fill="#AF0F07"/>
<path d="M99.7246 135.801C98.4683 135.834 98.1774 134.875 98.1113 134.415C98.0452 134.875 97.7542 135.828 96.4979 135.801C94.8449 135.762 94.6266 133.923 95.2019 132.99C95.7772 132.057 96.0813 131.761 96.6566 131.17C97.1988 130.612 97.8534 129.981 98.0914 129.593C98.0914 129.593 98.1047 129.547 98.1113 129.561C98.1179 129.547 98.1311 129.593 98.1311 129.593C98.3691 129.981 99.0238 130.605 99.566 131.17C100.141 131.761 100.445 132.064 101.021 132.99C101.596 133.923 101.378 135.762 99.7246 135.801Z" fill="#AF0F07"/>
<path d="M42.3575 18.7489C38.7341 18.6635 37.9009 21.4095 37.7026 22.7365C37.5108 21.416 36.6777 18.6635 33.0476 18.7489C28.2802 18.8606 27.6521 24.1686 29.3117 26.8489C30.978 29.5292 31.8376 30.3898 33.5038 32.0978C35.0709 33.7073 36.9488 35.527 37.6364 36.6372C37.6364 36.6372 37.6761 36.7686 37.696 36.7292C37.7158 36.762 37.7554 36.6372 37.7554 36.6372C38.4497 35.527 40.321 33.7139 41.888 32.0978C43.5543 30.3832 44.4139 29.5292 46.0802 26.8489C47.7597 24.1686 47.1249 18.8606 42.3575 18.7489Z" fill="#AF0F07"/>
<path d="M42.3575 68.538C38.7341 68.4526 37.9009 71.1985 37.7026 72.5255C37.5108 71.2051 36.6777 68.4526 33.0476 68.538C28.2802 68.6496 27.6521 73.9577 29.3117 76.638C30.978 79.3183 31.8376 80.1788 33.5038 81.8869C35.0709 83.4964 36.9488 85.3161 37.6364 86.4263C37.6364 86.4263 37.6761 86.5577 37.696 86.5182C37.7158 86.5511 37.7554 86.4263 37.7554 86.4263C38.4497 85.3161 40.321 83.5029 41.888 81.8869C43.5543 80.1723 44.4139 79.3183 46.0802 76.638C47.7597 73.9577 47.1249 68.6562 42.3575 68.538Z" fill="#AF0F07"/>
<path d="M42.3575 136.32C38.7341 136.406 37.9009 133.66 37.7026 132.333C37.5108 133.653 36.6777 136.406 33.0476 136.32C28.2802 136.209 27.6521 130.901 29.3117 128.22C30.978 125.54 31.8376 124.68 33.5038 122.972C35.0709 121.362 36.9488 119.542 37.6364 118.432C37.6364 118.432 37.6761 118.301 37.696 118.34C37.7158 118.307 37.7554 118.432 37.7554 118.432C38.4497 119.542 40.321 121.355 41.888 122.972C43.5543 124.686 44.4139 125.54 46.0802 128.22C47.7597 130.901 47.1249 136.209 42.3575 136.32Z" fill="#AF0F07"/>
<path d="M77.1904 18.7489C73.5669 18.6635 72.7338 21.4095 72.5355 22.7365C72.3437 21.416 71.5105 18.6635 67.8805 18.7489C63.1131 18.8606 62.485 24.1686 64.1446 26.8489C65.8109 29.5292 66.6704 30.3898 68.3367 32.0978C69.9038 33.7073 71.7816 35.527 72.4693 36.6372C72.4693 36.6372 72.509 36.7686 72.5288 36.7292C72.5487 36.762 72.5883 36.6372 72.5883 36.6372C73.2826 35.527 75.1539 33.7139 76.7209 32.0978C78.3872 30.3832 79.2468 29.5292 80.9131 26.8489C82.5793 24.1686 81.9578 18.8606 77.1904 18.7489Z" fill="#AF0F07"/>
<path d="M77.1904 68.538C73.5669 68.4526 72.7338 71.1985 72.5355 72.5255C72.3437 71.2051 71.5105 68.4526 67.8805 68.538C63.1131 68.6496 62.485 73.9577 64.1446 76.638C65.8109 79.3183 66.6704 80.1788 68.3367 81.8869C69.9038 83.4964 71.7816 85.3161 72.4693 86.4263C72.4693 86.4263 72.509 86.5577 72.5288 86.5182C72.5487 86.5511 72.5883 86.4263 72.5883 86.4263C73.2826 85.3161 75.1539 83.5029 76.7209 81.8869C78.3872 80.1723 79.2468 79.3183 80.9131 76.638C82.5793 73.9577 81.9578 68.6562 77.1904 68.538Z" fill="#AF0F07"/>
<path d="M77.1904 136.32C73.5669 136.406 72.7338 133.66 72.5355 132.333C72.3437 133.653 71.5105 136.406 67.8805 136.32C63.1131 136.209 62.485 130.901 64.1446 128.22C65.8109 125.54 66.6704 124.68 68.3367 122.972C69.9038 121.362 71.7816 119.542 72.4693 118.432C72.4693 118.432 72.509 118.301 72.5288 118.34C72.5487 118.307 72.5883 118.432 72.5883 118.432C73.2826 119.542 75.1539 121.355 76.7209 122.972C78.3872 124.686 79.2468 125.54 80.9131 128.22C82.5793 130.901 81.9578 136.209 77.1904 136.32Z" fill="#AF0F07"/>
<path d="M59.4697 44.2511C55.8463 44.1657 55.0131 46.9117 54.8147 48.2387C54.623 46.9182 53.7899 44.1657 50.1598 44.2511C45.3924 44.3628 44.7643 49.6708 46.4239 52.3511C48.0902 55.0314 48.9498 55.892 50.616 57.6C52.1831 59.2095 54.061 61.0292 54.7486 62.1394C54.7486 62.1394 54.7883 62.2708 54.8082 62.2314C54.828 62.2642 54.8677 62.1394 54.8677 62.1394C55.5619 61.0292 57.4332 59.2161 59.0003 57.6C60.6665 55.8854 61.5261 55.0314 63.1924 52.3511C64.8653 49.6708 64.2371 44.3628 59.4697 44.2511Z" fill="#AF0F07"/>
</svg>
