<svg width="110" height="153" viewBox="0 0 110 153" fill="none" xmlns="http://www.w3.org/2000/svg">
<path d="M106.072 153H3.92763C1.75884 153 0 151.253 0 149.098V3.90219C0 1.74745 1.75884 0 3.92763 0H106.072C108.241 0 110 1.74745 110 3.90219V149.098C110 151.253 108.241 153 106.072 153Z" fill="white"/>
<path d="M98.5741 12.0679C98.5741 12.2715 98.4088 12.4423 98.1973 12.4423C97.9857 12.4423 97.8203 12.2781 97.8203 12.0679C97.8203 11.8577 97.9857 11.6934 98.1973 11.6934C98.4088 11.6934 98.5741 11.8577 98.5741 12.0679Z" fill="white"/>
<path d="M80.6354 12.0679C80.6354 12.2715 80.4701 12.4423 80.2585 12.4423C80.0536 12.4423 79.8816 12.2781 79.8816 12.0679C79.8816 11.8577 80.0469 11.6934 80.2585 11.6934C80.4701 11.6934 80.6354 11.8577 80.6354 12.0679Z" fill="white"/>
<path d="M64.1381 12.0679C64.1381 12.2715 63.9727 12.4423 63.7611 12.4423C63.5495 12.4423 63.3843 12.2781 63.3843 12.0679C63.3843 11.8577 63.5495 11.6934 63.7611 11.6934C63.9727 11.6934 64.1381 11.8577 64.1381 12.0679Z" fill="white"/>
<path d="M47.5746 12.1861C47.5746 12.3897 47.4093 12.5606 47.1977 12.5606C46.9927 12.5606 46.8208 12.3963 46.8208 12.1861C46.8208 11.9759 46.9861 11.8116 47.1977 11.8116C47.4027 11.8116 47.5746 11.9824 47.5746 12.1861Z" fill="white"/>
<path d="M98.5741 25.9555C98.5741 26.1592 98.4088 26.33 98.1973 26.33C97.9857 26.33 97.8203 26.1657 97.8203 25.9555C97.8203 25.7519 97.9857 25.5811 98.1973 25.5811C98.4088 25.5811 98.5741 25.7453 98.5741 25.9555Z" fill="white"/>
<path d="M98.5741 38.6277C98.5741 38.8314 98.4088 39.0022 98.1973 39.0022C97.9857 39.0022 97.8203 38.838 97.8203 38.6277C97.8203 38.4241 97.9857 38.2533 98.1973 38.2533C98.4088 38.2533 98.5741 38.4241 98.5741 38.6277Z" fill="white"/>
<path d="M98.5741 51.911C98.5741 52.1146 98.4088 52.2854 98.1973 52.2854C97.9857 52.2854 97.8203 52.1212 97.8203 51.911C97.8203 51.7073 97.9857 51.5365 98.1973 51.5365C98.4088 51.5365 98.5741 51.7007 98.5741 51.911Z" fill="white"/>
<path d="M98.5741 60.3066C98.5741 60.5102 98.4088 60.681 98.1973 60.681C97.9857 60.681 97.8203 60.5168 97.8203 60.3066C97.8203 60.1029 97.9857 59.9321 98.1973 59.9321C98.4088 59.9321 98.5741 60.1029 98.5741 60.3066Z" fill="white"/>
<path d="M98.5741 68.735C98.5741 68.9387 98.4088 69.1095 98.1973 69.1095C97.9857 69.1095 97.8203 68.9453 97.8203 68.735C97.8203 68.5248 97.9857 68.3606 98.1973 68.3606C98.4088 68.3606 98.5741 68.5314 98.5741 68.735Z" fill="white"/>
<path d="M12.4242 12.4358C12.4242 12.6394 12.2589 12.8102 12.0473 12.8102C11.8357 12.8102 11.6704 12.646 11.6704 12.4358C11.6704 12.2321 11.8357 12.0613 12.0473 12.0613C12.2589 12.0613 12.4242 12.2321 12.4242 12.4358Z" fill="white"/>
<path d="M30.5615 12.1861C30.5615 12.3897 30.3962 12.5606 30.1846 12.5606C29.9796 12.5606 29.8077 12.3963 29.8077 12.1861C29.8077 11.9759 29.973 11.8116 30.1846 11.8116C30.3962 11.8116 30.5615 11.9824 30.5615 12.1861Z" fill="white"/>
<path d="M12.4242 25.6599C12.4242 25.8635 12.2589 26.0343 12.0473 26.0343C11.8357 26.0343 11.6704 25.8701 11.6704 25.6599C11.6704 25.4562 11.8357 25.2854 12.0473 25.2854C12.2589 25.2854 12.4242 25.4496 12.4242 25.6599Z" fill="white"/>
<path d="M12.4242 38.7131C12.4242 38.9168 12.2589 39.0876 12.0473 39.0876C11.8357 39.0876 11.6704 38.9234 11.6704 38.7131C11.6704 38.5095 11.8357 38.3387 12.0473 38.3387C12.2589 38.3387 12.4242 38.5095 12.4242 38.7131Z" fill="white"/>
<path d="M12.4242 51.819C12.4242 52.0226 12.2589 52.1934 12.0473 52.1934C11.8357 52.1934 11.6704 52.0292 11.6704 51.819C11.6704 51.6088 11.8357 51.4445 12.0473 51.4445C12.2589 51.4445 12.4242 51.6088 12.4242 51.819Z" fill="white"/>
<path d="M12.4242 60.3066C12.4242 60.5102 12.2589 60.681 12.0473 60.681C11.8357 60.681 11.6704 60.5168 11.6704 60.3066C11.6704 60.1029 11.8357 59.9321 12.0473 59.9321C12.2589 59.9321 12.4242 60.1029 12.4242 60.3066Z" fill="white"/>
<path d="M12.4242 69.1095C12.4242 69.3131 12.2589 69.484 12.0473 69.484C11.8357 69.484 11.6704 69.3197 11.6704 69.1095C11.6704 68.9058 11.8357 68.735 12.0473 68.735C12.2589 68.735 12.4242 68.8993 12.4242 69.1095Z" fill="white"/>
<path d="M12.4242 77.6036C12.4242 77.8073 12.2589 77.9781 12.0473 77.9781C11.8357 77.9781 11.6704 77.8139 11.6704 77.6036C11.6704 77.4 11.8357 77.2292 12.0473 77.2292C12.2589 77.2292 12.4242 77.4 12.4242 77.6036Z" fill="white"/>
<path d="M12.4242 86.0913C12.4242 86.2949 12.2589 86.4657 12.0473 86.4657C11.8357 86.4657 11.6704 86.3015 11.6704 86.0913C11.6704 85.8876 11.8357 85.7168 12.0473 85.7168C12.2589 85.7168 12.4242 85.8876 12.4242 86.0913Z" fill="white"/>
<path d="M12.4242 94.8942C12.4242 95.0978 12.2589 95.2686 12.0473 95.2686C11.8357 95.2686 11.6704 95.1044 11.6704 94.8942C11.6704 94.6839 11.8357 94.5197 12.0473 94.5197C12.2589 94.5197 12.4242 94.6905 12.4242 94.8942Z" fill="white"/>
<path d="M12.4242 103.717C12.4242 103.92 12.2589 104.091 12.0473 104.091C11.8357 104.091 11.6704 103.927 11.6704 103.717C11.6704 103.513 11.8357 103.342 12.0473 103.342C12.2589 103.342 12.4242 103.513 12.4242 103.717Z" fill="white"/>
<path d="M12.4242 111.6C12.4242 111.804 12.2589 111.974 12.0473 111.974C11.8357 111.974 11.6704 111.81 11.6704 111.6C11.6704 111.396 11.8357 111.226 12.0473 111.226C12.2589 111.226 12.4242 111.396 12.4242 111.6Z" fill="white"/>
<path d="M12.4242 120.403C12.4242 120.607 12.2589 120.777 12.0473 120.777C11.8357 120.777 11.6704 120.613 11.6704 120.403C11.6704 120.199 11.8357 120.028 12.0473 120.028C12.2589 120.028 12.4242 120.193 12.4242 120.403Z" fill="white"/>
<path d="M12.4242 128.976C12.4242 129.18 12.2589 129.35 12.0473 129.35C11.8357 129.35 11.6704 129.186 11.6704 128.976C11.6704 128.766 11.8357 128.601 12.0473 128.601C12.2589 128.601 12.4242 128.766 12.4242 128.976Z" fill="white"/>
<path d="M12.5763 141.576C12.5763 141.78 12.411 141.95 12.1994 141.95C11.9944 141.95 11.8225 141.786 11.8225 141.576C11.8225 141.372 11.9878 141.201 12.1994 141.201C12.4044 141.201 12.5763 141.372 12.5763 141.576Z" fill="white"/>
<path d="M26.1444 141.95C26.1444 142.154 25.9791 142.325 25.7675 142.325C25.5559 142.325 25.3906 142.161 25.3906 141.95C25.3906 141.747 25.5559 141.576 25.7675 141.576C25.9791 141.576 26.1444 141.747 26.1444 141.95Z" fill="white"/>
<path d="M43.6337 141.95C43.6337 142.154 43.4684 142.325 43.2568 142.325C43.0518 142.325 42.8799 142.161 42.8799 141.95C42.8799 141.747 43.0452 141.576 43.2568 141.576C43.4684 141.576 43.6337 141.747 43.6337 141.95Z" fill="white"/>
<path d="M61.0964 141.95C61.0964 142.154 60.9311 142.325 60.7195 142.325C60.5079 142.325 60.3427 142.161 60.3427 141.95C60.3427 141.747 60.5079 141.576 60.7195 141.576C60.9311 141.576 61.0964 141.747 61.0964 141.95Z" fill="white"/>
<path d="M78.1029 141.95C78.1029 142.154 77.9376 142.325 77.7261 142.325C77.5145 142.325 77.3491 142.161 77.3491 141.95C77.3491 141.747 77.5145 141.576 77.7261 141.576C77.9376 141.576 78.1029 141.747 78.1029 141.95Z" fill="white"/>
<path d="M98.5741 77.3934C98.5741 77.5971 98.4088 77.7679 98.1973 77.7679C97.9857 77.7679 97.8203 77.6037 97.8203 77.3934C97.8203 77.1832 97.9857 77.019 98.1973 77.019C98.4088 77.019 98.5741 77.1898 98.5741 77.3934Z" fill="white"/>
<path d="M98.5741 85.4935C98.5741 85.6971 98.4088 85.8679 98.1973 85.8679C97.9857 85.8679 97.8203 85.7037 97.8203 85.4935C97.8203 85.2898 97.9857 85.119 98.1973 85.119C98.4088 85.119 98.5741 85.2898 98.5741 85.4935Z" fill="white"/>
<path d="M98.5741 94.2241C98.5741 94.4277 98.4088 94.5985 98.1973 94.5985C97.9857 94.5985 97.8203 94.4343 97.8203 94.2241C97.8203 94.0204 97.9857 93.8496 98.1973 93.8496C98.4088 93.8496 98.5741 94.0204 98.5741 94.2241Z" fill="white"/>
<path d="M98.5741 102.836C98.5741 103.04 98.4088 103.211 98.1973 103.211C97.9857 103.211 97.8203 103.047 97.8203 102.836C97.8203 102.633 97.9857 102.462 98.1973 102.462C98.4088 102.462 98.5741 102.626 98.5741 102.836Z" fill="white"/>
<path d="M98.5741 111.212C98.5741 111.416 98.4088 111.587 98.1973 111.587C97.9857 111.587 97.8203 111.423 97.8203 111.212C97.8203 111.009 97.9857 110.838 98.1973 110.838C98.4088 110.838 98.5741 111.009 98.5741 111.212Z" fill="white"/>
<path d="M98.5741 119.477C98.5741 119.68 98.4088 119.851 98.1973 119.851C97.9857 119.851 97.8203 119.687 97.8203 119.477C97.8203 119.273 97.9857 119.102 98.1973 119.102C98.4088 119.102 98.5741 119.266 98.5741 119.477Z" fill="white"/>
<path d="M98.5741 127.912C98.5741 128.115 98.4088 128.286 98.1973 128.286C97.9857 128.286 97.8203 128.122 97.8203 127.912C97.8203 127.708 97.9857 127.537 98.1973 127.537C98.4088 127.537 98.5741 127.701 98.5741 127.912Z" fill="white"/>
<path d="M98.5741 140.768C98.5741 140.972 98.4088 141.142 98.1973 141.142C97.9857 141.142 97.8203 140.978 97.8203 140.768C97.8203 140.564 97.9857 140.393 98.1973 140.393C98.4088 140.393 98.5741 140.558 98.5741 140.768Z" fill="white"/>
<path d="M9.85216 18.7686C9.42237 18.5715 9.07196 18.2956 8.81409 17.9278C8.55621 17.5599 8.42395 17.1329 8.42395 16.6402C8.42395 16.0226 8.60247 15.5365 8.95292 15.1883C9.30336 14.8402 9.67364 14.6102 10.0704 14.4986V14.446L9.93154 14.3803C9.4753 14.1964 9.13147 13.9205 8.89343 13.5526C8.65539 13.1847 8.53635 12.7642 8.53635 12.2781C8.53635 11.838 8.6752 11.4372 8.9463 11.0759C9.2174 10.7146 9.57448 10.4321 10.0109 10.2351C10.4473 10.038 10.9035 9.93286 11.373 9.93286C11.9549 9.93286 12.4508 10.038 12.8541 10.2482C13.2575 10.4584 13.5682 10.7278 13.7732 11.0628C13.9782 11.3978 14.084 11.7526 14.084 12.127C14.084 12.5869 13.9385 12.981 13.641 13.3161C13.3434 13.6511 12.9996 13.9073 12.6095 14.0913V14.1438L12.907 14.2555C13.9187 14.6628 14.4212 15.3066 14.4212 16.1803C14.4212 16.7059 14.3022 17.192 14.0575 17.6256C13.8129 18.0657 13.4558 18.4139 12.9797 18.6701C12.5037 18.9329 11.935 19.0577 11.2804 19.0577C10.7514 19.0642 10.282 18.9657 9.85216 18.7686ZM12.5566 18.3613C12.8541 18.1642 13.0723 17.9278 13.2045 17.6518C13.3368 17.3759 13.4029 17.1132 13.4029 16.8701C13.4029 16.3905 13.2971 16.0424 13.0855 15.8124C12.8739 15.5825 12.5698 15.3854 12.1664 15.2278L10.434 14.6037C10.0836 14.7482 9.8125 14.9781 9.61413 15.2934C9.41577 15.6088 9.31658 16.0686 9.31658 16.673C9.31658 17.3496 9.52156 17.8555 9.93812 18.1774C10.3547 18.4993 10.8374 18.6635 11.3928 18.6635C11.8689 18.6569 12.2524 18.5584 12.5566 18.3613ZM13.0128 13.2504C13.1649 12.9548 13.2442 12.6066 13.2442 12.2059C13.2442 11.8577 13.1583 11.5423 12.9864 11.2533C12.8144 10.9708 12.583 10.7475 12.2987 10.5832C12.0143 10.419 11.697 10.3402 11.3531 10.3402C10.8242 10.3402 10.3746 10.4913 10.0109 10.7869C9.64722 11.0825 9.46868 11.4767 9.46868 11.9759C9.46868 12.3307 9.55462 12.6197 9.73315 12.8299C9.91167 13.0402 10.1828 13.2241 10.5597 13.3818L12.2127 14.0059C12.5962 13.7956 12.8607 13.546 13.0128 13.2504Z" fill="#A43E32"/>
<path d="M100.333 138.666C100.763 138.863 101.113 139.139 101.371 139.507C101.629 139.875 101.761 140.302 101.761 140.794C101.761 141.412 101.583 141.898 101.232 142.246C100.882 142.594 100.512 142.824 100.115 142.936V142.988L100.254 143.054C100.71 143.238 101.054 143.514 101.292 143.882C101.53 144.25 101.649 144.67 101.649 145.156C101.649 145.596 101.51 145.997 101.239 146.358C100.968 146.72 100.611 147.002 100.174 147.199C99.7379 147.396 99.2816 147.502 98.8121 147.502C98.2302 147.502 97.7343 147.396 97.331 147.193C96.9277 146.983 96.6169 146.713 96.4119 146.378C96.2069 146.043 96.1011 145.688 96.1011 145.314C96.1011 144.854 96.2466 144.46 96.5442 144.118C96.8417 143.783 97.1855 143.527 97.5756 143.35V143.297L97.2781 143.179C96.2665 142.772 95.7639 142.128 95.7639 141.254C95.7639 140.729 95.883 140.242 96.1276 139.809C96.3723 139.369 96.7293 139.021 97.2054 138.764C97.6815 138.502 98.2501 138.377 98.9047 138.377C99.4337 138.377 99.9032 138.469 100.333 138.666ZM97.6352 139.073C97.3377 139.27 97.1194 139.507 96.9872 139.783C96.8549 140.058 96.7888 140.321 96.7888 140.564C96.7888 141.037 96.8946 141.392 97.1062 141.622C97.3178 141.852 97.622 142.049 98.0253 142.207L99.7577 142.831C100.108 142.686 100.379 142.456 100.578 142.141C100.776 141.826 100.875 141.366 100.875 140.761C100.875 140.078 100.67 139.579 100.254 139.257C99.837 138.935 99.3544 138.771 98.799 138.771C98.3163 138.784 97.9328 138.876 97.6352 139.073ZM97.1723 144.191C97.0202 144.486 96.9409 144.834 96.9409 145.235C96.9409 145.583 97.0269 145.899 97.1988 146.188C97.3707 146.47 97.6022 146.693 97.8865 146.858C98.1708 147.022 98.4881 147.101 98.832 147.101C99.3609 147.101 99.8106 146.95 100.174 146.654C100.538 146.358 100.716 145.958 100.716 145.465C100.716 145.11 100.631 144.821 100.452 144.611C100.273 144.401 100.002 144.217 99.6255 144.066L97.9724 143.442C97.5889 143.639 97.3244 143.888 97.1723 144.191Z" fill="#A43E32"/>
<path d="M13.0458 22.7037C11.7895 22.6709 11.4985 23.63 11.4324 24.0833C11.3663 23.6234 11.0754 22.6709 9.81904 22.7037C8.166 22.7431 7.94783 24.5825 8.52308 25.5154C9.09834 26.4482 9.40247 26.7439 9.97773 27.3351C10.5199 27.8935 11.1746 28.5241 11.4126 28.9117C11.4126 28.9117 11.4258 28.9577 11.4324 28.9446C11.439 28.9577 11.4523 28.9117 11.4523 28.9117C11.6903 28.5241 12.3449 27.9001 12.8871 27.3351C13.4624 26.7439 13.7665 26.4417 14.3418 25.5154C14.917 24.5825 14.6988 22.7431 13.0458 22.7037Z" fill="#AF0F07"/>
<path d="M99.8239 135.801C98.5675 135.834 98.2767 134.875 98.2105 134.415C98.1444 134.875 97.8534 135.828 96.5971 135.801C94.9441 135.762 94.7259 133.923 95.3012 132.99C95.8764 132.057 96.1805 131.761 96.7558 131.17C97.298 130.612 97.9526 129.981 98.1907 129.593C98.1907 129.593 98.2039 129.547 98.2105 129.561C98.2171 129.547 98.2303 129.593 98.2303 129.593C98.4683 129.981 99.123 130.605 99.6652 131.17C100.24 131.761 100.545 132.064 101.12 132.99C101.695 133.923 101.477 135.762 99.8239 135.801Z" fill="#AF0F07"/>
<path d="M42.6618 18.749C39.0383 18.6636 38.2051 21.4095 38.0068 22.7365C37.815 21.4161 36.9819 18.6636 33.3518 18.749C28.5844 18.8606 27.9563 24.1687 29.6159 26.849C31.2822 29.5292 32.1418 30.3898 33.8081 32.0979C35.3751 33.7074 37.253 35.5271 37.9407 36.6373C37.9407 36.6373 37.9803 36.7687 38.0001 36.7292C38.02 36.7621 38.0597 36.6373 38.0597 36.6373C38.754 35.5271 40.6252 33.7139 42.1923 32.0979C43.8585 30.3833 44.7181 29.5292 46.3844 26.849C48.0639 24.1687 47.4291 18.8606 42.6618 18.749Z" fill="#AF0F07"/>
<path d="M42.6618 68.538C39.0383 68.4526 38.2051 71.1985 38.0068 72.5255C37.815 71.2051 36.9819 68.4526 33.3518 68.538C28.5844 68.6496 27.9563 73.9577 29.6159 76.638C31.2822 79.3183 32.1418 80.1788 33.8081 81.8869C35.3751 83.4964 37.253 85.3161 37.9407 86.4263C37.9407 86.4263 37.9803 86.5577 38.0001 86.5182C38.02 86.5511 38.0597 86.4263 38.0597 86.4263C38.754 85.3161 40.6252 83.5029 42.1923 81.8869C43.8585 80.1723 44.7181 79.3183 46.3844 76.638C48.0639 73.9577 47.4291 68.6562 42.6618 68.538Z" fill="#AF0F07"/>
<path d="M42.6618 136.32C39.0383 136.406 38.2051 133.66 38.0068 132.333C37.815 133.653 36.9819 136.406 33.3518 136.32C28.5844 136.209 27.9563 130.901 29.6159 128.22C31.2822 125.54 32.1418 124.68 33.8081 122.972C35.3751 121.362 37.253 119.542 37.9407 118.432C37.9407 118.432 37.9803 118.301 38.0001 118.34C38.02 118.307 38.0597 118.432 38.0597 118.432C38.754 119.542 40.6252 121.356 42.1923 122.972C43.8585 124.686 44.7181 125.54 46.3844 128.22C48.0639 130.901 47.4291 136.209 42.6618 136.32Z" fill="#AF0F07"/>
<path d="M77.4945 18.749C73.871 18.6636 73.0379 21.4095 72.8396 22.7365C72.6478 21.4161 71.8147 18.6636 68.1846 18.749C63.4172 18.8606 62.789 24.1687 64.4487 26.849C66.1083 29.5292 66.9745 30.3898 68.6408 32.0979C70.2079 33.7074 72.0857 35.5271 72.7734 36.6373C72.7734 36.6373 72.8131 36.7687 72.8329 36.7292C72.8528 36.7621 72.8924 36.6373 72.8924 36.6373C73.5867 35.5271 75.458 33.7139 77.025 32.0979C78.6913 30.3833 79.5509 29.5292 81.2171 26.849C82.8834 24.1687 82.2619 18.8606 77.4945 18.749Z" fill="#AF0F07"/>
<path d="M77.4945 68.538C73.871 68.4526 73.0379 71.1985 72.8396 72.5255C72.6478 71.2051 71.8147 68.4526 68.1846 68.538C63.4172 68.6496 62.789 73.9577 64.4487 76.638C66.1083 79.3183 66.9745 80.1788 68.6408 81.8869C70.2079 83.4964 72.0857 85.3161 72.7734 86.4263C72.7734 86.4263 72.8131 86.5577 72.8329 86.5182C72.8528 86.5511 72.8924 86.4263 72.8924 86.4263C73.5867 85.3161 75.458 83.5029 77.025 81.8869C78.6913 80.1723 79.5509 79.3183 81.2171 76.638C82.8834 73.9577 82.2619 68.6562 77.4945 68.538Z" fill="#AF0F07"/>
<path d="M77.4945 136.32C73.871 136.406 73.0379 133.66 72.8396 132.333C72.6478 133.653 71.8147 136.406 68.1846 136.32C63.4172 136.209 62.789 130.901 64.4487 128.22C66.1083 125.54 66.9745 124.68 68.6408 122.972C70.2079 121.362 72.0857 119.542 72.7734 118.432C72.7734 118.432 72.8131 118.301 72.8329 118.34C72.8528 118.307 72.8924 118.432 72.8924 118.432C73.5867 119.542 75.458 121.356 77.025 122.972C78.6913 124.686 79.5509 125.54 81.2171 128.22C82.8834 130.901 82.2619 136.209 77.4945 136.32Z" fill="#AF0F07"/>
<path d="M59.7741 44.2512C56.1506 44.1658 55.3174 46.9117 55.1191 48.2387C54.9273 46.9183 54.0942 44.1658 50.4641 44.2512C45.6967 44.3628 45.0686 49.6709 46.7282 52.3512C48.3945 55.0314 49.2541 55.892 50.9204 57.6001C52.4875 59.2095 54.3653 61.0293 55.053 62.1395C55.053 62.1395 55.0926 62.2709 55.1125 62.2314C55.1323 62.2643 55.1719 62.1395 55.1719 62.1395C55.8662 61.0293 57.7375 59.2161 59.3046 57.6001C60.9708 55.8855 61.8305 55.0314 63.4967 52.3512C65.1762 49.6709 64.5414 44.3628 59.7741 44.2512Z" fill="#AF0F07"/>
<path d="M59.7741 110.201C56.1506 110.286 55.3174 107.54 55.1191 106.213C54.9273 107.534 54.0942 110.286 50.4641 110.201C45.6967 110.089 45.0686 104.781 46.7282 102.101C48.3945 99.4204 49.2541 98.5664 50.9204 96.8518C52.4875 95.2423 54.3653 93.4226 55.053 92.3124C55.053 92.3124 55.0926 92.181 55.1125 92.2205C55.1323 92.1876 55.1719 92.3124 55.1719 92.3124C55.8662 93.4226 57.7375 95.2358 59.3046 96.8518C60.9708 98.5664 61.8305 99.4204 63.4967 102.101C65.1762 104.781 64.5414 110.089 59.7741 110.201Z" fill="#AF0F07"/>
</svg>
