<svg width="110" height="153" viewBox="0 0 110 153" fill="none" xmlns="http://www.w3.org/2000/svg">
<path d="M106.07 153H3.92995C1.75986 153 0 151.252 0 149.097V3.9032C0 1.7479 1.75986 0 3.92995 0H106.07C108.24 0 110 1.7479 110 3.9032V149.097C110 151.252 108.24 153 106.07 153Z" fill="white"/>
<path d="M9.18322 15.3368C9.05752 15.1856 8.96486 15.0148 8.90531 14.8242C8.85239 14.6402 8.8193 14.4694 8.8193 14.3248C8.8193 14.0291 8.92515 13.786 9.14349 13.5954C9.29566 13.4706 9.47433 13.4049 9.67281 13.4049C9.87129 13.4049 10.0234 13.4837 10.1359 13.6349C10.1756 13.694 10.2087 13.7466 10.2219 13.7991C10.2352 13.8517 10.2418 13.9174 10.2418 14.0028C10.2418 14.1277 10.1889 14.2591 10.0764 14.384C9.99699 14.4694 9.9176 14.5417 9.83159 14.6008C9.7522 14.6534 9.69927 14.7059 9.67281 14.7585C9.63973 14.8111 9.62645 14.8768 9.62645 14.9556C9.62645 15.1068 9.71248 15.2448 9.89111 15.3565C10.0697 15.4682 10.3344 15.5273 10.6916 15.5273C11.0026 15.5273 11.2938 15.4353 11.5716 15.2579C11.8495 15.0805 12.081 14.7848 12.2729 14.3642C12.4185 14.0488 12.5309 13.6546 12.6103 13.1749C12.6897 12.6952 12.7228 12.2944 12.7228 11.9855V11.4139L12.6302 11.3744C12.478 11.6964 12.2399 11.9658 11.9157 12.1695C11.5981 12.3798 11.2871 12.4849 10.9828 12.4849C10.4072 12.4849 9.92417 12.3469 9.53382 12.0644C9.19639 11.8278 8.94504 11.5058 8.7664 11.105C8.58777 10.7042 8.49512 10.2705 8.49512 9.81052C8.49512 9.35055 8.60096 8.89057 8.80606 8.42403C9.01116 7.96406 9.3155 7.57637 9.71246 7.26753C10.1094 6.95869 10.5792 6.80756 11.1151 6.80756C11.6708 6.80756 12.1605 6.9784 12.5839 7.3201C13.0074 7.66179 13.3315 8.14805 13.5631 8.77887C13.7947 9.40969 13.9072 10.1588 13.9072 11.0196C13.9072 11.7161 13.8145 12.3995 13.6359 13.0698C13.4572 13.74 13.1926 14.2985 12.8551 14.7388C12.2266 15.5405 11.4989 15.9347 10.6586 15.9347C10.0499 15.9479 9.56034 15.7442 9.18322 15.3368ZM11.7635 11.7227C12.0017 11.5256 12.1936 11.2496 12.3325 10.8882C12.4715 10.5268 12.5442 10.1128 12.5442 9.64624C12.5442 8.94314 12.4317 8.35832 12.2068 7.90492C11.9818 7.45152 11.618 7.22153 11.1019 7.22153C10.5792 7.22153 10.2021 7.47123 9.96388 7.96406C9.7257 8.45689 9.61329 9.01542 9.61329 9.64624C9.61329 10.3296 9.71913 10.8947 9.92423 11.3416C10.1293 11.795 10.4733 12.0184 10.9497 12.0184C11.254 12.0184 11.5187 11.9198 11.7635 11.7227Z" fill="#A43E32"/>
<path d="M100.671 135.876C100.797 136.027 100.89 136.198 100.949 136.388C101.002 136.572 101.035 136.743 101.035 136.888C101.035 137.183 100.929 137.427 100.711 137.617C100.559 137.742 100.38 137.808 100.182 137.808C99.9831 137.808 99.831 137.729 99.7185 137.578C99.6788 137.519 99.6457 137.466 99.6325 137.413C99.6193 137.361 99.6126 137.295 99.6126 137.21C99.6126 137.085 99.6655 136.953 99.778 136.829C99.8574 136.743 99.9368 136.671 100.023 136.612C100.102 136.559 100.155 136.507 100.182 136.454C100.215 136.402 100.228 136.336 100.228 136.257C100.228 136.106 100.142 135.968 99.9633 135.856C99.7847 135.744 99.52 135.685 99.1628 135.685C98.8518 135.685 98.5606 135.777 98.2828 135.955C98.0049 136.132 97.7734 136.428 97.5815 136.848C97.4359 137.164 97.3235 137.558 97.2441 138.038C97.1647 138.517 97.1316 138.918 97.1316 139.227V139.799L97.2242 139.838C97.3764 139.516 97.6146 139.247 97.9388 139.043C98.2564 138.833 98.5673 138.728 98.8716 138.728C99.4472 138.728 99.9302 138.866 100.321 139.148C100.651 139.385 100.909 139.707 101.088 140.108C101.267 140.508 101.359 140.942 101.359 141.402C101.359 141.862 101.253 142.322 101.048 142.789C100.843 143.249 100.539 143.636 100.142 143.945C99.745 144.254 99.2752 144.405 98.7393 144.405C98.1836 144.405 97.694 144.234 97.2706 143.893C96.8471 143.551 96.5229 143.065 96.2913 142.434C96.0597 141.803 95.9473 141.054 95.9473 140.193C95.9473 139.496 96.0399 138.813 96.2185 138.143C96.3972 137.473 96.6618 136.914 96.9993 136.474C97.6212 135.672 98.3555 135.278 99.1958 135.278C99.8045 135.265 100.294 135.468 100.671 135.876ZM98.091 139.483C97.8528 139.68 97.6609 139.956 97.522 140.318C97.383 140.679 97.3102 141.093 97.3102 141.56C97.3102 142.263 97.4227 142.848 97.6476 143.301C97.8726 143.755 98.2365 143.985 98.7526 143.985C99.2752 143.985 99.6523 143.735 99.8905 143.242C100.129 142.749 100.241 142.191 100.241 141.56C100.241 140.876 100.135 140.311 99.9302 139.864C99.7251 139.411 99.3811 139.188 98.9047 139.188C98.6004 139.194 98.3357 139.293 98.091 139.483Z" fill="#AF0F07"/>
<path d="M100.373 132.492C99.1164 132.525 98.8253 131.565 98.7591 131.112C98.693 131.572 98.4018 132.525 97.1448 132.492C95.4907 132.452 95.2724 130.612 95.848 129.679C96.4236 128.746 96.7213 128.451 97.3035 127.859C97.8461 127.301 98.4945 126.67 98.7393 126.282C98.7393 126.282 98.7525 126.236 98.7591 126.249C98.7658 126.236 98.7789 126.282 98.7789 126.282C99.0171 126.67 99.6721 127.294 100.215 127.859C100.79 128.451 101.088 128.753 101.67 129.679C102.246 130.612 102.027 132.452 100.373 132.492Z" fill="#AF0F07"/>
<path d="M12.8551 19.1808C11.598 19.148 11.3069 20.1073 11.2408 20.5607C11.1746 20.1008 10.8835 19.148 9.62639 19.1808C7.97236 19.2202 7.75405 21.0601 8.32965 21.9932C8.90526 22.9263 9.20295 23.222 9.78517 23.8134C10.3277 24.3719 10.9761 25.0028 11.2209 25.3904C11.2209 25.3904 11.2342 25.4364 11.2408 25.4233C11.2474 25.4364 11.2606 25.3904 11.2606 25.3904C11.4988 25.0028 12.1538 24.3785 12.6963 23.8134C13.2719 23.222 13.5697 22.9197 14.1519 21.9932C14.7341 21.0667 14.5091 19.2268 12.8551 19.1808Z" fill="#AF0F07"/>
<path d="M34.1855 17.7812C30.5599 17.6958 29.7263 20.4425 29.5344 21.7698C29.3426 20.449 28.5089 17.6958 24.8833 17.7812C20.1196 17.8929 19.4845 23.2023 21.1517 25.8833C22.819 28.5643 23.6791 29.4185 25.3464 31.1335C26.9144 32.7434 28.7868 34.557 29.4814 35.6741C29.4814 35.6741 29.5212 35.8055 29.5411 35.7661C29.5609 35.799 29.6006 35.6741 29.6006 35.6741C30.2953 34.5636 32.1676 32.75 33.7357 31.1335C35.4029 29.4251 36.263 28.5643 37.9303 25.8833C39.5843 23.2023 38.9491 17.8995 34.1855 17.7812Z" fill="#AF0F07"/>
<path d="M57.3752 67.5765C53.7495 67.491 52.9159 70.2377 52.724 71.5651C52.5321 70.2443 51.6985 67.491 48.0728 67.5765C43.3092 67.6882 42.6741 72.9976 44.3414 75.6786C46.0087 78.3595 46.8687 79.2138 48.536 80.9288C50.104 82.5387 51.9764 84.3523 52.6711 85.4694C52.6711 85.4694 52.7108 85.6008 52.7306 85.5614C52.7505 85.5943 52.7901 85.4694 52.7901 85.4694C53.4848 84.3589 55.3572 82.5453 56.9252 80.9288C58.5925 79.2204 59.4527 78.3595 61.1199 75.6786C62.774 72.9976 62.1454 67.6882 57.3752 67.5765Z" fill="#AF0F07"/>
<path d="M34.1855 50.9781C30.5599 50.8927 29.7263 53.6394 29.5344 54.9667C29.3426 53.6459 28.5089 50.8927 24.8833 50.9781C20.1196 51.0898 19.4845 56.3992 21.1517 59.0802C22.819 61.7612 23.6791 62.6154 25.3464 64.3304C26.9144 65.9403 28.7868 67.7539 29.4814 68.871C29.4814 68.871 29.5212 69.0024 29.5411 68.963C29.5609 68.9959 29.6006 68.871 29.6006 68.871C30.2953 67.7605 32.1676 65.9469 33.7357 64.3304C35.4029 62.6154 36.263 61.7612 37.9303 59.0802C39.5843 56.3992 38.9491 51.0898 34.1855 50.9781Z" fill="#AF0F07"/>
<path d="M34.1855 135.357C30.5599 135.442 29.7263 132.695 29.5344 131.368C29.3426 132.689 28.5089 135.442 24.8833 135.357C20.1196 135.245 19.4845 129.936 21.1517 127.255C22.819 124.574 23.6791 123.719 25.3464 122.004C26.9144 120.394 28.7868 118.581 29.4814 117.464C29.4814 117.464 29.5212 117.332 29.5411 117.372C29.5609 117.339 29.6006 117.464 29.6006 117.464C30.2953 118.574 32.1676 120.388 33.7357 122.004C35.4029 123.719 36.263 124.574 37.9303 127.255C39.5843 129.936 38.9491 135.245 34.1855 135.357Z" fill="#AF0F07"/>
<path d="M34.1855 102.16C30.5599 102.245 29.7263 99.4986 29.5344 98.1712C29.3426 99.492 28.5089 102.245 24.8833 102.16C20.1196 102.048 19.4845 96.7387 21.1517 94.0578C22.819 91.3768 23.6791 90.5225 25.3464 88.8075C26.9144 87.1976 28.7868 85.384 29.4814 84.2669C29.4814 84.2669 29.5212 84.1355 29.5411 84.1749C29.5609 84.1421 29.6006 84.2669 29.6006 84.2669C30.2953 85.3774 32.1676 87.191 33.7357 88.8075C35.4029 90.516 36.263 91.3768 37.9303 94.0578C39.5843 96.7387 38.9491 102.048 34.1855 102.16Z" fill="#AF0F07"/>
<path d="M83.0722 17.7812C79.4466 17.6958 78.613 20.4425 78.4211 21.7698C78.2293 20.449 77.3956 17.6958 73.77 17.7812C69.0064 17.8929 68.3712 23.2023 70.0385 25.8833C71.7057 28.5643 72.5658 29.4185 74.2331 31.1335C75.8011 32.7434 77.6735 34.557 78.3682 35.6741C78.3682 35.6741 78.4078 35.8055 78.4277 35.7661C78.4475 35.799 78.4873 35.6741 78.4873 35.6741C79.182 34.5636 81.0544 32.75 82.6224 31.1335C84.2896 29.4251 85.1497 28.5643 86.817 25.8833C88.471 23.2023 87.8359 17.8995 83.0722 17.7812Z" fill="#AF0F07"/>
<path d="M83.0722 50.9781C79.4466 50.8927 78.613 53.6394 78.4211 54.9667C78.2293 53.6459 77.3956 50.8927 73.77 50.9781C69.0064 51.0898 68.3712 56.3992 70.0385 59.0802C71.7057 61.7612 72.5658 62.6154 74.2331 64.3304C75.8011 65.9403 77.6735 67.7539 78.3682 68.871C78.3682 68.871 78.4078 69.0024 78.4277 68.963C78.4475 68.9959 78.4873 68.871 78.4873 68.871C79.182 67.7605 81.0544 65.9469 82.6224 64.3304C84.2896 62.6154 85.1497 61.7612 86.817 59.0802C88.471 56.3992 87.8359 51.0898 83.0722 50.9781Z" fill="#AF0F07"/>
<path d="M83.0722 135.357C79.4466 135.442 78.613 132.695 78.4211 131.368C78.2293 132.689 77.3956 135.442 73.77 135.357C69.0064 135.245 68.3712 129.936 70.0385 127.255C71.7057 124.574 72.5658 123.719 74.2331 122.004C75.8011 120.394 77.6735 118.581 78.3682 117.464C78.3682 117.464 78.4078 117.332 78.4277 117.372C78.4475 117.339 78.4873 117.464 78.4873 117.464C79.182 118.574 81.0544 120.388 82.6224 122.004C84.2896 123.719 85.1497 124.574 86.817 127.255C88.471 129.936 87.8359 135.245 83.0722 135.357Z" fill="#AF0F07"/>
<path d="M83.0722 102.16C79.4466 102.245 78.613 99.4986 78.4211 98.1712C78.2293 99.492 77.3956 102.245 73.77 102.16C69.0064 102.048 68.3712 96.7387 70.0385 94.0578C71.7057 91.3768 72.5658 90.5225 74.2331 88.8075C75.8011 87.1976 77.6735 85.384 78.3682 84.2669C78.3682 84.2669 78.4078 84.1355 78.4277 84.1749C78.4475 84.1421 78.4873 84.2669 78.4873 84.2669C79.182 85.3774 81.0544 87.191 82.6224 88.8075C84.2896 90.516 85.1497 91.3768 86.817 94.0578C88.471 96.7387 87.8359 102.048 83.0722 102.16Z" fill="#AF0F07"/>
<path d="M98.3424 12.0644C98.3424 12.2681 98.1769 12.439 97.9652 12.439C97.7601 12.439 97.5881 12.2747 97.5881 12.0644C97.5881 11.8542 97.7535 11.6899 97.9652 11.6899C98.1769 11.6899 98.3424 11.8607 98.3424 12.0644Z" fill="white"/>
<path d="M80.0288 12.439C80.2371 12.439 80.406 12.2713 80.406 12.0644C80.406 11.8576 80.2371 11.6899 80.0288 11.6899C79.8205 11.6899 79.6517 11.8576 79.6517 12.0644C79.6517 12.2713 79.8205 12.439 80.0288 12.439Z" fill="white"/>
<path d="M63.9053 12.0644C63.9053 12.2681 63.7399 12.439 63.5282 12.439C63.3165 12.439 63.1511 12.2747 63.1511 12.0644C63.1511 11.8542 63.3165 11.6899 63.5282 11.6899C63.7399 11.6899 63.9053 11.8607 63.9053 12.0644Z" fill="white"/>
<path d="M46.968 12.5573C47.1763 12.5573 47.3451 12.3896 47.3451 12.1827C47.3451 11.9759 47.1763 11.8082 46.968 11.8082C46.7597 11.8082 46.5908 11.9759 46.5908 12.1827C46.5908 12.3896 46.7597 12.5573 46.968 12.5573Z" fill="white"/>
<path d="M98.3424 25.9556C98.3424 26.1593 98.1769 26.3302 97.9652 26.3302C97.7601 26.3302 97.5881 26.1659 97.5881 25.9556C97.5881 25.7519 97.7535 25.5811 97.9652 25.5811C98.1769 25.5811 98.3424 25.7453 98.3424 25.9556Z" fill="white"/>
<path d="M98.3424 38.6245C98.3424 38.8283 98.1769 38.9991 97.9652 38.9991C97.7601 38.9991 97.5881 38.8348 97.5881 38.6245C97.5881 38.4208 97.7535 38.25 97.9652 38.25C98.1769 38.2566 98.3424 38.4208 98.3424 38.6245Z" fill="white"/>
<path d="M98.3424 51.9112C98.3424 52.1149 98.1769 52.2857 97.9652 52.2857C97.7601 52.2857 97.5881 52.1214 97.5881 51.9112C97.5881 51.7075 97.7535 51.5366 97.9652 51.5366C98.1769 51.5366 98.3424 51.7009 98.3424 51.9112Z" fill="white"/>
<path d="M98.3424 60.3089C98.3424 60.5126 98.1769 60.6835 97.9652 60.6835C97.7601 60.6835 97.5881 60.5192 97.5881 60.3089C97.5881 60.1052 97.7535 59.9344 97.9652 59.9344C98.1769 59.9344 98.3424 60.0987 98.3424 60.3089Z" fill="white"/>
<path d="M98.3424 68.7331C98.3424 68.9368 98.1769 69.1076 97.9652 69.1076C97.7601 69.1076 97.5881 68.9433 97.5881 68.7331C97.5881 68.5294 97.7535 68.3585 97.9652 68.3585C98.1769 68.3585 98.3424 68.5294 98.3424 68.7331Z" fill="white"/>
<path d="M11.8164 12.8135C12.0247 12.8135 12.1935 12.6458 12.1935 12.4389C12.1935 12.2321 12.0247 12.0644 11.8164 12.0644C11.6082 12.0644 11.4393 12.2321 11.4393 12.4389C11.4393 12.6458 11.6082 12.8135 11.8164 12.8135Z" fill="white"/>
<path d="M29.9579 12.5573C30.1662 12.5573 30.335 12.3896 30.335 12.1827C30.335 11.9759 30.1662 11.8082 29.9579 11.8082C29.7496 11.8082 29.5807 11.9759 29.5807 12.1827C29.5807 12.3896 29.7496 12.5573 29.9579 12.5573Z" fill="white"/>
<path d="M12.1935 25.6599C12.1935 25.8636 12.0282 26.0344 11.8164 26.0344C11.6113 26.0344 11.4393 25.8702 11.4393 25.6599C11.4393 25.4562 11.6047 25.2853 11.8164 25.2853C12.0215 25.2853 12.1935 25.4496 12.1935 25.6599Z" fill="white"/>
<path d="M11.8164 39.0911C12.0247 39.0911 12.1935 38.9234 12.1935 38.7165C12.1935 38.5097 12.0247 38.342 11.8164 38.342C11.6082 38.342 11.4393 38.5097 11.4393 38.7165C11.4393 38.9234 11.6082 39.0911 11.8164 39.0911Z" fill="white"/>
<path d="M11.8164 52.1937C12.0247 52.1937 12.1935 52.026 12.1935 51.8192C12.1935 51.6123 12.0247 51.4446 11.8164 51.4446C11.6082 51.4446 11.4393 51.6123 11.4393 51.8192C11.4393 52.026 11.6082 52.1937 11.8164 52.1937Z" fill="white"/>
<path d="M11.8164 60.6835C12.0247 60.6835 12.1935 60.5158 12.1935 60.3089C12.1935 60.1021 12.0247 59.9344 11.8164 59.9344C11.6082 59.9344 11.4393 60.1021 11.4393 60.3089C11.4393 60.5158 11.6082 60.6835 11.8164 60.6835Z" fill="white"/>
<path d="M11.8164 69.4821C12.0247 69.4821 12.1935 69.3144 12.1935 69.1076C12.1935 68.9007 12.0247 68.733 11.8164 68.733C11.6082 68.733 11.4393 68.9007 11.4393 69.1076C11.4393 69.3144 11.6082 69.4821 11.8164 69.4821Z" fill="white"/>
<path d="M11.8164 77.9785C12.0247 77.9785 12.1935 77.8108 12.1935 77.6039C12.1935 77.3971 12.0247 77.2294 11.8164 77.2294C11.6082 77.2294 11.4393 77.3971 11.4393 77.6039C11.4393 77.8108 11.6082 77.9785 11.8164 77.9785Z" fill="white"/>
<path d="M11.8164 86.4683C12.0247 86.4683 12.1935 86.3006 12.1935 86.0937C12.1935 85.8869 12.0247 85.7192 11.8164 85.7192C11.6082 85.7192 11.4393 85.8869 11.4393 86.0937C11.4393 86.3006 11.6082 86.4683 11.8164 86.4683Z" fill="white"/>
<path d="M11.8164 95.2669C12.0247 95.2669 12.1935 95.0992 12.1935 94.8923C12.1935 94.6855 12.0247 94.5178 11.8164 94.5178C11.6082 94.5178 11.4393 94.6855 11.4393 94.8923C11.4393 95.0992 11.6082 95.2669 11.8164 95.2669Z" fill="white"/>
<path d="M11.8164 104.092C12.0247 104.092 12.1935 103.924 12.1935 103.717C12.1935 103.51 12.0247 103.343 11.8164 103.343C11.6082 103.343 11.4393 103.51 11.4393 103.717C11.4393 103.924 11.6082 104.092 11.8164 104.092Z" fill="white"/>
<path d="M11.8164 111.977C12.0247 111.977 12.1935 111.809 12.1935 111.602C12.1935 111.396 12.0247 111.228 11.8164 111.228C11.6082 111.228 11.4393 111.396 11.4393 111.602C11.4393 111.809 11.6082 111.977 11.8164 111.977Z" fill="white"/>
<path d="M11.8164 120.776C12.0247 120.776 12.1935 120.608 12.1935 120.401C12.1935 120.194 12.0247 120.027 11.8164 120.027C11.6082 120.027 11.4393 120.194 11.4393 120.401C11.4393 120.608 11.6082 120.776 11.8164 120.776Z" fill="white"/>
<path d="M11.8164 129.351C12.0247 129.351 12.1935 129.183 12.1935 128.976C12.1935 128.769 12.0247 128.602 11.8164 128.602C11.6082 128.602 11.4393 128.769 11.4393 128.976C11.4393 129.183 11.6082 129.351 11.8164 129.351Z" fill="white"/>
<path d="M11.9686 141.954C12.1769 141.954 12.3457 141.786 12.3457 141.58C12.3457 141.373 12.1769 141.205 11.9686 141.205C11.7603 141.205 11.5915 141.373 11.5915 141.58C11.5915 141.786 11.7603 141.954 11.9686 141.954Z" fill="white"/>
<path d="M25.5383 142.322C25.7466 142.322 25.9154 142.154 25.9154 141.948C25.9154 141.741 25.7466 141.573 25.5383 141.573C25.33 141.573 25.1612 141.741 25.1612 141.948C25.1612 142.154 25.33 142.322 25.5383 142.322Z" fill="white"/>
<path d="M43.0313 142.322C43.2396 142.322 43.4085 142.154 43.4085 141.948C43.4085 141.741 43.2396 141.573 43.0313 141.573C42.823 141.573 42.6542 141.741 42.6542 141.948C42.6542 142.154 42.823 142.322 43.0313 142.322Z" fill="white"/>
<path d="M60.4848 142.322C60.693 142.322 60.8619 142.154 60.8619 141.948C60.8619 141.741 60.693 141.573 60.4848 141.573C60.2765 141.573 60.1077 141.741 60.1077 141.948C60.1077 142.154 60.2765 142.322 60.4848 142.322Z" fill="white"/>
<path d="M77.4949 142.322C77.7032 142.322 77.872 142.154 77.872 141.948C77.872 141.741 77.7032 141.573 77.4949 141.573C77.2866 141.573 77.1177 141.741 77.1177 141.948C77.1177 142.154 77.2866 142.322 77.4949 142.322Z" fill="white"/>
<path d="M98.3424 77.3937C98.3424 77.5974 98.1769 77.7682 97.9652 77.7682C97.7601 77.7682 97.5881 77.6039 97.5881 77.3937C97.5881 77.1834 97.7535 77.0191 97.9652 77.0191C98.1769 77.0191 98.3424 77.19 98.3424 77.3937Z" fill="white"/>
<path d="M98.3424 85.4958C98.3424 85.6995 98.1769 85.8703 97.9652 85.8703C97.7601 85.8703 97.5881 85.706 97.5881 85.4958C97.5881 85.2855 97.7535 85.1212 97.9652 85.1212C98.1769 85.1212 98.3424 85.2855 98.3424 85.4958Z" fill="white"/>
<path d="M98.3424 94.2287C98.3424 94.4324 98.1769 94.6032 97.9652 94.6032C97.7601 94.6032 97.5881 94.4389 97.5881 94.2287C97.5881 94.025 97.7535 93.8541 97.9652 93.8541C98.1769 93.8541 98.3424 94.0184 98.3424 94.2287Z" fill="white"/>
<path d="M98.3424 102.837C98.3424 103.04 98.1769 103.211 97.9652 103.211C97.7601 103.211 97.5881 103.047 97.5881 102.837C97.5881 102.633 97.7535 102.462 97.9652 102.462C98.1769 102.462 98.3424 102.626 98.3424 102.837Z" fill="white"/>
<path d="M98.3424 111.215C98.3424 111.418 98.1769 111.589 97.9652 111.589C97.7601 111.589 97.5881 111.425 97.5881 111.215C97.5881 111.011 97.7535 110.84 97.9652 110.84C98.1769 110.84 98.3424 111.011 98.3424 111.215Z" fill="white"/>
<path d="M98.3424 119.475C98.3424 119.678 98.1769 119.849 97.9652 119.849C97.7601 119.849 97.5881 119.685 97.5881 119.475C97.5881 119.264 97.7535 119.1 97.9652 119.1C98.1769 119.1 98.3424 119.271 98.3424 119.475Z" fill="white"/>
<path d="M98.3424 127.912C98.3424 128.115 98.1769 128.286 97.9652 128.286C97.7601 128.286 97.5881 128.122 97.5881 127.912C97.5881 127.702 97.7535 127.537 97.9652 127.537C98.1769 127.537 98.3424 127.702 98.3424 127.912Z" fill="white"/>
<path d="M98.3424 140.765C98.3424 140.968 98.1769 141.139 97.9652 141.139C97.7601 141.139 97.5881 140.975 97.5881 140.765C97.5881 140.561 97.7535 140.39 97.9652 140.39C98.1769 140.39 98.3424 140.561 98.3424 140.765Z" fill="white"/>
</svg>
