<svg width="110" height="153" viewBox="0 0 110 153" fill="none" xmlns="http://www.w3.org/2000/svg">
<path d="M106.072 153H3.92763C1.75884 153 0 151.253 0 149.098V3.90219C0 1.74745 1.75884 0 3.92763 0H106.072C108.241 0 110 1.74745 110 3.90219V149.098C110 151.253 108.241 153 106.072 153Z" fill="white"/>
<path d="M98.5741 12.0679C98.5741 12.2715 98.4088 12.4423 98.1972 12.4423C97.9922 12.4423 97.8203 12.2781 97.8203 12.0679C97.8203 11.8577 97.9856 11.6934 98.1972 11.6934C98.4022 11.6934 98.5741 11.8577 98.5741 12.0679Z" fill="white"/>
<path d="M80.6354 12.0679C80.6354 12.2715 80.4701 12.4423 80.2585 12.4423C80.0535 12.4423 79.8816 12.2781 79.8816 12.0679C79.8816 11.8577 80.0469 11.6934 80.2585 11.6934C80.4701 11.6934 80.6354 11.8577 80.6354 12.0679Z" fill="white"/>
<path d="M64.1381 12.0679C64.1381 12.2715 63.9728 12.4423 63.7612 12.4423C63.5562 12.4423 63.3843 12.2781 63.3843 12.0679C63.3843 11.8577 63.5496 11.6934 63.7612 11.6934C63.9661 11.6934 64.1381 11.8577 64.1381 12.0679Z" fill="white"/>
<path d="M47.5746 12.1861C47.5746 12.3897 47.4093 12.5606 47.1977 12.5606C46.9861 12.5606 46.8208 12.3963 46.8208 12.1861C46.8208 11.9759 46.9861 11.8116 47.1977 11.8116C47.4093 11.8116 47.5746 11.9824 47.5746 12.1861Z" fill="white"/>
<path d="M98.5741 25.9555C98.5741 26.1592 98.4088 26.33 98.1972 26.33C97.9922 26.33 97.8203 26.1657 97.8203 25.9555C97.8203 25.7519 97.9856 25.5811 98.1972 25.5811C98.4022 25.5811 98.5741 25.7453 98.5741 25.9555Z" fill="white"/>
<path d="M98.5741 38.6277C98.5741 38.8314 98.4088 39.0022 98.1972 39.0022C97.9922 39.0022 97.8203 38.838 97.8203 38.6277C97.8203 38.4241 97.9856 38.2533 98.1972 38.2533C98.4022 38.2533 98.5741 38.4241 98.5741 38.6277Z" fill="white"/>
<path d="M98.5741 51.911C98.5741 52.1146 98.4088 52.2854 98.1972 52.2854C97.9922 52.2854 97.8203 52.1212 97.8203 51.911C97.8203 51.7073 97.9856 51.5365 98.1972 51.5365C98.4022 51.5365 98.5741 51.7007 98.5741 51.911Z" fill="white"/>
<path d="M98.5741 60.3066C98.5741 60.5102 98.4088 60.681 98.1972 60.681C97.9922 60.681 97.8203 60.5168 97.8203 60.3066C97.8203 60.1029 97.9856 59.9321 98.1972 59.9321C98.4022 59.9321 98.5741 60.1029 98.5741 60.3066Z" fill="white"/>
<path d="M98.5741 68.735C98.5741 68.9387 98.4088 69.1095 98.1972 69.1095C97.9922 69.1095 97.8203 68.9453 97.8203 68.735C97.8203 68.5248 97.9856 68.3606 98.1972 68.3606C98.4022 68.3606 98.5741 68.5314 98.5741 68.735Z" fill="white"/>
<path d="M12.4243 12.4358C12.4243 12.6394 12.259 12.8102 12.0474 12.8102C11.8424 12.8102 11.6705 12.646 11.6705 12.4358C11.6705 12.2321 11.8358 12.0613 12.0474 12.0613C12.2524 12.0679 12.4243 12.2321 12.4243 12.4358Z" fill="white"/>
<path d="M30.5614 12.1861C30.5614 12.3897 30.3961 12.5606 30.1845 12.5606C29.9795 12.5606 29.8076 12.3963 29.8076 12.1861C29.8076 11.9759 29.9729 11.8116 30.1845 11.8116C30.3961 11.8116 30.5614 11.9824 30.5614 12.1861Z" fill="white"/>
<path d="M12.4243 25.6599C12.4243 25.8635 12.259 26.0343 12.0474 26.0343C11.8424 26.0343 11.6705 25.8701 11.6705 25.6599C11.6705 25.4562 11.8358 25.2854 12.0474 25.2854C12.2524 25.2854 12.4243 25.4496 12.4243 25.6599Z" fill="white"/>
<path d="M12.4243 38.7131C12.4243 38.9168 12.259 39.0876 12.0474 39.0876C11.8424 39.0876 11.6705 38.9234 11.6705 38.7131C11.6705 38.5095 11.8358 38.3387 12.0474 38.3387C12.2524 38.3387 12.4243 38.5095 12.4243 38.7131Z" fill="white"/>
<path d="M12.4243 51.819C12.4243 52.0226 12.259 52.1934 12.0474 52.1934C11.8424 52.1934 11.6705 52.0292 11.6705 51.819C11.6705 51.6088 11.8358 51.4445 12.0474 51.4445C12.2524 51.4445 12.4243 51.6088 12.4243 51.819Z" fill="white"/>
<path d="M12.4243 60.3066C12.4243 60.5102 12.259 60.681 12.0474 60.681C11.8424 60.681 11.6705 60.5168 11.6705 60.3066C11.6705 60.1029 11.8358 59.9321 12.0474 59.9321C12.2524 59.9321 12.4243 60.1029 12.4243 60.3066Z" fill="white"/>
<path d="M12.4243 69.1095C12.4243 69.3131 12.259 69.484 12.0474 69.484C11.8424 69.484 11.6705 69.3197 11.6705 69.1095C11.6705 68.9058 11.8358 68.735 12.0474 68.735C12.2524 68.735 12.4243 68.8993 12.4243 69.1095Z" fill="white"/>
<path d="M12.4243 77.6036C12.4243 77.8073 12.259 77.9781 12.0474 77.9781C11.8424 77.9781 11.6705 77.8139 11.6705 77.6036C11.6705 77.4 11.8358 77.2292 12.0474 77.2292C12.2524 77.2292 12.4243 77.4 12.4243 77.6036Z" fill="white"/>
<path d="M12.4243 86.0913C12.4243 86.2949 12.259 86.4657 12.0474 86.4657C11.8424 86.4657 11.6705 86.3015 11.6705 86.0913C11.6705 85.8876 11.8358 85.7168 12.0474 85.7168C12.2524 85.7234 12.4243 85.8876 12.4243 86.0913Z" fill="white"/>
<path d="M12.4243 94.8942C12.4243 95.0978 12.259 95.2686 12.0474 95.2686C11.8424 95.2686 11.6705 95.1044 11.6705 94.8942C11.6705 94.6839 11.8358 94.5197 12.0474 94.5197C12.2524 94.5197 12.4243 94.6905 12.4243 94.8942Z" fill="white"/>
<path d="M12.4243 103.717C12.4243 103.92 12.259 104.091 12.0474 104.091C11.8424 104.091 11.6705 103.927 11.6705 103.717C11.6705 103.513 11.8358 103.342 12.0474 103.342C12.2524 103.342 12.4243 103.513 12.4243 103.717Z" fill="white"/>
<path d="M12.4243 111.6C12.4243 111.804 12.259 111.974 12.0474 111.974C11.8424 111.974 11.6705 111.81 11.6705 111.6C11.6705 111.396 11.8358 111.226 12.0474 111.226C12.2524 111.226 12.4243 111.396 12.4243 111.6Z" fill="white"/>
<path d="M12.4243 120.403C12.4243 120.607 12.259 120.777 12.0474 120.777C11.8424 120.777 11.6705 120.613 11.6705 120.403C11.6705 120.199 11.8358 120.028 12.0474 120.028C12.2524 120.028 12.4243 120.193 12.4243 120.403Z" fill="white"/>
<path d="M12.4243 128.976C12.4243 129.18 12.259 129.35 12.0474 129.35C11.8424 129.35 11.6705 129.186 11.6705 128.976C11.6705 128.766 11.8358 128.601 12.0474 128.601C12.2524 128.601 12.4243 128.766 12.4243 128.976Z" fill="white"/>
<path d="M12.5763 141.576C12.5763 141.78 12.411 141.95 12.1994 141.95C11.9944 141.95 11.8225 141.786 11.8225 141.576C11.8225 141.372 11.9878 141.201 12.1994 141.201C12.4044 141.201 12.5763 141.372 12.5763 141.576Z" fill="white"/>
<path d="M26.1445 141.95C26.1445 142.154 25.9792 142.325 25.7676 142.325C25.5627 142.325 25.3907 142.161 25.3907 141.95C25.3907 141.747 25.5561 141.576 25.7676 141.576C25.9792 141.576 26.1445 141.747 26.1445 141.95Z" fill="white"/>
<path d="M43.6337 141.95C43.6337 142.154 43.4684 142.325 43.2568 142.325C43.0452 142.325 42.8799 142.161 42.8799 141.95C42.8799 141.747 43.0452 141.576 43.2568 141.576C43.4684 141.576 43.6337 141.747 43.6337 141.95Z" fill="white"/>
<path d="M61.0964 141.95C61.0964 142.154 60.9311 142.325 60.7195 142.325C60.5146 142.325 60.3427 142.161 60.3427 141.95C60.3427 141.747 60.508 141.576 60.7195 141.576C60.9245 141.576 61.0964 141.747 61.0964 141.95Z" fill="white"/>
<path d="M78.1029 141.95C78.1029 142.154 77.9376 142.325 77.726 142.325C77.521 142.325 77.3491 142.161 77.3491 141.95C77.3491 141.747 77.5144 141.576 77.726 141.576C77.931 141.576 78.1029 141.747 78.1029 141.95Z" fill="white"/>
<path d="M98.5741 77.3934C98.5741 77.5971 98.4088 77.7679 98.1972 77.7679C97.9922 77.7679 97.8203 77.6037 97.8203 77.3934C97.8203 77.1832 97.9856 77.019 98.1972 77.019C98.4022 77.019 98.5741 77.1898 98.5741 77.3934Z" fill="white"/>
<path d="M98.5741 85.4935C98.5741 85.6971 98.4088 85.8679 98.1972 85.8679C97.9922 85.8679 97.8203 85.7037 97.8203 85.4935C97.8203 85.2898 97.9856 85.119 98.1972 85.119C98.4022 85.119 98.5741 85.2898 98.5741 85.4935Z" fill="white"/>
<path d="M98.5741 94.2241C98.5741 94.4277 98.4088 94.5985 98.1972 94.5985C97.9922 94.5985 97.8203 94.4343 97.8203 94.2241C97.8203 94.0204 97.9856 93.8496 98.1972 93.8496C98.4022 93.8562 98.5741 94.0204 98.5741 94.2241Z" fill="white"/>
<path d="M98.5741 102.836C98.5741 103.04 98.4088 103.211 98.1972 103.211C97.9922 103.211 97.8203 103.047 97.8203 102.836C97.8203 102.633 97.9856 102.462 98.1972 102.462C98.4022 102.462 98.5741 102.626 98.5741 102.836Z" fill="white"/>
<path d="M98.5741 111.212C98.5741 111.416 98.4088 111.587 98.1972 111.587C97.9922 111.587 97.8203 111.423 97.8203 111.212C97.8203 111.009 97.9856 110.838 98.1972 110.838C98.4022 110.838 98.5741 111.009 98.5741 111.212Z" fill="white"/>
<path d="M98.5741 119.477C98.5741 119.68 98.4088 119.851 98.1972 119.851C97.9922 119.851 97.8203 119.687 97.8203 119.477C97.8203 119.273 97.9856 119.102 98.1972 119.102C98.4022 119.102 98.5741 119.266 98.5741 119.477Z" fill="white"/>
<path d="M98.5741 127.912C98.5741 128.115 98.4088 128.286 98.1972 128.286C97.9922 128.286 97.8203 128.122 97.8203 127.912C97.8203 127.708 97.9856 127.537 98.1972 127.537C98.4022 127.537 98.5741 127.701 98.5741 127.912Z" fill="white"/>
<path d="M98.5741 140.768C98.5741 140.972 98.4088 141.142 98.1972 141.142C97.9922 141.142 97.8203 140.978 97.8203 140.768C97.8203 140.564 97.9856 140.393 98.1972 140.393C98.4022 140.393 98.5741 140.558 98.5741 140.768Z" fill="white"/>
<path d="M62.8221 59.4328C55.8066 59.262 54.1932 64.5832 53.823 67.1453C53.4527 64.5832 51.8393 59.262 44.8238 59.4328C35.5998 59.6562 34.3832 69.9175 37.6033 75.1073C40.8234 80.2971 42.4897 81.9526 45.7164 85.2635C48.7514 88.3839 52.3749 91.892 53.7172 94.0401C53.7172 94.0401 53.7899 94.2898 53.8296 94.2241C53.8693 94.2898 53.942 94.0401 53.942 94.0401C55.2843 91.892 58.9077 88.3774 61.9427 85.2635C65.1628 81.9526 66.8291 80.2971 70.0558 75.1073C73.2627 69.9175 72.0461 59.6496 62.8221 59.4328Z" fill="#AF0F07"/>
<path d="M13.3566 19.0576C12.1003 19.0248 11.8093 19.9839 11.7432 20.4438C11.6771 19.9839 11.3862 19.0314 10.1299 19.0576C8.47681 19.0971 8.25861 20.9365 8.83387 21.8693C9.40913 22.8022 9.71329 23.0978 10.2885 23.689C10.8307 24.2474 11.4853 24.8781 11.7234 25.2657C11.7234 25.2657 11.7366 25.3117 11.7432 25.2985C11.7498 25.3117 11.7631 25.2657 11.7631 25.2657C12.0011 24.8781 12.6557 24.254 13.1979 23.689C13.7732 23.0978 14.0773 22.7956 14.6526 21.8693C15.2344 20.943 15.0096 19.0971 13.3566 19.0576Z" fill="#AF0F07"/>
<path d="M7.74941 15.819H8.22549C8.72801 15.819 9.09829 15.5102 9.32972 14.8861L12.087 7.14746H12.4044L15.1881 15.254C15.2741 15.4642 15.3732 15.6153 15.4989 15.6942C15.6179 15.773 15.77 15.8124 15.9617 15.8124H16.6824V16.2197H12.7019V15.8124H13.5483C13.6739 15.8124 13.7863 15.7796 13.8723 15.7139C13.9582 15.6482 13.9979 15.5759 13.9979 15.4905C13.9979 15.3788 13.9781 15.2869 13.945 15.208L13.3433 13.5132H10.3414L10.0306 14.3672C9.91159 14.7088 9.85208 14.9518 9.85208 15.1095C9.85208 15.3 9.89836 15.4577 9.99093 15.6022C10.0835 15.7402 10.2488 15.8124 10.4802 15.8124H11.2605V16.2197H7.7428V15.819H7.74941ZM10.4802 13.119H13.1978L11.8622 9.22994L10.4802 13.119Z" fill="#A43E32"/>
<path d="M92.6893 134.652H96.207V135.059H95.4268C95.1954 135.059 95.03 135.131 94.9375 135.269C94.8449 135.407 94.7986 135.572 94.7986 135.762C94.7986 135.913 94.8581 136.163 94.9771 136.498L95.2879 137.352H98.2898L98.8915 135.657C98.9246 135.578 98.9444 135.486 98.9444 135.374C98.9444 135.289 98.9048 135.217 98.8188 135.151C98.7329 135.085 98.6271 135.053 98.4948 135.053H97.6485V134.645H101.629V135.053H100.908C100.717 135.053 100.564 135.092 100.445 135.171C100.326 135.25 100.221 135.401 100.135 135.611L97.3509 143.718H97.0335L94.2763 135.979C94.0448 135.361 93.6746 135.046 93.172 135.046H92.6959V134.652H92.6893ZM96.8087 141.655L98.1444 137.766H95.4268L96.8087 141.655Z" fill="#AF0F07"/>
<path d="M99.5263 131.551C98.27 131.584 97.979 130.625 97.9129 130.172C97.8468 130.631 97.5558 131.584 96.2995 131.551C94.6465 131.512 94.4283 129.672 95.0035 128.739C95.5788 127.807 95.883 127.511 96.4582 126.92C97.0004 126.361 97.655 125.731 97.8931 125.343C97.8931 125.343 97.9063 125.297 97.9129 125.31C97.9195 125.297 97.9327 125.343 97.9327 125.343C98.1708 125.731 98.8254 126.355 99.3676 126.92C99.9428 127.511 100.247 127.813 100.822 128.739C101.398 129.672 101.179 131.512 99.5263 131.551Z" fill="#AF0F07"/>
</svg>
