<svg width="110" height="153" viewBox="0 0 110 153" fill="none" xmlns="http://www.w3.org/2000/svg">
<path d="M5.28824 153C2.38085 153 0 150.651 0 147.831V5.16862C0 2.327 2.38085 0 5.28824 0H104.712C107.619 0 110 2.327 110 5.16862V147.831C110 150.673 107.619 153 104.712 153H5.28824Z" fill="#FAFAFA"/>
<path d="M11.6296 143.692C10.462 143.692 9.52344 142.775 9.52344 141.634V11.3665C9.52344 10.2254 10.4849 9.30798 11.6296 9.30798H98.3476C99.5151 9.30798 100.454 10.2477 100.454 11.3665V141.611C100.454 142.752 99.4922 143.67 98.3476 143.67H11.6296V143.692Z" fill="#C42C27"/>
<path d="M20.535 143.692L19.0927 142.282L25.0677 136.443L31.0428 142.282L29.6005 143.692H35.4611L34.0188 142.282L39.9938 136.443L45.9689 142.282L44.5266 143.692H50.3872L48.9449 142.282L54.92 136.443L60.895 142.282L59.4527 143.692H65.3133L63.8711 142.282L69.8461 136.443L75.8211 142.282L74.3789 143.692H80.2394L78.7972 142.282L84.7722 136.443L90.7472 142.282L89.305 143.692H95.1655L93.7233 142.282L99.6983 136.443L100.316 137.047V132.907L99.6983 133.489L93.7233 127.649L99.6983 121.809L100.316 122.391V118.274L99.6983 118.878L93.7233 113.016L99.6983 107.176L100.316 107.758V103.641L99.6983 104.245L93.7233 98.4051L99.6983 92.5652L100.316 93.147V89.0524L99.6983 89.6565L93.7233 83.8166L99.6983 77.9767L100.316 78.5585V74.4639L99.6983 75.0456L93.7233 69.2058L99.6983 63.3659L100.316 63.9476V59.8307L99.8815 60.4124L93.9064 54.5725L99.8815 48.7327L100.5 49.3368V45.1974L99.8815 45.8015L93.9064 39.9617L99.8815 34.1218L100.5 34.7259V30.6089L99.8815 31.2131L93.9064 25.3732L99.8815 19.511L100.5 20.1151V15.9533L99.8815 16.5575L93.9064 10.7176L95.3487 9.30798H89.4881L90.9304 10.7176L84.9096 16.5575L78.9345 10.7176L80.3768 9.30798H74.5162L75.9585 10.7176L69.9605 16.5575L63.9855 10.7176L65.4278 9.30798H59.5672L61.0095 10.7176L54.9886 16.5575L49.0136 10.7176L50.4559 9.30798H44.5953L46.0376 10.7176L40.0396 16.5575L34.0646 10.7176L35.5069 9.30798H29.6463L31.0885 10.7176L25.0906 16.5575L19.0927 10.7176L20.535 9.30798H14.6744L16.1166 10.7176L10.1187 16.5575L9.5235 15.9533V20.0703L10.1416 19.4662L16.1166 25.3285L10.1416 31.1683L9.5235 30.5642V34.6812L10.1416 34.0771L16.1166 39.9169L10.1416 45.7568L9.5235 45.1974V49.3144L10.1416 48.7327L16.1166 54.5725L10.1187 60.4124L9.50061 59.8307V63.9476L10.1187 63.3659L16.0937 69.2058L10.1187 75.0456L9.50061 74.4639V78.5585L10.1187 77.9767L16.0937 83.8166L10.1187 89.6565L9.5235 89.0524V93.1693L10.1416 92.5876L16.1166 98.4275L10.1187 104.267L9.50061 103.663V107.78L10.1187 107.198L16.0937 113.038L10.1187 118.878L9.50061 118.296V122.413L10.1187 121.809L16.0937 127.649L10.1187 133.489L9.5235 132.907V137.024L10.1416 136.42L16.1166 142.26L14.6744 143.67H20.535V143.692ZM19.0927 127.649L25.0677 121.809L31.0428 127.649L25.0677 133.489L19.0927 127.649ZM53.5006 91.1109L47.5027 96.9731L41.5277 91.1109L47.5027 85.271L53.5006 91.1109ZM41.5277 76.5L47.5027 70.6601L53.4777 76.5L47.4798 82.3399L41.5277 76.5ZM49.0136 83.7942L54.9886 77.9544L60.9637 83.7942L54.9886 89.6341L49.0136 83.7942ZM56.4996 76.5L62.4746 70.6601L68.4496 76.5L62.4746 82.3399L56.4996 76.5ZM62.4746 85.271L68.4725 91.1109L62.4746 96.9731L56.4996 91.1109L62.4746 85.271ZM63.9626 83.7942L69.9377 77.9544L75.9127 83.7942L69.9377 89.6341L63.9626 83.7942ZM63.9626 69.1834L69.9377 63.3435L75.9127 69.1834L69.9377 75.0232L63.9626 69.1834ZM62.4746 67.729L56.4996 61.8891L62.4746 56.0493L68.4725 61.8891L62.4746 67.729ZM60.9866 69.1834L55.0115 75.0232L49.0365 69.1834L55.0115 63.3435L60.9866 69.1834ZM47.5256 67.729L41.5506 61.8891L47.5256 56.0493L53.5235 61.8891L47.5256 67.729ZM46.0147 69.1834L40.0396 75.0232L34.0646 69.1834L40.0396 63.3435L46.0147 69.1834ZM46.0147 83.7942L40.0167 89.6341L34.0417 83.7942L40.0167 77.9544L46.0147 83.7942ZM46.0147 98.4275L40.0167 104.267L34.0417 98.4275L40.0167 92.5876L46.0147 98.4275ZM47.5256 99.8818L53.5235 105.722L47.5485 111.562L41.5735 105.722L47.5256 99.8818ZM49.0136 98.4275L54.9886 92.5876L60.9637 98.4275L54.9886 104.267L49.0136 98.4275ZM62.4746 99.8818L68.4725 105.722L62.4746 111.562L56.4996 105.722L62.4746 99.8818ZM63.9626 98.4275L69.9377 92.5876L75.9127 98.4275L69.9377 104.267L63.9626 98.4275ZM77.4236 99.8818L83.3986 105.722L77.4236 111.562L71.4486 105.722L77.4236 99.8818ZM71.4486 91.1109L77.4236 85.271L83.3986 91.1109L77.4236 96.9731L71.4486 91.1109ZM71.4486 76.5L77.4236 70.6601L83.3986 76.5L77.4236 82.3399L71.4486 76.5ZM71.4486 61.8668L77.4236 56.0269L83.3986 61.8668L77.4236 67.7066L71.4486 61.8668ZM71.4486 47.2559L77.4236 41.4161L83.3986 47.2559L77.4236 53.0958L71.4486 47.2559ZM75.9356 54.5725L69.9605 60.4124L63.9855 54.5725L69.9605 48.7327L75.9356 54.5725ZM62.4746 53.0958L56.4996 47.2559L62.4746 41.4161L68.4725 47.2559L62.4746 53.0958ZM60.9866 54.5725L54.9886 60.4124L49.0136 54.5725L54.9886 48.7327L60.9866 54.5725ZM47.5256 53.0958L41.5506 47.2559L47.5256 41.4161L53.5235 47.2559L47.5256 53.0958ZM46.0147 54.5725L40.0396 60.4124L34.0646 54.5725L40.0396 48.7327L46.0147 54.5725ZM32.5537 53.0958L26.5787 47.2559L32.5537 41.4161L38.5287 47.2559L32.5537 53.0958ZM38.5516 61.8668L32.5766 67.7066L26.6015 61.8668L32.5766 56.0269L38.5516 61.8668ZM38.5516 76.5L32.5766 82.3399L26.6015 76.5L32.5766 70.6601L38.5516 76.5ZM38.5516 91.1109L32.5766 96.9731L26.6015 91.1109L32.5766 85.271L38.5516 91.1109ZM38.5516 105.722L32.5766 111.562L26.6015 105.722L32.5766 99.8818L38.5516 105.722ZM38.5516 120.355L32.5766 126.195L26.6015 120.355L32.5766 114.515L38.5516 120.355ZM34.0646 113.038L40.0396 107.198L46.0376 113.038L40.0625 118.901L34.0646 113.038ZM47.5256 114.493L53.5006 120.333L47.5256 126.172L41.5506 120.333L47.5256 114.493ZM49.0136 113.038L54.9886 107.198L60.9637 113.038L54.9886 118.901L49.0136 113.038ZM62.4746 114.493L68.4725 120.333L62.4746 126.172L56.4996 120.333L62.4746 114.493ZM63.9626 113.038L69.9377 107.198L75.9127 113.038L69.9377 118.878L63.9626 113.038ZM77.4236 114.493L83.3986 120.333L77.4236 126.172L71.4486 120.333L77.4236 114.493ZM78.9345 113.038L84.9096 107.198L90.8846 113.038L84.9096 118.878L78.9345 113.038ZM78.9345 98.4275L84.9096 92.5876L90.8846 98.4275L84.9096 104.267L78.9345 98.4275ZM78.9345 83.7942L84.9096 77.9544L90.8846 83.7942L84.9096 89.6341L78.9345 83.7942ZM78.9345 69.1834L84.9096 63.3435L90.8846 69.1834L84.9096 75.0232L78.9345 69.1834ZM78.9345 54.5725L84.9096 48.7327L90.8846 54.5725L84.9096 60.4124L78.9345 54.5725ZM78.9345 39.9393L84.9096 34.0994L90.8846 39.9393L84.9096 45.7792L78.9345 39.9393ZM77.4236 38.4849L71.4486 32.6451L77.4236 26.8052L83.3986 32.6451L77.4236 38.4849ZM75.9356 39.9393L69.9605 45.7792L63.9855 39.9393L69.9605 34.0994L75.9356 39.9393ZM62.4746 38.4849L56.4996 32.6451L62.4746 26.8052L68.4725 32.6451L62.4746 38.4849ZM60.9866 39.9393L55.0115 45.7792L49.0365 39.9393L55.0115 34.0994L60.9866 39.9393ZM47.5256 38.4849L41.5506 32.6451L47.5256 26.8052L53.5235 32.6451L47.5256 38.4849ZM46.0147 39.9393L40.0167 45.7792L34.0417 39.9393L40.0167 34.0994L46.0147 39.9393ZM32.5537 38.4849L26.5787 32.6451L32.5537 26.8052L38.5287 32.6451L32.5537 38.4849ZM31.0656 39.9393L25.0906 45.7792L19.1156 39.9393L25.0906 34.0994L31.0656 39.9393ZM31.0656 54.5725L25.0906 60.4124L19.1156 54.5725L25.0906 48.7327L31.0656 54.5725ZM31.0656 69.1834L25.0906 75.0232L19.1156 69.1834L25.0906 63.3435L31.0656 69.1834ZM31.0656 83.7942L25.0906 89.6341L19.1156 83.7942L25.0906 77.9544L31.0656 83.7942ZM31.0656 98.4275L25.0906 104.267L19.1156 98.4275L25.0906 92.5876L31.0656 98.4275ZM31.0656 113.038L25.0906 118.901L19.1156 113.038L25.0906 107.198L31.0656 113.038ZM32.5537 140.806L26.5787 134.966L32.5537 129.126L38.5287 134.966L32.5537 140.806ZM34.0646 127.672L40.0396 121.832L46.0147 127.672L40.0167 133.511L34.0646 127.672ZM47.5256 140.806L41.5506 134.966L47.5256 129.126L53.5006 134.966L47.5256 140.806ZM49.0136 127.649L54.9886 121.809L60.9637 127.649L54.9886 133.489L49.0136 127.649ZM62.4746 140.806L56.4996 134.966L62.4746 129.126L68.4725 134.966L62.4746 140.806ZM63.9626 127.649L69.9377 121.809L75.9127 127.649L69.9377 133.489L63.9626 127.649ZM77.4236 140.806L71.4486 134.966L77.4236 129.126L83.3986 134.966L77.4236 140.806ZM78.9345 127.649L84.9096 121.809L90.8846 127.649L84.9096 133.489L78.9345 127.649ZM98.3705 134.966L92.3955 140.806L86.4205 134.966L92.3955 129.126L98.3705 134.966ZM98.3705 120.355L92.3955 126.195L86.4205 120.355L92.3955 114.515L98.3705 120.355ZM98.3705 105.722L92.3955 111.562L86.4205 105.722L92.3955 99.8818L98.3705 105.722ZM98.3705 91.1109L92.3955 96.9731L86.4205 91.1109L92.3955 85.271L98.3705 91.1109ZM98.3705 76.5L92.3955 82.3399L86.4205 76.5L92.3955 70.6601L98.3705 76.5ZM98.3705 61.8668L92.3955 67.7066L86.4205 61.8668L92.3955 56.0269L98.3705 61.8668ZM98.3705 47.2559L92.3955 53.0958L86.4205 47.2559L92.3955 41.4161L98.3705 47.2559ZM98.3705 32.6451L92.3955 38.4849L86.4205 32.6451L92.3955 26.8052L98.3705 32.6451ZM92.3955 12.172L98.3705 18.0118L92.3955 23.8517L86.4205 18.0118L92.3955 12.172ZM90.8846 25.3285L84.9096 31.1683L78.9345 25.3285L84.9096 19.4886L90.8846 25.3285ZM77.4236 12.172L83.3986 18.0118L77.4236 23.8517L71.4486 18.0118L77.4236 12.172ZM75.9356 25.3285L69.9605 31.1683L63.9855 25.3285L69.9605 19.4886L75.9356 25.3285ZM62.4746 12.172L68.4725 18.0118L62.4746 23.8517L56.4996 18.0118L62.4746 12.172ZM60.9866 25.3285L55.0115 31.1683L49.0365 25.3285L55.0115 19.4886L60.9866 25.3285ZM47.5256 12.172L53.5235 18.0118L47.5256 23.8517L41.5506 18.0118L47.5256 12.172ZM46.0147 25.3285L40.0167 31.1683L34.0417 25.3285L40.0167 19.4886L46.0147 25.3285ZM32.5537 12.172L38.5287 18.0118L32.5537 23.8517L26.5787 18.0118L32.5537 12.172ZM31.0656 25.3285L25.0906 31.1683L19.1156 25.3285L25.0906 19.4662L31.0656 25.3285ZM11.6296 18.0118L17.6047 12.172L23.5797 18.0118L17.6047 23.8517L11.6296 18.0118ZM11.6296 32.6451L17.6047 26.8052L23.5797 32.6451L17.6047 38.4849L11.6296 32.6451ZM11.6296 47.2559L17.6047 41.4161L23.5797 47.2559L17.6047 53.0958L11.6296 47.2559ZM11.6296 61.8668L17.6047 56.0269L23.5797 61.8668L17.6047 67.7066L11.6296 61.8668ZM11.6296 76.5L17.6047 70.6601L23.5797 76.5L17.6047 82.3399L11.6296 76.5ZM11.6296 91.1109L17.6047 85.271L23.5797 91.1109L17.6047 96.9731L11.6296 91.1109ZM11.6296 105.722L17.6047 99.8818L23.5797 105.722L17.6047 111.562L11.6296 105.722ZM11.6296 120.355L17.6047 114.515L23.5797 120.355L17.6047 126.195L11.6296 120.355ZM11.6296 134.966L17.6047 129.126L23.5797 134.966L17.6047 140.806L11.6296 134.966Z" fill="white"/>
<path d="M17.9709 142.282L25.0677 135.346L32.1644 142.282L30.7222 143.692H31.4777L32.5536 142.663L33.6067 143.692H34.3622L32.9199 142.282L40.0167 135.346L47.1135 142.282L45.6712 143.692H46.4267L47.4797 142.663L48.5557 143.692H49.3112L47.8689 142.282L54.9657 135.346L62.0625 142.282L60.6202 143.692H61.3757L62.4288 142.663L63.5047 143.692H64.2602L62.8179 142.282L69.9147 135.346L77.0115 142.282L75.5692 143.692H76.3247L77.4007 142.663L78.4537 143.692H79.2092L77.7669 142.282L84.8637 135.346L91.9605 142.282L90.5182 143.692H91.2737L92.3268 142.64L93.4027 143.692H94.1582L92.716 142.282L99.8127 135.346L100.431 135.95V135.212L100.202 134.988L100.431 134.764V134.026L99.8127 134.608L92.716 127.672L99.8127 120.735L100.431 121.317V120.579L100.202 120.355L100.431 120.131V119.393L99.8127 119.997L92.716 113.038L99.8127 106.102L100.431 106.684V105.945L100.202 105.722L100.431 105.498V104.76L99.8127 105.364L92.716 98.4275L99.8127 91.4912L100.431 92.073V91.3346L100.202 91.1109L100.431 90.8871V90.1487L99.8127 90.7529L92.716 83.8166L99.8127 76.8804L100.431 77.4621V76.7238L100.202 76.5L100.431 76.2763V75.5379L99.8127 76.142L92.716 69.2058L99.8127 62.2695L100.431 62.8513V62.1129L100.202 61.8892L100.431 61.6654V60.927L99.8127 61.5312L92.716 54.5949L99.8127 47.6587L100.431 48.2628V47.5244L100.202 47.3007L100.431 47.0769V46.3386L99.8127 46.9427L92.716 40.0064L99.8127 33.0702L100.431 33.6743V32.936L100.202 32.7122L100.431 32.4885V31.7501L99.8127 32.3542L92.716 25.418L99.8127 18.4817L100.431 19.0635V18.2356L100.202 18.0119L100.431 17.7881V17.0497L99.8127 17.6315L92.716 10.6952L94.1582 9.28561H93.4027L92.3268 10.3372L91.2737 9.28561H90.5182L91.9605 10.6952L84.8637 17.6315L77.7669 10.6952L79.2092 9.28561H78.4537L77.4007 10.3372L76.3247 9.28561H75.5692L77.0115 10.6952L69.9147 17.6315L62.8179 10.6952L64.2602 9.28561H63.5047L62.4288 10.3372L61.3757 9.28561H60.666L62.1083 10.6952L55.0115 17.6315L47.9147 10.6952L49.3569 9.28561H48.6015L47.5255 10.3372L46.4725 9.28561H45.717L47.1592 10.6952L40.0625 17.6315L32.9657 10.6952L34.4079 9.28561H33.6525L32.5994 10.3372L31.5234 9.28561H30.768L32.2102 10.6952L25.1135 17.6315L18.0167 10.6952L19.4589 9.28561H18.6577L17.6046 10.3372L16.5286 9.30799H15.7961L17.2383 10.7176L10.1415 17.6538L9.52344 17.0497V17.7881L9.75237 18.0119L9.52344 18.2356V18.974L10.1415 18.3922L17.2383 25.3285L10.1415 32.2647L9.52344 31.6606V32.399L9.75237 32.6227L9.52344 32.8465V33.5848L10.1415 32.9807L17.2383 39.9169L10.1415 46.8532L9.52344 46.2491V46.9874L9.75237 47.2112L9.52344 47.4349V48.1733L10.1415 47.5916L17.2383 54.5278L10.1415 61.464L9.52344 60.8599V61.5983L9.75237 61.822L9.52344 62.0458V62.7842L10.1415 62.2024L17.2383 69.1386L10.1415 76.0749L9.52344 75.4708V76.2091L9.75237 76.4329L9.52344 76.6566V77.395L10.1415 76.8133L17.2383 83.7495L10.1415 90.6857L9.52344 90.0816V90.82L9.75237 91.0437L9.52344 91.2675V92.0058L10.1415 91.4241L17.2383 98.3603L10.1415 105.297L9.52344 104.692V105.431L9.75237 105.655L9.52344 105.878V106.617L10.1415 106.035L17.2383 112.971L10.1415 119.907L9.52344 119.326V120.064L9.75237 120.288L9.52344 120.512V121.25L10.1415 120.668L17.2383 127.604L10.1415 134.541L9.52344 133.959V134.697L9.75237 134.921L9.52344 135.145V135.883L10.1415 135.279L17.2383 142.215L15.7961 143.692H16.5515L17.6046 142.663L18.6806 143.692H19.436L17.9709 142.282ZM17.9709 127.649L25.0677 120.713L32.1644 127.649L25.0677 134.585L17.9709 127.649ZM54.6223 91.1109L47.5255 98.0471L40.4287 91.1109L47.5255 84.1746L54.6223 91.1109ZM40.4059 76.5L47.5026 69.5638L54.5994 76.5L47.5026 83.4362L40.4059 76.5ZM47.8918 83.7942L54.9886 76.858L62.0854 83.7942L54.9886 90.7305L47.8918 83.7942ZM55.3778 76.5L62.4745 69.5638L69.5713 76.5L62.4745 83.4362L55.3778 76.5ZM62.4745 84.1746L69.5713 91.1109L62.4745 98.0471L55.3778 91.1109L62.4745 84.1746ZM62.8408 83.7942L69.9376 76.858L77.0344 83.7942L69.9376 90.7305L62.8408 83.7942ZM62.8408 69.1834L69.9376 62.2472L77.0344 69.1834L69.9376 76.1196L62.8408 69.1834ZM62.4745 68.8254L55.3778 61.8892L62.4745 54.9529L69.5713 61.8892L62.4745 68.8254ZM62.1083 69.1834L55.0115 76.1196L47.9147 69.1834L55.0115 62.2472L62.1083 69.1834ZM47.5255 68.8254L40.4287 61.8892L47.5255 54.9529L54.6223 61.8892L47.5255 68.8254ZM47.1363 69.1834L40.0396 76.1196L32.9428 69.1834L40.0396 62.2472L47.1363 69.1834ZM47.1363 83.7942L40.0396 90.7305L32.9428 83.7942L40.0396 76.858L47.1363 83.7942ZM47.1363 98.4275L40.0396 105.364L32.9428 98.4275L40.0396 91.4912L47.1363 98.4275ZM47.5255 98.7855L54.6223 105.722L47.5255 112.658L40.4287 105.722L47.5255 98.7855ZM47.8918 98.4275L54.9886 91.4912L62.0854 98.4275L54.9886 105.364L47.8918 98.4275ZM62.4745 98.7855L69.5713 105.722L62.4745 112.658L55.3778 105.722L62.4745 98.7855ZM62.8408 98.4275L69.9376 91.4912L77.0344 98.4275L69.9376 105.364L62.8408 98.4275ZM77.4236 98.7855L84.5203 105.722L77.4236 112.658L70.3268 105.722L77.4236 98.7855ZM70.3268 91.1109L77.4236 84.1746L84.5203 91.1109L77.4236 98.0695L70.3268 91.1109ZM70.3268 76.5L77.4236 69.5638L84.5203 76.5L77.4236 83.4362L70.3268 76.5ZM70.3268 61.8668L77.4236 54.9305L84.5203 61.8668L77.4236 68.803L70.3268 61.8668ZM70.3268 47.2559L77.4236 40.3197L84.5203 47.2559L77.4236 54.1922L70.3268 47.2559ZM77.0573 54.5725L69.9605 61.5088L62.8637 54.5725L69.9605 47.6363L77.0573 54.5725ZM62.4745 54.1922L55.3778 47.2559L62.4745 40.3197L69.5713 47.2559L62.4745 54.1922ZM62.1083 54.5725L55.0115 61.5088L47.9147 54.5725L55.0115 47.6363L62.1083 54.5725ZM47.5255 54.1922L40.4287 47.2559L47.5255 40.3197L54.6223 47.2559L47.5255 54.1922ZM47.1363 54.5725L40.0396 61.5088L32.9428 54.5725L40.0396 47.6363L47.1363 54.5725ZM32.5536 54.1922L25.4568 47.2559L32.5536 40.3197L39.6504 47.2559L32.5536 54.1922ZM39.6733 61.8668L32.5765 68.803L25.4797 61.8668L32.5765 54.9305L39.6733 61.8668ZM39.6733 76.5L32.5765 83.4362L25.4797 76.5L32.5765 69.5638L39.6733 76.5ZM39.6733 91.1109L32.5765 98.0471L25.4797 91.1109L32.5765 84.1746L39.6733 91.1109ZM39.6733 105.722L32.5765 112.658L25.4797 105.722L32.5765 98.7855L39.6733 105.722ZM39.6733 120.355L32.5765 127.291L25.4797 120.355L32.5765 113.419L39.6733 120.355ZM32.9428 113.038L40.0396 106.102L47.1592 113.038L40.0625 119.997L32.9428 113.038ZM47.5255 113.396L54.6223 120.333L47.5255 127.269L40.4287 120.333L47.5255 113.396ZM47.8918 113.038L54.9886 106.102L62.0854 113.038L54.9886 119.997L47.8918 113.038ZM62.4745 113.396L69.5713 120.333L62.4745 127.269L55.3778 120.333L62.4745 113.396ZM62.8408 113.038L69.9376 106.102L77.0344 113.038L69.9376 119.975L62.8408 113.038ZM77.4236 113.396L84.5203 120.333L77.4236 127.269L70.3268 120.333L77.4236 113.396ZM77.8127 113.038L84.9095 106.102L92.0063 113.038L84.9095 119.975L77.8127 113.038ZM77.8127 98.4275L84.9095 91.4912L92.0063 98.4275L84.9095 105.364L77.8127 98.4275ZM77.8127 83.7942L84.9095 76.858L92.0063 83.7942L84.9095 90.7305L77.8127 83.7942ZM77.8127 69.1834L84.9095 62.2472L92.0063 69.1834L84.9095 76.1196L77.8127 69.1834ZM77.8127 54.5725L84.9095 47.6363L92.0063 54.5725L84.9095 61.5088L77.8127 54.5725ZM77.8127 39.9393L84.9095 33.0031L92.0063 39.9393L84.9095 46.8756L77.8127 39.9393ZM77.4236 39.5813L70.3268 32.6451L77.4236 25.7088L84.5203 32.6451L77.4236 39.5813ZM77.0573 39.9393L69.9605 46.8756L62.8637 39.9393L69.9605 33.0031L77.0573 39.9393ZM62.4745 39.5813L55.3778 32.6451L62.4745 25.7088L69.5713 32.6451L62.4745 39.5813ZM62.1083 39.9393L55.0115 46.8756L47.9147 39.9393L55.0115 33.0031L62.1083 39.9393ZM47.5255 39.5813L40.4287 32.6451L47.5255 25.7088L54.6223 32.6451L47.5255 39.5813ZM47.1363 39.9393L40.0396 46.8756L32.9428 39.9393L40.0396 33.0031L47.1363 39.9393ZM32.5536 39.5813L25.4568 32.6451L32.5536 25.7088L39.6504 32.6451L32.5536 39.5813ZM32.1873 39.9393L25.0906 46.8756L17.9938 39.9393L25.0906 33.0031L32.1873 39.9393ZM32.1873 54.5725L25.0906 61.5088L17.9938 54.5725L25.0906 47.6363L32.1873 54.5725ZM32.1873 69.1834L25.0906 76.1196L17.9938 69.1834L25.0906 62.2472L32.1873 69.1834ZM32.1873 83.7942L25.0906 90.7305L17.9938 83.7942L25.0906 76.858L32.1873 83.7942ZM32.1873 98.4275L25.0906 105.364L17.9938 98.4275L25.0906 91.4912L32.1873 98.4275ZM32.1873 113.038L25.0906 119.997L17.9938 113.038L25.0906 106.102L32.1873 113.038ZM32.5536 141.902L25.4568 134.966L32.5536 128.03L39.6504 134.966L32.5536 141.902ZM32.9428 127.672L40.0396 120.735L47.1363 127.672L40.0167 134.608L32.9428 127.672ZM47.5255 141.902L40.4287 134.966L47.5255 128.03L54.6223 134.966L47.5255 141.902ZM47.8918 127.649L54.9886 120.713L62.0854 127.649L54.9886 134.585L47.8918 127.649ZM62.4745 141.902L55.3778 134.966L62.4745 128.03L69.5713 134.966L62.4745 141.902ZM62.8408 127.649L69.9376 120.713L77.0344 127.649L69.9376 134.585L62.8408 127.649ZM77.4236 141.902L70.3268 134.966L77.4236 128.03L84.5203 134.966L77.4236 141.902ZM77.8127 127.649L84.9095 120.713L92.0063 127.649L84.9095 134.585L77.8127 127.649ZM99.4922 134.966L92.3955 141.902L85.2987 134.966L92.3955 128.03L99.4922 134.966ZM99.4922 120.355L92.3955 127.291L85.2987 120.355L92.3955 113.419L99.4922 120.355ZM99.4922 105.722L92.3955 112.658L85.2987 105.722L92.3955 98.7855L99.4922 105.722ZM99.4922 91.1109L92.3955 98.0471L85.2987 91.1109L92.3955 84.1746L99.4922 91.1109ZM99.4922 76.5L92.3955 83.4362L85.2987 76.5L92.3955 69.5638L99.4922 76.5ZM99.4922 61.8668L92.3955 68.803L85.2987 61.8668L92.3955 54.9305L99.4922 61.8668ZM99.4922 47.2559L92.3955 54.1922L85.2987 47.2559L92.3955 40.3197L99.4922 47.2559ZM99.4922 32.6451L92.3955 39.5813L85.2987 32.6451L92.3955 25.7088L99.4922 32.6451ZM92.3955 11.0756L99.4922 18.0119L92.3955 24.9481L85.2987 18.0119L92.3955 11.0756ZM92.0063 25.3285L84.9095 32.2647L77.8127 25.3285L84.9095 18.3922L92.0063 25.3285ZM77.4236 11.0756L84.5203 18.0119L77.4236 24.9481L70.3268 18.0119L77.4236 11.0756ZM77.0573 25.3285L69.9605 32.2647L62.8637 25.3285L69.9605 18.3922L77.0573 25.3285ZM62.4745 11.0756L69.5713 18.0119L62.4745 24.9481L55.3778 18.0119L62.4745 11.0756ZM62.1083 25.3285L55.0115 32.2647L47.9147 25.3285L55.0115 18.3922L62.1083 25.3285ZM47.5255 11.0756L54.6223 18.0119L47.5255 24.9481L40.4287 18.0119L47.5255 11.0756ZM47.1363 25.3285L40.0396 32.2647L32.9428 25.3285L40.0396 18.3922L47.1363 25.3285ZM32.5536 11.0756L39.6504 18.0119L32.5536 24.9481L25.4568 18.0119L32.5536 11.0756ZM32.1873 25.3285L25.0906 32.2647L17.9938 25.3285L25.0906 18.3698L32.1873 25.3285ZM10.5078 18.0119L17.6046 11.0756L24.7014 18.0119L17.6046 24.9481L10.5078 18.0119ZM10.5078 32.6451L17.6046 25.7088L24.7014 32.6451L17.6046 39.5813L10.5078 32.6451ZM10.5078 47.2559L17.6046 40.3197L24.7014 47.2559L17.6046 54.1922L10.5078 47.2559ZM10.5078 61.8668L17.6046 54.9305L24.7014 61.8668L17.6046 68.803L10.5078 61.8668ZM10.5078 76.5L17.6046 69.5638L24.7014 76.5L17.6046 83.4362L10.5078 76.5ZM10.5078 91.1109L17.6046 84.1746L24.7014 91.1109L17.6046 98.0471L10.5078 91.1109ZM10.5078 105.722L17.6046 98.7855L24.7014 105.722L17.6046 112.658L10.5078 105.722ZM10.5078 120.355L17.6046 113.419L24.7014 120.355L17.6046 127.291L10.5078 120.355ZM10.5078 134.966L17.6046 128.03L24.7014 134.966L17.6046 141.902L10.5078 134.966Z" fill="#F1C256"/>
</svg>
