<svg width="110" height="153" viewBox="0 0 110 153" fill="none" xmlns="http://www.w3.org/2000/svg">
<path d="M106.07 153H3.92995C1.75986 153 0 151.252 0 149.097V3.9032C0 1.7479 1.75986 0 3.92995 0H106.07C108.24 0 110 1.7479 110 3.9032V149.097C110 151.252 108.24 153 106.07 153Z" fill="white"/>
<path d="M98.1967 12.439C98.405 12.439 98.5739 12.2713 98.5739 12.0644C98.5739 11.8576 98.405 11.6899 98.1967 11.6899C97.9884 11.6899 97.8196 11.8576 97.8196 12.0644C97.8196 12.2713 97.9884 12.439 98.1967 12.439Z" fill="white"/>
<path d="M80.2604 12.439C80.4687 12.439 80.6376 12.2713 80.6376 12.0644C80.6376 11.8576 80.4687 11.6899 80.2604 11.6899C80.0521 11.6899 79.8833 11.8576 79.8833 12.0644C79.8833 12.2713 80.0521 12.439 80.2604 12.439Z" fill="white"/>
<path d="M63.7664 12.439C63.9747 12.439 64.1435 12.2713 64.1435 12.0644C64.1435 11.8576 63.9747 11.6899 63.7664 11.6899C63.5581 11.6899 63.3892 11.8576 63.3892 12.0644C63.3892 12.2713 63.5581 12.439 63.7664 12.439Z" fill="white"/>
<path d="M47.1995 12.5573C47.4078 12.5573 47.5766 12.3896 47.5766 12.1827C47.5766 11.9759 47.4078 11.8082 47.1995 11.8082C46.9913 11.8082 46.8224 11.9759 46.8224 12.1827C46.8224 12.3896 46.9913 12.5573 47.1995 12.5573Z" fill="white"/>
<path d="M98.1967 26.3302C98.405 26.3302 98.5739 26.1625 98.5739 25.9556C98.5739 25.7487 98.405 25.5811 98.1967 25.5811C97.9884 25.5811 97.8196 25.7487 97.8196 25.9556C97.8196 26.1625 97.9884 26.3302 98.1967 26.3302Z" fill="white"/>
<path d="M98.1967 38.9991C98.405 38.9991 98.5739 38.8314 98.5739 38.6245C98.5739 38.4177 98.405 38.25 98.1967 38.25C97.9884 38.25 97.8196 38.4177 97.8196 38.6245C97.8196 38.8314 97.9884 38.9991 98.1967 38.9991Z" fill="white"/>
<path d="M98.1967 52.2857C98.405 52.2857 98.5739 52.118 98.5739 51.9112C98.5739 51.7043 98.405 51.5366 98.1967 51.5366C97.9884 51.5366 97.8196 51.7043 97.8196 51.9112C97.8196 52.118 97.9884 52.2857 98.1967 52.2857Z" fill="white"/>
<path d="M98.1967 60.6835C98.405 60.6835 98.5739 60.5158 98.5739 60.3089C98.5739 60.1021 98.405 59.9344 98.1967 59.9344C97.9884 59.9344 97.8196 60.1021 97.8196 60.3089C97.8196 60.5158 97.9884 60.6835 98.1967 60.6835Z" fill="white"/>
<path d="M98.1967 69.1076C98.405 69.1076 98.5739 68.9399 98.5739 68.7331C98.5739 68.5262 98.405 68.3585 98.1967 68.3585C97.9884 68.3585 97.8196 68.5262 97.8196 68.7331C97.8196 68.9399 97.9884 69.1076 98.1967 69.1076Z" fill="white"/>
<path d="M12.048 12.8136C12.2563 12.8136 12.4251 12.6459 12.4251 12.439C12.4251 12.2321 12.2563 12.0645 12.048 12.0645C11.8397 12.0645 11.6709 12.2321 11.6709 12.439C11.6709 12.6459 11.8397 12.8136 12.048 12.8136Z" fill="white"/>
<path d="M30.5666 12.1827C30.5666 12.3864 30.4012 12.5573 30.1895 12.5573C29.9844 12.5573 29.8123 12.393 29.8123 12.1827C29.8123 11.979 29.9778 11.8082 30.1895 11.8082C30.4012 11.8147 30.5666 11.979 30.5666 12.1827Z" fill="white"/>
<path d="M12.048 26.0344C12.2563 26.0344 12.4251 25.8667 12.4251 25.6599C12.4251 25.453 12.2563 25.2853 12.048 25.2853C11.8397 25.2853 11.6709 25.453 11.6709 25.6599C11.6709 25.8667 11.8397 26.0344 12.048 26.0344Z" fill="white"/>
<path d="M12.048 39.0845C12.2563 39.0845 12.4251 38.9169 12.4251 38.71C12.4251 38.5031 12.2563 38.3354 12.048 38.3354C11.8397 38.3354 11.6709 38.5031 11.6709 38.71C11.6709 38.9169 11.8397 39.0845 12.048 39.0845Z" fill="white"/>
<path d="M12.048 52.1871C12.2563 52.1871 12.4251 52.0195 12.4251 51.8126C12.4251 51.6057 12.2563 51.438 12.048 51.438C11.8397 51.438 11.6709 51.6057 11.6709 51.8126C11.6709 52.0195 11.8397 52.1871 12.048 52.1871Z" fill="white"/>
<path d="M12.048 60.6835C12.2563 60.6835 12.4251 60.5158 12.4251 60.3089C12.4251 60.1021 12.2563 59.9344 12.048 59.9344C11.8397 59.9344 11.6709 60.1021 11.6709 60.3089C11.6709 60.5158 11.8397 60.6835 12.048 60.6835Z" fill="white"/>
<path d="M12.048 69.4821C12.2563 69.4821 12.4251 69.3144 12.4251 69.1076C12.4251 68.9007 12.2563 68.733 12.048 68.733C11.8397 68.733 11.6709 68.9007 11.6709 69.1076C11.6709 69.3144 11.8397 69.4821 12.048 69.4821Z" fill="white"/>
<path d="M12.048 77.9785C12.2563 77.9785 12.4251 77.8108 12.4251 77.6039C12.4251 77.3971 12.2563 77.2294 12.048 77.2294C11.8397 77.2294 11.6709 77.3971 11.6709 77.6039C11.6709 77.8108 11.8397 77.9785 12.048 77.9785Z" fill="white"/>
<path d="M12.048 86.4683C12.2563 86.4683 12.4251 86.3006 12.4251 86.0937C12.4251 85.8869 12.2563 85.7192 12.048 85.7192C11.8397 85.7192 11.6709 85.8869 11.6709 86.0937C11.6709 86.3006 11.8397 86.4683 12.048 86.4683Z" fill="white"/>
<path d="M12.048 95.2669C12.2563 95.2669 12.4251 95.0992 12.4251 94.8923C12.4251 94.6855 12.2563 94.5178 12.048 94.5178C11.8397 94.5178 11.6709 94.6855 11.6709 94.8923C11.6709 95.0992 11.8397 95.2669 12.048 95.2669Z" fill="white"/>
<path d="M12.048 104.092C12.2563 104.092 12.4251 103.924 12.4251 103.717C12.4251 103.51 12.2563 103.343 12.048 103.343C11.8397 103.343 11.6709 103.51 11.6709 103.717C11.6709 103.924 11.8397 104.092 12.048 104.092Z" fill="white"/>
<path d="M12.048 111.977C12.2563 111.977 12.4251 111.809 12.4251 111.602C12.4251 111.396 12.2563 111.228 12.048 111.228C11.8397 111.228 11.6709 111.396 11.6709 111.602C11.6709 111.809 11.8397 111.977 12.048 111.977Z" fill="white"/>
<path d="M12.048 120.776C12.2563 120.776 12.4251 120.608 12.4251 120.401C12.4251 120.194 12.2563 120.027 12.048 120.027C11.8397 120.027 11.6709 120.194 11.6709 120.401C11.6709 120.608 11.8397 120.776 12.048 120.776Z" fill="white"/>
<path d="M12.048 129.344C12.2563 129.344 12.4251 129.177 12.4251 128.97C12.4251 128.763 12.2563 128.595 12.048 128.595C11.8397 128.595 11.6709 128.763 11.6709 128.97C11.6709 129.177 11.8397 129.344 12.048 129.344Z" fill="white"/>
<path d="M12.2001 141.948C12.4084 141.948 12.5773 141.78 12.5773 141.573C12.5773 141.366 12.4084 141.198 12.2001 141.198C11.9919 141.198 11.8231 141.366 11.8231 141.573C11.8231 141.78 11.9919 141.948 12.2001 141.948Z" fill="white"/>
<path d="M25.7765 142.322C25.9848 142.322 26.1537 142.154 26.1537 141.948C26.1537 141.741 25.9848 141.573 25.7765 141.573C25.5682 141.573 25.3994 141.741 25.3994 141.948C25.3994 142.154 25.5682 142.322 25.7765 142.322Z" fill="white"/>
<path d="M43.6401 141.948C43.6401 142.151 43.4747 142.322 43.263 142.322C43.0579 142.322 42.8858 142.158 42.8858 141.948C42.8858 141.744 43.0513 141.573 43.263 141.573C43.4681 141.573 43.6401 141.744 43.6401 141.948Z" fill="white"/>
<path d="M60.723 142.322C60.9313 142.322 61.1001 142.154 61.1001 141.948C61.1001 141.741 60.9313 141.573 60.723 141.573C60.5147 141.573 60.3458 141.741 60.3458 141.948C60.3458 142.154 60.5147 142.322 60.723 142.322Z" fill="white"/>
<path d="M77.7264 142.322C77.9347 142.322 78.1035 142.154 78.1035 141.948C78.1035 141.741 77.9347 141.573 77.7264 141.573C77.5181 141.573 77.3492 141.741 77.3492 141.948C77.3492 142.154 77.5181 142.322 77.7264 142.322Z" fill="white"/>
<path d="M98.1967 77.7682C98.405 77.7682 98.5739 77.6005 98.5739 77.3937C98.5739 77.1868 98.405 77.0191 98.1967 77.0191C97.9884 77.0191 97.8196 77.1868 97.8196 77.3937C97.8196 77.6005 97.9884 77.7682 98.1967 77.7682Z" fill="white"/>
<path d="M98.1967 85.8703C98.405 85.8703 98.5739 85.7026 98.5739 85.4958C98.5739 85.2889 98.405 85.1212 98.1967 85.1212C97.9884 85.1212 97.8196 85.2889 97.8196 85.4958C97.8196 85.7026 97.9884 85.8703 98.1967 85.8703Z" fill="white"/>
<path d="M98.1967 94.6032C98.405 94.6032 98.5739 94.4355 98.5739 94.2287C98.5739 94.0218 98.405 93.8541 98.1967 93.8541C97.9884 93.8541 97.8196 94.0218 97.8196 94.2287C97.8196 94.4355 97.9884 94.6032 98.1967 94.6032Z" fill="white"/>
<path d="M98.1967 103.211C98.405 103.211 98.5739 103.044 98.5739 102.837C98.5739 102.63 98.405 102.462 98.1967 102.462C97.9884 102.462 97.8196 102.63 97.8196 102.837C97.8196 103.044 97.9884 103.211 98.1967 103.211Z" fill="white"/>
<path d="M98.1967 111.589C98.405 111.589 98.5739 111.422 98.5739 111.215C98.5739 111.008 98.405 110.84 98.1967 110.84C97.9884 110.84 97.8196 111.008 97.8196 111.215C97.8196 111.422 97.9884 111.589 98.1967 111.589Z" fill="white"/>
<path d="M98.1967 119.849C98.405 119.849 98.5739 119.681 98.5739 119.475C98.5739 119.268 98.405 119.1 98.1967 119.1C97.9884 119.1 97.8196 119.268 97.8196 119.475C97.8196 119.681 97.9884 119.849 98.1967 119.849Z" fill="white"/>
<path d="M98.1967 128.286C98.405 128.286 98.5739 128.119 98.5739 127.912C98.5739 127.705 98.405 127.537 98.1967 127.537C97.9884 127.537 97.8196 127.705 97.8196 127.912C97.8196 128.119 97.9884 128.286 98.1967 128.286Z" fill="white"/>
<path d="M98.5739 140.765C98.5739 140.968 98.4084 141.139 98.1967 141.139C97.985 141.139 97.8196 140.975 97.8196 140.765C97.8196 140.561 97.985 140.39 98.1967 140.39C98.4084 140.39 98.5739 140.561 98.5739 140.765Z" fill="white"/>
<path d="M95.2857 127.564L92.1628 130.987L94.9417 134.752L98.1505 131.296L95.2857 127.564Z" fill="#AF0F07"/>
<path d="M11.9752 18.9443L8.84576 22.3678L11.6311 26.133L14.8333 22.6766L11.9752 18.9443Z" fill="#AF0F07"/>
<path d="M8.52161 16.3093H9.7522C9.87791 16.3093 9.97048 16.283 10.03 16.2304C10.083 16.1779 10.116 16.0924 10.116 15.9742V9.71197H8.52161V9.252H9.2295C9.69263 9.252 10.0632 9.12715 10.3543 8.88402C10.6388 8.63432 10.8174 8.33862 10.8835 7.99036H11.2937V15.9742C11.2937 16.0924 11.3202 16.1779 11.3797 16.2304C11.4393 16.283 11.5253 16.3093 11.6577 16.3093H12.8882V16.7167H8.52161V16.3093Z" fill="#A43E32"/>
<path d="M16.5271 16.2699C16.0573 15.8362 15.6934 15.2711 15.4288 14.568C15.1708 13.8649 15.0385 13.1289 15.0385 12.3536C15.0385 11.5782 15.1708 10.8422 15.4288 10.1391C15.6868 9.43601 16.0573 8.8709 16.5271 8.43721C16.9968 8.00353 17.5393 7.78668 18.1414 7.78668C18.7368 7.78668 19.2794 8.00353 19.7491 8.43721C20.2189 8.8709 20.5894 9.43601 20.8541 10.1391C21.1121 10.8422 21.2444 11.5782 21.2444 12.3536C21.2444 13.1289 21.1121 13.8649 20.8541 14.568C20.596 15.2711 20.2255 15.8362 19.7491 16.2699C19.2728 16.7036 18.7368 16.9204 18.1414 16.9204C17.5393 16.9204 16.9968 16.7036 16.5271 16.2699ZM19.5506 15.3105C19.7756 14.5089 19.8881 13.5232 19.8881 12.3536C19.8881 11.1839 19.7756 10.1917 19.5506 9.39659C19.3257 8.59492 18.8559 8.20066 18.148 8.20066C17.4401 8.20066 16.9703 8.59492 16.7454 9.39001C16.5204 10.1851 16.408 11.1708 16.408 12.3536C16.408 13.5363 16.5204 14.522 16.7454 15.3171C16.9703 16.1122 17.4401 16.5064 18.148 16.5064C18.8559 16.5064 19.3257 16.1122 19.5506 15.3105Z" fill="#A43E32"/>
<path d="M100.321 136.855H99.09C98.9643 136.855 98.8716 136.881 98.8121 136.934C98.7591 136.986 98.726 137.072 98.726 137.19V143.452H100.321V143.912H99.6126C99.1495 143.912 98.779 144.037 98.4879 144.28C98.2034 144.523 98.0247 144.826 97.9585 145.174H97.5484V137.19C97.5484 137.072 97.5219 136.986 97.4623 136.934C97.4028 136.881 97.3168 136.855 97.1845 136.855H95.9539V136.448H100.321V136.855Z" fill="#AF0F07"/>
<path d="M92.3151 136.888C92.7848 137.322 93.1487 137.887 93.4133 138.59C93.6713 139.293 93.8037 140.029 93.8037 140.804C93.8037 141.58 93.6713 142.316 93.4133 143.019C93.1553 143.722 92.7848 144.287 92.3151 144.721C91.8453 145.154 91.3028 145.371 90.7007 145.371C90.1053 145.371 89.5627 145.154 89.093 144.721C88.6166 144.287 88.2528 143.722 87.9881 143.019C87.7301 142.316 87.5978 141.58 87.5978 140.804C87.5978 140.029 87.7301 139.293 87.9881 138.59C88.2461 137.887 88.6166 137.322 89.093 136.888C89.5693 136.454 90.1053 136.237 90.7007 136.237C91.3028 136.237 91.8387 136.454 92.3151 136.888ZM89.2915 137.847C89.0665 138.649 88.954 139.635 88.954 140.804C88.954 141.974 89.0665 142.966 89.2915 143.761C89.5164 144.563 89.9862 144.957 90.6941 144.957C91.402 144.957 91.8718 144.563 92.0967 143.768C92.3217 142.973 92.4341 141.987 92.4341 140.804C92.4341 139.621 92.3217 138.636 92.0967 137.841C91.8718 137.046 91.402 136.651 90.6941 136.651C89.9862 136.651 89.5164 137.046 89.2915 137.847Z" fill="#AF0F07"/>
<path d="M33.6299 16.2961L24.837 26.9018L33.6299 37.6849L42.6543 26.9872L33.6299 16.2961Z" fill="#AF0F07"/>
<path d="M56.6276 34.0643L47.8281 44.6699L56.6276 55.453L65.6454 44.7553L56.6276 34.0643Z" fill="#AF0F07"/>
<path d="M56.2835 97.5076L47.4907 108.12L56.2835 118.896L65.308 108.205L56.2835 97.5076Z" fill="#AF0F07"/>
<path d="M33.6299 49.0528L24.837 59.665L33.6299 70.4481L42.6543 59.7504L33.6299 49.0528Z" fill="#AF0F07"/>
<path d="M33.6299 81.816L24.837 92.4282L33.6299 103.205L42.6543 92.5136L33.6299 81.816Z" fill="#AF0F07"/>
<path d="M33.6299 114.579L24.837 125.191L33.6299 135.968L42.6543 125.27L33.6299 114.579Z" fill="#AF0F07"/>
<path d="M78.2359 16.2961L69.443 26.9018L78.2359 37.6849L87.2603 26.9872L78.2359 16.2961Z" fill="#AF0F07"/>
<path d="M78.2359 49.0528L69.443 59.665L78.2359 70.4481L87.2603 59.7504L78.2359 49.0528Z" fill="#AF0F07"/>
<path d="M78.2359 81.816L69.443 92.4282L78.2359 103.205L87.2603 92.5136L78.2359 81.816Z" fill="#AF0F07"/>
<path d="M78.2359 114.579L69.443 125.191L78.2359 135.968L87.2603 125.27L78.2359 114.579Z" fill="#AF0F07"/>
</svg>
