<svg width="110" height="153" viewBox="0 0 110 153" fill="none" xmlns="http://www.w3.org/2000/svg">
<path d="M106.07 153H3.92999C1.7599 153 0 151.252 0 149.097V3.9032C0 1.7479 1.7599 0 3.92999 0H106.07C108.24 0 110 1.7479 110 3.9032V149.097C110 151.252 108.24 153 106.07 153Z" fill="white"/>
<path d="M98.574 12.0644C98.574 12.2681 98.4085 12.439 98.1968 12.439C97.9917 12.439 97.8197 12.2747 97.8197 12.0644C97.8197 11.8607 97.9851 11.6899 98.1968 11.6899C98.4085 11.6899 98.574 11.8607 98.574 12.0644Z" fill="white"/>
<path d="M80.2604 12.439C80.4687 12.439 80.6376 12.2713 80.6376 12.0644C80.6376 11.8576 80.4687 11.6899 80.2604 11.6899C80.0521 11.6899 79.8833 11.8576 79.8833 12.0644C79.8833 12.2713 80.0521 12.439 80.2604 12.439Z" fill="white"/>
<path d="M64.1368 12.0644C64.1368 12.2681 63.9714 12.439 63.7597 12.439C63.5546 12.439 63.3826 12.2747 63.3826 12.0644C63.3826 11.8607 63.548 11.6899 63.7597 11.6899C63.9714 11.6899 64.1368 11.8607 64.1368 12.0644Z" fill="white"/>
<path d="M47.1996 12.5573C47.4079 12.5573 47.5767 12.3896 47.5767 12.1827C47.5767 11.9759 47.4079 11.8082 47.1996 11.8082C46.9914 11.8082 46.8225 11.9759 46.8225 12.1827C46.8225 12.3896 46.9914 12.5573 47.1996 12.5573Z" fill="white"/>
<path d="M98.574 25.9556C98.574 26.1593 98.4085 26.3302 98.1968 26.3302C97.9917 26.3302 97.8197 26.1659 97.8197 25.9556C97.8197 25.7519 97.9851 25.5811 98.1968 25.5811C98.4085 25.5811 98.574 25.7453 98.574 25.9556Z" fill="white"/>
<path d="M98.574 38.6245C98.574 38.8283 98.4085 38.9991 98.1968 38.9991C97.9917 38.9991 97.8197 38.8348 97.8197 38.6245C97.8197 38.4208 97.9851 38.25 98.1968 38.25C98.4085 38.2566 98.574 38.4208 98.574 38.6245Z" fill="white"/>
<path d="M98.574 51.9112C98.574 52.1149 98.4085 52.2857 98.1968 52.2857C97.9917 52.2857 97.8197 52.1214 97.8197 51.9112C97.8197 51.7075 97.9851 51.5366 98.1968 51.5366C98.4085 51.5366 98.574 51.7009 98.574 51.9112Z" fill="white"/>
<path d="M98.574 60.309C98.574 60.5127 98.4085 60.6835 98.1968 60.6835C97.9917 60.6835 97.8197 60.5193 97.8197 60.309C97.8197 60.1053 97.9851 59.9344 98.1968 59.9344C98.4085 59.9344 98.574 60.0987 98.574 60.309Z" fill="white"/>
<path d="M98.574 68.7331C98.574 68.9368 98.4085 69.1076 98.1968 69.1076C97.9917 69.1076 97.8197 68.9433 97.8197 68.7331C97.8197 68.5294 97.9851 68.3585 98.1968 68.3585C98.4085 68.3585 98.574 68.5294 98.574 68.7331Z" fill="white"/>
<path d="M12.048 12.8136C12.2563 12.8136 12.4251 12.6459 12.4251 12.439C12.4251 12.2321 12.2563 12.0645 12.048 12.0645C11.8397 12.0645 11.6709 12.2321 11.6709 12.439C11.6709 12.6459 11.8397 12.8136 12.048 12.8136Z" fill="white"/>
<path d="M30.1896 12.5573C30.3979 12.5573 30.5667 12.3896 30.5667 12.1827C30.5667 11.9759 30.3979 11.8082 30.1896 11.8082C29.9813 11.8082 29.8125 11.9759 29.8125 12.1827C29.8125 12.3896 29.9813 12.5573 30.1896 12.5573Z" fill="white"/>
<path d="M12.048 26.0344C12.2563 26.0344 12.4251 25.8667 12.4251 25.6599C12.4251 25.453 12.2563 25.2853 12.048 25.2853C11.8397 25.2853 11.6709 25.453 11.6709 25.6599C11.6709 25.8667 11.8397 26.0344 12.048 26.0344Z" fill="white"/>
<path d="M12.048 39.0845C12.2563 39.0845 12.4251 38.9169 12.4251 38.71C12.4251 38.5031 12.2563 38.3354 12.048 38.3354C11.8397 38.3354 11.6709 38.5031 11.6709 38.71C11.6709 38.9169 11.8397 39.0845 12.048 39.0845Z" fill="white"/>
<path d="M12.048 52.1871C12.2563 52.1871 12.4251 52.0195 12.4251 51.8126C12.4251 51.6057 12.2563 51.438 12.048 51.438C11.8397 51.438 11.6709 51.6057 11.6709 51.8126C11.6709 52.0195 11.8397 52.1871 12.048 52.1871Z" fill="white"/>
<path d="M12.048 60.6835C12.2563 60.6835 12.4251 60.5159 12.4251 60.309C12.4251 60.1021 12.2563 59.9344 12.048 59.9344C11.8397 59.9344 11.6709 60.1021 11.6709 60.309C11.6709 60.5159 11.8397 60.6835 12.048 60.6835Z" fill="white"/>
<path d="M12.048 69.4821C12.2563 69.4821 12.4251 69.3144 12.4251 69.1076C12.4251 68.9007 12.2563 68.733 12.048 68.733C11.8397 68.733 11.6709 68.9007 11.6709 69.1076C11.6709 69.3144 11.8397 69.4821 12.048 69.4821Z" fill="white"/>
<path d="M12.048 77.9785C12.2563 77.9785 12.4251 77.8108 12.4251 77.6039C12.4251 77.3971 12.2563 77.2294 12.048 77.2294C11.8397 77.2294 11.6709 77.3971 11.6709 77.6039C11.6709 77.8108 11.8397 77.9785 12.048 77.9785Z" fill="white"/>
<path d="M12.048 86.4683C12.2563 86.4683 12.4251 86.3006 12.4251 86.0937C12.4251 85.8869 12.2563 85.7192 12.048 85.7192C11.8397 85.7192 11.6709 85.8869 11.6709 86.0937C11.6709 86.3006 11.8397 86.4683 12.048 86.4683Z" fill="white"/>
<path d="M12.048 95.2669C12.2563 95.2669 12.4251 95.0992 12.4251 94.8923C12.4251 94.6855 12.2563 94.5178 12.048 94.5178C11.8397 94.5178 11.6709 94.6855 11.6709 94.8923C11.6709 95.0992 11.8397 95.2669 12.048 95.2669Z" fill="white"/>
<path d="M12.048 104.092C12.2563 104.092 12.4251 103.924 12.4251 103.717C12.4251 103.51 12.2563 103.343 12.048 103.343C11.8397 103.343 11.6709 103.51 11.6709 103.717C11.6709 103.924 11.8397 104.092 12.048 104.092Z" fill="white"/>
<path d="M12.048 111.977C12.2563 111.977 12.4251 111.809 12.4251 111.602C12.4251 111.396 12.2563 111.228 12.048 111.228C11.8397 111.228 11.6709 111.396 11.6709 111.602C11.6709 111.809 11.8397 111.977 12.048 111.977Z" fill="white"/>
<path d="M12.4251 120.401C12.4251 120.605 12.2597 120.776 12.048 120.776C11.8429 120.776 11.6709 120.611 11.6709 120.401C11.6709 120.197 11.8363 120.027 12.048 120.027C12.2597 120.027 12.4251 120.197 12.4251 120.401Z" fill="white"/>
<path d="M12.048 129.344C12.2563 129.344 12.4251 129.177 12.4251 128.97C12.4251 128.763 12.2563 128.595 12.048 128.595C11.8397 128.595 11.6709 128.763 11.6709 128.97C11.6709 129.177 11.8397 129.344 12.048 129.344Z" fill="white"/>
<path d="M12.2004 141.948C12.4086 141.948 12.5775 141.78 12.5775 141.573C12.5775 141.366 12.4086 141.198 12.2004 141.198C11.9921 141.198 11.8232 141.366 11.8232 141.573C11.8232 141.78 11.9921 141.948 12.2004 141.948Z" fill="white"/>
<path d="M25.7765 142.322C25.9848 142.322 26.1537 142.154 26.1537 141.948C26.1537 141.741 25.9848 141.573 25.7765 141.573C25.5683 141.573 25.3994 141.741 25.3994 141.948C25.3994 142.154 25.5683 142.322 25.7765 142.322Z" fill="white"/>
<path d="M43.2631 142.322C43.4714 142.322 43.6402 142.154 43.6402 141.948C43.6402 141.741 43.4714 141.573 43.2631 141.573C43.0548 141.573 42.886 141.741 42.886 141.948C42.886 142.154 43.0548 142.322 43.2631 142.322Z" fill="white"/>
<path d="M60.7228 142.322C60.9311 142.322 61.0999 142.154 61.0999 141.948C61.0999 141.741 60.9311 141.573 60.7228 141.573C60.5145 141.573 60.3457 141.741 60.3457 141.948C60.3457 142.154 60.5145 142.322 60.7228 142.322Z" fill="white"/>
<path d="M78.1036 141.948C78.1036 142.151 77.9382 142.322 77.7265 142.322C77.5214 142.322 77.3494 142.158 77.3494 141.948C77.3494 141.737 77.5148 141.573 77.7265 141.573C77.9382 141.573 78.1036 141.744 78.1036 141.948Z" fill="white"/>
<path d="M98.574 77.3937C98.574 77.5974 98.4085 77.7682 98.1968 77.7682C97.9917 77.7682 97.8197 77.6039 97.8197 77.3937C97.8197 77.19 97.9851 77.0191 98.1968 77.0191C98.4085 77.0191 98.574 77.19 98.574 77.3937Z" fill="white"/>
<path d="M98.574 85.4958C98.574 85.6995 98.4085 85.8703 98.1968 85.8703C97.9917 85.8703 97.8197 85.706 97.8197 85.4958C97.8197 85.2921 97.9851 85.1212 98.1968 85.1212C98.4085 85.1212 98.574 85.2855 98.574 85.4958Z" fill="white"/>
<path d="M98.574 94.2287C98.574 94.4324 98.4085 94.6032 98.1968 94.6032C97.9917 94.6032 97.8197 94.4389 97.8197 94.2287C97.8197 94.0184 97.9851 93.8541 98.1968 93.8541C98.4085 93.8541 98.574 94.0184 98.574 94.2287Z" fill="white"/>
<path d="M98.574 102.837C98.574 103.04 98.4085 103.211 98.1968 103.211C97.9917 103.211 97.8197 103.047 97.8197 102.837C97.8197 102.633 97.9851 102.462 98.1968 102.462C98.4085 102.462 98.574 102.626 98.574 102.837Z" fill="white"/>
<path d="M98.574 111.215C98.574 111.418 98.4085 111.589 98.1968 111.589C97.9917 111.589 97.8197 111.425 97.8197 111.215C97.8197 111.011 97.9851 110.84 98.1968 110.84C98.4085 110.84 98.574 111.005 98.574 111.215Z" fill="white"/>
<path d="M98.574 119.475C98.574 119.678 98.4085 119.849 98.1968 119.849C97.9917 119.849 97.8197 119.685 97.8197 119.475C97.8197 119.271 97.9851 119.1 98.1968 119.1C98.4085 119.1 98.574 119.271 98.574 119.475Z" fill="white"/>
<path d="M98.574 127.912C98.574 128.115 98.4085 128.286 98.1968 128.286C97.9917 128.286 97.8197 128.122 97.8197 127.912C97.8197 127.702 97.9851 127.537 98.1968 127.537C98.4085 127.537 98.574 127.702 98.574 127.912Z" fill="white"/>
<path d="M98.574 140.765C98.574 140.968 98.4085 141.139 98.1968 141.139C97.9917 141.139 97.8197 140.975 97.8197 140.765C97.8197 140.561 97.9851 140.39 98.1968 140.39C98.4085 140.39 98.574 140.561 98.574 140.765Z" fill="white"/>
<path d="M54.431 11.2891L45.6382 21.8947L54.431 32.6778L63.4555 21.9801L54.431 11.2891Z" fill="#AF0F07"/>
<path d="M54.431 109.572L45.6382 120.178L54.431 130.961L63.4555 120.263L54.431 109.572Z" fill="#AF0F07"/>
<path d="M11.3401 15.9808L8.21729 19.4043L11.0027 23.1695L14.2049 19.7131L11.3401 15.9808Z" fill="#AF0F07"/>
<path d="M98.7393 121.985L95.6165 125.415L98.4018 129.173L101.604 125.724L98.7393 121.985Z" fill="#AF0F07"/>
<path d="M8.71335 12.5441C8.89198 12.0842 9.29557 11.5913 9.91749 11.0657L11.1481 10.0209C11.5517 9.69231 11.856 9.32433 12.0677 8.9235C12.2795 8.52267 12.3853 8.06269 12.3853 7.54358C12.3853 6.87991 12.2199 6.36737 11.8957 6.00596C11.5715 5.64455 11.1084 5.46713 10.5063 5.46713C10.2351 5.46713 9.97042 5.53284 9.719 5.65769C9.46759 5.78254 9.2625 5.95339 9.10371 6.16366C8.94492 6.37394 8.86553 6.58421 8.86553 6.80763C8.86553 7.01133 8.91183 7.16246 9.00446 7.26103C9.09709 7.35959 9.22941 7.41873 9.3882 7.44502C9.65946 7.48444 9.86456 7.57644 9.99688 7.721C10.1292 7.85899 10.1954 8.02984 10.1954 8.22697C10.1954 8.39125 10.1358 8.52267 10.0234 8.63437C9.91088 8.74608 9.74547 8.79865 9.54037 8.79865C9.18971 8.79865 8.89861 8.66066 8.66704 8.38467C8.43548 8.10869 8.323 7.74728 8.323 7.29388C8.323 6.86019 8.42886 6.4725 8.64719 6.12424C8.86553 5.77597 9.16987 5.50656 9.56022 5.30943C9.95058 5.1123 10.3806 5.01373 10.8636 5.01373C11.4127 5.01373 11.9023 5.11887 12.339 5.32257C12.7757 5.52627 13.1197 5.82197 13.3645 6.20309C13.6093 6.58421 13.735 7.03761 13.735 7.55672C13.735 8.07584 13.5498 8.54238 13.1859 8.95635C12.8154 9.37033 12.3324 9.79088 11.7369 10.218L10.4799 11.1839C10.1226 11.4336 9.84472 11.6636 9.65285 11.8936C9.46098 12.117 9.36174 12.3536 9.36174 12.5901C9.36174 12.7938 9.49405 12.899 9.7587 12.899H12.1868C12.5309 12.899 12.769 12.8267 12.9146 12.6756C13.0535 12.5244 13.1528 12.3142 13.2057 12.0447L13.3446 11.2956H13.6291L13.4505 13.9503H8.44871C8.44871 13.4641 8.53471 13.0041 8.71335 12.5441Z" fill="#A43E32"/>
<path d="M100.268 133.747C100.089 134.207 99.6854 134.7 99.0635 135.225L97.8329 136.27C97.4293 136.599 97.1249 136.967 96.9132 137.368C96.7015 137.768 96.5957 138.228 96.5957 138.747C96.5957 139.411 96.7611 139.924 97.0853 140.285C97.4094 140.646 97.8726 140.824 98.4747 140.824C98.7459 140.824 99.0106 140.758 99.262 140.633C99.5134 140.509 99.7185 140.338 99.8773 140.127C100.036 139.917 100.115 139.707 100.115 139.483C100.115 139.28 100.069 139.129 99.9765 139.03C99.8839 138.931 99.7516 138.872 99.5928 138.846C99.3215 138.807 99.1164 138.715 98.9841 138.57C98.8518 138.432 98.7856 138.261 98.7856 138.064C98.7856 137.9 98.8451 137.768 98.9576 137.657C99.0701 137.545 99.2355 137.492 99.4406 137.492C99.7913 137.492 100.082 137.63 100.314 137.906C100.546 138.182 100.658 138.544 100.658 138.997C100.658 139.431 100.552 139.819 100.334 140.167C100.115 140.515 99.8111 140.784 99.4208 140.982C99.0304 141.179 98.6004 141.277 98.1174 141.277C97.5682 141.277 97.0786 141.172 96.642 140.968C96.2053 140.765 95.8613 140.469 95.6165 140.088C95.3717 139.707 95.246 139.253 95.246 138.734C95.246 138.215 95.4312 137.749 95.7951 137.335C96.1656 136.921 96.6486 136.5 97.244 136.073L98.5011 135.107C98.8584 134.857 99.1363 134.627 99.3281 134.397C99.52 134.174 99.6192 133.937 99.6192 133.701C99.6192 133.497 99.4869 133.392 99.2223 133.392H96.7941C96.4501 133.392 96.2119 133.464 96.0664 133.615C95.9274 133.767 95.8282 133.977 95.7753 134.246L95.6363 134.995H95.3518L95.5305 132.341H100.532C100.539 132.827 100.446 133.287 100.268 133.747Z" fill="#AF0F07"/>
</svg>
