<svg width="110" height="153" viewBox="0 0 110 153" fill="none" xmlns="http://www.w3.org/2000/svg">
<path d="M106.07 153H3.92999C1.7599 153 0 151.252 0 149.097V3.9032C0 1.7479 1.7599 0 3.92999 0H106.07C108.24 0 110 1.7479 110 3.9032V149.097C110 151.252 108.24 153 106.07 153Z" fill="white"/>
<path d="M10.7712 15.9808L7.64172 19.4043L10.4271 23.1695L13.6293 19.7131L10.7712 15.9808Z" fill="#AF0F07"/>
<path d="M98.349 121.985L95.2196 125.415L98.005 129.173L101.207 125.724L98.349 121.985Z" fill="#AF0F07"/>
<path d="M9.23621 13.7006C8.79293 13.4049 8.56799 12.9778 8.56799 12.4192C8.56799 12.1104 8.66062 11.8541 8.83926 11.6373C9.01789 11.4205 9.25606 11.3153 9.54717 11.3153C9.79197 11.3153 9.99045 11.381 10.1294 11.5124C10.2683 11.6439 10.3411 11.8213 10.3411 12.0513C10.3411 12.2287 10.2882 12.3864 10.1823 12.5178C10.0765 12.6492 9.93753 12.7149 9.76551 12.7149C9.46779 12.7149 9.3156 12.7872 9.3156 12.9318C9.3156 13.4706 9.85151 13.7335 10.9299 13.7335C11.5519 13.7335 12.0084 13.5232 12.2863 13.0961C12.5641 12.6689 12.7031 12.163 12.7031 11.565C12.7031 10.8882 12.5575 10.3757 12.2598 10.034C11.9621 9.69227 11.6048 9.52142 11.1748 9.52142C11.049 9.52142 10.9432 9.52799 10.8572 9.54771C10.7778 9.56742 10.6785 9.5937 10.5528 9.6397C10.2683 9.7317 10.05 9.77769 9.89782 9.77769C9.77212 9.77769 9.65304 9.75141 9.56041 9.6857C9.46117 9.62656 9.41486 9.53456 9.41486 9.41629C9.41486 9.29801 9.46117 9.20601 9.55379 9.14687C9.64642 9.08773 9.7655 9.05488 9.89782 9.05488C10.0434 9.05488 10.2419 9.07459 10.4999 9.12059C10.6719 9.14687 10.9035 9.16001 11.2078 9.16001C11.618 9.16001 11.9356 8.97603 12.1539 8.60805C12.3723 8.24007 12.4781 7.81295 12.4781 7.33984C12.4781 6.78787 12.3524 6.3279 12.0944 5.95992C11.8364 5.59194 11.4659 5.41452 10.9763 5.41452C10.4734 5.41452 10.1162 5.49338 9.90445 5.65765C9.69273 5.82193 9.58686 5.99935 9.58686 6.20305C9.58686 6.2819 9.61334 6.36075 9.6795 6.43961C9.73905 6.51846 9.81844 6.58417 9.92429 6.63674C10.2353 6.76159 10.3874 6.97186 10.3874 7.26099C10.3874 7.4384 10.3279 7.58954 10.2088 7.70125C10.0897 7.81952 9.91767 7.87209 9.69273 7.87209C9.44131 7.87209 9.22961 7.76696 9.04436 7.56325C8.8591 7.35298 8.76647 7.12299 8.76647 6.86672C8.76647 6.27533 8.99804 5.81536 9.45455 5.48681C9.91107 5.16483 10.4668 5.00055 11.1152 5.00055C11.8959 5.00055 12.5178 5.20425 12.9942 5.61823C13.4706 6.0322 13.7087 6.57103 13.7087 7.24127C13.7087 7.59611 13.6227 7.91809 13.4573 8.19407C13.2919 8.47006 13.0802 8.69347 12.8288 8.87089C12.5774 9.04831 12.3193 9.16001 12.0679 9.21915V9.32429C12.3524 9.37686 12.6435 9.49514 12.9545 9.6857C13.2654 9.87626 13.5235 10.1325 13.7352 10.4545C13.9469 10.7765 14.0528 11.1445 14.0528 11.565C14.0528 12.0841 13.9138 12.5375 13.6293 12.9252C13.3448 13.3129 12.9677 13.6086 12.4914 13.8189C12.015 14.0292 11.4923 14.1343 10.9167 14.1343C10.2419 14.1409 9.67949 13.9897 9.23621 13.7006Z" fill="#A43E32"/>
<path d="M100.274 132.597C100.718 132.893 100.942 133.32 100.942 133.878C100.942 134.187 100.85 134.443 100.671 134.66C100.493 134.877 100.254 134.982 99.9633 134.982C99.7185 134.982 99.52 134.916 99.3811 134.785C99.2421 134.654 99.1693 134.476 99.1693 134.246C99.1693 134.069 99.2223 133.911 99.3281 133.78C99.434 133.648 99.5729 133.583 99.745 133.583C100.043 133.583 100.195 133.51 100.195 133.366C100.195 132.827 99.6523 132.564 98.5805 132.564C97.9586 132.564 97.5021 132.774 97.2242 133.201C96.9463 133.629 96.8074 134.135 96.8074 134.733C96.8074 135.409 96.9529 135.922 97.2507 136.264C97.5484 136.605 97.9057 136.776 98.3357 136.776C98.4614 136.776 98.5673 136.77 98.6533 136.75C98.7327 136.73 98.8319 136.704 98.9576 136.658C99.2421 136.566 99.4604 136.52 99.6126 136.52C99.7383 136.52 99.8574 136.546 99.95 136.612C100.049 136.671 100.096 136.763 100.096 136.881C100.096 137 100.049 137.092 99.9567 137.151C99.864 137.21 99.7449 137.243 99.6126 137.243C99.4671 137.243 99.2686 137.223 99.0105 137.177C98.8385 137.151 98.607 137.138 98.3026 137.138C97.8924 137.138 97.5748 137.321 97.3565 137.689C97.1382 138.057 97.0257 138.485 97.0257 138.958C97.0257 139.51 97.1514 139.97 97.4095 140.338C97.6675 140.706 98.038 140.883 98.5276 140.883C99.0304 140.883 99.3877 140.804 99.5994 140.64C99.8111 140.476 99.9104 140.298 99.9104 140.094C99.9104 140.016 99.8773 139.937 99.8177 139.858C99.7582 139.779 99.6788 139.713 99.5729 139.661C99.262 139.536 99.1098 139.326 99.1098 139.037C99.1098 138.859 99.1693 138.708 99.2884 138.596C99.4075 138.478 99.5795 138.425 99.8045 138.425C100.049 138.425 100.268 138.531 100.453 138.734C100.638 138.945 100.731 139.175 100.731 139.431C100.731 140.022 100.499 140.482 100.043 140.811C99.5862 141.139 99.0304 141.297 98.382 141.297C97.6013 141.297 96.9794 141.093 96.503 140.679C96.0267 140.265 95.7885 139.726 95.7885 139.056C95.7885 138.701 95.8745 138.379 96.0399 138.103C96.2053 137.827 96.417 137.604 96.6684 137.427C96.9199 137.249 97.1779 137.138 97.4293 137.078V136.973C97.1448 136.921 96.8537 136.802 96.5427 136.612C96.2318 136.421 95.9737 136.165 95.762 135.843C95.5503 135.521 95.4445 135.153 95.4445 134.733C95.4445 134.213 95.5834 133.76 95.8679 133.372C96.1524 132.985 96.5295 132.689 97.0059 132.479C97.4822 132.268 98.0049 132.163 98.5805 132.163C99.2686 132.157 99.831 132.301 100.274 132.597Z" fill="#AF0F07"/>
<path d="M54.6493 11.289L45.8499 21.8947L54.6493 32.6777L63.6737 21.9801L54.6493 11.289Z" fill="#AF0F07"/>
<path d="M54.6493 109.572L45.8499 120.178L54.6493 130.961L63.6737 120.263L54.6493 109.572Z" fill="#AF0F07"/>
<path d="M54.6493 60.4272L45.8499 71.0395L54.6493 81.8225L63.6737 71.1249L54.6493 60.4272Z" fill="#AF0F07"/>
</svg>
