<svg width="110" height="153" viewBox="0 0 110 153" fill="none" xmlns="http://www.w3.org/2000/svg">
<path d="M106.077 153H3.92999C1.7599 153 0 151.252 0 149.097V3.9032C0 1.7479 1.7599 0 3.92999 0H106.07C108.24 0 110 1.7479 110 3.9032V149.097C110 151.252 108.24 153 106.077 153Z" fill="white"/>
<path d="M98.2034 12.439C98.4117 12.439 98.5805 12.2713 98.5805 12.0644C98.5805 11.8576 98.4117 11.6899 98.2034 11.6899C97.9951 11.6899 97.8263 11.8576 97.8263 12.0644C97.8263 12.2713 97.9951 12.439 98.2034 12.439Z" fill="white"/>
<path d="M80.267 12.439C80.4753 12.439 80.6441 12.2713 80.6441 12.0644C80.6441 11.8576 80.4753 11.6899 80.267 11.6899C80.0587 11.6899 79.8899 11.8576 79.8899 12.0644C79.8899 12.2713 80.0587 12.439 80.267 12.439Z" fill="white"/>
<path d="M47.1996 12.5573C47.4079 12.5573 47.5768 12.3896 47.5768 12.1827C47.5768 11.9759 47.4079 11.8082 47.1996 11.8082C46.9914 11.8082 46.8225 11.9759 46.8225 12.1827C46.8225 12.3896 46.9914 12.5573 47.1996 12.5573Z" fill="white"/>
<path d="M98.2034 26.3302C98.4117 26.3302 98.5805 26.1625 98.5805 25.9556C98.5805 25.7487 98.4117 25.5811 98.2034 25.5811C97.9951 25.5811 97.8263 25.7487 97.8263 25.9556C97.8263 26.1625 97.9951 26.3302 98.2034 26.3302Z" fill="white"/>
<path d="M98.2034 38.9991C98.4117 38.9991 98.5805 38.8314 98.5805 38.6245C98.5805 38.4177 98.4117 38.25 98.2034 38.25C97.9951 38.25 97.8263 38.4177 97.8263 38.6245C97.8263 38.8314 97.9951 38.9991 98.2034 38.9991Z" fill="white"/>
<path d="M12.048 12.8136C12.2563 12.8136 12.4251 12.6459 12.4251 12.439C12.4251 12.2321 12.2563 12.0645 12.048 12.0645C11.8397 12.0645 11.6709 12.2321 11.6709 12.439C11.6709 12.6459 11.8397 12.8136 12.048 12.8136Z" fill="white"/>
<path d="M30.5666 12.1827C30.5666 12.3864 30.4012 12.5573 30.1895 12.5573C29.9844 12.5573 29.8124 12.393 29.8124 12.1827C29.8124 11.979 29.9778 11.8082 30.1895 11.8082C30.4012 11.8147 30.5666 11.979 30.5666 12.1827Z" fill="white"/>
<path d="M12.048 26.0344C12.2563 26.0344 12.4251 25.8667 12.4251 25.6599C12.4251 25.453 12.2563 25.2853 12.048 25.2853C11.8397 25.2853 11.6709 25.453 11.6709 25.6599C11.6709 25.8667 11.8397 26.0344 12.048 26.0344Z" fill="white"/>
<path d="M12.048 39.0845C12.2563 39.0845 12.4251 38.9169 12.4251 38.71C12.4251 38.5031 12.2563 38.3354 12.048 38.3354C11.8397 38.3354 11.6709 38.5031 11.6709 38.71C11.6709 38.9169 11.8397 39.0845 12.048 39.0845Z" fill="white"/>
<path d="M12.048 52.1871C12.2563 52.1871 12.4251 52.0195 12.4251 51.8126C12.4251 51.6057 12.2563 51.438 12.048 51.438C11.8397 51.438 11.6709 51.6057 11.6709 51.8126C11.6709 52.0195 11.8397 52.1871 12.048 52.1871Z" fill="white"/>
<path d="M12.048 60.6835C12.2563 60.6835 12.4251 60.5158 12.4251 60.3089C12.4251 60.1021 12.2563 59.9344 12.048 59.9344C11.8397 59.9344 11.6709 60.1021 11.6709 60.3089C11.6709 60.5158 11.8397 60.6835 12.048 60.6835Z" fill="white"/>
<path d="M12.048 69.4821C12.2563 69.4821 12.4251 69.3144 12.4251 69.1076C12.4251 68.9007 12.2563 68.733 12.048 68.733C11.8397 68.733 11.6709 68.9007 11.6709 69.1076C11.6709 69.3144 11.8397 69.4821 12.048 69.4821Z" fill="white"/>
<path d="M12.048 77.9785C12.2563 77.9785 12.4251 77.8108 12.4251 77.6039C12.4251 77.3971 12.2563 77.2294 12.048 77.2294C11.8397 77.2294 11.6709 77.3971 11.6709 77.6039C11.6709 77.8108 11.8397 77.9785 12.048 77.9785Z" fill="white"/>
<path d="M12.048 111.977C12.2563 111.977 12.4251 111.809 12.4251 111.602C12.4251 111.396 12.2563 111.228 12.048 111.228C11.8397 111.228 11.6709 111.396 11.6709 111.602C11.6709 111.809 11.8397 111.977 12.048 111.977Z" fill="white"/>
<path d="M12.4251 120.401C12.4251 120.605 12.2597 120.776 12.048 120.776C11.8363 120.776 11.6709 120.611 11.6709 120.401C11.6709 120.197 11.8363 120.027 12.048 120.027C12.2597 120.027 12.4251 120.197 12.4251 120.401Z" fill="white"/>
<path d="M12.048 129.344C12.2563 129.344 12.4251 129.177 12.4251 128.97C12.4251 128.763 12.2563 128.595 12.048 128.595C11.8397 128.595 11.6709 128.763 11.6709 128.97C11.6709 129.177 11.8397 129.344 12.048 129.344Z" fill="white"/>
<path d="M12.5772 141.573C12.5772 141.777 12.4118 141.948 12.2001 141.948C11.9884 141.948 11.823 141.783 11.823 141.573C11.823 141.363 11.9884 141.198 12.2001 141.198C12.4118 141.198 12.5772 141.369 12.5772 141.573Z" fill="white"/>
<path d="M43.6401 141.948C43.6401 142.151 43.4747 142.322 43.263 142.322C43.0579 142.322 42.8859 142.158 42.8859 141.948C42.8859 141.737 43.0513 141.573 43.263 141.573C43.4747 141.573 43.6401 141.744 43.6401 141.948Z" fill="white"/>
<path d="M60.723 142.322C60.9312 142.322 61.1001 142.154 61.1001 141.948C61.1001 141.741 60.9312 141.573 60.723 141.573C60.5147 141.573 60.3458 141.741 60.3458 141.948C60.3458 142.154 60.5147 142.322 60.723 142.322Z" fill="white"/>
<path d="M77.7331 142.322C77.9414 142.322 78.1102 142.154 78.1102 141.948C78.1102 141.741 77.9414 141.573 77.7331 141.573C77.5248 141.573 77.356 141.741 77.356 141.948C77.356 142.154 77.5248 142.322 77.7331 142.322Z" fill="white"/>
<path d="M98.2034 103.211C98.4117 103.211 98.5805 103.044 98.5805 102.837C98.5805 102.63 98.4117 102.462 98.2034 102.462C97.9951 102.462 97.8263 102.63 97.8263 102.837C97.8263 103.044 97.9951 103.211 98.2034 103.211Z" fill="white"/>
<path d="M98.2034 111.589C98.4117 111.589 98.5805 111.422 98.5805 111.215C98.5805 111.008 98.4117 110.84 98.2034 110.84C97.9951 110.84 97.8263 111.008 97.8263 111.215C97.8263 111.422 97.9951 111.589 98.2034 111.589Z" fill="white"/>
<path d="M98.2034 119.849C98.4117 119.849 98.5805 119.681 98.5805 119.475C98.5805 119.268 98.4117 119.1 98.2034 119.1C97.9951 119.1 97.8263 119.268 97.8263 119.475C97.8263 119.681 97.9951 119.849 98.2034 119.849Z" fill="white"/>
<path d="M98.2034 128.286C98.4117 128.286 98.5805 128.119 98.5805 127.912C98.5805 127.705 98.4117 127.537 98.2034 127.537C97.9951 127.537 97.8263 127.705 97.8263 127.912C97.8263 128.119 97.9951 128.286 98.2034 128.286Z" fill="white"/>
<path d="M98.2034 141.139C98.4117 141.139 98.5805 140.972 98.5805 140.765C98.5805 140.558 98.4117 140.39 98.2034 140.39C97.9951 140.39 97.8263 140.558 97.8263 140.765C97.8263 140.972 97.9951 141.139 98.2034 141.139Z" fill="white"/>
<path d="M12.6237 15.9808L9.49426 19.4043L12.2797 23.1695L15.4819 19.7131L12.6237 15.9808Z" fill="#AF0F07"/>
<path d="M97.1449 123.772L94.0155 127.202L96.8009 130.961L100.003 127.511L97.1449 123.772Z" fill="#AF0F07"/>
<path d="M10.3014 13.5232H11.5453C11.6643 13.5232 11.7504 13.4969 11.8099 13.4443C11.8628 13.3918 11.8959 13.3063 11.8959 13.1881V11.4796H8.63416V11.0196L12.6105 5.1911H13.0736V11.0196H14.6284V11.4796H13.0736V13.1881C13.0736 13.3063 13.1001 13.3918 13.1596 13.4443C13.2125 13.4969 13.3051 13.5232 13.4242 13.5232H14.6681V13.9306H10.3014V13.5232V13.5232ZM9.223 11.0262H11.8893V7.12299L9.223 11.0262Z" fill="#A43E32"/>
<path d="M99.7451 132.768H98.5012C98.3821 132.768 98.2961 132.794 98.2366 132.847C98.1837 132.899 98.1506 132.985 98.1506 133.103V134.811H101.412V135.271L97.436 141.1H96.9729V135.271H95.4181V134.811H96.9729V133.103C96.9729 132.985 96.9464 132.899 96.8869 132.847C96.8339 132.794 96.7413 132.768 96.6223 132.768H95.3784V132.36H99.7451V132.768ZM100.823 135.265H98.1572V139.168L100.823 135.265Z" fill="#AF0F07"/>
<path d="M36.541 11.2891L27.7416 21.8947L36.541 32.6778L45.5588 21.9801L36.541 11.2891Z" fill="#AF0F07"/>
<path d="M36.541 109.572L27.7416 120.178L36.541 130.961L45.5588 120.263L36.541 109.572Z" fill="#AF0F07"/>
<path d="M73.8163 11.2891L65.0168 21.8947L73.8163 32.6778L82.8341 21.9801L73.8163 11.2891Z" fill="#AF0F07"/>
<path d="M73.8163 109.572L65.0168 120.178L73.8163 130.961L82.8341 120.263L73.8163 109.572Z" fill="#AF0F07"/>
</svg>
