<svg width="110" height="153" viewBox="0 0 110 153" fill="none" xmlns="http://www.w3.org/2000/svg">
<path d="M106.07 153H3.92999C1.7599 153 0 151.252 0 149.097V3.9032C0 1.7479 1.7599 0 3.92999 0H106.07C108.24 0 110 1.7479 110 3.9032V149.097C110 151.252 108.24 153 106.07 153Z" fill="white"/>
<path d="M98.574 12.0644C98.574 12.2681 98.4085 12.439 98.1968 12.439C97.9917 12.439 97.8197 12.2747 97.8197 12.0644C97.8197 11.8607 97.9851 11.6899 98.1968 11.6899C98.4085 11.6899 98.574 11.8607 98.574 12.0644Z" fill="white"/>
<path d="M80.6376 12.0644C80.6376 12.2681 80.4721 12.439 80.2604 12.439C80.0553 12.439 79.8833 12.2747 79.8833 12.0644C79.8833 11.8607 80.0487 11.6899 80.2604 11.6899C80.4721 11.6899 80.6376 11.8607 80.6376 12.0644Z" fill="white"/>
<path d="M64.1369 12.0644C64.1369 12.2681 63.9715 12.439 63.7598 12.439C63.5547 12.439 63.3827 12.2747 63.3827 12.0644C63.3827 11.8607 63.5481 11.6899 63.7598 11.6899C63.9715 11.6899 64.1369 11.8607 64.1369 12.0644Z" fill="white"/>
<path d="M47.1996 12.5573C47.4079 12.5573 47.5767 12.3896 47.5767 12.1827C47.5767 11.9759 47.4079 11.8082 47.1996 11.8082C46.9914 11.8082 46.8225 11.9759 46.8225 12.1827C46.8225 12.3896 46.9914 12.5573 47.1996 12.5573Z" fill="white"/>
<path d="M98.574 25.9556C98.574 26.1593 98.4085 26.3302 98.1968 26.3302C97.9917 26.3302 97.8197 26.1659 97.8197 25.9556C97.8197 25.7519 97.9851 25.5811 98.1968 25.5811C98.4085 25.5811 98.574 25.7453 98.574 25.9556Z" fill="white"/>
<path d="M98.574 38.6245C98.574 38.8283 98.4085 38.9991 98.1968 38.9991C97.9917 38.9991 97.8197 38.8348 97.8197 38.6245C97.8197 38.4208 97.9851 38.25 98.1968 38.25C98.4085 38.2566 98.574 38.4208 98.574 38.6245Z" fill="white"/>
<path d="M98.574 51.9112C98.574 52.1149 98.4085 52.2857 98.1968 52.2857C97.9917 52.2857 97.8197 52.1214 97.8197 51.9112C97.8197 51.7075 97.9851 51.5366 98.1968 51.5366C98.4085 51.5366 98.574 51.7009 98.574 51.9112Z" fill="white"/>
<path d="M98.574 60.3089C98.574 60.5126 98.4085 60.6835 98.1968 60.6835C97.9917 60.6835 97.8197 60.5192 97.8197 60.3089C97.8197 60.1052 97.9851 59.9344 98.1968 59.9344C98.4085 59.9344 98.574 60.0987 98.574 60.3089Z" fill="white"/>
<path d="M98.574 68.7331C98.574 68.9368 98.4085 69.1076 98.1968 69.1076C97.9917 69.1076 97.8197 68.9433 97.8197 68.7331C97.8197 68.5294 97.9851 68.3585 98.1968 68.3585C98.4085 68.3585 98.574 68.5294 98.574 68.7331Z" fill="white"/>
<path d="M12.048 12.8136C12.2563 12.8136 12.4251 12.6459 12.4251 12.439C12.4251 12.2321 12.2563 12.0645 12.048 12.0645C11.8397 12.0645 11.6709 12.2321 11.6709 12.439C11.6709 12.6459 11.8397 12.8136 12.048 12.8136Z" fill="white"/>
<path d="M30.5666 12.1827C30.5666 12.3864 30.4012 12.5573 30.1895 12.5573C29.9844 12.5573 29.8124 12.393 29.8124 12.1827C29.8124 11.979 29.9778 11.8082 30.1895 11.8082C30.4012 11.8147 30.5666 11.979 30.5666 12.1827Z" fill="white"/>
<path d="M12.048 26.0344C12.2563 26.0344 12.4251 25.8667 12.4251 25.6599C12.4251 25.453 12.2563 25.2853 12.048 25.2853C11.8397 25.2853 11.6709 25.453 11.6709 25.6599C11.6709 25.8667 11.8397 26.0344 12.048 26.0344Z" fill="white"/>
<path d="M12.048 39.0845C12.2563 39.0845 12.4251 38.9169 12.4251 38.71C12.4251 38.5031 12.2563 38.3354 12.048 38.3354C11.8397 38.3354 11.6709 38.5031 11.6709 38.71C11.6709 38.9169 11.8397 39.0845 12.048 39.0845Z" fill="white"/>
<path d="M12.048 52.1871C12.2563 52.1871 12.4251 52.0195 12.4251 51.8126C12.4251 51.6057 12.2563 51.438 12.048 51.438C11.8397 51.438 11.6709 51.6057 11.6709 51.8126C11.6709 52.0195 11.8397 52.1871 12.048 52.1871Z" fill="white"/>
<path d="M12.048 60.6835C12.2563 60.6835 12.4251 60.5158 12.4251 60.3089C12.4251 60.1021 12.2563 59.9344 12.048 59.9344C11.8397 59.9344 11.6709 60.1021 11.6709 60.3089C11.6709 60.5158 11.8397 60.6835 12.048 60.6835Z" fill="white"/>
<path d="M12.048 69.4821C12.2563 69.4821 12.4251 69.3144 12.4251 69.1076C12.4251 68.9007 12.2563 68.733 12.048 68.733C11.8397 68.733 11.6709 68.9007 11.6709 69.1076C11.6709 69.3144 11.8397 69.4821 12.048 69.4821Z" fill="white"/>
<path d="M12.048 77.9785C12.2563 77.9785 12.4251 77.8108 12.4251 77.6039C12.4251 77.3971 12.2563 77.2294 12.048 77.2294C11.8397 77.2294 11.6709 77.3971 11.6709 77.6039C11.6709 77.8108 11.8397 77.9785 12.048 77.9785Z" fill="white"/>
<path d="M12.048 86.4683C12.2563 86.4683 12.4251 86.3006 12.4251 86.0937C12.4251 85.8869 12.2563 85.7192 12.048 85.7192C11.8397 85.7192 11.6709 85.8869 11.6709 86.0937C11.6709 86.3006 11.8397 86.4683 12.048 86.4683Z" fill="white"/>
<path d="M12.048 95.2669C12.2563 95.2669 12.4251 95.0992 12.4251 94.8923C12.4251 94.6855 12.2563 94.5178 12.048 94.5178C11.8397 94.5178 11.6709 94.6855 11.6709 94.8923C11.6709 95.0992 11.8397 95.2669 12.048 95.2669Z" fill="white"/>
<path d="M12.048 104.092C12.2563 104.092 12.4251 103.924 12.4251 103.717C12.4251 103.51 12.2563 103.343 12.048 103.343C11.8397 103.343 11.6709 103.51 11.6709 103.717C11.6709 103.924 11.8397 104.092 12.048 104.092Z" fill="white"/>
<path d="M12.048 111.977C12.2563 111.977 12.4251 111.809 12.4251 111.602C12.4251 111.396 12.2563 111.228 12.048 111.228C11.8397 111.228 11.6709 111.396 11.6709 111.602C11.6709 111.809 11.8397 111.977 12.048 111.977Z" fill="white"/>
<path d="M12.4251 120.401C12.4251 120.605 12.2597 120.776 12.048 120.776C11.8429 120.776 11.6709 120.611 11.6709 120.401C11.6709 120.197 11.8363 120.027 12.048 120.027C12.2531 120.027 12.4251 120.197 12.4251 120.401Z" fill="white"/>
<path d="M12.048 129.344C12.2563 129.344 12.4251 129.177 12.4251 128.97C12.4251 128.763 12.2563 128.595 12.048 128.595C11.8397 128.595 11.6709 128.763 11.6709 128.97C11.6709 129.177 11.8397 129.344 12.048 129.344Z" fill="white"/>
<path d="M12.2001 141.948C12.4084 141.948 12.5772 141.78 12.5772 141.573C12.5772 141.366 12.4084 141.198 12.2001 141.198C11.9918 141.198 11.823 141.366 11.823 141.573C11.823 141.78 11.9918 141.948 12.2001 141.948Z" fill="white"/>
<path d="M25.7698 142.322C25.9781 142.322 26.147 142.154 26.147 141.948C26.147 141.741 25.9781 141.573 25.7698 141.573C25.5615 141.573 25.3927 141.741 25.3927 141.948C25.3927 142.154 25.5615 142.322 25.7698 142.322Z" fill="white"/>
<path d="M43.263 142.322C43.4713 142.322 43.6401 142.154 43.6401 141.948C43.6401 141.741 43.4713 141.573 43.263 141.573C43.0547 141.573 42.8859 141.741 42.8859 141.948C42.8859 142.154 43.0547 142.322 43.263 142.322Z" fill="white"/>
<path d="M60.723 142.322C60.9312 142.322 61.1 142.154 61.1 141.948C61.1 141.741 60.9312 141.573 60.723 141.573C60.5147 141.573 60.3458 141.741 60.3458 141.948C60.3458 142.154 60.5147 142.322 60.723 142.322Z" fill="white"/>
<path d="M77.7264 142.322C77.9346 142.322 78.1035 142.154 78.1035 141.948C78.1035 141.741 77.9346 141.573 77.7264 141.573C77.5181 141.573 77.3492 141.741 77.3492 141.948C77.3492 142.154 77.5181 142.322 77.7264 142.322Z" fill="white"/>
<path d="M98.574 77.3937C98.574 77.5974 98.4085 77.7682 98.1968 77.7682C97.9917 77.7682 97.8197 77.6039 97.8197 77.3937C97.8197 77.19 97.9851 77.0191 98.1968 77.0191C98.4085 77.0191 98.574 77.19 98.574 77.3937Z" fill="white"/>
<path d="M98.574 85.4958C98.574 85.6995 98.4085 85.8703 98.1968 85.8703C97.9917 85.8703 97.8197 85.706 97.8197 85.4958C97.8197 85.2921 97.9851 85.1212 98.1968 85.1212C98.4085 85.1212 98.574 85.2855 98.574 85.4958Z" fill="white"/>
<path d="M98.574 94.2287C98.574 94.4324 98.4085 94.6032 98.1968 94.6032C97.9917 94.6032 97.8197 94.4389 97.8197 94.2287C97.8197 94.0184 97.9851 93.8541 98.1968 93.8541C98.4085 93.8541 98.574 94.0184 98.574 94.2287Z" fill="white"/>
<path d="M98.574 102.837C98.574 103.04 98.4085 103.211 98.1968 103.211C97.9917 103.211 97.8197 103.047 97.8197 102.837C97.8197 102.633 97.9851 102.462 98.1968 102.462C98.4085 102.462 98.574 102.626 98.574 102.837Z" fill="white"/>
<path d="M98.574 111.215C98.574 111.418 98.4085 111.589 98.1968 111.589C97.9917 111.589 97.8197 111.425 97.8197 111.215C97.8197 111.011 97.9851 110.84 98.1968 110.84C98.4085 110.84 98.574 111.005 98.574 111.215Z" fill="white"/>
<path d="M98.574 119.475C98.574 119.678 98.4085 119.849 98.1968 119.849C97.9917 119.849 97.8197 119.685 97.8197 119.475C97.8197 119.271 97.9851 119.1 98.1968 119.1C98.4085 119.1 98.574 119.271 98.574 119.475Z" fill="white"/>
<path d="M98.574 127.912C98.574 128.115 98.4085 128.286 98.1968 128.286C97.9917 128.286 97.8197 128.122 97.8197 127.912C97.8197 127.702 97.9851 127.537 98.1968 127.537C98.4085 127.537 98.574 127.702 98.574 127.912Z" fill="white"/>
<path d="M98.574 140.765C98.574 140.968 98.4085 141.139 98.1968 141.139C97.9917 141.139 97.8197 140.975 97.8197 140.765C97.8197 140.561 97.9851 140.39 98.1968 140.39C98.4085 140.39 98.574 140.561 98.574 140.765Z" fill="white"/>
<path d="M9.97721 19.47L6.85437 22.9001L9.63978 26.6587L12.842 23.2089L9.97721 19.47Z" fill="#AF0F07"/>
<path d="M97.5683 126.841L94.4388 130.264L97.2243 134.029L100.426 130.573L97.5683 126.841Z" fill="#AF0F07"/>
<path d="M8.48853 16.5196C8.13787 16.3553 7.86659 16.1319 7.68134 15.8427C7.49609 15.5602 7.39685 15.2382 7.39685 14.8899C7.39685 14.4891 7.49611 14.1868 7.70783 13.97C7.91293 13.7597 8.15109 13.6546 8.42897 13.6546C8.66053 13.6546 8.83917 13.7269 8.9715 13.8649C9.10382 14.0029 9.16997 14.1803 9.16997 14.3905C9.16997 14.5351 9.13027 14.6665 9.04426 14.7914C8.95825 14.9162 8.84578 15.0082 8.71346 15.0674C8.59437 15.1265 8.50174 15.1856 8.42897 15.2448C8.36281 15.3039 8.32313 15.3828 8.32313 15.4879C8.32313 15.7573 8.42897 15.9742 8.64069 16.1253C8.85241 16.2764 9.21631 16.3553 9.73237 16.3553C10.3675 16.3553 10.824 16.0859 11.1085 15.5405C11.393 14.9951 11.5319 14.3117 11.5319 13.4772C11.5319 12.6952 11.393 12.0973 11.1217 11.6767C10.8505 11.2627 10.4006 11.0525 9.78527 11.0525C9.53386 11.0525 9.32216 11.0919 9.14352 11.1642C8.96489 11.2364 8.77962 11.3679 8.59437 11.5519C8.50836 11.6373 8.43558 11.749 8.38265 11.887C8.32972 12.025 8.29664 12.1498 8.29664 12.2484C8.29664 12.3404 8.27018 12.4192 8.22387 12.4784C8.17756 12.5375 8.11142 12.5704 8.03864 12.5704C7.8997 12.5704 7.83354 12.4652 7.83354 12.255V7.85893L8.11803 7.64209C8.29666 7.79322 8.56131 7.92464 8.90535 8.02321C9.24939 8.12178 9.57356 8.17434 9.87128 8.17434C10.2815 8.17434 10.652 8.13492 10.9894 8.06264C11.3202 7.98378 11.6642 7.84579 12.0149 7.64209L12.1671 7.81951C11.8561 8.22034 11.479 8.54232 11.0291 8.78545C10.5792 9.02858 10.1029 9.14686 9.60004 9.14686C9.28246 9.14686 9.03104 9.12714 8.84579 9.08772C8.66054 9.04829 8.47527 8.98258 8.29664 8.89059V11.3284L8.37603 11.3547C8.58113 11.1182 8.83254 10.9342 9.12365 10.8028C9.42138 10.6713 9.72573 10.6056 10.0433 10.6056C10.9431 10.6056 11.6378 10.8685 12.1406 11.3942C12.6434 11.9198 12.8882 12.6164 12.8882 13.4837C12.8882 14.1014 12.7427 14.6665 12.4582 15.1659C12.1737 15.6653 11.79 16.0596 11.307 16.3487C10.8307 16.6313 10.3014 16.7758 9.72575 16.7758C9.24938 16.7693 8.83919 16.6838 8.48853 16.5196Z" fill="#A43E32"/>
<path d="M98.9775 136.329C99.3281 136.494 99.5994 136.717 99.7847 137.006C99.9699 137.295 100.069 137.611 100.069 137.959C100.069 138.36 99.9699 138.662 99.7582 138.879C99.5531 139.089 99.3149 139.194 99.037 139.194C98.8055 139.194 98.6268 139.122 98.4945 138.984C98.3622 138.846 98.296 138.669 98.296 138.458C98.296 138.314 98.3357 138.182 98.4217 138.057C98.5077 137.933 98.6202 137.841 98.7525 137.781C98.8716 137.722 98.9643 137.663 99.037 137.604C99.1032 137.545 99.1429 137.466 99.1429 137.361C99.1429 137.091 99.037 136.875 98.8253 136.724C98.6136 136.572 98.2497 136.494 97.7337 136.494C97.0985 136.494 96.642 136.763 96.3575 137.308C96.073 137.854 95.9341 138.537 95.9341 139.372C95.9341 140.154 96.073 140.752 96.3443 141.172C96.6155 141.586 97.0654 141.796 97.6807 141.796C97.9321 141.796 98.1438 141.757 98.3225 141.691C98.5011 141.619 98.6864 141.488 98.8716 141.304C98.9576 141.218 99.0304 141.106 99.0834 140.968C99.1363 140.83 99.1694 140.706 99.1694 140.607C99.1694 140.515 99.1958 140.436 99.2421 140.377C99.2884 140.318 99.3546 140.285 99.4274 140.285C99.5663 140.285 99.6325 140.39 99.6325 140.6V144.996L99.348 145.213C99.1693 145.062 98.9047 144.931 98.5607 144.832C98.2167 144.734 97.8924 144.681 97.5947 144.681C97.1845 144.681 96.814 144.72 96.4766 144.793C96.1458 144.872 95.8018 145.01 95.4511 145.213L95.2989 145.036C95.6099 144.635 95.987 144.313 96.4369 144.077C96.8868 143.833 97.3631 143.715 97.866 143.715C98.1835 143.715 98.435 143.735 98.6202 143.774C98.8055 143.814 98.9907 143.879 99.1694 143.971V141.534L99.09 141.507C98.8849 141.744 98.6335 141.928 98.3423 142.059C98.0446 142.191 97.7403 142.256 97.4227 142.256C96.5229 142.256 95.8216 141.993 95.3254 141.468C94.8226 140.942 94.5778 140.246 94.5778 139.378C94.5778 138.761 94.7233 138.195 95.0078 137.696C95.2923 137.197 95.676 136.802 96.159 136.513C96.6354 136.231 97.1646 136.086 97.7403 136.086C98.21 136.08 98.6268 136.158 98.9775 136.329Z" fill="#A43E32"/>
<path d="M34.4436 15.4025L25.6508 26.0147L34.4436 36.7912L43.468 26.1001L34.4436 15.4025Z" fill="#AF0F07"/>
<path d="M34.4436 113.685L25.6508 124.298L34.4436 135.074L43.468 124.383L34.4436 113.685Z" fill="#AF0F07"/>
<path d="M72.943 15.4025L64.1501 26.0147L72.943 36.7912L81.9674 26.1001L72.943 15.4025Z" fill="#AF0F07"/>
<path d="M72.943 113.685L64.1501 124.298L72.943 135.074L81.9674 124.383L72.943 113.685Z" fill="#AF0F07"/>
<path d="M53.3393 64.5407L44.5465 75.1529L53.3393 85.936L62.3638 75.2384L53.3393 64.5407Z" fill="#AF0F07"/>
</svg>
