<svg width="110" height="153" viewBox="0 0 110 153" fill="none" xmlns="http://www.w3.org/2000/svg">
<path d="M106.07 153H3.92999C1.7599 153 0 151.252 0 149.097V3.9032C0 1.7479 1.7599 0 3.92999 0H106.07C108.24 0 110 1.7479 110 3.9032V149.097C109.993 151.252 108.24 153 106.07 153Z" fill="white"/>
<path d="M98.1968 12.439C98.4051 12.439 98.574 12.2713 98.574 12.0644C98.574 11.8576 98.4051 11.6899 98.1968 11.6899C97.9885 11.6899 97.8197 11.8576 97.8197 12.0644C97.8197 12.2713 97.9885 12.439 98.1968 12.439Z" fill="white"/>
<path d="M80.6376 12.0644C80.6376 12.2681 80.4721 12.439 80.2604 12.439C80.0553 12.439 79.8833 12.2747 79.8833 12.0644C79.8833 11.8607 80.0487 11.6899 80.2604 11.6899C80.4655 11.6899 80.6376 11.8607 80.6376 12.0644Z" fill="white"/>
<path d="M63.7598 12.439C63.9681 12.439 64.1369 12.2713 64.1369 12.0644C64.1369 11.8576 63.9681 11.6899 63.7598 11.6899C63.5515 11.6899 63.3827 11.8576 63.3827 12.0644C63.3827 12.2713 63.5515 12.439 63.7598 12.439Z" fill="white"/>
<path d="M47.57 12.1827C47.57 12.3864 47.4046 12.5573 47.1929 12.5573C46.9878 12.5573 46.8158 12.393 46.8158 12.1827C46.8158 11.979 46.9812 11.8082 47.1929 11.8082C47.4046 11.8147 47.57 11.979 47.57 12.1827Z" fill="white"/>
<path d="M98.1968 26.3302C98.4051 26.3302 98.574 26.1625 98.574 25.9556C98.574 25.7487 98.4051 25.5811 98.1968 25.5811C97.9885 25.5811 97.8197 25.7487 97.8197 25.9556C97.8197 26.1625 97.9885 26.3302 98.1968 26.3302Z" fill="white"/>
<path d="M98.1968 38.9991C98.4051 38.9991 98.574 38.8314 98.574 38.6245C98.574 38.4177 98.4051 38.25 98.1968 38.25C97.9885 38.25 97.8197 38.4177 97.8197 38.6245C97.8197 38.8314 97.9885 38.9991 98.1968 38.9991Z" fill="white"/>
<path d="M98.1968 52.2857C98.4051 52.2857 98.574 52.118 98.574 51.9112C98.574 51.7043 98.4051 51.5366 98.1968 51.5366C97.9885 51.5366 97.8197 51.7043 97.8197 51.9112C97.8197 52.118 97.9885 52.2857 98.1968 52.2857Z" fill="white"/>
<path d="M98.1968 60.6835C98.4051 60.6835 98.574 60.5158 98.574 60.3089C98.574 60.1021 98.4051 59.9344 98.1968 59.9344C97.9885 59.9344 97.8197 60.1021 97.8197 60.3089C97.8197 60.5158 97.9885 60.6835 98.1968 60.6835Z" fill="white"/>
<path d="M98.1968 69.1076C98.4051 69.1076 98.574 68.9399 98.574 68.7331C98.574 68.5262 98.4051 68.3585 98.1968 68.3585C97.9885 68.3585 97.8197 68.5262 97.8197 68.7331C97.8197 68.9399 97.9885 69.1076 98.1968 69.1076Z" fill="white"/>
<path d="M12.4185 12.4389C12.4185 12.6426 12.2531 12.8135 12.0414 12.8135C11.8363 12.8135 11.6643 12.6492 11.6643 12.4389C11.6643 12.2352 11.8297 12.0644 12.0414 12.0644C12.2531 12.0644 12.4185 12.2287 12.4185 12.4389Z" fill="white"/>
<path d="M30.1895 12.5573C30.3978 12.5573 30.5666 12.3896 30.5666 12.1827C30.5666 11.9759 30.3978 11.8082 30.1895 11.8082C29.9812 11.8082 29.8124 11.9759 29.8124 12.1827C29.8124 12.3896 29.9812 12.5573 30.1895 12.5573Z" fill="white"/>
<path d="M12.4185 25.6599C12.4185 25.8636 12.2531 26.0344 12.0414 26.0344C11.8363 26.0344 11.6643 25.8702 11.6643 25.6599C11.6643 25.4562 11.8297 25.2853 12.0414 25.2853C12.2531 25.2853 12.4185 25.4496 12.4185 25.6599Z" fill="white"/>
<path d="M12.4185 38.71C12.4185 38.9137 12.2531 39.0845 12.0414 39.0845C11.8363 39.0845 11.6643 38.9203 11.6643 38.71C11.6643 38.5063 11.8297 38.3354 12.0414 38.3354C12.2531 38.342 12.4185 38.5063 12.4185 38.71Z" fill="white"/>
<path d="M12.4185 51.8126C12.4185 52.0163 12.2531 52.1871 12.0414 52.1871C11.8363 52.1871 11.6643 52.0229 11.6643 51.8126C11.6643 51.6089 11.8297 51.438 12.0414 51.438C12.2531 51.4446 12.4185 51.6089 12.4185 51.8126Z" fill="white"/>
<path d="M12.4185 60.3089C12.4185 60.5126 12.2531 60.6835 12.0414 60.6835C11.8363 60.6835 11.6643 60.5192 11.6643 60.3089C11.6643 60.1052 11.8297 59.9344 12.0414 59.9344C12.2531 59.9344 12.4185 60.0987 12.4185 60.3089Z" fill="white"/>
<path d="M12.4185 69.1076C12.4185 69.3113 12.2531 69.4821 12.0414 69.4821C11.8363 69.4821 11.6643 69.3179 11.6643 69.1076C11.6643 68.9039 11.8297 68.733 12.0414 68.733C12.2531 68.733 12.4185 68.9039 12.4185 69.1076Z" fill="white"/>
<path d="M12.4185 77.6039C12.4185 77.8076 12.2531 77.9785 12.0414 77.9785C11.8363 77.9785 11.6643 77.8142 11.6643 77.6039C11.6643 77.4002 11.8297 77.2294 12.0414 77.2294C12.2531 77.2294 12.4185 77.3936 12.4185 77.6039Z" fill="white"/>
<path d="M12.4185 86.0937C12.4185 86.2974 12.2531 86.4683 12.0414 86.4683C11.8363 86.4683 11.6643 86.304 11.6643 86.0937C11.6643 85.89 11.8297 85.7192 12.0414 85.7192C12.2531 85.7192 12.4185 85.89 12.4185 86.0937Z" fill="white"/>
<path d="M12.4185 94.8923C12.4185 95.096 12.2531 95.2669 12.0414 95.2669C11.8363 95.2669 11.6643 95.1026 11.6643 94.8923C11.6643 94.6886 11.8297 94.5178 12.0414 94.5178C12.2531 94.5243 12.4185 94.6886 12.4185 94.8923Z" fill="white"/>
<path d="M12.4185 103.717C12.4185 103.921 12.2531 104.092 12.0414 104.092C11.8363 104.092 11.6643 103.928 11.6643 103.717C11.6643 103.514 11.8297 103.343 12.0414 103.343C12.2531 103.343 12.4185 103.507 12.4185 103.717Z" fill="white"/>
<path d="M12.4185 111.602C12.4185 111.806 12.2531 111.977 12.0414 111.977C11.8363 111.977 11.6643 111.813 11.6643 111.602C11.6643 111.399 11.8297 111.228 12.0414 111.228C12.2531 111.228 12.4185 111.392 12.4185 111.602Z" fill="white"/>
<path d="M12.4185 120.401C12.4185 120.605 12.2531 120.776 12.0414 120.776C11.8363 120.776 11.6643 120.611 11.6643 120.401C11.6643 120.197 11.8297 120.027 12.0414 120.027C12.2531 120.027 12.4185 120.197 12.4185 120.401Z" fill="white"/>
<path d="M12.4185 128.97C12.4185 129.173 12.2531 129.344 12.0414 129.344C11.8363 129.344 11.6643 129.18 11.6643 128.97C11.6643 128.766 11.8297 128.595 12.0414 128.595C12.2531 128.602 12.4185 128.766 12.4185 128.97Z" fill="white"/>
<path d="M12.5772 141.573C12.5772 141.777 12.4118 141.948 12.2001 141.948C11.995 141.948 11.823 141.783 11.823 141.573C11.823 141.363 11.9884 141.198 12.2001 141.198C12.4052 141.205 12.5772 141.369 12.5772 141.573Z" fill="white"/>
<path d="M26.1469 141.948C26.1469 142.151 25.9815 142.322 25.7698 142.322C25.5647 142.322 25.3927 142.158 25.3927 141.948C25.3927 141.737 25.5581 141.573 25.7698 141.573C25.9749 141.573 26.1469 141.744 26.1469 141.948Z" fill="white"/>
<path d="M43.2564 142.322C43.4647 142.322 43.6335 142.154 43.6335 141.948C43.6335 141.741 43.4647 141.573 43.2564 141.573C43.0481 141.573 42.8793 141.741 42.8793 141.948C42.8793 142.154 43.0481 142.322 43.2564 142.322Z" fill="white"/>
<path d="M61.0934 141.948C61.0934 142.151 60.928 142.322 60.7163 142.322C60.5112 142.322 60.3392 142.158 60.3392 141.948C60.3392 141.737 60.5046 141.573 60.7163 141.573C60.928 141.573 61.0934 141.744 61.0934 141.948Z" fill="white"/>
<path d="M78.1035 141.948C78.1035 142.151 77.9381 142.322 77.7264 142.322C77.5213 142.322 77.3492 142.158 77.3492 141.948C77.3492 141.737 77.5147 141.573 77.7264 141.573C77.9315 141.573 78.1035 141.744 78.1035 141.948Z" fill="white"/>
<path d="M98.1968 77.7682C98.4051 77.7682 98.574 77.6005 98.574 77.3937C98.574 77.1868 98.4051 77.0191 98.1968 77.0191C97.9885 77.0191 97.8197 77.1868 97.8197 77.3937C97.8197 77.6005 97.9885 77.7682 98.1968 77.7682Z" fill="white"/>
<path d="M98.1968 85.8703C98.4051 85.8703 98.574 85.7026 98.574 85.4958C98.574 85.2889 98.4051 85.1212 98.1968 85.1212C97.9885 85.1212 97.8197 85.2889 97.8197 85.4958C97.8197 85.7026 97.9885 85.8703 98.1968 85.8703Z" fill="white"/>
<path d="M98.1968 94.6032C98.4051 94.6032 98.574 94.4355 98.574 94.2287C98.574 94.0218 98.4051 93.8541 98.1968 93.8541C97.9885 93.8541 97.8197 94.0218 97.8197 94.2287C97.8197 94.4355 97.9885 94.6032 98.1968 94.6032Z" fill="white"/>
<path d="M98.1968 103.211C98.4051 103.211 98.574 103.044 98.574 102.837C98.574 102.63 98.4051 102.462 98.1968 102.462C97.9885 102.462 97.8197 102.63 97.8197 102.837C97.8197 103.044 97.9885 103.211 98.1968 103.211Z" fill="white"/>
<path d="M98.1968 111.589C98.4051 111.589 98.574 111.422 98.574 111.215C98.574 111.008 98.4051 110.84 98.1968 110.84C97.9885 110.84 97.8197 111.008 97.8197 111.215C97.8197 111.422 97.9885 111.589 98.1968 111.589Z" fill="white"/>
<path d="M98.1968 119.849C98.4051 119.849 98.574 119.681 98.574 119.475C98.574 119.268 98.4051 119.1 98.1968 119.1C97.9885 119.1 97.8197 119.268 97.8197 119.475C97.8197 119.681 97.9885 119.849 98.1968 119.849Z" fill="white"/>
<path d="M98.1968 128.286C98.4051 128.286 98.574 128.119 98.574 127.912C98.574 127.705 98.4051 127.537 98.1968 127.537C97.9885 127.537 97.8197 127.705 97.8197 127.912C97.8197 128.119 97.9885 128.286 98.1968 128.286Z" fill="white"/>
<path d="M98.1968 141.139C98.4051 141.139 98.574 140.972 98.574 140.765C98.574 140.558 98.4051 140.39 98.1968 140.39C97.9885 140.39 97.8197 140.558 97.8197 140.765C97.8197 140.972 97.9885 141.139 98.1968 141.139Z" fill="white"/>
<path d="M10.3278 18.5632L7.20496 21.9933L9.99037 25.7519L13.1926 22.3021L10.3278 18.5632Z" fill="#AF0F07"/>
<path d="M97.9519 126.841L94.8291 130.264L97.6079 134.029L100.817 130.573L97.9519 126.841Z" fill="#AF0F07"/>
<path d="M8.99791 16.2567C8.57448 15.915 8.2503 15.4288 8.01873 14.798C7.78717 14.1671 7.67468 13.4181 7.67468 12.5638C7.67468 11.8673 7.76733 11.1839 7.94597 10.5137C8.1246 9.84341 8.38924 9.28487 8.72667 8.84461C9.34858 8.04294 10.083 7.64868 10.9232 7.64868C11.5319 7.64868 12.0215 7.85238 12.3986 8.25979C12.5243 8.41092 12.6169 8.58177 12.6765 8.77233C12.7294 8.95632 12.7625 9.12716 12.7625 9.27173C12.7625 9.56742 12.6567 9.81055 12.4449 10.0011C12.2994 10.126 12.1274 10.1917 11.9157 10.1917C11.7172 10.1917 11.565 10.1128 11.4525 9.96169C11.4128 9.90255 11.3797 9.84998 11.3665 9.79741C11.3533 9.74484 11.3466 9.67913 11.3466 9.59371C11.3466 9.46886 11.3996 9.33744 11.512 9.21259C11.5914 9.12716 11.6708 9.05488 11.7568 8.99574C11.8362 8.94318 11.8892 8.89061 11.9157 8.83804C11.9487 8.78547 11.9619 8.71976 11.9619 8.64091C11.9619 8.48977 11.8759 8.35178 11.6973 8.24007C11.5187 8.1218 11.254 8.06923 10.8967 8.06923C10.5858 8.06923 10.2947 8.16122 10.0168 8.33864C9.7389 8.51606 9.50734 8.81175 9.31547 9.2323C9.16992 9.54771 9.05744 9.94197 8.98467 10.4151C8.90527 10.8948 8.8722 11.289 8.8722 11.611V12.1827L8.96484 12.2221C9.11701 11.9001 9.3552 11.6373 9.67939 11.427C9.99697 11.2168 10.3079 11.1182 10.6123 11.1182C11.1879 11.1182 11.6708 11.2562 12.0612 11.5387C12.392 11.7753 12.65 12.0973 12.8286 12.5047C13.0073 12.9055 13.0999 13.3392 13.0999 13.7992C13.0999 14.2591 13.0007 14.7191 12.7889 15.1791C12.5838 15.6456 12.2795 16.0268 11.8825 16.3356C11.4856 16.6444 11.0158 16.7956 10.4799 16.7956C9.91093 16.7693 9.42134 16.5984 8.99791 16.2567ZM11.5981 15.6193C11.8362 15.1265 11.9487 14.568 11.9487 13.9372C11.9487 13.2603 11.8495 12.6887 11.6444 12.2418C11.4393 11.7884 11.0952 11.565 10.6189 11.565C10.3211 11.565 10.0499 11.6636 9.81168 11.8607C9.5735 12.0578 9.38164 12.3338 9.24271 12.6952C9.10377 13.0566 9.03098 13.4706 9.03098 13.9372C9.03098 14.6403 9.14346 15.2251 9.36179 15.6785C9.58674 16.1319 9.95066 16.3619 10.4667 16.3619C10.9894 16.3619 11.3665 16.1122 11.5981 15.6193Z" fill="#A43E32"/>
<path d="M99.1694 136.586C99.5928 136.927 99.917 137.414 100.149 138.044C100.38 138.675 100.493 139.424 100.493 140.278C100.493 140.975 100.4 141.658 100.221 142.329C100.043 142.999 99.7781 143.557 99.4406 143.998C98.8187 144.799 98.0843 145.194 97.2441 145.194C96.6354 145.194 96.1458 144.99 95.7687 144.583C95.643 144.431 95.5503 144.261 95.4908 144.07C95.4379 143.886 95.4048 143.715 95.4048 143.571C95.4048 143.275 95.5107 143.032 95.7224 142.841C95.8679 142.716 96.0399 142.651 96.2517 142.651C96.4501 142.651 96.6023 142.729 96.7148 142.881C96.7545 142.94 96.7876 142.992 96.8008 143.045C96.814 143.097 96.8206 143.163 96.8206 143.249C96.8206 143.373 96.7677 143.505 96.6552 143.63C96.5758 143.715 96.4964 143.787 96.4104 143.847C96.331 143.899 96.2781 143.952 96.2517 144.004C96.2252 144.057 96.2053 144.123 96.2053 144.201C96.2053 144.353 96.2914 144.491 96.47 144.602C96.6486 144.721 96.9133 144.773 97.2705 144.773C97.5815 144.773 97.8726 144.681 98.1505 144.504C98.4284 144.326 98.6599 144.031 98.8518 143.61C98.9974 143.295 99.1098 142.9 99.1826 142.427C99.262 141.948 99.2951 141.553 99.2951 141.231V140.66L99.2025 140.62C99.0503 140.942 98.8121 141.205 98.4879 141.415C98.1703 141.626 97.8594 141.724 97.5551 141.724C96.9795 141.724 96.4965 141.586 96.1061 141.304C95.7753 141.067 95.5173 140.745 95.3386 140.344C95.16 139.943 95.0674 139.51 95.0674 139.05C95.0674 138.59 95.1666 138.13 95.3783 137.67C95.5834 137.203 95.8878 136.822 96.2847 136.513C96.6817 136.204 97.1514 136.053 97.6873 136.053C98.2563 136.08 98.7459 136.25 99.1694 136.586ZM96.5626 137.223C96.3245 137.716 96.212 138.274 96.212 138.905C96.212 139.582 96.3112 140.154 96.5229 140.6C96.728 141.054 97.0721 141.277 97.5484 141.277C97.8462 141.277 98.1174 141.179 98.3556 140.982C98.5938 140.784 98.7856 140.508 98.9246 140.147C99.0635 139.786 99.1363 139.372 99.1363 138.905C99.1363 138.202 99.0238 137.617 98.8055 137.164C98.5805 136.71 98.2167 136.48 97.7006 136.48C97.1779 136.487 96.8008 136.73 96.5626 137.223Z" fill="#A43E32"/>
<path d="M32.8623 15.4025L24.0695 26.0147L32.8623 36.7913L41.8867 26.1002L32.8623 15.4025Z" fill="#AF0F07"/>
<path d="M32.8623 113.685L24.0695 124.298L32.8623 135.074L41.8867 124.383L32.8623 113.685Z" fill="#AF0F07"/>
<path d="M32.8623 64.5407L24.0695 75.1529L32.8623 85.936L41.8867 75.2384L32.8623 64.5407Z" fill="#AF0F07"/>
<path d="M75.6423 15.4025L66.8495 26.0147L75.6423 36.7913L84.6668 26.1002L75.6423 15.4025Z" fill="#AF0F07"/>
<path d="M75.6423 113.685L66.8495 124.298L75.6423 135.074L84.6668 124.383L75.6423 113.685Z" fill="#AF0F07"/>
<path d="M75.6423 64.5407L66.8495 75.1529L75.6423 85.936L84.6668 75.2384L75.6423 64.5407Z" fill="#AF0F07"/>
</svg>
