<svg width="110" height="153" viewBox="0 0 110 153" fill="none" xmlns="http://www.w3.org/2000/svg">
<path d="M106.07 153H3.92999C1.7599 153 0 151.252 0 149.097V3.9032C0 1.7479 1.7599 0 3.92999 0H106.07C108.24 0 110 1.7479 110 3.9032V149.097C110 151.252 108.24 153 106.07 153Z" fill="white"/>
<path d="M98.574 12.0644C98.574 12.2681 98.4085 12.439 98.1968 12.439C97.9851 12.439 97.8197 12.2747 97.8197 12.0644C97.8197 11.8607 97.9851 11.6899 98.1968 11.6899C98.4085 11.6899 98.574 11.8607 98.574 12.0644Z" fill="white"/>
<path d="M80.2604 12.439C80.4687 12.439 80.6375 12.2713 80.6375 12.0644C80.6375 11.8576 80.4687 11.6899 80.2604 11.6899C80.0521 11.6899 79.8833 11.8576 79.8833 12.0644C79.8833 12.2713 80.0521 12.439 80.2604 12.439Z" fill="white"/>
<path d="M64.1369 12.0644C64.1369 12.2681 63.9715 12.439 63.7598 12.439C63.5547 12.439 63.3827 12.2747 63.3827 12.0644C63.3827 11.8607 63.5481 11.6899 63.7598 11.6899C63.9715 11.6899 64.1369 11.8607 64.1369 12.0644Z" fill="white"/>
<path d="M47.5768 12.1827C47.5768 12.3864 47.4114 12.5573 47.1996 12.5573C46.9945 12.5573 46.8225 12.393 46.8225 12.1827C46.8225 11.979 46.9879 11.8082 47.1996 11.8082C47.4047 11.8147 47.5768 11.979 47.5768 12.1827Z" fill="white"/>
<path d="M98.574 25.9556C98.574 26.1593 98.4085 26.3302 98.1968 26.3302C97.9851 26.3302 97.8197 26.1659 97.8197 25.9556C97.8197 25.7519 97.9851 25.5811 98.1968 25.5811C98.4085 25.5811 98.574 25.7453 98.574 25.9556Z" fill="white"/>
<path d="M98.574 38.6245C98.574 38.8283 98.4085 38.9991 98.1968 38.9991C97.9851 38.9991 97.8197 38.8348 97.8197 38.6245C97.8197 38.4208 97.9851 38.25 98.1968 38.25C98.4085 38.25 98.574 38.4208 98.574 38.6245Z" fill="white"/>
<path d="M98.574 51.9112C98.574 52.1149 98.4085 52.2857 98.1968 52.2857C97.9851 52.2857 97.8197 52.1214 97.8197 51.9112C97.8197 51.7075 97.9851 51.5366 98.1968 51.5366C98.4085 51.5366 98.574 51.7009 98.574 51.9112Z" fill="white"/>
<path d="M98.574 60.3089C98.574 60.5126 98.4085 60.6835 98.1968 60.6835C97.9851 60.6835 97.8197 60.5192 97.8197 60.3089C97.8197 60.1052 97.9851 59.9344 98.1968 59.9344C98.4085 59.9344 98.574 60.0987 98.574 60.3089Z" fill="white"/>
<path d="M98.574 68.7331C98.574 68.9368 98.4085 69.1076 98.1968 69.1076C97.9851 69.1076 97.8197 68.9433 97.8197 68.7331C97.8197 68.5294 97.9851 68.3585 98.1968 68.3585C98.4085 68.3585 98.574 68.5294 98.574 68.7331Z" fill="white"/>
<path d="M12.0479 12.8136C12.2562 12.8136 12.425 12.6459 12.425 12.439C12.425 12.2321 12.2562 12.0645 12.0479 12.0645C11.8396 12.0645 11.6708 12.2321 11.6708 12.439C11.6708 12.6459 11.8396 12.8136 12.0479 12.8136Z" fill="white"/>
<path d="M30.5666 12.1827C30.5666 12.3864 30.4012 12.5573 30.1895 12.5573C29.9844 12.5573 29.8124 12.393 29.8124 12.1827C29.8124 11.979 29.9777 11.8082 30.1895 11.8082C30.4012 11.8147 30.5666 11.979 30.5666 12.1827Z" fill="white"/>
<path d="M12.0479 26.0344C12.2562 26.0344 12.425 25.8667 12.425 25.6599C12.425 25.453 12.2562 25.2853 12.0479 25.2853C11.8396 25.2853 11.6708 25.453 11.6708 25.6599C11.6708 25.8667 11.8396 26.0344 12.0479 26.0344Z" fill="white"/>
<path d="M12.0479 39.0845C12.2562 39.0845 12.425 38.9169 12.425 38.71C12.425 38.5031 12.2562 38.3354 12.0479 38.3354C11.8396 38.3354 11.6708 38.5031 11.6708 38.71C11.6708 38.9169 11.8396 39.0845 12.0479 39.0845Z" fill="white"/>
<path d="M12.0479 52.1871C12.2562 52.1871 12.425 52.0195 12.425 51.8126C12.425 51.6057 12.2562 51.438 12.0479 51.438C11.8396 51.438 11.6708 51.6057 11.6708 51.8126C11.6708 52.0195 11.8396 52.1871 12.0479 52.1871Z" fill="white"/>
<path d="M12.0479 60.6835C12.2562 60.6835 12.425 60.5158 12.425 60.3089C12.425 60.1021 12.2562 59.9344 12.0479 59.9344C11.8396 59.9344 11.6708 60.1021 11.6708 60.3089C11.6708 60.5158 11.8396 60.6835 12.0479 60.6835Z" fill="white"/>
<path d="M12.0479 69.4821C12.2562 69.4821 12.425 69.3144 12.425 69.1076C12.425 68.9007 12.2562 68.733 12.0479 68.733C11.8396 68.733 11.6708 68.9007 11.6708 69.1076C11.6708 69.3144 11.8396 69.4821 12.0479 69.4821Z" fill="white"/>
<path d="M12.0479 77.9785C12.2562 77.9785 12.425 77.8108 12.425 77.6039C12.425 77.3971 12.2562 77.2294 12.0479 77.2294C11.8396 77.2294 11.6708 77.3971 11.6708 77.6039C11.6708 77.8108 11.8396 77.9785 12.0479 77.9785Z" fill="white"/>
<path d="M12.0479 86.4683C12.2562 86.4683 12.425 86.3006 12.425 86.0937C12.425 85.8869 12.2562 85.7192 12.0479 85.7192C11.8396 85.7192 11.6708 85.8869 11.6708 86.0937C11.6708 86.3006 11.8396 86.4683 12.0479 86.4683Z" fill="white"/>
<path d="M12.0479 95.2669C12.2562 95.2669 12.425 95.0992 12.425 94.8923C12.425 94.6855 12.2562 94.5178 12.0479 94.5178C11.8396 94.5178 11.6708 94.6855 11.6708 94.8923C11.6708 95.0992 11.8396 95.2669 12.0479 95.2669Z" fill="white"/>
<path d="M12.0479 104.092C12.2562 104.092 12.425 103.924 12.425 103.717C12.425 103.51 12.2562 103.343 12.0479 103.343C11.8396 103.343 11.6708 103.51 11.6708 103.717C11.6708 103.924 11.8396 104.092 12.0479 104.092Z" fill="white"/>
<path d="M12.0479 111.977C12.2562 111.977 12.425 111.809 12.425 111.602C12.425 111.396 12.2562 111.228 12.0479 111.228C11.8396 111.228 11.6708 111.396 11.6708 111.602C11.6708 111.809 11.8396 111.977 12.0479 111.977Z" fill="white"/>
<path d="M12.425 120.401C12.425 120.605 12.2596 120.776 12.0479 120.776C11.8428 120.776 11.6708 120.611 11.6708 120.401C11.6708 120.197 11.8362 120.027 12.0479 120.027C12.2596 120.027 12.425 120.197 12.425 120.401Z" fill="white"/>
<path d="M12.0479 129.344C12.2562 129.344 12.425 129.177 12.425 128.97C12.425 128.763 12.2562 128.595 12.0479 128.595C11.8396 128.595 11.6708 128.763 11.6708 128.97C11.6708 129.177 11.8396 129.344 12.0479 129.344Z" fill="white"/>
<path d="M12.2001 141.948C12.4084 141.948 12.5772 141.78 12.5772 141.573C12.5772 141.366 12.4084 141.198 12.2001 141.198C11.9918 141.198 11.823 141.366 11.823 141.573C11.823 141.78 11.9918 141.948 12.2001 141.948Z" fill="white"/>
<path d="M26.1535 141.948C26.1535 142.151 25.9881 142.322 25.7764 142.322C25.5713 142.322 25.3993 142.158 25.3993 141.948C25.3993 141.737 25.5647 141.573 25.7764 141.573C25.9815 141.573 26.1535 141.744 26.1535 141.948Z" fill="white"/>
<path d="M43.6401 141.948C43.6401 142.151 43.4747 142.322 43.263 142.322C43.0579 142.322 42.8859 142.158 42.8859 141.948C42.8859 141.737 43.0513 141.573 43.263 141.573C43.4681 141.573 43.6401 141.744 43.6401 141.948Z" fill="white"/>
<path d="M61.1001 141.948C61.1001 142.151 60.9347 142.322 60.723 142.322C60.5178 142.322 60.3458 142.158 60.3458 141.948C60.3458 141.737 60.5112 141.573 60.723 141.573C60.9281 141.573 61.1001 141.744 61.1001 141.948Z" fill="white"/>
<path d="M77.7264 142.322C77.9346 142.322 78.1035 142.154 78.1035 141.948C78.1035 141.741 77.9346 141.573 77.7264 141.573C77.5181 141.573 77.3492 141.741 77.3492 141.948C77.3492 142.154 77.5181 142.322 77.7264 142.322Z" fill="white"/>
<path d="M98.574 77.3937C98.574 77.5974 98.4085 77.7682 98.1968 77.7682C97.9851 77.7682 97.8197 77.6039 97.8197 77.3937C97.8197 77.19 97.9851 77.0191 98.1968 77.0191C98.4085 77.0191 98.574 77.19 98.574 77.3937Z" fill="white"/>
<path d="M98.574 85.4958C98.574 85.6995 98.4085 85.8703 98.1968 85.8703C97.9851 85.8703 97.8197 85.706 97.8197 85.4958C97.8197 85.2921 97.9851 85.1212 98.1968 85.1212C98.4085 85.1212 98.574 85.2855 98.574 85.4958Z" fill="white"/>
<path d="M98.574 94.2287C98.574 94.4324 98.4085 94.6032 98.1968 94.6032C97.9851 94.6032 97.8197 94.4389 97.8197 94.2287C97.8197 94.0184 97.9851 93.8541 98.1968 93.8541C98.4085 93.8541 98.574 94.0184 98.574 94.2287Z" fill="white"/>
<path d="M98.574 102.837C98.574 103.04 98.4085 103.211 98.1968 103.211C97.9851 103.211 97.8197 103.047 97.8197 102.837C97.8197 102.633 97.9851 102.462 98.1968 102.462C98.4085 102.462 98.574 102.626 98.574 102.837Z" fill="white"/>
<path d="M98.574 111.215C98.574 111.418 98.4085 111.589 98.1968 111.589C97.9851 111.589 97.8197 111.425 97.8197 111.215C97.8197 111.011 97.9851 110.84 98.1968 110.84C98.4085 110.84 98.574 111.005 98.574 111.215Z" fill="white"/>
<path d="M98.574 119.475C98.574 119.678 98.4085 119.849 98.1968 119.849C97.9851 119.849 97.8197 119.685 97.8197 119.475C97.8197 119.271 97.9851 119.1 98.1968 119.1C98.4085 119.1 98.574 119.271 98.574 119.475Z" fill="white"/>
<path d="M98.574 127.912C98.574 128.115 98.4085 128.286 98.1968 128.286C97.9851 128.286 97.8197 128.122 97.8197 127.912C97.8197 127.702 97.9851 127.537 98.1968 127.537C98.4085 127.537 98.574 127.702 98.574 127.912Z" fill="white"/>
<path d="M98.574 140.765C98.574 140.968 98.4085 141.139 98.1968 141.139C97.9851 141.139 97.8197 140.975 97.8197 140.765C97.8197 140.561 97.9851 140.39 98.1968 140.39C98.4085 140.39 98.574 140.561 98.574 140.765Z" fill="white"/>
<path d="M10.6851 18.5632L7.56226 21.9933L10.3476 25.7519L13.5499 22.3022L10.6851 18.5632Z" fill="#AF0F07"/>
<path d="M98.2629 126.841L95.1401 130.264L97.9189 134.029L101.121 130.573L98.2629 126.841Z" fill="#AF0F07"/>
<path d="M9.89107 16.4342C9.70582 16.2108 9.6132 15.9151 9.6132 15.5405C9.6132 15.028 9.73892 14.5089 9.99033 13.9635C10.2417 13.4247 10.5659 12.8727 10.9563 12.3141L11.9818 10.8488C12.167 10.586 12.3258 10.3034 12.4515 10.0011C12.5772 9.69888 12.6368 9.43604 12.6368 9.21919C12.6368 9.09434 12.6037 9.00235 12.5375 8.95635C12.4714 8.91035 12.3722 8.88407 12.2332 8.88407H9.58013C9.23609 8.88407 8.99789 8.95635 8.85233 9.10748C8.71339 9.25862 8.61419 9.46889 8.56126 9.7383L8.42231 10.4874H8.13782L8.31643 7.8327H13.2455C13.2455 8.27296 13.1793 8.77893 13.047 9.35061C12.9147 9.92229 12.6897 10.4414 12.3721 10.9079L11.6377 12.0053C11.2871 12.5179 11.1085 13.0698 11.1085 13.6612C11.1085 14.0292 11.1349 14.3446 11.1879 14.614L11.2672 15.0608C11.3334 15.4025 11.3731 15.6982 11.3731 15.9545C11.3731 16.4933 11.1217 16.7562 10.6189 16.7562C10.3211 16.7693 10.0763 16.6576 9.89107 16.4342Z" fill="#A43E32"/>
<path d="M98.9842 136.408C99.1694 136.632 99.262 136.927 99.262 137.302C99.262 137.814 99.1363 138.334 98.8849 138.879C98.6335 139.418 98.3093 139.97 97.919 140.528L96.8934 141.994C96.7082 142.256 96.5494 142.539 96.4237 142.841C96.298 143.144 96.2384 143.406 96.2384 143.623C96.2384 143.748 96.2715 143.84 96.3377 143.886C96.4039 143.932 96.5031 143.958 96.642 143.958H99.2951C99.6391 143.958 99.8773 143.886 100.023 143.735C100.162 143.584 100.261 143.373 100.314 143.104L100.453 142.355H100.737L100.559 145.01H95.6298C95.6298 144.569 95.6959 144.063 95.8282 143.492C95.9606 142.92 96.1855 142.401 96.5031 141.934L97.2375 140.837C97.5881 140.325 97.7601 139.773 97.7601 139.181C97.7601 138.813 97.7337 138.498 97.6807 138.228L97.6014 137.782C97.5352 137.44 97.5021 137.144 97.5021 136.888C97.5021 136.349 97.7535 136.086 98.2564 136.086C98.5541 136.08 98.7989 136.191 98.9842 136.408Z" fill="#A43E32"/>
<path d="M33.1732 15.4025L24.3804 26.0147L33.1732 36.7913L42.1976 26.1002L33.1732 15.4025Z" fill="#AF0F07"/>
<path d="M54.5634 36.719L45.7705 47.3312L54.5634 58.1077L63.5878 47.4166L54.5634 36.719Z" fill="#AF0F07"/>
<path d="M33.1732 113.686L24.3804 124.298L33.1732 135.074L42.1976 124.383L33.1732 113.686Z" fill="#AF0F07"/>
<path d="M33.1732 64.5408L24.3804 75.153L33.1732 85.9361L42.1976 75.2384L33.1732 64.5408Z" fill="#AF0F07"/>
<path d="M75.9534 15.4025L67.1539 26.0147L75.9534 36.7913L84.9778 26.1002L75.9534 15.4025Z" fill="#AF0F07"/>
<path d="M75.9534 113.686L67.1539 124.298L75.9534 135.074L84.9778 124.383L75.9534 113.686Z" fill="#AF0F07"/>
<path d="M75.9534 64.5408L67.1539 75.153L75.9534 85.9361L84.9778 75.2384L75.9534 64.5408Z" fill="#AF0F07"/>
</svg>
