<svg width="110" height="153" viewBox="0 0 110 153" fill="none" xmlns="http://www.w3.org/2000/svg">
<path d="M106.07 153H3.92999C1.7599 153 0 151.252 0 149.097V3.9032C0 1.7479 1.7599 0 3.92999 0H106.07C108.24 0 110 1.7479 110 3.9032V149.097C110 151.252 108.24 153 106.07 153Z" fill="white"/>
<path d="M98.5738 12.0644C98.5738 12.2681 98.4085 12.439 98.1967 12.439C97.9916 12.439 97.8196 12.2747 97.8196 12.0644C97.8196 11.8607 97.985 11.6899 98.1967 11.6899C98.4085 11.6899 98.5738 11.8607 98.5738 12.0644Z" fill="white"/>
<path d="M80.2605 12.439C80.4687 12.439 80.6376 12.2713 80.6376 12.0644C80.6376 11.8576 80.4687 11.6899 80.2605 11.6899C80.0522 11.6899 79.8833 11.8576 79.8833 12.0644C79.8833 12.2713 80.0522 12.439 80.2605 12.439Z" fill="white"/>
<path d="M64.1369 12.0644C64.1369 12.2681 63.9715 12.439 63.7598 12.439C63.5547 12.439 63.3827 12.2747 63.3827 12.0644C63.3827 11.8607 63.5481 11.6899 63.7598 11.6899C63.9715 11.6899 64.1369 11.8607 64.1369 12.0644Z" fill="white"/>
<path d="M47.1996 12.5573C47.4079 12.5573 47.5768 12.3896 47.5768 12.1827C47.5768 11.9759 47.4079 11.8082 47.1996 11.8082C46.9914 11.8082 46.8225 11.9759 46.8225 12.1827C46.8225 12.3896 46.9914 12.5573 47.1996 12.5573Z" fill="white"/>
<path d="M98.5738 25.9556C98.5738 26.1593 98.4085 26.3302 98.1967 26.3302C97.9916 26.3302 97.8196 26.1659 97.8196 25.9556C97.8196 25.7519 97.985 25.5811 98.1967 25.5811C98.4085 25.5811 98.5738 25.7453 98.5738 25.9556Z" fill="white"/>
<path d="M98.5738 38.6245C98.5738 38.8283 98.4085 38.9991 98.1967 38.9991C97.9916 38.9991 97.8196 38.8348 97.8196 38.6245C97.8196 38.4208 97.985 38.25 98.1967 38.25C98.4085 38.2566 98.5738 38.4208 98.5738 38.6245Z" fill="white"/>
<path d="M98.5738 51.9112C98.5738 52.1149 98.4085 52.2857 98.1967 52.2857C97.9916 52.2857 97.8196 52.1214 97.8196 51.9112C97.8196 51.7075 97.985 51.5366 98.1967 51.5366C98.4085 51.5366 98.5738 51.7009 98.5738 51.9112Z" fill="white"/>
<path d="M98.5738 60.3089C98.5738 60.5126 98.4085 60.6835 98.1967 60.6835C97.9916 60.6835 97.8196 60.5192 97.8196 60.3089C97.8196 60.1052 97.985 59.9344 98.1967 59.9344C98.4085 59.9344 98.5738 60.0987 98.5738 60.3089Z" fill="white"/>
<path d="M98.5738 68.7331C98.5738 68.9368 98.4085 69.1076 98.1967 69.1076C97.9916 69.1076 97.8196 68.9433 97.8196 68.7331C97.8196 68.5294 97.985 68.3585 98.1967 68.3585C98.4085 68.3585 98.5738 68.5294 98.5738 68.7331Z" fill="white"/>
<path d="M12.048 12.8136C12.2563 12.8136 12.4251 12.6459 12.4251 12.439C12.4251 12.2321 12.2563 12.0645 12.048 12.0645C11.8397 12.0645 11.6709 12.2321 11.6709 12.439C11.6709 12.6459 11.8397 12.8136 12.048 12.8136Z" fill="white"/>
<path d="M30.1894 12.5573C30.3977 12.5573 30.5665 12.3896 30.5665 12.1827C30.5665 11.9759 30.3977 11.8082 30.1894 11.8082C29.9811 11.8082 29.8123 11.9759 29.8123 12.1827C29.8123 12.3896 29.9811 12.5573 30.1894 12.5573Z" fill="white"/>
<path d="M12.048 26.0344C12.2563 26.0344 12.4251 25.8667 12.4251 25.6599C12.4251 25.453 12.2563 25.2853 12.048 25.2853C11.8397 25.2853 11.6709 25.453 11.6709 25.6599C11.6709 25.8667 11.8397 26.0344 12.048 26.0344Z" fill="white"/>
<path d="M12.048 39.0845C12.2563 39.0845 12.4251 38.9169 12.4251 38.71C12.4251 38.5031 12.2563 38.3354 12.048 38.3354C11.8397 38.3354 11.6709 38.5031 11.6709 38.71C11.6709 38.9169 11.8397 39.0845 12.048 39.0845Z" fill="white"/>
<path d="M12.048 52.1871C12.2563 52.1871 12.4251 52.0195 12.4251 51.8126C12.4251 51.6057 12.2563 51.438 12.048 51.438C11.8397 51.438 11.6709 51.6057 11.6709 51.8126C11.6709 52.0195 11.8397 52.1871 12.048 52.1871Z" fill="white"/>
<path d="M12.048 60.6835C12.2563 60.6835 12.4251 60.5158 12.4251 60.3089C12.4251 60.1021 12.2563 59.9344 12.048 59.9344C11.8397 59.9344 11.6709 60.1021 11.6709 60.3089C11.6709 60.5158 11.8397 60.6835 12.048 60.6835Z" fill="white"/>
<path d="M12.048 69.4821C12.2563 69.4821 12.4251 69.3144 12.4251 69.1076C12.4251 68.9007 12.2563 68.733 12.048 68.733C11.8397 68.733 11.6709 68.9007 11.6709 69.1076C11.6709 69.3144 11.8397 69.4821 12.048 69.4821Z" fill="white"/>
<path d="M12.048 77.9785C12.2563 77.9785 12.4251 77.8108 12.4251 77.6039C12.4251 77.3971 12.2563 77.2294 12.048 77.2294C11.8397 77.2294 11.6709 77.3971 11.6709 77.6039C11.6709 77.8108 11.8397 77.9785 12.048 77.9785Z" fill="white"/>
<path d="M12.048 86.4683C12.2563 86.4683 12.4251 86.3006 12.4251 86.0937C12.4251 85.8869 12.2563 85.7192 12.048 85.7192C11.8397 85.7192 11.6709 85.8869 11.6709 86.0937C11.6709 86.3006 11.8397 86.4683 12.048 86.4683Z" fill="white"/>
<path d="M12.048 95.2669C12.2563 95.2669 12.4251 95.0992 12.4251 94.8923C12.4251 94.6855 12.2563 94.5178 12.048 94.5178C11.8397 94.5178 11.6709 94.6855 11.6709 94.8923C11.6709 95.0992 11.8397 95.2669 12.048 95.2669Z" fill="white"/>
<path d="M12.048 104.092C12.2563 104.092 12.4251 103.924 12.4251 103.717C12.4251 103.51 12.2563 103.343 12.048 103.343C11.8397 103.343 11.6709 103.51 11.6709 103.717C11.6709 103.924 11.8397 104.092 12.048 104.092Z" fill="white"/>
<path d="M12.048 111.977C12.2563 111.977 12.4251 111.809 12.4251 111.602C12.4251 111.396 12.2563 111.228 12.048 111.228C11.8397 111.228 11.6709 111.396 11.6709 111.602C11.6709 111.809 11.8397 111.977 12.048 111.977Z" fill="white"/>
<path d="M12.4251 120.401C12.4251 120.605 12.2597 120.776 12.048 120.776C11.8429 120.776 11.6709 120.611 11.6709 120.401C11.6709 120.197 11.8363 120.027 12.048 120.027C12.2531 120.027 12.4251 120.197 12.4251 120.401Z" fill="white"/>
<path d="M12.048 129.344C12.2563 129.344 12.4251 129.177 12.4251 128.97C12.4251 128.763 12.2563 128.595 12.048 128.595C11.8397 128.595 11.6709 128.763 11.6709 128.97C11.6709 129.177 11.8397 129.344 12.048 129.344Z" fill="white"/>
<path d="M12.2001 141.948C12.4084 141.948 12.5772 141.78 12.5772 141.573C12.5772 141.366 12.4084 141.198 12.2001 141.198C11.9918 141.198 11.823 141.366 11.823 141.573C11.823 141.78 11.9918 141.948 12.2001 141.948Z" fill="white"/>
<path d="M25.7699 142.322C25.9782 142.322 26.1471 142.154 26.1471 141.948C26.1471 141.741 25.9782 141.573 25.7699 141.573C25.5617 141.573 25.3928 141.741 25.3928 141.948C25.3928 142.154 25.5617 142.322 25.7699 142.322Z" fill="white"/>
<path d="M43.263 142.322C43.4713 142.322 43.6401 142.154 43.6401 141.948C43.6401 141.741 43.4713 141.573 43.263 141.573C43.0547 141.573 42.8859 141.741 42.8859 141.948C42.8859 142.154 43.0547 142.322 43.263 142.322Z" fill="white"/>
<path d="M60.7164 142.322C60.9247 142.322 61.0935 142.154 61.0935 141.948C61.0935 141.741 60.9247 141.573 60.7164 141.573C60.5082 141.573 60.3394 141.741 60.3394 141.948C60.3394 142.154 60.5082 142.322 60.7164 142.322Z" fill="white"/>
<path d="M77.7264 142.322C77.9347 142.322 78.1036 142.154 78.1036 141.948C78.1036 141.741 77.9347 141.573 77.7264 141.573C77.5182 141.573 77.3494 141.741 77.3494 141.948C77.3494 142.154 77.5182 142.322 77.7264 142.322Z" fill="white"/>
<path d="M98.5738 77.3937C98.5738 77.5974 98.4085 77.7682 98.1967 77.7682C97.9916 77.7682 97.8196 77.6039 97.8196 77.3937C97.8196 77.19 97.985 77.0191 98.1967 77.0191C98.4085 77.0191 98.5738 77.19 98.5738 77.3937Z" fill="white"/>
<path d="M98.5738 85.4958C98.5738 85.6995 98.4085 85.8703 98.1967 85.8703C97.9916 85.8703 97.8196 85.706 97.8196 85.4958C97.8196 85.2921 97.985 85.1212 98.1967 85.1212C98.4085 85.1212 98.5738 85.2855 98.5738 85.4958Z" fill="white"/>
<path d="M98.5738 94.2287C98.5738 94.4324 98.4085 94.6032 98.1967 94.6032C97.9916 94.6032 97.8196 94.4389 97.8196 94.2287C97.8196 94.0184 97.985 93.8541 98.1967 93.8541C98.4085 93.8541 98.5738 94.0184 98.5738 94.2287Z" fill="white"/>
<path d="M98.5738 102.837C98.5738 103.04 98.4085 103.211 98.1967 103.211C97.9916 103.211 97.8196 103.047 97.8196 102.837C97.8196 102.633 97.985 102.462 98.1967 102.462C98.4085 102.462 98.5738 102.626 98.5738 102.837Z" fill="white"/>
<path d="M98.5738 111.215C98.5738 111.418 98.4085 111.589 98.1967 111.589C97.9916 111.589 97.8196 111.425 97.8196 111.215C97.8196 111.011 97.985 110.84 98.1967 110.84C98.4085 110.84 98.5738 111.005 98.5738 111.215Z" fill="white"/>
<path d="M98.5738 119.475C98.5738 119.678 98.4085 119.849 98.1967 119.849C97.9916 119.849 97.8196 119.685 97.8196 119.475C97.8196 119.271 97.985 119.1 98.1967 119.1C98.4085 119.1 98.5738 119.271 98.5738 119.475Z" fill="white"/>
<path d="M98.5738 127.912C98.5738 128.115 98.4085 128.286 98.1967 128.286C97.9916 128.286 97.8196 128.122 97.8196 127.912C97.8196 127.702 97.985 127.537 98.1967 127.537C98.4085 127.537 98.5738 127.702 98.5738 127.912Z" fill="white"/>
<path d="M98.5738 140.765C98.5738 140.968 98.4085 141.139 98.1967 141.139C97.9916 141.139 97.8196 140.975 97.8196 140.765C97.8196 140.561 97.985 140.39 98.1967 140.39C98.4085 140.39 98.5738 140.561 98.5738 140.765Z" fill="white"/>
<path d="M11.0357 18.5632L7.90625 21.9933L10.6917 25.7519L13.8939 22.3021L11.0357 18.5632Z" fill="#AF0F07"/>
<path d="M98.8253 126.841L95.7025 130.264L98.4879 134.029L101.69 130.573L98.8253 126.841Z" fill="#AF0F07"/>
<path d="M9.54711 16.4736C9.11706 16.2765 8.7664 15.9939 8.50837 15.6325C8.24373 15.2645 8.11804 14.8374 8.11804 14.3446C8.11804 13.7269 8.29667 13.2407 8.64733 12.8924C8.99798 12.5441 9.36849 12.3141 9.76546 12.2024V12.1499L9.6265 12.0842C9.16999 11.9002 8.82598 11.6242 8.5878 11.2562C8.34962 10.8882 8.23051 10.4677 8.23051 9.98142C8.23051 9.54116 8.36944 9.14033 8.6407 8.77892C8.91196 8.41751 9.26927 8.13496 9.70593 7.93783C10.1426 7.7407 10.5925 7.63556 11.0689 7.63556C11.6511 7.63556 12.1473 7.7407 12.5509 7.95097C12.9545 8.16124 13.2654 8.43065 13.4705 8.76578C13.6756 9.1009 13.7815 9.45574 13.7815 9.83029C13.7815 10.2903 13.6359 10.6845 13.3382 11.0196C13.0405 11.3548 12.6964 11.611 12.3061 11.7885V11.841L12.6038 11.9593C13.616 12.3667 14.1189 13.0107 14.1189 13.8846C14.1189 14.4103 13.9998 14.8966 13.755 15.3302C13.5102 15.7705 13.1529 16.1188 12.6766 16.375C12.2002 16.6313 11.6378 16.7627 10.9762 16.7627C10.4469 16.7693 9.97716 16.6707 9.54711 16.4736ZM12.2465 16.0662C12.5442 15.8691 12.7626 15.6325 12.8949 15.3565C13.0272 15.0805 13.0934 14.8177 13.0934 14.5746C13.0934 14.1015 12.9875 13.7466 12.7758 13.5166C12.5641 13.2866 12.2598 13.0895 11.8562 12.9318L10.1227 12.3076C9.77206 12.4521 9.5008 12.6821 9.30232 12.9975C9.10383 13.3129 9.00458 13.7729 9.00458 14.3774C9.00458 15.0543 9.20968 15.5602 9.6265 15.8822C10.0433 16.2042 10.5263 16.3685 11.0821 16.3685C11.565 16.3619 11.9488 16.2633 12.2465 16.0662ZM12.7096 10.9539C12.8618 10.6582 12.9412 10.31 12.9412 9.90914C12.9412 9.56087 12.8552 9.24546 12.6832 8.95634C12.5112 8.67378 12.2862 8.45037 11.9951 8.28609C11.7106 8.12182 11.393 8.04296 11.049 8.04296C10.5197 8.04296 10.0698 8.1941 9.70593 8.48979C9.34204 8.78549 9.1634 9.18632 9.1634 9.67915C9.1634 10.034 9.24939 10.3231 9.42803 10.5334C9.60666 10.7437 9.87792 10.9276 10.255 11.0788L11.9091 11.703C12.2928 11.5059 12.5575 11.2496 12.7096 10.9539Z" fill="#A43E32"/>
<path d="M100.03 136.369C100.46 136.566 100.81 136.848 101.068 137.21C101.333 137.578 101.459 138.005 101.459 138.498C101.459 139.115 101.28 139.602 100.929 139.95C100.579 140.298 100.208 140.528 99.8112 140.64V140.692L99.9502 140.758C100.407 140.942 100.751 141.218 100.989 141.586C101.227 141.954 101.346 142.375 101.346 142.861C101.346 143.301 101.207 143.702 100.936 144.063C100.665 144.425 100.307 144.707 99.8708 144.904C99.4341 145.102 98.9842 145.207 98.5078 145.207C97.9256 145.207 97.4294 145.102 97.0258 144.891C96.6222 144.681 96.3112 144.412 96.1061 144.077C95.901 143.741 95.7952 143.387 95.7952 143.012C95.7952 142.552 95.9407 142.158 96.2384 141.823C96.5361 141.488 96.8802 141.231 97.2706 141.054V141.001L96.9729 140.883C95.9606 140.476 95.4578 139.832 95.4578 138.958C95.4578 138.432 95.5768 137.946 95.8216 137.512C96.0664 137.072 96.4237 136.724 96.9 136.467C97.3764 136.211 97.9388 136.08 98.6004 136.08C99.1297 136.08 99.5929 136.178 100.03 136.369ZM97.3235 136.776C97.0258 136.973 96.8074 137.21 96.6751 137.486C96.5428 137.762 96.4767 138.025 96.4767 138.268C96.4767 138.741 96.5825 139.096 96.7942 139.326C97.006 139.556 97.3103 139.753 97.7139 139.911L99.4473 140.535C99.798 140.39 100.069 140.16 100.268 139.845C100.466 139.529 100.565 139.069 100.565 138.465C100.565 137.788 100.36 137.282 99.9435 136.96C99.5267 136.638 99.0437 136.474 98.4879 136.474C98.0116 136.487 97.6278 136.586 97.3235 136.776ZM96.867 141.895C96.7148 142.191 96.6355 142.539 96.6355 142.94C96.6355 143.288 96.7215 143.603 96.8935 143.893C97.0655 144.175 97.2904 144.399 97.5815 144.563C97.866 144.727 98.1836 144.806 98.5277 144.806C99.057 144.806 99.5069 144.655 99.8708 144.359C100.235 144.063 100.413 143.663 100.413 143.17C100.413 142.815 100.327 142.526 100.149 142.316C99.97 142.105 99.6987 141.921 99.3216 141.77L97.6675 141.146C97.2838 141.343 97.0192 141.593 96.867 141.895Z" fill="#A43E32"/>
<path d="M33.4777 15.4025L24.6848 26.0147L33.4777 36.7913L42.5021 26.1002L33.4777 15.4025Z" fill="#AF0F07"/>
<path d="M54.8676 36.719L46.0747 47.3312L54.8676 58.1077L63.892 47.4166L54.8676 36.719Z" fill="#AF0F07"/>
<path d="M54.8676 92.218L46.0747 102.83L54.8676 113.613L63.892 102.916L54.8676 92.218Z" fill="#AF0F07"/>
<path d="M33.4777 113.686L24.6848 124.298L33.4777 135.074L42.5021 124.383L33.4777 113.686Z" fill="#AF0F07"/>
<path d="M33.4777 64.5407L24.6848 75.1529L33.4777 85.936L42.5021 75.2384L33.4777 64.5407Z" fill="#AF0F07"/>
<path d="M76.2576 15.4025L67.4581 26.0147L76.2576 36.7913L85.2754 26.1002L76.2576 15.4025Z" fill="#AF0F07"/>
<path d="M76.2576 113.686L67.4581 124.298L76.2576 135.074L85.2754 124.383L76.2576 113.686Z" fill="#AF0F07"/>
<path d="M76.2576 64.5407L67.4581 75.1529L76.2576 85.936L85.2754 75.2384L76.2576 64.5407Z" fill="#AF0F07"/>
</svg>
