<svg width="110" height="153" viewBox="0 0 110 153" fill="none" xmlns="http://www.w3.org/2000/svg">
<path d="M106.07 153H3.92995C1.75986 153 0 151.252 0 149.097V3.9032C0 1.7479 1.75986 0 3.92995 0H106.07C108.24 0 110 1.7479 110 3.9032V149.097C110 151.252 108.24 153 106.07 153Z" fill="white"/>
<path d="M98.2034 12.439C98.4117 12.439 98.5805 12.2713 98.5805 12.0644C98.5805 11.8576 98.4117 11.6899 98.2034 11.6899C97.9951 11.6899 97.8263 11.8576 97.8263 12.0644C97.8263 12.2713 97.9951 12.439 98.2034 12.439Z" fill="white"/>
<path d="M80.2604 12.439C80.4687 12.439 80.6376 12.2713 80.6376 12.0644C80.6376 11.8576 80.4687 11.6899 80.2604 11.6899C80.0521 11.6899 79.8833 11.8576 79.8833 12.0644C79.8833 12.2713 80.0521 12.439 80.2604 12.439Z" fill="white"/>
<path d="M63.7664 12.439C63.9747 12.439 64.1435 12.2713 64.1435 12.0644C64.1435 11.8576 63.9747 11.6899 63.7664 11.6899C63.5581 11.6899 63.3892 11.8576 63.3892 12.0644C63.3892 12.2713 63.5581 12.439 63.7664 12.439Z" fill="white"/>
<path d="M47.5766 12.1827C47.5766 12.3864 47.4112 12.5573 47.1995 12.5573C46.9878 12.5573 46.8224 12.393 46.8224 12.1827C46.8224 11.979 46.9878 11.8082 47.1995 11.8082C47.4112 11.8082 47.5766 11.979 47.5766 12.1827Z" fill="white"/>
<path d="M98.2034 26.3302C98.4117 26.3302 98.5805 26.1625 98.5805 25.9556C98.5805 25.7487 98.4117 25.5811 98.2034 25.5811C97.9951 25.5811 97.8263 25.7487 97.8263 25.9556C97.8263 26.1625 97.9951 26.3302 98.2034 26.3302Z" fill="white"/>
<path d="M98.2034 38.9991C98.4117 38.9991 98.5805 38.8314 98.5805 38.6245C98.5805 38.4177 98.4117 38.25 98.2034 38.25C97.9951 38.25 97.8263 38.4177 97.8263 38.6245C97.8263 38.8314 97.9951 38.9991 98.2034 38.9991Z" fill="white"/>
<path d="M98.2034 52.2857C98.4117 52.2857 98.5805 52.118 98.5805 51.9112C98.5805 51.7043 98.4117 51.5366 98.2034 51.5366C97.9951 51.5366 97.8263 51.7043 97.8263 51.9112C97.8263 52.118 97.9951 52.2857 98.2034 52.2857Z" fill="white"/>
<path d="M98.2034 60.6835C98.4117 60.6835 98.5805 60.5158 98.5805 60.3089C98.5805 60.1021 98.4117 59.9344 98.2034 59.9344C97.9951 59.9344 97.8263 60.1021 97.8263 60.3089C97.8263 60.5158 97.9951 60.6835 98.2034 60.6835Z" fill="white"/>
<path d="M98.2034 69.1076C98.4117 69.1076 98.5805 68.9399 98.5805 68.7331C98.5805 68.5262 98.4117 68.3585 98.2034 68.3585C97.9951 68.3585 97.8263 68.5262 97.8263 68.7331C97.8263 68.9399 97.9951 69.1076 98.2034 69.1076Z" fill="white"/>
<path d="M12.048 12.8135C12.2563 12.8135 12.4251 12.6458 12.4251 12.4389C12.4251 12.2321 12.2563 12.0644 12.048 12.0644C11.8397 12.0644 11.6709 12.2321 11.6709 12.4389C11.6709 12.6458 11.8397 12.8135 12.048 12.8135Z" fill="white"/>
<path d="M30.1895 12.5573C30.3978 12.5573 30.5666 12.3896 30.5666 12.1827C30.5666 11.9759 30.3978 11.8082 30.1895 11.8082C29.9812 11.8082 29.8123 11.9759 29.8123 12.1827C29.8123 12.3896 29.9812 12.5573 30.1895 12.5573Z" fill="white"/>
<path d="M12.048 26.0344C12.2563 26.0344 12.4251 25.8667 12.4251 25.6599C12.4251 25.453 12.2563 25.2853 12.048 25.2853C11.8397 25.2853 11.6709 25.453 11.6709 25.6599C11.6709 25.8667 11.8397 26.0344 12.048 26.0344Z" fill="white"/>
<path d="M12.048 39.0845C12.2563 39.0845 12.4251 38.9169 12.4251 38.71C12.4251 38.5031 12.2563 38.3354 12.048 38.3354C11.8397 38.3354 11.6709 38.5031 11.6709 38.71C11.6709 38.9169 11.8397 39.0845 12.048 39.0845Z" fill="white"/>
<path d="M12.048 52.1871C12.2563 52.1871 12.4251 52.0195 12.4251 51.8126C12.4251 51.6057 12.2563 51.438 12.048 51.438C11.8397 51.438 11.6709 51.6057 11.6709 51.8126C11.6709 52.0195 11.8397 52.1871 12.048 52.1871Z" fill="white"/>
<path d="M12.048 60.6835C12.2563 60.6835 12.4251 60.5158 12.4251 60.3089C12.4251 60.1021 12.2563 59.9344 12.048 59.9344C11.8397 59.9344 11.6709 60.1021 11.6709 60.3089C11.6709 60.5158 11.8397 60.6835 12.048 60.6835Z" fill="white"/>
<path d="M12.048 69.4821C12.2563 69.4821 12.4251 69.3144 12.4251 69.1076C12.4251 68.9007 12.2563 68.733 12.048 68.733C11.8397 68.733 11.6709 68.9007 11.6709 69.1076C11.6709 69.3144 11.8397 69.4821 12.048 69.4821Z" fill="white"/>
<path d="M12.048 77.9785C12.2563 77.9785 12.4251 77.8108 12.4251 77.6039C12.4251 77.3971 12.2563 77.2294 12.048 77.2294C11.8397 77.2294 11.6709 77.3971 11.6709 77.6039C11.6709 77.8108 11.8397 77.9785 12.048 77.9785Z" fill="white"/>
<path d="M12.048 86.4683C12.2563 86.4683 12.4251 86.3006 12.4251 86.0937C12.4251 85.8869 12.2563 85.7192 12.048 85.7192C11.8397 85.7192 11.6709 85.8869 11.6709 86.0937C11.6709 86.3006 11.8397 86.4683 12.048 86.4683Z" fill="white"/>
<path d="M12.048 95.2669C12.2563 95.2669 12.4251 95.0992 12.4251 94.8923C12.4251 94.6855 12.2563 94.5178 12.048 94.5178C11.8397 94.5178 11.6709 94.6855 11.6709 94.8923C11.6709 95.0992 11.8397 95.2669 12.048 95.2669Z" fill="white"/>
<path d="M12.048 104.092C12.2563 104.092 12.4251 103.924 12.4251 103.717C12.4251 103.51 12.2563 103.343 12.048 103.343C11.8397 103.343 11.6709 103.51 11.6709 103.717C11.6709 103.924 11.8397 104.092 12.048 104.092Z" fill="white"/>
<path d="M12.048 111.977C12.2563 111.977 12.4251 111.809 12.4251 111.602C12.4251 111.396 12.2563 111.228 12.048 111.228C11.8397 111.228 11.6709 111.396 11.6709 111.602C11.6709 111.809 11.8397 111.977 12.048 111.977Z" fill="white"/>
<path d="M12.048 120.776C12.2563 120.776 12.4251 120.608 12.4251 120.401C12.4251 120.194 12.2563 120.027 12.048 120.027C11.8397 120.027 11.6709 120.194 11.6709 120.401C11.6709 120.608 11.8397 120.776 12.048 120.776Z" fill="white"/>
<path d="M12.048 129.344C12.2563 129.344 12.4251 129.177 12.4251 128.97C12.4251 128.763 12.2563 128.595 12.048 128.595C11.8397 128.595 11.6709 128.763 11.6709 128.97C11.6709 129.177 11.8397 129.344 12.048 129.344Z" fill="white"/>
<path d="M12.2001 141.948C12.4084 141.948 12.5773 141.78 12.5773 141.573C12.5773 141.366 12.4084 141.198 12.2001 141.198C11.9919 141.198 11.8231 141.366 11.8231 141.573C11.8231 141.78 11.9919 141.948 12.2001 141.948Z" fill="white"/>
<path d="M26.1537 141.948C26.1537 142.151 25.9882 142.322 25.7765 142.322C25.5714 142.322 25.3994 142.158 25.3994 141.948C25.3994 141.744 25.5648 141.573 25.7765 141.573C25.9816 141.573 26.1537 141.744 26.1537 141.948Z" fill="white"/>
<path d="M43.263 142.322C43.4712 142.322 43.6401 142.154 43.6401 141.948C43.6401 141.741 43.4712 141.573 43.263 141.573C43.0547 141.573 42.8858 141.741 42.8858 141.948C42.8858 142.154 43.0547 142.322 43.263 142.322Z" fill="white"/>
<path d="M60.723 142.322C60.9313 142.322 61.1001 142.154 61.1001 141.948C61.1001 141.741 60.9313 141.573 60.723 141.573C60.5147 141.573 60.3458 141.741 60.3458 141.948C60.3458 142.154 60.5147 142.322 60.723 142.322Z" fill="white"/>
<path d="M78.1035 141.948C78.1035 142.151 77.9381 142.322 77.7264 142.322C77.5213 142.322 77.3492 142.158 77.3492 141.948C77.3492 141.744 77.5147 141.573 77.7264 141.573C77.9381 141.573 78.1035 141.744 78.1035 141.948Z" fill="white"/>
<path d="M98.2034 77.7682C98.4117 77.7682 98.5805 77.6005 98.5805 77.3937C98.5805 77.1868 98.4117 77.0191 98.2034 77.0191C97.9951 77.0191 97.8263 77.1868 97.8263 77.3937C97.8263 77.6005 97.9951 77.7682 98.2034 77.7682Z" fill="white"/>
<path d="M98.2034 85.8703C98.4117 85.8703 98.5805 85.7026 98.5805 85.4958C98.5805 85.2889 98.4117 85.1212 98.2034 85.1212C97.9951 85.1212 97.8263 85.2889 97.8263 85.4958C97.8263 85.7026 97.9951 85.8703 98.2034 85.8703Z" fill="white"/>
<path d="M98.2034 94.6032C98.4117 94.6032 98.5805 94.4355 98.5805 94.2287C98.5805 94.0218 98.4117 93.8541 98.2034 93.8541C97.9951 93.8541 97.8263 94.0218 97.8263 94.2287C97.8263 94.4355 97.9951 94.6032 98.2034 94.6032Z" fill="white"/>
<path d="M98.2034 103.211C98.4117 103.211 98.5805 103.044 98.5805 102.837C98.5805 102.63 98.4117 102.462 98.2034 102.462C97.9951 102.462 97.8263 102.63 97.8263 102.837C97.8263 103.044 97.9951 103.211 98.2034 103.211Z" fill="white"/>
<path d="M98.2034 111.589C98.4117 111.589 98.5805 111.422 98.5805 111.215C98.5805 111.008 98.4117 110.84 98.2034 110.84C97.9951 110.84 97.8263 111.008 97.8263 111.215C97.8263 111.422 97.9951 111.589 98.2034 111.589Z" fill="white"/>
<path d="M98.2034 119.849C98.4117 119.849 98.5805 119.681 98.5805 119.475C98.5805 119.268 98.4117 119.1 98.2034 119.1C97.9951 119.1 97.8263 119.268 97.8263 119.475C97.8263 119.681 97.9951 119.849 98.2034 119.849Z" fill="white"/>
<path d="M98.2034 128.286C98.4117 128.286 98.5805 128.119 98.5805 127.912C98.5805 127.705 98.4117 127.537 98.2034 127.537C97.9951 127.537 97.8263 127.705 97.8263 127.912C97.8263 128.119 97.9951 128.286 98.2034 128.286Z" fill="white"/>
<path d="M98.5739 140.765C98.5739 140.968 98.4084 141.139 98.1967 141.139C97.9916 141.139 97.8196 140.975 97.8196 140.765C97.8196 140.561 97.985 140.39 98.1967 140.39C98.4084 140.39 98.5739 140.561 98.5739 140.765Z" fill="white"/>
<path d="M98.038 126.749L94.9152 130.179L97.7005 133.937L100.903 130.488L98.038 126.749Z" fill="#AF0F07"/>
<path d="M10.1095 19.6802L6.98663 23.1103L9.76546 26.8689L12.9677 23.4192L10.1095 19.6802Z" fill="#AF0F07"/>
<path d="M8.32971 16.3093C8.204 16.1582 8.11134 15.9873 8.0518 15.7968C7.99887 15.6128 7.96579 15.4419 7.96579 15.2974C7.96579 15.0017 8.07172 14.7586 8.29005 14.568C8.44222 14.4431 8.62081 14.3774 8.81929 14.3774C9.01778 14.3774 9.17 14.4563 9.28247 14.6074C9.32217 14.6666 9.35517 14.7257 9.36841 14.7717C9.38164 14.8243 9.38827 14.89 9.38827 14.9754C9.38827 15.1002 9.33534 15.2317 9.22287 15.3565C9.14348 15.4419 9.06409 15.5142 8.97808 15.5734C8.89868 15.6259 8.84576 15.6785 8.81929 15.7311C8.78621 15.7836 8.77302 15.8493 8.77302 15.9282C8.77302 16.0793 8.85896 16.2173 9.0376 16.329C9.21623 16.4407 9.48093 16.4999 9.83821 16.4999C10.1492 16.4999 10.4402 16.4079 10.7181 16.2305C10.996 16.053 11.2276 15.7573 11.4195 15.3368C11.565 15.0214 11.6775 14.6271 11.7569 14.1474C11.8363 13.6678 11.8693 13.2669 11.8693 12.9581V12.3864L11.7767 12.347C11.6245 12.669 11.3864 12.9384 11.0622 13.1421C10.7446 13.3523 10.4336 13.4575 10.1293 13.4575C9.55367 13.4575 9.07073 13.3195 8.68038 13.0369C8.34957 12.8004 8.09152 12.4784 7.91289 12.0776C7.73425 11.6767 7.6416 11.243 7.6416 10.7831C7.6416 10.3231 7.74752 9.86313 7.95262 9.40316C8.15772 8.94318 8.46206 8.55549 8.85903 8.24665C9.256 7.93782 9.72574 7.78668 10.2616 7.78668C10.8174 7.78668 11.307 7.95753 11.7304 8.29922C12.1538 8.64092 12.478 9.12717 12.7096 9.75799C12.9412 10.3888 13.0536 11.1379 13.0536 11.9987C13.0536 12.6952 12.961 13.3786 12.7824 14.0489C12.6037 14.7191 12.3391 15.2777 12.0017 15.7179C11.3798 16.5196 10.6453 16.9139 9.80509 16.9139C9.19641 16.9204 8.70021 16.7167 8.32971 16.3093ZM10.9034 12.6952C11.1416 12.4981 11.3334 12.2221 11.4724 11.8607C11.6113 11.4993 11.6841 11.0853 11.6841 10.6188C11.6841 9.9157 11.5717 9.33088 11.3467 8.87747C11.1218 8.42407 10.7578 8.19409 10.2418 8.19409C9.71911 8.19409 9.34201 8.44379 9.10382 8.93661C8.86564 9.42944 8.75315 9.98798 8.75315 10.6188C8.75315 11.2956 8.85899 11.8673 9.06409 12.3141C9.26919 12.7675 9.61326 12.9909 10.0896 12.9909C10.4006 12.9909 10.6652 12.8924 10.9034 12.6952Z" fill="#A43E32"/>
<path d="M99.8177 136.855C99.9435 137.006 100.036 137.177 100.096 137.367C100.149 137.551 100.182 137.722 100.182 137.867C100.182 138.163 100.076 138.406 99.8574 138.596C99.7052 138.721 99.5266 138.787 99.3282 138.787C99.1297 138.787 98.9775 138.708 98.865 138.557C98.8253 138.498 98.7922 138.439 98.779 138.393C98.7657 138.34 98.7592 138.274 98.7592 138.189C98.7592 138.064 98.8121 137.933 98.9246 137.808C99.004 137.722 99.0834 137.65 99.1694 137.591C99.2488 137.538 99.3017 137.486 99.3282 137.433C99.3612 137.381 99.3744 137.315 99.3744 137.236C99.3744 137.085 99.2884 136.947 99.1098 136.835C98.9311 136.717 98.6665 136.664 98.3092 136.664C97.9983 136.664 97.7072 136.756 97.4293 136.934C97.1515 137.111 96.9198 137.407 96.728 137.827C96.5824 138.143 96.4699 138.537 96.3905 139.017C96.3112 139.497 96.2781 139.897 96.2781 140.206V140.778L96.3707 140.817C96.5229 140.495 96.7611 140.226 97.0853 140.022C97.4029 139.812 97.7138 139.707 98.0182 139.707C98.5938 139.707 99.0767 139.845 99.4671 140.127C99.7979 140.364 100.056 140.686 100.235 141.093C100.413 141.494 100.506 141.928 100.506 142.388C100.506 142.848 100.4 143.308 100.195 143.774C99.9897 144.234 99.6854 144.622 99.2884 144.931C98.8915 145.24 98.4217 145.391 97.8858 145.391C97.33 145.391 96.8405 145.22 96.417 144.878C95.9936 144.536 95.6694 144.05 95.4379 143.419C95.2063 142.789 95.0938 142.039 95.0938 141.179C95.0938 140.482 95.1865 139.799 95.3651 139.129C95.5437 138.458 95.8083 137.9 96.1458 137.459C96.7677 136.658 97.5021 136.264 98.3424 136.264C98.951 136.237 99.4406 136.448 99.8177 136.855ZM97.2374 140.462C96.9993 140.66 96.8074 140.936 96.6685 141.297C96.5295 141.658 96.4567 142.072 96.4567 142.539C96.4567 143.242 96.5692 143.827 96.7941 144.28C97.0191 144.734 97.383 144.964 97.899 144.964C98.4217 144.964 98.7988 144.714 99.037 144.221C99.2752 143.728 99.3877 143.17 99.3877 142.539C99.3877 141.862 99.2818 141.297 99.0767 140.844C98.8716 140.39 98.5276 140.167 98.0512 140.167C97.7469 140.167 97.4756 140.265 97.2374 140.462Z" fill="#AF0F07"/>
<path d="M32.1082 16.2962L23.3087 26.9019L32.1082 37.6849L41.1259 26.9873L32.1082 16.2962Z" fill="#AF0F07"/>
<path d="M55.0993 66.8472L46.3064 77.4594L55.0993 88.2359L64.1236 77.5448L55.0993 66.8472Z" fill="#AF0F07"/>
<path d="M32.1082 49.0528L23.3087 59.665L32.1082 70.4481L41.1259 59.7504L32.1082 49.0528Z" fill="#AF0F07"/>
<path d="M32.1082 81.816L23.3087 92.4282L32.1082 103.205L41.1259 92.5136L32.1082 81.816Z" fill="#AF0F07"/>
<path d="M32.1082 114.579L23.3087 125.191L32.1082 135.968L41.1259 125.27L32.1082 114.579Z" fill="#AF0F07"/>
<path d="M77.9381 16.2962L69.1453 26.9019L77.9381 37.6849L86.9626 26.9873L77.9381 16.2962Z" fill="#AF0F07"/>
<path d="M77.9381 49.0528L69.1453 59.665L77.9381 70.4481L86.9626 59.7504L77.9381 49.0528Z" fill="#AF0F07"/>
<path d="M77.9381 81.816L69.1453 92.4282L77.9381 103.205L86.9626 92.5136L77.9381 81.816Z" fill="#AF0F07"/>
<path d="M77.9381 114.579L69.1453 125.191L77.9381 135.968L86.9626 125.27L77.9381 114.579Z" fill="#AF0F07"/>
</svg>
