<svg width="110" height="153" viewBox="0 0 110 153" fill="none" xmlns="http://www.w3.org/2000/svg">
<path d="M106.07 153H3.92999C1.75989 153 0 151.252 0 149.097V3.9032C0 1.7479 1.75989 0 3.92999 0H106.07C108.24 0 110 1.7479 110 3.9032V149.097C109.993 151.252 108.24 153 106.07 153Z" fill="white"/>
<path d="M98.1969 12.439C98.4052 12.439 98.5741 12.2713 98.5741 12.0644C98.5741 11.8576 98.4052 11.6899 98.1969 11.6899C97.9887 11.6899 97.8198 11.8576 97.8198 12.0644C97.8198 12.2713 97.9887 12.439 98.1969 12.439Z" fill="white"/>
<path d="M80.2604 12.439C80.4687 12.439 80.6375 12.2713 80.6375 12.0644C80.6375 11.8576 80.4687 11.6899 80.2604 11.6899C80.0521 11.6899 79.8833 11.8576 79.8833 12.0644C79.8833 12.2713 80.0521 12.439 80.2604 12.439Z" fill="white"/>
<path d="M63.7597 12.439C63.968 12.439 64.1368 12.2713 64.1368 12.0644C64.1368 11.8576 63.968 11.6899 63.7597 11.6899C63.5514 11.6899 63.3826 11.8576 63.3826 12.0644C63.3826 12.2713 63.5514 12.439 63.7597 12.439Z" fill="white"/>
<path d="M47.193 12.5573C47.4013 12.5573 47.5702 12.3896 47.5702 12.1827C47.5702 11.9759 47.4013 11.8082 47.193 11.8082C46.9848 11.8082 46.8159 11.9759 46.8159 12.1827C46.8159 12.3896 46.9848 12.5573 47.193 12.5573Z" fill="white"/>
<path d="M98.1969 26.3302C98.4052 26.3302 98.5741 26.1625 98.5741 25.9556C98.5741 25.7487 98.4052 25.5811 98.1969 25.5811C97.9887 25.5811 97.8198 25.7487 97.8198 25.9556C97.8198 26.1625 97.9887 26.3302 98.1969 26.3302Z" fill="white"/>
<path d="M98.1969 38.9991C98.4052 38.9991 98.5741 38.8314 98.5741 38.6245C98.5741 38.4177 98.4052 38.25 98.1969 38.25C97.9887 38.25 97.8198 38.4177 97.8198 38.6245C97.8198 38.8314 97.9887 38.9991 98.1969 38.9991Z" fill="white"/>
<path d="M98.1969 52.2857C98.4052 52.2857 98.5741 52.118 98.5741 51.9112C98.5741 51.7043 98.4052 51.5366 98.1969 51.5366C97.9887 51.5366 97.8198 51.7043 97.8198 51.9112C97.8198 52.118 97.9887 52.2857 98.1969 52.2857Z" fill="white"/>
<path d="M98.1969 60.6835C98.4052 60.6835 98.5741 60.5158 98.5741 60.3089C98.5741 60.1021 98.4052 59.9344 98.1969 59.9344C97.9887 59.9344 97.8198 60.1021 97.8198 60.3089C97.8198 60.5158 97.9887 60.6835 98.1969 60.6835Z" fill="white"/>
<path d="M98.1969 69.1076C98.4052 69.1076 98.5741 68.9399 98.5741 68.7331C98.5741 68.5262 98.4052 68.3585 98.1969 68.3585C97.9887 68.3585 97.8198 68.5262 97.8198 68.7331C97.8198 68.9399 97.9887 69.1076 98.1969 69.1076Z" fill="white"/>
<path d="M12.048 12.8135C12.2563 12.8135 12.4251 12.6458 12.4251 12.4389C12.4251 12.2321 12.2563 12.0644 12.048 12.0644C11.8397 12.0644 11.6709 12.2321 11.6709 12.4389C11.6709 12.6458 11.8397 12.8135 12.048 12.8135Z" fill="white"/>
<path d="M30.5667 12.1827C30.5667 12.3864 30.4013 12.5573 30.1896 12.5573C29.9845 12.5573 29.8125 12.393 29.8125 12.1827C29.8125 11.979 29.9779 11.8082 30.1896 11.8082C30.3947 11.8147 30.5667 11.979 30.5667 12.1827Z" fill="white"/>
<path d="M12.048 26.0344C12.2563 26.0344 12.4251 25.8667 12.4251 25.6599C12.4251 25.453 12.2563 25.2853 12.048 25.2853C11.8397 25.2853 11.6709 25.453 11.6709 25.6599C11.6709 25.8667 11.8397 26.0344 12.048 26.0344Z" fill="white"/>
<path d="M12.048 39.0845C12.2563 39.0845 12.4251 38.9169 12.4251 38.71C12.4251 38.5031 12.2563 38.3354 12.048 38.3354C11.8397 38.3354 11.6709 38.5031 11.6709 38.71C11.6709 38.9169 11.8397 39.0845 12.048 39.0845Z" fill="white"/>
<path d="M12.048 52.1871C12.2563 52.1871 12.4251 52.0195 12.4251 51.8126C12.4251 51.6057 12.2563 51.438 12.048 51.438C11.8397 51.438 11.6709 51.6057 11.6709 51.8126C11.6709 52.0195 11.8397 52.1871 12.048 52.1871Z" fill="white"/>
<path d="M12.048 60.6835C12.2563 60.6835 12.4251 60.5158 12.4251 60.3089C12.4251 60.1021 12.2563 59.9344 12.048 59.9344C11.8397 59.9344 11.6709 60.1021 11.6709 60.3089C11.6709 60.5158 11.8397 60.6835 12.048 60.6835Z" fill="white"/>
<path d="M12.048 69.4821C12.2563 69.4821 12.4251 69.3144 12.4251 69.1076C12.4251 68.9007 12.2563 68.733 12.048 68.733C11.8397 68.733 11.6709 68.9007 11.6709 69.1076C11.6709 69.3144 11.8397 69.4821 12.048 69.4821Z" fill="white"/>
<path d="M12.048 77.9785C12.2563 77.9785 12.4251 77.8108 12.4251 77.6039C12.4251 77.3971 12.2563 77.2294 12.048 77.2294C11.8397 77.2294 11.6709 77.3971 11.6709 77.6039C11.6709 77.8108 11.8397 77.9785 12.048 77.9785Z" fill="white"/>
<path d="M12.048 86.4683C12.2563 86.4683 12.4251 86.3006 12.4251 86.0937C12.4251 85.8869 12.2563 85.7192 12.048 85.7192C11.8397 85.7192 11.6709 85.8869 11.6709 86.0937C11.6709 86.3006 11.8397 86.4683 12.048 86.4683Z" fill="white"/>
<path d="M12.048 95.2669C12.2563 95.2669 12.4251 95.0992 12.4251 94.8923C12.4251 94.6855 12.2563 94.5178 12.048 94.5178C11.8397 94.5178 11.6709 94.6855 11.6709 94.8923C11.6709 95.0992 11.8397 95.2669 12.048 95.2669Z" fill="white"/>
<path d="M12.048 104.092C12.2563 104.092 12.4251 103.924 12.4251 103.717C12.4251 103.51 12.2563 103.343 12.048 103.343C11.8397 103.343 11.6709 103.51 11.6709 103.717C11.6709 103.924 11.8397 104.092 12.048 104.092Z" fill="white"/>
<path d="M12.048 111.977C12.2563 111.977 12.4251 111.809 12.4251 111.602C12.4251 111.396 12.2563 111.228 12.048 111.228C11.8397 111.228 11.6709 111.396 11.6709 111.602C11.6709 111.809 11.8397 111.977 12.048 111.977Z" fill="white"/>
<path d="M12.4183 120.401C12.4183 120.605 12.2529 120.776 12.0412 120.776C11.8295 120.776 11.6641 120.611 11.6641 120.401C11.6641 120.197 11.8295 120.027 12.0412 120.027C12.2529 120.027 12.4183 120.197 12.4183 120.401Z" fill="white"/>
<path d="M12.048 129.344C12.2563 129.344 12.4251 129.177 12.4251 128.97C12.4251 128.763 12.2563 128.595 12.048 128.595C11.8397 128.595 11.6709 128.763 11.6709 128.97C11.6709 129.177 11.8397 129.344 12.048 129.344Z" fill="white"/>
<path d="M12.2004 141.948C12.4086 141.948 12.5775 141.78 12.5775 141.573C12.5775 141.366 12.4086 141.198 12.2004 141.198C11.9921 141.198 11.8232 141.366 11.8232 141.573C11.8232 141.78 11.9921 141.948 12.2004 141.948Z" fill="white"/>
<path d="M25.7697 142.322C25.978 142.322 26.1468 142.154 26.1468 141.948C26.1468 141.741 25.978 141.573 25.7697 141.573C25.5614 141.573 25.3926 141.741 25.3926 141.948C25.3926 142.154 25.5614 142.322 25.7697 142.322Z" fill="white"/>
<path d="M43.6334 141.948C43.6334 142.151 43.468 142.322 43.2563 142.322C43.0512 142.322 42.8792 142.158 42.8792 141.948C42.8792 141.737 43.0446 141.573 43.2563 141.573C43.468 141.573 43.6334 141.744 43.6334 141.948Z" fill="white"/>
<path d="M60.7162 142.322C60.9245 142.322 61.0934 142.154 61.0934 141.948C61.0934 141.741 60.9245 141.573 60.7162 141.573C60.508 141.573 60.3391 141.741 60.3391 141.948C60.3391 142.154 60.508 142.322 60.7162 142.322Z" fill="white"/>
<path d="M77.7265 142.322C77.9348 142.322 78.1036 142.154 78.1036 141.948C78.1036 141.741 77.9348 141.573 77.7265 141.573C77.5182 141.573 77.3494 141.741 77.3494 141.948C77.3494 142.154 77.5182 142.322 77.7265 142.322Z" fill="white"/>
<path d="M98.1969 77.7682C98.4052 77.7682 98.5741 77.6005 98.5741 77.3937C98.5741 77.1868 98.4052 77.0191 98.1969 77.0191C97.9887 77.0191 97.8198 77.1868 97.8198 77.3937C97.8198 77.6005 97.9887 77.7682 98.1969 77.7682Z" fill="white"/>
<path d="M98.1969 85.8703C98.4052 85.8703 98.5741 85.7026 98.5741 85.4958C98.5741 85.2889 98.4052 85.1212 98.1969 85.1212C97.9887 85.1212 97.8198 85.2889 97.8198 85.4958C97.8198 85.7026 97.9887 85.8703 98.1969 85.8703Z" fill="white"/>
<path d="M98.1969 94.6032C98.4052 94.6032 98.5741 94.4355 98.5741 94.2287C98.5741 94.0218 98.4052 93.8541 98.1969 93.8541C97.9887 93.8541 97.8198 94.0218 97.8198 94.2287C97.8198 94.4355 97.9887 94.6032 98.1969 94.6032Z" fill="white"/>
<path d="M98.1969 103.211C98.4052 103.211 98.5741 103.044 98.5741 102.837C98.5741 102.63 98.4052 102.462 98.1969 102.462C97.9887 102.462 97.8198 102.63 97.8198 102.837C97.8198 103.044 97.9887 103.211 98.1969 103.211Z" fill="white"/>
<path d="M98.1969 111.589C98.4052 111.589 98.5741 111.422 98.5741 111.215C98.5741 111.008 98.4052 110.84 98.1969 110.84C97.9887 110.84 97.8198 111.008 97.8198 111.215C97.8198 111.422 97.9887 111.589 98.1969 111.589Z" fill="white"/>
<path d="M98.1969 119.849C98.4052 119.849 98.5741 119.681 98.5741 119.475C98.5741 119.268 98.4052 119.1 98.1969 119.1C97.9887 119.1 97.8198 119.268 97.8198 119.475C97.8198 119.681 97.9887 119.849 98.1969 119.849Z" fill="white"/>
<path d="M98.1969 128.286C98.4052 128.286 98.5741 128.119 98.5741 127.912C98.5741 127.705 98.4052 127.537 98.1969 127.537C97.9887 127.537 97.8198 127.705 97.8198 127.912C97.8198 128.119 97.9887 128.286 98.1969 128.286Z" fill="white"/>
<path d="M98.1969 141.139C98.4052 141.139 98.5741 140.972 98.5741 140.765C98.5741 140.558 98.4052 140.39 98.1969 140.39C97.9887 140.39 97.8198 140.558 97.8198 140.765C97.8198 140.972 97.9887 141.139 98.1969 141.139Z" fill="white"/>
<path d="M53.0746 56.5898L36.7129 76.3357L53.0746 96.3905L69.8664 76.4935L53.0746 56.5898Z" fill="#AF0F07"/>
<path d="M11.876 16.9927L8.75317 20.4162L11.532 24.1814L14.7408 20.7251L11.876 16.9927Z" fill="#AF0F07"/>
<path d="M97.5615 121.985L94.4387 125.415L97.2241 129.173L100.426 125.724L97.5615 121.985Z" fill="#AF0F07"/>
<path d="M7.44314 13.5232H7.9195C8.42233 13.5232 8.79283 13.2144 9.0244 12.5901L11.7767 4.85602H12.0943L14.8797 12.9647C14.9657 13.1749 15.0649 13.3261 15.1906 13.4049C15.3097 13.4838 15.4619 13.5232 15.6538 13.5232H16.3749V13.9306H12.3986V13.5232H13.2455C13.3712 13.5232 13.4837 13.4904 13.5631 13.4246C13.6491 13.3589 13.6888 13.2867 13.6888 13.2012C13.6888 13.0895 13.6689 12.9975 13.6359 12.9187L13.0338 11.2234H10.0301L9.71909 12.0776C9.6 12.4193 9.54046 12.6624 9.54046 12.8201C9.54046 13.0041 9.58677 13.1684 9.6794 13.3129C9.77202 13.4509 9.93743 13.5232 10.169 13.5232H10.9497V13.9306H7.43652V13.5232H7.44314ZM10.1756 10.8225H12.8948L11.5584 6.93247L10.1756 10.8225Z" fill="#A43E32"/>
<path d="M92.3811 132.36H95.8943V132.768H95.1136C94.882 132.768 94.7232 132.84 94.624 132.978C94.5314 133.116 94.4851 133.28 94.4851 133.471C94.4851 133.622 94.5446 133.872 94.6637 134.213L94.9747 135.068H97.9784L98.5805 133.372C98.6135 133.293 98.6334 133.201 98.6334 133.09C98.6334 133.004 98.5937 132.932 98.5077 132.866C98.4217 132.801 98.3158 132.768 98.1901 132.768H97.3432V132.36H101.32V132.768H100.598C100.413 132.768 100.254 132.807 100.135 132.886C100.016 132.965 99.9103 133.116 99.8243 133.326L97.0389 141.435H96.7147L93.9558 133.694C93.7242 133.077 93.3603 132.761 92.8509 132.761H92.3745V132.36H92.3811ZM96.503 139.359L97.8395 135.468H95.1202L96.503 139.359Z" fill="#AF0F07"/>
</svg>
