<svg width="110" height="153" viewBox="0 0 110 153" fill="none" xmlns="http://www.w3.org/2000/svg">
<path d="M106.071 153H3.92853C1.75922 153 0 151.253 0 149.098V3.90219C0 1.74745 1.75922 0 3.92853 0H106.071C108.241 0 110 1.74745 110 3.90219V149.098C110 151.253 108.241 153 106.071 153Z" fill="white"/>
<path d="M15.1323 21.889C14.4511 21.1467 13.3995 21.5868 13.3995 21.5868C13.6905 21.2781 13.8888 21.0284 13.8492 20.516C13.8492 20.4963 13.8492 20.4832 13.8492 20.4635C13.8492 19.6489 13.1878 18.9919 12.3677 18.9919C11.5476 18.9919 10.8862 19.6489 10.8862 20.4635C10.8862 20.5686 10.8995 20.6671 10.9193 20.7591C10.9524 21.1138 11.1309 21.3241 11.369 21.5803C11.369 21.5803 10.3174 21.1401 9.6362 21.8825C8.95499 22.6248 9.29233 23.5051 9.51058 23.7941C9.72884 24.0832 10.0463 24.5693 10.8069 24.5102C11.4815 24.4576 11.5807 24.346 12.0436 23.9781C11.9907 24.9832 11.3756 25.673 11.3756 25.673H11.4153H12.3876H13.3598H13.3995C13.0291 25.2854 12.6984 24.3919 12.7381 23.9846C13.1878 24.346 13.2936 24.4576 13.9616 24.5036C14.7222 24.5627 15.0463 24.0766 15.2579 23.7876C15.4762 23.5117 15.8135 22.6314 15.1323 21.889Z" fill="#151515"/>
<path d="M9.58331 16.0554H10.8135C10.9391 16.0554 11.0317 16.0292 11.0913 15.9766C11.1442 15.924 11.1772 15.8386 11.1772 15.7204V9.45982H9.58331V8.99996H10.2909C10.7539 8.99996 11.1243 8.87514 11.4153 8.63208C11.6997 8.38244 11.8783 8.08682 11.951 7.73865H12.3611V15.7204C12.3611 15.8386 12.3875 15.924 12.447 15.9766C12.5 16.0292 12.5926 16.0554 12.7248 16.0554H13.955V16.4627H9.58993V16.0554H9.58331Z" fill="black"/>
<path d="M17.5926 16.0161C17.123 15.5825 16.7592 15.0175 16.4947 14.3146C16.2367 13.6117 16.1045 12.8759 16.1045 12.1007C16.1045 11.3255 16.2367 10.5898 16.4947 9.88686C16.7526 9.18394 17.123 8.61898 17.5926 8.1854C18.0622 7.75182 18.6045 7.53503 19.2063 7.53503C19.8082 7.53503 20.3439 7.75182 20.8201 8.1854C21.2963 8.61898 21.66 9.18394 21.9246 9.88686C22.1825 10.5898 22.3148 11.3255 22.3148 12.1007C22.3148 12.8759 22.1825 13.6117 21.9246 14.3146C21.6666 15.0175 21.2963 15.5825 20.8201 16.0161C20.3439 16.4496 19.8082 16.6664 19.2063 16.6664C18.5978 16.6664 18.0622 16.4496 17.5926 16.0161ZM20.615 15.0635C20.8399 14.262 20.9523 13.2766 20.9523 12.1073C20.9523 10.9314 20.8399 9.94598 20.615 9.15109C20.3902 8.34963 19.9206 7.95547 19.2129 7.95547C18.5053 7.95547 18.0357 8.34963 17.8108 9.14452C17.5859 9.93941 17.4735 10.9248 17.4735 12.1073C17.4735 13.2898 17.5859 14.2752 17.8108 15.0701C18.0357 15.865 18.5053 16.2591 19.2129 16.2591C19.914 16.2591 20.3836 15.8584 20.615 15.0635Z" fill="black"/>
<path d="M95.8333 130.763C96.5145 131.505 97.5662 131.065 97.5662 131.065C97.2752 131.374 97.0767 131.623 97.1164 132.136C97.1164 132.155 97.1164 132.169 97.1164 132.188C97.1164 133.003 97.7778 133.66 98.5979 133.66C99.418 133.66 100.079 133.003 100.079 132.188C100.079 132.083 100.066 131.985 100.046 131.893C100.013 131.538 99.8346 131.328 99.5966 131.072C99.5966 131.072 100.648 131.512 101.329 130.769C102.011 130.027 101.673 129.147 101.455 128.858C101.237 128.569 100.919 128.082 100.159 128.142C99.4841 128.194 99.3849 128.306 98.9286 128.674C98.9815 127.669 99.5966 126.979 99.5966 126.979H99.5568H98.5846H97.6124H97.5727C97.9431 127.366 98.2738 128.26 98.2341 128.667C97.7843 128.306 97.6785 128.194 97.0106 128.148C96.25 128.089 95.9259 128.575 95.7143 128.864C95.496 129.14 95.1521 130.02 95.8333 130.763Z" fill="#151515"/>
<path d="M101.389 136.596H100.159C100.033 136.596 99.9405 136.623 99.881 136.675C99.8281 136.728 99.795 136.813 99.795 136.931V143.192H101.389V143.652H100.681C100.218 143.652 99.8479 143.777 99.5569 144.02C99.2725 144.269 99.094 144.565 99.0212 144.913H98.6112V136.931C98.6112 136.813 98.5847 136.728 98.5252 136.675C98.4723 136.623 98.3796 136.596 98.2474 136.596H97.0172V136.189H101.382V136.596H101.389Z" fill="black"/>
<path d="M93.3796 136.636C93.8492 137.069 94.213 137.634 94.4775 138.337C94.7355 139.04 94.8677 139.776 94.8677 140.551C94.8677 141.326 94.7355 142.062 94.4775 142.765C94.2196 143.468 93.8492 144.033 93.3796 144.466C92.9101 144.9 92.3678 145.117 91.7659 145.117C91.1641 145.117 90.6283 144.9 90.1521 144.466C89.6759 144.033 89.3122 143.468 89.0477 142.765C88.7897 142.062 88.6574 141.326 88.6574 140.551C88.6574 139.776 88.7897 139.04 89.0477 138.337C89.3056 137.634 89.6759 137.069 90.1521 136.636C90.6283 136.202 91.1641 135.985 91.7659 135.985C92.3678 135.985 92.9101 136.202 93.3796 136.636ZM90.3572 137.595C90.1323 138.396 90.0199 139.382 90.0199 140.551C90.0199 141.72 90.1323 142.712 90.3572 143.507C90.5821 144.309 91.0516 144.703 91.7593 144.703C92.467 144.703 92.9366 144.309 93.1614 143.514C93.3863 142.719 93.4987 141.734 93.4987 140.551C93.4987 139.369 93.3863 138.383 93.1614 137.588C92.9366 136.793 92.467 136.399 91.7593 136.399C91.0516 136.393 90.5821 136.793 90.3572 137.595Z" fill="black"/>
<path d="M64.4974 44.1394C62.1296 41.5708 58.4986 43.0949 58.4986 43.0949C59.5171 42.0175 60.1917 41.1569 60.0661 39.3898C60.0661 39.3306 60.0727 39.2715 60.0727 39.2124C60.0727 36.4007 57.7777 34.1212 54.947 34.1212C52.1164 34.1212 49.8214 36.4007 49.8214 39.2124C49.8214 39.5671 49.8611 39.9153 49.9272 40.2438C50.0463 41.4657 50.6547 42.208 51.4881 43.0949C51.4881 43.0949 47.8504 41.5708 45.4893 44.1394C43.1216 46.708 44.3055 49.7496 45.0529 50.7547C45.8002 51.7533 46.9113 53.435 49.5436 53.2445C51.8716 53.0737 52.2156 52.6796 53.8095 51.4117C53.6177 54.9 51.4881 57.2847 51.4881 57.2847H51.6203H54.9933H58.3664H58.4986C57.2089 55.9379 56.0714 52.8504 56.2169 51.4445C57.7778 52.6861 58.1415 53.0737 60.4431 53.2445C63.0688 53.4416 64.1864 51.7598 64.9338 50.7547C65.6812 49.7562 66.8651 46.708 64.4974 44.1394Z" fill="#151515"/>
<path d="M39.3122 26.6518C36.9445 24.0832 33.3135 25.6073 33.3135 25.6073C34.3321 24.5299 35.0067 23.6693 34.881 21.9022C34.881 21.843 34.8876 21.7839 34.8876 21.7248C34.8876 18.9131 32.5926 16.6335 29.762 16.6335C26.9313 16.6335 24.6363 18.9131 24.6363 21.7248C24.6363 22.0795 24.6759 22.4211 24.7421 22.7562C24.8611 23.9781 25.4696 24.7204 26.303 25.6073C26.303 25.6073 22.6654 24.0832 20.3042 26.6518C17.9365 29.2204 19.1204 32.262 19.8677 33.2671C20.6151 34.2657 21.7262 35.9474 24.3585 35.7569C26.6865 35.5861 27.0304 35.1919 28.6243 33.9241C28.4325 37.4124 26.303 39.7971 26.303 39.7971H26.4352H29.8082H33.1812H33.3135C32.0239 38.4503 30.8862 35.3627 31.0317 33.9569C32.5926 35.1985 32.9564 35.5861 35.2579 35.7569C37.8836 35.954 39.0014 34.2722 39.7487 33.2671C40.4961 32.262 41.6733 29.2204 39.3122 26.6518Z" fill="#151515"/>
<path d="M39.3122 59.6036C36.9445 57.035 33.3135 58.5591 33.3135 58.5591C34.3321 57.4817 35.0067 56.6212 34.881 54.854C34.881 54.7949 34.8876 54.7358 34.8876 54.6766C34.8876 51.865 32.5926 49.5854 29.762 49.5854C26.9313 49.5854 24.6363 51.865 24.6363 54.6766C24.6363 55.0314 24.6759 55.3795 24.7421 55.708C24.8611 56.9299 25.4696 57.6722 26.303 58.5591C26.303 58.5591 22.6654 57.035 20.3042 59.6036C17.9365 62.1722 19.1204 65.2139 19.8677 66.219C20.6151 67.2175 21.7262 68.8993 24.3585 68.7087C26.6865 68.5379 27.0304 68.1438 28.6243 66.8759C28.4325 70.3642 26.303 72.7489 26.303 72.7489H26.4352H29.8082H33.1812H33.3135C32.0239 71.4022 30.8862 68.3146 31.0317 66.9087C32.5926 68.1503 32.9564 68.5379 35.2579 68.7087C37.8836 68.9058 39.0014 67.2241 39.7487 66.219C40.4961 65.2139 41.6733 62.1722 39.3122 59.6036Z" fill="#151515"/>
<path d="M39.3122 128.634C36.9445 131.203 33.3135 129.679 33.3135 129.679C34.3321 130.756 35.0067 131.617 34.881 133.384C34.881 133.443 34.8876 133.502 34.8876 133.561C34.8876 136.373 32.5926 138.653 29.762 138.653C26.9313 138.653 24.6363 136.373 24.6363 133.561C24.6363 133.207 24.6759 132.858 24.7421 132.53C24.8611 131.308 25.4696 130.566 26.303 129.679C26.303 129.679 22.6654 131.203 20.3042 128.634C17.9365 126.066 19.1204 123.024 19.8677 122.019C20.6151 121.02 21.7262 119.339 24.3585 119.529C26.6865 119.7 27.0304 120.094 28.6243 121.362C28.4325 117.874 26.303 115.489 26.303 115.489H26.4352H29.8082H33.1812H33.3135C32.0239 116.836 30.8862 119.923 31.0317 121.329C32.5926 120.088 32.9564 119.7 35.2579 119.529C37.8836 119.332 39.0014 121.014 39.7487 122.019C40.4961 123.024 41.6733 126.066 39.3122 128.634Z" fill="#151515"/>
<path d="M91.0515 26.6518C88.6838 24.0832 85.0529 25.6073 85.0529 25.6073C86.0714 24.5299 86.746 23.6693 86.6203 21.9022C86.6203 21.843 86.627 21.7839 86.627 21.7248C86.627 18.9131 84.332 16.6335 81.5013 16.6335C78.6706 16.6335 76.3756 18.9131 76.3756 21.7248C76.3756 22.0795 76.4153 22.4211 76.4815 22.7562C76.6005 23.9781 77.209 24.7204 78.0423 25.6073C78.0423 25.6073 74.4047 24.0832 72.0436 26.6518C69.6759 29.2204 70.8598 32.262 71.6071 33.2671C72.3545 34.2657 73.4656 35.9474 76.0978 35.7569C78.4259 35.5861 78.7698 35.1919 80.3638 33.9241C80.172 37.4124 78.0423 39.7971 78.0423 39.7971H78.1746H81.5476H84.9206H85.0529C83.7632 38.4503 82.6256 35.3627 82.7711 33.9569C84.3319 35.1985 84.6957 35.5861 86.9973 35.7569C89.623 35.954 90.7407 34.2722 91.4881 33.2671C92.2354 32.262 93.4193 29.2204 91.0515 26.6518Z" fill="#151515"/>
<path d="M91.0515 59.6036C88.6838 57.035 85.0529 58.5591 85.0529 58.5591C86.0714 57.4817 86.746 56.6212 86.6203 54.854C86.6203 54.7949 86.627 54.7358 86.627 54.6766C86.627 51.865 84.332 49.5854 81.5013 49.5854C78.6706 49.5854 76.3756 51.865 76.3756 54.6766C76.3756 55.0314 76.4153 55.3795 76.4815 55.708C76.6005 56.9299 77.209 57.6722 78.0423 58.5591C78.0423 58.5591 74.4047 57.035 72.0436 59.6036C69.6759 62.1722 70.8598 65.2139 71.6071 66.219C72.3545 67.2175 73.4656 68.8993 76.0978 68.7087C78.4259 68.5379 78.7698 68.1438 80.3638 66.8759C80.172 70.3642 78.0423 72.7489 78.0423 72.7489H78.1746H81.5476H84.9206H85.0529C83.7632 71.4022 82.6256 68.3146 82.7711 66.9087C84.3319 68.1503 84.6957 68.5379 86.9973 68.7087C89.623 68.9058 90.7407 67.2241 91.4881 66.219C92.2354 65.2139 93.4193 62.1722 91.0515 59.6036Z" fill="#151515"/>
<path d="M91.0515 128.634C88.6838 131.203 85.0529 129.679 85.0529 129.679C86.0714 130.756 86.746 131.617 86.6203 133.384C86.6203 133.443 86.627 133.502 86.627 133.561C86.627 136.373 84.332 138.653 81.5013 138.653C78.6706 138.653 76.3756 136.373 76.3756 133.561C76.3756 133.207 76.4153 132.858 76.4815 132.53C76.6005 131.308 77.209 130.566 78.0423 129.679C78.0423 129.679 74.4047 131.203 72.0436 128.634C69.6759 126.066 70.8598 123.024 71.6071 122.019C72.3545 121.02 73.4656 119.339 76.0978 119.529C78.4259 119.7 78.7698 120.094 80.3638 121.362C80.172 117.874 78.0423 115.489 78.0423 115.489H78.1746H81.5476H84.9206H85.0529C83.7632 116.836 82.6256 119.923 82.7711 121.329C84.3319 120.088 84.6957 119.7 86.9973 119.529C89.623 119.332 90.7407 121.014 91.4881 122.019C92.2354 123.024 93.4193 126.066 91.0515 128.634Z" fill="#151515"/>
<path d="M39.3122 95.6825C36.9445 98.2511 33.3135 96.727 33.3135 96.727C34.3321 97.8044 35.0067 98.665 34.881 100.432C34.881 100.491 34.8876 100.55 34.8876 100.609C34.8876 103.421 32.5926 105.701 29.762 105.701C26.9313 105.701 24.6363 103.421 24.6363 100.609C24.6363 100.255 24.6759 99.9131 24.7421 99.5781C24.8611 98.3562 25.4696 97.6139 26.303 96.727C26.303 96.727 22.6654 98.2511 20.3042 95.6825C17.9365 93.1139 19.1204 90.0723 19.8677 89.0672C20.6151 88.0686 21.7262 86.3869 24.3585 86.5774C26.6865 86.7482 27.0304 87.1423 28.6243 88.4102C28.4325 84.9219 26.303 82.5372 26.303 82.5372H26.4352H29.8082H33.1812H33.3135C32.0239 83.8839 30.8862 86.9715 31.0317 88.3774C32.5926 87.1358 32.9564 86.7482 35.2579 86.5774C37.8836 86.3803 39.0014 88.0621 39.7487 89.0672C40.4961 90.0657 41.6733 93.1139 39.3122 95.6825Z" fill="#151515"/>
<path d="M91.0515 95.6825C88.6838 98.2511 85.0529 96.727 85.0529 96.727C86.0714 97.8044 86.746 98.665 86.6203 100.432C86.6203 100.491 86.627 100.55 86.627 100.609C86.627 103.421 84.332 105.701 81.5013 105.701C78.6706 105.701 76.3756 103.421 76.3756 100.609C76.3756 100.255 76.4153 99.9131 76.4815 99.5781C76.6005 98.3562 77.209 97.6139 78.0423 96.727C78.0423 96.727 74.4047 98.2511 72.0436 95.6825C69.6759 93.1139 70.8598 90.0723 71.6071 89.0672C72.3545 88.0621 73.4656 86.3869 76.0978 86.5774C78.4259 86.7482 78.7698 87.1423 80.3638 88.4102C80.172 84.9219 78.0423 82.5372 78.0423 82.5372H78.1746H81.5476H84.9206H85.0529C83.7632 83.8839 82.6256 86.9715 82.7711 88.3774C84.3319 87.1358 84.6957 86.7482 86.9973 86.5774C89.623 86.3803 90.7407 88.0621 91.4881 89.0672C92.2354 90.0657 93.4193 93.1139 91.0515 95.6825Z" fill="#151515"/>
<path d="M64.4974 109.189C62.1296 111.758 58.4986 110.234 58.4986 110.234C59.5171 111.311 60.1917 112.172 60.0661 113.939C60.0661 113.998 60.0727 114.057 60.0727 114.116C60.0727 116.928 57.7777 119.207 54.947 119.207C52.1164 119.207 49.8214 116.928 49.8214 114.116C49.8214 113.761 49.8611 113.413 49.9272 113.085C50.0463 111.863 50.6547 111.12 51.4881 110.234C51.4881 110.234 47.8504 111.758 45.4893 109.189C43.1216 106.62 44.3055 103.579 45.0529 102.574C45.8002 101.575 46.9113 99.8934 49.5436 100.084C51.8716 100.255 52.2156 100.649 53.8095 101.917C53.6177 98.4284 51.4881 96.0438 51.4881 96.0438H51.6203H54.9933H58.3664H58.4986C57.2089 97.3905 56.0714 100.478 56.2169 101.884C57.7778 100.642 58.1415 100.255 60.4431 100.084C63.0688 99.8868 64.1864 101.569 64.9338 102.574C65.6812 103.579 66.8651 106.627 64.4974 109.189Z" fill="#151515"/>
</svg>
