<svg width="110" height="153" viewBox="0 0 110 153" fill="none" xmlns="http://www.w3.org/2000/svg">
<path d="M106.072 153H3.92763C1.75884 153 0 151.253 0 149.098V3.90219C0 1.74745 1.75884 0 3.92763 0H106.072C108.241 0 110 1.74745 110 3.90219V149.098C110 151.253 108.241 153 106.072 153Z" fill="white"/>
<path d="M98.5741 12.0679C98.5741 12.2715 98.4088 12.4423 98.1972 12.4423C97.9922 12.4423 97.8203 12.2781 97.8203 12.0679C97.8203 11.8642 97.9856 11.6934 98.1972 11.6934C98.4088 11.6934 98.5741 11.8577 98.5741 12.0679Z" fill="white"/>
<path d="M80.6354 12.0679C80.6354 12.2715 80.4701 12.4423 80.2585 12.4423C80.0469 12.4423 79.8816 12.2781 79.8816 12.0679C79.8816 11.8642 80.0469 11.6934 80.2585 11.6934C80.4701 11.6934 80.6354 11.8577 80.6354 12.0679Z" fill="white"/>
<path d="M64.1381 12.0679C64.1381 12.2715 63.9728 12.4423 63.7612 12.4423C63.5496 12.4423 63.3843 12.2781 63.3843 12.0679C63.3843 11.8642 63.5496 11.6934 63.7612 11.6934C63.9728 11.6934 64.1381 11.8577 64.1381 12.0679Z" fill="white"/>
<path d="M47.5746 12.1861C47.5746 12.3897 47.4093 12.5606 47.1977 12.5606C46.9927 12.5606 46.8208 12.3963 46.8208 12.1861C46.8208 11.9824 46.9861 11.8116 47.1977 11.8116C47.4027 11.8116 47.5746 11.9759 47.5746 12.1861Z" fill="white"/>
<path d="M98.5741 25.9555C98.5741 26.1592 98.4088 26.33 98.1972 26.33C97.9922 26.33 97.8203 26.1657 97.8203 25.9555C97.8203 25.7453 97.9856 25.5811 98.1972 25.5811C98.4088 25.5811 98.5741 25.7453 98.5741 25.9555Z" fill="white"/>
<path d="M98.5741 38.6277C98.5741 38.8314 98.4088 39.0022 98.1972 39.0022C97.9922 39.0022 97.8203 38.838 97.8203 38.6277C97.8203 38.4175 97.9856 38.2533 98.1972 38.2533C98.4088 38.2533 98.5741 38.4241 98.5741 38.6277Z" fill="white"/>
<path d="M98.5741 51.911C98.5741 52.1146 98.4088 52.2854 98.1972 52.2854C97.9922 52.2854 97.8203 52.1212 97.8203 51.911C97.8203 51.7073 97.9856 51.5365 98.1972 51.5365C98.4088 51.5365 98.5741 51.7007 98.5741 51.911Z" fill="white"/>
<path d="M98.5741 60.3066C98.5741 60.5102 98.4088 60.681 98.1972 60.681C97.9922 60.681 97.8203 60.5168 97.8203 60.3066C97.8203 60.1029 97.9856 59.9321 98.1972 59.9321C98.4088 59.9321 98.5741 60.1029 98.5741 60.3066Z" fill="white"/>
<path d="M98.5741 68.735C98.5741 68.9387 98.4088 69.1095 98.1972 69.1095C97.9922 69.1095 97.8203 68.9453 97.8203 68.735C97.8203 68.5248 97.9856 68.3606 98.1972 68.3606C98.4088 68.3606 98.5741 68.5248 98.5741 68.735Z" fill="white"/>
<path d="M12.4242 12.4357C12.4242 12.6394 12.2589 12.8102 12.0473 12.8102C11.8357 12.8102 11.6704 12.646 11.6704 12.4357C11.6704 12.2321 11.8357 12.0613 12.0473 12.0613C12.2589 12.0613 12.4242 12.2321 12.4242 12.4357Z" fill="white"/>
<path d="M30.568 12.1861C30.568 12.3897 30.4027 12.5606 30.1911 12.5606C29.9861 12.5606 29.8142 12.3963 29.8142 12.1861C29.8142 11.9824 29.9795 11.8116 30.1911 11.8116C30.3961 11.8116 30.568 11.9759 30.568 12.1861Z" fill="white"/>
<path d="M12.4242 25.6599C12.4242 25.8635 12.2589 26.0343 12.0473 26.0343C11.8357 26.0343 11.6704 25.8701 11.6704 25.6599C11.6704 25.4562 11.8357 25.2854 12.0473 25.2854C12.2589 25.2854 12.4242 25.4496 12.4242 25.6599Z" fill="white"/>
<path d="M12.4242 38.7131C12.4242 38.9168 12.2589 39.0876 12.0473 39.0876C11.8357 39.0876 11.6704 38.9234 11.6704 38.7131C11.6704 38.5095 11.8357 38.3387 12.0473 38.3387C12.2589 38.3387 12.4242 38.5095 12.4242 38.7131Z" fill="white"/>
<path d="M12.4242 51.819C12.4242 52.0226 12.2589 52.1934 12.0473 52.1934C11.8357 52.1934 11.6704 52.0292 11.6704 51.819C11.6704 51.6088 11.8357 51.4445 12.0473 51.4445C12.2589 51.4445 12.4242 51.6088 12.4242 51.819Z" fill="white"/>
<path d="M12.4242 60.3066C12.4242 60.5102 12.2589 60.681 12.0473 60.681C11.8357 60.681 11.6704 60.5168 11.6704 60.3066C11.6704 60.1029 11.8357 59.9321 12.0473 59.9321C12.2589 59.9321 12.4242 60.1029 12.4242 60.3066Z" fill="white"/>
<path d="M12.4242 69.1095C12.4242 69.3131 12.2589 69.484 12.0473 69.484C11.8357 69.484 11.6704 69.3197 11.6704 69.1095C11.6704 68.9058 11.8357 68.735 12.0473 68.735C12.2589 68.735 12.4242 68.8993 12.4242 69.1095Z" fill="white"/>
<path d="M12.4242 77.6036C12.4242 77.8073 12.2589 77.9781 12.0473 77.9781C11.8357 77.9781 11.6704 77.8139 11.6704 77.6036C11.6704 77.4 11.8357 77.2292 12.0473 77.2292C12.2589 77.2292 12.4242 77.4 12.4242 77.6036Z" fill="white"/>
<path d="M12.4242 86.0913C12.4242 86.2949 12.2589 86.4657 12.0473 86.4657C11.8357 86.4657 11.6704 86.3015 11.6704 86.0913C11.6704 85.8876 11.8357 85.7168 12.0473 85.7168C12.2589 85.7168 12.4242 85.8876 12.4242 86.0913Z" fill="white"/>
<path d="M12.4242 94.8942C12.4242 95.0978 12.2589 95.2686 12.0473 95.2686C11.8357 95.2686 11.6704 95.1044 11.6704 94.8942C11.6704 94.6905 11.8357 94.5197 12.0473 94.5197C12.2589 94.5197 12.4242 94.6905 12.4242 94.8942Z" fill="white"/>
<path d="M12.4242 103.717C12.4242 103.92 12.2589 104.091 12.0473 104.091C11.8357 104.091 11.6704 103.927 11.6704 103.717C11.6704 103.513 11.8357 103.342 12.0473 103.342C12.2589 103.342 12.4242 103.513 12.4242 103.717Z" fill="white"/>
<path d="M12.4242 111.6C12.4242 111.804 12.2589 111.974 12.0473 111.974C11.8357 111.974 11.6704 111.81 11.6704 111.6C11.6704 111.396 11.8357 111.226 12.0473 111.226C12.2589 111.226 12.4242 111.396 12.4242 111.6Z" fill="white"/>
<path d="M12.4242 120.403C12.4242 120.607 12.2589 120.777 12.0473 120.777C11.8357 120.777 11.6704 120.613 11.6704 120.403C11.6704 120.199 11.8357 120.029 12.0473 120.029C12.2589 120.029 12.4242 120.193 12.4242 120.403Z" fill="white"/>
<path d="M12.4242 128.976C12.4242 129.18 12.2589 129.35 12.0473 129.35C11.8357 129.35 11.6704 129.186 11.6704 128.976C11.6704 128.772 11.8357 128.601 12.0473 128.601C12.2589 128.601 12.4242 128.766 12.4242 128.976Z" fill="white"/>
<path d="M12.5763 141.576C12.5763 141.78 12.411 141.95 12.1994 141.95C11.9944 141.95 11.8225 141.786 11.8225 141.576C11.8225 141.372 11.9878 141.201 12.1994 141.201C12.4044 141.201 12.5763 141.372 12.5763 141.576Z" fill="white"/>
<path d="M26.1445 141.95C26.1445 142.154 25.9792 142.325 25.7676 142.325C25.5627 142.325 25.3907 142.161 25.3907 141.95C25.3907 141.747 25.5561 141.576 25.7676 141.576C25.9792 141.576 26.1445 141.747 26.1445 141.95Z" fill="white"/>
<path d="M43.6337 141.95C43.6337 142.154 43.4684 142.325 43.2568 142.325C43.0518 142.325 42.8799 142.161 42.8799 141.95C42.8799 141.747 43.0452 141.576 43.2568 141.576C43.4684 141.576 43.6337 141.747 43.6337 141.95Z" fill="white"/>
<path d="M61.0964 141.95C61.0964 142.154 60.9311 142.325 60.7195 142.325C60.5146 142.325 60.3427 142.161 60.3427 141.95C60.3427 141.747 60.508 141.576 60.7195 141.576C60.9245 141.576 61.0964 141.747 61.0964 141.95Z" fill="white"/>
<path d="M78.1029 141.95C78.1029 142.154 77.9376 142.325 77.726 142.325C77.521 142.325 77.3491 142.161 77.3491 141.95C77.3491 141.747 77.5144 141.576 77.726 141.576C77.9376 141.576 78.1029 141.747 78.1029 141.95Z" fill="white"/>
<path d="M98.5741 77.3934C98.5741 77.5971 98.4088 77.7679 98.1972 77.7679C97.9922 77.7679 97.8203 77.6037 97.8203 77.3934C97.8203 77.1832 97.9856 77.019 98.1972 77.019C98.4088 77.019 98.5741 77.1898 98.5741 77.3934Z" fill="white"/>
<path d="M98.5741 85.4935C98.5741 85.6971 98.4088 85.8679 98.1972 85.8679C97.9922 85.8679 97.8203 85.7037 97.8203 85.4935C97.8203 85.2898 97.9856 85.119 98.1972 85.119C98.4088 85.119 98.5741 85.2898 98.5741 85.4935Z" fill="white"/>
<path d="M98.5741 94.2241C98.5741 94.4277 98.4088 94.5985 98.1972 94.5985C97.9922 94.5985 97.8203 94.4343 97.8203 94.2241C97.8203 94.0204 97.9856 93.8496 98.1972 93.8496C98.4088 93.8562 98.5741 94.0204 98.5741 94.2241Z" fill="white"/>
<path d="M98.5741 102.836C98.5741 103.04 98.4088 103.211 98.1972 103.211C97.9922 103.211 97.8203 103.047 97.8203 102.836C97.8203 102.626 97.9856 102.462 98.1972 102.462C98.4088 102.462 98.5741 102.626 98.5741 102.836Z" fill="white"/>
<path d="M98.5741 111.212C98.5741 111.416 98.4088 111.587 98.1972 111.587C97.9922 111.587 97.8203 111.423 97.8203 111.212C97.8203 111.002 97.9856 110.838 98.1972 110.838C98.4088 110.838 98.5741 111.009 98.5741 111.212Z" fill="white"/>
<path d="M98.5741 119.477C98.5741 119.68 98.4088 119.851 98.1972 119.851C97.9922 119.851 97.8203 119.687 97.8203 119.477C97.8203 119.273 97.9856 119.102 98.1972 119.102C98.4088 119.102 98.5741 119.266 98.5741 119.477Z" fill="white"/>
<path d="M98.5741 127.912C98.5741 128.115 98.4088 128.286 98.1972 128.286C97.9922 128.286 97.8203 128.122 97.8203 127.912C97.8203 127.708 97.9856 127.537 98.1972 127.537C98.4088 127.537 98.5741 127.701 98.5741 127.912Z" fill="white"/>
<path d="M98.5741 140.768C98.5741 140.972 98.4088 141.142 98.1972 141.142C97.9922 141.142 97.8203 140.978 97.8203 140.768C97.8203 140.564 97.9856 140.393 98.1972 140.393C98.4088 140.393 98.5741 140.558 98.5741 140.768Z" fill="white"/>
<path d="M65.3216 121.763C62.9545 124.331 59.3244 122.807 59.3244 122.807C60.3426 123.885 61.0171 124.745 60.8915 126.512C60.8915 126.572 60.8981 126.631 60.8981 126.69C60.8981 129.501 58.6037 131.781 55.7736 131.781C52.9436 131.781 50.6492 129.501 50.6492 126.69C50.6492 126.335 50.6889 125.987 50.755 125.658C50.874 124.436 51.4823 123.694 52.3155 122.807C52.3155 122.807 48.6788 124.331 46.3182 121.763C43.9511 119.194 45.1347 116.153 45.8818 115.147C46.629 114.149 47.7399 112.467 50.3715 112.658C52.699 112.828 53.0428 113.223 54.643 114.49C54.4512 111.002 52.3221 108.617 52.3221 108.617H52.4543H55.8265H59.1987H59.331C58.0416 109.964 56.9043 113.052 57.0498 114.458C58.6169 113.216 58.9739 112.828 61.275 112.658C63.9 112.461 65.0175 114.142 65.7646 115.147C66.5052 116.153 67.6888 119.194 65.3216 121.763Z" fill="#151515"/>
<path d="M10.3017 15.1226C10.4803 14.6628 10.8836 14.1701 11.5051 13.6445L12.735 12.6C13.1384 12.2715 13.4425 11.9036 13.6541 11.5029C13.8657 11.1022 13.9715 10.6423 13.9715 10.1234C13.9715 9.45985 13.8062 8.94744 13.4822 8.58613C13.1582 8.22481 12.6953 8.04744 12.0936 8.04744C11.8225 8.04744 11.5581 8.11313 11.3068 8.23795C11.0555 8.36277 10.8505 8.53357 10.6919 8.74379C10.5332 8.95401 10.4538 9.16423 10.4538 9.38759C10.4538 9.59123 10.5001 9.74233 10.5927 9.84087C10.6852 9.93941 10.8175 9.99853 10.9762 10.0248C11.2473 10.0708 11.4523 10.1562 11.5845 10.3007C11.7167 10.4387 11.7829 10.6095 11.7829 10.8066C11.7829 10.9708 11.7233 11.1022 11.6109 11.2139C11.4919 11.3255 11.3332 11.3781 11.1283 11.3781C10.7778 11.3781 10.4869 11.2401 10.2554 10.9642C10.024 10.6883 9.91162 10.327 9.91162 9.87372C9.91162 9.44014 10.024 9.04598 10.2422 8.6978C10.4604 8.34963 10.7646 8.08029 11.1547 7.88321C11.5448 7.68613 11.9812 7.58759 12.4573 7.58759C13.0061 7.58759 13.4954 7.6927 13.9318 7.89634C14.3682 8.09999 14.712 8.39561 14.9567 8.77664C15.208 9.15766 15.327 9.61094 15.327 10.1299C15.327 10.6489 15.1418 11.1153 14.7782 11.5358C14.4079 11.9496 13.9252 12.3701 13.3301 12.7971L12.0738 13.7628C11.7167 14.0124 11.439 14.2423 11.2473 14.4723C11.0555 14.6956 10.9563 14.9321 10.9563 15.1686C10.9563 15.3723 11.0886 15.4774 11.3531 15.4774H13.7797C14.1236 15.4774 14.3616 15.4051 14.5071 15.254C14.6459 15.1029 14.7451 14.8927 14.798 14.6234L14.9369 13.8679H15.2212L15.0427 16.5219H10.0372C10.0372 16.0423 10.1232 15.5759 10.3017 15.1226Z" fill="#272425"/>
<path d="M101.86 137.03C101.682 137.49 101.279 137.982 100.657 138.508L99.4272 139.553C99.0238 139.888 98.7197 140.249 98.5081 140.65C98.2965 141.05 98.1907 141.51 98.1907 142.029C98.1907 142.693 98.356 143.205 98.68 143.566C99.004 143.928 99.4668 144.105 100.069 144.105C100.34 144.105 100.604 144.039 100.855 143.915C101.107 143.79 101.312 143.619 101.47 143.409C101.629 143.198 101.708 142.988 101.708 142.765C101.708 142.561 101.662 142.41 101.569 142.312C101.477 142.213 101.345 142.154 101.186 142.128C100.915 142.088 100.71 141.996 100.578 141.852C100.445 141.714 100.379 141.543 100.379 141.346C100.379 141.182 100.439 141.05 100.551 140.939C100.67 140.827 100.829 140.774 101.034 140.774C101.384 140.774 101.675 140.912 101.907 141.188C102.138 141.464 102.251 141.826 102.251 142.279C102.251 142.712 102.138 143.107 101.92 143.455C101.702 143.803 101.398 144.072 101.007 144.269C100.617 144.466 100.181 144.565 99.7049 144.565C99.1561 144.565 98.6668 144.46 98.2304 144.256C97.794 144.053 97.4501 143.757 97.2055 143.376C96.9542 142.995 96.8352 142.542 96.8352 142.023C96.8352 141.504 97.0203 141.037 97.384 140.617C97.7543 140.203 98.237 139.782 98.8321 139.355L100.088 138.39C100.445 138.14 100.723 137.91 100.915 137.68C101.107 137.457 101.206 137.22 101.206 136.984C101.206 136.78 101.074 136.675 100.809 136.675H98.3824C98.0386 136.675 97.8006 136.747 97.6551 136.898C97.5163 137.05 97.4171 137.26 97.3642 137.529L97.2253 138.285H96.941L97.1195 135.631H102.125C102.125 136.104 102.039 136.57 101.86 137.03Z" fill="#272425"/>
<path d="M9.75949 22.408C10.4405 23.1504 11.4919 22.7102 11.4919 22.7102C11.201 23.019 11.0026 23.2686 11.0423 23.781C11.0423 23.8007 11.0423 23.8139 11.0423 23.8336C11.0423 24.6482 11.7035 25.3051 12.5234 25.3051C13.3433 25.3051 14.0045 24.6482 14.0045 23.8336C14.0045 23.7285 13.9913 23.6299 13.9715 23.538C13.9384 23.1832 13.7599 22.973 13.5218 22.7168C13.5218 22.7168 14.5732 23.1569 15.2542 22.4146C15.9353 21.6723 15.598 20.792 15.3798 20.5029C15.1616 20.2139 14.8443 19.7277 14.0839 19.7869C13.4094 19.8394 13.3102 19.9511 12.8474 20.319C12.9003 19.3139 13.5152 18.6241 13.5152 18.6241H13.4755H12.5035H11.5316H11.4919C11.8622 19.0117 12.1928 19.9051 12.1531 20.3124C11.7035 19.9511 11.5977 19.8394 10.9299 19.7934C10.1695 19.7343 9.84546 20.2204 9.63387 20.5095C9.42228 20.7854 9.07844 21.6657 9.75949 22.408Z" fill="#151515"/>
<path d="M65.3216 27.0657C62.9545 24.4971 59.3244 26.0211 59.3244 26.0211C60.3426 24.9438 61.0171 24.0832 60.8915 22.316C60.8915 22.2569 60.8981 22.1978 60.8981 22.1387C60.8981 19.327 58.6037 17.0474 55.7736 17.0474C52.9436 17.0474 50.6492 19.327 50.6492 22.1387C50.6492 22.4934 50.6889 22.8416 50.755 23.1701C50.874 24.3919 51.4823 25.1343 52.3155 26.0211C52.3155 26.0211 48.6788 24.4971 46.3182 27.0657C43.9511 29.6343 45.1347 32.6759 45.8818 33.681C46.629 34.6795 47.7399 36.3613 50.3715 36.1708C52.699 36 53.0428 35.6058 54.643 34.3379C54.4512 37.8263 52.3221 40.2109 52.3221 40.2109H52.4543H55.8265H59.1987H59.331C58.0416 38.8642 56.9043 35.7766 57.0498 34.3708C58.6169 35.6124 58.9739 36 61.275 36.1708C63.9 36.3679 65.0175 34.6861 65.7646 33.681C66.5052 32.6759 67.6888 29.6343 65.3216 27.0657Z" fill="#151515"/>
<path d="M95.9294 129.58C96.6105 128.838 97.6618 129.278 97.6618 129.278C97.3709 128.969 97.1725 128.72 97.2122 128.207C97.2122 128.188 97.2122 128.174 97.2122 128.155C97.2122 127.34 97.8734 126.683 98.6933 126.683C99.5132 126.683 100.174 127.34 100.174 128.155C100.174 128.26 100.161 128.358 100.141 128.45C100.108 128.805 99.9298 129.015 99.6917 129.271C99.6917 129.271 100.743 128.831 101.424 129.574C102.105 130.316 101.768 131.196 101.55 131.485C101.332 131.774 101.014 132.261 100.254 132.201C99.5793 132.149 99.4802 132.037 99.0173 131.669C99.0702 132.674 99.6852 133.364 99.6852 133.364H99.6455H98.6735H97.7015H97.6618C98.0321 132.977 98.3627 132.083 98.323 131.676C97.8734 132.037 97.7676 132.149 97.0998 132.195C96.3394 132.254 96.0154 131.768 95.8038 131.479C95.5856 131.203 95.2418 130.323 95.9294 129.58Z" fill="#151515"/>
</svg>
