<svg width="110" height="153" viewBox="0 0 110 153" fill="none" xmlns="http://www.w3.org/2000/svg">
<path d="M106.072 153H3.92763C1.75884 153 0 151.253 0 149.098V3.90219C0 1.74745 1.75884 0 3.92763 0H106.072C108.241 0 110 1.74745 110 3.90219V149.098C110 151.253 108.241 153 106.072 153Z" fill="white"/>
<path d="M64.7066 27.0657C62.3395 24.4971 58.7094 26.0211 58.7094 26.0211C59.7277 24.9438 60.4021 24.0832 60.2765 22.316C60.2765 22.2569 60.2831 22.1978 60.2831 22.1387C60.2831 19.327 57.9887 17.0474 55.1587 17.0474C52.3287 17.0474 50.0342 19.327 50.0342 22.1387C50.0342 22.4934 50.0739 22.8416 50.14 23.1701C50.259 24.3919 50.8674 25.1343 51.7005 26.0211C51.7005 26.0211 48.0638 24.4971 45.7033 27.0657C43.3361 29.6343 44.5197 32.6759 45.2668 33.681C46.014 34.6795 47.1249 36.3613 49.7565 36.1708C52.084 36 52.4278 35.6058 54.028 34.3379C53.8362 37.8263 51.7071 40.2109 51.7071 40.2109H51.8393H55.2116H58.5838H58.716C57.4266 38.8642 56.2893 35.7766 56.4348 34.3708C58.0019 35.6124 58.3589 36 60.66 36.1708C63.285 36.3679 64.4025 34.6861 65.1496 33.681C65.8902 32.6759 67.0738 29.6343 64.7066 27.0657Z" fill="#151515"/>
<path d="M64.7066 73.0577C62.3395 70.4891 58.7094 72.0132 58.7094 72.0132C59.7277 70.9358 60.4021 70.0752 60.2765 68.308C60.2765 68.2489 60.2831 68.1898 60.2831 68.1307C60.2831 65.319 57.9887 63.0394 55.1587 63.0394C52.3287 63.0394 50.0342 65.319 50.0342 68.1307C50.0342 68.4854 50.0739 68.8336 50.14 69.1621C50.259 70.384 50.8674 71.1263 51.7005 72.0132C51.7005 72.0132 48.0638 70.4891 45.7033 73.0577C43.3361 75.6263 44.5197 78.6679 45.2668 79.673C46.014 80.6715 47.1249 82.3533 49.7565 82.1628C52.084 81.992 52.4278 81.5978 54.028 80.3299C53.8362 83.8183 51.7071 86.2029 51.7071 86.2029H51.8393H55.2116H58.5838H58.716C57.4266 84.8562 56.2893 81.7686 56.4348 80.3628C58.0019 81.6044 58.3589 81.992 60.66 82.1628C63.285 82.3599 64.4025 80.6781 65.1496 79.673C65.8902 78.6679 67.0738 75.6197 64.7066 73.0577Z" fill="#151515"/>
<path d="M64.7066 121.763C62.3395 124.331 58.7094 122.807 58.7094 122.807C59.7277 123.885 60.4021 124.745 60.2765 126.512C60.2765 126.572 60.2831 126.631 60.2831 126.69C60.2831 129.502 57.9887 131.781 55.1587 131.781C52.3287 131.781 50.0342 129.502 50.0342 126.69C50.0342 126.335 50.0739 125.987 50.14 125.658C50.259 124.437 50.8674 123.694 51.7005 122.807C51.7005 122.807 48.0638 124.331 45.7033 121.763C43.3361 119.194 44.5197 116.153 45.2668 115.147C46.014 114.149 47.1249 112.467 49.7565 112.658C52.084 112.829 52.4278 113.223 54.028 114.491C53.8362 111.002 51.7071 108.618 51.7071 108.618H51.8393H55.2116H58.5838H58.716C57.4266 109.964 56.2893 113.052 56.4348 114.458C58.0019 113.216 58.3589 112.829 60.66 112.658C63.285 112.461 64.4025 114.142 65.1496 115.147C65.8902 116.153 67.0738 119.194 64.7066 121.763Z" fill="#151515"/>
<path d="M10.024 16.2723C9.58102 15.9767 9.3562 15.5497 9.3562 14.9913C9.3562 14.6825 9.44877 14.4263 9.6273 14.2095C9.80583 13.9927 10.0439 13.881 10.3348 13.881C10.5795 13.881 10.7778 13.9467 10.9167 14.0781C11.0555 14.2095 11.1283 14.3935 11.1283 14.6168C11.1283 14.7942 11.0754 14.9519 10.9696 15.0832C10.8638 15.2146 10.7249 15.2803 10.553 15.2803C10.2555 15.2803 10.1034 15.3526 10.1034 15.4971C10.1034 16.0358 10.6456 16.2986 11.7234 16.2986C12.3449 16.2986 12.8011 16.0883 13.0789 15.6613C13.3566 15.2343 13.4954 14.7285 13.4954 14.1307C13.4954 13.4475 13.3499 12.9416 13.0524 12.6C12.7549 12.2584 12.3978 12.0876 11.968 12.0876C11.8424 12.0876 11.7366 12.0942 11.6506 12.1139C11.5713 12.1336 11.4655 12.1599 11.3465 12.2059C11.0621 12.2978 10.844 12.3438 10.6919 12.3438C10.5662 12.3438 10.4472 12.311 10.3546 12.2519C10.2555 12.1927 10.2092 12.1008 10.2092 11.9825C10.2092 11.8643 10.2555 11.7723 10.348 11.7132C10.4406 11.654 10.5596 11.6212 10.6919 11.6212C10.8373 11.6212 11.0357 11.6409 11.2936 11.6869C11.4655 11.7132 11.6969 11.7263 12.0011 11.7263C12.411 11.7263 12.7284 11.5424 12.9466 11.1745C13.1648 10.8066 13.2706 10.3796 13.2706 9.9066C13.2706 9.35477 13.145 8.89492 12.8871 8.52703C12.6292 8.15915 12.2589 7.98178 11.7696 7.98178C11.2671 7.98178 10.9101 8.06061 10.6985 8.22484C10.4869 8.38908 10.3877 8.56645 10.3877 8.7701C10.3877 8.84893 10.4208 8.92776 10.4803 9.0066C10.5398 9.08543 10.6191 9.15112 10.7249 9.20368C11.0357 9.32849 11.1878 9.53871 11.1878 9.82776C11.1878 10.0051 11.1283 10.1562 11.0092 10.2679C10.8902 10.3796 10.7183 10.4387 10.4935 10.4387C10.2422 10.4387 10.0307 10.3336 9.84552 10.1234C9.66037 9.91316 9.5678 9.68324 9.5678 9.42703C9.5678 8.82922 9.79923 8.37594 10.2555 8.04747C10.7117 7.72557 11.2671 7.56134 11.9151 7.56134C12.6953 7.56134 13.3169 7.76499 13.793 8.17886C14.269 8.59273 14.5071 9.13141 14.5071 9.80149C14.5071 10.1562 14.4211 10.4781 14.2558 10.754C14.0905 11.03 13.8789 11.2533 13.6277 11.4307C13.3764 11.6081 13.1185 11.7197 12.8673 11.7789V11.884C13.1516 11.9365 13.4425 12.0548 13.7533 12.2453C14.0641 12.4358 14.322 12.692 14.5335 13.0139C14.7451 13.3358 14.8575 13.7037 14.8575 14.1241C14.8575 14.6431 14.7187 15.0964 14.4343 15.484C14.15 15.8716 13.7731 16.1672 13.297 16.3774C12.821 16.5876 12.2986 16.6927 11.7234 16.6927C11.0291 16.7124 10.4671 16.5679 10.024 16.2723Z" fill="#272425"/>
<path d="M101.06 135.874C101.503 136.169 101.728 136.596 101.728 137.155C101.728 137.464 101.636 137.72 101.457 137.937C101.279 138.153 101.041 138.258 100.75 138.258C100.505 138.258 100.307 138.193 100.168 138.061C100.029 137.93 99.9562 137.746 99.9562 137.523C99.9562 137.345 100.009 137.188 100.115 137.056C100.221 136.925 100.36 136.859 100.531 136.859C100.829 136.859 100.981 136.787 100.981 136.642C100.981 136.104 100.439 135.841 99.3611 135.841C98.7395 135.841 98.2833 136.051 98.0056 136.478C97.7279 136.905 97.589 137.411 97.589 138.009C97.589 138.692 97.7345 139.198 98.0321 139.539C98.3296 139.881 98.6867 140.052 99.1164 140.052C99.2421 140.052 99.3479 140.045 99.4338 140.026C99.5132 140.006 99.619 139.98 99.738 139.934C100.022 139.842 100.241 139.796 100.393 139.796C100.518 139.796 100.637 139.829 100.73 139.888C100.829 139.947 100.875 140.039 100.875 140.157C100.875 140.275 100.829 140.367 100.736 140.426C100.644 140.485 100.525 140.518 100.393 140.518C100.247 140.518 100.049 140.499 99.7909 140.453C99.619 140.426 99.3875 140.413 99.0834 140.413C98.6734 140.413 98.3561 140.597 98.1379 140.965C97.9197 141.333 97.8138 141.76 97.8138 142.233C97.8138 142.785 97.9395 143.245 98.1974 143.612C98.4552 143.98 98.8255 144.158 99.3148 144.158C99.8173 144.158 100.174 144.079 100.386 143.915C100.598 143.75 100.697 143.573 100.697 143.369C100.697 143.291 100.664 143.212 100.604 143.133C100.545 143.054 100.465 142.988 100.36 142.936C100.049 142.811 99.8967 142.601 99.8967 142.312C99.8967 142.134 99.9562 141.99 100.075 141.872C100.194 141.76 100.366 141.701 100.591 141.701C100.842 141.701 101.054 141.806 101.239 142.016C101.424 142.226 101.517 142.456 101.517 142.712C101.517 143.31 101.285 143.764 100.829 144.092C100.373 144.414 99.8173 144.578 99.1694 144.578C98.3891 144.578 97.7676 144.374 97.2915 143.961C96.8154 143.547 96.5774 143.008 96.5774 142.338C96.5774 141.983 96.6633 141.661 96.8286 141.385C96.9939 141.11 97.2055 140.886 97.4568 140.709C97.7081 140.531 97.9659 140.42 98.2172 140.361V140.256C97.9329 140.203 97.6419 140.085 97.3312 139.894C97.0204 139.704 96.7625 139.447 96.5509 139.126C96.3393 138.804 96.2269 138.436 96.2269 138.015C96.2269 137.496 96.3658 137.043 96.6501 136.656C96.9344 136.268 97.3113 135.972 97.7874 135.762C98.2635 135.552 98.7858 135.447 99.3611 135.447C100.049 135.434 100.617 135.578 101.06 135.874Z" fill="#272425"/>
<path d="M9.26365 22.408C9.9447 23.1504 10.996 22.7102 10.996 22.7102C10.7051 23.019 10.5067 23.2686 10.5464 23.781C10.5464 23.8007 10.5464 23.8139 10.5464 23.8336C10.5464 24.6482 11.2076 25.3051 12.0275 25.3051C12.8474 25.3051 13.5086 24.6482 13.5086 23.8336C13.5086 23.7285 13.4954 23.6299 13.4756 23.538C13.4425 23.1832 13.264 22.973 13.026 22.7168C13.026 22.7168 14.0773 23.1569 14.7584 22.4146C15.4394 21.6723 15.1022 20.792 14.884 20.5029C14.6658 20.2139 14.3484 19.7277 13.588 19.7869C12.9136 19.8394 12.8144 19.9511 12.3515 20.319C12.4044 19.3139 13.0194 18.6241 13.0194 18.6241H12.9797H12.0077H11.0357H10.996C11.3663 19.0117 11.6969 19.9051 11.6572 20.3124C11.2076 19.9511 11.1018 19.8394 10.434 19.7934C9.6736 19.7343 9.34961 20.2204 9.13802 20.5095C8.92643 20.7854 8.5826 21.6657 9.26365 22.408Z" fill="#151515"/>
<path d="M95.4335 129.58C96.1145 128.838 97.1659 129.278 97.1659 129.278C96.8749 128.969 96.6765 128.72 96.7162 128.207C96.7162 128.188 96.7162 128.174 96.7162 128.155C96.7162 127.34 97.3774 126.683 98.1974 126.683C99.0173 126.683 99.6785 127.34 99.6785 128.155C99.6785 128.26 99.6653 128.358 99.6454 128.45C99.6124 128.805 99.4338 129.015 99.1958 129.272C99.1958 129.272 100.247 128.831 100.928 129.574C101.609 130.316 101.272 131.196 101.054 131.485C100.836 131.774 100.518 132.261 99.7578 132.201C99.0834 132.149 98.9842 132.037 98.5213 131.669C98.5742 132.674 99.1892 133.364 99.1892 133.364H99.1495H98.1775H97.2055H97.1659C97.5361 132.977 97.8667 132.083 97.8271 131.676C97.3774 132.037 97.2716 132.149 96.6038 132.195C95.8434 132.254 95.5194 131.768 95.3078 131.479C95.0896 131.203 94.7458 130.323 95.4335 129.58Z" fill="#151515"/>
</svg>
