<svg width="110" height="153" viewBox="0 0 110 153" fill="none" xmlns="http://www.w3.org/2000/svg">
<path d="M106.072 153H3.92763C1.75884 153 0 151.253 0 149.098V3.90219C0 1.74745 1.75884 0 3.92763 0H106.072C108.241 0 110 1.74745 110 3.90219V149.098C110 151.253 108.241 153 106.072 153Z" fill="white"/>
<path d="M98.5741 12.0679C98.5741 12.2715 98.4088 12.4423 98.1972 12.4423C97.9856 12.4423 97.8203 12.2781 97.8203 12.0679C97.8203 11.8642 97.9856 11.6934 98.1972 11.6934C98.4088 11.6934 98.5741 11.8577 98.5741 12.0679Z" fill="white"/>
<path d="M80.642 12.0679C80.642 12.2715 80.4767 12.4423 80.2651 12.4423C80.0535 12.4423 79.8882 12.2781 79.8882 12.0679C79.8882 11.8642 80.0535 11.6934 80.2651 11.6934C80.4767 11.6934 80.642 11.8577 80.642 12.0679Z" fill="white"/>
<path d="M47.5746 12.1861C47.5746 12.3897 47.4093 12.5606 47.1977 12.5606C46.9927 12.5606 46.8208 12.3963 46.8208 12.1861C46.8208 11.9824 46.9861 11.8116 47.1977 11.8116C47.4093 11.8116 47.5746 11.9759 47.5746 12.1861Z" fill="white"/>
<path d="M98.5741 25.9555C98.5741 26.1592 98.4088 26.33 98.1972 26.33C97.9856 26.33 97.8203 26.1657 97.8203 25.9555C97.8203 25.7453 97.9856 25.5811 98.1972 25.5811C98.4088 25.5811 98.5741 25.7453 98.5741 25.9555Z" fill="white"/>
<path d="M98.5741 38.6277C98.5741 38.8314 98.4088 39.0022 98.1972 39.0022C97.9856 39.0022 97.8203 38.838 97.8203 38.6277C97.8203 38.4175 97.9856 38.2533 98.1972 38.2533C98.4088 38.2533 98.5741 38.4241 98.5741 38.6277Z" fill="white"/>
<path d="M12.4243 12.4357C12.4243 12.6394 12.259 12.8102 12.0474 12.8102C11.8425 12.8102 11.6705 12.646 11.6705 12.4357C11.6705 12.2321 11.8358 12.0613 12.0474 12.0613C12.259 12.0678 12.4243 12.2321 12.4243 12.4357Z" fill="white"/>
<path d="M30.568 12.1861C30.568 12.3897 30.4027 12.5606 30.1911 12.5606C29.9861 12.5606 29.8142 12.3963 29.8142 12.1861C29.8142 11.9824 29.9795 11.8116 30.1911 11.8116C30.3961 11.8116 30.568 11.9759 30.568 12.1861Z" fill="white"/>
<path d="M12.4243 25.6599C12.4243 25.8635 12.259 26.0343 12.0474 26.0343C11.8425 26.0343 11.6705 25.8701 11.6705 25.6599C11.6705 25.4562 11.8358 25.2854 12.0474 25.2854C12.259 25.2854 12.4243 25.4496 12.4243 25.6599Z" fill="white"/>
<path d="M12.4243 38.7131C12.4243 38.9168 12.259 39.0876 12.0474 39.0876C11.8425 39.0876 11.6705 38.9234 11.6705 38.7131C11.6705 38.5095 11.8358 38.3387 12.0474 38.3387C12.259 38.3387 12.4243 38.5095 12.4243 38.7131Z" fill="white"/>
<path d="M12.4243 51.819C12.4243 52.0226 12.259 52.1934 12.0474 52.1934C11.8425 52.1934 11.6705 52.0292 11.6705 51.819C11.6705 51.6088 11.8358 51.4445 12.0474 51.4445C12.259 51.4445 12.4243 51.6088 12.4243 51.819Z" fill="white"/>
<path d="M12.4243 60.3066C12.4243 60.5102 12.259 60.681 12.0474 60.681C11.8425 60.681 11.6705 60.5168 11.6705 60.3066C11.6705 60.1029 11.8358 59.9321 12.0474 59.9321C12.259 59.9321 12.4243 60.1029 12.4243 60.3066Z" fill="white"/>
<path d="M12.4243 69.1095C12.4243 69.3131 12.259 69.484 12.0474 69.484C11.8425 69.484 11.6705 69.3197 11.6705 69.1095C11.6705 68.9058 11.8358 68.735 12.0474 68.735C12.259 68.735 12.4243 68.8993 12.4243 69.1095Z" fill="white"/>
<path d="M12.4243 77.6036C12.4243 77.8073 12.259 77.9781 12.0474 77.9781C11.8425 77.9781 11.6705 77.8139 11.6705 77.6036C11.6705 77.4 11.8358 77.2292 12.0474 77.2292C12.259 77.2292 12.4243 77.4 12.4243 77.6036Z" fill="white"/>
<path d="M12.4243 111.6C12.4243 111.804 12.259 111.974 12.0474 111.974C11.8425 111.974 11.6705 111.81 11.6705 111.6C11.6705 111.396 11.8358 111.226 12.0474 111.226C12.259 111.226 12.4243 111.396 12.4243 111.6Z" fill="white"/>
<path d="M12.4243 120.403C12.4243 120.607 12.259 120.777 12.0474 120.777C11.8425 120.777 11.6705 120.613 11.6705 120.403C11.6705 120.199 11.8358 120.029 12.0474 120.029C12.259 120.029 12.4243 120.193 12.4243 120.403Z" fill="white"/>
<path d="M12.4243 128.976C12.4243 129.18 12.259 129.35 12.0474 129.35C11.8425 129.35 11.6705 129.186 11.6705 128.976C11.6705 128.772 11.8358 128.601 12.0474 128.601C12.259 128.601 12.4243 128.766 12.4243 128.976Z" fill="white"/>
<path d="M12.5763 141.576C12.5763 141.78 12.411 141.95 12.1994 141.95C11.9944 141.95 11.8225 141.786 11.8225 141.576C11.8225 141.372 11.9878 141.201 12.1994 141.201C12.411 141.201 12.5763 141.372 12.5763 141.576Z" fill="white"/>
<path d="M43.6403 141.95C43.6403 142.154 43.475 142.325 43.2634 142.325C43.0584 142.325 42.8865 142.161 42.8865 141.95C42.8865 141.747 43.0518 141.576 43.2634 141.576C43.4684 141.576 43.6403 141.747 43.6403 141.95Z" fill="white"/>
<path d="M61.0964 141.95C61.0964 142.154 60.9311 142.325 60.7195 142.325C60.5146 142.325 60.3427 142.161 60.3427 141.95C60.3427 141.747 60.5079 141.576 60.7195 141.576C60.9311 141.576 61.0964 141.747 61.0964 141.95Z" fill="white"/>
<path d="M78.1029 141.95C78.1029 142.154 77.9376 142.325 77.726 142.325C77.5144 142.325 77.3491 142.161 77.3491 141.95C77.3491 141.747 77.5144 141.576 77.726 141.576C77.9376 141.576 78.1029 141.747 78.1029 141.95Z" fill="white"/>
<path d="M98.5741 102.836C98.5741 103.04 98.4088 103.211 98.1972 103.211C97.9856 103.211 97.8203 103.047 97.8203 102.836C97.8203 102.626 97.9856 102.462 98.1972 102.462C98.4088 102.462 98.5741 102.626 98.5741 102.836Z" fill="white"/>
<path d="M98.5741 111.212C98.5741 111.416 98.4088 111.587 98.1972 111.587C97.9856 111.587 97.8203 111.423 97.8203 111.212C97.8203 111.002 97.9856 110.838 98.1972 110.838C98.4088 110.838 98.5741 111.009 98.5741 111.212Z" fill="white"/>
<path d="M98.5741 119.477C98.5741 119.68 98.4088 119.851 98.1972 119.851C97.9856 119.851 97.8203 119.687 97.8203 119.477C97.8203 119.273 97.9856 119.102 98.1972 119.102C98.4088 119.102 98.5741 119.266 98.5741 119.477Z" fill="white"/>
<path d="M98.5741 127.912C98.5741 128.115 98.4088 128.286 98.1972 128.286C97.9856 128.286 97.8203 128.122 97.8203 127.912C97.8203 127.708 97.9856 127.537 98.1972 127.537C98.4088 127.537 98.5741 127.701 98.5741 127.912Z" fill="white"/>
<path d="M98.5741 140.768C98.5741 140.972 98.4088 141.142 98.1972 141.142C97.9856 141.142 97.8203 140.978 97.8203 140.768C97.8203 140.564 97.9856 140.393 98.1972 140.393C98.4088 140.393 98.5741 140.558 98.5741 140.768Z" fill="white"/>
<path d="M45.2934 27.0657C42.9262 24.4971 39.2961 26.0211 39.2961 26.0211C40.3144 24.9438 40.9888 24.0832 40.8632 22.316C40.8632 22.2569 40.8698 22.1978 40.8698 22.1387C40.8698 19.327 38.5754 17.0474 35.7454 17.0474C32.9154 17.0474 30.621 19.327 30.621 22.1387C30.621 22.4934 30.6606 22.8416 30.7268 23.1701C30.8458 24.3919 31.4541 25.1343 32.2872 26.0211C32.2872 26.0211 28.6506 24.4971 26.29 27.0657C23.9295 29.6343 25.1064 32.6759 25.8536 33.681C26.6008 34.6795 27.7116 36.3613 30.3433 36.1708C32.6708 36 33.0146 35.6058 34.6147 34.3379C34.423 37.8263 32.2938 40.2109 32.2938 40.2109H32.4261H35.7983H39.1705H39.3028C38.0134 38.8642 36.8761 35.7766 37.0215 34.3708C38.5886 35.6124 38.9457 36 41.2467 36.1708C43.8718 36.3679 44.9892 34.6861 45.7364 33.681C46.477 32.6759 47.6605 29.6343 45.2934 27.0657Z" fill="#151515"/>
<path d="M82.7447 27.0657C80.3775 24.4971 76.7474 26.0211 76.7474 26.0211C77.7657 24.9438 78.4402 24.0832 78.3145 22.316C78.3145 22.2569 78.3211 22.1978 78.3211 22.1387C78.3211 19.327 76.0267 17.0474 73.1967 17.0474C70.3667 17.0474 68.0723 19.327 68.0723 22.1387C68.0723 22.4934 68.1119 22.8416 68.1781 23.1701C68.2971 24.3919 68.9054 25.1343 69.7385 26.0211C69.7385 26.0211 66.1018 24.4971 63.7413 27.0657C61.3808 29.6343 62.5577 32.6759 63.3049 33.681C64.0521 34.6795 65.1629 36.3613 67.7946 36.1708C70.122 36 70.4659 35.6058 72.066 34.3379C71.8743 37.8263 69.7451 40.2109 69.7451 40.2109H69.8774H73.2496H76.6218H76.7541C75.4647 38.8642 74.3274 35.7766 74.4729 34.3708C76.0399 35.6124 76.397 36 78.698 36.1708C81.3231 36.3679 82.4405 34.6861 83.1877 33.681C83.9283 32.6759 85.1118 29.6343 82.7447 27.0657Z" fill="#151515"/>
<path d="M10.2753 16.1015H11.5184C11.6374 16.1015 11.7234 16.0752 11.7829 16.0226C11.8358 15.9701 11.8688 15.8847 11.8688 15.7664V14.0584H8.60901V13.5986L12.5895 7.77155H13.0524V13.5986H14.6062V14.0584H13.0524V15.7664C13.0524 15.8847 13.0788 15.9701 13.1383 16.0226C13.1912 16.0752 13.2838 16.1015 13.4028 16.1015H14.6459V16.5088H10.2819V16.1015H10.2753ZM9.1975 13.6051H11.8688V9.70293L9.1975 13.6051Z" fill="#272425"/>
<path d="M99.7248 136.051H98.4817C98.3626 136.051 98.2767 136.077 98.2172 136.13C98.1643 136.182 98.1312 136.268 98.1312 136.386V138.094H101.391V138.554L97.4105 144.381H96.9476V138.554H95.3938V138.094H96.9476V136.386C96.9476 136.268 96.9212 136.182 96.8617 136.13C96.8088 136.077 96.7162 136.051 96.5972 136.051H95.3541V135.644H99.7181V136.051H99.7248ZM100.803 138.547H98.1312V142.45L100.803 138.547Z" fill="#272425"/>
<path d="M8.7744 22.408C9.45546 23.1504 10.5068 22.7102 10.5068 22.7102C10.2159 23.019 10.0175 23.2686 10.0572 23.781C10.0572 23.8007 10.0572 23.8139 10.0572 23.8336C10.0572 24.6482 10.7184 25.3051 11.5383 25.3051C12.3582 25.3051 13.0194 24.6482 13.0194 23.8336C13.0194 23.7285 13.0062 23.6299 12.9864 23.538C12.9533 23.1832 12.7748 22.973 12.5367 22.7168C12.5367 22.7168 13.5881 23.1569 14.2691 22.4146C14.9502 21.6723 14.6129 20.792 14.3947 20.5029C14.1765 20.2139 13.8592 19.7277 13.0988 19.7869C12.4243 19.8394 12.3251 19.9511 11.8623 20.319C11.9152 19.3139 12.5301 18.6241 12.5301 18.6241H12.4905H11.5185H10.5465H10.5068C10.8771 19.0117 11.2077 19.9051 11.168 20.3124C10.7184 19.9511 10.6126 19.8394 9.94477 19.7934C9.18437 19.7343 8.86036 20.2204 8.64877 20.5095C8.43057 20.7854 8.08674 21.6657 8.7744 22.408Z" fill="#151515"/>
<path d="M45.2934 121.763C42.9262 124.331 39.2961 122.807 39.2961 122.807C40.3144 123.885 40.9888 124.745 40.8632 126.512C40.8632 126.572 40.8698 126.631 40.8698 126.69C40.8698 129.502 38.5754 131.781 35.7454 131.781C32.9154 131.781 30.621 129.502 30.621 126.69C30.621 126.335 30.6606 125.987 30.7268 125.658C30.8458 124.437 31.4541 123.694 32.2872 122.807C32.2872 122.807 28.6506 124.331 26.29 121.763C23.9295 119.194 25.1064 116.153 25.8536 115.147C26.6008 114.149 27.7116 112.467 30.3433 112.658C32.6708 112.829 33.0146 113.223 34.6147 114.491C34.423 111.002 32.2938 108.618 32.2938 108.618H32.4261H35.7983H39.1705H39.3028C38.0134 109.964 36.8761 113.052 37.0215 114.458C38.5886 113.216 38.9457 112.829 41.2467 112.658C43.8718 112.461 44.9892 114.142 45.7364 115.147C46.477 116.153 47.6605 119.194 45.2934 121.763Z" fill="#151515"/>
<path d="M82.7447 121.763C80.3775 124.331 76.7474 122.807 76.7474 122.807C77.7657 123.885 78.4402 124.745 78.3145 126.512C78.3145 126.572 78.3211 126.631 78.3211 126.69C78.3211 129.502 76.0267 131.781 73.1967 131.781C70.3667 131.781 68.0723 129.502 68.0723 126.69C68.0723 126.335 68.1119 125.987 68.1781 125.658C68.2971 124.437 68.9054 123.694 69.7385 122.807C69.7385 122.807 66.1018 124.331 63.7413 121.763C61.3808 119.194 62.5577 116.153 63.3049 115.147C64.0521 114.149 65.1629 112.467 67.7946 112.658C70.122 112.829 70.4659 113.223 72.066 114.491C71.8743 111.002 69.7451 108.618 69.7451 108.618H69.8774H73.2496H76.6218H76.7541C75.4647 109.964 74.3274 113.052 74.4729 114.458C76.0399 113.216 76.397 112.829 78.698 112.658C81.3231 112.461 82.4405 114.142 83.1877 115.147C83.9283 116.153 85.1118 119.194 82.7447 121.763Z" fill="#151515"/>
<path d="M94.9375 129.58C95.6185 128.838 96.6698 129.278 96.6698 129.278C96.3789 128.969 96.1805 128.72 96.2202 128.207C96.2202 128.188 96.2202 128.174 96.2202 128.155C96.2202 127.34 96.8814 126.683 97.7013 126.683C98.5212 126.683 99.1825 127.34 99.1825 128.155C99.1825 128.26 99.1692 128.358 99.1494 128.45C99.1163 128.805 98.9378 129.015 98.6998 129.272C98.6998 129.272 99.7511 128.831 100.432 129.574C101.113 130.316 100.776 131.196 100.558 131.485C100.34 131.774 100.022 132.261 99.2618 132.201C98.5874 132.149 98.4882 132.037 98.0253 131.669C98.0782 132.674 98.6932 133.364 98.6932 133.364H98.6535H97.6815H96.7095H96.6698C97.0401 132.977 97.3707 132.083 97.3311 131.676C96.8814 132.037 96.7756 132.149 96.1078 132.195C95.3474 132.254 95.0234 131.768 94.8118 131.479C94.5936 131.203 94.2564 130.323 94.9375 129.58Z" fill="#151515"/>
</svg>
