<svg width="110" height="153" viewBox="0 0 110 153" fill="none" xmlns="http://www.w3.org/2000/svg">
<path d="M106.066 153H3.92763C1.75884 153 0 151.253 0 149.098V3.90219C0 1.74745 1.75884 0 3.92763 0H106.072C108.241 0 110 1.74745 110 3.90219V149.098C109.993 151.253 108.235 153 106.066 153Z" fill="white"/>
<path d="M98.5675 12.0679C98.5675 12.2715 98.4022 12.4423 98.1906 12.4423C97.979 12.4423 97.8137 12.2781 97.8137 12.0679C97.8137 11.8642 97.979 11.6934 98.1906 11.6934C98.4022 11.6934 98.5675 11.8577 98.5675 12.0679Z" fill="white"/>
<path d="M80.6354 12.0679C80.6354 12.2715 80.4701 12.4423 80.2585 12.4423C80.0469 12.4423 79.8816 12.2781 79.8816 12.0679C79.8816 11.8642 80.0469 11.6934 80.2585 11.6934C80.4701 11.6934 80.6354 11.8577 80.6354 12.0679Z" fill="white"/>
<path d="M64.1314 12.0679C64.1314 12.2715 63.9661 12.4423 63.7545 12.4423C63.5429 12.4423 63.3776 12.2781 63.3776 12.0679C63.3776 11.8642 63.5429 11.6934 63.7545 11.6934C63.9661 11.6934 64.1314 11.8577 64.1314 12.0679Z" fill="white"/>
<path d="M47.568 12.1861C47.568 12.3897 47.4027 12.5606 47.1911 12.5606C46.9861 12.5606 46.8142 12.3963 46.8142 12.1861C46.8142 11.9824 46.9795 11.8116 47.1911 11.8116C47.4027 11.8116 47.568 11.9759 47.568 12.1861Z" fill="white"/>
<path d="M98.5675 25.9555C98.5675 26.1592 98.4022 26.33 98.1906 26.33C97.979 26.33 97.8137 26.1657 97.8137 25.9555C97.8137 25.7453 97.979 25.5811 98.1906 25.5811C98.4022 25.5811 98.5675 25.7453 98.5675 25.9555Z" fill="white"/>
<path d="M98.5675 38.6277C98.5675 38.8314 98.4022 39.0022 98.1906 39.0022C97.979 39.0022 97.8137 38.838 97.8137 38.6277C97.8137 38.4175 97.979 38.2533 98.1906 38.2533C98.4022 38.2533 98.5675 38.4241 98.5675 38.6277Z" fill="white"/>
<path d="M98.5675 51.911C98.5675 52.1146 98.4022 52.2854 98.1906 52.2854C97.979 52.2854 97.8137 52.1212 97.8137 51.911C97.8137 51.7073 97.979 51.5365 98.1906 51.5365C98.4022 51.5365 98.5675 51.7007 98.5675 51.911Z" fill="white"/>
<path d="M98.5675 60.3066C98.5675 60.5102 98.4022 60.681 98.1906 60.681C97.979 60.681 97.8137 60.5168 97.8137 60.3066C97.8137 60.1029 97.979 59.9321 98.1906 59.9321C98.4022 59.9321 98.5675 60.1029 98.5675 60.3066Z" fill="white"/>
<path d="M98.5675 68.735C98.5675 68.9387 98.4022 69.1095 98.1906 69.1095C97.979 69.1095 97.8137 68.9453 97.8137 68.735C97.8137 68.5248 97.979 68.3606 98.1906 68.3606C98.4022 68.3606 98.5675 68.5248 98.5675 68.735Z" fill="white"/>
<path d="M12.4176 12.4357C12.4176 12.6394 12.2523 12.8102 12.0407 12.8102C11.8291 12.8102 11.6638 12.646 11.6638 12.4357C11.6638 12.2321 11.8291 12.0613 12.0407 12.0613C12.2523 12.0613 12.4176 12.2321 12.4176 12.4357Z" fill="white"/>
<path d="M30.5615 12.1861C30.5615 12.3897 30.3962 12.5606 30.1846 12.5606C29.9796 12.5606 29.8077 12.3963 29.8077 12.1861C29.8077 11.9824 29.973 11.8116 30.1846 11.8116C30.3896 11.8116 30.5615 11.9759 30.5615 12.1861Z" fill="white"/>
<path d="M12.4176 25.6599C12.4176 25.8635 12.2523 26.0343 12.0407 26.0343C11.8291 26.0343 11.6638 25.8701 11.6638 25.6599C11.6638 25.4562 11.8291 25.2854 12.0407 25.2854C12.2523 25.2854 12.4176 25.4496 12.4176 25.6599Z" fill="white"/>
<path d="M12.4176 38.7131C12.4176 38.9168 12.2523 39.0876 12.0407 39.0876C11.8291 39.0876 11.6638 38.9234 11.6638 38.7131C11.6638 38.5095 11.8291 38.3387 12.0407 38.3387C12.2523 38.3387 12.4176 38.5095 12.4176 38.7131Z" fill="white"/>
<path d="M12.4176 51.819C12.4176 52.0226 12.2523 52.1934 12.0407 52.1934C11.8291 52.1934 11.6638 52.0292 11.6638 51.819C11.6638 51.6088 11.8291 51.4445 12.0407 51.4445C12.2523 51.4445 12.4176 51.6088 12.4176 51.819Z" fill="white"/>
<path d="M12.4176 60.3066C12.4176 60.5102 12.2523 60.681 12.0407 60.681C11.8291 60.681 11.6638 60.5168 11.6638 60.3066C11.6638 60.1029 11.8291 59.9321 12.0407 59.9321C12.2523 59.9321 12.4176 60.1029 12.4176 60.3066Z" fill="white"/>
<path d="M12.4176 69.1095C12.4176 69.3131 12.2523 69.484 12.0407 69.484C11.8291 69.484 11.6638 69.3197 11.6638 69.1095C11.6638 68.9058 11.8291 68.735 12.0407 68.735C12.2523 68.735 12.4176 68.8993 12.4176 69.1095Z" fill="white"/>
<path d="M12.4176 77.6036C12.4176 77.8073 12.2523 77.9781 12.0407 77.9781C11.8291 77.9781 11.6638 77.8139 11.6638 77.6036C11.6638 77.4 11.8291 77.2292 12.0407 77.2292C12.2523 77.2292 12.4176 77.4 12.4176 77.6036Z" fill="white"/>
<path d="M12.4176 86.0913C12.4176 86.2949 12.2523 86.4657 12.0407 86.4657C11.8291 86.4657 11.6638 86.3015 11.6638 86.0913C11.6638 85.8876 11.8291 85.7168 12.0407 85.7168C12.2523 85.7168 12.4176 85.8876 12.4176 86.0913Z" fill="white"/>
<path d="M12.4176 94.8942C12.4176 95.0978 12.2523 95.2686 12.0407 95.2686C11.8291 95.2686 11.6638 95.1044 11.6638 94.8942C11.6638 94.6905 11.8291 94.5197 12.0407 94.5197C12.2523 94.5197 12.4176 94.6905 12.4176 94.8942Z" fill="white"/>
<path d="M12.4176 103.717C12.4176 103.92 12.2523 104.091 12.0407 104.091C11.8291 104.091 11.6638 103.927 11.6638 103.717C11.6638 103.513 11.8291 103.342 12.0407 103.342C12.2523 103.342 12.4176 103.513 12.4176 103.717Z" fill="white"/>
<path d="M12.4176 111.6C12.4176 111.804 12.2523 111.974 12.0407 111.974C11.8291 111.974 11.6638 111.81 11.6638 111.6C11.6638 111.396 11.8291 111.226 12.0407 111.226C12.2523 111.226 12.4176 111.396 12.4176 111.6Z" fill="white"/>
<path d="M12.4176 120.403C12.4176 120.607 12.2523 120.777 12.0407 120.777C11.8291 120.777 11.6638 120.613 11.6638 120.403C11.6638 120.199 11.8291 120.029 12.0407 120.029C12.2523 120.029 12.4176 120.193 12.4176 120.403Z" fill="white"/>
<path d="M12.4176 128.976C12.4176 129.18 12.2523 129.35 12.0407 129.35C11.8291 129.35 11.6638 129.186 11.6638 128.976C11.6638 128.772 11.8291 128.601 12.0407 128.601C12.2523 128.601 12.4176 128.766 12.4176 128.976Z" fill="white"/>
<path d="M12.5697 141.576C12.5697 141.78 12.4044 141.95 12.1928 141.95C11.9878 141.95 11.8159 141.786 11.8159 141.576C11.8159 141.372 11.9812 141.201 12.1928 141.201C12.4044 141.201 12.5697 141.372 12.5697 141.576Z" fill="white"/>
<path d="M26.1444 141.95C26.1444 142.154 25.9791 142.325 25.7675 142.325C25.5559 142.325 25.3906 142.161 25.3906 141.95C25.3906 141.747 25.5559 141.576 25.7675 141.576C25.9791 141.576 26.1444 141.747 26.1444 141.95Z" fill="white"/>
<path d="M43.6337 141.95C43.6337 142.154 43.4684 142.325 43.2568 142.325C43.0518 142.325 42.8799 142.161 42.8799 141.95C42.8799 141.747 43.0452 141.576 43.2568 141.576C43.4618 141.576 43.6337 141.747 43.6337 141.95Z" fill="white"/>
<path d="M61.0899 141.95C61.0899 142.154 60.9245 142.325 60.713 142.325C60.5014 142.325 60.3361 142.161 60.3361 141.95C60.3361 141.747 60.5014 141.576 60.713 141.576C60.9245 141.576 61.0899 141.747 61.0899 141.95Z" fill="white"/>
<path d="M78.0963 141.95C78.0963 142.154 77.931 142.325 77.7194 142.325C77.5078 142.325 77.3425 142.161 77.3425 141.95C77.3425 141.747 77.5078 141.576 77.7194 141.576C77.931 141.576 78.0963 141.747 78.0963 141.95Z" fill="white"/>
<path d="M98.5675 77.3934C98.5675 77.5971 98.4022 77.7679 98.1906 77.7679C97.979 77.7679 97.8137 77.6037 97.8137 77.3934C97.8137 77.1832 97.979 77.019 98.1906 77.019C98.4022 77.019 98.5675 77.1898 98.5675 77.3934Z" fill="white"/>
<path d="M98.5675 85.4935C98.5675 85.6971 98.4022 85.8679 98.1906 85.8679C97.979 85.8679 97.8137 85.7037 97.8137 85.4935C97.8137 85.2898 97.979 85.119 98.1906 85.119C98.4022 85.119 98.5675 85.2898 98.5675 85.4935Z" fill="white"/>
<path d="M98.5675 94.2241C98.5675 94.4277 98.4022 94.5985 98.1906 94.5985C97.979 94.5985 97.8137 94.4343 97.8137 94.2241C97.8137 94.0204 97.979 93.8496 98.1906 93.8496C98.4022 93.8496 98.5675 94.0204 98.5675 94.2241Z" fill="white"/>
<path d="M98.5675 102.836C98.5675 103.04 98.4022 103.211 98.1906 103.211C97.979 103.211 97.8137 103.047 97.8137 102.836C97.8137 102.626 97.979 102.462 98.1906 102.462C98.4022 102.462 98.5675 102.626 98.5675 102.836Z" fill="white"/>
<path d="M98.5675 111.212C98.5675 111.416 98.4022 111.587 98.1906 111.587C97.979 111.587 97.8137 111.423 97.8137 111.212C97.8137 111.002 97.979 110.838 98.1906 110.838C98.4022 110.838 98.5675 111.009 98.5675 111.212Z" fill="white"/>
<path d="M98.5675 119.477C98.5675 119.68 98.4022 119.851 98.1906 119.851C97.979 119.851 97.8137 119.687 97.8137 119.477C97.8137 119.273 97.979 119.102 98.1906 119.102C98.4022 119.102 98.5675 119.266 98.5675 119.477Z" fill="white"/>
<path d="M98.5675 127.912C98.5675 128.115 98.4022 128.286 98.1906 128.286C97.979 128.286 97.8137 128.122 97.8137 127.912C97.8137 127.708 97.979 127.537 98.1906 127.537C98.4022 127.537 98.5675 127.701 98.5675 127.912Z" fill="white"/>
<path d="M98.5675 140.768C98.5675 140.972 98.4022 141.142 98.1906 141.142C97.979 141.142 97.8137 140.978 97.8137 140.768C97.8137 140.564 97.979 140.393 98.1906 140.393C98.4022 140.393 98.5675 140.558 98.5675 140.768Z" fill="white"/>
<path d="M14.0508 23.538C13.3698 22.7956 12.3184 23.2358 12.3184 23.2358C12.6094 22.927 12.8077 22.6774 12.7681 22.165C12.7681 22.1452 12.7681 22.1321 12.7681 22.1124C12.7681 21.2978 12.1068 20.6409 11.2869 20.6409C10.467 20.6409 9.80582 21.2978 9.80582 22.1124C9.80582 22.2175 9.81903 22.3161 9.83887 22.408C9.87193 22.7628 10.0505 22.973 10.2885 23.2292C10.2885 23.2292 9.23716 22.789 8.55611 23.5314C7.87505 24.2737 8.21227 25.154 8.43047 25.4431C8.64868 25.7321 8.96603 26.2182 9.72643 26.1591C10.4009 26.1066 10.5001 25.9949 10.9629 25.627C10.91 26.6321 10.2951 27.3219 10.2951 27.3219H10.3348H11.3068H12.2788H12.3184C11.9482 26.9343 11.6175 26.0409 11.6572 25.6336C12.1068 25.9949 12.2126 26.1066 12.8804 26.1525C13.6408 26.2117 13.9649 25.7255 14.1764 25.4365C14.3947 25.1606 14.7319 24.2803 14.0508 23.538Z" fill="#151515"/>
<path d="M9.15776 18.0722C8.80731 17.908 8.53623 17.6847 8.35109 17.3956C8.16595 17.1131 8.06677 16.7912 8.06677 16.443C8.06677 16.0423 8.17255 15.7401 8.37752 15.5233C8.5825 15.3131 8.82056 15.208 9.09827 15.208C9.32969 15.208 9.50823 15.2803 9.64047 15.4182C9.77271 15.5562 9.83883 15.7336 9.83883 15.9503C9.83883 16.0949 9.79254 16.2263 9.7132 16.3511C9.62724 16.4759 9.51483 16.5679 9.38259 16.627C9.26357 16.6861 9.171 16.7452 9.09827 16.8044C9.03215 16.8635 8.99245 16.9423 8.99245 17.0474C8.99245 17.3168 9.09827 17.5336 9.30986 17.6847C9.52145 17.8357 9.8851 17.9146 10.4008 17.9146C11.0356 17.9146 11.4919 17.6452 11.7762 17.1C12.0605 16.5547 12.1994 15.8649 12.1994 15.0372C12.1994 14.2555 12.0605 13.6576 11.7894 13.2372C11.5183 12.8233 11.0687 12.6131 10.4538 12.6131C10.2025 12.6131 9.99088 12.6525 9.81235 12.7248C9.63383 12.7971 9.44871 12.9284 9.26357 13.1124C9.17761 13.1978 9.10488 13.3095 9.05198 13.4474C8.99908 13.5854 8.96602 13.7102 8.96602 13.8087C8.96602 13.9007 8.93958 13.9795 8.89329 14.0387C8.84701 14.0978 8.78748 14.1306 8.70813 14.1306C8.56928 14.1306 8.50316 14.0255 8.50316 13.8087V9.40728L8.78748 9.19049C8.966 9.34159 9.23049 9.47297 9.57433 9.57151C9.91816 9.67662 10.2422 9.72261 10.5463 9.72261C10.9563 9.72261 11.3266 9.68319 11.6638 9.61093C12.001 9.5321 12.3382 9.39414 12.6887 9.19049L12.8407 9.36786C12.53 9.76859 12.1531 10.0905 11.7035 10.3336C11.2538 10.5766 10.7777 10.6949 10.2752 10.6949C9.95783 10.6949 9.70659 10.6752 9.51484 10.6357C9.3297 10.5963 9.14455 10.5306 8.96602 10.4387V12.8759L9.04536 12.9022C9.25034 12.6657 9.50161 12.4817 9.79916 12.3503C10.0967 12.219 10.4008 12.1533 10.7182 12.1533C11.6175 12.1533 12.3184 12.416 12.8143 12.9416C13.3168 13.4671 13.5681 14.1635 13.5681 15.0306C13.5681 15.6482 13.4226 16.2131 13.1383 16.7124C12.854 17.2117 12.4705 17.6058 11.9878 17.8949C11.5117 18.1774 10.9827 18.3219 10.4075 18.3219C9.91816 18.3219 9.5082 18.2365 9.15776 18.0722Z" fill="black"/>
<path d="M94.7524 132.412C95.4334 133.154 96.4848 132.714 96.4848 132.714C96.1938 133.023 95.9955 133.272 96.0352 133.785C96.0352 133.804 96.0352 133.818 96.0352 133.837C96.0352 134.652 96.6964 135.309 97.5163 135.309C98.3362 135.309 98.9974 134.652 98.9974 133.837C98.9974 133.732 98.9842 133.634 98.9643 133.542C98.9313 133.187 98.7528 132.977 98.5147 132.72C98.5147 132.72 99.5661 133.161 100.247 132.418C100.928 131.676 100.591 130.796 100.373 130.507C100.155 130.218 99.8371 129.731 99.0767 129.791C98.4023 129.843 98.3031 129.955 97.8403 130.323C97.8932 129.318 98.5081 128.628 98.5081 128.628H98.4684H97.4965H96.5245H96.4848C96.8551 129.015 97.1857 129.909 97.146 130.316C96.6964 129.955 96.5906 129.843 95.9228 129.797C95.1624 129.738 94.8384 130.224 94.6268 130.513C94.4086 130.789 94.0713 131.669 94.7524 132.412Z" fill="#151515"/>
<path d="M99.6453 137.884C99.9958 138.048 100.267 138.272 100.452 138.561C100.637 138.843 100.736 139.165 100.736 139.513C100.736 139.914 100.631 140.216 100.426 140.433C100.221 140.643 99.9825 140.748 99.7048 140.748C99.4734 140.748 99.2948 140.676 99.156 140.538C99.0237 140.4 98.9576 140.223 98.9576 140.006C98.9576 139.861 99.0039 139.73 99.0833 139.605C99.1692 139.48 99.2816 139.388 99.4139 139.329C99.5329 139.27 99.6255 139.211 99.6982 139.152C99.7643 139.093 99.804 139.014 99.804 138.909C99.804 138.639 99.6982 138.423 99.4866 138.272C99.275 138.12 98.9114 138.042 98.3956 138.042C97.7608 138.042 97.3046 138.311 97.0203 138.856C96.7359 139.401 96.5971 140.091 96.5971 140.919C96.5971 141.701 96.7359 142.299 97.007 142.719C97.2781 143.133 97.7278 143.343 98.3427 143.343C98.594 143.343 98.8056 143.304 98.9841 143.231C99.1626 143.159 99.3477 143.028 99.5329 142.844C99.6188 142.758 99.6916 142.647 99.7445 142.509C99.7974 142.371 99.8304 142.246 99.8304 142.147C99.8304 142.055 99.8569 141.977 99.9032 141.917C99.9494 141.858 100.009 141.826 100.088 141.826C100.227 141.826 100.293 141.931 100.293 142.147V146.549L100.009 146.766C99.8304 146.615 99.566 146.483 99.2221 146.385C98.8783 146.286 98.5543 146.234 98.2501 146.234C97.8402 146.234 97.4699 146.273 97.1327 146.345C96.7954 146.424 96.4582 146.562 96.1078 146.766L95.9557 146.588C96.2665 146.188 96.6434 145.866 97.093 145.629C97.5426 145.386 98.0187 145.268 98.5212 145.268C98.8386 145.268 99.0899 145.288 99.2816 145.327C99.4668 145.366 99.6519 145.432 99.8304 145.524V143.087L99.7511 143.061C99.5461 143.297 99.2948 143.481 98.9973 143.612C98.6997 143.744 98.3956 143.809 98.0782 143.809C97.179 143.809 96.4781 143.547 95.9821 143.021C95.4796 142.496 95.2284 141.799 95.2284 140.932C95.2284 140.315 95.3738 139.75 95.6582 139.25C95.9425 138.751 96.326 138.357 96.8087 138.068C97.2847 137.785 97.8137 137.641 98.389 137.641C98.8783 137.634 99.2949 137.72 99.6453 137.884Z" fill="black"/>
<path d="M45.69 30.7314C43.3229 28.1628 39.6928 29.6869 39.6928 29.6869C40.711 28.6095 41.3855 27.7489 41.2598 25.9817C41.2598 25.9226 41.2665 25.8635 41.2665 25.8044C41.2665 22.9927 38.972 20.7131 36.142 20.7131C33.312 20.7131 31.0176 22.9927 31.0176 25.8044C31.0176 26.1591 31.0573 26.5007 31.1234 26.8358C31.2424 28.0577 31.8508 28.8 32.6839 29.6869C32.6839 29.6869 29.0472 28.1628 26.6866 30.7314C24.3195 33.3 25.5031 36.3416 26.2503 37.3467C26.9974 38.3453 28.1083 40.027 30.7399 39.8365C33.0674 39.6657 33.4112 39.2715 35.0114 38.0036C34.8196 41.492 32.6905 43.8766 32.6905 43.8766H32.8228H36.1949H39.5671H39.6994C38.41 42.5299 37.2727 39.4423 37.4182 38.0365C38.9853 39.2781 39.3423 39.6657 41.6434 39.8365C44.2684 40.0336 45.3859 38.3518 46.133 37.3467C46.867 36.3416 48.0505 33.2934 45.69 30.7314Z" fill="#151515"/>
<path d="M83.1413 30.7314C80.7742 28.1628 77.1441 29.6869 77.1441 29.6869C78.1624 28.6095 78.8368 27.7489 78.7112 25.9817C78.7112 25.9226 78.7178 25.8635 78.7178 25.8044C78.7178 22.9927 76.4234 20.7131 73.5933 20.7131C70.7633 20.7131 68.4689 22.9927 68.4689 25.8044C68.4689 26.1591 68.5086 26.5007 68.5747 26.8358C68.6937 28.0577 69.3021 28.8 70.1352 29.6869C70.1352 29.6869 66.4985 28.1628 64.138 30.7314C61.7708 33.3 62.9544 36.3416 63.7015 37.3467C64.4487 38.3453 65.5596 40.027 68.1912 39.8365C70.5187 39.6657 70.8625 39.2715 72.4627 38.0036C72.2709 41.492 70.1418 43.8766 70.1418 43.8766H70.274H73.6463H77.0184H77.1507C75.8613 42.5299 74.724 39.4423 74.8695 38.0365C76.4366 39.2781 76.7936 39.6657 79.0947 39.8365C81.7197 40.0336 82.8371 38.3518 83.5843 37.3467C84.3249 36.3416 85.5085 33.2934 83.1413 30.7314Z" fill="#151515"/>
<path d="M63.2255 76.7365C60.8584 74.1679 57.2283 75.692 57.2283 75.692C58.2466 74.6146 58.921 73.754 58.7954 71.9869C58.7954 71.9278 58.802 71.8686 58.802 71.8095C58.802 68.9978 56.5076 66.7183 53.6776 66.7183C50.8476 66.7183 48.5531 68.9978 48.5531 71.8095C48.5531 72.1642 48.5928 72.5124 48.6589 72.8409C48.7779 74.0628 49.3863 74.8051 50.2194 75.692C50.2194 75.692 46.5827 74.1679 44.2222 76.7365C41.855 79.3051 43.0386 82.3467 43.7858 83.3518C44.5329 84.3504 45.6438 86.0321 48.2754 85.8416C50.6029 85.6708 50.9467 85.2767 52.5469 84.0088C52.3551 87.4971 50.226 89.8818 50.226 89.8818H50.3583H53.7305H57.1027H57.2349C55.9456 88.5351 54.8083 85.4475 54.9537 84.0416C56.5208 85.2832 56.8779 85.6708 59.1789 85.8416C61.8039 86.0387 62.9214 84.3569 63.6685 83.3518C64.4025 82.3467 65.5861 79.3051 63.2255 76.7365Z" fill="#151515"/>
<path d="M45.69 125.428C43.3229 127.997 39.6928 126.473 39.6928 126.473C40.711 127.55 41.3855 128.411 41.2598 130.178C41.2598 130.237 41.2665 130.296 41.2665 130.355C41.2665 133.167 38.972 135.447 36.142 135.447C33.312 135.447 31.0176 133.167 31.0176 130.355C31.0176 130.001 31.0573 129.653 31.1234 129.324C31.2424 128.102 31.8508 127.36 32.6839 126.473C32.6839 126.473 29.0472 127.997 26.6866 125.428C24.3195 122.86 25.5031 119.818 26.2503 118.813C26.9974 117.815 28.1083 116.133 30.7399 116.323C33.0674 116.494 33.4112 116.888 35.0114 118.156C34.8196 114.668 32.6905 112.283 32.6905 112.283H32.8228H36.1949H39.5671H39.6994C38.41 113.63 37.2727 116.718 37.4182 118.123C38.9853 116.882 39.3423 116.494 41.6434 116.323C44.2684 116.126 45.3859 117.808 46.133 118.813C46.867 119.812 48.0505 122.86 45.69 125.428Z" fill="#151515"/>
<path d="M83.1413 125.428C80.7741 127.997 77.144 126.473 77.144 126.473C78.1623 127.55 78.8368 128.411 78.7111 130.178C78.7111 130.237 78.7177 130.296 78.7177 130.355C78.7177 133.167 76.4233 135.447 73.5933 135.447C70.7633 135.447 68.4689 133.167 68.4689 130.355C68.4689 130.001 68.5085 129.653 68.5747 129.324C68.6937 128.102 69.302 127.36 70.1352 126.473C70.1352 126.473 66.4985 127.997 64.1379 125.428C61.7774 122.86 62.9543 119.818 63.7015 118.813C64.4487 117.815 65.5595 116.133 68.1912 116.323C70.5187 116.494 70.8625 116.888 72.4626 118.156C72.2709 114.668 70.1418 112.283 70.1418 112.283H70.274H73.6462H77.0184H77.1507C75.8613 113.63 74.724 116.718 74.8695 118.123C76.4365 116.882 76.7936 116.494 79.0946 116.323C81.7197 116.126 82.8371 117.808 83.5843 118.813C84.3315 119.818 85.5084 122.86 83.1413 125.428Z" fill="#151515"/>
</svg>
