<svg width="110" height="153" viewBox="0 0 110 153" fill="none" xmlns="http://www.w3.org/2000/svg">
<path d="M106.066 153H3.92763C1.75884 153 0 151.253 0 149.098V3.90219C0 1.74745 1.75884 0 3.92763 0H106.072C108.241 0 110 1.74745 110 3.90219V149.098C109.993 151.253 108.235 153 106.066 153Z" fill="white"/>
<path d="M98.5741 12.0679C98.5741 12.2715 98.4088 12.4423 98.1972 12.4423C97.9922 12.4423 97.8203 12.2781 97.8203 12.0679C97.8203 11.8642 97.9856 11.6934 98.1972 11.6934C98.4022 11.6934 98.5741 11.8577 98.5741 12.0679Z" fill="white"/>
<path d="M80.6354 12.0679C80.6354 12.2715 80.4701 12.4423 80.2585 12.4423C80.0535 12.4423 79.8816 12.2781 79.8816 12.0679C79.8816 11.8642 80.0469 11.6934 80.2585 11.6934C80.4635 11.6934 80.6354 11.8577 80.6354 12.0679Z" fill="white"/>
<path d="M64.1314 12.0679C64.1314 12.2715 63.9661 12.4423 63.7545 12.4423C63.5429 12.4423 63.3776 12.2781 63.3776 12.0679C63.3776 11.8642 63.5429 11.6934 63.7545 11.6934C63.9661 11.6934 64.1314 11.8577 64.1314 12.0679Z" fill="white"/>
<path d="M47.568 12.1861C47.568 12.3897 47.4027 12.5606 47.1911 12.5606C46.9795 12.5606 46.8142 12.3963 46.8142 12.1861C46.8142 11.9824 46.9795 11.8116 47.1911 11.8116C47.4027 11.8116 47.568 11.9759 47.568 12.1861Z" fill="white"/>
<path d="M98.5741 25.9555C98.5741 26.1592 98.4088 26.33 98.1972 26.33C97.9922 26.33 97.8203 26.1657 97.8203 25.9555C97.8203 25.7453 97.9856 25.5811 98.1972 25.5811C98.4022 25.5811 98.5741 25.7453 98.5741 25.9555Z" fill="white"/>
<path d="M98.5741 38.6277C98.5741 38.8314 98.4088 39.0022 98.1972 39.0022C97.9922 39.0022 97.8203 38.838 97.8203 38.6277C97.8203 38.4175 97.9856 38.2533 98.1972 38.2533C98.4022 38.2533 98.5741 38.4241 98.5741 38.6277Z" fill="white"/>
<path d="M98.5741 51.911C98.5741 52.1146 98.4088 52.2854 98.1972 52.2854C97.9922 52.2854 97.8203 52.1212 97.8203 51.911C97.8203 51.7073 97.9856 51.5365 98.1972 51.5365C98.4022 51.5365 98.5741 51.7007 98.5741 51.911Z" fill="white"/>
<path d="M98.5741 60.3066C98.5741 60.5102 98.4088 60.681 98.1972 60.681C97.9922 60.681 97.8203 60.5168 97.8203 60.3066C97.8203 60.1029 97.9856 59.9321 98.1972 59.9321C98.4022 59.9321 98.5741 60.1029 98.5741 60.3066Z" fill="white"/>
<path d="M98.5741 68.735C98.5741 68.9387 98.4088 69.1095 98.1972 69.1095C97.9922 69.1095 97.8203 68.9453 97.8203 68.735C97.8203 68.5248 97.9856 68.3606 98.1972 68.3606C98.4022 68.3606 98.5741 68.5248 98.5741 68.735Z" fill="white"/>
<path d="M12.4176 12.4357C12.4176 12.6394 12.2523 12.8102 12.0407 12.8102C11.8357 12.8102 11.6638 12.646 11.6638 12.4357C11.6638 12.2321 11.8291 12.0613 12.0407 12.0613C12.2523 12.0678 12.4176 12.2321 12.4176 12.4357Z" fill="white"/>
<path d="M30.5615 12.1861C30.5615 12.3897 30.3962 12.5606 30.1846 12.5606C29.9796 12.5606 29.8077 12.3963 29.8077 12.1861C29.8077 11.9824 29.973 11.8116 30.1846 11.8116C30.3962 11.8116 30.5615 11.9759 30.5615 12.1861Z" fill="white"/>
<path d="M12.4176 25.6599C12.4176 25.8635 12.2523 26.0343 12.0407 26.0343C11.8357 26.0343 11.6638 25.8701 11.6638 25.6599C11.6638 25.4562 11.8291 25.2854 12.0407 25.2854C12.2523 25.2854 12.4176 25.4496 12.4176 25.6599Z" fill="white"/>
<path d="M12.4176 38.7131C12.4176 38.9168 12.2523 39.0876 12.0407 39.0876C11.8357 39.0876 11.6638 38.9234 11.6638 38.7131C11.6638 38.5095 11.8291 38.3387 12.0407 38.3387C12.2523 38.3387 12.4176 38.5095 12.4176 38.7131Z" fill="white"/>
<path d="M12.4176 51.819C12.4176 52.0226 12.2523 52.1934 12.0407 52.1934C11.8357 52.1934 11.6638 52.0292 11.6638 51.819C11.6638 51.6088 11.8291 51.4445 12.0407 51.4445C12.2523 51.4445 12.4176 51.6088 12.4176 51.819Z" fill="white"/>
<path d="M12.4176 60.3066C12.4176 60.5102 12.2523 60.681 12.0407 60.681C11.8357 60.681 11.6638 60.5168 11.6638 60.3066C11.6638 60.1029 11.8291 59.9321 12.0407 59.9321C12.2523 59.9321 12.4176 60.1029 12.4176 60.3066Z" fill="white"/>
<path d="M12.4176 69.1095C12.4176 69.3131 12.2523 69.484 12.0407 69.484C11.8357 69.484 11.6638 69.3197 11.6638 69.1095C11.6638 68.9058 11.8291 68.735 12.0407 68.735C12.2523 68.735 12.4176 68.8993 12.4176 69.1095Z" fill="white"/>
<path d="M12.4176 77.6036C12.4176 77.8073 12.2523 77.9781 12.0407 77.9781C11.8357 77.9781 11.6638 77.8139 11.6638 77.6036C11.6638 77.4 11.8291 77.2292 12.0407 77.2292C12.2523 77.2292 12.4176 77.4 12.4176 77.6036Z" fill="white"/>
<path d="M12.4176 86.0913C12.4176 86.2949 12.2523 86.4657 12.0407 86.4657C11.8357 86.4657 11.6638 86.3015 11.6638 86.0913C11.6638 85.8876 11.8291 85.7168 12.0407 85.7168C12.2523 85.7168 12.4176 85.8876 12.4176 86.0913Z" fill="white"/>
<path d="M12.4176 94.8942C12.4176 95.0978 12.2523 95.2686 12.0407 95.2686C11.8357 95.2686 11.6638 95.1044 11.6638 94.8942C11.6638 94.6905 11.8291 94.5197 12.0407 94.5197C12.2523 94.5197 12.4176 94.6905 12.4176 94.8942Z" fill="white"/>
<path d="M12.4176 103.717C12.4176 103.92 12.2523 104.091 12.0407 104.091C11.8357 104.091 11.6638 103.927 11.6638 103.717C11.6638 103.513 11.8291 103.342 12.0407 103.342C12.2523 103.342 12.4176 103.513 12.4176 103.717Z" fill="white"/>
<path d="M12.4176 111.6C12.4176 111.804 12.2523 111.974 12.0407 111.974C11.8357 111.974 11.6638 111.81 11.6638 111.6C11.6638 111.396 11.8291 111.226 12.0407 111.226C12.2523 111.226 12.4176 111.396 12.4176 111.6Z" fill="white"/>
<path d="M12.4176 120.403C12.4176 120.607 12.2523 120.777 12.0407 120.777C11.8357 120.777 11.6638 120.613 11.6638 120.403C11.6638 120.199 11.8291 120.029 12.0407 120.029C12.2523 120.029 12.4176 120.193 12.4176 120.403Z" fill="white"/>
<path d="M12.4176 128.976C12.4176 129.18 12.2523 129.35 12.0407 129.35C11.8357 129.35 11.6638 129.186 11.6638 128.976C11.6638 128.772 11.8291 128.601 12.0407 128.601C12.2523 128.601 12.4176 128.766 12.4176 128.976Z" fill="white"/>
<path d="M12.5697 141.576C12.5697 141.78 12.4044 141.95 12.1928 141.95C11.9812 141.95 11.8159 141.786 11.8159 141.576C11.8159 141.372 11.9812 141.201 12.1928 141.201C12.4044 141.201 12.5697 141.372 12.5697 141.576Z" fill="white"/>
<path d="M26.1444 141.95C26.1444 142.154 25.9791 142.325 25.7675 142.325C25.5625 142.325 25.3906 142.161 25.3906 141.95C25.3906 141.747 25.5559 141.576 25.7675 141.576C25.9725 141.576 26.1444 141.747 26.1444 141.95Z" fill="white"/>
<path d="M43.6337 141.95C43.6337 142.154 43.4684 142.325 43.2568 142.325C43.0452 142.325 42.8799 142.161 42.8799 141.95C42.8799 141.747 43.0452 141.576 43.2568 141.576C43.4684 141.576 43.6337 141.747 43.6337 141.95Z" fill="white"/>
<path d="M61.0899 141.95C61.0899 142.154 60.9245 142.325 60.713 142.325C60.508 142.325 60.3361 142.161 60.3361 141.95C60.3361 141.747 60.5014 141.576 60.713 141.576C60.9245 141.576 61.0899 141.747 61.0899 141.95Z" fill="white"/>
<path d="M78.1029 141.95C78.1029 142.154 77.9376 142.325 77.726 142.325C77.521 142.325 77.3491 142.161 77.3491 141.95C77.3491 141.747 77.5144 141.576 77.726 141.576C77.931 141.576 78.1029 141.747 78.1029 141.95Z" fill="white"/>
<path d="M98.5741 77.3934C98.5741 77.5971 98.4088 77.7679 98.1972 77.7679C97.9922 77.7679 97.8203 77.6037 97.8203 77.3934C97.8203 77.1832 97.9856 77.019 98.1972 77.019C98.4022 77.019 98.5741 77.1898 98.5741 77.3934Z" fill="white"/>
<path d="M98.5741 85.4935C98.5741 85.6971 98.4088 85.8679 98.1972 85.8679C97.9922 85.8679 97.8203 85.7037 97.8203 85.4935C97.8203 85.2898 97.9856 85.119 98.1972 85.119C98.4022 85.119 98.5741 85.2898 98.5741 85.4935Z" fill="white"/>
<path d="M98.5741 94.2241C98.5741 94.4277 98.4088 94.5985 98.1972 94.5985C97.9922 94.5985 97.8203 94.4343 97.8203 94.2241C97.8203 94.0204 97.9856 93.8496 98.1972 93.8496C98.4022 93.8562 98.5741 94.0204 98.5741 94.2241Z" fill="white"/>
<path d="M98.5741 102.836C98.5741 103.04 98.4088 103.211 98.1972 103.211C97.9922 103.211 97.8203 103.047 97.8203 102.836C97.8203 102.626 97.9856 102.462 98.1972 102.462C98.4022 102.462 98.5741 102.626 98.5741 102.836Z" fill="white"/>
<path d="M98.5741 111.212C98.5741 111.416 98.4088 111.587 98.1972 111.587C97.9922 111.587 97.8203 111.423 97.8203 111.212C97.8203 111.002 97.9856 110.838 98.1972 110.838C98.4022 110.838 98.5741 111.009 98.5741 111.212Z" fill="white"/>
<path d="M98.5741 119.477C98.5741 119.68 98.4088 119.851 98.1972 119.851C97.9922 119.851 97.8203 119.687 97.8203 119.477C97.8203 119.273 97.9856 119.102 98.1972 119.102C98.4022 119.102 98.5741 119.266 98.5741 119.477Z" fill="white"/>
<path d="M98.5741 127.912C98.5741 128.115 98.4088 128.286 98.1972 128.286C97.9922 128.286 97.8203 128.122 97.8203 127.912C97.8203 127.708 97.9856 127.537 98.1972 127.537C98.4022 127.537 98.5741 127.701 98.5741 127.912Z" fill="white"/>
<path d="M98.5741 140.768C98.5741 140.972 98.4088 141.142 98.1972 141.142C97.9922 141.142 97.8203 140.978 97.8203 140.768C97.8203 140.564 97.9856 140.393 98.1972 140.393C98.4022 140.393 98.5741 140.558 98.5741 140.768Z" fill="white"/>
<path d="M46.2125 29.5095C43.8454 26.9409 40.2153 28.465 40.2153 28.465C41.2335 27.3876 41.908 26.527 41.7823 24.7599C41.7823 24.7008 41.789 24.6416 41.789 24.5825C41.789 21.7708 39.4945 19.4913 36.6645 19.4913C33.8345 19.4913 31.5401 21.7708 31.5401 24.5825C31.5401 24.9373 31.5798 25.2854 31.6459 25.6139C31.7649 26.8358 32.3732 27.5781 33.2063 28.465C33.2063 28.465 29.5696 26.9409 27.2091 29.5095C24.842 32.0781 26.0255 35.1197 26.7727 36.1249C27.5199 37.1234 28.6307 38.8051 31.2624 38.6146C33.5899 38.4438 33.9337 38.0497 35.5338 36.7818C35.3421 40.2701 33.213 42.6548 33.213 42.6548H33.3452H36.7174H40.0896H40.2219C38.9325 41.3081 37.7952 38.2205 37.9407 36.8146C39.5078 38.0562 39.8648 38.4438 42.1659 38.6146C44.7909 38.8117 45.9083 37.13 46.6555 36.1249C47.3961 35.1263 48.5797 32.0781 46.2125 29.5095Z" fill="#151515"/>
<path d="M46.2125 75.5212C43.8454 72.9526 40.2153 74.4767 40.2153 74.4767C41.2335 73.3993 41.908 72.5387 41.7823 70.7715C41.7823 70.7124 41.789 70.6533 41.789 70.5942C41.789 67.7825 39.4945 65.5029 36.6645 65.5029C33.8345 65.5029 31.5401 67.7825 31.5401 70.5942C31.5401 70.9489 31.5798 71.2905 31.6459 71.6256C31.7649 72.8475 32.3732 73.5898 33.2063 74.4767C33.2063 74.4767 29.5696 72.9526 27.2091 75.5212C24.842 78.0898 26.0255 81.1314 26.7727 82.1365C27.5199 83.135 28.6307 84.8168 31.2624 84.6263C33.5899 84.4555 33.9337 84.0613 35.5338 82.7934C35.3421 86.2818 33.213 88.6664 33.213 88.6664H33.3452H36.7174H40.0896H40.2219C38.9325 87.3197 37.7952 84.2321 37.9407 82.8263C39.5078 84.0679 39.8648 84.4555 42.1659 84.6263C44.7909 84.8234 45.9083 83.1416 46.6555 82.1365C47.3961 81.1314 48.5797 78.0898 46.2125 75.5212Z" fill="#151515"/>
<path d="M46.2125 124.207C43.8454 126.775 40.2153 125.251 40.2153 125.251C41.2335 126.328 41.908 127.189 41.7823 128.956C41.7823 129.015 41.789 129.074 41.789 129.134C41.789 131.945 39.4945 134.225 36.6645 134.225C33.8345 134.225 31.5401 131.945 31.5401 129.134C31.5401 128.779 31.5798 128.431 31.6459 128.102C31.7649 126.88 32.3732 126.138 33.2063 125.251C33.2063 125.251 29.5696 126.775 27.2091 124.207C24.842 121.638 26.0255 118.596 26.7727 117.591C27.5199 116.593 28.6307 114.911 31.2624 115.101C33.5899 115.272 33.9337 115.666 35.5338 116.934C35.3421 113.446 33.213 111.061 33.213 111.061H33.3452H36.7174H40.0896H40.2219C38.9325 112.408 37.7952 115.496 37.9407 116.901C39.5078 115.66 39.8648 115.272 42.1659 115.101C44.7909 114.904 45.9083 116.586 46.6555 117.591C47.3961 118.596 48.5797 121.645 46.2125 124.207Z" fill="#151515"/>
<path d="M85.7333 29.5095C83.3662 26.9409 79.7361 28.465 79.7361 28.465C80.7544 27.3876 81.4288 26.527 81.3032 24.7599C81.3032 24.7008 81.3098 24.6416 81.3098 24.5825C81.3098 21.7708 79.0154 19.4913 76.1854 19.4913C73.3554 19.4913 71.0609 21.7708 71.0609 24.5825C71.0609 24.9373 71.1006 25.2854 71.1668 25.6139C71.2858 26.8358 71.8941 27.5781 72.7272 28.465C72.7272 28.465 69.0905 26.9409 66.73 29.5095C64.3628 32.0781 65.5464 35.1197 66.2936 36.1249C67.0408 37.1234 68.1516 38.8051 70.7832 38.6146C73.1107 38.4438 73.4546 38.0497 75.0547 36.7818C74.863 40.2701 72.7338 42.6548 72.7338 42.6548H72.8661H76.2383H79.6105H79.7427C78.4533 41.3081 77.316 38.2205 77.4615 36.8146C79.0286 38.0562 79.3857 38.4438 81.6867 38.6146C84.3117 38.8117 85.4292 37.13 86.1764 36.1249C86.9169 35.1263 88.0939 32.0781 85.7333 29.5095Z" fill="#151515"/>
<path d="M85.7333 75.5212C83.3662 72.9526 79.7361 74.4767 79.7361 74.4767C80.7544 73.3993 81.4288 72.5387 81.3032 70.7715C81.3032 70.7124 81.3098 70.6533 81.3098 70.5942C81.3098 67.7825 79.0154 65.5029 76.1854 65.5029C73.3554 65.5029 71.0609 67.7825 71.0609 70.5942C71.0609 70.9489 71.1006 71.2905 71.1668 71.6256C71.2858 72.8475 71.8941 73.5898 72.7272 74.4767C72.7272 74.4767 69.0905 72.9526 66.73 75.5212C64.3628 78.0898 65.5464 81.1314 66.2936 82.1365C67.0408 83.135 68.1516 84.8168 70.7832 84.6263C73.1107 84.4555 73.4546 84.0613 75.0547 82.7934C74.863 86.2818 72.7338 88.6664 72.7338 88.6664H72.8661H76.2383H79.6105H79.7427C78.4533 87.3197 77.316 84.2321 77.4615 82.8263C79.0286 84.0679 79.3857 84.4555 81.6867 84.6263C84.3117 84.8234 85.4292 83.1416 86.1764 82.1365C86.9169 81.1314 88.0939 78.0898 85.7333 75.5212Z" fill="#151515"/>
<path d="M85.7333 124.207C83.3662 126.775 79.7361 125.251 79.7361 125.251C80.7544 126.328 81.4288 127.189 81.3032 128.956C81.3032 129.015 81.3098 129.074 81.3098 129.134C81.3098 131.945 79.0154 134.225 76.1854 134.225C73.3554 134.225 71.0609 131.945 71.0609 129.134C71.0609 128.779 71.1006 128.431 71.1668 128.102C71.2858 126.88 71.8941 126.138 72.7272 125.251C72.7272 125.251 69.0905 126.775 66.73 124.207C64.3628 121.638 65.5464 118.596 66.2936 117.591C67.0408 116.593 68.1516 114.911 70.7832 115.101C73.1107 115.272 73.4546 115.666 75.0547 116.934C74.863 113.446 72.7338 111.061 72.7338 111.061H72.8661H76.2383H79.6105H79.7427C78.4533 112.408 77.316 115.496 77.4615 116.901C79.0286 115.66 79.3857 115.272 81.6867 115.101C84.3117 114.904 85.4292 116.586 86.1764 117.591C86.9169 118.596 88.0939 121.645 85.7333 124.207Z" fill="#151515"/>
<path d="M16.3321 22.3226C15.651 21.5803 14.5997 22.0204 14.5997 22.0204C14.8906 21.7117 15.089 21.462 15.0493 20.9496C15.0493 20.9299 15.0493 20.9168 15.0493 20.8971C15.0493 20.0825 14.3881 19.4255 13.5682 19.4255C12.7483 19.4255 12.087 20.0825 12.087 20.8971C12.087 21.0022 12.1003 21.1007 12.1201 21.1927C12.1532 21.5474 12.3317 21.7577 12.5697 22.0139C12.5697 22.0139 11.5184 21.5737 10.8374 22.316C10.1563 23.0584 10.4935 23.9387 10.7117 24.2277C10.9299 24.5168 11.2473 25.0029 12.0077 24.9438C12.6821 24.8912 12.7813 24.7796 13.2442 24.4117C13.1913 25.4168 12.5764 26.1066 12.5764 26.1066H12.616H13.588H14.56H14.5997C14.2294 25.719 13.8988 24.8255 13.9385 24.4182C14.3881 24.7796 14.4939 24.8912 15.1617 24.9372C15.9221 24.9963 16.2461 24.5102 16.4577 24.2212C16.6759 23.9452 17.0131 23.065 16.3321 22.3226Z" fill="#151515"/>
<path d="M11.5978 16.5942C11.1746 16.2526 10.844 15.7664 10.6192 15.1358C10.3878 14.5051 10.2754 13.7562 10.2754 12.8956C10.2754 12.1993 10.368 11.5161 10.5465 10.846C10.725 10.1759 10.9895 9.61752 11.3267 9.17737C11.9483 8.37591 12.6822 7.98175 13.522 7.98175C14.1303 7.98175 14.6196 8.1854 14.9965 8.5927C15.1221 8.74379 15.2147 8.9146 15.2742 9.10511C15.3271 9.28905 15.3601 9.45985 15.3601 9.60438C15.3601 9.9 15.2544 10.1431 15.0362 10.3336C14.8841 10.4453 14.7056 10.5109 14.5006 10.5109C14.3022 10.5109 14.1501 10.4321 14.0377 10.281C13.998 10.2219 13.965 10.1693 13.9518 10.1168C13.9385 10.0642 13.9319 9.99854 13.9319 9.91314C13.9319 9.78832 13.9848 9.65693 14.0972 9.53212C14.1766 9.44671 14.2559 9.37445 14.3419 9.31533C14.4212 9.26277 14.4741 9.21022 14.5006 9.15766C14.5336 9.10511 14.5469 9.03942 14.5469 8.96058C14.5469 8.80949 14.4609 8.67153 14.2824 8.55985C14.1038 8.44817 13.8394 8.38905 13.4823 8.38905C13.1715 8.38905 12.8806 8.48102 12.6029 8.65839C12.3252 8.83577 12.0938 9.13796 11.902 9.55182C11.7565 9.86715 11.6441 10.2613 11.5714 10.7409C11.492 11.2139 11.4524 11.6146 11.4524 11.9365V12.508L11.5449 12.5474C11.697 12.2255 11.935 11.9562 12.259 11.7526C12.583 11.5423 12.8872 11.4372 13.1914 11.4372C13.7666 11.4372 14.2493 11.5752 14.6394 11.8577C14.9701 12.0942 15.2279 12.4161 15.4064 12.8234C15.585 13.2241 15.6775 13.6577 15.6775 14.1175C15.6775 14.5774 15.5717 15.0372 15.3668 15.5036C15.1618 15.9635 14.8576 16.3511 14.4609 16.6599C14.0642 16.9686 13.5947 17.1197 13.0525 17.1197C12.5103 17.1 12.021 16.9292 11.5978 16.5942ZM14.203 15.9569C14.4411 15.4642 14.5535 14.9058 14.5535 14.2752C14.5535 13.592 14.4477 13.027 14.2427 12.5803C14.0377 12.127 13.6939 11.9036 13.2178 11.9036C12.9203 11.9036 12.6492 12.0022 12.4111 12.1993C12.1731 12.3963 11.9813 12.6723 11.8425 13.0336C11.7036 13.3949 11.6309 13.8088 11.6309 14.2752C11.6309 14.9781 11.7433 15.5628 11.9615 16.0161C12.1863 16.4693 12.55 16.6993 13.0657 16.6993C13.5881 16.6927 13.965 16.4496 14.203 15.9569Z" fill="black"/>
<path d="M97.0336 131.196C97.7147 131.939 98.766 131.499 98.766 131.499C98.4751 131.807 98.2767 132.057 98.3164 132.569C98.3164 132.589 98.3164 132.602 98.3164 132.622C98.3164 133.437 98.9776 134.093 99.7975 134.093C100.617 134.093 101.279 133.437 101.279 132.622C101.279 132.517 101.265 132.418 101.246 132.326C101.213 131.972 101.034 131.761 100.796 131.505C100.796 131.505 101.847 131.945 102.528 131.203C103.209 130.461 102.872 129.58 102.654 129.291C102.436 129.002 102.118 128.516 101.358 128.575C100.684 128.628 100.584 128.739 100.122 129.107C100.174 128.102 100.789 127.412 100.789 127.412H100.75H99.7777H98.8057H98.766C99.1363 127.8 99.4669 128.693 99.4272 129.101C98.9776 128.739 98.8718 128.628 98.204 128.582C97.4436 128.523 97.1196 129.009 96.908 129.298C96.6898 129.574 96.3526 130.454 97.0336 131.196Z" fill="#151515"/>
<path d="M101.768 136.925C102.191 137.266 102.522 137.753 102.746 138.383C102.971 139.014 103.09 139.763 103.09 140.623C103.09 141.32 102.998 142.003 102.819 142.673C102.641 143.343 102.376 143.901 102.039 144.342C101.417 145.143 100.683 145.537 99.8437 145.537C99.2354 145.537 98.7461 145.334 98.3692 144.926C98.2436 144.775 98.151 144.604 98.0915 144.414C98.0386 144.223 98.0055 144.059 98.0055 143.915C98.0055 143.619 98.1113 143.376 98.3295 143.185C98.475 143.061 98.6469 142.995 98.8585 142.995C99.0569 142.995 99.2089 143.074 99.3213 143.225C99.361 143.284 99.3941 143.343 99.4073 143.389C99.4205 143.442 99.4271 143.507 99.4271 143.593C99.4271 143.717 99.3742 143.849 99.2618 143.974C99.1825 144.059 99.1031 144.131 99.0172 144.19C98.9378 144.243 98.885 144.296 98.8585 144.348C98.8254 144.401 98.8122 144.466 98.8122 144.545C98.8122 144.696 98.8981 144.834 99.0767 144.946C99.2552 145.064 99.5197 145.117 99.8768 145.117C100.188 145.117 100.478 145.025 100.756 144.847C101.034 144.67 101.265 144.374 101.457 143.954C101.603 143.639 101.715 143.245 101.788 142.765C101.867 142.285 101.907 141.891 101.907 141.569V140.998L101.814 140.958C101.662 141.28 101.424 141.55 101.1 141.753C100.776 141.963 100.472 142.062 100.168 142.062C99.5924 142.062 99.1098 141.924 98.7196 141.642C98.389 141.405 98.1312 141.083 97.9526 140.682C97.7741 140.275 97.6815 139.848 97.6815 139.388C97.6815 138.928 97.7873 138.469 97.9923 138.002C98.1973 137.536 98.5014 137.155 98.8982 136.846C99.2949 136.537 99.7644 136.386 100.307 136.386C100.855 136.419 101.345 136.59 101.768 136.925ZM99.1626 137.562C98.9246 138.055 98.8122 138.613 98.8122 139.244C98.8122 139.92 98.918 140.492 99.123 140.939C99.3279 141.385 99.6718 141.615 100.148 141.615C100.445 141.615 100.717 141.517 100.955 141.32C101.193 141.123 101.384 140.847 101.523 140.485C101.662 140.124 101.735 139.71 101.735 139.244C101.735 138.541 101.622 137.956 101.404 137.503C101.179 137.05 100.816 136.82 100.3 136.82C99.7776 136.826 99.4007 137.069 99.1626 137.562Z" fill="black"/>
</svg>
