<svg width="110" height="153" viewBox="0 0 110 153" fill="none" xmlns="http://www.w3.org/2000/svg">
<path d="M106.066 153H3.92763C1.75884 153 0 151.253 0 149.098V3.90219C0 1.74745 1.75884 0 3.92763 0H106.072C108.241 0 110 1.74745 110 3.90219V149.098C109.993 151.253 108.241 153 106.066 153Z" fill="white"/>
<path d="M98.5741 12.0679C98.5741 12.2715 98.4088 12.4423 98.1972 12.4423C97.9922 12.4423 97.8203 12.2781 97.8203 12.0679C97.8203 11.8642 97.9856 11.6934 98.1972 11.6934C98.4022 11.6934 98.5741 11.8577 98.5741 12.0679Z" fill="white"/>
<path d="M80.6354 12.0679C80.6354 12.2715 80.4701 12.4423 80.2585 12.4423C80.0469 12.4423 79.8816 12.2781 79.8816 12.0679C79.8816 11.8642 80.0469 11.6934 80.2585 11.6934C80.4701 11.6934 80.6354 11.8577 80.6354 12.0679Z" fill="white"/>
<path d="M64.1381 12.0679C64.1381 12.2715 63.9728 12.4423 63.7612 12.4423C63.5562 12.4423 63.3843 12.2781 63.3843 12.0679C63.3843 11.8642 63.5496 11.6934 63.7612 11.6934C63.9662 11.6934 64.1381 11.8577 64.1381 12.0679Z" fill="white"/>
<path d="M47.568 12.1861C47.568 12.3897 47.4027 12.5606 47.1911 12.5606C46.9795 12.5606 46.8142 12.3963 46.8142 12.1861C46.8142 11.9824 46.9795 11.8116 47.1911 11.8116C47.4027 11.8116 47.568 11.9759 47.568 12.1861Z" fill="white"/>
<path d="M98.5741 25.9555C98.5741 26.1592 98.4088 26.33 98.1972 26.33C97.9922 26.33 97.8203 26.1657 97.8203 25.9555C97.8203 25.7453 97.9856 25.5811 98.1972 25.5811C98.4022 25.5811 98.5741 25.7453 98.5741 25.9555Z" fill="white"/>
<path d="M98.5741 38.6277C98.5741 38.8314 98.4088 39.0022 98.1972 39.0022C97.9922 39.0022 97.8203 38.838 97.8203 38.6277C97.8203 38.4175 97.9856 38.2533 98.1972 38.2533C98.4022 38.2533 98.5741 38.4241 98.5741 38.6277Z" fill="white"/>
<path d="M98.5741 51.911C98.5741 52.1146 98.4088 52.2854 98.1972 52.2854C97.9922 52.2854 97.8203 52.1212 97.8203 51.911C97.8203 51.7073 97.9856 51.5365 98.1972 51.5365C98.4022 51.5365 98.5741 51.7007 98.5741 51.911Z" fill="white"/>
<path d="M98.5741 60.3066C98.5741 60.5102 98.4088 60.681 98.1972 60.681C97.9922 60.681 97.8203 60.5168 97.8203 60.3066C97.8203 60.1029 97.9856 59.9321 98.1972 59.9321C98.4022 59.9321 98.5741 60.1029 98.5741 60.3066Z" fill="white"/>
<path d="M98.5741 68.735C98.5741 68.9387 98.4088 69.1095 98.1972 69.1095C97.9922 69.1095 97.8203 68.9453 97.8203 68.735C97.8203 68.5248 97.9856 68.3606 98.1972 68.3606C98.4022 68.3606 98.5741 68.5248 98.5741 68.735Z" fill="white"/>
<path d="M12.4176 12.4357C12.4176 12.6394 12.2523 12.8102 12.0407 12.8102C11.8291 12.8102 11.6638 12.646 11.6638 12.4357C11.6638 12.2321 11.8291 12.0613 12.0407 12.0613C12.2523 12.0613 12.4176 12.2321 12.4176 12.4357Z" fill="white"/>
<path d="M30.5615 12.1861C30.5615 12.3897 30.3962 12.5606 30.1846 12.5606C29.9796 12.5606 29.8077 12.3963 29.8077 12.1861C29.8077 11.9824 29.973 11.8116 30.1846 11.8116C30.3962 11.8116 30.5615 11.9759 30.5615 12.1861Z" fill="white"/>
<path d="M12.4176 25.6599C12.4176 25.8635 12.2523 26.0343 12.0407 26.0343C11.8291 26.0343 11.6638 25.8701 11.6638 25.6599C11.6638 25.4562 11.8291 25.2854 12.0407 25.2854C12.2523 25.2854 12.4176 25.4496 12.4176 25.6599Z" fill="white"/>
<path d="M12.4176 38.7131C12.4176 38.9168 12.2523 39.0876 12.0407 39.0876C11.8291 39.0876 11.6638 38.9234 11.6638 38.7131C11.6638 38.5095 11.8291 38.3387 12.0407 38.3387C12.2523 38.3387 12.4176 38.5095 12.4176 38.7131Z" fill="white"/>
<path d="M12.4176 51.819C12.4176 52.0226 12.2523 52.1934 12.0407 52.1934C11.8291 52.1934 11.6638 52.0292 11.6638 51.819C11.6638 51.6088 11.8291 51.4445 12.0407 51.4445C12.2523 51.4445 12.4176 51.6088 12.4176 51.819Z" fill="white"/>
<path d="M12.4176 60.3066C12.4176 60.5102 12.2523 60.681 12.0407 60.681C11.8291 60.681 11.6638 60.5168 11.6638 60.3066C11.6638 60.1029 11.8291 59.9321 12.0407 59.9321C12.2523 59.9321 12.4176 60.1029 12.4176 60.3066Z" fill="white"/>
<path d="M12.4176 69.1095C12.4176 69.3131 12.2523 69.484 12.0407 69.484C11.8291 69.484 11.6638 69.3197 11.6638 69.1095C11.6638 68.9058 11.8291 68.735 12.0407 68.735C12.2523 68.735 12.4176 68.8993 12.4176 69.1095Z" fill="white"/>
<path d="M12.4176 77.6036C12.4176 77.8073 12.2523 77.9781 12.0407 77.9781C11.8291 77.9781 11.6638 77.8139 11.6638 77.6036C11.6638 77.4 11.8291 77.2292 12.0407 77.2292C12.2523 77.2292 12.4176 77.4 12.4176 77.6036Z" fill="white"/>
<path d="M12.4176 86.0913C12.4176 86.2949 12.2523 86.4657 12.0407 86.4657C11.8291 86.4657 11.6638 86.3015 11.6638 86.0913C11.6638 85.8876 11.8291 85.7168 12.0407 85.7168C12.2523 85.7168 12.4176 85.8876 12.4176 86.0913Z" fill="white"/>
<path d="M12.4176 94.8942C12.4176 95.0978 12.2523 95.2686 12.0407 95.2686C11.8291 95.2686 11.6638 95.1044 11.6638 94.8942C11.6638 94.6905 11.8291 94.5197 12.0407 94.5197C12.2523 94.5197 12.4176 94.6905 12.4176 94.8942Z" fill="white"/>
<path d="M12.4176 103.717C12.4176 103.92 12.2523 104.091 12.0407 104.091C11.8291 104.091 11.6638 103.927 11.6638 103.717C11.6638 103.513 11.8291 103.342 12.0407 103.342C12.2523 103.342 12.4176 103.513 12.4176 103.717Z" fill="white"/>
<path d="M12.4176 111.6C12.4176 111.804 12.2523 111.974 12.0407 111.974C11.8291 111.974 11.6638 111.81 11.6638 111.6C11.6638 111.396 11.8291 111.226 12.0407 111.226C12.2523 111.226 12.4176 111.396 12.4176 111.6Z" fill="white"/>
<path d="M12.4176 120.403C12.4176 120.607 12.2523 120.777 12.0407 120.777C11.8291 120.777 11.6638 120.613 11.6638 120.403C11.6638 120.199 11.8291 120.029 12.0407 120.029C12.2523 120.029 12.4176 120.193 12.4176 120.403Z" fill="white"/>
<path d="M12.4176 128.976C12.4176 129.18 12.2523 129.35 12.0407 129.35C11.8291 129.35 11.6638 129.186 11.6638 128.976C11.6638 128.772 11.8291 128.601 12.0407 128.601C12.2523 128.601 12.4176 128.766 12.4176 128.976Z" fill="white"/>
<path d="M12.5697 141.576C12.5697 141.78 12.4044 141.95 12.1928 141.95C11.9878 141.95 11.8159 141.786 11.8159 141.576C11.8159 141.372 11.9812 141.201 12.1928 141.201C12.4044 141.201 12.5697 141.372 12.5697 141.576Z" fill="white"/>
<path d="M26.1444 141.95C26.1444 142.154 25.9791 142.325 25.7675 142.325C25.5559 142.325 25.3906 142.161 25.3906 141.95C25.3906 141.747 25.5559 141.576 25.7675 141.576C25.9791 141.576 26.1444 141.747 26.1444 141.95Z" fill="white"/>
<path d="M43.6337 141.95C43.6337 142.154 43.4684 142.325 43.2568 142.325C43.0452 142.325 42.8799 142.161 42.8799 141.95C42.8799 141.747 43.0452 141.576 43.2568 141.576C43.4684 141.576 43.6337 141.747 43.6337 141.95Z" fill="white"/>
<path d="M61.0964 141.95C61.0964 142.154 60.9311 142.325 60.7195 142.325C60.5146 142.325 60.3427 142.161 60.3427 141.95C60.3427 141.747 60.508 141.576 60.7195 141.576C60.9245 141.576 61.0964 141.747 61.0964 141.95Z" fill="white"/>
<path d="M78.1029 141.95C78.1029 142.154 77.9376 142.325 77.726 142.325C77.521 142.325 77.3491 142.161 77.3491 141.95C77.3491 141.747 77.5144 141.576 77.726 141.576C77.931 141.576 78.1029 141.747 78.1029 141.95Z" fill="white"/>
<path d="M98.5741 77.3934C98.5741 77.5971 98.4088 77.7679 98.1972 77.7679C97.9922 77.7679 97.8203 77.6037 97.8203 77.3934C97.8203 77.1832 97.9856 77.019 98.1972 77.019C98.4022 77.019 98.5741 77.1898 98.5741 77.3934Z" fill="white"/>
<path d="M98.5741 85.4935C98.5741 85.6971 98.4088 85.8679 98.1972 85.8679C97.9922 85.8679 97.8203 85.7037 97.8203 85.4935C97.8203 85.2898 97.9856 85.119 98.1972 85.119C98.4022 85.119 98.5741 85.2898 98.5741 85.4935Z" fill="white"/>
<path d="M98.5741 94.2241C98.5741 94.4277 98.4088 94.5985 98.1972 94.5985C97.9922 94.5985 97.8203 94.4343 97.8203 94.2241C97.8203 94.0204 97.9856 93.8496 98.1972 93.8496C98.4022 93.8562 98.5741 94.0204 98.5741 94.2241Z" fill="white"/>
<path d="M98.5741 102.836C98.5741 103.04 98.4088 103.211 98.1972 103.211C97.9922 103.211 97.8203 103.047 97.8203 102.836C97.8203 102.626 97.9856 102.462 98.1972 102.462C98.4022 102.462 98.5741 102.626 98.5741 102.836Z" fill="white"/>
<path d="M98.5741 111.212C98.5741 111.416 98.4088 111.587 98.1972 111.587C97.9922 111.587 97.8203 111.423 97.8203 111.212C97.8203 111.002 97.9856 110.838 98.1972 110.838C98.4022 110.838 98.5741 111.009 98.5741 111.212Z" fill="white"/>
<path d="M98.5741 119.477C98.5741 119.68 98.4088 119.851 98.1972 119.851C97.9922 119.851 97.8203 119.687 97.8203 119.477C97.8203 119.273 97.9856 119.102 98.1972 119.102C98.4022 119.102 98.5741 119.266 98.5741 119.477Z" fill="white"/>
<path d="M98.5741 127.912C98.5741 128.115 98.4088 128.286 98.1972 128.286C97.9922 128.286 97.8203 128.122 97.8203 127.912C97.8203 127.708 97.9856 127.537 98.1972 127.537C98.4022 127.537 98.5741 127.701 98.5741 127.912Z" fill="white"/>
<path d="M98.5741 140.768C98.5741 140.972 98.4088 141.142 98.1972 141.142C97.9922 141.142 97.8203 140.978 97.8203 140.768C97.8203 140.564 97.9856 140.393 98.1972 140.393C98.4022 140.393 98.5741 140.558 98.5741 140.768Z" fill="white"/>
<path d="M66.0291 52.4694C63.662 49.9007 60.0319 51.4248 60.0319 51.4248C61.0502 50.3475 61.7246 49.4869 61.599 47.7197C61.599 47.6606 61.6056 47.6015 61.6056 47.5424C61.6056 44.7307 59.3112 42.4511 56.4812 42.4511C53.6512 42.4511 51.3567 44.7307 51.3567 47.5424C51.3567 47.8971 51.3964 48.2387 51.4626 48.5737C51.5816 49.7956 52.1899 50.538 53.023 51.4248C53.023 51.4248 49.3863 49.9007 47.0258 52.4694C44.6586 55.038 45.8422 58.0796 46.5893 59.0847C47.3365 60.0832 48.4474 61.765 51.079 61.5745C53.4065 61.4037 53.7503 61.0095 55.3505 59.7416C55.1587 63.2299 53.0296 65.6146 53.0296 65.6146H53.1618H56.5341H59.9063H60.0385C58.7491 64.2679 57.6118 61.1803 57.7573 59.7745C59.3244 61.0161 59.6815 61.4037 61.9825 61.5745C64.6075 61.7715 65.725 60.0898 66.4721 59.0847C67.2127 58.0796 68.3963 55.0314 66.0291 52.4694Z" fill="#151515"/>
<path d="M41.4582 29.5095C39.0911 26.9408 35.461 28.4649 35.461 28.4649C36.4793 27.3876 37.1537 26.527 37.0281 24.7598C37.0281 24.7007 37.0347 24.6416 37.0347 24.5825C37.0347 21.7708 34.7403 19.4912 31.9103 19.4912C29.0803 19.4912 26.7858 21.7708 26.7858 24.5825C26.7858 24.9372 26.8255 25.2854 26.8916 25.6138C27.0106 26.8357 27.6189 27.5781 28.4521 28.4649C28.4521 28.4649 24.8154 26.9408 22.4548 29.5095C20.0877 32.0781 21.2713 35.1197 22.0184 36.1248C22.7656 37.1233 23.8765 38.8051 26.5081 38.6146C28.8356 38.4438 29.1794 38.0496 30.7796 36.7817C30.5878 40.27 28.4587 42.6547 28.4587 42.6547H28.5909H31.9631H35.3354H35.4676C34.1782 41.308 33.0409 38.2204 33.1864 36.8146C34.7535 38.0562 35.1106 38.4438 37.4116 38.6146C40.0366 38.8116 41.1541 37.1299 41.9012 36.1248C42.6352 35.1262 43.8188 32.0781 41.4582 29.5095Z" fill="#151515"/>
<path d="M41.4582 75.5212C39.0911 72.9526 35.461 74.4767 35.461 74.4767C36.4793 73.3993 37.1537 72.5387 37.0281 70.7715C37.0281 70.7124 37.0347 70.6533 37.0347 70.5942C37.0347 67.7825 34.7403 65.5029 31.9103 65.5029C29.0803 65.5029 26.7858 67.7825 26.7858 70.5942C26.7858 70.9489 26.8255 71.2905 26.8916 71.6256C27.0106 72.8475 27.6189 73.5898 28.4521 74.4767C28.4521 74.4767 24.8154 72.9526 22.4548 75.5212C20.0877 78.0898 21.2713 81.1314 22.0184 82.1365C22.7656 83.135 23.8765 84.8168 26.5081 84.6263C28.8356 84.4555 29.1794 84.0613 30.7796 82.7934C30.5878 86.2818 28.4587 88.6664 28.4587 88.6664H28.5909H31.9631H35.3354H35.4676C34.1782 87.3197 33.0409 84.2321 33.1864 82.8263C34.7535 84.0679 35.1106 84.4555 37.4116 84.6263C40.0366 84.8234 41.1541 83.1416 41.9012 82.1365C42.6352 81.1314 43.8188 78.0898 41.4582 75.5212Z" fill="#151515"/>
<path d="M41.4582 124.207C39.0911 126.775 35.461 125.251 35.461 125.251C36.4793 126.328 37.1537 127.189 37.0281 128.956C37.0281 129.015 37.0347 129.074 37.0347 129.134C37.0347 131.945 34.7403 134.225 31.9103 134.225C29.0803 134.225 26.7858 131.945 26.7858 129.134C26.7858 128.779 26.8255 128.431 26.8916 128.102C27.0106 126.88 27.6189 126.138 28.4521 125.251C28.4521 125.251 24.8154 126.775 22.4548 124.207C20.0877 121.638 21.2713 118.596 22.0184 117.591C22.7656 116.593 23.8765 114.911 26.5081 115.101C28.8356 115.272 29.1794 115.666 30.7796 116.934C30.5878 113.446 28.4587 111.061 28.4587 111.061H28.5909H31.9631H35.3354H35.4676C34.1782 112.408 33.0409 115.496 33.1864 116.901C34.7535 115.66 35.1106 115.272 37.4116 115.101C40.0366 114.904 41.1541 116.586 41.9012 117.591C42.6352 118.596 43.8188 121.645 41.4582 124.207Z" fill="#151515"/>
<path d="M93.1985 29.5095C90.8313 26.9408 87.2012 28.4649 87.2012 28.4649C88.2195 27.3876 88.8939 26.527 88.7683 24.7598C88.7683 24.7007 88.7749 24.6416 88.7749 24.5825C88.7749 21.7708 86.4805 19.4912 83.6505 19.4912C80.8205 19.4912 78.5261 21.7708 78.5261 24.5825C78.5261 24.9372 78.5657 25.2854 78.6318 25.6138C78.7509 26.8357 79.3592 27.5781 80.1923 28.4649C80.1923 28.4649 76.5556 26.9408 74.1951 29.5095C71.8279 32.0781 73.0115 35.1197 73.7587 36.1248C74.5059 37.1233 75.6167 38.8051 78.2483 38.6146C80.5758 38.4438 80.9197 38.0496 82.5198 36.7817C82.3281 40.27 80.1989 42.6547 80.1989 42.6547H80.3312H83.7034H87.0756H87.2078C85.9185 41.308 84.7812 38.2204 84.9266 36.8146C86.4937 38.0562 86.8508 38.4438 89.1518 38.6146C91.7769 38.8116 92.8943 37.1299 93.6415 36.1248C94.3754 35.1262 95.559 32.0781 93.1985 29.5095Z" fill="#151515"/>
<path d="M93.1985 75.5212C90.8313 72.9526 87.2012 74.4767 87.2012 74.4767C88.2195 73.3993 88.8939 72.5387 88.7683 70.7715C88.7683 70.7124 88.7749 70.6533 88.7749 70.5942C88.7749 67.7825 86.4805 65.5029 83.6505 65.5029C80.8205 65.5029 78.5261 67.7825 78.5261 70.5942C78.5261 70.9489 78.5657 71.2905 78.6318 71.6256C78.7509 72.8475 79.3592 73.5898 80.1923 74.4767C80.1923 74.4767 76.5556 72.9526 74.1951 75.5212C71.8279 78.0898 73.0115 81.1314 73.7587 82.1365C74.5059 83.135 75.6167 84.8168 78.2483 84.6263C80.5758 84.4555 80.9197 84.0613 82.5198 82.7934C82.3281 86.2818 80.1989 88.6664 80.1989 88.6664H80.3312H83.7034H87.0756H87.2078C85.9185 87.3197 84.7812 84.2321 84.9266 82.8263C86.4937 84.0679 86.8508 84.4555 89.1518 84.6263C91.7769 84.8234 92.8943 83.1416 93.6415 82.1365C94.3754 81.1314 95.559 78.0898 93.1985 75.5212Z" fill="#151515"/>
<path d="M93.1985 124.207C90.8313 126.775 87.2012 125.251 87.2012 125.251C88.2195 126.328 88.8939 127.189 88.7683 128.956C88.7683 129.015 88.7749 129.074 88.7749 129.134C88.7749 131.945 86.4805 134.225 83.6505 134.225C80.8205 134.225 78.5261 131.945 78.5261 129.134C78.5261 128.779 78.5657 128.431 78.6318 128.102C78.7509 126.88 79.3592 126.138 80.1923 125.251C80.1923 125.251 76.5556 126.775 74.1951 124.207C71.8279 121.638 73.0115 118.596 73.7587 117.591C74.5059 116.593 75.6167 114.911 78.2483 115.101C80.5758 115.272 80.9197 115.666 82.5198 116.934C82.3281 113.446 80.1989 111.061 80.1989 111.061H80.3312H83.7034H87.0756H87.2078C85.9185 112.408 84.7812 115.496 84.9266 116.901C86.4937 115.66 86.8508 115.272 89.1518 115.101C91.7769 114.904 92.8943 116.586 93.6415 117.591C94.3754 118.596 95.559 121.645 93.1985 124.207Z" fill="#151515"/>
<path d="M16.1006 22.3226C15.4196 21.5803 14.3682 22.0204 14.3682 22.0204C14.6592 21.7117 14.8575 21.462 14.8179 20.9496C14.8179 20.9299 14.8179 20.9168 14.8179 20.8971C14.8179 20.0825 14.1566 19.4255 13.3367 19.4255C12.5168 19.4255 11.8556 20.0825 11.8556 20.8971C11.8556 21.0022 11.8688 21.1007 11.8887 21.1927C11.9217 21.5474 12.1003 21.7577 12.3383 22.0139C12.3383 22.0139 11.287 21.5737 10.6059 22.316C9.92486 23.0584 10.2621 23.9387 10.4803 24.2277C10.6985 24.5168 11.0159 25.0029 11.7763 24.9438C12.4507 24.8912 12.5499 24.7796 13.0127 24.4117C12.9599 25.4168 12.3449 26.1066 12.3449 26.1066H12.3846H13.3566H14.3286H14.3682C13.998 25.719 13.6673 24.8255 13.707 24.4182C14.1566 24.7796 14.2625 24.8912 14.9303 24.9372C15.6907 24.9963 16.0147 24.5102 16.2263 24.2212C16.4445 23.9452 16.7817 23.065 16.1006 22.3226Z" fill="#151515"/>
<path d="M11.9019 16.7715C11.7168 16.5482 11.6242 16.2525 11.6242 15.8781C11.6242 15.3657 11.7498 14.8401 12.0011 14.3014C12.2523 13.7628 12.5763 13.2109 12.9731 12.6525L13.9979 11.1876C14.1831 10.9248 14.3418 10.6423 14.4674 10.3401C14.5931 10.0379 14.6525 9.77516 14.6525 9.55837C14.6525 9.43356 14.6195 9.34158 14.5534 9.2956C14.4873 9.24961 14.3881 9.22334 14.2492 9.22334H11.5911C11.2473 9.22334 11.0093 9.2956 10.8638 9.44669C10.7249 9.59779 10.6257 9.80801 10.5728 10.0774L10.434 10.8263H10.1497L10.3282 8.17224H15.2543C15.2543 8.61239 15.1882 9.11823 15.0559 9.68976C14.9237 10.2613 14.6988 10.7803 14.3815 11.2467L13.6475 12.3438C13.2971 12.8562 13.1185 13.408 13.1185 13.9992C13.1185 14.3671 13.145 14.6825 13.1979 14.9584L13.2772 15.4051C13.3434 15.7467 13.383 16.0423 13.383 16.2985C13.383 16.8306 13.1317 17.1 12.6292 17.1C12.3317 17.1 12.087 16.9883 11.9019 16.7715Z" fill="black"/>
<path d="M96.8021 131.196C97.4831 131.939 98.5345 131.499 98.5345 131.499C98.2436 131.807 98.0452 132.057 98.0848 132.569C98.0848 132.589 98.0848 132.602 98.0848 132.622C98.0848 133.437 98.7461 134.093 99.566 134.093C100.386 134.093 101.047 133.437 101.047 132.622C101.047 132.517 101.034 132.418 101.014 132.326C100.981 131.972 100.802 131.761 100.564 131.505C100.564 131.505 101.616 131.945 102.297 131.203C102.978 130.461 102.641 129.58 102.422 129.291C102.204 129.002 101.887 128.516 101.126 128.575C100.452 128.628 100.353 128.739 99.89 129.107C99.9429 128.102 100.558 127.412 100.558 127.412H100.518H99.5461H98.5742H98.5345C98.9048 127.8 99.2354 128.693 99.1957 129.101C98.7461 128.739 98.6403 128.628 97.9724 128.582C97.212 128.523 96.888 129.009 96.6764 129.298C96.4582 129.574 96.121 130.454 96.8021 131.196Z" fill="#151515"/>
<path d="M101.001 136.747C101.186 136.971 101.279 137.266 101.279 137.641C101.279 138.153 101.153 138.672 100.902 139.218C100.65 139.756 100.326 140.308 99.9296 140.866L98.9048 142.331C98.7196 142.594 98.5609 142.877 98.4353 143.179C98.3097 143.481 98.2501 143.744 98.2501 143.961C98.2501 144.085 98.2832 144.177 98.3493 144.223C98.4154 144.269 98.5146 144.296 98.6535 144.296H101.312C101.655 144.296 101.893 144.223 102.039 144.072C102.178 143.921 102.277 143.711 102.33 143.442L102.469 142.693H102.753L102.575 145.347H97.6484C97.6484 144.907 97.7146 144.401 97.8468 143.829C97.979 143.258 98.2039 142.739 98.5212 142.272L99.2552 141.175C99.6056 140.663 99.7842 140.111 99.7842 139.52C99.7842 139.152 99.7577 138.837 99.7048 138.561L99.6255 138.114C99.5593 137.772 99.5197 137.477 99.5197 137.22C99.5197 136.682 99.7709 136.419 100.273 136.419C100.571 136.419 100.816 136.531 101.001 136.747Z" fill="black"/>
</svg>
