<svg width="110" height="153" viewBox="0 0 110 153" fill="none" xmlns="http://www.w3.org/2000/svg">
<path d="M106.072 153H3.92763C1.75884 153 0 151.253 0 149.098V3.90219C0 1.74745 1.75884 0 3.92763 0H106.072C108.241 0 110 1.74745 110 3.90219V149.098C110 151.253 108.241 153 106.072 153Z" fill="white"/>
<path d="M98.5741 12.0679C98.5741 12.2715 98.4088 12.4423 98.1973 12.4423C97.9923 12.4423 97.8203 12.2781 97.8203 12.0679C97.8203 11.8642 97.9857 11.6934 98.1973 11.6934C98.4022 11.6934 98.5741 11.8577 98.5741 12.0679Z" fill="white"/>
<path d="M80.6354 12.0679C80.6354 12.2715 80.4701 12.4423 80.2585 12.4423C80.0536 12.4423 79.8816 12.2781 79.8816 12.0679C79.8816 11.8642 80.0469 11.6934 80.2585 11.6934C80.4701 11.6934 80.6354 11.8577 80.6354 12.0679Z" fill="white"/>
<path d="M64.1381 12.0679C64.1381 12.2715 63.9727 12.4423 63.7611 12.4423C63.5495 12.4423 63.3843 12.2781 63.3843 12.0679C63.3843 11.8642 63.5495 11.6934 63.7611 11.6934C63.9727 11.6934 64.1381 11.8577 64.1381 12.0679Z" fill="white"/>
<path d="M47.5746 12.1861C47.5746 12.3897 47.4093 12.5606 47.1977 12.5606C46.9861 12.5606 46.8208 12.3963 46.8208 12.1861C46.8208 11.9824 46.9861 11.8116 47.1977 11.8116C47.4093 11.8116 47.5746 11.9759 47.5746 12.1861Z" fill="white"/>
<path d="M98.5741 25.9555C98.5741 26.1592 98.4088 26.33 98.1973 26.33C97.9923 26.33 97.8203 26.1657 97.8203 25.9555C97.8203 25.7453 97.9857 25.5811 98.1973 25.5811C98.4022 25.5811 98.5741 25.7453 98.5741 25.9555Z" fill="white"/>
<path d="M98.5741 38.6277C98.5741 38.8314 98.4088 39.0022 98.1973 39.0022C97.9923 39.0022 97.8203 38.838 97.8203 38.6277C97.8203 38.4175 97.9857 38.2533 98.1973 38.2533C98.4022 38.2533 98.5741 38.4241 98.5741 38.6277Z" fill="white"/>
<path d="M98.5741 51.911C98.5741 52.1146 98.4088 52.2854 98.1973 52.2854C97.9923 52.2854 97.8203 52.1212 97.8203 51.911C97.8203 51.7073 97.9857 51.5365 98.1973 51.5365C98.4022 51.5365 98.5741 51.7007 98.5741 51.911Z" fill="white"/>
<path d="M98.5741 60.3066C98.5741 60.5102 98.4088 60.681 98.1973 60.681C97.9923 60.681 97.8203 60.5168 97.8203 60.3066C97.8203 60.1029 97.9857 59.9321 98.1973 59.9321C98.4022 59.9321 98.5741 60.1029 98.5741 60.3066Z" fill="white"/>
<path d="M98.5741 68.735C98.5741 68.9387 98.4088 69.1095 98.1973 69.1095C97.9923 69.1095 97.8203 68.9453 97.8203 68.735C97.8203 68.5248 97.9857 68.3606 98.1973 68.3606C98.4022 68.3606 98.5741 68.5248 98.5741 68.735Z" fill="white"/>
<path d="M12.4242 12.4357C12.4242 12.6394 12.2589 12.8102 12.0473 12.8102C11.8357 12.8102 11.6704 12.646 11.6704 12.4357C11.6704 12.2321 11.8357 12.0613 12.0473 12.0613C12.2589 12.0613 12.4242 12.2321 12.4242 12.4357Z" fill="white"/>
<path d="M30.5614 12.1861C30.5614 12.3897 30.3961 12.5606 30.1845 12.5606C29.9795 12.5606 29.8076 12.3963 29.8076 12.1861C29.8076 11.9824 29.9729 11.8116 30.1845 11.8116C30.3961 11.8116 30.5614 11.9759 30.5614 12.1861Z" fill="white"/>
<path d="M12.4242 25.6599C12.4242 25.8635 12.2589 26.0343 12.0473 26.0343C11.8357 26.0343 11.6704 25.8701 11.6704 25.6599C11.6704 25.4562 11.8357 25.2854 12.0473 25.2854C12.2589 25.2854 12.4242 25.4496 12.4242 25.6599Z" fill="white"/>
<path d="M12.4242 38.7131C12.4242 38.9168 12.2589 39.0876 12.0473 39.0876C11.8357 39.0876 11.6704 38.9234 11.6704 38.7131C11.6704 38.5095 11.8357 38.3387 12.0473 38.3387C12.2589 38.3387 12.4242 38.5095 12.4242 38.7131Z" fill="white"/>
<path d="M12.4242 51.819C12.4242 52.0226 12.2589 52.1934 12.0473 52.1934C11.8357 52.1934 11.6704 52.0292 11.6704 51.819C11.6704 51.6088 11.8357 51.4445 12.0473 51.4445C12.2589 51.4445 12.4242 51.6088 12.4242 51.819Z" fill="white"/>
<path d="M12.4242 60.3066C12.4242 60.5102 12.2589 60.681 12.0473 60.681C11.8357 60.681 11.6704 60.5168 11.6704 60.3066C11.6704 60.1029 11.8357 59.9321 12.0473 59.9321C12.2589 59.9321 12.4242 60.1029 12.4242 60.3066Z" fill="white"/>
<path d="M12.4242 69.1095C12.4242 69.3131 12.2589 69.484 12.0473 69.484C11.8357 69.484 11.6704 69.3197 11.6704 69.1095C11.6704 68.9058 11.8357 68.735 12.0473 68.735C12.2589 68.735 12.4242 68.8993 12.4242 69.1095Z" fill="white"/>
<path d="M12.4242 77.6036C12.4242 77.8073 12.2589 77.9781 12.0473 77.9781C11.8357 77.9781 11.6704 77.8139 11.6704 77.6036C11.6704 77.4 11.8357 77.2292 12.0473 77.2292C12.2589 77.2292 12.4242 77.4 12.4242 77.6036Z" fill="white"/>
<path d="M12.4242 86.0913C12.4242 86.2949 12.2589 86.4657 12.0473 86.4657C11.8357 86.4657 11.6704 86.3015 11.6704 86.0913C11.6704 85.8876 11.8357 85.7168 12.0473 85.7168C12.2589 85.7168 12.4242 85.8876 12.4242 86.0913Z" fill="white"/>
<path d="M12.4242 94.8942C12.4242 95.0978 12.2589 95.2686 12.0473 95.2686C11.8357 95.2686 11.6704 95.1044 11.6704 94.8942C11.6704 94.6905 11.8357 94.5197 12.0473 94.5197C12.2589 94.5197 12.4242 94.6905 12.4242 94.8942Z" fill="white"/>
<path d="M12.4242 103.717C12.4242 103.92 12.2589 104.091 12.0473 104.091C11.8357 104.091 11.6704 103.927 11.6704 103.717C11.6704 103.513 11.8357 103.342 12.0473 103.342C12.2589 103.342 12.4242 103.513 12.4242 103.717Z" fill="white"/>
<path d="M12.4242 111.6C12.4242 111.804 12.2589 111.974 12.0473 111.974C11.8357 111.974 11.6704 111.81 11.6704 111.6C11.6704 111.396 11.8357 111.226 12.0473 111.226C12.2589 111.226 12.4242 111.396 12.4242 111.6Z" fill="white"/>
<path d="M12.4242 120.403C12.4242 120.607 12.2589 120.777 12.0473 120.777C11.8357 120.777 11.6704 120.613 11.6704 120.403C11.6704 120.199 11.8357 120.029 12.0473 120.029C12.2589 120.029 12.4242 120.193 12.4242 120.403Z" fill="white"/>
<path d="M12.4242 128.976C12.4242 129.18 12.2589 129.35 12.0473 129.35C11.8357 129.35 11.6704 129.186 11.6704 128.976C11.6704 128.772 11.8357 128.601 12.0473 128.601C12.2589 128.601 12.4242 128.766 12.4242 128.976Z" fill="white"/>
<path d="M12.5763 141.576C12.5763 141.78 12.411 141.95 12.1994 141.95C11.9944 141.95 11.8225 141.786 11.8225 141.576C11.8225 141.372 11.9878 141.201 12.1994 141.201C12.4044 141.201 12.5763 141.372 12.5763 141.576Z" fill="white"/>
<path d="M26.1444 141.95C26.1444 142.154 25.9791 142.325 25.7675 142.325C25.5559 142.325 25.3906 142.161 25.3906 141.95C25.3906 141.747 25.5559 141.576 25.7675 141.576C25.9791 141.576 26.1444 141.747 26.1444 141.95Z" fill="white"/>
<path d="M43.6337 141.95C43.6337 142.154 43.4684 142.325 43.2568 142.325C43.0518 142.325 42.8799 142.161 42.8799 141.95C42.8799 141.747 43.0452 141.576 43.2568 141.576C43.4684 141.576 43.6337 141.747 43.6337 141.95Z" fill="white"/>
<path d="M61.0964 141.95C61.0964 142.154 60.9311 142.325 60.7195 142.325C60.5145 142.325 60.3427 142.161 60.3427 141.95C60.3427 141.747 60.5079 141.576 60.7195 141.576C60.9245 141.576 61.0964 141.747 61.0964 141.95Z" fill="white"/>
<path d="M78.1029 141.95C78.1029 142.154 77.9376 142.325 77.7261 142.325C77.5145 142.325 77.3491 142.161 77.3491 141.95C77.3491 141.747 77.5145 141.576 77.7261 141.576C77.9376 141.576 78.1029 141.747 78.1029 141.95Z" fill="white"/>
<path d="M98.5741 77.3934C98.5741 77.5971 98.4088 77.7679 98.1973 77.7679C97.9923 77.7679 97.8203 77.6037 97.8203 77.3934C97.8203 77.1832 97.9857 77.019 98.1973 77.019C98.4022 77.019 98.5741 77.1898 98.5741 77.3934Z" fill="white"/>
<path d="M98.5741 85.4935C98.5741 85.6971 98.4088 85.8679 98.1973 85.8679C97.9923 85.8679 97.8203 85.7037 97.8203 85.4935C97.8203 85.2898 97.9857 85.119 98.1973 85.119C98.4022 85.119 98.5741 85.2898 98.5741 85.4935Z" fill="white"/>
<path d="M98.5741 94.2241C98.5741 94.4277 98.4088 94.5985 98.1973 94.5985C97.9923 94.5985 97.8203 94.4343 97.8203 94.2241C97.8203 94.0204 97.9857 93.8496 98.1973 93.8496C98.4022 93.8562 98.5741 94.0204 98.5741 94.2241Z" fill="white"/>
<path d="M98.5741 102.836C98.5741 103.04 98.4088 103.211 98.1973 103.211C97.9923 103.211 97.8203 103.047 97.8203 102.836C97.8203 102.626 97.9857 102.462 98.1973 102.462C98.4022 102.462 98.5741 102.626 98.5741 102.836Z" fill="white"/>
<path d="M98.5741 111.212C98.5741 111.416 98.4088 111.587 98.1973 111.587C97.9923 111.587 97.8203 111.423 97.8203 111.212C97.8203 111.002 97.9857 110.838 98.1973 110.838C98.4022 110.838 98.5741 111.009 98.5741 111.212Z" fill="white"/>
<path d="M98.5741 119.477C98.5741 119.68 98.4088 119.851 98.1973 119.851C97.9923 119.851 97.8203 119.687 97.8203 119.477C97.8203 119.273 97.9857 119.102 98.1973 119.102C98.4022 119.102 98.5741 119.266 98.5741 119.477Z" fill="white"/>
<path d="M98.5741 127.912C98.5741 128.115 98.4088 128.286 98.1973 128.286C97.9923 128.286 97.8203 128.122 97.8203 127.912C97.8203 127.708 97.9857 127.537 98.1973 127.537C98.4022 127.537 98.5741 127.701 98.5741 127.912Z" fill="white"/>
<path d="M98.5741 140.768C98.5741 140.972 98.4088 141.142 98.1973 141.142C97.9923 141.142 97.8203 140.978 97.8203 140.768C97.8203 140.564 97.9857 140.393 98.1973 140.393C98.4022 140.393 98.5741 140.558 98.5741 140.768Z" fill="white"/>
<path d="M15.8692 22.3226C15.1881 21.5803 14.1368 22.0204 14.1368 22.0204C14.4277 21.7117 14.6261 21.462 14.5864 20.9496C14.5864 20.9299 14.5864 20.9168 14.5864 20.8971C14.5864 20.0825 13.9252 19.4255 13.1053 19.4255C12.2854 19.4255 11.6242 20.0825 11.6242 20.8971C11.6242 21.0022 11.6374 21.1007 11.6572 21.1927C11.6903 21.5474 11.8688 21.7577 12.1069 22.0139C12.1069 22.0139 11.0555 21.5737 10.3745 22.316C9.69341 23.0584 10.0306 23.9387 10.2488 24.2277C10.467 24.5168 10.7844 25.0029 11.5448 24.9438C12.2192 24.8912 12.3185 24.7796 12.7813 24.4117C12.7284 25.4168 12.1135 26.1066 12.1135 26.1066H12.1531H13.1251H14.0971H14.1368C13.7665 25.719 13.4359 24.8255 13.4756 24.4182C13.9252 24.7796 14.031 24.8912 14.6988 24.9372C15.4592 24.9963 15.7832 24.5102 15.9948 24.2212C16.213 23.9452 16.5568 23.065 15.8692 22.3226Z" fill="#151515"/>
<path d="M10.9828 16.811C10.553 16.6139 10.2025 16.338 9.94466 15.9701C9.68679 15.6022 9.55457 15.1752 9.55457 14.6825C9.55457 14.065 9.73309 13.5789 10.0835 13.2307C10.434 12.8825 10.8043 12.6526 11.201 12.5409V12.4884L11.0621 12.4227C10.6059 12.2387 10.262 11.9628 10.024 11.5949C9.78597 11.227 9.66696 10.8066 9.66696 10.3205C9.66696 9.88033 9.80581 9.4796 10.0769 9.11829C10.348 8.75697 10.7051 8.47449 11.1415 8.27741C11.5779 8.08033 12.0341 7.97522 12.5036 7.97522C13.0854 7.97522 13.5813 8.08033 13.9847 8.29055C14.388 8.50077 14.6988 8.77011 14.9038 9.10515C15.1088 9.44018 15.2146 9.79493 15.2146 10.1694C15.2146 10.6292 15.0691 11.0234 14.7715 11.3584C14.474 11.6935 14.1302 11.9497 13.74 12.127V12.1796L14.0376 12.2978C15.0493 12.7051 15.5518 13.3489 15.5518 14.2227C15.5518 14.7482 15.4328 15.2343 15.1881 15.6679C14.9435 16.1081 14.5864 16.4562 14.1103 16.7124C13.6342 16.9687 13.0656 17.1 12.411 17.1C11.8821 17.1 11.4126 17.0015 10.9828 16.811ZM13.6806 16.3971C13.9781 16.2 14.1963 15.9635 14.3285 15.6876C14.4608 15.4117 14.5269 15.1489 14.5269 14.9059C14.5269 14.4329 14.4211 14.0781 14.2095 13.8482C13.9979 13.6183 13.6938 13.4212 13.2904 13.2635L11.558 12.6395C11.2076 12.784 10.9365 13.0139 10.7381 13.3292C10.5398 13.6446 10.4406 14.1044 10.4406 14.7088C10.4406 15.392 10.6456 15.8913 11.0621 16.2132C11.4787 16.5351 11.9614 16.6993 12.5168 16.6993C12.9995 16.6927 13.383 16.5942 13.6806 16.3971ZM14.1434 11.2862C14.2955 10.9905 14.3748 10.6424 14.3748 10.2416C14.3748 9.89347 14.2889 9.57814 14.1169 9.28909C13.945 9.00661 13.7136 8.78325 13.4293 8.61902C13.145 8.45478 12.8276 8.37595 12.4838 8.37595C11.9548 8.37595 11.5051 8.52704 11.1415 8.82266C10.7778 9.11829 10.5993 9.51245 10.5993 10.0117C10.5993 10.3665 10.6852 10.6555 10.8638 10.8657C11.0423 11.076 11.3134 11.2599 11.6903 11.411L13.3433 12.0351C13.7268 11.838 13.9913 11.5884 14.1434 11.2862Z" fill="black"/>
<path d="M96.5707 131.196C97.2517 131.939 98.3031 131.499 98.3031 131.499C98.0121 131.807 97.8137 132.057 97.8534 132.569C97.8534 132.589 97.8534 132.602 97.8534 132.622C97.8534 133.437 98.5146 134.093 99.3345 134.093C100.154 134.093 100.816 133.437 100.816 132.622C100.816 132.517 100.802 132.418 100.783 132.326C100.75 131.972 100.571 131.761 100.333 131.505C100.333 131.505 101.384 131.945 102.065 131.203C102.746 130.461 102.409 129.58 102.191 129.291C101.973 129.002 101.655 128.516 100.895 128.575C100.221 128.628 100.121 128.739 99.6585 129.107C99.7114 128.102 100.326 127.412 100.326 127.412H100.287H99.3147H98.3427H98.3031C98.6733 127.8 99.0039 128.693 98.9643 129.101C98.5146 128.739 98.4088 128.628 97.741 128.582C96.9806 128.523 96.6566 129.009 96.445 129.298C96.2334 129.574 95.8896 130.454 96.5707 131.196Z" fill="#151515"/>
<path d="M101.457 136.708C101.887 136.905 102.237 137.181 102.495 137.549C102.753 137.917 102.885 138.344 102.885 138.837C102.885 139.461 102.707 139.94 102.356 140.288C102.006 140.637 101.636 140.866 101.239 140.978V141.031L101.378 141.096C101.834 141.28 102.178 141.556 102.416 141.924C102.654 142.292 102.773 142.712 102.773 143.199C102.773 143.639 102.634 144.039 102.363 144.401C102.092 144.762 101.735 145.045 101.298 145.242C100.862 145.439 100.406 145.544 99.9364 145.544C99.3545 145.544 98.8586 145.439 98.4553 145.235C98.0519 145.025 97.7411 144.755 97.5362 144.42C97.3312 144.085 97.2254 143.731 97.2254 143.356C97.2254 142.896 97.3708 142.502 97.6684 142.161C97.9659 141.826 98.3098 141.569 98.6999 141.392V141.339L98.4023 141.221C97.3907 140.814 96.8882 140.17 96.8882 139.296C96.8882 138.771 97.0072 138.285 97.2518 137.851C97.4965 137.411 97.8535 137.063 98.3296 136.807C98.8057 136.544 99.3744 136.419 100.029 136.419C100.558 136.419 101.027 136.518 101.457 136.708ZM98.7594 137.115C98.4619 137.312 98.2437 137.549 98.1114 137.825C97.9792 138.101 97.913 138.364 97.913 138.607C97.913 139.08 98.0188 139.434 98.2304 139.664C98.442 139.894 98.7462 140.091 99.1495 140.249L100.882 140.873C101.232 140.728 101.503 140.499 101.702 140.183C101.9 139.868 101.999 139.408 101.999 138.804C101.999 138.12 101.794 137.621 101.378 137.299C100.961 136.977 100.479 136.813 99.9231 136.813C99.4405 136.826 99.0569 136.925 98.7594 137.115ZM98.2966 142.233C98.1445 142.528 98.0651 142.877 98.0651 143.277C98.0651 143.626 98.1511 143.941 98.323 144.23C98.4949 144.512 98.7263 144.736 99.0107 144.9C99.295 145.064 99.6124 145.143 99.9562 145.143C100.485 145.143 100.935 144.992 101.298 144.696C101.662 144.401 101.841 144.007 101.841 143.514C101.841 143.159 101.755 142.87 101.576 142.66C101.398 142.45 101.127 142.266 100.75 142.115L99.0966 141.491C98.7131 141.681 98.4487 141.937 98.2966 142.233Z" fill="black"/>
<path d="M64.5347 52.4694C62.1676 49.9007 58.5375 51.4248 58.5375 51.4248C59.5558 50.3475 60.2302 49.4869 60.1046 47.7197C60.1046 47.6606 60.1112 47.6015 60.1112 47.5424C60.1112 44.7307 57.8168 42.4511 54.9868 42.4511C52.1568 42.4511 49.8624 44.7307 49.8624 47.5424C49.8624 47.8971 49.902 48.2453 49.9681 48.5737C50.0871 49.7956 50.6954 50.538 51.5286 51.4248C51.5286 51.4248 47.8919 49.9007 45.5314 52.4694C43.1642 55.038 44.3478 58.0796 45.095 59.0847C45.8422 60.0832 46.953 61.765 49.5846 61.5745C51.9121 61.4037 52.2559 61.0095 53.8561 59.7416C53.6643 63.2299 51.5352 65.6146 51.5352 65.6146H51.6675H55.0397H58.4119H58.5442C57.2548 64.2679 56.1174 61.1803 56.2629 59.7745C57.83 61.0161 58.1871 61.4037 60.4881 61.5745C63.1131 61.7715 64.2306 60.0898 64.9778 59.0847C65.7117 58.0796 66.8953 55.0314 64.5347 52.4694Z" fill="#151515"/>
<path d="M39.9574 29.5095C37.5902 26.9409 33.9601 28.465 33.9601 28.465C34.9784 27.3876 35.6528 26.527 35.5272 24.7599C35.5272 24.7008 35.5338 24.6416 35.5338 24.5825C35.5338 21.7708 33.2394 19.4913 30.4094 19.4913C27.5794 19.4913 25.285 21.7708 25.285 24.5825C25.285 24.9373 25.3246 25.2854 25.3907 25.6139C25.5098 26.8358 26.1181 27.5781 26.9512 28.465C26.9512 28.465 23.3145 26.9409 20.954 29.5095C18.5868 32.0781 19.7704 35.1197 20.5176 36.1249C21.2647 37.1234 22.3756 38.8051 25.0073 38.6146C27.3347 38.4438 27.6785 38.0497 29.2787 36.7818C29.0869 40.2701 26.9579 42.6548 26.9579 42.6548H27.0901H30.4623H33.8345H33.9667C32.6774 41.3081 31.5401 38.2205 31.6855 36.8146C33.2526 38.0562 33.6097 38.4438 35.9107 38.6146C38.5357 38.8117 39.6532 37.13 40.4004 36.1249C41.1409 35.1263 42.3245 32.0781 39.9574 29.5095Z" fill="#151515"/>
<path d="M39.9574 75.5212C37.5902 72.9526 33.9601 74.4767 33.9601 74.4767C34.9784 73.3993 35.6528 72.5387 35.5272 70.7715C35.5272 70.7124 35.5338 70.6533 35.5338 70.5942C35.5338 67.7825 33.2394 65.5029 30.4094 65.5029C27.5794 65.5029 25.285 67.7825 25.285 70.5942C25.285 70.9489 25.3246 71.2905 25.3907 71.6256C25.5098 72.8475 26.1181 73.5898 26.9512 74.4767C26.9512 74.4767 23.3145 72.9526 20.954 75.5212C18.5868 78.0898 19.7704 81.1314 20.5176 82.1365C21.2647 83.135 22.3756 84.8168 25.0073 84.6263C27.3347 84.4555 27.6785 84.0613 29.2787 82.7934C29.0869 86.2818 26.9579 88.6664 26.9579 88.6664H27.0901H30.4623H33.8345H33.9667C32.6774 87.3197 31.5401 84.2321 31.6855 82.8263C33.2526 84.0679 33.6097 84.4555 35.9107 84.6263C38.5357 84.8234 39.6532 83.1416 40.4004 82.1365C41.1409 81.1314 42.3245 78.0898 39.9574 75.5212Z" fill="#151515"/>
<path d="M39.9574 124.207C37.5902 126.775 33.9601 125.251 33.9601 125.251C34.9784 126.328 35.6528 127.189 35.5272 128.956C35.5272 129.015 35.5338 129.074 35.5338 129.134C35.5338 131.945 33.2394 134.225 30.4094 134.225C27.5794 134.225 25.285 131.945 25.285 129.134C25.285 128.779 25.3246 128.431 25.3907 128.102C25.5098 126.88 26.1181 126.138 26.9512 125.251C26.9512 125.251 23.3145 126.775 20.954 124.207C18.5868 121.638 19.7704 118.596 20.5176 117.591C21.2647 116.593 22.3756 114.911 25.0073 115.101C27.3347 115.272 27.6785 115.666 29.2787 116.934C29.0869 113.446 26.9579 111.061 26.9579 111.061H27.0901H30.4623H33.8345H33.9667C32.6774 112.408 31.5401 115.496 31.6855 116.901C33.2526 115.66 33.6097 115.272 35.9107 115.101C38.5357 114.904 39.6532 116.586 40.4004 117.591C41.1409 118.596 42.3245 121.645 39.9574 124.207Z" fill="#151515"/>
<path d="M91.6975 29.5095C89.3304 26.9409 85.7003 28.465 85.7003 28.465C86.7186 27.3876 87.393 26.527 87.2674 24.7599C87.2674 24.7008 87.274 24.6416 87.274 24.5825C87.274 21.7708 84.9796 19.4913 82.1496 19.4913C79.3196 19.4913 77.0252 21.7708 77.0252 24.5825C77.0252 24.9373 77.0649 25.2854 77.131 25.6139C77.25 26.8358 77.8583 27.5781 78.6914 28.465C78.6914 28.465 75.0547 26.9409 72.6942 29.5095C70.3336 32.0781 71.5106 35.1197 72.2578 36.1249C73.005 37.1234 74.1158 38.8051 76.7474 38.6146C79.0749 38.4438 79.4188 38.0497 81.0189 36.7818C80.8272 40.2701 78.6981 42.6548 78.6981 42.6548H78.8303H82.2025H85.5747H85.7069C84.4176 41.3081 83.2803 38.2205 83.4258 36.8146C84.9929 38.0562 85.3498 38.4438 87.6509 38.6146C90.2759 38.8117 91.3934 37.13 92.1406 36.1249C92.8811 35.1263 94.0581 32.0781 91.6975 29.5095Z" fill="#151515"/>
<path d="M91.6974 75.5212C89.3303 72.9526 85.7002 74.4767 85.7002 74.4767C86.7185 73.3993 87.3929 72.5387 87.2673 70.7715C87.2673 70.7124 87.2739 70.6533 87.2739 70.5942C87.2739 67.7825 84.9795 65.5029 82.1495 65.5029C79.3195 65.5029 77.0251 67.7825 77.0251 70.5942C77.0251 70.9489 77.0648 71.2905 77.1309 71.6256C77.2499 72.8475 77.8582 73.5898 78.6914 74.4767C78.6914 74.4767 75.0546 72.9526 72.6941 75.5212C70.3269 78.0898 71.5106 81.1314 72.2577 82.1365C73.0049 83.135 74.1157 84.8168 76.7473 84.6263C79.0748 84.4555 79.4187 84.0613 81.0189 82.7934C80.8271 86.2818 78.698 88.6664 78.698 88.6664H78.8302H82.2024H85.5746H85.7069C84.4175 87.3197 83.2802 84.2321 83.4257 82.8263C84.9928 84.0679 85.3498 84.4555 87.6508 84.6263C90.2758 84.8234 91.3933 83.1416 92.1405 82.1365C92.881 81.1314 94.058 78.0898 91.6974 75.5212Z" fill="#151515"/>
<path d="M91.6975 124.207C89.3304 126.775 85.7003 125.251 85.7003 125.251C86.7186 126.328 87.393 127.189 87.2674 128.956C87.2674 129.015 87.274 129.074 87.274 129.134C87.274 131.945 84.9796 134.225 82.1496 134.225C79.3196 134.225 77.0252 131.945 77.0252 129.134C77.0252 128.779 77.0649 128.431 77.131 128.102C77.25 126.88 77.8583 126.138 78.6914 125.251C78.6914 125.251 75.0547 126.775 72.6942 124.207C70.3336 121.638 71.5106 118.596 72.2578 117.591C73.005 116.593 74.1158 114.911 76.7474 115.101C79.0749 115.272 79.4188 115.666 81.0189 116.934C80.8272 113.446 78.6981 111.061 78.6981 111.061H78.8303H82.2025H85.5747H85.7069C84.4176 112.408 83.2803 115.496 83.4258 116.901C84.9929 115.66 85.3498 115.272 87.6509 115.101C90.2759 114.904 91.3934 116.586 92.1406 117.591C92.8811 118.596 94.0581 121.645 91.6975 124.207Z" fill="#151515"/>
<path d="M64.5347 99.9066C62.1676 102.475 58.5375 100.951 58.5375 100.951C59.5558 102.029 60.2302 102.889 60.1046 104.656C60.1046 104.715 60.1112 104.774 60.1112 104.834C60.1112 107.645 57.8168 109.925 54.9868 109.925C52.1568 109.925 49.8624 107.645 49.8624 104.834C49.8624 104.479 49.902 104.131 49.9681 103.802C50.0871 102.58 50.6954 101.838 51.5286 100.951C51.5286 100.951 47.8919 102.475 45.5314 99.9066C43.1642 97.338 44.3478 94.2964 45.095 93.2913C45.8422 92.2927 46.953 90.611 49.5846 90.8015C51.9121 90.9723 52.2559 91.3665 53.8561 92.6343C53.6643 89.146 51.5352 86.7614 51.5352 86.7614H51.6675H55.0397H58.4119H58.5442C57.2548 88.1081 56.1174 91.1957 56.2629 92.6015C57.83 91.3599 58.1871 90.9723 60.4881 90.8015C63.1131 90.6044 64.2306 92.2862 64.9778 93.2913C65.7117 94.2964 66.8953 97.3446 64.5347 99.9066Z" fill="#151515"/>
</svg>
