<svg width="110" height="153" viewBox="0 0 110 153" fill="none" xmlns="http://www.w3.org/2000/svg">
<path d="M106.071 153H3.92853C1.75922 153 0 151.253 0 149.098V3.90219C0 1.74745 1.75922 0 3.92853 0H106.071C108.241 0 110 1.74745 110 3.90219V149.098C110 151.253 108.241 153 106.071 153Z" fill="white"/>
<path d="M14.2329 21.8891C13.5516 21.1467 12.5 21.5869 12.5 21.5869C12.791 21.2781 12.9894 21.0285 12.9498 20.5161C12.9498 20.4964 12.9498 20.4832 12.9498 20.4635C12.9498 19.6489 12.2884 18.992 11.4683 18.992C10.6482 18.992 9.9868 19.6489 9.9868 20.4635C9.9868 20.5686 9.99998 20.6672 10.0198 20.7592C10.0529 21.1139 10.2315 21.3241 10.4696 21.5803C10.4696 21.5803 9.41801 21.1402 8.73679 21.8825C8.05557 22.6249 8.39291 23.5051 8.61117 23.7942C8.82942 24.0832 9.14686 24.5694 9.90744 24.5103C10.582 24.4577 10.6812 24.346 11.1376 23.9781C11.0847 24.9832 10.4696 25.673 10.4696 25.673H10.5093H11.4815H12.4537H12.4934C12.1231 25.2854 11.7924 24.392 11.8321 23.9847C12.2818 24.346 12.3876 24.4577 13.0556 24.5037C13.8162 24.5628 14.1402 24.0767 14.3519 23.7876C14.5767 23.5117 14.9207 22.6314 14.2329 21.8891Z" fill="#151515"/>
<path d="M8.83596 16.0555C8.71029 15.9044 8.61767 15.7336 8.55815 15.5431C8.50524 15.3591 8.47217 15.1883 8.47217 15.0438C8.47217 14.7482 8.57798 14.5051 8.79624 14.3146C8.94835 14.1898 9.12696 14.1241 9.32537 14.1241C9.52378 14.1241 9.67586 14.2029 9.7883 14.354C9.82798 14.4132 9.86105 14.4657 9.87428 14.5183C9.88751 14.5708 9.89414 14.6365 9.89414 14.7219C9.89414 14.8467 9.84123 14.9781 9.7288 15.1029C9.64943 15.1883 9.57007 15.2606 9.48409 15.3197C9.40473 15.3723 9.35182 15.4248 9.32537 15.4774C9.2923 15.5299 9.27903 15.5956 9.27903 15.6745C9.27903 15.8256 9.36502 15.9635 9.54359 16.0752C9.71555 16.1869 9.98677 16.246 10.3439 16.246C10.6548 16.246 10.9457 16.154 11.2235 15.9767C11.5013 15.7993 11.7327 15.5037 11.9245 15.0832C12.07 14.7679 12.1825 14.3737 12.2552 13.8942C12.3346 13.4146 12.3677 13.0139 12.3677 12.7051V12.1336L12.2751 12.0942C12.123 12.4161 11.8849 12.6854 11.5608 12.8891C11.2434 13.0993 10.9325 13.2044 10.6283 13.2044C10.0529 13.2044 9.5701 13.0664 9.17988 12.784C8.8492 12.5475 8.59124 12.2256 8.41267 11.8183C8.23409 11.4175 8.14148 10.984 8.14148 10.5241C8.14148 10.0642 8.24728 9.60439 8.45231 9.13797C8.65733 8.67155 8.96156 8.29052 9.35839 7.98177C9.75521 7.67301 10.2249 7.52191 10.7606 7.52191C11.3161 7.52191 11.8055 7.69271 12.2288 8.03432C12.6521 8.37593 12.9828 8.86206 13.2076 9.49271C13.4391 10.1234 13.5516 10.8723 13.5516 11.7329C13.5516 12.4292 13.459 13.1124 13.2804 13.7825C13.1018 14.4526 12.8372 15.011 12.4999 15.4511C11.8782 16.2526 11.1441 16.6467 10.3042 16.6467C9.70234 16.673 9.21294 16.4694 8.83596 16.0555ZM11.4153 12.4489C11.6534 12.2518 11.8452 11.9759 11.9841 11.6146C12.123 11.2533 12.1957 10.8394 12.1957 10.373C12.1957 9.67009 12.0833 9.08542 11.865 8.63213C11.6402 8.17885 11.2765 7.94892 10.7606 7.94892C10.2381 7.94892 9.86105 8.19855 9.62295 8.69125C9.38486 9.18396 9.27249 9.74235 9.27249 10.373C9.27249 11.0562 9.37829 11.6212 9.58331 12.0679C9.78834 12.5212 10.1322 12.7445 10.6084 12.7445C10.906 12.7445 11.1772 12.646 11.4153 12.4489Z" fill="black"/>
<path d="M94.9338 130.763C95.6151 131.505 96.6666 131.065 96.6666 131.065C96.3756 131.374 96.1773 131.623 96.2169 132.136C96.2169 132.156 96.2169 132.169 96.2169 132.188C96.2169 133.003 96.8783 133.66 97.6984 133.66C98.5185 133.66 99.1799 133.003 99.1799 132.188C99.1799 132.083 99.1666 131.985 99.1468 131.893C99.1137 131.538 98.9352 131.328 98.6971 131.072C98.6971 131.072 99.7487 131.512 100.43 130.769C101.111 130.027 100.774 129.147 100.556 128.858C100.337 128.569 100.02 128.083 99.2593 128.142C98.5847 128.194 98.4855 128.306 98.0225 128.674C98.0754 127.669 98.6905 126.979 98.6905 126.979H98.6508H97.6786H96.7064H96.6666C97.037 127.366 97.3677 128.26 97.328 128.667C96.8783 128.306 96.7725 128.194 96.1045 128.148C95.3439 128.089 95.0199 128.575 94.8082 128.864C94.5966 129.14 94.2526 130.02 94.9338 130.763Z" fill="#151515"/>
<path d="M100.331 136.596C100.456 136.747 100.549 136.918 100.608 137.109C100.661 137.293 100.694 137.464 100.694 137.608C100.694 137.904 100.589 138.147 100.37 138.337C100.218 138.462 100.04 138.528 99.8413 138.528C99.6428 138.528 99.4908 138.449 99.3783 138.298C99.3386 138.239 99.3056 138.186 99.2923 138.134C99.2791 138.081 99.2725 138.015 99.2725 137.93C99.2725 137.805 99.3254 137.674 99.4378 137.549C99.5172 137.464 99.5965 137.391 99.6825 137.332C99.7619 137.28 99.8148 137.227 99.8413 137.174C99.8743 137.122 99.8875 137.056 99.8875 136.977C99.8875 136.826 99.8016 136.688 99.623 136.577C99.4511 136.465 99.1799 136.406 98.8227 136.406C98.5119 136.406 98.2209 136.498 97.9431 136.675C97.6653 136.853 97.4338 137.148 97.242 137.569C97.0965 137.884 96.9841 138.278 96.9113 138.758C96.832 139.237 96.7989 139.638 96.7989 139.947V140.518L96.8915 140.558C97.0437 140.236 97.2817 139.966 97.6058 139.763C97.9233 139.553 98.2341 139.447 98.5384 139.447C99.1138 139.447 99.5965 139.585 99.9867 139.868C100.317 140.104 100.575 140.426 100.754 140.834C100.933 141.234 101.025 141.668 101.025 142.128C101.025 142.588 100.919 143.047 100.714 143.514C100.509 143.98 100.205 144.361 99.8082 144.67C99.4113 144.979 98.9418 145.13 98.406 145.13C97.8505 145.13 97.3611 144.959 96.9378 144.618C96.5145 144.276 96.1838 143.79 95.959 143.159C95.7275 142.529 95.6151 141.78 95.6151 140.919C95.6151 140.223 95.7077 139.539 95.8862 138.869C96.0648 138.199 96.3293 137.641 96.6666 137.201C97.2883 136.399 98.0225 136.005 98.8624 136.005C99.4643 135.985 99.9537 136.189 100.331 136.596ZM97.7513 140.21C97.5132 140.407 97.3214 140.683 97.1825 141.044C97.0436 141.405 96.9709 141.819 96.9709 142.285C96.9709 142.988 97.0833 143.573 97.3016 144.026C97.5265 144.48 97.8902 144.71 98.406 144.71C98.9285 144.71 99.3056 144.46 99.5437 143.967C99.7818 143.474 99.8941 142.916 99.8941 142.285C99.8941 141.602 99.7883 141.037 99.5833 140.591C99.3783 140.137 99.0344 139.914 98.5582 139.914C98.2606 139.914 97.996 140.012 97.7513 140.21Z" fill="black"/>
<path d="M63.6442 76.3226C61.2765 73.754 57.6455 75.2781 57.6455 75.2781C58.664 74.2007 59.3386 73.3401 59.2129 71.573C59.2129 71.5139 59.2196 71.4547 59.2196 71.3956C59.2196 68.5839 56.9246 66.3044 54.0939 66.3044C51.2632 66.3044 48.9682 68.5839 48.9682 71.3956C48.9682 71.7504 49.0079 72.092 49.0741 72.427C49.1931 73.6489 49.8016 74.3912 50.6349 75.2781C50.6349 75.2781 46.9974 73.754 44.6363 76.3226C42.2686 78.8912 43.4524 81.9328 44.1997 82.938C44.9471 83.9431 46.0582 85.6182 48.6905 85.4277C51.0186 85.2569 51.3624 84.8628 52.9564 83.5949C52.7646 87.0832 50.6349 89.4679 50.6349 89.4679H50.7672H54.1402H57.5132H57.6455C56.3558 88.1212 55.2183 85.0336 55.3638 83.6277C56.9246 84.8693 57.2884 85.2569 59.59 85.4277C62.2156 85.6248 63.3334 83.9431 64.0807 82.938C64.8281 81.9328 66.0119 78.8912 63.6442 76.3226Z" fill="#151515"/>
<path d="M38.4589 26.6519C36.0912 24.0832 32.4603 25.6073 32.4603 25.6073C33.4788 24.53 34.1534 23.6694 34.0278 21.9022C34.0278 21.8431 34.0344 21.784 34.0344 21.7248C34.0344 18.9132 31.7394 16.6336 28.9087 16.6336C26.078 16.6336 23.783 18.9132 23.783 21.7248C23.783 22.0796 23.8228 22.4212 23.8889 22.7562C24.0079 23.9781 24.6164 24.7205 25.4497 25.6073C25.4497 25.6073 21.8121 24.0832 19.451 26.6519C17.0833 29.2205 18.2672 32.2621 19.0146 33.2672C19.7619 34.2657 20.873 35.9475 23.5052 35.757C25.8333 35.5862 26.1772 35.192 27.7712 33.9241C27.5794 37.4124 25.4497 39.7971 25.4497 39.7971H25.582H28.955H32.3281H32.4603C31.1706 38.4504 30.0331 35.3628 30.1786 33.957C31.7394 35.1986 32.1032 35.5862 34.4048 35.757C37.0304 35.954 38.1481 34.2723 38.8955 33.2672C39.6428 32.2621 40.8201 29.2205 38.4589 26.6519Z" fill="#151515"/>
<path d="M38.4589 59.6037C36.0912 57.0351 32.4603 58.5592 32.4603 58.5592C33.4788 57.4818 34.1534 56.6212 34.0278 54.8541C34.0278 54.7949 34.0344 54.7358 34.0344 54.6767C34.0344 51.865 31.7394 49.5854 28.9087 49.5854C26.078 49.5854 23.783 51.865 23.783 54.6767C23.783 55.0314 23.8228 55.3796 23.8889 55.7081C24.0079 56.93 24.6164 57.6723 25.4497 58.5592C25.4497 58.5592 21.8121 57.0351 19.451 59.6037C17.0833 62.1723 18.2672 65.2139 19.0146 66.219C19.7619 67.2176 20.873 68.8993 23.5052 68.7088C25.8333 68.538 26.1772 68.1438 27.7712 66.876C27.5794 70.3643 25.4497 72.7489 25.4497 72.7489H25.582H28.955H32.3281H32.4603C31.1706 71.4022 30.0331 68.3146 30.1786 66.9088C31.7394 68.1504 32.1032 68.538 34.4048 68.7088C37.0304 68.9059 38.1481 67.2241 38.8955 66.219C39.6428 65.2205 40.8201 62.1723 38.4589 59.6037Z" fill="#151515"/>
<path d="M38.4589 128.634C36.0912 131.203 32.4603 129.679 32.4603 129.679C33.4788 130.756 34.1534 131.617 34.0278 133.384C34.0278 133.443 34.0344 133.502 34.0344 133.561C34.0344 136.373 31.7394 138.653 28.9087 138.653C26.078 138.653 23.783 136.373 23.783 133.561C23.783 133.207 23.8228 132.858 23.8889 132.53C24.0079 131.308 24.6164 130.566 25.4497 129.679C25.4497 129.679 21.8121 131.203 19.451 128.634C17.0833 126.066 18.2672 123.024 19.0146 122.019C19.7619 121.02 20.873 119.339 23.5052 119.529C25.8333 119.7 26.1772 120.094 27.7712 121.362C27.5794 117.874 25.4497 115.489 25.4497 115.489H25.582H28.955H32.3281H32.4603C31.1706 116.836 30.0331 119.923 30.1786 121.329C31.7394 120.088 32.1032 119.7 34.4048 119.529C37.0304 119.332 38.1481 121.014 38.8955 122.019C39.6428 123.024 40.8201 126.066 38.4589 128.634Z" fill="#151515"/>
<path d="M90.1985 26.6519C87.8308 24.0832 84.1998 25.6073 84.1998 25.6073C85.2183 24.53 85.8929 23.6694 85.7672 21.9022C85.7672 21.8431 85.7738 21.784 85.7738 21.7248C85.7738 18.9132 83.4789 16.6336 80.6482 16.6336C77.8175 16.6336 75.5225 18.9132 75.5225 21.7248C75.5225 22.0796 75.5622 22.4212 75.6283 22.7562C75.7474 23.9781 76.3558 24.7205 77.1892 25.6073C77.1892 25.6073 73.5517 24.0832 71.1905 26.6519C68.8228 29.2205 70.0067 32.2621 70.754 33.2672C71.5014 34.2657 72.6125 35.9475 75.2448 35.757C77.5728 35.5862 77.9167 35.192 79.5106 33.9241C79.3188 37.4124 77.1892 39.7971 77.1892 39.7971H77.3214H80.6945H84.0675H84.1998C82.9101 38.4504 81.7725 35.3628 81.918 33.957C83.4789 35.1986 83.8427 35.5862 86.1442 35.757C88.7699 35.954 89.8876 34.2723 90.6349 33.2672C91.3823 32.2621 92.5662 29.2205 90.1985 26.6519Z" fill="#151515"/>
<path d="M90.1985 59.6037C87.8308 57.0351 84.1998 58.5592 84.1998 58.5592C85.2183 57.4818 85.8929 56.6212 85.7672 54.8541C85.7672 54.7949 85.7738 54.7358 85.7738 54.6767C85.7738 51.865 83.4789 49.5854 80.6482 49.5854C77.8175 49.5854 75.5225 51.865 75.5225 54.6767C75.5225 55.0314 75.5622 55.3796 75.6283 55.7081C75.7474 56.93 76.3558 57.6723 77.1892 58.5592C77.1892 58.5592 73.5517 57.0351 71.1905 59.6037C68.8228 62.1723 70.0067 65.2139 70.754 66.219C71.5014 67.2176 72.6125 68.8993 75.2448 68.7088C77.5728 68.538 77.9167 68.1438 79.5106 66.876C79.3188 70.3643 77.1892 72.7489 77.1892 72.7489H77.3214H80.6945H84.0675H84.1998C82.9101 71.4022 81.7725 68.3146 81.918 66.9088C83.4789 68.1504 83.8427 68.538 86.1442 68.7088C88.7699 68.9059 89.8876 67.2241 90.6349 66.219C91.3823 65.2205 92.5662 62.1723 90.1985 59.6037Z" fill="#151515"/>
<path d="M90.1985 128.634C87.8308 131.203 84.1998 129.679 84.1998 129.679C85.2183 130.756 85.8929 131.617 85.7672 133.384C85.7672 133.443 85.7738 133.502 85.7738 133.561C85.7738 136.373 83.4789 138.653 80.6482 138.653C77.8175 138.653 75.5225 136.373 75.5225 133.561C75.5225 133.207 75.5622 132.858 75.6283 132.53C75.7474 131.308 76.3558 130.566 77.1892 129.679C77.1892 129.679 73.5517 131.203 71.1905 128.634C68.8228 126.066 70.0067 123.024 70.754 122.019C71.5014 121.02 72.6125 119.339 75.2448 119.529C77.5728 119.7 77.9167 120.094 79.5106 121.362C79.3188 117.874 77.1892 115.489 77.1892 115.489H77.3214H80.6945H84.0675H84.1998C82.9101 116.836 81.7725 119.923 81.918 121.329C83.4789 120.088 83.8427 119.7 86.1442 119.529C88.7699 119.332 89.8876 121.014 90.6349 122.019C91.3823 123.024 92.5662 126.066 90.1985 128.634Z" fill="#151515"/>
<path d="M38.459 95.6825C36.0912 98.2511 32.4603 96.727 32.4603 96.727C33.4788 97.8044 34.1534 98.665 34.0278 100.432C34.0278 100.491 34.0344 100.55 34.0344 100.609C34.0344 103.421 31.7394 105.701 28.9087 105.701C26.078 105.701 23.7831 103.421 23.7831 100.609C23.7831 100.255 23.8228 99.9066 23.8889 99.5781C24.008 98.3562 24.6164 97.6139 25.4498 96.727C25.4498 96.727 21.8121 98.2511 19.451 95.6825C17.0899 93.1139 18.2672 90.0723 19.0146 89.0672C19.7619 88.0686 20.873 86.3869 23.5053 86.5774C25.8333 86.7482 26.1773 87.1423 27.7712 88.4102C27.5794 84.9219 25.4498 82.5372 25.4498 82.5372H25.582H28.955H32.3281H32.4603C31.1706 83.8839 30.0331 86.9715 30.1786 88.3774C31.7395 87.1358 32.1032 86.7482 34.4048 86.5774C37.0305 86.3803 38.1481 88.0621 38.8955 89.0672C39.6429 90.0657 40.8201 93.1139 38.459 95.6825Z" fill="#151515"/>
<path d="M90.1985 95.6825C87.8308 98.2511 84.1998 96.727 84.1998 96.727C85.2183 97.8044 85.8929 98.665 85.7672 100.432C85.7672 100.491 85.7738 100.55 85.7738 100.609C85.7738 103.421 83.4789 105.701 80.6482 105.701C77.8175 105.701 75.5225 103.421 75.5225 100.609C75.5225 100.255 75.5622 99.9066 75.6283 99.5781C75.7474 98.3562 76.3558 97.6139 77.1892 96.727C77.1892 96.727 73.5517 98.2511 71.1905 95.6825C68.8228 93.1139 70.0067 90.0723 70.754 89.0672C71.5014 88.0686 72.6125 86.3869 75.2448 86.5774C77.5728 86.7482 77.9167 87.1423 79.5106 88.4102C79.3188 84.9219 77.1892 82.5372 77.1892 82.5372H77.3214H80.6945H84.0675H84.1998C82.9101 83.8839 81.7725 86.9715 81.918 88.3774C83.4789 87.1358 83.8427 86.7482 86.1442 86.5774C88.7699 86.3803 89.8876 88.0621 90.6349 89.0672C91.3823 90.0657 92.5662 93.1139 90.1985 95.6825Z" fill="#151515"/>
</svg>
