<svg width="110" height="153" viewBox="0 0 110 153" fill="none" xmlns="http://www.w3.org/2000/svg">
<path d="M106.072 153H3.92763C1.75884 153 0 151.253 0 149.098V3.90219C0 1.74745 1.75884 0 3.92763 0H106.072C108.241 0 110 1.74745 110 3.90219V149.098C110 151.253 108.241 153 106.072 153Z" fill="white"/>
<path d="M98.5741 12.0679C98.5741 12.2715 98.4088 12.4423 98.1972 12.4423C97.9922 12.4423 97.8203 12.2781 97.8203 12.0679C97.8203 11.8642 97.9856 11.6934 98.1972 11.6934C98.4022 11.6934 98.5741 11.8577 98.5741 12.0679Z" fill="white"/>
<path d="M80.6354 12.0679C80.6354 12.2715 80.4701 12.4423 80.2585 12.4423C80.0535 12.4423 79.8816 12.2781 79.8816 12.0679C79.8816 11.8642 80.0469 11.6934 80.2585 11.6934C80.4701 11.6934 80.6354 11.8577 80.6354 12.0679Z" fill="white"/>
<path d="M64.1381 12.0679C64.1381 12.2715 63.9728 12.4423 63.7612 12.4423C63.5562 12.4423 63.3843 12.2781 63.3843 12.0679C63.3843 11.8642 63.5496 11.6934 63.7612 11.6934C63.9661 11.6934 64.1381 11.8577 64.1381 12.0679Z" fill="white"/>
<path d="M47.5746 12.1861C47.5746 12.3897 47.4093 12.5606 47.1977 12.5606C46.9861 12.5606 46.8208 12.3963 46.8208 12.1861C46.8208 11.9824 46.9861 11.8116 47.1977 11.8116C47.4093 11.8116 47.5746 11.9759 47.5746 12.1861Z" fill="white"/>
<path d="M98.5741 25.9555C98.5741 26.1592 98.4088 26.33 98.1972 26.33C97.9922 26.33 97.8203 26.1657 97.8203 25.9555C97.8203 25.7453 97.9856 25.5811 98.1972 25.5811C98.4022 25.5811 98.5741 25.7453 98.5741 25.9555Z" fill="white"/>
<path d="M98.5741 38.6277C98.5741 38.8314 98.4088 39.0022 98.1972 39.0022C97.9922 39.0022 97.8203 38.838 97.8203 38.6277C97.8203 38.4175 97.9856 38.2533 98.1972 38.2533C98.4022 38.2533 98.5741 38.4241 98.5741 38.6277Z" fill="white"/>
<path d="M98.5741 51.911C98.5741 52.1146 98.4088 52.2854 98.1972 52.2854C97.9922 52.2854 97.8203 52.1212 97.8203 51.911C97.8203 51.7073 97.9856 51.5365 98.1972 51.5365C98.4022 51.5365 98.5741 51.7007 98.5741 51.911Z" fill="white"/>
<path d="M98.5741 60.3066C98.5741 60.5102 98.4088 60.681 98.1972 60.681C97.9922 60.681 97.8203 60.5168 97.8203 60.3066C97.8203 60.1029 97.9856 59.9321 98.1972 59.9321C98.4022 59.9321 98.5741 60.1029 98.5741 60.3066Z" fill="white"/>
<path d="M98.5741 68.735C98.5741 68.9387 98.4088 69.1095 98.1972 69.1095C97.9922 69.1095 97.8203 68.9453 97.8203 68.735C97.8203 68.5248 97.9856 68.3606 98.1972 68.3606C98.4022 68.3606 98.5741 68.5248 98.5741 68.735Z" fill="white"/>
<path d="M12.4242 12.4357C12.4242 12.6394 12.2589 12.8102 12.0473 12.8102C11.8423 12.8102 11.6704 12.646 11.6704 12.4357C11.6704 12.2321 11.8357 12.0613 12.0473 12.0613C12.2523 12.0678 12.4242 12.2321 12.4242 12.4357Z" fill="white"/>
<path d="M30.5614 12.1861C30.5614 12.3897 30.3961 12.5606 30.1845 12.5606C29.9795 12.5606 29.8076 12.3963 29.8076 12.1861C29.8076 11.9824 29.9729 11.8116 30.1845 11.8116C30.3961 11.8116 30.5614 11.9759 30.5614 12.1861Z" fill="white"/>
<path d="M12.4242 25.6599C12.4242 25.8635 12.2589 26.0343 12.0473 26.0343C11.8423 26.0343 11.6704 25.8701 11.6704 25.6599C11.6704 25.4562 11.8357 25.2854 12.0473 25.2854C12.2523 25.2854 12.4242 25.4496 12.4242 25.6599Z" fill="white"/>
<path d="M12.4242 38.7131C12.4242 38.9168 12.2589 39.0876 12.0473 39.0876C11.8423 39.0876 11.6704 38.9234 11.6704 38.7131C11.6704 38.5095 11.8357 38.3387 12.0473 38.3387C12.2523 38.3387 12.4242 38.5095 12.4242 38.7131Z" fill="white"/>
<path d="M12.4242 51.819C12.4242 52.0226 12.2589 52.1934 12.0473 52.1934C11.8423 52.1934 11.6704 52.0292 11.6704 51.819C11.6704 51.6088 11.8357 51.4445 12.0473 51.4445C12.2523 51.4445 12.4242 51.6088 12.4242 51.819Z" fill="white"/>
<path d="M12.4242 60.3066C12.4242 60.5102 12.2589 60.681 12.0473 60.681C11.8423 60.681 11.6704 60.5168 11.6704 60.3066C11.6704 60.1029 11.8357 59.9321 12.0473 59.9321C12.2523 59.9321 12.4242 60.1029 12.4242 60.3066Z" fill="white"/>
<path d="M12.4242 69.1095C12.4242 69.3131 12.2589 69.484 12.0473 69.484C11.8423 69.484 11.6704 69.3197 11.6704 69.1095C11.6704 68.9058 11.8357 68.735 12.0473 68.735C12.2523 68.735 12.4242 68.8993 12.4242 69.1095Z" fill="white"/>
<path d="M12.4242 77.6036C12.4242 77.8073 12.2589 77.9781 12.0473 77.9781C11.8423 77.9781 11.6704 77.8139 11.6704 77.6036C11.6704 77.4 11.8357 77.2292 12.0473 77.2292C12.2523 77.2292 12.4242 77.4 12.4242 77.6036Z" fill="white"/>
<path d="M12.4242 86.0913C12.4242 86.2949 12.2589 86.4657 12.0473 86.4657C11.8423 86.4657 11.6704 86.3015 11.6704 86.0913C11.6704 85.8876 11.8357 85.7168 12.0473 85.7168C12.2523 85.7168 12.4242 85.8876 12.4242 86.0913Z" fill="white"/>
<path d="M12.4242 94.8942C12.4242 95.0978 12.2589 95.2686 12.0473 95.2686C11.8423 95.2686 11.6704 95.1044 11.6704 94.8942C11.6704 94.6905 11.8357 94.5197 12.0473 94.5197C12.2523 94.5197 12.4242 94.6905 12.4242 94.8942Z" fill="white"/>
<path d="M12.4242 103.717C12.4242 103.92 12.2589 104.091 12.0473 104.091C11.8423 104.091 11.6704 103.927 11.6704 103.717C11.6704 103.513 11.8357 103.342 12.0473 103.342C12.2523 103.342 12.4242 103.513 12.4242 103.717Z" fill="white"/>
<path d="M12.4242 111.6C12.4242 111.804 12.2589 111.974 12.0473 111.974C11.8423 111.974 11.6704 111.81 11.6704 111.6C11.6704 111.396 11.8357 111.226 12.0473 111.226C12.2523 111.226 12.4242 111.396 12.4242 111.6Z" fill="white"/>
<path d="M12.4242 120.403C12.4242 120.607 12.2589 120.777 12.0473 120.777C11.8423 120.777 11.6704 120.613 11.6704 120.403C11.6704 120.199 11.8357 120.029 12.0473 120.029C12.2523 120.029 12.4242 120.193 12.4242 120.403Z" fill="white"/>
<path d="M12.4242 128.976C12.4242 129.18 12.2589 129.35 12.0473 129.35C11.8423 129.35 11.6704 129.186 11.6704 128.976C11.6704 128.772 11.8357 128.601 12.0473 128.601C12.2523 128.601 12.4242 128.766 12.4242 128.976Z" fill="white"/>
<path d="M12.5763 141.576C12.5763 141.78 12.411 141.95 12.1994 141.95C11.9944 141.95 11.8225 141.786 11.8225 141.576C11.8225 141.372 11.9878 141.201 12.1994 141.201C12.4044 141.201 12.5763 141.372 12.5763 141.576Z" fill="white"/>
<path d="M26.1444 141.95C26.1444 142.154 25.9791 142.325 25.7675 142.325C25.5625 142.325 25.3906 142.161 25.3906 141.95C25.3906 141.747 25.5559 141.576 25.7675 141.576C25.9791 141.576 26.1444 141.747 26.1444 141.95Z" fill="white"/>
<path d="M43.6337 141.95C43.6337 142.154 43.4684 142.325 43.2568 142.325C43.0452 142.325 42.8799 142.161 42.8799 141.95C42.8799 141.747 43.0452 141.576 43.2568 141.576C43.4684 141.576 43.6337 141.747 43.6337 141.95Z" fill="white"/>
<path d="M61.0963 141.95C61.0963 142.154 60.931 142.325 60.7194 142.325C60.5078 142.325 60.3425 142.161 60.3425 141.95C60.3425 141.747 60.5078 141.576 60.7194 141.576C60.931 141.576 61.0963 141.747 61.0963 141.95Z" fill="white"/>
<path d="M78.1029 141.95C78.1029 142.154 77.9376 142.325 77.726 142.325C77.521 142.325 77.3491 142.161 77.3491 141.95C77.3491 141.747 77.5144 141.576 77.726 141.576C77.931 141.576 78.1029 141.747 78.1029 141.95Z" fill="white"/>
<path d="M98.5741 77.3934C98.5741 77.5971 98.4088 77.7679 98.1972 77.7679C97.9922 77.7679 97.8203 77.6037 97.8203 77.3934C97.8203 77.1832 97.9856 77.019 98.1972 77.019C98.4022 77.019 98.5741 77.1898 98.5741 77.3934Z" fill="white"/>
<path d="M98.5741 85.4935C98.5741 85.6971 98.4088 85.8679 98.1972 85.8679C97.9922 85.8679 97.8203 85.7037 97.8203 85.4935C97.8203 85.2898 97.9856 85.119 98.1972 85.119C98.4022 85.119 98.5741 85.2898 98.5741 85.4935Z" fill="white"/>
<path d="M98.5741 94.2241C98.5741 94.4277 98.4088 94.5985 98.1972 94.5985C97.9922 94.5985 97.8203 94.4343 97.8203 94.2241C97.8203 94.0204 97.9856 93.8496 98.1972 93.8496C98.4022 93.8562 98.5741 94.0204 98.5741 94.2241Z" fill="white"/>
<path d="M98.5741 102.836C98.5741 103.04 98.4088 103.211 98.1972 103.211C97.9922 103.211 97.8203 103.047 97.8203 102.836C97.8203 102.626 97.9856 102.462 98.1972 102.462C98.4022 102.462 98.5741 102.626 98.5741 102.836Z" fill="white"/>
<path d="M98.5741 111.212C98.5741 111.416 98.4088 111.587 98.1972 111.587C97.9922 111.587 97.8203 111.423 97.8203 111.212C97.8203 111.002 97.9856 110.838 98.1972 110.838C98.4022 110.838 98.5741 111.009 98.5741 111.212Z" fill="white"/>
<path d="M98.5741 119.477C98.5741 119.68 98.4088 119.851 98.1972 119.851C97.9922 119.851 97.8203 119.687 97.8203 119.477C97.8203 119.273 97.9856 119.102 98.1972 119.102C98.4022 119.102 98.5741 119.266 98.5741 119.477Z" fill="white"/>
<path d="M98.5741 127.912C98.5741 128.115 98.4088 128.286 98.1972 128.286C97.9922 128.286 97.8203 128.122 97.8203 127.912C97.8203 127.708 97.9856 127.537 98.1972 127.537C98.4022 127.537 98.5741 127.701 98.5741 127.912Z" fill="white"/>
<path d="M98.5741 140.768C98.5741 140.972 98.4088 141.142 98.1972 141.142C97.9922 141.142 97.8203 140.978 97.8203 140.768C97.8203 140.564 97.9856 140.393 98.1972 140.393C98.4022 140.393 98.5741 140.558 98.5741 140.768Z" fill="white"/>
<path d="M9.83889 16.1015H10.315C10.8175 16.1015 11.1878 15.7927 11.4192 15.1686L14.1765 7.42993H14.4939L17.2776 15.5365C17.3635 15.7467 17.4627 15.8978 17.5883 15.9766C17.7074 16.0555 17.8594 16.0949 18.0512 16.0949H18.7719V16.5022H14.7914V16.0949H15.6378C15.7634 16.0949 15.8758 16.062 15.9618 15.9964C16.0477 15.9307 16.0874 15.8584 16.0874 15.773C16.0874 15.6613 16.0675 15.5693 16.0345 15.4905L15.4328 13.7956H12.4309L12.1201 14.6496C12.0011 14.9912 11.9416 15.2343 11.9416 15.392C11.9416 15.5759 11.9878 15.7402 12.0804 15.8847C12.173 16.0226 12.3383 16.0949 12.5697 16.0949H13.3499V16.5022H9.83228V16.1015H9.83889ZM12.5697 13.4015H15.2873L13.9517 9.51241L12.5697 13.4015Z" fill="#272425"/>
<path d="M94.7788 135.637H98.2965V136.045H97.5162C97.2848 136.045 97.1195 136.117 97.027 136.255C96.9344 136.393 96.8881 136.557 96.8881 136.747C96.8881 136.899 96.9476 137.148 97.0666 137.49L97.3774 138.344H100.379L100.981 136.649C101.014 136.57 101.034 136.478 101.034 136.366C101.034 136.281 100.988 136.209 100.908 136.143C100.822 136.077 100.717 136.045 100.584 136.045H99.7379V135.637H103.718V136.045H102.998C102.806 136.045 102.654 136.084 102.535 136.163C102.416 136.242 102.31 136.393 102.224 136.603L99.4404 144.709H99.123L96.3657 136.971C96.1343 136.353 95.764 136.038 95.2615 136.038H94.7854V135.637H94.7788ZM98.8982 142.64L100.234 138.751H97.5162L98.8982 142.64Z" fill="#272425"/>
<path d="M11.135 22.408C11.816 23.1504 12.8674 22.7102 12.8674 22.7102C12.5764 23.019 12.3781 23.2686 12.4177 23.781C12.4177 23.8007 12.4177 23.8139 12.4177 23.8336C12.4177 24.6482 13.079 25.3051 13.8989 25.3051C14.7188 25.3051 15.38 24.6482 15.38 23.8336C15.38 23.7285 15.3668 23.6299 15.3469 23.538C15.3139 23.1832 15.1353 22.973 14.8973 22.7168C14.8973 22.7168 15.9486 23.1569 16.6297 22.4146C17.3107 21.6723 16.9735 20.792 16.7553 20.5029C16.5371 20.2139 16.2197 19.7277 15.4593 19.7869C14.7849 19.8394 14.6857 19.9511 14.2229 20.319C14.2758 19.3139 14.8907 18.6241 14.8907 18.6241H14.851H13.879H12.907H12.8674C13.2377 19.0117 13.5683 19.9051 13.5286 20.3124C13.079 19.9511 12.9732 19.8394 12.3053 19.7934C11.5449 19.7343 11.2209 20.2204 11.0094 20.5095C10.7978 20.7985 10.4539 21.6657 11.135 22.408Z" fill="#151515"/>
<path d="M68.9781 69.3C65.672 65.7131 60.5938 67.8416 60.5938 67.8416C62.0155 66.3372 62.961 65.135 62.7825 62.665C62.7825 62.5796 62.7891 62.5007 62.7891 62.4153C62.7891 58.4869 59.5822 55.3007 55.6281 55.3007C51.674 55.3007 48.4671 58.4869 48.4671 62.4153C48.4671 62.908 48.52 63.3942 48.6126 63.8606C48.7779 65.5686 49.6243 66.6 50.7946 67.8482C50.7946 67.8482 45.7165 65.7197 42.4104 69.3066C39.1043 72.8934 40.7573 77.1504 41.7955 78.5496C42.8336 79.9489 44.394 82.2942 48.0704 82.0248C51.3236 81.7817 51.7997 81.2365 54.0346 79.4628C53.7701 84.3372 50.788 87.6679 50.788 87.6679H50.9731H55.6876H60.4021H60.5872C58.7887 85.789 57.1952 81.473 57.4002 79.5087C59.5888 81.2431 60.0847 81.7883 63.3114 82.0248C66.9878 82.2942 68.5417 79.9489 69.5864 78.5496C70.6245 77.1438 72.2775 72.8869 68.9781 69.3Z" fill="#151515"/>
<path d="M96.5378 129.58C97.2189 128.838 98.2702 129.278 98.2702 129.278C97.9793 128.969 97.7809 128.72 97.8206 128.207C97.8206 128.188 97.8206 128.174 97.8206 128.155C97.8206 127.34 98.4818 126.683 99.3017 126.683C100.122 126.683 100.783 127.34 100.783 128.155C100.783 128.26 100.77 128.358 100.75 128.45C100.717 128.805 100.538 129.015 100.3 129.271C100.3 129.271 101.351 128.831 102.033 129.574C102.714 130.316 102.376 131.196 102.158 131.485C101.94 131.774 101.623 132.261 100.862 132.201C100.188 132.149 100.089 132.037 99.6257 131.669C99.6786 132.674 100.294 133.364 100.294 133.364H100.254H99.2819H98.3099H98.2702C98.6405 132.977 98.9711 132.083 98.9314 131.676C98.4818 132.037 98.376 132.149 97.7082 132.195C96.9478 132.254 96.6238 131.768 96.4122 131.479C96.194 131.203 95.8502 130.323 96.5378 129.58Z" fill="#151515"/>
</svg>
