<svg width="110" height="153" viewBox="0 0 110 153" fill="none" xmlns="http://www.w3.org/2000/svg">
<path d="M106.071 153H3.92853C1.75922 153 0 151.253 0 149.098V3.90219C0 1.74745 1.75922 0 3.92853 0H106.071C108.241 0 110 1.74745 110 3.90219V149.098C110 151.253 108.241 153 106.071 153Z" fill="white"/>
<path d="M8.88885 17.1196H10.119C10.2447 17.1196 10.3373 17.0934 10.3968 17.0408C10.4497 16.9883 10.4828 16.9029 10.4828 16.7846V10.524H8.88885V10.0642H9.59657C10.0595 10.0642 10.4299 9.93935 10.7209 9.69629C11.0053 9.44665 11.1839 9.15103 11.2566 8.80286H11.6667V16.7846C11.6667 16.9029 11.6931 16.9883 11.7527 17.0408C11.8056 17.0934 11.8981 17.1196 12.0304 17.1196H13.2605V17.5269H8.89548V17.1196H8.88885Z" fill="black"/>
<path d="M16.8981 17.0803C16.4286 16.6467 16.0649 16.0817 15.8003 15.3788C15.5424 14.6759 15.41 13.9401 15.41 13.1649C15.41 12.3898 15.5424 11.654 15.8003 10.9511C16.0582 10.2481 16.4286 9.68318 16.8981 9.24961C17.3677 8.81603 17.9101 8.59924 18.5119 8.59924C19.1138 8.59924 19.6495 8.81603 20.1256 9.24961C20.6018 9.68318 20.9656 10.2481 21.2302 10.9511C21.4881 11.654 21.6204 12.3898 21.6204 13.1649C21.6204 13.9401 21.4881 14.6759 21.2302 15.3788C20.9722 16.0817 20.6018 16.6467 20.1256 17.0803C19.6495 17.5138 19.1138 17.7306 18.5119 17.7306C17.9101 17.7306 17.3677 17.5138 16.8981 17.0803ZM19.9207 16.1277C20.1455 15.3262 20.258 14.3408 20.258 13.1715C20.258 12.0022 20.1455 11.0102 19.9207 10.2153C19.6958 9.41384 19.2262 9.01968 18.5185 9.01968C17.8109 9.01968 17.3413 9.41384 17.1164 10.2087C16.8916 11.0036 16.7791 11.989 16.7791 13.1715C16.7791 14.354 16.8916 15.3394 17.1164 16.1343C17.3413 16.9292 17.8109 17.3233 18.5185 17.3233C19.2262 17.3233 19.6958 16.9226 19.9207 16.1277Z" fill="black"/>
<path d="M100.694 137.667H99.4644C99.3387 137.667 99.2461 137.693 99.1865 137.746C99.1336 137.799 99.1006 137.884 99.1006 138.002V144.263H100.694V144.723H99.9868C99.5238 144.723 99.1535 144.847 98.8625 145.09C98.5781 145.34 98.3995 145.636 98.3267 145.984H97.9167V138.002C97.9167 137.884 97.8902 137.799 97.8307 137.746C97.7778 137.693 97.6852 137.667 97.553 137.667H96.3228V137.26H100.688V137.667H100.694Z" fill="black"/>
<path d="M92.6852 137.707C93.1548 138.14 93.5185 138.705 93.7831 139.408C94.041 140.111 94.1733 140.847 94.1733 141.622C94.1733 142.397 94.041 143.133 93.7831 143.836C93.5251 144.539 93.1548 145.104 92.6852 145.537C92.2157 145.971 91.6733 146.188 91.0714 146.188C90.4696 146.188 89.9339 145.971 89.4577 145.537C88.9815 145.104 88.6178 144.539 88.3532 143.836C88.0953 143.133 87.963 142.397 87.963 141.622C87.963 140.847 88.0953 140.111 88.3532 139.408C88.6111 138.705 88.9815 138.14 89.4577 137.707C89.9339 137.273 90.4696 137.056 91.0714 137.056C91.6733 137.056 92.2157 137.273 92.6852 137.707ZM89.6627 138.659C89.4378 139.461 89.3254 140.446 89.3254 141.615C89.3254 142.785 89.4378 143.777 89.6627 144.571C89.8876 145.373 90.3572 145.767 91.0648 145.767C91.7725 145.767 92.2421 145.373 92.4669 144.578C92.6918 143.783 92.8042 142.798 92.8042 141.615C92.8042 140.433 92.6918 139.447 92.4669 138.652C92.2421 137.858 91.7725 137.463 91.0648 137.463C90.3572 137.463 89.8876 137.864 89.6627 138.659Z" fill="black"/>
<path d="M62.8241 44.4744C60.4233 41.873 57.6323 39.3306 56.4617 37.997C55.5821 36.9985 54.967 36.2365 54.709 35.9211V35.7569C54.709 35.7569 54.6892 35.7832 54.6429 35.8357C54.6032 35.7832 54.5768 35.7569 54.5768 35.7569V35.9211C54.3189 36.2365 53.6972 36.9985 52.8241 37.997C51.6535 39.3306 48.8625 41.8664 46.4617 44.4744C44.0609 47.0759 43.8625 49.6773 44.3189 51.8387C44.7752 54 47.0437 56.0299 50.6151 55.5832C51.7394 55.4452 52.553 54.9065 53.1548 54.243C52.7514 57.2978 51.0913 58.8876 51.0913 58.8876H58.0159C56.7527 57.4817 56.303 55.4978 56.1443 54.2627C56.7395 54.9197 57.553 55.4452 58.6707 55.5832C62.2421 56.0299 64.5173 53.9934 64.967 51.8387C65.4167 49.6773 65.2249 47.0759 62.8241 44.4744Z" fill="#151515"/>
<path d="M41.9643 27.8934C39.5635 25.292 36.7725 22.7496 35.6018 21.416C34.7222 20.4175 34.1071 19.6555 33.8492 19.3401V19.1759C33.8492 19.1759 33.8294 19.2022 33.7831 19.2547C33.7434 19.2022 33.7169 19.1759 33.7169 19.1759V19.3401C33.459 19.6555 32.8373 20.4175 31.9643 21.416C30.7936 22.7496 28.0026 25.2854 25.6018 27.8934C23.2011 30.4949 23.0026 33.0963 23.459 35.2577C23.9153 37.419 26.1839 39.4489 29.7553 39.0022C30.8796 38.8642 31.6931 38.3321 32.295 37.662C31.8915 40.7168 30.2315 42.3066 30.2315 42.3066H37.1561C35.8928 40.9007 35.4431 38.9168 35.2844 37.6817C35.8796 38.3387 36.6931 38.8642 37.8042 39.0022C41.3756 39.4489 43.6508 37.4124 44.1005 35.2577C44.5635 33.0963 44.3651 30.4949 41.9643 27.8934Z" fill="#151515"/>
<path d="M41.9643 61.108C39.5635 58.5066 36.7725 55.9642 35.6018 54.6307C34.7222 53.6321 34.1071 52.8701 33.8492 52.5547V52.3905C33.8492 52.3905 33.8294 52.4168 33.7831 52.4693C33.7434 52.4168 33.7169 52.3905 33.7169 52.3905V52.5547C33.459 52.8701 32.8373 53.6321 31.9643 54.6307C30.7936 55.9642 28.0026 58.5 25.6018 61.108C23.2011 63.7095 23.0026 66.3109 23.459 68.4723C23.9153 70.6336 26.1839 72.6635 29.7553 72.2168C30.8796 72.0788 31.6931 71.5401 32.295 70.8766C31.8915 73.9314 30.2315 75.5212 30.2315 75.5212H37.1561C35.8928 74.1153 35.4431 72.1314 35.2844 70.8963C35.8796 71.5533 36.6931 72.0788 37.8042 72.2168C41.3756 72.6635 43.6508 70.627 44.1005 68.4723C44.5635 66.3109 44.3651 63.7095 41.9643 61.108Z" fill="#151515"/>
<path d="M41.9643 133.246C39.5635 135.847 36.7725 138.39 35.6018 139.723C34.7222 140.722 34.1071 141.484 33.8492 141.799V141.963C33.8492 141.963 33.8294 141.937 33.7831 141.885C33.7434 141.937 33.7169 141.963 33.7169 141.963V141.799C33.459 141.484 32.8373 140.722 31.9643 139.723C30.7936 138.39 28.0026 135.854 25.6018 133.246C23.2011 130.645 23.0026 128.043 23.459 125.882C23.9153 123.72 26.1839 121.69 29.7553 122.137C30.8796 122.275 31.6931 122.814 32.295 123.477C31.8915 120.423 30.2315 118.833 30.2315 118.833H37.1561C35.8928 120.239 35.4431 122.223 35.2844 123.458C35.8796 122.801 36.6931 122.275 37.8042 122.137C41.3756 121.69 43.6508 123.727 44.1005 125.882C44.5635 128.036 44.3651 130.638 41.9643 133.246Z" fill="#151515"/>
<path d="M84.2725 27.8934C81.8717 25.292 79.0807 22.7496 77.9101 21.416C77.0304 20.4175 76.4153 19.6555 76.1574 19.3401V19.1759C76.1574 19.1759 76.1376 19.2022 76.0913 19.2547C76.0516 19.2022 76.0252 19.1759 76.0252 19.1759V19.3401C75.7672 19.6555 75.1455 20.4175 74.2725 21.416C73.1019 22.7496 70.3109 25.2854 67.9101 27.8934C65.5093 30.4949 65.3109 33.0963 65.7672 35.2577C66.2236 37.419 68.4921 39.4489 72.0635 39.0022C73.1879 38.8642 74.0013 38.3321 74.6032 37.662C74.1998 40.7168 72.5397 42.3066 72.5397 42.3066H79.4643C78.2011 40.9007 77.7514 38.9168 77.5926 37.6817C78.1879 38.3387 79.0014 38.8642 80.1191 39.0022C83.6906 39.4489 85.9656 37.4124 86.4154 35.2577C86.8717 33.0963 86.6799 30.4949 84.2725 27.8934Z" fill="#151515"/>
<path d="M84.2725 61.108C81.8717 58.5066 79.0807 55.9642 77.9101 54.6307C77.0304 53.6321 76.4153 52.8701 76.1574 52.5547V52.3905C76.1574 52.3905 76.1376 52.4168 76.0913 52.4693C76.0516 52.4168 76.0252 52.3905 76.0252 52.3905V52.5547C75.7672 52.8701 75.1455 53.6321 74.2725 54.6307C73.1019 55.9642 70.3109 58.5 67.9101 61.108C65.5093 63.7095 65.3109 66.3109 65.7672 68.4723C66.2236 70.6336 68.4921 72.6635 72.0635 72.2168C73.1879 72.0788 74.0013 71.5401 74.6032 70.8766C74.1998 73.9314 72.5397 75.5212 72.5397 75.5212H79.4643C78.2011 74.1153 77.7514 72.1314 77.5926 70.8963C78.1879 71.5533 79.0014 72.0788 80.1191 72.2168C83.6906 72.6635 85.9656 70.627 86.4154 68.4723C86.8717 66.3109 86.6799 63.7095 84.2725 61.108Z" fill="#151515"/>
<path d="M84.2725 133.246C81.8717 135.847 79.0807 138.39 77.9101 139.723C77.0304 140.722 76.4153 141.484 76.1574 141.799V141.963C76.1574 141.963 76.1376 141.937 76.0913 141.885C76.0516 141.937 76.0252 141.963 76.0252 141.963V141.799C75.7672 141.484 75.1455 140.722 74.2725 139.723C73.1019 138.39 70.3109 135.854 67.9101 133.246C65.5093 130.645 65.3109 128.043 65.7672 125.882C66.2236 123.72 68.4921 121.69 72.0635 122.137C73.1879 122.275 74.0013 122.814 74.6032 123.477C74.1998 120.423 72.5397 118.833 72.5397 118.833H79.4643C78.2011 120.239 77.7514 122.223 77.5926 123.458C78.1879 122.801 79.0014 122.275 80.1191 122.137C83.6906 121.69 85.9656 123.727 86.4154 125.882C86.8717 128.036 86.6799 130.638 84.2725 133.246Z" fill="#151515"/>
<path d="M41.9643 100.025C39.5635 102.626 36.7725 105.169 35.6018 106.502C34.7222 107.501 34.1071 108.263 33.8492 108.578V108.742C33.8492 108.742 33.8294 108.716 33.7831 108.663C33.7434 108.716 33.7169 108.742 33.7169 108.742V108.578C33.459 108.263 32.8373 107.501 31.9643 106.502C30.7936 105.169 28.0026 102.633 25.6018 100.025C23.2011 97.4233 23.0026 94.8218 23.459 92.6605C23.9153 90.4992 26.1839 88.4693 29.7553 88.916C30.8796 89.054 31.6931 89.5927 32.295 90.2562C31.8915 87.2014 30.2315 85.6116 30.2315 85.6116H37.1561C35.8928 87.0175 35.4431 89.0014 35.2844 90.2364C35.8796 89.5795 36.6931 89.054 37.8042 88.916C41.3756 88.4693 43.6508 90.5058 44.1005 92.6605C44.5635 94.8218 44.3651 97.4233 41.9643 100.025Z" fill="#151515"/>
<path d="M84.2725 100.025C81.8717 102.626 79.0807 105.169 77.9101 106.502C77.0304 107.501 76.4153 108.263 76.1574 108.578V108.742C76.1574 108.742 76.1376 108.716 76.0913 108.663C76.0516 108.716 76.0252 108.742 76.0252 108.742V108.578C75.7672 108.263 75.1455 107.501 74.2725 106.502C73.1019 105.169 70.3109 102.633 67.9101 100.025C65.5093 97.4233 65.3109 94.8218 65.7672 92.6605C66.2236 90.4992 68.4921 88.4693 72.0635 88.916C73.1879 89.054 74.0013 89.5927 74.6032 90.2562C74.1998 87.2014 72.5397 85.6116 72.5397 85.6116H79.4643C78.2011 87.0175 77.7514 89.0014 77.5926 90.2364C78.1879 89.5795 79.0014 89.054 80.1191 88.916C83.6906 88.4693 85.9656 90.5058 86.4154 92.6605C86.8717 94.8218 86.6799 97.4233 84.2725 100.025Z" fill="#151515"/>
<path d="M62.8241 115.745C60.4233 118.347 57.6323 120.889 56.4617 122.223C55.5821 123.221 54.967 123.983 54.709 124.299V124.463C54.709 124.463 54.6892 124.436 54.6429 124.384C54.6032 124.436 54.5768 124.463 54.5768 124.463V124.299C54.3189 123.983 53.6972 123.221 52.8241 122.223C51.6535 120.889 48.8625 118.353 46.4617 115.745C44.0609 113.144 43.8625 110.542 44.3189 108.381C44.7752 106.22 47.0437 104.19 50.6151 104.636C51.7394 104.774 52.553 105.313 53.1548 105.977C52.7514 102.922 51.0913 101.332 51.0913 101.332H58.0159C56.7527 102.738 56.303 104.722 56.1443 105.957C56.7395 105.3 57.553 104.774 58.6707 104.636C62.2421 104.19 64.5173 106.226 64.967 108.381C65.4167 110.536 65.2249 113.144 62.8241 115.745Z" fill="#151515"/>
<path d="M16.9047 22.7365C16.1971 21.9678 15.3704 21.2189 15.0264 20.8248C14.7685 20.5292 14.5833 20.3058 14.5105 20.2138V20.1678C14.5105 20.1678 14.5039 20.1744 14.4907 20.1941C14.4775 20.181 14.4709 20.1678 14.4709 20.1678V20.2138C14.3982 20.3058 14.2129 20.5292 13.955 20.8248C13.6111 21.2189 12.7844 21.9678 12.0767 22.7365C11.3691 23.5051 11.3095 24.2737 11.4418 24.9109C11.574 25.5481 12.2487 26.1459 13.3003 26.0146C13.6309 25.9751 13.8757 25.8175 14.0476 25.6204C13.9286 26.5204 13.4391 26.9934 13.4391 26.9934H15.4827C15.1124 26.5795 14.9801 25.9949 14.9272 25.627C15.1058 25.824 15.3439 25.9751 15.6746 26.0146C16.7262 26.1459 17.4008 25.5481 17.5331 24.9109C17.672 24.2737 17.6124 23.5051 16.9047 22.7365Z" fill="#151515"/>
<path d="M96.9577 131.886C96.25 132.655 95.4233 133.404 95.0794 133.798C94.8215 134.093 94.6363 134.317 94.5635 134.409V134.455C94.5635 134.455 94.5569 134.448 94.5437 134.428C94.5305 134.442 94.5238 134.455 94.5238 134.455V134.409C94.4511 134.317 94.2659 134.093 94.008 133.798C93.6641 133.404 92.8373 132.655 92.1296 131.886C91.422 131.117 91.3625 130.349 91.4947 129.712C91.627 129.074 92.3016 128.477 93.3532 128.608C93.6839 128.647 93.9286 128.805 94.1005 129.002C93.9815 128.102 93.4921 127.629 93.4921 127.629H95.5357C95.1654 128.043 95.0331 128.628 94.9802 128.996C95.1588 128.798 95.3969 128.647 95.7276 128.608C96.7792 128.477 97.4537 129.074 97.586 129.712C97.7249 130.349 97.672 131.117 96.9577 131.886Z" fill="#151515"/>
<path d="M98.578 12.0613C98.578 12.265 98.4127 12.4358 98.2011 12.4358C97.996 12.4358 97.824 12.2716 97.824 12.0613C97.824 11.8577 97.9894 11.6869 98.2011 11.6869C98.4061 11.6935 98.578 11.8577 98.578 12.0613Z" fill="white"/>
<path d="M80.6349 12.0613C80.6349 12.265 80.4696 12.4358 80.2579 12.4358C80.0529 12.4358 79.8809 12.2716 79.8809 12.0613C79.8809 11.8577 80.0463 11.6869 80.2579 11.6869C80.4696 11.6935 80.6349 11.8577 80.6349 12.0613Z" fill="white"/>
<path d="M64.1402 12.0613C64.1402 12.265 63.9748 12.4358 63.7632 12.4358C63.5582 12.4358 63.3862 12.2716 63.3862 12.0613C63.3862 11.8577 63.5515 11.6869 63.7632 11.6869C63.9682 11.6935 64.1402 11.8577 64.1402 12.0613Z" fill="white"/>
<path d="M47.5727 12.1862C47.5727 12.3898 47.4074 12.5606 47.1958 12.5606C46.9907 12.5606 46.8187 12.3964 46.8187 12.1862C46.8187 11.9759 46.9841 11.8117 47.1958 11.8117C47.4008 11.8117 47.5727 11.9759 47.5727 12.1862Z" fill="white"/>
<path d="M98.578 25.9555C98.578 26.1592 98.4127 26.33 98.2011 26.33C97.996 26.33 97.824 26.1657 97.824 25.9555C97.824 25.7519 97.9894 25.5811 98.2011 25.5811C98.4061 25.5811 98.578 25.7453 98.578 25.9555Z" fill="white"/>
<path d="M98.578 38.6277C98.578 38.8314 98.4127 39.0022 98.2011 39.0022C97.996 39.0022 97.824 38.838 97.824 38.6277C97.824 38.4241 97.9894 38.2533 98.2011 38.2533C98.4061 38.2533 98.578 38.4241 98.578 38.6277Z" fill="white"/>
<path d="M98.578 51.911C98.578 52.1146 98.4127 52.2854 98.2011 52.2854C97.996 52.2854 97.824 52.1212 97.824 51.911C97.824 51.7073 97.9894 51.5365 98.2011 51.5365C98.4061 51.5365 98.578 51.7007 98.578 51.911Z" fill="white"/>
<path d="M98.578 60.3066C98.578 60.5102 98.4127 60.681 98.2011 60.681C97.996 60.681 97.824 60.5168 97.824 60.3066C97.824 60.1029 97.9894 59.9321 98.2011 59.9321C98.4061 59.9321 98.578 60.1029 98.578 60.3066Z" fill="white"/>
<path d="M98.578 68.735C98.578 68.9387 98.4127 69.1095 98.2011 69.1095C97.996 69.1095 97.824 68.9453 97.824 68.735C97.824 68.5314 97.9894 68.3606 98.2011 68.3606C98.4061 68.3606 98.578 68.5248 98.578 68.735Z" fill="white"/>
<path d="M12.4206 12.4357C12.4206 12.6394 12.2553 12.8102 12.0436 12.8102C11.8386 12.8102 11.6667 12.646 11.6667 12.4357C11.6667 12.2321 11.832 12.0613 12.0436 12.0613C12.2553 12.0613 12.4206 12.2321 12.4206 12.4357Z" fill="white"/>
<path d="M30.5621 12.1862C30.5621 12.3898 30.3968 12.5606 30.1852 12.5606C29.9736 12.5606 29.8082 12.3964 29.8082 12.1862C29.8082 11.9759 29.9736 11.8117 30.1852 11.8117C30.3968 11.8117 30.5621 11.9759 30.5621 12.1862Z" fill="white"/>
<path d="M12.4206 25.6599C12.4206 25.8635 12.2553 26.0343 12.0436 26.0343C11.8386 26.0343 11.6667 25.8701 11.6667 25.6599C11.6667 25.4496 11.832 25.2854 12.0436 25.2854C12.2553 25.2854 12.4206 25.4496 12.4206 25.6599Z" fill="white"/>
<path d="M12.4206 38.7131C12.4206 38.9168 12.2553 39.0876 12.0436 39.0876C11.8386 39.0876 11.6667 38.9234 11.6667 38.7131C11.6667 38.5029 11.832 38.3387 12.0436 38.3387C12.2553 38.3387 12.4206 38.5095 12.4206 38.7131Z" fill="white"/>
<path d="M12.4206 51.819C12.4206 52.0226 12.2553 52.1934 12.0436 52.1934C11.8386 52.1934 11.6667 52.0292 11.6667 51.819C11.6667 51.6088 11.832 51.4445 12.0436 51.4445C12.2553 51.4445 12.4206 51.6088 12.4206 51.819Z" fill="white"/>
<path d="M12.4206 60.3066C12.4206 60.5102 12.2553 60.681 12.0436 60.681C11.8386 60.681 11.6667 60.5168 11.6667 60.3066C11.6667 60.1029 11.832 59.9321 12.0436 59.9321C12.2553 59.9321 12.4206 60.1029 12.4206 60.3066Z" fill="white"/>
<path d="M12.4206 69.1095C12.4206 69.3131 12.2553 69.484 12.0436 69.484C11.8386 69.484 11.6667 69.3197 11.6667 69.1095C11.6667 68.8993 11.832 68.735 12.0436 68.735C12.2553 68.735 12.4206 68.8993 12.4206 69.1095Z" fill="white"/>
<path d="M12.4206 77.6036C12.4206 77.8073 12.2553 77.9781 12.0436 77.9781C11.8386 77.9781 11.6667 77.8139 11.6667 77.6036C11.6667 77.4 11.832 77.2292 12.0436 77.2292C12.2553 77.2292 12.4206 77.4 12.4206 77.6036Z" fill="white"/>
<path d="M12.4206 86.0913C12.4206 86.2949 12.2553 86.4657 12.0436 86.4657C11.8386 86.4657 11.6667 86.3015 11.6667 86.0913C11.6667 85.8876 11.832 85.7168 12.0436 85.7168C12.2553 85.7168 12.4206 85.8876 12.4206 86.0913Z" fill="white"/>
<path d="M12.4206 94.8942C12.4206 95.0978 12.2553 95.2686 12.0436 95.2686C11.8386 95.2686 11.6667 95.1044 11.6667 94.8942C11.6667 94.6905 11.832 94.5197 12.0436 94.5197C12.2553 94.5197 12.4206 94.6905 12.4206 94.8942Z" fill="white"/>
<path d="M12.4206 103.717C12.4206 103.92 12.2553 104.091 12.0436 104.091C11.8386 104.091 11.6667 103.927 11.6667 103.717C11.6667 103.513 11.832 103.342 12.0436 103.342C12.2553 103.342 12.4206 103.513 12.4206 103.717Z" fill="white"/>
<path d="M12.4206 111.6C12.4206 111.804 12.2553 111.974 12.0436 111.974C11.8386 111.974 11.6667 111.81 11.6667 111.6C11.6667 111.396 11.832 111.226 12.0436 111.226C12.2553 111.226 12.4206 111.396 12.4206 111.6Z" fill="white"/>
<path d="M12.4206 120.403C12.4206 120.607 12.2553 120.777 12.0436 120.777C11.8386 120.777 11.6667 120.613 11.6667 120.403C11.6667 120.199 11.832 120.029 12.0436 120.029C12.2553 120.029 12.4206 120.193 12.4206 120.403Z" fill="white"/>
<path d="M12.4206 128.976C12.4206 129.18 12.2553 129.35 12.0436 129.35C11.8386 129.35 11.6667 129.186 11.6667 128.976C11.6667 128.772 11.832 128.601 12.0436 128.601C12.2553 128.601 12.4206 128.766 12.4206 128.976Z" fill="white"/>
<path d="M12.5728 141.576C12.5728 141.78 12.4074 141.95 12.1957 141.95C11.9907 141.95 11.8188 141.786 11.8188 141.576C11.8188 141.372 11.9841 141.201 12.1957 141.201C12.4074 141.201 12.5728 141.372 12.5728 141.576Z" fill="white"/>
<path d="M26.1442 141.95C26.1442 142.154 25.9788 142.325 25.7672 142.325C25.5622 142.325 25.3903 142.161 25.3903 141.95C25.3903 141.747 25.5556 141.576 25.7672 141.576C25.9788 141.576 26.1442 141.747 26.1442 141.95Z" fill="white"/>
<path d="M43.6376 141.95C43.6376 142.154 43.4722 142.325 43.2606 142.325C43.0555 142.325 42.8836 142.161 42.8836 141.95C42.8836 141.747 43.0489 141.576 43.2606 141.576C43.4656 141.576 43.6376 141.747 43.6376 141.95Z" fill="white"/>
<path d="M61.0979 141.95C61.0979 142.154 60.9325 142.325 60.7209 142.325C60.5159 142.325 60.3439 142.161 60.3439 141.95C60.3439 141.747 60.5092 141.576 60.7209 141.576C60.9259 141.576 61.0979 141.747 61.0979 141.95Z" fill="white"/>
<path d="M78.1019 141.95C78.1019 142.154 77.9366 142.325 77.7249 142.325C77.5199 142.325 77.3479 142.161 77.3479 141.95C77.3479 141.747 77.5133 141.576 77.7249 141.576C77.9366 141.576 78.1019 141.747 78.1019 141.95Z" fill="white"/>
<path d="M98.578 77.3934C98.578 77.5971 98.4127 77.7679 98.2011 77.7679C97.996 77.7679 97.824 77.6037 97.824 77.3934C97.824 77.1898 97.9894 77.019 98.2011 77.019C98.4061 77.019 98.578 77.1898 98.578 77.3934Z" fill="white"/>
<path d="M98.578 85.4935C98.578 85.6971 98.4127 85.8679 98.2011 85.8679C97.996 85.8679 97.824 85.7037 97.824 85.4935C97.824 85.2898 97.9894 85.119 98.2011 85.119C98.4061 85.119 98.578 85.2898 98.578 85.4935Z" fill="white"/>
<path d="M98.578 94.2241C98.578 94.4277 98.4127 94.5985 98.2011 94.5985C97.996 94.5985 97.824 94.4343 97.824 94.2241C97.824 94.0204 97.9894 93.8496 98.2011 93.8496C98.4061 93.8562 98.578 94.0204 98.578 94.2241Z" fill="white"/>
<path d="M98.578 102.836C98.578 103.04 98.4127 103.211 98.2011 103.211C97.996 103.211 97.824 103.047 97.824 102.836C97.824 102.633 97.9894 102.462 98.2011 102.462C98.4061 102.462 98.578 102.626 98.578 102.836Z" fill="white"/>
<path d="M98.578 111.212C98.578 111.416 98.4127 111.587 98.2011 111.587C97.996 111.587 97.824 111.423 97.824 111.212C97.824 111.002 97.9894 110.838 98.2011 110.838C98.4061 110.838 98.578 111.009 98.578 111.212Z" fill="white"/>
<path d="M98.578 119.477C98.578 119.68 98.4127 119.851 98.2011 119.851C97.996 119.851 97.824 119.687 97.824 119.477C97.824 119.273 97.9894 119.102 98.2011 119.102C98.4061 119.102 98.578 119.266 98.578 119.477Z" fill="white"/>
<path d="M98.2011 128.286C98.4093 128.286 98.578 128.118 98.578 127.912C98.578 127.705 98.4093 127.537 98.2011 127.537C97.9929 127.537 97.824 127.705 97.824 127.912C97.824 128.118 97.9929 128.286 98.2011 128.286Z" fill="white"/>
<path d="M98.578 140.768C98.578 140.972 98.4127 141.142 98.2011 141.142C97.996 141.142 97.824 140.978 97.824 140.768C97.824 140.558 97.9894 140.393 98.2011 140.393C98.4061 140.393 98.578 140.558 98.578 140.768Z" fill="white"/>
</svg>
