<svg width="110" height="153" viewBox="0 0 110 153" fill="none" xmlns="http://www.w3.org/2000/svg">
<path d="M106.072 153H3.92763C1.75884 153 0 151.253 0 149.098V3.90219C0 1.74745 1.75884 0 3.92763 0H106.072C108.241 0 110 1.74745 110 3.90219V149.098C110 151.253 108.241 153 106.072 153Z" fill="white"/>
<path d="M98.5741 12.0613C98.5741 12.2649 98.4088 12.4357 98.1972 12.4357C97.9922 12.4357 97.8203 12.2715 97.8203 12.0613C97.8203 11.8511 97.9856 11.6868 98.1972 11.6868C98.4088 11.6934 98.5741 11.8576 98.5741 12.0613Z" fill="white"/>
<path d="M80.6354 12.0613C80.6354 12.2649 80.4701 12.4357 80.2585 12.4357C80.0535 12.4357 79.8816 12.2715 79.8816 12.0613C79.8816 11.8511 80.0469 11.6868 80.2585 11.6868C80.4701 11.6934 80.6354 11.8576 80.6354 12.0613Z" fill="white"/>
<path d="M64.1381 12.0613C64.1381 12.2649 63.9728 12.4357 63.7612 12.4357C63.5562 12.4357 63.3843 12.2715 63.3843 12.0613C63.3843 11.8511 63.5496 11.6868 63.7612 11.6868C63.9661 11.6934 64.1381 11.8576 64.1381 12.0613Z" fill="white"/>
<path d="M47.5746 12.1861C47.5746 12.3897 47.4093 12.5606 47.1977 12.5606C46.9927 12.5606 46.8208 12.3963 46.8208 12.1861C46.8208 11.9824 46.9861 11.8116 47.1977 11.8116C47.4027 11.8116 47.5746 11.9759 47.5746 12.1861Z" fill="white"/>
<path d="M98.5741 25.9555C98.5741 26.1592 98.4088 26.33 98.1972 26.33C97.9922 26.33 97.8203 26.1657 97.8203 25.9555C97.8203 25.7519 97.9856 25.5811 98.1972 25.5811C98.4088 25.5811 98.5741 25.7453 98.5741 25.9555Z" fill="white"/>
<path d="M98.5741 38.6277C98.5741 38.8314 98.4088 39.0022 98.1972 39.0022C97.9922 39.0022 97.8203 38.838 97.8203 38.6277C97.8203 38.4175 97.9856 38.2533 98.1972 38.2533C98.4088 38.2533 98.5741 38.4241 98.5741 38.6277Z" fill="white"/>
<path d="M98.5741 51.911C98.5741 52.1146 98.4088 52.2854 98.1972 52.2854C97.9922 52.2854 97.8203 52.1212 97.8203 51.911C97.8203 51.7007 97.9856 51.5365 98.1972 51.5365C98.4088 51.5365 98.5741 51.7007 98.5741 51.911Z" fill="white"/>
<path d="M98.5741 60.3066C98.5741 60.5102 98.4088 60.681 98.1972 60.681C97.9922 60.681 97.8203 60.5168 97.8203 60.3066C97.8203 60.1029 97.9856 59.9321 98.1972 59.9321C98.4088 59.9321 98.5741 60.1029 98.5741 60.3066Z" fill="white"/>
<path d="M98.5741 68.735C98.5741 68.9387 98.4088 69.1095 98.1972 69.1095C97.9922 69.1095 97.8203 68.9453 97.8203 68.735C97.8203 68.5248 97.9856 68.3606 98.1972 68.3606C98.4088 68.3606 98.5741 68.5248 98.5741 68.735Z" fill="white"/>
<path d="M12.4243 12.4357C12.4243 12.6394 12.259 12.8102 12.0474 12.8102C11.8425 12.8102 11.6705 12.646 11.6705 12.4357C11.6705 12.2255 11.8358 12.0613 12.0474 12.0613C12.2524 12.0613 12.4243 12.2321 12.4243 12.4357Z" fill="white"/>
<path d="M30.568 12.1861C30.568 12.3897 30.4027 12.5606 30.1911 12.5606C29.9861 12.5606 29.8142 12.3963 29.8142 12.1861C29.8142 11.9824 29.9795 11.8116 30.1911 11.8116C30.3961 11.8116 30.568 11.9759 30.568 12.1861Z" fill="white"/>
<path d="M12.4243 25.6599C12.4243 25.8635 12.259 26.0343 12.0474 26.0343C11.8425 26.0343 11.6705 25.8701 11.6705 25.6599C11.6705 25.4562 11.8358 25.2854 12.0474 25.2854C12.2524 25.2854 12.4243 25.4496 12.4243 25.6599Z" fill="white"/>
<path d="M12.4243 38.7131C12.4243 38.9168 12.259 39.0876 12.0474 39.0876C11.8425 39.0876 11.6705 38.9234 11.6705 38.7131C11.6705 38.5095 11.8358 38.3387 12.0474 38.3387C12.2524 38.3387 12.4243 38.5095 12.4243 38.7131Z" fill="white"/>
<path d="M12.4243 51.819C12.4243 52.0226 12.259 52.1934 12.0474 52.1934C11.8425 52.1934 11.6705 52.0292 11.6705 51.819C11.6705 51.6088 11.8358 51.4445 12.0474 51.4445C12.2524 51.4445 12.4243 51.6088 12.4243 51.819Z" fill="white"/>
<path d="M12.4243 60.3066C12.4243 60.5102 12.259 60.681 12.0474 60.681C11.8425 60.681 11.6705 60.5168 11.6705 60.3066C11.6705 60.1029 11.8358 59.9321 12.0474 59.9321C12.2524 59.9321 12.4243 60.1029 12.4243 60.3066Z" fill="white"/>
<path d="M12.4243 69.1095C12.4243 69.3131 12.259 69.484 12.0474 69.484C11.8425 69.484 11.6705 69.3197 11.6705 69.1095C11.6705 68.9058 11.8358 68.735 12.0474 68.735C12.2524 68.735 12.4243 68.8993 12.4243 69.1095Z" fill="white"/>
<path d="M12.4243 77.6036C12.4243 77.8073 12.259 77.9781 12.0474 77.9781C11.8425 77.9781 11.6705 77.8139 11.6705 77.6036C11.6705 77.4 11.8358 77.2292 12.0474 77.2292C12.2524 77.2292 12.4243 77.4 12.4243 77.6036Z" fill="white"/>
<path d="M12.4243 86.0913C12.4243 86.2949 12.259 86.4657 12.0474 86.4657C11.8425 86.4657 11.6705 86.3015 11.6705 86.0913C11.6705 85.8876 11.8358 85.7168 12.0474 85.7168C12.2524 85.7168 12.4243 85.8876 12.4243 86.0913Z" fill="white"/>
<path d="M12.4243 94.8942C12.4243 95.0978 12.259 95.2686 12.0474 95.2686C11.8425 95.2686 11.6705 95.1044 11.6705 94.8942C11.6705 94.6905 11.8358 94.5197 12.0474 94.5197C12.2524 94.5197 12.4243 94.6905 12.4243 94.8942Z" fill="white"/>
<path d="M12.4243 103.717C12.4243 103.92 12.259 104.091 12.0474 104.091C11.8425 104.091 11.6705 103.927 11.6705 103.717C11.6705 103.513 11.8358 103.342 12.0474 103.342C12.2524 103.342 12.4243 103.513 12.4243 103.717Z" fill="white"/>
<path d="M12.4243 111.6C12.4243 111.804 12.259 111.974 12.0474 111.974C11.8425 111.974 11.6705 111.81 11.6705 111.6C11.6705 111.396 11.8358 111.226 12.0474 111.226C12.2524 111.226 12.4243 111.396 12.4243 111.6Z" fill="white"/>
<path d="M12.4243 120.403C12.4243 120.607 12.259 120.777 12.0474 120.777C11.8425 120.777 11.6705 120.613 11.6705 120.403C11.6705 120.199 11.8358 120.029 12.0474 120.029C12.2524 120.029 12.4243 120.193 12.4243 120.403Z" fill="white"/>
<path d="M12.4243 128.976C12.4243 129.18 12.259 129.35 12.0474 129.35C11.8425 129.35 11.6705 129.186 11.6705 128.976C11.6705 128.766 11.8358 128.601 12.0474 128.601C12.2524 128.601 12.4243 128.766 12.4243 128.976Z" fill="white"/>
<path d="M12.5763 141.576C12.5763 141.78 12.411 141.95 12.1994 141.95C11.9944 141.95 11.8225 141.786 11.8225 141.576C11.8225 141.372 11.9878 141.201 12.1994 141.201C12.4044 141.201 12.5763 141.372 12.5763 141.576Z" fill="white"/>
<path d="M26.1445 141.95C26.1445 142.154 25.9792 142.325 25.7676 142.325C25.5627 142.325 25.3907 142.161 25.3907 141.95C25.3907 141.747 25.5561 141.576 25.7676 141.576C25.9792 141.576 26.1445 141.747 26.1445 141.95Z" fill="white"/>
<path d="M43.6337 141.95C43.6337 142.154 43.4684 142.325 43.2568 142.325C43.0518 142.325 42.8799 142.161 42.8799 141.95C42.8799 141.747 43.0452 141.576 43.2568 141.576C43.4684 141.576 43.6337 141.747 43.6337 141.95Z" fill="white"/>
<path d="M61.0964 141.95C61.0964 142.154 60.9311 142.325 60.7195 142.325C60.5146 142.325 60.3427 142.161 60.3427 141.95C60.3427 141.747 60.508 141.576 60.7195 141.576C60.9245 141.576 61.0964 141.747 61.0964 141.95Z" fill="white"/>
<path d="M78.1029 141.95C78.1029 142.154 77.9376 142.325 77.726 142.325C77.521 142.325 77.3491 142.161 77.3491 141.95C77.3491 141.747 77.5144 141.576 77.726 141.576C77.9376 141.576 78.1029 141.747 78.1029 141.95Z" fill="white"/>
<path d="M98.5741 77.3934C98.5741 77.5971 98.4088 77.7679 98.1972 77.7679C97.9922 77.7679 97.8203 77.6037 97.8203 77.3934C97.8203 77.1832 97.9856 77.019 98.1972 77.019C98.4088 77.019 98.5741 77.1898 98.5741 77.3934Z" fill="white"/>
<path d="M98.5741 85.4935C98.5741 85.6971 98.4088 85.8679 98.1972 85.8679C97.9922 85.8679 97.8203 85.7037 97.8203 85.4935C97.8203 85.2898 97.9856 85.119 98.1972 85.119C98.4088 85.119 98.5741 85.2898 98.5741 85.4935Z" fill="white"/>
<path d="M98.5741 94.2241C98.5741 94.4277 98.4088 94.5985 98.1972 94.5985C97.9922 94.5985 97.8203 94.4343 97.8203 94.2241C97.8203 94.0204 97.9856 93.8496 98.1972 93.8496C98.4088 93.8562 98.5741 94.0204 98.5741 94.2241Z" fill="white"/>
<path d="M98.5741 102.836C98.5741 103.04 98.4088 103.211 98.1972 103.211C97.9922 103.211 97.8203 103.047 97.8203 102.836C97.8203 102.633 97.9856 102.462 98.1972 102.462C98.4088 102.462 98.5741 102.626 98.5741 102.836Z" fill="white"/>
<path d="M98.5741 111.212C98.5741 111.416 98.4088 111.587 98.1972 111.587C97.9922 111.587 97.8203 111.423 97.8203 111.212C97.8203 111.009 97.9856 110.838 98.1972 110.838C98.4088 110.838 98.5741 111.009 98.5741 111.212Z" fill="white"/>
<path d="M98.5741 119.477C98.5741 119.68 98.4088 119.851 98.1972 119.851C97.9922 119.851 97.8203 119.687 97.8203 119.477C97.8203 119.273 97.9856 119.102 98.1972 119.102C98.4088 119.102 98.5741 119.266 98.5741 119.477Z" fill="white"/>
<path d="M98.5741 127.912C98.5741 128.115 98.4088 128.286 98.1972 128.286C97.9922 128.286 97.8203 128.122 97.8203 127.912C97.8203 127.708 97.9856 127.537 98.1972 127.537C98.4088 127.537 98.5741 127.701 98.5741 127.912Z" fill="white"/>
<path d="M98.5741 140.768C98.5741 140.972 98.4088 141.142 98.1972 141.142C97.9922 141.142 97.8203 140.978 97.8203 140.768C97.8203 140.564 97.9856 140.393 98.1972 140.393C98.4088 140.393 98.5741 140.558 98.5741 140.768Z" fill="white"/>
<path d="M64.1315 23.1372C61.6982 20.5029 58.8748 17.9343 57.6979 16.5876C56.8118 15.5759 56.1837 14.8073 55.9258 14.4854V14.3212C55.9258 14.3212 55.8994 14.3474 55.8597 14.4066C55.82 14.354 55.7936 14.3212 55.7936 14.3212V14.4854C55.5357 14.8073 54.9075 15.5759 54.0215 16.5876C52.8379 17.9343 50.0145 20.5029 47.5879 23.1372C45.1546 25.7715 44.9628 28.4058 45.4191 30.5869C45.8819 32.7679 48.1763 34.8241 51.7932 34.3774C52.9305 34.2394 53.757 33.6942 54.3587 33.0241C53.9554 36.1117 52.2693 37.7212 52.2693 37.7212H59.2782C58.002 36.3022 57.5458 34.292 57.3805 33.0372C57.9822 33.7007 58.8087 34.2328 59.9328 34.3774C63.543 34.8241 65.8441 32.7745 66.3069 30.5869C66.7631 28.3993 66.5648 25.765 64.1315 23.1372Z" fill="#151515"/>
<path d="M14.8443 20.5292C14.1368 19.7606 13.3103 19.0117 12.9665 18.6175C12.7086 18.3219 12.5234 18.0985 12.4507 18.0066V17.9606C12.4507 17.9606 12.4441 17.9671 12.4309 17.9868C12.4177 17.9737 12.411 17.9606 12.411 17.9606V18.0066C12.3383 18.0985 12.1532 18.3219 11.8953 18.6175C11.5515 19.0117 10.7249 19.7606 10.0174 20.5292C9.30993 21.2978 9.25042 22.0664 9.38267 22.7036C9.51491 23.3409 10.1894 23.9387 11.2407 23.8073C11.5713 23.7679 11.8159 23.6102 11.9879 23.4131C11.8688 24.3131 11.3795 24.7861 11.3795 24.7861H13.4227C13.0524 24.3722 12.9202 23.7876 12.8673 23.4197C13.0458 23.6168 13.2838 23.7679 13.6145 23.8073C14.6658 23.9387 15.3402 23.3409 15.4725 22.7036C15.6047 22.0598 15.5518 21.2912 14.8443 20.5292Z" fill="#151515"/>
<path d="M9.96459 14.3343C10.1431 13.8744 10.5465 13.3817 11.168 12.8562L12.3979 11.8117C12.8012 11.4832 13.1054 11.1153 13.317 10.7146C13.5285 10.3139 13.6343 9.854 13.6343 9.33502C13.6343 8.67152 13.469 8.15911 13.145 7.7978C12.821 7.43648 12.3582 7.25911 11.7565 7.25911C11.4854 7.25911 11.2209 7.3248 10.9696 7.44962C10.7184 7.57444 10.5134 7.74524 10.3547 7.95546C10.196 8.16568 10.1167 8.3759 10.1167 8.59926C10.1167 8.8029 10.1629 8.954 10.2555 9.05254C10.3481 9.15108 10.4803 9.2102 10.639 9.23648C10.9101 9.2759 11.1151 9.36787 11.2473 9.51239C11.3796 9.65035 11.4457 9.82115 11.4457 10.0182C11.4457 10.1825 11.3862 10.3139 11.2738 10.4255C11.1548 10.5372 10.9961 10.5898 10.7911 10.5898C10.4407 10.5898 10.1497 10.4518 9.9183 10.1759C9.68687 9.89998 9.57446 9.53867 9.57446 9.08539C9.57446 8.65181 9.68687 8.26422 9.90507 7.90947C10.1233 7.5613 10.4274 7.29196 10.8176 7.09488C11.2077 6.8978 11.6441 6.79926 12.1202 6.79926C12.669 6.79926 13.1583 6.90436 13.5947 7.10801C14.0311 7.31166 14.3749 7.60728 14.6195 7.98831C14.8708 8.36933 14.9898 8.82261 14.9898 9.34159C14.9898 9.86057 14.8047 10.327 14.441 10.7409C14.0707 11.1547 13.588 11.5752 12.993 12.0022L11.7366 12.9679C11.3796 13.2175 11.1019 13.4474 10.9101 13.6774C10.7184 13.9007 10.6192 14.1372 10.6192 14.3737C10.6192 14.5774 10.7514 14.6825 11.0159 14.6825H13.4426C13.7864 14.6825 14.0244 14.6102 14.1699 14.4591C14.3088 14.308 14.408 14.0978 14.4609 13.8285L14.5997 13.073H14.884L14.7055 15.727H9.7001C9.69348 15.254 9.78606 14.7941 9.96459 14.3343Z" fill="black"/>
<path d="M101.517 135.539C101.338 135.999 100.935 136.491 100.313 137.017L99.0833 138.061C98.68 138.396 98.3758 138.758 98.1642 139.158C97.9526 139.559 97.8468 140.019 97.8468 140.538C97.8468 141.201 98.0121 141.714 98.3361 142.075C98.6601 142.436 99.123 142.614 99.7247 142.614C99.9958 142.614 100.26 142.548 100.512 142.423C100.763 142.299 100.968 142.128 101.126 141.918C101.285 141.707 101.364 141.497 101.364 141.274C101.364 141.07 101.318 140.919 101.226 140.82C101.133 140.722 101.001 140.663 100.842 140.636C100.571 140.597 100.366 140.505 100.234 140.361C100.102 140.223 100.035 140.052 100.035 139.855C100.035 139.69 100.095 139.559 100.207 139.447C100.326 139.336 100.485 139.283 100.69 139.283C101.041 139.283 101.331 139.421 101.563 139.697C101.794 139.973 101.907 140.334 101.907 140.788C101.907 141.221 101.794 141.609 101.576 141.963C101.358 142.312 101.054 142.588 100.664 142.778C100.273 142.975 99.8371 143.074 99.361 143.074C98.8122 143.074 98.3229 142.969 97.8865 142.765C97.4501 142.561 97.1063 142.266 96.8616 141.885C96.6104 141.504 96.4913 141.05 96.4913 140.531C96.4913 140.012 96.6765 139.546 97.0402 139.126C97.4104 138.712 97.8931 138.291 98.4882 137.864L99.7445 136.899C100.102 136.649 100.379 136.419 100.571 136.189C100.763 135.966 100.862 135.729 100.862 135.493C100.862 135.289 100.73 135.184 100.465 135.184H98.0386C97.6947 135.184 97.4567 135.256 97.3113 135.407C97.1724 135.558 97.0732 135.769 97.0203 136.038L96.8814 136.793H96.5971L96.7757 134.139H101.781C101.788 134.619 101.695 135.079 101.517 135.539Z" fill="black"/>
<path d="M64.1315 127.866C61.6982 130.5 58.8748 133.069 57.6979 134.415C56.8118 135.427 56.1837 136.196 55.9258 136.518V136.682C55.9258 136.682 55.8994 136.655 55.8597 136.596C55.82 136.649 55.7936 136.682 55.7936 136.682V136.518C55.5357 136.196 54.9075 135.427 54.0215 134.415C52.8379 133.069 50.0145 130.5 47.5879 127.866C45.1546 125.231 44.9628 122.597 45.4191 120.416C45.8819 118.235 48.1763 116.179 51.7932 116.626C52.9305 116.763 53.757 117.309 54.3587 117.979C53.9554 114.891 52.2693 113.282 52.2693 113.282H59.2782C58.002 114.701 57.5458 116.711 57.3805 117.966C57.9822 117.302 58.8087 116.77 59.9328 116.626C63.543 116.179 65.8441 118.228 66.3069 120.416C66.7631 122.597 66.5648 125.231 64.1315 127.866Z" fill="#151515"/>
<path d="M101.007 129.672C100.3 130.441 99.4734 131.19 99.1296 131.584C98.8717 131.88 98.6865 132.103 98.6138 132.195V132.241C98.6138 132.241 98.6072 132.234 98.594 132.215C98.5807 132.228 98.5741 132.241 98.5741 132.241V132.195C98.5014 132.103 98.3162 131.88 98.0584 131.584C97.7145 131.19 96.888 130.441 96.1805 129.672C95.473 128.904 95.4135 128.135 95.5458 127.498C95.678 126.861 96.3524 126.263 97.4038 126.394C97.7344 126.434 97.979 126.591 98.1509 126.788C98.0319 125.888 97.5426 125.415 97.5426 125.415H99.5858C99.2155 125.829 99.0833 126.414 99.0304 126.782C99.2089 126.585 99.4469 126.434 99.7775 126.394C100.829 126.263 101.503 126.861 101.636 127.498C101.774 128.135 101.715 128.904 101.007 129.672Z" fill="#151515"/>
</svg>
