<svg width="110" height="153" viewBox="0 0 110 153" fill="none" xmlns="http://www.w3.org/2000/svg">
<path d="M106.072 153H3.92763C1.75884 153 0 151.253 0 149.098V3.90219C0 1.74745 1.75884 0 3.92763 0H106.072C108.241 0 110 1.74745 110 3.90219V149.098C110 151.253 108.241 153 106.072 153Z" fill="white"/>
<path d="M14.9171 20.5292C14.2096 19.7606 13.3831 19.0117 13.0392 18.6175C12.7813 18.3219 12.5962 18.0985 12.5235 18.0066V17.9606C12.5235 17.9606 12.5169 17.9671 12.5036 17.9868C12.4904 17.9737 12.4838 17.9606 12.4838 17.9606V18.0066C12.4111 18.0985 12.2259 18.3219 11.9681 18.6175C11.6242 19.0117 10.7977 19.7606 10.0902 20.5292C9.3827 21.2978 9.32317 22.0664 9.45542 22.7036C9.58766 23.3409 10.2621 23.9387 11.3134 23.8073C11.644 23.7679 11.8887 23.6102 12.0606 23.4131C11.9416 24.3131 11.4523 24.7861 11.4523 24.7861H13.4955C13.1252 24.3722 12.9929 23.7876 12.94 23.4197C13.1186 23.6168 13.3566 23.7679 13.6872 23.8073C14.7386 23.9387 15.413 23.3409 15.5452 22.7036C15.6841 22.0598 15.6246 21.2912 14.9171 20.5292Z" fill="#151515"/>
<path d="M10.282 15.4839C9.83894 15.1883 9.61414 14.7613 9.61414 14.2029C9.61414 13.8941 9.70671 13.6379 9.88524 13.4211C10.0638 13.2044 10.3018 13.0927 10.5927 13.0927C10.8374 13.0927 11.0357 13.1584 11.1746 13.2898C11.3135 13.4211 11.3862 13.6051 11.3862 13.835C11.3862 14.0124 11.3333 14.1701 11.2275 14.3014C11.1217 14.4328 10.9829 14.4985 10.8109 14.4985C10.5134 14.4985 10.3613 14.5708 10.3613 14.7153C10.3613 15.254 10.9035 15.5168 11.9813 15.5168C12.6028 15.5168 13.0591 15.3065 13.3368 14.8795C13.6145 14.4525 13.7533 13.9467 13.7533 13.3489C13.7533 12.6657 13.6079 12.1598 13.3103 11.8182C13.0128 11.4766 12.6557 11.3058 12.2259 11.3058C12.1003 11.3058 11.9945 11.3124 11.9086 11.3321C11.8292 11.3518 11.7234 11.3781 11.6044 11.4241C11.3201 11.516 11.1019 11.562 10.9498 11.562C10.8242 11.562 10.7051 11.5292 10.6126 11.4701C10.5134 11.4109 10.4671 11.319 10.4671 11.2007C10.4671 11.0825 10.5134 10.9905 10.606 10.9314C10.6985 10.8722 10.8175 10.8394 10.9498 10.8394C11.0953 10.8394 11.2936 10.8591 11.5515 10.9051C11.7234 10.9314 11.9548 10.9445 12.259 10.9445C12.669 10.9445 12.9863 10.7606 13.2045 10.3927C13.4227 10.0248 13.5285 9.59779 13.5285 9.1248C13.5285 8.57297 13.4029 8.11312 13.145 7.74523C12.8872 7.37735 12.5169 7.19998 12.0276 7.19998C11.525 7.19998 11.168 7.27881 10.9564 7.44304C10.7448 7.60728 10.6456 7.78465 10.6456 7.9883C10.6456 8.06713 10.6787 8.14596 10.7382 8.2248C10.7977 8.30363 10.877 8.36932 10.9828 8.42188C11.2936 8.54669 11.4457 8.75691 11.4457 9.04596C11.4457 9.22334 11.3862 9.37443 11.2672 9.48611C11.1482 9.59779 10.9762 9.65691 10.7514 9.65691C10.5002 9.65691 10.2886 9.5518 10.1034 9.34159C9.91829 9.13137 9.82571 8.90144 9.82571 8.64523C9.82571 8.04742 10.0571 7.59414 10.5134 7.26567C10.9696 6.94378 11.525 6.77954 12.173 6.77954C12.9533 6.77954 13.5748 6.98319 14.0509 7.39706C14.527 7.81093 14.765 8.34961 14.765 9.01969C14.765 9.37443 14.6791 9.69633 14.5138 9.97224C14.3484 10.2482 14.1369 10.4715 13.8856 10.6489C13.6343 10.8263 13.3765 10.9379 13.1252 10.9971V11.1022C13.4095 11.1547 13.7005 11.273 14.0112 11.4635C14.322 11.654 14.5799 11.9102 14.7915 12.2321C15.003 12.554 15.1154 12.9219 15.1154 13.3423C15.1154 13.8613 14.9766 14.3146 14.6923 14.7022C14.408 15.0898 14.0311 15.3854 13.555 15.5956C13.0789 15.8058 12.5565 15.9109 11.9813 15.9109C11.2936 15.9241 10.725 15.7795 10.282 15.4839Z" fill="black"/>
<path d="M101.325 134.383C101.768 134.678 101.993 135.105 101.993 135.664C101.993 135.972 101.9 136.228 101.722 136.445C101.543 136.662 101.305 136.767 101.014 136.767C100.769 136.767 100.571 136.701 100.432 136.57C100.293 136.439 100.221 136.255 100.221 136.031C100.221 135.854 100.273 135.696 100.379 135.565C100.485 135.434 100.624 135.368 100.796 135.368C101.093 135.368 101.245 135.296 101.245 135.151C101.245 134.612 100.703 134.35 99.6255 134.35C99.004 134.35 98.5477 134.56 98.27 134.987C97.9923 135.414 97.8534 135.92 97.8534 136.518C97.8534 137.201 97.9989 137.707 98.2965 138.048C98.594 138.39 98.9511 138.561 99.3808 138.561C99.5065 138.561 99.6123 138.554 99.6982 138.534C99.7776 138.515 99.8834 138.488 100.002 138.442C100.287 138.35 100.505 138.304 100.657 138.304C100.783 138.304 100.902 138.337 100.994 138.396C101.093 138.455 101.14 138.547 101.14 138.666C101.14 138.784 101.093 138.876 101.001 138.935C100.908 138.994 100.789 139.027 100.657 139.027C100.512 139.027 100.313 139.007 100.055 138.961C99.8834 138.935 99.652 138.922 99.3478 138.922C98.9378 138.922 98.6205 139.106 98.4023 139.474C98.1841 139.842 98.0782 140.269 98.0782 140.742C98.0782 141.293 98.2039 141.753 98.4618 142.121C98.7196 142.489 99.0899 142.666 99.5792 142.666C100.082 142.666 100.439 142.588 100.65 142.423C100.862 142.259 100.961 142.082 100.961 141.878C100.961 141.799 100.928 141.72 100.869 141.642C100.809 141.563 100.73 141.497 100.624 141.445C100.313 141.32 100.161 141.11 100.161 140.82C100.161 140.643 100.221 140.492 100.34 140.38C100.459 140.269 100.631 140.21 100.855 140.21C101.107 140.21 101.318 140.315 101.503 140.525C101.689 140.735 101.781 140.965 101.781 141.221C101.781 141.819 101.55 142.272 101.093 142.601C100.637 142.923 100.082 143.087 99.4338 143.087C98.6535 143.087 98.032 142.883 97.5559 142.469C97.0798 142.055 96.8418 141.517 96.8418 140.847C96.8418 140.492 96.9277 140.17 97.093 139.894C97.2583 139.618 97.4699 139.395 97.7212 139.218C97.9725 139.04 98.2303 138.928 98.4816 138.869V138.764C98.1973 138.712 97.9063 138.593 97.5956 138.403C97.2848 138.212 97.0269 137.956 96.8153 137.634C96.6038 137.312 96.4913 136.938 96.4913 136.524C96.4913 136.005 96.6302 135.552 96.9145 135.164C97.1988 134.777 97.5757 134.481 98.0518 134.271C98.5279 134.061 99.0503 133.956 99.6255 133.956C100.313 133.942 100.875 134.093 101.325 134.383Z" fill="black"/>
<path d="M64.1513 23.1372C61.718 20.5029 58.8946 17.9343 57.7176 16.5876C56.8316 15.5759 56.2034 14.8073 55.9456 14.4854V14.3212C55.9456 14.3212 55.9191 14.3474 55.8795 14.4066C55.8398 14.354 55.8133 14.3212 55.8133 14.3212V14.4854C55.5555 14.8073 54.9273 15.5759 54.0413 16.5876C52.8577 17.9343 50.0343 20.5029 47.6076 23.1372C45.1744 25.7715 44.9826 28.4058 45.4388 30.5869C45.9017 32.7679 48.1961 34.8241 51.813 34.3774C52.9503 34.2394 53.7768 33.6942 54.3785 33.0241C53.9751 36.1117 52.289 37.7212 52.289 37.7212H59.2979C58.0218 36.3022 57.5656 34.292 57.4003 33.0372C58.002 33.7007 58.8285 34.2328 59.9526 34.3774C63.5628 34.8241 65.8638 32.7745 66.3267 30.5869C66.7763 28.3993 66.5779 25.765 64.1513 23.1372Z" fill="#151515"/>
<path d="M64.1513 73.4387C61.718 70.8044 58.8946 68.2358 57.7176 66.889C56.8316 65.8774 56.2034 65.1088 55.9456 64.7869V64.6226C55.9456 64.6226 55.9191 64.6489 55.8795 64.708C55.8398 64.6555 55.8133 64.6226 55.8133 64.6226V64.7869C55.5555 65.1088 54.9273 65.8774 54.0413 66.889C52.8577 68.2358 50.0343 70.8044 47.6076 73.4387C45.1744 76.073 44.9826 78.7073 45.4388 80.8883C45.9017 83.0693 48.1961 85.1255 51.813 84.6788C52.9503 84.5409 53.7768 83.9956 54.3785 83.3255C53.9751 86.4131 52.289 88.0226 52.289 88.0226H59.2979C58.0218 86.6036 57.5656 84.5934 57.4003 83.3387C58.002 84.0022 58.8285 84.5343 59.9526 84.6788C63.5628 85.1255 65.8638 83.0759 66.3267 80.8883C66.7763 78.7073 66.5779 76.073 64.1513 73.4387Z" fill="#151515"/>
<path d="M64.1513 127.866C61.718 130.5 58.8946 133.069 57.7176 134.415C56.8316 135.427 56.2034 136.196 55.9456 136.518V136.682C55.9456 136.682 55.9191 136.655 55.8795 136.596C55.8398 136.649 55.8133 136.682 55.8133 136.682V136.518C55.5555 136.196 54.9273 135.427 54.0413 134.415C52.8577 133.069 50.0343 130.5 47.6076 127.866C45.1744 125.231 44.9826 122.597 45.4388 120.416C45.9017 118.235 48.1961 116.179 51.813 116.626C52.9503 116.763 53.7768 117.309 54.3785 117.979C53.9751 114.891 52.289 113.282 52.289 113.282H59.2979C58.0218 114.701 57.5656 116.711 57.4003 117.966C58.002 117.302 58.8285 116.77 59.9526 116.626C63.5628 116.179 65.8638 118.228 66.3267 120.416C66.7763 122.597 66.5779 125.231 64.1513 127.866Z" fill="#151515"/>
<path d="M101.08 129.672C100.373 130.441 99.5461 131.19 99.2023 131.584C98.9444 131.88 98.7593 132.103 98.6866 132.195V132.241C98.6866 132.241 98.6799 132.234 98.6667 132.215C98.6535 132.228 98.6469 132.241 98.6469 132.241V132.195C98.5742 132.103 98.389 131.88 98.1311 131.584C97.7873 131.19 96.9608 130.441 96.2533 129.672C95.5458 128.904 95.4863 128.135 95.6185 127.498C95.7507 126.861 96.4252 126.263 97.4765 126.394C97.8071 126.434 98.0518 126.591 98.2237 126.788C98.1047 125.888 97.6154 125.415 97.6154 125.415H99.6585C99.2883 125.829 99.156 126.414 99.1031 126.782C99.2817 126.585 99.5197 126.434 99.8503 126.394C100.902 126.263 101.576 126.861 101.708 127.498C101.847 128.135 101.794 128.904 101.08 129.672Z" fill="#151515"/>
</svg>
