<svg width="110" height="153" viewBox="0 0 110 153" fill="none" xmlns="http://www.w3.org/2000/svg">
<path d="M106.072 153H3.92763C1.75884 153 0 151.253 0 149.098V3.90219C0 1.74745 1.75884 0 3.92763 0H106.072C108.241 0 110 1.74745 110 3.90219V149.098C110 151.253 108.241 153 106.072 153Z" fill="white"/>
<path d="M98.5741 12.0613C98.5741 12.2649 98.4088 12.4357 98.1972 12.4357C97.9856 12.4357 97.8203 12.2715 97.8203 12.0613C97.8203 11.8511 97.9856 11.6868 98.1972 11.6868C98.4088 11.6868 98.5741 11.8576 98.5741 12.0613Z" fill="white"/>
<path d="M80.642 12.0613C80.642 12.2649 80.4767 12.4357 80.2651 12.4357C80.0535 12.4357 79.8882 12.2715 79.8882 12.0613C79.8882 11.8511 80.0535 11.6868 80.2651 11.6868C80.4767 11.6868 80.642 11.8576 80.642 12.0613Z" fill="white"/>
<path d="M47.5746 12.1861C47.5746 12.3897 47.4093 12.5606 47.1977 12.5606C46.9927 12.5606 46.8208 12.3963 46.8208 12.1861C46.8208 11.9824 46.9861 11.8116 47.1977 11.8116C47.4093 11.8116 47.5746 11.9759 47.5746 12.1861Z" fill="white"/>
<path d="M98.5741 25.9555C98.5741 26.1592 98.4088 26.33 98.1972 26.33C97.9856 26.33 97.8203 26.1657 97.8203 25.9555C97.8203 25.7519 97.9856 25.5811 98.1972 25.5811C98.4088 25.5811 98.5741 25.7453 98.5741 25.9555Z" fill="white"/>
<path d="M98.5741 38.6277C98.5741 38.8314 98.4088 39.0022 98.1972 39.0022C97.9856 39.0022 97.8203 38.838 97.8203 38.6277C97.8203 38.4175 97.9856 38.2533 98.1972 38.2533C98.4088 38.2533 98.5741 38.4241 98.5741 38.6277Z" fill="white"/>
<path d="M12.4243 12.4357C12.4243 12.6394 12.259 12.8102 12.0474 12.8102C11.8358 12.8102 11.6705 12.646 11.6705 12.4357C11.6705 12.2255 11.8358 12.0613 12.0474 12.0613C12.259 12.0613 12.4243 12.2321 12.4243 12.4357Z" fill="white"/>
<path d="M30.568 12.1861C30.568 12.3897 30.4027 12.5606 30.1911 12.5606C29.9861 12.5606 29.8142 12.3963 29.8142 12.1861C29.8142 11.9824 29.9795 11.8116 30.1911 11.8116C30.3961 11.8116 30.568 11.9759 30.568 12.1861Z" fill="white"/>
<path d="M12.4243 25.6599C12.4243 25.8635 12.259 26.0343 12.0474 26.0343C11.8358 26.0343 11.6705 25.8701 11.6705 25.6599C11.6705 25.4562 11.8358 25.2854 12.0474 25.2854C12.259 25.2854 12.4243 25.4496 12.4243 25.6599Z" fill="white"/>
<path d="M12.4243 38.7131C12.4243 38.9168 12.259 39.0876 12.0474 39.0876C11.8358 39.0876 11.6705 38.9234 11.6705 38.7131C11.6705 38.5095 11.8358 38.3387 12.0474 38.3387C12.259 38.3387 12.4243 38.5095 12.4243 38.7131Z" fill="white"/>
<path d="M12.4243 51.819C12.4243 52.0226 12.259 52.1934 12.0474 52.1934C11.8358 52.1934 11.6705 52.0292 11.6705 51.819C11.6705 51.6088 11.8358 51.4445 12.0474 51.4445C12.259 51.4445 12.4243 51.6088 12.4243 51.819Z" fill="white"/>
<path d="M12.4243 60.3066C12.4243 60.5102 12.259 60.681 12.0474 60.681C11.8358 60.681 11.6705 60.5168 11.6705 60.3066C11.6705 60.1029 11.8358 59.9321 12.0474 59.9321C12.259 59.9321 12.4243 60.1029 12.4243 60.3066Z" fill="white"/>
<path d="M12.4243 69.1095C12.4243 69.3131 12.259 69.484 12.0474 69.484C11.8358 69.484 11.6705 69.3197 11.6705 69.1095C11.6705 68.9058 11.8358 68.735 12.0474 68.735C12.259 68.735 12.4243 68.8993 12.4243 69.1095Z" fill="white"/>
<path d="M12.4243 77.6036C12.4243 77.8073 12.259 77.9781 12.0474 77.9781C11.8358 77.9781 11.6705 77.8139 11.6705 77.6036C11.6705 77.4 11.8358 77.2292 12.0474 77.2292C12.259 77.2292 12.4243 77.4 12.4243 77.6036Z" fill="white"/>
<path d="M12.4243 111.6C12.4243 111.804 12.259 111.974 12.0474 111.974C11.8358 111.974 11.6705 111.81 11.6705 111.6C11.6705 111.396 11.8358 111.226 12.0474 111.226C12.259 111.226 12.4243 111.396 12.4243 111.6Z" fill="white"/>
<path d="M12.4243 120.403C12.4243 120.607 12.259 120.777 12.0474 120.777C11.8358 120.777 11.6705 120.613 11.6705 120.403C11.6705 120.199 11.8358 120.029 12.0474 120.029C12.259 120.029 12.4243 120.193 12.4243 120.403Z" fill="white"/>
<path d="M12.4243 128.976C12.4243 129.18 12.259 129.35 12.0474 129.35C11.8358 129.35 11.6705 129.186 11.6705 128.976C11.6705 128.766 11.8358 128.601 12.0474 128.601C12.259 128.601 12.4243 128.766 12.4243 128.976Z" fill="white"/>
<path d="M12.5763 141.576C12.5763 141.78 12.411 141.95 12.1994 141.95C11.9944 141.95 11.8225 141.786 11.8225 141.576C11.8225 141.372 11.9878 141.201 12.1994 141.201C12.411 141.201 12.5763 141.372 12.5763 141.576Z" fill="white"/>
<path d="M43.6403 141.95C43.6403 142.154 43.475 142.325 43.2634 142.325C43.0584 142.325 42.8865 142.161 42.8865 141.95C42.8865 141.747 43.0518 141.576 43.2634 141.576C43.4684 141.576 43.6403 141.747 43.6403 141.95Z" fill="white"/>
<path d="M61.0964 141.95C61.0964 142.154 60.9311 142.325 60.7195 142.325C60.5146 142.325 60.3427 142.161 60.3427 141.95C60.3427 141.747 60.5079 141.576 60.7195 141.576C60.9311 141.576 61.0964 141.747 61.0964 141.95Z" fill="white"/>
<path d="M78.1029 141.95C78.1029 142.154 77.9376 142.325 77.726 142.325C77.5144 142.325 77.3491 142.161 77.3491 141.95C77.3491 141.747 77.5144 141.576 77.726 141.576C77.9376 141.576 78.1029 141.747 78.1029 141.95Z" fill="white"/>
<path d="M98.5741 102.836C98.5741 103.04 98.4088 103.211 98.1972 103.211C97.9856 103.211 97.8203 103.047 97.8203 102.836C97.8203 102.633 97.9856 102.462 98.1972 102.462C98.4088 102.462 98.5741 102.626 98.5741 102.836Z" fill="white"/>
<path d="M98.5741 111.212C98.5741 111.416 98.4088 111.587 98.1972 111.587C97.9856 111.587 97.8203 111.423 97.8203 111.212C97.8203 111.009 97.9856 110.838 98.1972 110.838C98.4088 110.838 98.5741 111.009 98.5741 111.212Z" fill="white"/>
<path d="M98.5741 119.477C98.5741 119.68 98.4088 119.851 98.1972 119.851C97.9856 119.851 97.8203 119.687 97.8203 119.477C97.8203 119.273 97.9856 119.102 98.1972 119.102C98.4088 119.102 98.5741 119.266 98.5741 119.477Z" fill="white"/>
<path d="M98.5741 127.912C98.5741 128.115 98.4088 128.286 98.1972 128.286C97.9856 128.286 97.8203 128.122 97.8203 127.912C97.8203 127.708 97.9856 127.537 98.1972 127.537C98.4088 127.537 98.5741 127.701 98.5741 127.912Z" fill="white"/>
<path d="M98.5741 140.768C98.5741 140.972 98.4088 141.142 98.1972 141.142C97.9856 141.142 97.8203 140.978 97.8203 140.768C97.8203 140.564 97.9856 140.393 98.1972 140.393C98.4088 140.393 98.5741 140.558 98.5741 140.768Z" fill="white"/>
<path d="M14.9964 20.5292C14.2889 19.7606 13.4624 19.0117 13.1186 18.6175C12.8607 18.3219 12.6755 18.0985 12.6028 18.0066V17.9606C12.6028 17.9606 12.5962 17.9671 12.583 17.9868C12.5697 17.9737 12.5631 17.9606 12.5631 17.9606V18.0066C12.4904 18.0985 12.3053 18.3219 12.0474 18.6175C11.7035 19.0117 10.877 19.7606 10.1695 20.5292C9.46203 21.2978 9.40252 22.0664 9.53477 22.7036C9.66701 23.3409 10.3414 23.9387 11.3928 23.8073C11.7234 23.7679 11.968 23.6102 12.1399 23.4131C12.0209 24.3131 11.5316 24.7861 11.5316 24.7861H13.5748C13.2045 24.3722 13.0723 23.7876 13.0194 23.4197C13.1979 23.6168 13.4359 23.7679 13.7665 23.8073C14.8179 23.9387 15.4923 23.3409 15.6246 22.7036C15.7634 22.0598 15.7039 21.2912 14.9964 20.5292Z" fill="#151515"/>
<path d="M11.1415 15.3131H12.3846C12.5036 15.3131 12.5896 15.2869 12.6491 15.2343C12.702 15.1818 12.735 15.0964 12.735 14.9781V13.2701H9.47522V12.8102L13.4558 6.98322H13.9186V12.8102H15.4725V13.2701H13.9186V14.9781C13.9186 15.0964 13.945 15.1818 14.0046 15.2343C14.0575 15.2869 14.15 15.3131 14.269 15.3131H15.5121V15.7204H11.1481V15.3131H11.1415ZM10.0637 12.8168H12.735V8.9146L10.0637 12.8168Z" fill="black"/>
<path d="M100.584 134.56H99.3412C99.2221 134.56 99.1362 134.586 99.0767 134.639C99.0238 134.691 98.9907 134.777 98.9907 134.895V136.603H102.251V137.063L98.27 142.89H97.8071V137.063H96.2533V136.603H97.8071V134.895C97.8071 134.777 97.7807 134.691 97.7212 134.639C97.6683 134.586 97.5757 134.56 97.4567 134.56H96.2136V134.153H100.578V134.56H100.584ZM101.669 137.056H98.9973V140.958L101.669 137.056Z" fill="black"/>
<path d="M45.8289 23.1372C43.3956 20.5029 40.5722 17.9343 39.3952 16.5876C38.5092 15.5759 37.8811 14.8073 37.6232 14.4854V14.3212C37.6232 14.3212 37.5967 14.3474 37.5571 14.4066C37.5174 14.354 37.491 14.3212 37.491 14.3212V14.4854C37.2331 14.8073 36.6049 15.5759 35.7189 16.5876C34.5353 17.9343 31.7119 20.5029 29.2853 23.1372C26.852 25.7715 26.6602 28.4058 27.1165 30.5869C27.5793 32.7679 29.8737 34.8241 33.4906 34.3774C34.6279 34.2394 35.4544 33.6942 36.0561 33.0241C35.6528 36.1117 33.9667 37.7212 33.9667 37.7212H40.9756C39.6994 36.3022 39.2432 34.292 39.0779 33.0372C39.6796 33.7007 40.5061 34.2328 41.6302 34.3774C45.2404 34.8241 47.5414 32.7745 48.0043 30.5869C48.4605 28.3993 48.2622 25.765 45.8289 23.1372Z" fill="#151515"/>
<path d="M45.8289 127.866C43.3956 130.5 40.5722 133.069 39.3952 134.415C38.5092 135.427 37.8811 136.196 37.6232 136.518V136.682C37.6232 136.682 37.5967 136.655 37.5571 136.596C37.5174 136.649 37.491 136.682 37.491 136.682V136.518C37.2331 136.196 36.6049 135.427 35.7189 134.415C34.5353 133.069 31.7119 130.5 29.2853 127.866C26.852 125.231 26.6602 122.597 27.1165 120.416C27.5793 118.235 29.8737 116.179 33.4906 116.626C34.6279 116.763 35.4544 117.309 36.0561 117.979C35.6528 114.891 33.9667 113.282 33.9667 113.282H40.9756C39.6994 114.701 39.2432 116.711 39.0779 117.966C39.6796 117.302 40.5061 116.77 41.6302 116.626C45.2404 116.179 47.5414 118.228 48.0043 120.416C48.4605 122.597 48.2622 125.231 45.8289 127.866Z" fill="#151515"/>
<path d="M81.8851 23.1372C79.4518 20.5029 76.6284 17.9343 75.4514 16.5876C74.5654 15.5759 73.9372 14.8073 73.6793 14.4854V14.3212C73.6793 14.3212 73.6529 14.3474 73.6132 14.4066C73.5736 14.354 73.5471 14.3212 73.5471 14.3212V14.4854C73.2892 14.8073 72.6611 15.5759 71.775 16.5876C70.5915 17.9343 67.7681 20.5029 65.3414 23.1372C62.9081 25.7715 62.7164 28.4058 63.1726 30.5869C63.6355 32.7679 65.9299 34.8241 69.5467 34.3774C70.684 34.2394 71.5106 33.6942 72.1123 33.0241C71.7089 36.1117 70.0228 37.7212 70.0228 37.7212H77.0317C75.7556 36.3022 75.2993 34.292 75.134 33.0372C75.7357 33.7007 76.5622 34.2328 77.6863 34.3774C81.2966 34.8241 83.5976 32.7745 84.0604 30.5869C84.5167 28.3993 84.3183 25.765 81.8851 23.1372Z" fill="#151515"/>
<path d="M81.8851 127.866C79.4518 130.5 76.6284 133.069 75.4514 134.415C74.5654 135.427 73.9372 136.196 73.6793 136.518V136.682C73.6793 136.682 73.6529 136.655 73.6132 136.596C73.5736 136.649 73.5471 136.682 73.5471 136.682V136.518C73.2892 136.196 72.6611 135.427 71.775 134.415C70.5915 133.069 67.7681 130.5 65.3414 127.866C62.9081 125.231 62.7164 122.597 63.1726 120.416C63.6355 118.235 65.9299 116.179 69.5467 116.626C70.684 116.763 71.5106 117.309 72.1123 117.979C71.7089 114.891 70.0228 113.282 70.0228 113.282H77.0317C75.7556 114.701 75.2993 116.711 75.134 117.966C75.7357 117.302 76.5622 116.77 77.6863 116.626C81.2966 116.179 83.5976 118.228 84.0604 120.416C84.5167 122.597 84.3183 125.231 81.8851 127.866Z" fill="#151515"/>
<path d="M101.16 129.672C100.452 130.441 99.6255 131.19 99.2817 131.584C99.0238 131.88 98.8386 132.103 98.7659 132.195V132.241C98.7659 132.241 98.7593 132.234 98.7461 132.215C98.7329 132.228 98.7262 132.241 98.7262 132.241V132.195C98.6535 132.103 98.4684 131.88 98.2105 131.584C97.8667 131.19 97.0401 130.441 96.3326 129.672C95.6251 128.904 95.5656 128.135 95.6978 127.498C95.8301 126.861 96.5045 126.263 97.5559 126.394C97.8865 126.434 98.1311 126.591 98.303 126.788C98.184 125.888 97.6947 125.415 97.6947 125.415H99.7379C99.3676 125.829 99.2354 126.414 99.1825 126.782C99.361 126.585 99.599 126.434 99.9297 126.394C100.981 126.263 101.655 126.861 101.788 127.498C101.92 128.135 101.867 128.904 101.16 129.672Z" fill="#151515"/>
</svg>
