<svg width="110" height="153" viewBox="0 0 110 153" fill="none" xmlns="http://www.w3.org/2000/svg">
<path d="M106.066 153H3.92763C1.75884 153 0 151.253 0 149.098V3.90219C0 1.74745 1.75884 0 3.92763 0H106.072C108.241 0 110 1.74745 110 3.90219V149.098C109.993 151.253 108.235 153 106.066 153Z" fill="white"/>
<path d="M98.5675 12.0613C98.5675 12.265 98.4022 12.4358 98.1906 12.4358C97.979 12.4358 97.8137 12.2716 97.8137 12.0613C97.8137 11.8511 97.979 11.6869 98.1906 11.6869C98.4022 11.6869 98.5675 11.8577 98.5675 12.0613Z" fill="white"/>
<path d="M80.6354 12.0613C80.6354 12.265 80.4701 12.4358 80.2585 12.4358C80.0469 12.4358 79.8816 12.2716 79.8816 12.0613C79.8816 11.8511 80.0469 11.6869 80.2585 11.6869C80.4701 11.6869 80.6354 11.8577 80.6354 12.0613Z" fill="white"/>
<path d="M64.1314 12.0613C64.1314 12.265 63.9661 12.4358 63.7545 12.4358C63.5429 12.4358 63.3776 12.2716 63.3776 12.0613C63.3776 11.8511 63.5429 11.6869 63.7545 11.6869C63.9661 11.6869 64.1314 11.8577 64.1314 12.0613Z" fill="white"/>
<path d="M47.568 12.1862C47.568 12.3898 47.4027 12.5606 47.1911 12.5606C46.9861 12.5606 46.8142 12.3964 46.8142 12.1862C46.8142 11.9825 46.9795 11.8117 47.1911 11.8117C47.4027 11.8117 47.568 11.9759 47.568 12.1862Z" fill="white"/>
<path d="M98.5675 25.9555C98.5675 26.1592 98.4022 26.33 98.1906 26.33C97.979 26.33 97.8137 26.1657 97.8137 25.9555C97.8137 25.7519 97.979 25.5811 98.1906 25.5811C98.4022 25.5811 98.5675 25.7453 98.5675 25.9555Z" fill="white"/>
<path d="M98.5675 38.6277C98.5675 38.8314 98.4022 39.0022 98.1906 39.0022C97.979 39.0022 97.8137 38.838 97.8137 38.6277C97.8137 38.4175 97.979 38.2533 98.1906 38.2533C98.4022 38.2533 98.5675 38.4241 98.5675 38.6277Z" fill="white"/>
<path d="M98.5675 51.911C98.5675 52.1146 98.4022 52.2854 98.1906 52.2854C97.979 52.2854 97.8137 52.1212 97.8137 51.911C97.8137 51.7007 97.979 51.5365 98.1906 51.5365C98.4022 51.5365 98.5675 51.7007 98.5675 51.911Z" fill="white"/>
<path d="M98.5675 60.3066C98.5675 60.5102 98.4022 60.681 98.1906 60.681C97.979 60.681 97.8137 60.5168 97.8137 60.3066C97.8137 60.1029 97.979 59.9321 98.1906 59.9321C98.4022 59.9321 98.5675 60.1029 98.5675 60.3066Z" fill="white"/>
<path d="M98.5675 68.735C98.5675 68.9387 98.4022 69.1095 98.1906 69.1095C97.979 69.1095 97.8137 68.9453 97.8137 68.735C97.8137 68.5248 97.979 68.3606 98.1906 68.3606C98.4022 68.3606 98.5675 68.5248 98.5675 68.735Z" fill="white"/>
<path d="M12.4176 12.4357C12.4176 12.6394 12.2523 12.8102 12.0407 12.8102C11.8291 12.8102 11.6638 12.646 11.6638 12.4357C11.6638 12.2255 11.8291 12.0613 12.0407 12.0613C12.2523 12.0613 12.4176 12.2321 12.4176 12.4357Z" fill="white"/>
<path d="M30.5615 12.1862C30.5615 12.3898 30.3962 12.5606 30.1846 12.5606C29.9796 12.5606 29.8077 12.3964 29.8077 12.1862C29.8077 11.9825 29.973 11.8117 30.1846 11.8117C30.3896 11.8117 30.5615 11.9759 30.5615 12.1862Z" fill="white"/>
<path d="M12.4176 25.6599C12.4176 25.8635 12.2523 26.0343 12.0407 26.0343C11.8291 26.0343 11.6638 25.8701 11.6638 25.6599C11.6638 25.4562 11.8291 25.2854 12.0407 25.2854C12.2523 25.2854 12.4176 25.4496 12.4176 25.6599Z" fill="white"/>
<path d="M12.4176 38.7131C12.4176 38.9168 12.2523 39.0876 12.0407 39.0876C11.8291 39.0876 11.6638 38.9234 11.6638 38.7131C11.6638 38.5095 11.8291 38.3387 12.0407 38.3387C12.2523 38.3387 12.4176 38.5095 12.4176 38.7131Z" fill="white"/>
<path d="M12.4176 51.819C12.4176 52.0226 12.2523 52.1934 12.0407 52.1934C11.8291 52.1934 11.6638 52.0292 11.6638 51.819C11.6638 51.6088 11.8291 51.4445 12.0407 51.4445C12.2523 51.4445 12.4176 51.6088 12.4176 51.819Z" fill="white"/>
<path d="M12.4176 60.3066C12.4176 60.5102 12.2523 60.681 12.0407 60.681C11.8291 60.681 11.6638 60.5168 11.6638 60.3066C11.6638 60.1029 11.8291 59.9321 12.0407 59.9321C12.2523 59.9321 12.4176 60.1029 12.4176 60.3066Z" fill="white"/>
<path d="M12.4176 69.1095C12.4176 69.3131 12.2523 69.484 12.0407 69.484C11.8291 69.484 11.6638 69.3197 11.6638 69.1095C11.6638 68.9058 11.8291 68.735 12.0407 68.735C12.2523 68.735 12.4176 68.8993 12.4176 69.1095Z" fill="white"/>
<path d="M12.4176 77.6036C12.4176 77.8073 12.2523 77.9781 12.0407 77.9781C11.8291 77.9781 11.6638 77.8139 11.6638 77.6036C11.6638 77.4 11.8291 77.2292 12.0407 77.2292C12.2523 77.2292 12.4176 77.4 12.4176 77.6036Z" fill="white"/>
<path d="M12.4176 86.0913C12.4176 86.2949 12.2523 86.4657 12.0407 86.4657C11.8291 86.4657 11.6638 86.3015 11.6638 86.0913C11.6638 85.8876 11.8291 85.7168 12.0407 85.7168C12.2523 85.7168 12.4176 85.8876 12.4176 86.0913Z" fill="white"/>
<path d="M12.4176 94.8942C12.4176 95.0978 12.2523 95.2686 12.0407 95.2686C11.8291 95.2686 11.6638 95.1044 11.6638 94.8942C11.6638 94.6905 11.8291 94.5197 12.0407 94.5197C12.2523 94.5197 12.4176 94.6905 12.4176 94.8942Z" fill="white"/>
<path d="M12.4176 103.717C12.4176 103.92 12.2523 104.091 12.0407 104.091C11.8291 104.091 11.6638 103.927 11.6638 103.717C11.6638 103.513 11.8291 103.342 12.0407 103.342C12.2523 103.342 12.4176 103.513 12.4176 103.717Z" fill="white"/>
<path d="M12.4176 111.6C12.4176 111.804 12.2523 111.974 12.0407 111.974C11.8291 111.974 11.6638 111.81 11.6638 111.6C11.6638 111.396 11.8291 111.226 12.0407 111.226C12.2523 111.226 12.4176 111.396 12.4176 111.6Z" fill="white"/>
<path d="M12.4176 120.403C12.4176 120.607 12.2523 120.777 12.0407 120.777C11.8291 120.777 11.6638 120.613 11.6638 120.403C11.6638 120.199 11.8291 120.028 12.0407 120.028C12.2523 120.028 12.4176 120.193 12.4176 120.403Z" fill="white"/>
<path d="M12.4176 128.976C12.4176 129.18 12.2523 129.35 12.0407 129.35C11.8291 129.35 11.6638 129.186 11.6638 128.976C11.6638 128.766 11.8291 128.601 12.0407 128.601C12.2523 128.601 12.4176 128.766 12.4176 128.976Z" fill="white"/>
<path d="M12.5697 141.576C12.5697 141.78 12.4044 141.95 12.1928 141.95C11.9878 141.95 11.8159 141.786 11.8159 141.576C11.8159 141.372 11.9812 141.201 12.1928 141.201C12.4044 141.201 12.5697 141.372 12.5697 141.576Z" fill="white"/>
<path d="M26.1444 141.95C26.1444 142.154 25.9791 142.325 25.7675 142.325C25.5559 142.325 25.3906 142.161 25.3906 141.95C25.3906 141.747 25.5559 141.576 25.7675 141.576C25.9791 141.576 26.1444 141.747 26.1444 141.95Z" fill="white"/>
<path d="M43.6337 141.95C43.6337 142.154 43.4684 142.325 43.2568 142.325C43.0518 142.325 42.8799 142.161 42.8799 141.95C42.8799 141.747 43.0452 141.576 43.2568 141.576C43.4618 141.576 43.6337 141.747 43.6337 141.95Z" fill="white"/>
<path d="M61.0899 141.95C61.0899 142.154 60.9245 142.325 60.713 142.325C60.5014 142.325 60.3361 142.161 60.3361 141.95C60.3361 141.747 60.5014 141.576 60.713 141.576C60.9245 141.576 61.0899 141.747 61.0899 141.95Z" fill="white"/>
<path d="M78.0963 141.95C78.0963 142.154 77.931 142.325 77.7194 142.325C77.5078 142.325 77.3425 142.161 77.3425 141.95C77.3425 141.747 77.5078 141.576 77.7194 141.576C77.931 141.576 78.0963 141.747 78.0963 141.95Z" fill="white"/>
<path d="M98.5675 77.3934C98.5675 77.5971 98.4022 77.7679 98.1906 77.7679C97.979 77.7679 97.8137 77.6037 97.8137 77.3934C97.8137 77.1832 97.979 77.019 98.1906 77.019C98.4022 77.019 98.5675 77.1898 98.5675 77.3934Z" fill="white"/>
<path d="M98.5675 85.4935C98.5675 85.6971 98.4022 85.8679 98.1906 85.8679C97.979 85.8679 97.8137 85.7037 97.8137 85.4935C97.8137 85.2898 97.979 85.119 98.1906 85.119C98.4022 85.119 98.5675 85.2898 98.5675 85.4935Z" fill="white"/>
<path d="M98.5675 94.2241C98.5675 94.4277 98.4022 94.5985 98.1906 94.5985C97.979 94.5985 97.8137 94.4343 97.8137 94.2241C97.8137 94.0204 97.979 93.8496 98.1906 93.8496C98.4022 93.8496 98.5675 94.0204 98.5675 94.2241Z" fill="white"/>
<path d="M98.5675 102.836C98.5675 103.04 98.4022 103.211 98.1906 103.211C97.979 103.211 97.8137 103.047 97.8137 102.836C97.8137 102.633 97.979 102.462 98.1906 102.462C98.4022 102.462 98.5675 102.626 98.5675 102.836Z" fill="white"/>
<path d="M98.5675 111.212C98.5675 111.416 98.4022 111.587 98.1906 111.587C97.979 111.587 97.8137 111.423 97.8137 111.212C97.8137 111.009 97.979 110.838 98.1906 110.838C98.4022 110.838 98.5675 111.009 98.5675 111.212Z" fill="white"/>
<path d="M98.5675 119.477C98.5675 119.68 98.4022 119.851 98.1906 119.851C97.979 119.851 97.8137 119.687 97.8137 119.477C97.8137 119.273 97.979 119.102 98.1906 119.102C98.4022 119.102 98.5675 119.266 98.5675 119.477Z" fill="white"/>
<path d="M98.5675 127.912C98.5675 128.115 98.4022 128.286 98.1906 128.286C97.979 128.286 97.8137 128.122 97.8137 127.912C97.8137 127.708 97.979 127.537 98.1906 127.537C98.4022 127.537 98.5675 127.701 98.5675 127.912Z" fill="white"/>
<path d="M98.5675 140.768C98.5675 140.972 98.4022 141.142 98.1906 141.142C97.979 141.142 97.8137 140.978 97.8137 140.768C97.8137 140.564 97.979 140.393 98.1906 140.393C98.4022 140.393 98.5675 140.558 98.5675 140.768Z" fill="white"/>
<path d="M9.03215 14.9518C8.6817 14.7876 8.41062 14.5642 8.22548 14.2752C8.04034 13.9927 7.94116 13.6708 7.94116 13.3226C7.94116 12.9219 8.04694 12.6197 8.25191 12.4029C8.45689 12.1927 8.69495 12.081 8.97266 12.081C9.20408 12.081 9.38262 12.1533 9.51486 12.2913C9.6471 12.4292 9.71322 12.6066 9.71322 12.8234C9.71322 12.9679 9.67354 13.0993 9.58759 13.2241C9.50163 13.3489 9.38922 13.4409 9.25698 13.5C9.13796 13.5591 9.04539 13.6183 8.97266 13.6774C8.90654 13.7365 8.86684 13.8153 8.86684 13.9204C8.86684 14.1898 8.97266 14.4066 9.18425 14.5577C9.39584 14.7088 9.75949 14.7876 10.2752 14.7876C10.91 14.7876 11.3663 14.5183 11.6506 13.973C11.9349 13.4277 12.0738 12.738 12.0738 11.9102C12.0738 11.1285 11.9349 10.5307 11.6638 10.1102C11.3927 9.69636 10.9431 9.48614 10.3281 9.48614C10.0769 9.48614 9.86527 9.52556 9.68674 9.59125C9.50822 9.66352 9.3231 9.7949 9.13796 9.97884C9.052 10.0642 8.97927 10.1759 8.92637 10.3139C8.87347 10.4518 8.84041 10.5767 8.84041 10.6752C8.84041 10.7672 8.81397 10.846 8.76768 10.9051C8.7214 10.9642 8.66187 10.9971 8.58252 10.9971C8.44367 10.9971 8.37755 10.892 8.37755 10.6818V6.2803L8.66187 6.06351C8.84039 6.21461 9.10488 6.346 9.44872 6.44454C9.79255 6.54965 10.1166 6.59563 10.4207 6.59563C10.8307 6.59563 11.201 6.55622 11.5382 6.47738C11.8754 6.39855 12.2126 6.2606 12.5631 6.05695L12.7151 6.23432C12.4044 6.63505 12.0275 6.95695 11.5779 7.19344C11.1282 7.43651 10.6521 7.55476 10.1496 7.55476C9.83222 7.55476 9.58098 7.53505 9.38923 7.49563C9.20409 7.45622 9.01894 7.39052 8.84041 7.29855V9.73578L8.91975 9.76205C9.12473 9.52556 9.376 9.34162 9.67355 9.21023C9.97109 9.07884 10.2753 9.01315 10.5926 9.01315C11.4919 9.01315 12.1928 9.27592 12.6887 9.80147C13.1912 10.327 13.4425 11.0234 13.4425 11.8905C13.4425 12.508 13.297 13.073 13.0127 13.5723C12.7284 14.0715 12.3449 14.4657 11.8622 14.7548C11.3861 15.0372 10.8571 15.1818 10.2819 15.1818C9.79917 15.2015 9.3892 15.1161 9.03215 14.9518Z" fill="black"/>
<path d="M99.5263 134.757C99.8768 134.921 100.148 135.145 100.333 135.434C100.518 135.716 100.617 136.038 100.617 136.386C100.617 136.787 100.512 137.089 100.307 137.306C100.102 137.516 99.8635 137.621 99.5858 137.621C99.3544 137.621 99.1759 137.549 99.037 137.411C98.9048 137.273 98.8386 137.096 98.8386 136.879C98.8386 136.734 98.8783 136.603 98.9643 136.478C99.0502 136.353 99.1626 136.261 99.2949 136.202C99.4139 136.143 99.5065 136.084 99.5792 136.025C99.6453 135.966 99.685 135.887 99.685 135.782C99.685 135.512 99.5792 135.296 99.3676 135.145C99.156 134.993 98.7924 134.915 98.2766 134.915C97.6419 134.915 97.1856 135.184 96.9013 135.729C96.617 136.274 96.4781 136.964 96.4781 137.792C96.4781 138.574 96.617 139.172 96.888 139.592C97.1591 140.006 97.6088 140.216 98.2237 140.216C98.475 140.216 98.6866 140.177 98.8651 140.104C99.0437 140.032 99.2288 139.901 99.4139 139.717C99.4999 139.631 99.5726 139.52 99.6255 139.382C99.6784 139.244 99.7115 139.119 99.7115 139.02C99.7115 138.929 99.7379 138.85 99.7842 138.791C99.8305 138.731 99.89 138.699 99.9693 138.699C100.108 138.699 100.174 138.804 100.174 139.02V143.422L99.89 143.639C99.7115 143.488 99.447 143.356 99.1031 143.258C98.7593 143.153 98.4353 143.107 98.1311 143.107C97.7212 143.107 97.3509 143.146 97.0137 143.218C96.6765 143.297 96.3392 143.435 95.9888 143.639L95.8367 143.461C96.1475 143.061 96.5244 142.739 96.974 142.502C97.4236 142.259 97.8997 142.141 98.4023 142.141C98.7196 142.141 98.9709 142.161 99.1626 142.2C99.3478 142.239 99.5329 142.305 99.7115 142.397V139.96L99.6321 139.934C99.4271 140.17 99.1759 140.354 98.8783 140.485C98.5808 140.617 98.2766 140.683 97.9592 140.683C97.06 140.683 96.3591 140.42 95.8632 139.894C95.3606 139.369 95.1094 138.672 95.1094 137.805C95.1094 137.188 95.2549 136.623 95.5392 136.123C95.8235 135.624 96.207 135.23 96.6897 134.941C97.1658 134.658 97.6948 134.514 98.27 134.514C98.7659 134.507 99.1759 134.593 99.5263 134.757Z" fill="black"/>
<path d="M44.6189 22.8153C42.1857 20.181 39.3623 17.6124 38.1853 16.2657C37.2993 15.254 36.6711 14.4854 36.4132 14.1635V13.9993C36.4132 13.9993 36.3868 14.0255 36.3471 14.0847C36.3074 14.0321 36.281 13.9993 36.281 13.9993V14.1635C36.0231 14.4854 35.395 15.254 34.5089 16.2657C33.3254 17.6124 30.5019 20.181 28.0753 22.8153C25.642 25.4496 25.4503 28.0839 25.9065 30.265C26.3694 32.446 28.6638 34.5022 32.2806 34.0555C33.4179 33.9175 34.2445 33.3723 34.8462 32.7022C34.4428 35.7898 32.7567 37.3993 32.7567 37.3993H39.7656C38.4895 35.9803 38.0332 33.9701 37.8679 32.7153C38.4696 33.3788 39.2962 33.9109 40.4202 34.0555C44.0305 34.5022 46.3315 32.4526 46.7944 30.265C47.2506 28.0774 47.0522 25.4431 44.6189 22.8153Z" fill="#151515"/>
<path d="M44.6189 127.544C42.1856 130.178 39.3622 132.747 38.1853 134.093C37.2992 135.105 36.6711 135.874 36.4132 136.196V136.36C36.4132 136.36 36.3867 136.334 36.3471 136.274C36.3074 136.327 36.2809 136.36 36.2809 136.36V136.196C36.0231 135.874 35.3949 135.105 34.5089 134.093C33.3253 132.747 30.5019 130.178 28.0752 127.544C25.6486 124.909 25.4502 122.275 25.9065 120.094C26.3693 117.913 28.6637 115.857 32.2806 116.304C33.4179 116.442 34.2444 116.987 34.8461 117.657C34.4428 114.569 32.7567 112.96 32.7567 112.96H39.7656C38.4894 114.379 38.0332 116.389 37.8679 117.644C38.4696 116.98 39.2961 116.448 40.4202 116.304C44.0304 115.857 46.3315 117.907 46.7943 120.094C47.2506 122.275 47.0522 124.909 44.6189 127.544Z" fill="#151515"/>
<path d="M80.675 22.8153C78.2417 20.181 75.4183 17.6124 74.2413 16.2657C73.3553 15.254 72.7271 14.4854 72.4693 14.1635V13.9993C72.4693 13.9993 72.4428 14.0255 72.4032 14.0847C72.3635 14.0321 72.337 13.9993 72.337 13.9993V14.1635C72.0791 14.4854 71.451 15.254 70.565 16.2657C69.3814 17.6124 66.558 20.181 64.1313 22.8153C61.6981 25.4496 61.5063 28.0839 61.9625 30.265C62.4254 32.446 64.7198 34.5022 68.3367 34.0555C69.474 33.9175 70.3005 33.3723 70.9022 32.7022C70.4988 35.7898 68.8128 37.3993 68.8128 37.3993H75.8216C74.5455 35.9803 74.0893 33.9701 73.924 32.7153C74.5257 33.3788 75.3522 33.9109 76.4762 34.0555C80.0865 34.5022 82.3875 32.4526 82.8504 30.265C83.3 28.0774 83.1083 25.4431 80.675 22.8153Z" fill="#151515"/>
<path d="M80.675 127.544C78.2417 130.178 75.4183 132.747 74.2413 134.093C73.3553 135.105 72.7271 135.874 72.4693 136.196V136.36C72.4693 136.36 72.4428 136.334 72.4032 136.274C72.3635 136.327 72.337 136.36 72.337 136.36V136.196C72.0791 135.874 71.451 135.105 70.565 134.093C69.3814 132.747 66.558 130.178 64.1313 127.544C61.6981 124.909 61.5063 122.275 61.9625 120.094C62.4254 117.913 64.7198 115.857 68.3367 116.304C69.474 116.442 70.3005 116.987 70.9022 117.657C70.4988 114.569 68.8128 112.96 68.8128 112.96H75.8216C74.5455 114.379 74.0893 116.389 73.924 117.644C74.5257 116.98 75.3522 116.448 76.4762 116.304C80.0865 115.857 82.3875 117.907 82.8504 120.094C83.3 122.275 83.1083 124.909 80.675 127.544Z" fill="#151515"/>
<path d="M62.3461 73.1168C59.9128 70.4825 57.0894 67.9139 55.9125 66.5671C55.0264 65.5555 54.3983 64.7869 54.1404 64.465V64.3007C54.1404 64.3007 54.1139 64.327 54.0743 64.3861C54.0346 64.3336 54.0082 64.3007 54.0082 64.3007V64.465C53.7503 64.7869 53.1221 65.5555 52.2361 66.5671C51.0525 67.9139 48.2291 70.4825 45.8025 73.1168C43.3692 75.7511 43.1774 78.3854 43.6337 80.5664C44.0965 82.7474 46.391 84.8036 50.0078 84.3569C51.1451 84.219 51.9716 83.6737 52.5733 83.0036C52.17 86.0912 50.4839 87.7007 50.4839 87.7007H57.4928C56.2166 86.2817 55.7604 84.2715 55.5951 83.0168C56.1968 83.6803 57.0233 84.2124 58.1474 84.3569C61.7576 84.8036 64.0587 82.754 64.5215 80.5664C64.9712 78.3854 64.7728 75.7511 62.3461 73.1168Z" fill="#151515"/>
<path d="M100.479 129.35C99.7711 130.119 98.9446 130.868 98.6007 131.262C98.3429 131.558 98.1577 131.781 98.085 131.873V131.919C98.085 131.919 98.0784 131.912 98.0651 131.893C98.0519 131.906 98.0453 131.919 98.0453 131.919V131.873C97.9726 131.781 97.7874 131.558 97.5296 131.262C97.1857 130.868 96.3592 130.119 95.6517 129.35C94.9442 128.582 94.8847 127.813 95.0169 127.176C95.1492 126.539 95.8236 125.941 96.875 126.072C97.2056 126.112 97.4502 126.269 97.6221 126.466C97.5031 125.566 97.0138 125.093 97.0138 125.093H99.057C98.6867 125.507 98.5544 126.092 98.5015 126.46C98.6801 126.263 98.9181 126.112 99.2487 126.072C100.3 125.941 100.974 126.539 101.107 127.176C101.246 127.813 101.186 128.582 100.479 129.35Z" fill="#151515"/>
<path d="M14.3154 20.2008C13.6079 19.4321 12.7814 18.6832 12.4375 18.2891C12.1796 17.9935 11.9945 17.7701 11.9218 17.6781V17.6321C11.9218 17.6321 11.9152 17.6387 11.9019 17.6584C11.8887 17.6453 11.8821 17.6321 11.8821 17.6321V17.6781C11.8093 17.7701 11.6242 17.9935 11.3664 18.2891C11.0225 18.6832 10.196 19.4321 9.48848 20.2008C8.78098 20.9694 8.7215 21.738 8.85374 22.3752C8.98598 23.0124 9.66042 23.6102 10.7118 23.4789C11.0424 23.4394 11.287 23.2818 11.4589 23.0847C11.3399 23.9847 10.8506 24.4577 10.8506 24.4577H12.8938C12.5235 24.0438 12.3912 23.4591 12.3383 23.0913C12.5169 23.2883 12.7549 23.4394 13.0855 23.4789C14.1368 23.6102 14.8113 23.0124 14.9435 22.3752C15.0824 21.738 15.0229 20.9694 14.3154 20.2008Z" fill="#151515"/>
</svg>
