<svg width="110" height="153" viewBox="0 0 110 153" fill="none" xmlns="http://www.w3.org/2000/svg">
<path d="M106.066 153H3.92763C1.75884 153 0 151.253 0 149.098V3.90219C0 1.74745 1.75884 0 3.92763 0H106.072C108.241 0 110 1.74745 110 3.90219V149.098C109.993 151.253 108.235 153 106.066 153Z" fill="white"/>
<path d="M98.5741 12.0613C98.5741 12.265 98.4088 12.4358 98.1972 12.4358C97.9856 12.4358 97.8203 12.2716 97.8203 12.0613C97.8203 11.8511 97.9856 11.6869 98.1972 11.6869C98.4088 11.6869 98.5741 11.8577 98.5741 12.0613Z" fill="white"/>
<path d="M80.6354 12.0613C80.6354 12.265 80.4701 12.4358 80.2585 12.4358C80.0535 12.4358 79.8816 12.2716 79.8816 12.0613C79.8816 11.8511 80.0469 11.6869 80.2585 11.6869C80.4635 11.6935 80.6354 11.8577 80.6354 12.0613Z" fill="white"/>
<path d="M64.1314 12.0613C64.1314 12.265 63.9661 12.4358 63.7545 12.4358C63.5495 12.4358 63.3776 12.2716 63.3776 12.0613C63.3776 11.8511 63.5429 11.6869 63.7545 11.6869C63.9661 11.6935 64.1314 11.8577 64.1314 12.0613Z" fill="white"/>
<path d="M47.568 12.1862C47.568 12.3898 47.4027 12.5606 47.1911 12.5606C46.9861 12.5606 46.8142 12.3964 46.8142 12.1862C46.8142 11.9825 46.9795 11.8117 47.1911 11.8117C47.4027 11.8117 47.568 11.9759 47.568 12.1862Z" fill="white"/>
<path d="M98.5741 25.9555C98.5741 26.1592 98.4088 26.33 98.1972 26.33C97.9856 26.33 97.8203 26.1657 97.8203 25.9555C97.8203 25.7519 97.9856 25.5811 98.1972 25.5811C98.4088 25.5811 98.5741 25.7453 98.5741 25.9555Z" fill="white"/>
<path d="M98.5741 38.6277C98.5741 38.8314 98.4088 39.0022 98.1972 39.0022C97.9856 39.0022 97.8203 38.838 97.8203 38.6277C97.8203 38.4175 97.9856 38.2533 98.1972 38.2533C98.4088 38.2533 98.5741 38.4241 98.5741 38.6277Z" fill="white"/>
<path d="M98.5741 51.911C98.5741 52.1146 98.4088 52.2854 98.1972 52.2854C97.9856 52.2854 97.8203 52.1212 97.8203 51.911C97.8203 51.7007 97.9856 51.5365 98.1972 51.5365C98.4088 51.5365 98.5741 51.7007 98.5741 51.911Z" fill="white"/>
<path d="M98.5741 60.3066C98.5741 60.5102 98.4088 60.681 98.1972 60.681C97.9856 60.681 97.8203 60.5168 97.8203 60.3066C97.8203 60.1029 97.9856 59.9321 98.1972 59.9321C98.4088 59.9321 98.5741 60.1029 98.5741 60.3066Z" fill="white"/>
<path d="M98.5741 68.735C98.5741 68.9387 98.4088 69.1095 98.1972 69.1095C97.9856 69.1095 97.8203 68.9453 97.8203 68.735C97.8203 68.5248 97.9856 68.3606 98.1972 68.3606C98.4088 68.3606 98.5741 68.5248 98.5741 68.735Z" fill="white"/>
<path d="M12.4176 12.4357C12.4176 12.6394 12.2523 12.8102 12.0407 12.8102C11.8291 12.8102 11.6638 12.646 11.6638 12.4357C11.6638 12.2255 11.8291 12.0613 12.0407 12.0613C12.2523 12.0613 12.4176 12.2321 12.4176 12.4357Z" fill="white"/>
<path d="M30.5615 12.1862C30.5615 12.3898 30.3962 12.5606 30.1846 12.5606C29.973 12.5606 29.8077 12.3964 29.8077 12.1862C29.8077 11.9825 29.973 11.8117 30.1846 11.8117C30.3962 11.8117 30.5615 11.9759 30.5615 12.1862Z" fill="white"/>
<path d="M12.4176 25.6599C12.4176 25.8635 12.2523 26.0343 12.0407 26.0343C11.8291 26.0343 11.6638 25.8701 11.6638 25.6599C11.6638 25.4562 11.8291 25.2854 12.0407 25.2854C12.2523 25.2854 12.4176 25.4496 12.4176 25.6599Z" fill="white"/>
<path d="M12.4176 38.7131C12.4176 38.9168 12.2523 39.0876 12.0407 39.0876C11.8291 39.0876 11.6638 38.9234 11.6638 38.7131C11.6638 38.5095 11.8291 38.3387 12.0407 38.3387C12.2523 38.3387 12.4176 38.5095 12.4176 38.7131Z" fill="white"/>
<path d="M12.4176 51.819C12.4176 52.0226 12.2523 52.1934 12.0407 52.1934C11.8291 52.1934 11.6638 52.0292 11.6638 51.819C11.6638 51.6088 11.8291 51.4445 12.0407 51.4445C12.2523 51.4445 12.4176 51.6088 12.4176 51.819Z" fill="white"/>
<path d="M12.4176 60.3066C12.4176 60.5102 12.2523 60.681 12.0407 60.681C11.8291 60.681 11.6638 60.5168 11.6638 60.3066C11.6638 60.1029 11.8291 59.9321 12.0407 59.9321C12.2523 59.9321 12.4176 60.1029 12.4176 60.3066Z" fill="white"/>
<path d="M12.4176 69.1095C12.4176 69.3131 12.2523 69.484 12.0407 69.484C11.8291 69.484 11.6638 69.3197 11.6638 69.1095C11.6638 68.9058 11.8291 68.735 12.0407 68.735C12.2523 68.735 12.4176 68.8993 12.4176 69.1095Z" fill="white"/>
<path d="M12.4176 77.6036C12.4176 77.8073 12.2523 77.9781 12.0407 77.9781C11.8291 77.9781 11.6638 77.8139 11.6638 77.6036C11.6638 77.4 11.8291 77.2292 12.0407 77.2292C12.2523 77.2292 12.4176 77.4 12.4176 77.6036Z" fill="white"/>
<path d="M12.4176 86.0913C12.4176 86.2949 12.2523 86.4657 12.0407 86.4657C11.8291 86.4657 11.6638 86.3015 11.6638 86.0913C11.6638 85.8876 11.8291 85.7168 12.0407 85.7168C12.2523 85.7168 12.4176 85.8876 12.4176 86.0913Z" fill="white"/>
<path d="M12.4176 94.8942C12.4176 95.0978 12.2523 95.2686 12.0407 95.2686C11.8291 95.2686 11.6638 95.1044 11.6638 94.8942C11.6638 94.6905 11.8291 94.5197 12.0407 94.5197C12.2523 94.5197 12.4176 94.6905 12.4176 94.8942Z" fill="white"/>
<path d="M12.4176 103.717C12.4176 103.92 12.2523 104.091 12.0407 104.091C11.8291 104.091 11.6638 103.927 11.6638 103.717C11.6638 103.513 11.8291 103.342 12.0407 103.342C12.2523 103.342 12.4176 103.513 12.4176 103.717Z" fill="white"/>
<path d="M12.4176 111.6C12.4176 111.804 12.2523 111.974 12.0407 111.974C11.8291 111.974 11.6638 111.81 11.6638 111.6C11.6638 111.396 11.8291 111.226 12.0407 111.226C12.2523 111.226 12.4176 111.396 12.4176 111.6Z" fill="white"/>
<path d="M12.4176 120.403C12.4176 120.607 12.2523 120.777 12.0407 120.777C11.8291 120.777 11.6638 120.613 11.6638 120.403C11.6638 120.199 11.8291 120.028 12.0407 120.028C12.2523 120.028 12.4176 120.193 12.4176 120.403Z" fill="white"/>
<path d="M12.4176 128.976C12.4176 129.18 12.2523 129.35 12.0407 129.35C11.8291 129.35 11.6638 129.186 11.6638 128.976C11.6638 128.766 11.8291 128.601 12.0407 128.601C12.2523 128.601 12.4176 128.766 12.4176 128.976Z" fill="white"/>
<path d="M12.5697 141.576C12.5697 141.78 12.4044 141.95 12.1928 141.95C11.9878 141.95 11.8159 141.786 11.8159 141.576C11.8159 141.372 11.9812 141.201 12.1928 141.201C12.4044 141.201 12.5697 141.372 12.5697 141.576Z" fill="white"/>
<path d="M26.1444 141.95C26.1444 142.154 25.9791 142.325 25.7675 142.325C25.5625 142.325 25.3906 142.161 25.3906 141.95C25.3906 141.747 25.5559 141.576 25.7675 141.576C25.9791 141.576 26.1444 141.747 26.1444 141.95Z" fill="white"/>
<path d="M43.6337 141.95C43.6337 142.154 43.4684 142.325 43.2568 142.325C43.0518 142.325 42.8799 142.161 42.8799 141.95C42.8799 141.747 43.0452 141.576 43.2568 141.576C43.4618 141.576 43.6337 141.747 43.6337 141.95Z" fill="white"/>
<path d="M61.0899 141.95C61.0899 142.154 60.9245 142.325 60.713 142.325C60.508 142.325 60.3361 142.161 60.3361 141.95C60.3361 141.747 60.5014 141.576 60.713 141.576C60.9245 141.576 61.0899 141.747 61.0899 141.95Z" fill="white"/>
<path d="M78.1029 141.95C78.1029 142.154 77.9376 142.325 77.726 142.325C77.5144 142.325 77.3491 142.161 77.3491 141.95C77.3491 141.747 77.5144 141.576 77.726 141.576C77.9376 141.576 78.1029 141.747 78.1029 141.95Z" fill="white"/>
<path d="M98.5741 77.3934C98.5741 77.5971 98.4088 77.7679 98.1972 77.7679C97.9856 77.7679 97.8203 77.6037 97.8203 77.3934C97.8203 77.1832 97.9856 77.019 98.1972 77.019C98.4088 77.019 98.5741 77.1898 98.5741 77.3934Z" fill="white"/>
<path d="M98.5741 85.4935C98.5741 85.6971 98.4088 85.8679 98.1972 85.8679C97.9856 85.8679 97.8203 85.7037 97.8203 85.4935C97.8203 85.2898 97.9856 85.119 98.1972 85.119C98.4088 85.119 98.5741 85.2898 98.5741 85.4935Z" fill="white"/>
<path d="M98.5741 94.2241C98.5741 94.4277 98.4088 94.5985 98.1972 94.5985C97.9856 94.5985 97.8203 94.4343 97.8203 94.2241C97.8203 94.0204 97.9856 93.8496 98.1972 93.8496C98.4088 93.8496 98.5741 94.0204 98.5741 94.2241Z" fill="white"/>
<path d="M98.5741 102.836C98.5741 103.04 98.4088 103.211 98.1972 103.211C97.9856 103.211 97.8203 103.047 97.8203 102.836C97.8203 102.633 97.9856 102.462 98.1972 102.462C98.4088 102.462 98.5741 102.626 98.5741 102.836Z" fill="white"/>
<path d="M98.5741 111.212C98.5741 111.416 98.4088 111.587 98.1972 111.587C97.9856 111.587 97.8203 111.423 97.8203 111.212C97.8203 111.009 97.9856 110.838 98.1972 110.838C98.4088 110.838 98.5741 111.009 98.5741 111.212Z" fill="white"/>
<path d="M98.5741 119.477C98.5741 119.68 98.4088 119.851 98.1972 119.851C97.9856 119.851 97.8203 119.687 97.8203 119.477C97.8203 119.273 97.9856 119.102 98.1972 119.102C98.4088 119.102 98.5741 119.266 98.5741 119.477Z" fill="white"/>
<path d="M98.5741 127.912C98.5741 128.115 98.4088 128.286 98.1972 128.286C97.9856 128.286 97.8203 128.122 97.8203 127.912C97.8203 127.708 97.9856 127.537 98.1972 127.537C98.4088 127.537 98.5741 127.701 98.5741 127.912Z" fill="white"/>
<path d="M98.5741 140.768C98.5741 140.972 98.4088 141.142 98.1972 141.142C97.9856 141.142 97.8203 140.978 97.8203 140.768C97.8203 140.564 97.9856 140.393 98.1972 140.393C98.4088 140.393 98.5741 140.558 98.5741 140.768Z" fill="white"/>
<path d="M9.5479 14.6891C9.12472 14.3475 8.79408 13.8613 8.56927 13.2307C8.33784 12.6 8.22546 11.8511 8.22546 10.9905C8.22546 10.2942 8.31802 9.61097 8.49654 8.94089C8.67507 8.27082 8.93956 7.71243 9.27678 7.27228C9.89832 6.47082 10.6323 6.07666 11.472 6.07666C12.0803 6.07666 12.5697 6.28031 12.9466 6.68761C13.0722 6.8387 13.1648 7.00951 13.2243 7.20002C13.2772 7.38396 13.3102 7.55476 13.3102 7.69929C13.3102 7.99491 13.2044 8.23797 12.9862 8.42848C12.8408 8.5533 12.6688 8.619 12.4572 8.619C12.2589 8.619 12.1068 8.54016 11.9944 8.38907C11.9547 8.32995 11.9217 8.27082 11.9084 8.22484C11.8952 8.17228 11.8886 8.10659 11.8886 8.02119C11.8886 7.89637 11.9415 7.76498 12.0539 7.64016C12.1332 7.55476 12.2126 7.4825 12.2985 7.42338C12.3779 7.37082 12.4308 7.31827 12.4572 7.26571C12.4903 7.21316 12.5035 7.14746 12.5035 7.06863C12.5035 6.91754 12.4176 6.77958 12.2391 6.6679C12.0605 6.54965 11.796 6.4971 11.439 6.4971C11.1282 6.4971 10.8372 6.58907 10.5595 6.76644C10.2818 6.94381 10.0504 7.23943 9.85865 7.65987C9.71318 7.9752 9.60078 8.36936 9.52804 8.84892C9.4487 9.32192 9.40903 9.72265 9.40903 10.0445V10.6161L9.50161 10.6555C9.65369 10.3336 9.89174 10.0643 10.2157 9.8606C10.5397 9.65038 10.8439 9.54527 11.148 9.54527C11.7233 9.54527 12.206 9.68323 12.5961 9.96571C12.9267 10.2022 13.1846 10.5241 13.3631 10.9248C13.5416 11.3256 13.6342 11.7591 13.6342 12.219C13.6342 12.6789 13.5284 13.1387 13.3234 13.6051C13.1184 14.0716 12.8143 14.4526 12.4176 14.7613C12.0208 15.0701 11.5514 15.2212 11.0092 15.2212C10.4604 15.2015 9.97108 15.0307 9.5479 14.6891ZM12.1531 14.0518C12.3911 13.5591 12.5035 13.0007 12.5035 12.3701C12.5035 11.6934 12.3977 11.1219 12.1928 10.6752C11.9878 10.2285 11.644 9.99856 11.1679 9.99856C10.8703 9.99856 10.5992 10.0971 10.3612 10.2942C10.1231 10.4913 9.9314 10.7672 9.79254 11.1285C9.65369 11.4898 9.58095 11.9037 9.58095 12.3701C9.58095 13.073 9.69336 13.6577 9.91156 14.111C10.1364 14.5643 10.5 14.7942 11.0158 14.7942C11.5381 14.7942 11.9217 14.5445 12.1531 14.0518Z" fill="black"/>
<path d="M99.718 135.02C100.141 135.361 100.472 135.847 100.697 136.478C100.921 137.109 101.04 137.858 101.04 138.718C101.04 139.415 100.948 140.098 100.769 140.768C100.591 141.438 100.326 141.996 99.9891 142.437C99.3676 143.238 98.6336 143.632 97.7939 143.632C97.1855 143.632 96.6963 143.429 96.3194 143.021C96.1937 142.87 96.1012 142.699 96.0417 142.509C95.9888 142.318 95.9557 142.154 95.9557 142.01C95.9557 141.714 96.0615 141.471 96.2797 141.28C96.4252 141.149 96.5971 141.09 96.8087 141.09C97.007 141.09 97.1591 141.169 97.2715 141.32C97.3112 141.379 97.3443 141.438 97.3575 141.484C97.3707 141.537 97.3773 141.602 97.3773 141.688C97.3773 141.812 97.3244 141.944 97.212 142.069C97.1327 142.154 97.0533 142.226 96.9673 142.285C96.888 142.338 96.8351 142.391 96.8087 142.443C96.7756 142.496 96.7624 142.561 96.7624 142.64C96.7624 142.791 96.8483 142.929 97.0269 143.041C97.2054 143.159 97.4699 143.212 97.827 143.212C98.1377 143.212 98.4286 143.12 98.7063 142.942C98.9841 142.765 99.2155 142.469 99.4072 142.049C99.5527 141.734 99.6651 141.339 99.7378 140.86C99.8172 140.38 99.8569 139.986 99.8569 139.664V139.093L99.7643 139.053C99.6122 139.375 99.3742 139.645 99.0502 139.848C98.7262 140.058 98.4221 140.157 98.1179 140.157C97.5426 140.157 97.0599 140.019 96.6698 139.737C96.3392 139.5 96.0813 139.178 95.9028 138.777C95.7243 138.37 95.6317 137.943 95.6317 137.483C95.6317 137.023 95.7375 136.564 95.9425 136.097C96.1474 135.631 96.4516 135.25 96.8483 134.941C97.2451 134.632 97.7145 134.481 98.2567 134.481C98.8055 134.507 99.2948 134.678 99.718 135.02ZM97.1195 135.657C96.8814 136.15 96.769 136.708 96.769 137.339C96.769 138.015 96.8748 138.587 97.0798 139.034C97.2848 139.48 97.6286 139.71 98.1047 139.71C98.4022 139.71 98.6733 139.612 98.9113 139.415C99.1494 139.218 99.3411 138.942 99.48 138.58C99.6189 138.219 99.6916 137.805 99.6916 137.339C99.6916 136.636 99.5792 136.051 99.361 135.598C99.1362 135.145 98.7725 134.915 98.2567 134.915C97.7278 134.915 97.3509 135.164 97.1195 135.657Z" fill="black"/>
<path d="M43.7063 23.0256C41.273 20.3913 38.4497 17.8227 37.2727 16.476C36.3867 15.4643 35.7585 14.6957 35.5006 14.3738V14.2095C35.5006 14.2095 35.4742 14.2358 35.4345 14.2949C35.3948 14.2424 35.3684 14.2095 35.3684 14.2095V14.3738C35.1105 14.6957 34.4824 15.4643 33.5963 16.476C32.4128 17.8227 29.5894 20.3913 27.1627 23.0256C24.7294 25.6599 24.5377 28.2942 24.9939 30.4752C25.4568 32.6562 27.7512 34.7125 31.368 34.2657C32.5053 34.1278 33.3319 33.5825 33.9336 32.9125C33.5302 36 31.8441 37.6095 31.8441 37.6095H38.853C37.5769 36.1906 37.1206 34.1803 36.9553 32.9256C37.557 33.5891 38.3835 34.1212 39.5076 34.2657C43.1179 34.7125 45.4189 32.6628 45.8818 30.4752C46.3314 28.2942 46.133 25.6599 43.7063 23.0256Z" fill="#151515"/>
<path d="M43.7063 73.3336C41.273 70.6993 38.4497 68.1307 37.2727 66.7839C36.3867 65.7723 35.7585 65.0036 35.5006 64.6818V64.5175C35.5006 64.5175 35.4742 64.5438 35.4345 64.6029C35.3948 64.5504 35.3684 64.5175 35.3684 64.5175V64.6818C35.1105 65.0036 34.4824 65.7723 33.5963 66.7839C32.4128 68.1307 29.5894 70.6993 27.1627 73.3336C24.7294 75.9679 24.5377 78.6022 24.9939 80.7832C25.4568 82.9642 27.7512 85.0204 31.368 84.5737C32.5053 84.4358 33.3319 83.8905 33.9336 83.2204C33.5302 86.308 31.8441 87.9175 31.8441 87.9175H38.853C37.5769 86.4985 37.1206 84.4883 36.9553 83.2336C37.557 83.8971 38.3835 84.4292 39.5076 84.5737C43.1179 85.0204 45.4189 82.9708 45.8818 80.7832C46.3314 78.6022 46.133 75.9679 43.7063 73.3336Z" fill="#151515"/>
<path d="M43.7063 127.761C41.273 130.395 38.4497 132.964 37.2727 134.31C36.3867 135.322 35.7585 136.091 35.5006 136.412V136.577C35.5006 136.577 35.4742 136.55 35.4345 136.491C35.3948 136.544 35.3684 136.577 35.3684 136.577V136.412C35.1105 136.091 34.4824 135.322 33.5963 134.31C32.4128 132.964 29.5894 130.395 27.1627 127.761C24.7294 125.126 24.5377 122.492 24.9939 120.311C25.4568 118.13 27.7512 116.074 31.368 116.52C32.5053 116.658 33.3319 117.204 33.9336 117.874C33.5302 114.786 31.8441 113.177 31.8441 113.177H38.853C37.5769 114.596 37.1206 116.606 36.9553 117.861C37.557 117.197 38.3835 116.665 39.5076 116.52C43.1179 116.074 45.4189 118.123 45.8818 120.311C46.3314 122.492 46.133 125.126 43.7063 127.761Z" fill="#151515"/>
<path d="M83.4257 23.0256C80.9924 20.3913 78.169 17.8227 76.9921 16.476C76.106 15.4643 75.4779 14.6957 75.22 14.3738V14.2095C75.22 14.2095 75.1935 14.2358 75.1539 14.2949C75.1142 14.2424 75.0878 14.2095 75.0878 14.2095V14.3738C74.8299 14.6957 74.2017 15.4643 73.3157 16.476C72.1321 17.8227 69.3087 20.3913 66.882 23.0256C64.4488 25.6599 64.257 28.2942 64.7133 30.4752C65.1761 32.6562 67.4706 34.7125 71.0874 34.2657C72.2247 34.1278 73.0512 33.5825 73.6529 32.9125C73.2496 36 71.5635 37.6095 71.5635 37.6095H78.5724C77.2962 36.1906 76.84 34.1803 76.6747 32.9256C77.2764 33.5891 78.1029 34.1212 79.227 34.2657C82.8372 34.7125 85.1382 32.6628 85.6011 30.4752C86.0573 28.2942 85.859 25.6599 83.4257 23.0256Z" fill="#151515"/>
<path d="M83.4257 73.3336C80.9924 70.6993 78.169 68.1307 76.9921 66.7839C76.106 65.7723 75.4779 65.0036 75.22 64.6818V64.5175C75.22 64.5175 75.1935 64.5438 75.1539 64.6029C75.1142 64.5504 75.0878 64.5175 75.0878 64.5175V64.6818C74.8299 65.0036 74.2017 65.7723 73.3157 66.7839C72.1321 68.1307 69.3087 70.6993 66.882 73.3336C64.4488 75.9679 64.257 78.6022 64.7133 80.7832C65.1761 82.9642 67.4706 85.0204 71.0874 84.5737C72.2247 84.4358 73.0512 83.8905 73.6529 83.2204C73.2496 86.308 71.5635 87.9175 71.5635 87.9175H78.5724C77.2962 86.4985 76.84 84.4883 76.6747 83.2336C77.2764 83.8971 78.1029 84.4292 79.227 84.5737C82.8372 85.0204 85.1382 82.9708 85.6011 80.7832C86.0639 78.5956 85.859 75.9679 83.4257 73.3336Z" fill="#151515"/>
<path d="M83.4257 127.761C80.9924 130.395 78.169 132.964 76.9921 134.31C76.106 135.322 75.4779 136.091 75.22 136.412V136.577C75.22 136.577 75.1935 136.55 75.1539 136.491C75.1142 136.544 75.0878 136.577 75.0878 136.577V136.412C74.8299 136.091 74.2017 135.322 73.3157 134.31C72.1321 132.964 69.3087 130.395 66.882 127.761C64.4488 125.126 64.257 122.492 64.7133 120.311C65.1761 118.13 67.4706 116.074 71.0874 116.52C72.2247 116.658 73.0512 117.204 73.6529 117.874C73.2496 114.786 71.5635 113.177 71.5635 113.177H78.5724C77.2962 114.596 76.84 116.606 76.6747 117.861C77.2764 117.197 78.1029 116.665 79.227 116.52C82.8372 116.074 85.1382 118.123 85.6011 120.311C86.0573 122.492 85.859 125.126 83.4257 127.761Z" fill="#151515"/>
<path d="M100.135 129.35C99.4271 130.119 98.6006 130.868 98.2567 131.262C97.9989 131.558 97.8137 131.781 97.741 131.873V131.919C97.741 131.919 97.7344 131.912 97.7211 131.893C97.7079 131.906 97.7013 131.919 97.7013 131.919V131.873C97.6286 131.781 97.4434 131.558 97.1856 131.262C96.8417 130.868 96.0152 130.119 95.3077 129.35C94.6002 128.582 94.5407 127.813 94.6729 127.176C94.8052 126.539 95.4796 125.941 96.531 126.072C96.8616 126.112 97.1062 126.269 97.2781 126.466C97.1591 125.566 96.6698 125.093 96.6698 125.093H98.713C98.3427 125.507 98.2105 126.092 98.1576 126.46C98.3361 126.263 98.5741 126.112 98.9048 126.072C99.9561 125.941 100.631 126.539 100.763 127.176C100.902 127.813 100.842 128.582 100.135 129.35Z" fill="#151515"/>
<path d="M13.9715 20.2008C13.264 19.4321 12.4375 18.6832 12.0936 18.2891C11.8358 17.9935 11.6507 17.7701 11.5779 17.6781V17.6321C11.5779 17.6321 11.5713 17.6387 11.5581 17.6584C11.5448 17.6453 11.5382 17.6321 11.5382 17.6321V17.6781C11.4655 17.7701 11.2804 17.9935 11.0225 18.2891C10.6786 18.6832 9.85215 19.4321 9.14464 20.2008C8.43714 20.9694 8.37762 21.738 8.50986 22.3752C8.6421 23.0124 9.31654 23.6102 10.3679 23.4789C10.6985 23.4394 10.9431 23.2818 11.1151 23.0847C10.996 23.9847 10.5067 24.4577 10.5067 24.4577H12.5499C12.1796 24.0438 12.0474 23.4591 11.9945 23.0913C12.173 23.2883 12.4111 23.4394 12.7417 23.4789C13.793 23.6102 14.4674 23.0124 14.5997 22.3752C14.7385 21.738 14.679 20.9694 13.9715 20.2008Z" fill="#151515"/>
</svg>
