<svg width="110" height="153" viewBox="0 0 110 153" fill="none" xmlns="http://www.w3.org/2000/svg">
<path d="M106.066 153H3.92763C1.75884 153 0 151.253 0 149.098V3.90219C0 1.74745 1.75884 0 3.92763 0H106.072C108.241 0 110 1.74745 110 3.90219V149.098C109.993 151.253 108.241 153 106.066 153Z" fill="white"/>
<path d="M98.5741 12.0613C98.5741 12.265 98.4088 12.4358 98.1972 12.4358C97.9922 12.4358 97.8203 12.2716 97.8203 12.0613C97.8203 11.8511 97.9856 11.6869 98.1972 11.6869C98.4022 11.6935 98.5741 11.8577 98.5741 12.0613Z" fill="white"/>
<path d="M80.6354 12.0613C80.6354 12.265 80.4701 12.4358 80.2585 12.4358C80.0469 12.4358 79.8816 12.2716 79.8816 12.0613C79.8816 11.8511 80.0469 11.6869 80.2585 11.6869C80.4701 11.6869 80.6354 11.8577 80.6354 12.0613Z" fill="white"/>
<path d="M64.1381 12.0613C64.1381 12.265 63.9728 12.4358 63.7612 12.4358C63.5562 12.4358 63.3843 12.2716 63.3843 12.0613C63.3843 11.8511 63.5496 11.6869 63.7612 11.6869C63.9662 11.6935 64.1381 11.8577 64.1381 12.0613Z" fill="white"/>
<path d="M47.568 12.1862C47.568 12.3898 47.4027 12.5606 47.1911 12.5606C46.9795 12.5606 46.8142 12.3964 46.8142 12.1862C46.8142 11.9825 46.9795 11.8117 47.1911 11.8117C47.4027 11.8117 47.568 11.9759 47.568 12.1862Z" fill="white"/>
<path d="M98.5741 25.9555C98.5741 26.1592 98.4088 26.33 98.1972 26.33C97.9922 26.33 97.8203 26.1657 97.8203 25.9555C97.8203 25.7519 97.9856 25.5811 98.1972 25.5811C98.4022 25.5811 98.5741 25.7453 98.5741 25.9555Z" fill="white"/>
<path d="M98.5741 38.6277C98.5741 38.8314 98.4088 39.0022 98.1972 39.0022C97.9922 39.0022 97.8203 38.838 97.8203 38.6277C97.8203 38.4175 97.9856 38.2533 98.1972 38.2533C98.4022 38.2533 98.5741 38.4241 98.5741 38.6277Z" fill="white"/>
<path d="M98.5741 51.911C98.5741 52.1146 98.4088 52.2854 98.1972 52.2854C97.9922 52.2854 97.8203 52.1212 97.8203 51.911C97.8203 51.7007 97.9856 51.5365 98.1972 51.5365C98.4022 51.5365 98.5741 51.7007 98.5741 51.911Z" fill="white"/>
<path d="M98.5741 60.3066C98.5741 60.5102 98.4088 60.681 98.1972 60.681C97.9922 60.681 97.8203 60.5168 97.8203 60.3066C97.8203 60.1029 97.9856 59.9321 98.1972 59.9321C98.4022 59.9321 98.5741 60.1029 98.5741 60.3066Z" fill="white"/>
<path d="M98.5741 68.735C98.5741 68.9387 98.4088 69.1095 98.1972 69.1095C97.9922 69.1095 97.8203 68.9453 97.8203 68.735C97.8203 68.5248 97.9856 68.3606 98.1972 68.3606C98.4022 68.3606 98.5741 68.5248 98.5741 68.735Z" fill="white"/>
<path d="M12.4176 12.4357C12.4176 12.6394 12.2523 12.8102 12.0407 12.8102C11.8291 12.8102 11.6638 12.646 11.6638 12.4357C11.6638 12.2255 11.8291 12.0613 12.0407 12.0613C12.2523 12.0613 12.4176 12.2321 12.4176 12.4357Z" fill="white"/>
<path d="M30.5615 12.1862C30.5615 12.3898 30.3962 12.5606 30.1846 12.5606C29.9796 12.5606 29.8077 12.3964 29.8077 12.1862C29.8077 11.9825 29.973 11.8117 30.1846 11.8117C30.3962 11.8117 30.5615 11.9759 30.5615 12.1862Z" fill="white"/>
<path d="M12.4176 25.6599C12.4176 25.8635 12.2523 26.0343 12.0407 26.0343C11.8291 26.0343 11.6638 25.8701 11.6638 25.6599C11.6638 25.4562 11.8291 25.2854 12.0407 25.2854C12.2523 25.2854 12.4176 25.4496 12.4176 25.6599Z" fill="white"/>
<path d="M12.4176 38.7131C12.4176 38.9168 12.2523 39.0876 12.0407 39.0876C11.8291 39.0876 11.6638 38.9234 11.6638 38.7131C11.6638 38.5095 11.8291 38.3387 12.0407 38.3387C12.2523 38.3387 12.4176 38.5095 12.4176 38.7131Z" fill="white"/>
<path d="M12.4176 51.819C12.4176 52.0226 12.2523 52.1934 12.0407 52.1934C11.8291 52.1934 11.6638 52.0292 11.6638 51.819C11.6638 51.6088 11.8291 51.4445 12.0407 51.4445C12.2523 51.4445 12.4176 51.6088 12.4176 51.819Z" fill="white"/>
<path d="M12.4176 60.3066C12.4176 60.5102 12.2523 60.681 12.0407 60.681C11.8291 60.681 11.6638 60.5168 11.6638 60.3066C11.6638 60.1029 11.8291 59.9321 12.0407 59.9321C12.2523 59.9321 12.4176 60.1029 12.4176 60.3066Z" fill="white"/>
<path d="M12.4176 69.1095C12.4176 69.3131 12.2523 69.484 12.0407 69.484C11.8291 69.484 11.6638 69.3197 11.6638 69.1095C11.6638 68.9058 11.8291 68.735 12.0407 68.735C12.2523 68.735 12.4176 68.8993 12.4176 69.1095Z" fill="white"/>
<path d="M12.4176 77.6036C12.4176 77.8073 12.2523 77.9781 12.0407 77.9781C11.8291 77.9781 11.6638 77.8139 11.6638 77.6036C11.6638 77.4 11.8291 77.2292 12.0407 77.2292C12.2523 77.2292 12.4176 77.4 12.4176 77.6036Z" fill="white"/>
<path d="M12.4176 86.0913C12.4176 86.2949 12.2523 86.4657 12.0407 86.4657C11.8291 86.4657 11.6638 86.3015 11.6638 86.0913C11.6638 85.8876 11.8291 85.7168 12.0407 85.7168C12.2523 85.7168 12.4176 85.8876 12.4176 86.0913Z" fill="white"/>
<path d="M12.4176 94.8942C12.4176 95.0978 12.2523 95.2686 12.0407 95.2686C11.8291 95.2686 11.6638 95.1044 11.6638 94.8942C11.6638 94.6905 11.8291 94.5197 12.0407 94.5197C12.2523 94.5197 12.4176 94.6905 12.4176 94.8942Z" fill="white"/>
<path d="M12.4176 103.717C12.4176 103.92 12.2523 104.091 12.0407 104.091C11.8291 104.091 11.6638 103.927 11.6638 103.717C11.6638 103.513 11.8291 103.342 12.0407 103.342C12.2523 103.342 12.4176 103.513 12.4176 103.717Z" fill="white"/>
<path d="M12.4176 111.6C12.4176 111.804 12.2523 111.974 12.0407 111.974C11.8291 111.974 11.6638 111.81 11.6638 111.6C11.6638 111.396 11.8291 111.226 12.0407 111.226C12.2523 111.226 12.4176 111.396 12.4176 111.6Z" fill="white"/>
<path d="M12.4176 120.403C12.4176 120.607 12.2523 120.777 12.0407 120.777C11.8291 120.777 11.6638 120.613 11.6638 120.403C11.6638 120.199 11.8291 120.029 12.0407 120.029C12.2523 120.029 12.4176 120.193 12.4176 120.403Z" fill="white"/>
<path d="M12.4176 128.976C12.4176 129.18 12.2523 129.35 12.0407 129.35C11.8291 129.35 11.6638 129.186 11.6638 128.976C11.6638 128.766 11.8291 128.601 12.0407 128.601C12.2523 128.601 12.4176 128.766 12.4176 128.976Z" fill="white"/>
<path d="M12.5697 141.576C12.5697 141.78 12.4044 141.95 12.1928 141.95C11.9878 141.95 11.8159 141.786 11.8159 141.576C11.8159 141.372 11.9812 141.201 12.1928 141.201C12.4044 141.201 12.5697 141.372 12.5697 141.576Z" fill="white"/>
<path d="M26.1444 141.95C26.1444 142.154 25.9791 142.325 25.7675 142.325C25.5559 142.325 25.3906 142.161 25.3906 141.95C25.3906 141.747 25.5559 141.576 25.7675 141.576C25.9791 141.576 26.1444 141.747 26.1444 141.95Z" fill="white"/>
<path d="M43.6337 141.95C43.6337 142.154 43.4684 142.325 43.2568 142.325C43.0452 142.325 42.8799 142.161 42.8799 141.95C42.8799 141.747 43.0452 141.576 43.2568 141.576C43.4684 141.576 43.6337 141.747 43.6337 141.95Z" fill="white"/>
<path d="M61.0964 141.95C61.0964 142.154 60.9311 142.325 60.7195 142.325C60.5146 142.325 60.3427 142.161 60.3427 141.95C60.3427 141.747 60.508 141.576 60.7195 141.576C60.9245 141.576 61.0964 141.747 61.0964 141.95Z" fill="white"/>
<path d="M78.1029 141.95C78.1029 142.154 77.9376 142.325 77.726 142.325C77.521 142.325 77.3491 142.161 77.3491 141.95C77.3491 141.747 77.5144 141.576 77.726 141.576C77.931 141.576 78.1029 141.747 78.1029 141.95Z" fill="white"/>
<path d="M98.5741 77.3934C98.5741 77.5971 98.4088 77.7679 98.1972 77.7679C97.9922 77.7679 97.8203 77.6037 97.8203 77.3934C97.8203 77.1832 97.9856 77.019 98.1972 77.019C98.4022 77.019 98.5741 77.1898 98.5741 77.3934Z" fill="white"/>
<path d="M98.5741 85.4935C98.5741 85.6971 98.4088 85.8679 98.1972 85.8679C97.9922 85.8679 97.8203 85.7037 97.8203 85.4935C97.8203 85.2898 97.9856 85.119 98.1972 85.119C98.4022 85.119 98.5741 85.2898 98.5741 85.4935Z" fill="white"/>
<path d="M98.5741 94.2241C98.5741 94.4277 98.4088 94.5985 98.1972 94.5985C97.9922 94.5985 97.8203 94.4343 97.8203 94.2241C97.8203 94.0204 97.9856 93.8496 98.1972 93.8496C98.4022 93.8562 98.5741 94.0204 98.5741 94.2241Z" fill="white"/>
<path d="M98.5741 102.836C98.5741 103.04 98.4088 103.211 98.1972 103.211C97.9922 103.211 97.8203 103.047 97.8203 102.836C97.8203 102.633 97.9856 102.462 98.1972 102.462C98.4022 102.462 98.5741 102.626 98.5741 102.836Z" fill="white"/>
<path d="M98.5741 111.212C98.5741 111.416 98.4088 111.587 98.1972 111.587C97.9922 111.587 97.8203 111.423 97.8203 111.212C97.8203 111.009 97.9856 110.838 98.1972 110.838C98.4022 110.838 98.5741 111.009 98.5741 111.212Z" fill="white"/>
<path d="M98.5741 119.477C98.5741 119.68 98.4088 119.851 98.1972 119.851C97.9922 119.851 97.8203 119.687 97.8203 119.477C97.8203 119.273 97.9856 119.102 98.1972 119.102C98.4022 119.102 98.5741 119.266 98.5741 119.477Z" fill="white"/>
<path d="M98.5741 127.912C98.5741 128.115 98.4088 128.286 98.1972 128.286C97.9922 128.286 97.8203 128.122 97.8203 127.912C97.8203 127.708 97.9856 127.537 98.1972 127.537C98.4022 127.537 98.5741 127.701 98.5741 127.912Z" fill="white"/>
<path d="M98.5741 140.768C98.5741 140.972 98.4088 141.142 98.1972 141.142C97.9922 141.142 97.8203 140.978 97.8203 140.768C97.8203 140.564 97.9856 140.393 98.1972 140.393C98.4022 140.393 98.5741 140.558 98.5741 140.768Z" fill="white"/>
<path d="M10.4406 14.8664C10.2554 14.6431 10.1629 14.3474 10.1629 13.973C10.1629 13.4606 10.2885 12.9416 10.5398 12.3963C10.791 11.8577 11.115 11.3058 11.5117 10.7474L12.5366 9.28248C12.7217 9.01971 12.8804 8.73722 13.0061 8.43503C13.1317 8.13284 13.1912 7.87007 13.1912 7.65328C13.1912 7.52846 13.1582 7.43649 13.092 7.39051C13.0259 7.34452 12.9267 7.31825 12.7879 7.31825H10.1298C9.78597 7.31825 9.54791 7.39051 9.40244 7.5416C9.26358 7.6927 9.1644 7.90292 9.1115 8.17226L8.97267 8.92117H8.68835L8.86686 6.26715H13.7929C13.7929 6.7073 13.7268 7.21314 13.5946 7.78467C13.4623 8.3562 13.2375 8.87518 12.9201 9.3416L12.1862 10.4387C11.8357 10.9511 11.6572 11.5029 11.6572 12.0942C11.6572 12.462 11.6837 12.7774 11.7366 13.0533L11.8159 13.5C11.882 13.8416 11.9217 14.1372 11.9217 14.3934C11.9217 14.9255 11.6704 15.1949 11.1679 15.1949C10.8704 15.2015 10.6257 15.0898 10.4406 14.8664Z" fill="black"/>
<path d="M99.5329 134.842C99.7181 135.066 99.8107 135.361 99.8107 135.736C99.8107 136.248 99.685 136.767 99.4338 137.312C99.1825 137.851 98.8585 138.403 98.4617 138.961L97.4369 140.426C97.2517 140.689 97.093 140.972 96.9674 141.274C96.8418 141.576 96.7823 141.839 96.7823 142.055C96.7823 142.18 96.8153 142.272 96.8815 142.318C96.9476 142.364 97.0467 142.391 97.1856 142.391H99.8437C100.188 142.391 100.426 142.318 100.571 142.167C100.71 142.016 100.809 141.806 100.862 141.537L101.001 140.788H101.285L101.107 143.442H96.1805C96.1805 143.001 96.2467 142.496 96.3789 141.924C96.5112 141.353 96.736 140.834 97.0534 140.367L97.7873 139.27C98.1378 138.758 98.3163 138.206 98.3163 137.615C98.3163 137.247 98.2899 136.931 98.237 136.655L98.1576 136.209C98.0915 135.867 98.0518 135.572 98.0518 135.315C98.0518 134.777 98.3031 134.514 98.8056 134.514C99.1031 134.507 99.3478 134.619 99.5329 134.842Z" fill="black"/>
<path d="M63.5694 48.0285C61.1361 45.3942 58.3127 42.8255 57.1357 41.4788C56.2497 40.4671 55.6216 39.6985 55.3637 39.3766V39.2124C55.3637 39.2124 55.3372 39.2387 55.2976 39.2978C55.2579 39.2452 55.2314 39.2124 55.2314 39.2124V39.3766C54.9736 39.6985 54.3454 40.4671 53.4594 41.4788C52.2758 42.8255 49.4524 45.3942 47.0257 48.0285C44.5925 50.6628 44.4007 53.2971 44.8569 55.4781C45.3198 57.6591 47.6142 59.7153 51.2311 59.2686C52.3684 59.1307 53.1949 58.5854 53.7966 57.9153C53.3933 61.0029 51.7072 62.6124 51.7072 62.6124H58.7161C57.4399 61.1934 56.9837 59.1832 56.8184 57.9285C57.4201 58.592 58.2466 59.1241 59.3707 59.2686C62.9809 59.7153 65.2819 57.6657 65.7448 55.4781C66.1944 53.2905 65.9961 50.6628 63.5694 48.0285Z" fill="#151515"/>
<path d="M44.0105 23.0255C41.5773 20.3912 38.7539 17.8226 37.5769 16.4759C36.6909 15.4642 36.0627 14.6956 35.8048 14.3737V14.2095C35.8048 14.2095 35.7784 14.2358 35.7387 14.2949C35.699 14.2423 35.6726 14.2095 35.6726 14.2095V14.3737C35.4147 14.6956 34.7866 15.4642 33.9005 16.4759C32.717 17.8226 29.8935 20.3912 27.4669 23.0255C25.0336 25.6598 24.8419 28.2941 25.2981 30.4752C25.761 32.6562 28.0553 34.7124 31.6722 34.2657C32.8095 34.1277 33.636 33.5825 34.2377 32.9124C33.8344 36 32.1483 37.6095 32.1483 37.6095H39.1572C37.881 36.1905 37.4248 34.1803 37.2595 32.9255C37.8612 33.589 38.6877 34.1212 39.8118 34.2657C43.422 34.7124 45.7231 32.6628 46.1859 30.4752C46.6422 28.2941 46.4438 25.6598 44.0105 23.0255Z" fill="#151515"/>
<path d="M44.0105 73.3336C41.5773 70.6993 38.7539 68.1307 37.5769 66.7839C36.6909 65.7723 36.0627 65.0036 35.8048 64.6818V64.5175C35.8048 64.5175 35.7784 64.5438 35.7387 64.6029C35.699 64.5504 35.6726 64.5175 35.6726 64.5175V64.6818C35.4147 65.0036 34.7866 65.7723 33.9005 66.7839C32.717 68.1307 29.8935 70.6993 27.4669 73.3336C25.0336 75.9679 24.8419 78.6022 25.2981 80.7832C25.761 82.9642 28.0553 85.0204 31.6722 84.5737C32.8095 84.4358 33.636 83.8905 34.2377 83.2204C33.8344 86.308 32.1483 87.9175 32.1483 87.9175H39.1572C37.881 86.4985 37.4248 84.4883 37.2595 83.2336C37.8612 83.8971 38.6877 84.4292 39.8118 84.5737C43.422 85.0204 45.7231 82.9708 46.1859 80.7832C46.6422 78.6022 46.4438 75.9679 44.0105 73.3336Z" fill="#151515"/>
<path d="M44.0105 127.761C41.5773 130.395 38.7539 132.963 37.5769 134.31C36.6909 135.322 36.0627 136.091 35.8048 136.412V136.577C35.8048 136.577 35.7784 136.55 35.7387 136.491C35.699 136.544 35.6726 136.577 35.6726 136.577V136.412C35.4147 136.091 34.7866 135.322 33.9005 134.31C32.717 132.963 29.8935 130.395 27.4669 127.761C25.0336 125.126 24.8419 122.492 25.2981 120.311C25.761 118.13 28.0553 116.074 31.6722 116.52C32.8095 116.658 33.636 117.204 34.2377 117.874C33.8344 114.786 32.1483 113.177 32.1483 113.177H39.1572C37.881 114.596 37.4248 116.606 37.2595 117.861C37.8612 117.197 38.6877 116.665 39.8118 116.52C43.422 116.074 45.7231 118.123 46.1859 120.311C46.6422 122.492 46.4438 125.126 44.0105 127.761Z" fill="#151515"/>
<path d="M83.7365 23.0255C81.3032 20.3912 78.4798 17.8226 77.3029 16.4759C76.4168 15.4642 75.7887 14.6956 75.5308 14.3737V14.2095C75.5308 14.2095 75.5044 14.2358 75.4647 14.2949C75.425 14.2423 75.3985 14.2095 75.3985 14.2095V14.3737C75.1407 14.6956 74.5125 15.4642 73.6265 16.4759C72.4429 17.8226 69.6195 20.3912 67.1929 23.0255C64.7596 25.6598 64.5678 28.2941 65.0241 30.4752C65.4869 32.6562 67.7813 34.7124 71.3982 34.2657C72.5355 34.1277 73.362 33.5825 73.9637 32.9124C73.5604 36 71.8743 37.6095 71.8743 37.6095H78.8832C77.607 36.1905 77.1508 34.1803 76.9855 32.9255C77.5872 33.589 78.4137 34.1212 79.5378 34.2657C83.148 34.7124 85.4491 32.6628 85.9119 30.4752C86.3615 28.2941 86.1632 25.6598 83.7365 23.0255Z" fill="#151515"/>
<path d="M83.7365 73.3336C81.3032 70.6993 78.4798 68.1307 77.3029 66.7839C76.4168 65.7723 75.7887 65.0036 75.5308 64.6818V64.5175C75.5308 64.5175 75.5044 64.5438 75.4647 64.6029C75.425 64.5504 75.3985 64.5175 75.3985 64.5175V64.6818C75.1407 65.0036 74.5125 65.7723 73.6265 66.7839C72.4429 68.1307 69.6195 70.6993 67.1929 73.3336C64.7596 75.9679 64.5678 78.6022 65.0241 80.7832C65.4803 82.9642 67.7813 85.0204 71.3982 84.5737C72.5355 84.4358 73.362 83.8905 73.9637 83.2204C73.5604 86.308 71.8743 87.9175 71.8743 87.9175H78.8832C77.607 86.4985 77.1508 84.4883 76.9855 83.2336C77.5872 83.8971 78.4137 84.4292 79.5378 84.5737C83.148 85.0204 85.4491 82.9708 85.9119 80.7832C86.3615 78.6022 86.1632 75.9679 83.7365 73.3336Z" fill="#151515"/>
<path d="M83.7365 127.761C81.3032 130.395 78.4798 132.963 77.3029 134.31C76.4168 135.322 75.7887 136.091 75.5308 136.412V136.577C75.5308 136.577 75.5044 136.55 75.4647 136.491C75.425 136.544 75.3985 136.577 75.3985 136.577V136.412C75.1407 136.091 74.5125 135.322 73.6265 134.31C72.4429 132.963 69.6195 130.395 67.1929 127.761C64.7596 125.126 64.5678 122.492 65.0241 120.311C65.4869 118.13 67.7813 116.074 71.3982 116.52C72.5355 116.658 73.362 117.204 73.9637 117.874C73.5604 114.786 71.8743 113.177 71.8743 113.177H78.8832C77.607 114.596 77.1508 116.606 76.9855 117.861C77.5872 117.197 78.4137 116.665 79.5378 116.52C83.148 116.074 85.4491 118.123 85.9119 120.311C86.3615 122.492 86.1632 125.126 83.7365 127.761Z" fill="#151515"/>
<path d="M100.505 129.35C99.7975 130.119 98.9709 130.868 98.6271 131.262C98.3692 131.558 98.1841 131.781 98.1114 131.873V131.919C98.1114 131.919 98.1047 131.912 98.0915 131.893C98.0783 131.906 98.0717 131.919 98.0717 131.919V131.873C97.999 131.781 97.8138 131.558 97.5559 131.262C97.2121 130.868 96.3856 130.119 95.6781 129.35C94.9706 128.582 94.9111 127.813 95.0433 127.176C95.1756 126.539 95.85 125.941 96.9013 126.072C97.2319 126.112 97.4766 126.269 97.6485 126.466C97.5295 125.566 97.0402 125.093 97.0402 125.093H99.0833C98.7131 125.507 98.5808 126.092 98.5279 126.46C98.7065 126.263 98.9445 126.112 99.2751 126.072C100.326 125.941 101.001 126.539 101.133 127.176C101.265 127.813 101.212 128.582 100.505 129.35Z" fill="#151515"/>
<path d="M14.3352 20.2008C13.6277 19.4321 12.8011 18.6832 12.4573 18.2891C12.1994 17.9935 12.0143 17.7701 11.9416 17.6781V17.6321C11.9416 17.6321 11.9349 17.6387 11.9217 17.6584C11.9085 17.6453 11.9019 17.6321 11.9019 17.6321V17.6781C11.8292 17.7701 11.644 17.9935 11.3861 18.2891C11.0423 18.6832 10.2158 19.4321 9.50829 20.2008C8.80079 20.9694 8.74127 21.738 8.87351 22.3752C9.00575 23.0124 9.68019 23.6102 10.7315 23.4789C11.0621 23.4394 11.3068 23.2818 11.4787 23.0847C11.3597 23.9847 10.8704 24.4577 10.8704 24.4577H12.9135C12.5433 24.0438 12.411 23.4591 12.3581 23.0913C12.5367 23.2883 12.7747 23.4394 13.1053 23.4789C14.1566 23.6102 14.8311 23.0124 14.9633 22.3752C15.1022 21.738 15.0427 20.9694 14.3352 20.2008Z" fill="#151515"/>
</svg>
