<svg width="110" height="153" viewBox="0 0 110 153" fill="none" xmlns="http://www.w3.org/2000/svg">
<path d="M106.072 153H3.92763C1.75884 153 0 151.253 0 149.098V3.90219C0 1.74745 1.75884 0 3.92763 0H106.072C108.241 0 110 1.74745 110 3.90219V149.098C110 151.253 108.241 153 106.072 153Z" fill="white"/>
<path d="M98.5741 12.0613C98.5741 12.265 98.4088 12.4358 98.1973 12.4358C97.9923 12.4358 97.8203 12.2716 97.8203 12.0613C97.8203 11.8511 97.9857 11.6869 98.1973 11.6869C98.4022 11.6935 98.5741 11.8577 98.5741 12.0613Z" fill="white"/>
<path d="M80.6354 12.0613C80.6354 12.265 80.4701 12.4358 80.2585 12.4358C80.0536 12.4358 79.8816 12.2716 79.8816 12.0613C79.8816 11.8511 80.0469 11.6869 80.2585 11.6869C80.4701 11.6935 80.6354 11.8577 80.6354 12.0613Z" fill="white"/>
<path d="M64.1381 12.0613C64.1381 12.265 63.9727 12.4358 63.7611 12.4358C63.5495 12.4358 63.3843 12.2716 63.3843 12.0613C63.3843 11.8511 63.5495 11.6869 63.7611 11.6869C63.9727 11.6869 64.1381 11.8577 64.1381 12.0613Z" fill="white"/>
<path d="M47.5746 12.1862C47.5746 12.3898 47.4093 12.5606 47.1977 12.5606C46.9861 12.5606 46.8208 12.3964 46.8208 12.1862C46.8208 11.9825 46.9861 11.8117 47.1977 11.8117C47.4093 11.8117 47.5746 11.9759 47.5746 12.1862Z" fill="white"/>
<path d="M98.5741 25.9555C98.5741 26.1592 98.4088 26.33 98.1973 26.33C97.9923 26.33 97.8203 26.1657 97.8203 25.9555C97.8203 25.7519 97.9857 25.5811 98.1973 25.5811C98.4022 25.5811 98.5741 25.7453 98.5741 25.9555Z" fill="white"/>
<path d="M98.5741 38.6277C98.5741 38.8314 98.4088 39.0022 98.1973 39.0022C97.9923 39.0022 97.8203 38.838 97.8203 38.6277C97.8203 38.4175 97.9857 38.2533 98.1973 38.2533C98.4022 38.2533 98.5741 38.4241 98.5741 38.6277Z" fill="white"/>
<path d="M98.5741 51.911C98.5741 52.1146 98.4088 52.2854 98.1973 52.2854C97.9923 52.2854 97.8203 52.1212 97.8203 51.911C97.8203 51.7007 97.9857 51.5365 98.1973 51.5365C98.4022 51.5365 98.5741 51.7007 98.5741 51.911Z" fill="white"/>
<path d="M98.5741 60.3066C98.5741 60.5102 98.4088 60.681 98.1973 60.681C97.9923 60.681 97.8203 60.5168 97.8203 60.3066C97.8203 60.1029 97.9857 59.9321 98.1973 59.9321C98.4022 59.9321 98.5741 60.1029 98.5741 60.3066Z" fill="white"/>
<path d="M98.5741 68.735C98.5741 68.9387 98.4088 69.1095 98.1973 69.1095C97.9923 69.1095 97.8203 68.9453 97.8203 68.735C97.8203 68.5248 97.9857 68.3606 98.1973 68.3606C98.4022 68.3606 98.5741 68.5248 98.5741 68.735Z" fill="white"/>
<path d="M12.4242 12.4357C12.4242 12.6394 12.2589 12.8102 12.0473 12.8102C11.8357 12.8102 11.6704 12.646 11.6704 12.4357C11.6704 12.2255 11.8357 12.0613 12.0473 12.0613C12.2589 12.0613 12.4242 12.2321 12.4242 12.4357Z" fill="white"/>
<path d="M30.5614 12.1862C30.5614 12.3898 30.3961 12.5606 30.1845 12.5606C29.9795 12.5606 29.8076 12.3964 29.8076 12.1862C29.8076 11.9825 29.9729 11.8117 30.1845 11.8117C30.3961 11.8117 30.5614 11.9759 30.5614 12.1862Z" fill="white"/>
<path d="M12.4242 25.6599C12.4242 25.8635 12.2589 26.0343 12.0473 26.0343C11.8357 26.0343 11.6704 25.8701 11.6704 25.6599C11.6704 25.4562 11.8357 25.2854 12.0473 25.2854C12.2589 25.2854 12.4242 25.4496 12.4242 25.6599Z" fill="white"/>
<path d="M12.4242 38.7131C12.4242 38.9168 12.2589 39.0876 12.0473 39.0876C11.8357 39.0876 11.6704 38.9234 11.6704 38.7131C11.6704 38.5095 11.8357 38.3387 12.0473 38.3387C12.2589 38.3387 12.4242 38.5095 12.4242 38.7131Z" fill="white"/>
<path d="M12.4242 51.819C12.4242 52.0226 12.2589 52.1934 12.0473 52.1934C11.8357 52.1934 11.6704 52.0292 11.6704 51.819C11.6704 51.6088 11.8357 51.4445 12.0473 51.4445C12.2589 51.4445 12.4242 51.6088 12.4242 51.819Z" fill="white"/>
<path d="M12.4242 60.3066C12.4242 60.5102 12.2589 60.681 12.0473 60.681C11.8357 60.681 11.6704 60.5168 11.6704 60.3066C11.6704 60.1029 11.8357 59.9321 12.0473 59.9321C12.2589 59.9321 12.4242 60.1029 12.4242 60.3066Z" fill="white"/>
<path d="M12.4242 69.1095C12.4242 69.3131 12.2589 69.484 12.0473 69.484C11.8357 69.484 11.6704 69.3197 11.6704 69.1095C11.6704 68.9058 11.8357 68.735 12.0473 68.735C12.2589 68.735 12.4242 68.8993 12.4242 69.1095Z" fill="white"/>
<path d="M12.4242 77.6036C12.4242 77.8073 12.2589 77.9781 12.0473 77.9781C11.8357 77.9781 11.6704 77.8139 11.6704 77.6036C11.6704 77.4 11.8357 77.2292 12.0473 77.2292C12.2589 77.2292 12.4242 77.4 12.4242 77.6036Z" fill="white"/>
<path d="M12.4242 86.0913C12.4242 86.2949 12.2589 86.4657 12.0473 86.4657C11.8357 86.4657 11.6704 86.3015 11.6704 86.0913C11.6704 85.8876 11.8357 85.7168 12.0473 85.7168C12.2589 85.7168 12.4242 85.8876 12.4242 86.0913Z" fill="white"/>
<path d="M12.4242 94.8942C12.4242 95.0978 12.2589 95.2686 12.0473 95.2686C11.8357 95.2686 11.6704 95.1044 11.6704 94.8942C11.6704 94.6905 11.8357 94.5197 12.0473 94.5197C12.2589 94.5197 12.4242 94.6905 12.4242 94.8942Z" fill="white"/>
<path d="M12.4242 103.717C12.4242 103.92 12.2589 104.091 12.0473 104.091C11.8357 104.091 11.6704 103.927 11.6704 103.717C11.6704 103.513 11.8357 103.342 12.0473 103.342C12.2589 103.342 12.4242 103.513 12.4242 103.717Z" fill="white"/>
<path d="M12.4242 111.6C12.4242 111.804 12.2589 111.974 12.0473 111.974C11.8357 111.974 11.6704 111.81 11.6704 111.6C11.6704 111.396 11.8357 111.226 12.0473 111.226C12.2589 111.226 12.4242 111.396 12.4242 111.6Z" fill="white"/>
<path d="M12.4242 120.403C12.4242 120.607 12.2589 120.777 12.0473 120.777C11.8357 120.777 11.6704 120.613 11.6704 120.403C11.6704 120.199 11.8357 120.029 12.0473 120.029C12.2589 120.029 12.4242 120.193 12.4242 120.403Z" fill="white"/>
<path d="M12.4242 128.976C12.4242 129.18 12.2589 129.35 12.0473 129.35C11.8357 129.35 11.6704 129.186 11.6704 128.976C11.6704 128.766 11.8357 128.601 12.0473 128.601C12.2589 128.601 12.4242 128.766 12.4242 128.976Z" fill="white"/>
<path d="M12.5763 141.576C12.5763 141.78 12.411 141.95 12.1994 141.95C11.9944 141.95 11.8225 141.786 11.8225 141.576C11.8225 141.372 11.9878 141.201 12.1994 141.201C12.4044 141.201 12.5763 141.372 12.5763 141.576Z" fill="white"/>
<path d="M26.1444 141.95C26.1444 142.154 25.9791 142.325 25.7675 142.325C25.5559 142.325 25.3906 142.161 25.3906 141.95C25.3906 141.747 25.5559 141.576 25.7675 141.576C25.9791 141.576 26.1444 141.747 26.1444 141.95Z" fill="white"/>
<path d="M43.6337 141.95C43.6337 142.154 43.4684 142.325 43.2568 142.325C43.0518 142.325 42.8799 142.161 42.8799 141.95C42.8799 141.747 43.0452 141.576 43.2568 141.576C43.4684 141.576 43.6337 141.747 43.6337 141.95Z" fill="white"/>
<path d="M61.0964 141.95C61.0964 142.154 60.9311 142.325 60.7195 142.325C60.5145 142.325 60.3427 142.161 60.3427 141.95C60.3427 141.747 60.5079 141.576 60.7195 141.576C60.9245 141.576 61.0964 141.747 61.0964 141.95Z" fill="white"/>
<path d="M78.1029 141.95C78.1029 142.154 77.9376 142.325 77.7261 142.325C77.5211 142.325 77.3491 142.161 77.3491 141.95C77.3491 141.747 77.5145 141.576 77.7261 141.576C77.931 141.576 78.1029 141.747 78.1029 141.95Z" fill="white"/>
<path d="M98.5741 77.3934C98.5741 77.5971 98.4088 77.7679 98.1973 77.7679C97.9923 77.7679 97.8203 77.6037 97.8203 77.3934C97.8203 77.1832 97.9857 77.019 98.1973 77.019C98.4022 77.019 98.5741 77.1898 98.5741 77.3934Z" fill="white"/>
<path d="M98.5741 85.4935C98.5741 85.6971 98.4088 85.8679 98.1973 85.8679C97.9923 85.8679 97.8203 85.7037 97.8203 85.4935C97.8203 85.2898 97.9857 85.119 98.1973 85.119C98.4022 85.119 98.5741 85.2898 98.5741 85.4935Z" fill="white"/>
<path d="M98.5741 94.2241C98.5741 94.4277 98.4088 94.5985 98.1973 94.5985C97.9923 94.5985 97.8203 94.4343 97.8203 94.2241C97.8203 94.0204 97.9857 93.8496 98.1973 93.8496C98.4022 93.8562 98.5741 94.0204 98.5741 94.2241Z" fill="white"/>
<path d="M98.5741 102.836C98.5741 103.04 98.4088 103.211 98.1973 103.211C97.9923 103.211 97.8203 103.047 97.8203 102.836C97.8203 102.633 97.9857 102.462 98.1973 102.462C98.4022 102.462 98.5741 102.626 98.5741 102.836Z" fill="white"/>
<path d="M98.5741 111.212C98.5741 111.416 98.4088 111.587 98.1973 111.587C97.9923 111.587 97.8203 111.423 97.8203 111.212C97.8203 111.009 97.9857 110.838 98.1973 110.838C98.4022 110.838 98.5741 111.009 98.5741 111.212Z" fill="white"/>
<path d="M98.5741 119.477C98.5741 119.68 98.4088 119.851 98.1973 119.851C97.9923 119.851 97.8203 119.687 97.8203 119.477C97.8203 119.273 97.9857 119.102 98.1973 119.102C98.4022 119.102 98.5741 119.266 98.5741 119.477Z" fill="white"/>
<path d="M98.5741 127.912C98.5741 128.115 98.4088 128.286 98.1973 128.286C97.9923 128.286 97.8203 128.122 97.8203 127.912C97.8203 127.708 97.9857 127.537 98.1973 127.537C98.4022 127.537 98.5741 127.701 98.5741 127.912Z" fill="white"/>
<path d="M98.5741 140.768C98.5741 140.972 98.4088 141.142 98.1973 141.142C97.9923 141.142 97.8203 140.978 97.8203 140.768C97.8203 140.564 97.9857 140.393 98.1973 140.393C98.4022 140.393 98.5741 140.558 98.5741 140.768Z" fill="white"/>
<path d="M10.1034 14.9058C9.67359 14.7088 9.32314 14.4328 9.06527 14.065C8.80739 13.6971 8.67517 13.2701 8.67517 12.7774C8.67517 12.1533 8.85369 11.6737 9.20414 11.3255C9.55458 10.9774 9.92486 10.7474 10.3216 10.6358V10.5832L10.1827 10.5175C9.72648 10.3336 9.38269 10.0577 9.14465 9.68978C8.90661 9.32189 8.78757 8.90146 8.78757 8.41532C8.78757 7.97518 8.92642 7.57445 9.19752 7.21313C9.46862 6.85182 9.8257 6.56934 10.2621 6.37226C10.6985 6.17518 11.1547 6.07007 11.6242 6.07007C12.2061 6.07007 12.702 6.17518 13.1053 6.3854C13.5087 6.59562 13.8194 6.86496 14.0244 7.2C14.2294 7.53503 14.3352 7.88978 14.3352 8.26423C14.3352 8.72408 14.1897 9.11824 13.8922 9.45328C13.5946 9.78832 13.2508 10.0445 12.8607 10.2219V10.2744L13.1582 10.3861C14.1699 10.7934 14.6724 11.4372 14.6724 12.3109C14.6724 12.8365 14.5534 13.3226 14.3087 13.7562C14.0641 14.1963 13.707 14.5445 13.231 14.8007C12.7549 15.0635 12.1862 15.1883 11.5316 15.1883C11.0027 15.2015 10.5332 15.1029 10.1034 14.9058ZM12.8012 14.4985C13.0987 14.3015 13.3169 14.065 13.4491 13.789C13.5814 13.5131 13.6475 13.2504 13.6475 13.0073C13.6475 12.5343 13.5417 12.1796 13.3301 11.9496C13.1185 11.7197 12.8144 11.5226 12.4111 11.365L10.6786 10.7409C10.3282 10.8854 10.0571 11.1153 9.85873 11.4307C9.66037 11.746 9.56118 12.2058 9.56118 12.8102C9.56118 13.4934 9.76616 13.9927 10.1827 14.3146C10.5993 14.6365 11.082 14.8007 11.6374 14.8007C12.1135 14.7942 12.5036 14.6956 12.8012 14.4985ZM13.264 9.38759C13.4161 9.09197 13.4954 8.74379 13.4954 8.34306C13.4954 7.99489 13.4095 7.67956 13.2376 7.39051C13.0657 7.10802 12.8342 6.88467 12.5499 6.72043C12.2656 6.5562 11.9482 6.47737 11.6044 6.47737C11.0754 6.47737 10.6258 6.62846 10.2621 6.92408C9.89844 7.2197 9.7199 7.62043 9.7199 8.11313C9.7199 8.46788 9.80584 8.75693 9.98437 8.96715C10.1629 9.17737 10.434 9.36131 10.8109 9.5124L12.4639 10.1365C12.8408 9.93284 13.1119 9.68321 13.264 9.38759Z" fill="black"/>
<path d="M100.578 134.803C101.007 135 101.358 135.276 101.616 135.644C101.874 136.012 102.006 136.439 102.006 136.931C102.006 137.549 101.827 138.035 101.477 138.383C101.126 138.731 100.756 138.961 100.359 139.073V139.126L100.498 139.191C100.954 139.375 101.298 139.651 101.536 140.019C101.774 140.387 101.893 140.807 101.893 141.293C101.893 141.734 101.755 142.134 101.483 142.496C101.212 142.857 100.855 143.139 100.419 143.337C99.9825 143.534 99.5262 143.639 99.0567 143.639C98.4749 143.639 97.979 143.534 97.5756 143.33C97.1723 143.12 96.8615 142.85 96.6565 142.515C96.4515 142.18 96.3458 141.826 96.3458 141.451C96.3458 140.991 96.4913 140.597 96.7888 140.262C97.0864 139.927 97.4302 139.671 97.8203 139.493V139.441L97.5228 139.323C96.5111 138.915 96.0085 138.272 96.0085 137.398C96.0085 136.872 96.1276 136.386 96.3722 135.953C96.6169 135.512 96.974 135.164 97.45 134.908C97.9261 134.645 98.4947 134.52 99.1493 134.52C99.6783 134.507 100.148 134.606 100.578 134.803ZM97.8798 135.21C97.5823 135.407 97.3641 135.644 97.2319 135.92C97.0996 136.196 97.0335 136.458 97.0335 136.701C97.0335 137.174 97.1392 137.529 97.3508 137.759C97.5624 137.989 97.8666 138.186 98.2699 138.344L100.002 138.968C100.353 138.823 100.624 138.593 100.822 138.278C101.021 137.963 101.12 137.503 101.12 136.899C101.12 136.215 100.915 135.716 100.498 135.394C100.082 135.072 99.599 134.908 99.0436 134.908C98.5609 134.915 98.1774 135.013 97.8798 135.21ZM97.4169 140.321C97.2649 140.617 97.1855 140.965 97.1855 141.366C97.1855 141.714 97.2715 142.029 97.4434 142.318C97.6153 142.601 97.8468 142.824 98.1311 142.988C98.4154 143.153 98.7328 143.231 99.0766 143.231C99.6056 143.231 100.055 143.08 100.419 142.785C100.783 142.489 100.961 142.088 100.961 141.596C100.961 141.241 100.875 140.952 100.697 140.742C100.518 140.531 100.247 140.347 99.8701 140.196L98.2171 139.572C97.8336 139.776 97.569 140.026 97.4169 140.321Z" fill="black"/>
<path d="M63.2651 48.0285C60.8319 45.3942 58.0085 42.8255 56.8315 41.4788C55.9455 40.4671 55.3174 39.6985 55.0595 39.3766V39.2124C55.0595 39.2124 55.0331 39.2387 54.9934 39.2978C54.9537 39.2452 54.9272 39.2124 54.9272 39.2124V39.3766C54.6693 39.6985 54.0412 40.4671 53.1552 41.4788C51.9716 42.8255 49.1482 45.3942 46.7215 48.0285C44.2882 50.6628 44.0965 53.2971 44.5527 55.4781C45.0156 57.6591 47.31 59.7153 50.9269 59.2686C52.0642 59.1307 52.8907 58.5854 53.4924 57.9153C53.0891 61.0029 51.4029 62.6124 51.4029 62.6124H58.4118C57.1357 61.1934 56.6794 59.1832 56.5141 57.9285C57.1158 58.592 57.9423 59.1241 59.0664 59.2686C62.6767 59.7153 64.9777 57.6657 65.4406 55.4781C65.8902 53.2905 65.6918 50.6628 63.2651 48.0285Z" fill="#151515"/>
<path d="M43.7063 23.0255C41.273 20.3912 38.4497 17.8226 37.2727 16.4759C36.3867 15.4642 35.7585 14.6956 35.5006 14.3737V14.2095C35.5006 14.2095 35.4742 14.2358 35.4345 14.2949C35.3948 14.2423 35.3684 14.2095 35.3684 14.2095V14.3737C35.1105 14.6956 34.4824 15.4642 33.5963 16.4759C32.4128 17.8226 29.5894 20.3912 27.1627 23.0255C24.7294 25.6598 24.5377 28.2941 24.9939 30.4752C25.4568 32.6562 27.7512 34.7124 31.368 34.2657C32.5053 34.1277 33.3319 33.5825 33.9336 32.9124C33.5302 36 31.8441 37.6095 31.8441 37.6095H38.853C37.5769 36.1905 37.1206 34.1803 36.9553 32.9255C37.557 33.589 38.3835 34.1212 39.5076 34.2657C43.1179 34.7124 45.4189 32.6628 45.8818 30.4752C46.338 28.2941 46.1396 25.6598 43.7063 23.0255Z" fill="#151515"/>
<path d="M43.7063 73.3336C41.273 70.6993 38.4497 68.1307 37.2727 66.7839C36.3867 65.7723 35.7585 65.0036 35.5006 64.6818V64.5175C35.5006 64.5175 35.4742 64.5438 35.4345 64.6029C35.3948 64.5504 35.3684 64.5175 35.3684 64.5175V64.6818C35.1105 65.0036 34.4824 65.7723 33.5963 66.7839C32.4128 68.1307 29.5894 70.6993 27.1627 73.3336C24.7294 75.9679 24.5377 78.6022 24.9939 80.7832C25.4568 82.9642 27.7512 85.0204 31.368 84.5737C32.5053 84.4358 33.3319 83.8905 33.9336 83.2204C33.5302 86.308 31.8441 87.9175 31.8441 87.9175H38.853C37.5769 86.4985 37.1206 84.4883 36.9553 83.2336C37.557 83.8971 38.3835 84.4292 39.5076 84.5737C43.1179 85.0204 45.4189 82.9708 45.8818 80.7832C46.338 78.6022 46.1396 75.9679 43.7063 73.3336Z" fill="#151515"/>
<path d="M43.7063 127.761C41.273 130.395 38.4497 132.963 37.2727 134.31C36.3867 135.322 35.7585 136.091 35.5006 136.412V136.577C35.5006 136.577 35.4742 136.55 35.4345 136.491C35.3948 136.544 35.3684 136.577 35.3684 136.577V136.412C35.1105 136.091 34.4824 135.322 33.5963 134.31C32.4128 132.963 29.5894 130.395 27.1627 127.761C24.7294 125.126 24.5377 122.492 24.9939 120.311C25.4568 118.13 27.7512 116.074 31.368 116.52C32.5053 116.658 33.3319 117.204 33.9336 117.874C33.5302 114.786 31.8441 113.177 31.8441 113.177H38.853C37.5769 114.596 37.1206 116.606 36.9553 117.861C37.557 117.197 38.3835 116.665 39.5076 116.52C43.1179 116.074 45.4189 118.123 45.8818 120.311C46.338 122.492 46.1396 125.126 43.7063 127.761Z" fill="#151515"/>
<path d="M83.4323 23.0255C80.999 20.3912 78.1757 17.8226 76.9987 16.4759C76.1127 15.4642 75.4845 14.6956 75.2267 14.3737V14.2095C75.2267 14.2095 75.2002 14.2358 75.1606 14.2949C75.1209 14.2423 75.0944 14.2095 75.0944 14.2095V14.3737C74.8365 14.6956 74.2084 15.4642 73.3224 16.4759C72.1388 17.8226 69.3154 20.3912 66.8887 23.0255C64.4621 25.6598 64.2637 28.2941 64.7199 30.4752C65.1828 32.6562 67.4772 34.7124 71.0941 34.2657C72.2314 34.1277 73.0579 33.5825 73.6596 32.9124C73.2562 36 71.5701 37.6095 71.5701 37.6095H78.579C77.3029 36.1905 76.8466 34.1803 76.6813 32.9255C77.283 33.589 78.1095 34.1212 79.2336 34.2657C82.8438 34.7124 85.1449 32.6628 85.6077 30.4752C86.0574 28.2941 85.859 25.6598 83.4323 23.0255Z" fill="#151515"/>
<path d="M83.4324 73.3336C80.9991 70.6993 78.1757 68.1307 76.9987 66.7839C76.1127 65.7723 75.4846 65.0036 75.2267 64.6818V64.5175C75.2267 64.5175 75.2003 64.5438 75.1606 64.6029C75.1209 64.5504 75.0944 64.5175 75.0944 64.5175V64.6818C74.8366 65.0036 74.2084 65.7723 73.3224 66.7839C72.1388 68.1307 69.3155 70.6993 66.8888 73.3336C64.4555 75.9679 64.2637 78.6022 64.72 80.7832C65.1762 82.9642 67.4773 85.0204 71.0941 84.5737C72.2314 84.4358 73.0579 83.8905 73.6596 83.2204C73.2563 86.308 71.5702 87.9175 71.5702 87.9175H78.5791C77.3029 86.4985 76.8467 84.4883 76.6814 83.2336C77.2831 83.8971 78.1096 84.4292 79.2336 84.5737C82.8439 85.0204 85.1449 82.9708 85.6078 80.7832C86.0706 78.5956 85.859 75.9679 83.4324 73.3336Z" fill="#151515"/>
<path d="M83.4324 127.761C80.9991 130.395 78.1757 132.963 76.9987 134.31C76.1127 135.322 75.4846 136.091 75.2267 136.412V136.577C75.2267 136.577 75.2003 136.55 75.1606 136.491C75.1209 136.544 75.0944 136.577 75.0944 136.577V136.412C74.8366 136.091 74.2084 135.322 73.3224 134.31C72.1388 132.963 69.3154 130.395 66.8888 127.761C64.4555 125.126 64.2637 122.492 64.72 120.311C65.1828 118.13 67.4773 116.074 71.0941 116.52C72.2314 116.658 73.0579 117.204 73.6596 117.874C73.2563 114.786 71.5702 113.177 71.5702 113.177H78.5791C77.3029 114.596 76.8467 116.606 76.6814 117.861C77.2831 117.197 78.1096 116.665 79.2336 116.52C82.8439 116.074 85.1449 118.123 85.6078 120.311C86.0574 122.492 85.859 125.126 83.4324 127.761Z" fill="#151515"/>
<path d="M63.2651 104.183C60.8319 106.817 58.0085 109.386 56.8315 110.733C55.9455 111.744 55.3174 112.513 55.0595 112.835V112.999C55.0595 112.999 55.0331 112.973 54.9934 112.914C54.9537 112.966 54.9272 112.999 54.9272 112.999V112.835C54.6693 112.513 54.0412 111.744 53.1552 110.733C51.9716 109.386 49.1482 106.817 46.7215 104.183C44.2882 101.549 44.0965 98.9146 44.5527 96.7336C45.0156 94.5525 47.31 92.4963 50.9269 92.943C52.0642 93.081 52.8907 93.6262 53.4924 94.2963C53.0891 91.2087 51.4029 89.5992 51.4029 89.5992H58.4118C57.1357 91.0182 56.6794 93.0284 56.5141 94.2832C57.1158 93.6197 57.9423 93.0876 59.0664 92.943C62.6767 92.4963 64.9777 94.546 65.4406 96.7336C65.8902 98.9211 65.6918 101.555 63.2651 104.183Z" fill="#151515"/>
<path d="M100.869 129.35C100.161 130.119 99.3345 130.868 98.9907 131.262C98.7328 131.558 98.5477 131.781 98.4749 131.873V131.919C98.4749 131.919 98.4684 131.912 98.4552 131.893C98.4419 131.906 98.4353 131.919 98.4353 131.919V131.873C98.3626 131.781 98.1774 131.558 97.9195 131.262C97.5757 130.868 96.7492 130.119 96.0417 129.35C95.3342 128.582 95.2747 127.813 95.407 127.176C95.5392 126.539 96.2136 125.941 97.2649 126.072C97.5955 126.112 97.8402 126.269 98.0121 126.466C97.8931 125.566 97.4038 125.093 97.4038 125.093H99.447C99.0767 125.507 98.9444 126.092 98.8915 126.46C99.07 126.263 99.3081 126.112 99.6387 126.072C100.69 125.941 101.364 126.539 101.497 127.176C101.636 127.813 101.576 128.582 100.869 129.35Z" fill="#151515"/>
<path d="M14.7054 20.2008C13.9979 19.4321 13.1714 18.6832 12.8275 18.2891C12.5697 17.9935 12.3845 17.7701 12.3118 17.6781V17.6321C12.3118 17.6321 12.3052 17.6387 12.2919 17.6584C12.2787 17.6453 12.2721 17.6321 12.2721 17.6321V17.6781C12.1994 17.7701 12.0142 17.9935 11.7564 18.2891C11.4125 18.6832 10.586 19.4321 9.87853 20.2008C9.17103 20.9694 9.1115 21.738 9.24375 22.3752C9.37599 23.0124 10.0504 23.6102 11.1018 23.4789C11.4324 23.4394 11.677 23.2818 11.8489 23.0847C11.7299 23.9847 11.2406 24.4577 11.2406 24.4577H13.2838C12.9135 24.0438 12.7813 23.4591 12.7284 23.0913C12.9069 23.2883 13.1449 23.4394 13.4756 23.4789C14.5269 23.6102 15.2013 23.0124 15.3336 22.3752C15.4724 21.738 15.4129 20.9694 14.7054 20.2008Z" fill="#151515"/>
</svg>
