<svg width="110" height="153" viewBox="0 0 110 153" fill="none" xmlns="http://www.w3.org/2000/svg">
<path d="M106.071 153H3.92853C1.75922 153 0 151.253 0 149.098V3.90219C0 1.74745 1.75922 0 3.92853 0H106.071C108.241 0 110 1.74745 110 3.90219V149.098C110 151.253 108.241 153 106.071 153Z" fill="white"/>
<path d="M8.39943 17.1197C8.27377 16.9686 8.18115 16.7978 8.12163 16.6073C8.06872 16.4234 8.03564 16.2526 8.03564 16.108C8.03564 15.8124 8.14154 15.5694 8.35979 15.3788C8.51191 15.254 8.69043 15.1883 8.88884 15.1883C9.08726 15.1883 9.23942 15.2672 9.35186 15.4183C9.39154 15.4774 9.42461 15.5299 9.43784 15.5825C9.45107 15.635 9.45762 15.7007 9.45762 15.7861C9.45762 15.911 9.40471 16.0423 9.29227 16.1672C9.21291 16.2526 9.13355 16.3248 9.04757 16.384C8.9682 16.4365 8.9153 16.4891 8.88884 16.5416C8.85578 16.5942 8.84258 16.6599 8.84258 16.7387C8.84258 16.8898 8.92858 17.0277 9.10715 17.1394C9.27911 17.2511 9.55025 17.3102 9.90739 17.3102C10.2182 17.3102 10.5092 17.2183 10.787 17.0409C11.0648 16.8635 11.2963 16.5679 11.4881 16.1475C11.6336 15.8321 11.746 15.438 11.8188 14.9584C11.8981 14.4788 11.9312 14.0781 11.9312 13.7694V13.2044L11.8386 13.165C11.6864 13.4869 11.4484 13.7562 11.1243 13.9599C10.8068 14.1701 10.496 14.2752 10.1917 14.2752C9.61634 14.2752 9.13357 14.1372 8.74336 13.8548C8.41267 13.6183 8.15471 13.2964 7.97614 12.8891C7.79757 12.4883 7.70496 12.0548 7.70496 11.5949C7.70496 11.135 7.81084 10.6752 8.01586 10.2088C8.22089 9.74235 8.52512 9.36133 8.92195 9.05257C9.31877 8.74381 9.78834 8.59271 10.3241 8.59271C10.8796 8.59271 11.369 8.76352 11.7923 9.10512C12.2156 9.44673 12.5396 9.93286 12.7711 10.5635C13.0026 11.1942 13.115 11.9431 13.115 12.8037C13.115 13.5 13.0224 14.1832 12.8439 14.8533C12.6653 15.5234 12.4008 16.0818 12.0635 16.5219C11.4418 17.3234 10.7076 17.7175 9.86767 17.7175C9.27243 17.7307 8.77642 17.527 8.39943 17.1197ZM10.9788 13.5132C11.2169 13.3161 11.4087 13.0402 11.5476 12.6788C11.6865 12.3175 11.7592 11.9037 11.7592 11.4372C11.7592 10.7343 11.6468 10.1496 11.4285 9.69636C11.2036 9.24308 10.8399 9.01315 10.3241 9.01315C9.80157 9.01315 9.42461 9.26279 9.18651 9.75549C8.94842 10.2482 8.83596 10.8066 8.83596 11.4372C8.83596 12.1204 8.94176 12.6854 9.14679 13.1321C9.35182 13.5854 9.69577 13.8088 10.172 13.8088C10.4696 13.8088 10.7407 13.7102 10.9788 13.5132Z" fill="black"/>
<path d="M99.8941 137.667C100.02 137.818 100.112 137.989 100.172 138.18C100.225 138.364 100.258 138.534 100.258 138.679C100.258 138.974 100.152 139.218 99.9339 139.408C99.7817 139.533 99.6031 139.599 99.4047 139.599C99.2063 139.599 99.0542 139.52 98.9418 139.369C98.9021 139.31 98.869 139.257 98.8558 139.204C98.8426 139.152 98.836 139.086 98.836 139.001C98.836 138.876 98.8889 138.745 99.0013 138.62C99.0807 138.534 99.16 138.462 99.246 138.403C99.3254 138.35 99.3783 138.298 99.4047 138.245C99.4378 138.193 99.4511 138.127 99.4511 138.048C99.4511 137.897 99.3651 137.759 99.1865 137.647C99.0145 137.536 98.7434 137.477 98.3863 137.477C98.0754 137.477 97.7844 137.569 97.5066 137.746C97.2288 137.923 96.9974 138.219 96.8056 138.639C96.6601 138.955 96.5476 139.349 96.4749 139.829C96.3955 140.308 96.3624 140.709 96.3624 141.018V141.589L96.455 141.629C96.6071 141.307 96.8452 141.037 97.1693 140.834C97.4867 140.623 97.7976 140.518 98.1018 140.518C98.6772 140.518 99.1601 140.656 99.5503 140.939C99.881 141.175 100.139 141.497 100.317 141.904C100.496 142.305 100.589 142.739 100.589 143.199C100.589 143.658 100.483 144.118 100.278 144.585C100.073 145.051 99.7685 145.432 99.3717 145.741C98.9749 146.05 98.5053 146.201 97.9696 146.201C97.414 146.201 96.9246 146.03 96.5013 145.688C96.078 145.347 95.7473 144.861 95.5225 144.23C95.291 143.599 95.1785 142.85 95.1785 141.99C95.1785 141.293 95.2711 140.61 95.4497 139.94C95.6283 139.27 95.8929 138.712 96.2302 138.272C96.8519 137.47 97.586 137.076 98.4259 137.076C99.0278 137.056 99.5238 137.26 99.8941 137.667ZM97.3148 141.274C97.0767 141.471 96.8849 141.747 96.746 142.108C96.6071 142.469 96.5344 142.883 96.5344 143.35C96.5344 144.053 96.6468 144.637 96.8651 145.091C97.0899 145.544 97.4537 145.774 97.9696 145.774C98.4921 145.774 98.869 145.524 99.1071 145.031C99.3452 144.539 99.4577 143.98 99.4577 143.35C99.4577 142.666 99.3518 142.102 99.1468 141.655C98.9418 141.202 98.5979 140.978 98.1217 140.978C97.8241 140.985 97.5595 141.077 97.3148 141.274Z" fill="black"/>
<path d="M59.7818 74.8314C57.381 72.23 54.59 69.6876 53.4194 68.354C52.5397 67.3555 51.9246 66.5935 51.6667 66.2781V66.1139C51.6667 66.1139 51.6469 66.1402 51.6006 66.1927C51.5609 66.1402 51.5344 66.1139 51.5344 66.1139V66.2781C51.2764 66.5935 50.6548 67.3555 49.7818 68.354C48.6112 69.6876 45.8201 72.2234 43.4193 74.8314C41.0185 77.4329 40.8201 80.0343 41.2764 82.1956C41.7328 84.357 44.0013 86.3869 47.5728 85.9402C48.6971 85.8022 49.5106 85.2635 50.1125 84.6C49.7091 87.6548 48.0489 89.2446 48.0489 89.2446H54.9736C53.7104 87.8387 53.2606 85.8548 53.1018 84.6197C53.6971 85.2767 54.5106 85.8022 55.6217 85.9402C59.1932 86.3869 61.4683 84.3504 61.918 82.1956C62.3744 80.0343 62.1826 77.4329 59.7818 74.8314Z" fill="#151515"/>
<path d="M38.922 27.8935C36.5212 25.292 33.7302 22.7497 32.5595 21.4161C31.6799 20.4176 31.0648 19.6555 30.8069 19.3402V19.176C30.8069 19.176 30.7871 19.2022 30.7408 19.2548C30.7011 19.2022 30.6746 19.176 30.6746 19.176V19.3402C30.4167 19.6555 29.795 20.4176 28.922 21.4161C27.7513 22.7497 24.9603 25.2855 22.5595 27.8935C20.1588 30.4949 19.9603 33.0964 20.4167 35.2577C20.873 37.419 23.1416 39.449 26.713 39.0022C27.8373 38.8643 28.6508 38.3256 29.2527 37.6621C28.8492 40.7168 27.1892 42.3066 27.1892 42.3066H34.1138C32.8505 40.9008 32.4008 38.9168 32.2421 37.6818C32.8373 38.3387 33.6508 38.8643 34.7685 39.0022C38.34 39.449 40.6151 37.4125 41.0648 35.2577C41.5212 33.0964 41.3294 30.4949 38.922 27.8935Z" fill="#151515"/>
<path d="M38.922 61.1081C36.5212 58.5066 33.7302 55.9643 32.5595 54.6307C31.6799 53.6322 31.0648 52.8701 30.8069 52.5548V52.3906C30.8069 52.3906 30.7871 52.4168 30.7408 52.4694C30.7011 52.4168 30.6746 52.3906 30.6746 52.3906V52.5548C30.4167 52.8701 29.795 53.6322 28.922 54.6307C27.7513 55.9643 24.9603 58.5001 22.5595 61.1081C20.1588 63.7095 19.9603 66.311 20.4167 68.4723C20.873 70.6336 23.1416 72.6636 26.713 72.2168C27.8373 72.0789 28.6508 71.5402 29.2527 70.8767C28.8492 73.9314 27.1892 75.5212 27.1892 75.5212H34.1138C32.8505 74.1154 32.4008 72.1314 32.2421 70.8964C32.8373 71.5533 33.6508 72.0789 34.7685 72.2168C38.34 72.6636 40.6151 70.6271 41.0648 68.4723C41.5212 66.311 41.3294 63.7095 38.922 61.1081Z" fill="#151515"/>
<path d="M38.922 133.246C36.5212 135.847 33.7302 138.39 32.5595 139.723C31.6799 140.722 31.0648 141.484 30.8069 141.799V141.964C30.8069 141.964 30.7871 141.937 30.7408 141.885C30.7011 141.937 30.6746 141.964 30.6746 141.964V141.799C30.4167 141.484 29.795 140.722 28.922 139.723C27.7513 138.39 24.9603 135.854 22.5595 133.246C20.1588 130.645 19.9603 128.043 20.4167 125.882C20.873 123.72 23.1416 121.691 26.713 122.137C27.8373 122.275 28.6508 122.814 29.2527 123.477C28.8492 120.423 27.1892 118.833 27.1892 118.833H34.1138C32.8505 120.239 32.4008 122.223 32.2421 123.458C32.8373 122.801 33.6508 122.275 34.7685 122.137C38.34 121.691 40.6151 123.727 41.0648 125.882C41.5212 128.037 41.3294 130.645 38.922 133.246Z" fill="#151515"/>
<path d="M84.2923 27.8935C81.8916 25.292 79.1005 22.7497 77.9299 21.4161C77.0503 20.4176 76.4352 19.6555 76.1772 19.3402V19.176C76.1772 19.176 76.1574 19.2022 76.1111 19.2548C76.0714 19.2022 76.045 19.176 76.045 19.176V19.3402C75.7871 19.6555 75.1654 20.4176 74.2923 21.4161C73.1217 22.7497 70.3307 25.2855 67.9299 27.8935C65.5291 30.4949 65.3307 33.0964 65.7871 35.2577C66.2434 37.419 68.5119 39.449 72.0834 39.0022C73.2077 38.8643 74.0212 38.3256 74.623 37.6621C74.2196 40.7168 72.5595 42.3066 72.5595 42.3066H79.4841C78.2209 40.9008 77.7712 38.9168 77.6125 37.6818C78.2077 38.3387 79.0212 38.8643 80.1323 39.0022C83.7037 39.449 85.9788 37.4125 86.4286 35.2577C86.8783 33.103 86.6931 30.4949 84.2923 27.8935Z" fill="#151515"/>
<path d="M84.2923 61.1081C81.8916 58.5066 79.1005 55.9643 77.9299 54.6307C77.0503 53.6322 76.4352 52.8701 76.1772 52.5548V52.3906C76.1772 52.3906 76.1574 52.4168 76.1111 52.4694C76.0714 52.4168 76.045 52.3906 76.045 52.3906V52.5548C75.7871 52.8701 75.1654 53.6322 74.2923 54.6307C73.1217 55.9643 70.3307 58.5001 67.9299 61.1081C65.5291 63.7095 65.3307 66.311 65.7871 68.4723C66.2434 70.6336 68.5119 72.6636 72.0834 72.2168C73.2077 72.0789 74.0212 71.5402 74.623 70.8767C74.2196 73.9314 72.5595 75.5212 72.5595 75.5212H79.4841C78.2209 74.1154 77.7712 72.1314 77.6125 70.8964C78.2077 71.5533 79.0212 72.0789 80.1323 72.2168C83.7037 72.6636 85.9788 70.6271 86.4286 68.4723C86.8849 66.311 86.6931 63.7095 84.2923 61.1081Z" fill="#151515"/>
<path d="M84.2923 133.246C81.8916 135.847 79.1005 138.39 77.9299 139.723C77.0503 140.722 76.4352 141.484 76.1772 141.799V141.964C76.1772 141.964 76.1574 141.937 76.1111 141.885C76.0714 141.937 76.045 141.964 76.045 141.964V141.799C75.7871 141.484 75.1654 140.722 74.2923 139.723C73.1217 138.39 70.3307 135.854 67.9299 133.246C65.5291 130.645 65.3307 128.043 65.7871 125.882C66.2434 123.72 68.5119 121.691 72.0834 122.137C73.2077 122.275 74.0212 122.814 74.623 123.477C74.2196 120.423 72.5595 118.833 72.5595 118.833H79.4841C78.2209 120.239 77.7712 122.223 77.6125 123.458C78.2077 122.801 79.0212 122.275 80.1323 122.137C83.7037 121.691 85.9788 123.727 86.4286 125.882C86.8849 128.037 86.6931 130.645 84.2923 133.246Z" fill="#151515"/>
<path d="M38.922 100.025C36.5212 102.626 33.7302 105.169 32.5595 106.502C31.6799 107.501 31.0648 108.263 30.8069 108.578V108.742C30.8069 108.742 30.7871 108.716 30.7408 108.664C30.7011 108.716 30.6746 108.742 30.6746 108.742V108.578C30.4167 108.263 29.795 107.501 28.922 106.502C27.7513 105.169 24.9603 102.633 22.5595 100.025C20.1588 97.4234 19.9603 94.8219 20.4167 92.6606C20.873 90.4993 23.1416 88.4694 26.713 88.9161C27.8373 89.054 28.6508 89.5927 29.2527 90.2562C28.8492 87.2015 27.1892 85.6117 27.1892 85.6117H34.1138C32.8505 87.0175 32.4008 89.0015 32.2421 90.2365C32.8373 89.5796 33.6508 89.054 34.7685 88.9161C38.34 88.4694 40.6151 90.5059 41.0648 92.6606C41.5212 94.8219 41.3294 97.4234 38.922 100.025Z" fill="#151515"/>
<path d="M84.2923 100.025C81.8916 102.626 79.1005 105.169 77.9299 106.502C77.0503 107.501 76.4352 108.263 76.1772 108.578V108.742C76.1772 108.742 76.1574 108.716 76.1111 108.664C76.0714 108.716 76.045 108.742 76.045 108.742V108.578C75.7871 108.263 75.1654 107.501 74.2923 106.502C73.1217 105.169 70.3307 102.633 67.9299 100.025C65.5291 97.4234 65.3307 94.8219 65.7871 92.6606C66.2434 90.4993 68.5119 88.4694 72.0834 88.9161C73.2077 89.054 74.0212 89.5927 74.623 90.2562C74.2196 87.2015 72.5595 85.6117 72.5595 85.6117H79.4841C78.2209 87.0175 77.7712 89.0015 77.6125 90.2365C78.2077 89.5796 79.0212 89.054 80.1323 88.9161C83.7037 88.4694 85.9788 90.5059 86.4286 92.6606C86.8849 94.8219 86.6931 97.4234 84.2923 100.025Z" fill="#151515"/>
<path d="M13.2937 22.7365C12.586 21.9679 11.7593 21.219 11.4154 20.8248C11.1574 20.5292 10.9722 20.3059 10.8995 20.2139V20.1679C10.8995 20.1679 10.8928 20.1745 10.8796 20.1942C10.8664 20.181 10.8598 20.1679 10.8598 20.1679V20.2139C10.787 20.3059 10.6019 20.5292 10.3439 20.8248C10 21.219 9.17325 21.9679 8.46558 22.7365C7.75791 23.5051 7.69841 24.2737 7.83068 24.911C7.96296 25.5482 8.63752 26.146 9.68911 26.0146C10.0198 25.9752 10.2645 25.8175 10.4365 25.6205C10.3174 26.5205 9.82805 26.9935 9.82805 26.9935H11.8717C11.5013 26.5796 11.3691 25.9949 11.3161 25.627C11.4947 25.8241 11.7328 25.9752 12.0635 26.0146C13.1151 26.146 13.7897 25.5482 13.9219 24.911C14.0608 24.2737 14.0013 23.5051 13.2937 22.7365Z" fill="#151515"/>
<path d="M99.4577 131.886C98.75 132.655 97.9233 133.404 97.5794 133.798C97.3214 134.093 97.1363 134.317 97.0635 134.409V134.455C97.0635 134.455 97.0569 134.448 97.0437 134.428C97.0305 134.442 97.0238 134.455 97.0238 134.455V134.409C96.9511 134.317 96.7659 134.093 96.5079 133.798C96.164 133.404 95.3373 132.655 94.6296 131.886C93.922 131.118 93.8625 130.349 93.9947 129.712C94.127 129.074 94.8016 128.477 95.8532 128.608C96.1839 128.647 96.4286 128.805 96.6005 129.002C96.4815 128.102 95.9921 127.629 95.9921 127.629H98.0357C97.6654 128.043 97.5331 128.628 97.4802 128.996C97.6588 128.799 97.8969 128.647 98.2276 128.608C99.2792 128.477 99.9537 129.074 100.086 129.712C100.225 130.349 100.165 131.118 99.4577 131.886Z" fill="#151515"/>
<path d="M98.5714 12.0613C98.5714 12.265 98.4061 12.4358 98.1945 12.4358C97.9894 12.4358 97.8174 12.2716 97.8174 12.0613C97.8174 11.8577 97.9828 11.6869 98.1945 11.6869C98.4061 11.6935 98.5714 11.8577 98.5714 12.0613Z" fill="white"/>
<path d="M80.6349 12.0613C80.6349 12.265 80.4696 12.4358 80.2579 12.4358C80.0529 12.4358 79.8809 12.2716 79.8809 12.0613C79.8809 11.8577 80.0463 11.6869 80.2579 11.6869C80.4696 11.6935 80.6349 11.8577 80.6349 12.0613Z" fill="white"/>
<path d="M64.1336 12.0613C64.1336 12.265 63.9682 12.4358 63.7566 12.4358C63.5516 12.4358 63.3796 12.2716 63.3796 12.0613C63.3796 11.8577 63.5449 11.6869 63.7566 11.6869C63.9682 11.6935 64.1336 11.8577 64.1336 12.0613Z" fill="white"/>
<path d="M47.5727 12.1862C47.5727 12.3898 47.4074 12.5606 47.1958 12.5606C46.9907 12.5606 46.8187 12.3964 46.8187 12.1862C46.8187 11.9759 46.9841 11.8117 47.1958 11.8117C47.4008 11.8117 47.5727 11.9759 47.5727 12.1862Z" fill="white"/>
<path d="M98.5714 25.9555C98.5714 26.1592 98.4061 26.33 98.1945 26.33C97.9894 26.33 97.8174 26.1657 97.8174 25.9555C97.8174 25.7519 97.9828 25.5811 98.1945 25.5811C98.4061 25.5811 98.5714 25.7453 98.5714 25.9555Z" fill="white"/>
<path d="M98.5714 38.6277C98.5714 38.8314 98.4061 39.0022 98.1945 39.0022C97.9894 39.0022 97.8174 38.838 97.8174 38.6277C97.8174 38.4241 97.9828 38.2533 98.1945 38.2533C98.4061 38.2533 98.5714 38.4241 98.5714 38.6277Z" fill="white"/>
<path d="M98.5714 51.911C98.5714 52.1146 98.4061 52.2854 98.1945 52.2854C97.9894 52.2854 97.8174 52.1212 97.8174 51.911C97.8174 51.7073 97.9828 51.5365 98.1945 51.5365C98.4061 51.5365 98.5714 51.7007 98.5714 51.911Z" fill="white"/>
<path d="M98.5714 60.3066C98.5714 60.5102 98.4061 60.681 98.1945 60.681C97.9894 60.681 97.8174 60.5168 97.8174 60.3066C97.8174 60.1029 97.9828 59.9321 98.1945 59.9321C98.4061 59.9321 98.5714 60.1029 98.5714 60.3066Z" fill="white"/>
<path d="M98.5714 68.735C98.5714 68.9387 98.4061 69.1095 98.1945 69.1095C97.9894 69.1095 97.8174 68.9453 97.8174 68.735C97.8174 68.5314 97.9828 68.3606 98.1945 68.3606C98.4061 68.3606 98.5714 68.5248 98.5714 68.735Z" fill="white"/>
<path d="M12.4206 12.4357C12.4206 12.6394 12.2553 12.8102 12.0436 12.8102C11.8386 12.8102 11.6667 12.646 11.6667 12.4357C11.6667 12.2321 11.832 12.0613 12.0436 12.0613C12.2487 12.0613 12.4206 12.2321 12.4206 12.4357Z" fill="white"/>
<path d="M30.5621 12.1862C30.5621 12.3898 30.3968 12.5606 30.1852 12.5606C29.9802 12.5606 29.8082 12.3964 29.8082 12.1862C29.8082 11.9759 29.9736 11.8117 30.1852 11.8117C30.3968 11.8117 30.5621 11.9759 30.5621 12.1862Z" fill="white"/>
<path d="M12.4206 25.6599C12.4206 25.8635 12.2553 26.0343 12.0436 26.0343C11.8386 26.0343 11.6667 25.8701 11.6667 25.6599C11.6667 25.4496 11.832 25.2854 12.0436 25.2854C12.2487 25.2854 12.4206 25.4496 12.4206 25.6599Z" fill="white"/>
<path d="M12.4206 38.7131C12.4206 38.9168 12.2553 39.0876 12.0436 39.0876C11.8386 39.0876 11.6667 38.9234 11.6667 38.7131C11.6667 38.5029 11.832 38.3387 12.0436 38.3387C12.2487 38.3387 12.4206 38.5095 12.4206 38.7131Z" fill="white"/>
<path d="M12.4206 51.819C12.4206 52.0226 12.2553 52.1934 12.0436 52.1934C11.8386 52.1934 11.6667 52.0292 11.6667 51.819C11.6667 51.6088 11.832 51.4445 12.0436 51.4445C12.2487 51.4445 12.4206 51.6088 12.4206 51.819Z" fill="white"/>
<path d="M12.4206 60.3066C12.4206 60.5102 12.2553 60.681 12.0436 60.681C11.8386 60.681 11.6667 60.5168 11.6667 60.3066C11.6667 60.1029 11.832 59.9321 12.0436 59.9321C12.2487 59.9321 12.4206 60.1029 12.4206 60.3066Z" fill="white"/>
<path d="M12.4206 69.1095C12.4206 69.3131 12.2553 69.484 12.0436 69.484C11.8386 69.484 11.6667 69.3197 11.6667 69.1095C11.6667 68.8993 11.832 68.735 12.0436 68.735C12.2487 68.735 12.4206 68.8993 12.4206 69.1095Z" fill="white"/>
<path d="M12.4206 77.6036C12.4206 77.8073 12.2553 77.9781 12.0436 77.9781C11.8386 77.9781 11.6667 77.8139 11.6667 77.6036C11.6667 77.4 11.832 77.2292 12.0436 77.2292C12.2487 77.2292 12.4206 77.4 12.4206 77.6036Z" fill="white"/>
<path d="M12.4206 86.0913C12.4206 86.2949 12.2553 86.4657 12.0436 86.4657C11.8386 86.4657 11.6667 86.3015 11.6667 86.0913C11.6667 85.8876 11.832 85.7168 12.0436 85.7168C12.2487 85.7168 12.4206 85.8876 12.4206 86.0913Z" fill="white"/>
<path d="M12.4206 94.8942C12.4206 95.0978 12.2553 95.2686 12.0436 95.2686C11.8386 95.2686 11.6667 95.1044 11.6667 94.8942C11.6667 94.6905 11.832 94.5197 12.0436 94.5197C12.2487 94.5197 12.4206 94.6905 12.4206 94.8942Z" fill="white"/>
<path d="M12.4206 103.717C12.4206 103.92 12.2553 104.091 12.0436 104.091C11.8386 104.091 11.6667 103.927 11.6667 103.717C11.6667 103.513 11.832 103.342 12.0436 103.342C12.2487 103.342 12.4206 103.513 12.4206 103.717Z" fill="white"/>
<path d="M12.4206 111.6C12.4206 111.804 12.2553 111.974 12.0436 111.974C11.8386 111.974 11.6667 111.81 11.6667 111.6C11.6667 111.396 11.832 111.226 12.0436 111.226C12.2487 111.226 12.4206 111.396 12.4206 111.6Z" fill="white"/>
<path d="M12.4206 120.403C12.4206 120.607 12.2553 120.777 12.0436 120.777C11.8386 120.777 11.6667 120.613 11.6667 120.403C11.6667 120.199 11.832 120.029 12.0436 120.029C12.2487 120.029 12.4206 120.193 12.4206 120.403Z" fill="white"/>
<path d="M12.4206 128.976C12.4206 129.18 12.2553 129.35 12.0436 129.35C11.8386 129.35 11.6667 129.186 11.6667 128.976C11.6667 128.772 11.832 128.601 12.0436 128.601C12.2487 128.601 12.4206 128.766 12.4206 128.976Z" fill="white"/>
<path d="M12.5728 141.576C12.5728 141.78 12.4074 141.95 12.1957 141.95C11.9907 141.95 11.8188 141.786 11.8188 141.576C11.8188 141.372 11.9841 141.201 12.1957 141.201C12.4074 141.201 12.5728 141.372 12.5728 141.576Z" fill="white"/>
<path d="M26.1442 141.95C26.1442 142.154 25.9788 142.325 25.7672 142.325C25.5622 142.325 25.3903 142.161 25.3903 141.95C25.3903 141.747 25.5556 141.576 25.7672 141.576C25.9788 141.576 26.1442 141.747 26.1442 141.95Z" fill="white"/>
<path d="M43.6376 141.95C43.6376 142.154 43.4722 142.325 43.2606 142.325C43.0555 142.325 42.8836 142.161 42.8836 141.95C42.8836 141.747 43.0489 141.576 43.2606 141.576C43.4656 141.576 43.6376 141.747 43.6376 141.95Z" fill="white"/>
<path d="M61.0979 141.95C61.0979 142.154 60.9325 142.325 60.7209 142.325C60.5159 142.325 60.3439 142.161 60.3439 141.95C60.3439 141.747 60.5092 141.576 60.7209 141.576C60.9259 141.576 61.0979 141.747 61.0979 141.95Z" fill="white"/>
<path d="M78.1019 141.95C78.1019 142.154 77.9366 142.325 77.7249 142.325C77.5199 142.325 77.3479 142.161 77.3479 141.95C77.3479 141.747 77.5133 141.576 77.7249 141.576C77.9366 141.576 78.1019 141.747 78.1019 141.95Z" fill="white"/>
<path d="M98.5714 77.3934C98.5714 77.5971 98.4061 77.7679 98.1945 77.7679C97.9894 77.7679 97.8174 77.6037 97.8174 77.3934C97.8174 77.1898 97.9828 77.019 98.1945 77.019C98.4061 77.019 98.5714 77.1898 98.5714 77.3934Z" fill="white"/>
<path d="M98.5714 85.4935C98.5714 85.6971 98.4061 85.8679 98.1945 85.8679C97.9894 85.8679 97.8174 85.7037 97.8174 85.4935C97.8174 85.2898 97.9828 85.119 98.1945 85.119C98.4061 85.119 98.5714 85.2898 98.5714 85.4935Z" fill="white"/>
<path d="M98.5714 94.2241C98.5714 94.4277 98.4061 94.5985 98.1945 94.5985C97.9894 94.5985 97.8174 94.4343 97.8174 94.2241C97.8174 94.0204 97.9828 93.8496 98.1945 93.8496C98.4061 93.8562 98.5714 94.0204 98.5714 94.2241Z" fill="white"/>
<path d="M98.5714 102.836C98.5714 103.04 98.4061 103.211 98.1945 103.211C97.9894 103.211 97.8174 103.047 97.8174 102.836C97.8174 102.633 97.9828 102.462 98.1945 102.462C98.4061 102.462 98.5714 102.626 98.5714 102.836Z" fill="white"/>
<path d="M98.5714 111.212C98.5714 111.416 98.4061 111.587 98.1945 111.587C97.9894 111.587 97.8174 111.423 97.8174 111.212C97.8174 111.002 97.9828 110.838 98.1945 110.838C98.4061 110.838 98.5714 111.009 98.5714 111.212Z" fill="white"/>
<path d="M98.5714 119.477C98.5714 119.68 98.4061 119.851 98.1945 119.851C97.9894 119.851 97.8174 119.687 97.8174 119.477C97.8174 119.273 97.9828 119.102 98.1945 119.102C98.4061 119.102 98.5714 119.266 98.5714 119.477Z" fill="white"/>
<path d="M98.5714 127.912C98.5714 128.115 98.4061 128.286 98.1945 128.286C97.9894 128.286 97.8174 128.122 97.8174 127.912C97.8174 127.708 97.9828 127.537 98.1945 127.537C98.4061 127.537 98.5714 127.701 98.5714 127.912Z" fill="white"/>
<path d="M98.5714 140.768C98.5714 140.972 98.4061 141.142 98.1945 141.142C97.9894 141.142 97.8174 140.978 97.8174 140.768C97.8174 140.558 97.9828 140.393 98.1945 140.393C98.4061 140.393 98.5714 140.558 98.5714 140.768Z" fill="white"/>
</svg>
