<svg width="110" height="153" viewBox="0 0 110 153" fill="none" xmlns="http://www.w3.org/2000/svg">
<path d="M106.072 153H3.92763C1.75884 153 0 151.253 0 149.098V3.90219C0 1.74745 1.75884 0 3.92763 0H106.072C108.241 0 110 1.74745 110 3.90219V149.098C110 151.253 108.241 153 106.072 153Z" fill="white"/>
<path d="M98.5741 12.0613C98.5741 12.2649 98.4088 12.4357 98.1972 12.4357C97.9922 12.4357 97.8203 12.2715 97.8203 12.0613C97.8203 11.8511 97.9856 11.6868 98.1972 11.6868C98.4022 11.6934 98.5741 11.8576 98.5741 12.0613Z" fill="white"/>
<path d="M80.6354 12.0613C80.6354 12.2649 80.4701 12.4357 80.2585 12.4357C80.0535 12.4357 79.8816 12.2715 79.8816 12.0613C79.8816 11.8511 80.0469 11.6868 80.2585 11.6868C80.4701 11.6934 80.6354 11.8576 80.6354 12.0613Z" fill="white"/>
<path d="M64.1381 12.0613C64.1381 12.2649 63.9728 12.4357 63.7612 12.4357C63.5562 12.4357 63.3843 12.2715 63.3843 12.0613C63.3843 11.8511 63.5496 11.6868 63.7612 11.6868C63.9661 11.6934 64.1381 11.8576 64.1381 12.0613Z" fill="white"/>
<path d="M47.5746 12.1861C47.5746 12.3897 47.4093 12.5606 47.1977 12.5606C46.9927 12.5606 46.8208 12.3963 46.8208 12.1861C46.8208 11.9824 46.9861 11.8116 47.1977 11.8116C47.4027 11.8116 47.5746 11.9759 47.5746 12.1861Z" fill="white"/>
<path d="M98.5741 25.9555C98.5741 26.1592 98.4088 26.33 98.1972 26.33C97.9922 26.33 97.8203 26.1657 97.8203 25.9555C97.8203 25.7519 97.9856 25.5811 98.1972 25.5811C98.4022 25.5811 98.5741 25.7453 98.5741 25.9555Z" fill="white"/>
<path d="M98.5741 38.6277C98.5741 38.8314 98.4088 39.0022 98.1972 39.0022C97.9922 39.0022 97.8203 38.838 97.8203 38.6277C97.8203 38.4175 97.9856 38.2533 98.1972 38.2533C98.4022 38.2533 98.5741 38.4241 98.5741 38.6277Z" fill="white"/>
<path d="M98.5741 51.911C98.5741 52.1146 98.4088 52.2854 98.1972 52.2854C97.9922 52.2854 97.8203 52.1212 97.8203 51.911C97.8203 51.7007 97.9856 51.5365 98.1972 51.5365C98.4022 51.5365 98.5741 51.7007 98.5741 51.911Z" fill="white"/>
<path d="M98.5741 60.3066C98.5741 60.5102 98.4088 60.681 98.1972 60.681C97.9922 60.681 97.8203 60.5168 97.8203 60.3066C97.8203 60.1029 97.9856 59.9321 98.1972 59.9321C98.4022 59.9321 98.5741 60.1029 98.5741 60.3066Z" fill="white"/>
<path d="M98.5741 68.735C98.5741 68.9387 98.4088 69.1095 98.1972 69.1095C97.9922 69.1095 97.8203 68.9453 97.8203 68.735C97.8203 68.5248 97.9856 68.3606 98.1972 68.3606C98.4022 68.3606 98.5741 68.5248 98.5741 68.735Z" fill="white"/>
<path d="M12.4242 12.4357C12.4242 12.6394 12.2589 12.8102 12.0473 12.8102C11.8423 12.8102 11.6704 12.646 11.6704 12.4357C11.6704 12.2255 11.8357 12.0613 12.0473 12.0613C12.2523 12.0613 12.4242 12.2321 12.4242 12.4357Z" fill="white"/>
<path d="M30.5614 12.1861C30.5614 12.3897 30.3961 12.5606 30.1845 12.5606C29.9795 12.5606 29.8076 12.3963 29.8076 12.1861C29.8076 11.9824 29.9729 11.8116 30.1845 11.8116C30.3961 11.8116 30.5614 11.9759 30.5614 12.1861Z" fill="white"/>
<path d="M12.4242 25.6599C12.4242 25.8635 12.2589 26.0343 12.0473 26.0343C11.8423 26.0343 11.6704 25.8701 11.6704 25.6599C11.6704 25.4562 11.8357 25.2854 12.0473 25.2854C12.2523 25.2854 12.4242 25.4496 12.4242 25.6599Z" fill="white"/>
<path d="M12.4242 38.7131C12.4242 38.9168 12.2589 39.0876 12.0473 39.0876C11.8423 39.0876 11.6704 38.9234 11.6704 38.7131C11.6704 38.5095 11.8357 38.3387 12.0473 38.3387C12.2523 38.3387 12.4242 38.5095 12.4242 38.7131Z" fill="white"/>
<path d="M12.4242 51.819C12.4242 52.0226 12.2589 52.1934 12.0473 52.1934C11.8423 52.1934 11.6704 52.0292 11.6704 51.819C11.6704 51.6088 11.8357 51.4445 12.0473 51.4445C12.2523 51.4445 12.4242 51.6088 12.4242 51.819Z" fill="white"/>
<path d="M12.4242 60.3066C12.4242 60.5102 12.2589 60.681 12.0473 60.681C11.8423 60.681 11.6704 60.5168 11.6704 60.3066C11.6704 60.1029 11.8357 59.9321 12.0473 59.9321C12.2523 59.9321 12.4242 60.1029 12.4242 60.3066Z" fill="white"/>
<path d="M12.4242 69.1095C12.4242 69.3131 12.2589 69.484 12.0473 69.484C11.8423 69.484 11.6704 69.3197 11.6704 69.1095C11.6704 68.9058 11.8357 68.735 12.0473 68.735C12.2523 68.735 12.4242 68.8993 12.4242 69.1095Z" fill="white"/>
<path d="M12.4242 77.6036C12.4242 77.8073 12.2589 77.9781 12.0473 77.9781C11.8423 77.9781 11.6704 77.8139 11.6704 77.6036C11.6704 77.4 11.8357 77.2292 12.0473 77.2292C12.2523 77.2292 12.4242 77.4 12.4242 77.6036Z" fill="white"/>
<path d="M12.4242 86.0913C12.4242 86.2949 12.2589 86.4657 12.0473 86.4657C11.8423 86.4657 11.6704 86.3015 11.6704 86.0913C11.6704 85.8876 11.8357 85.7168 12.0473 85.7168C12.2523 85.7168 12.4242 85.8876 12.4242 86.0913Z" fill="white"/>
<path d="M12.4242 94.8942C12.4242 95.0978 12.2589 95.2686 12.0473 95.2686C11.8423 95.2686 11.6704 95.1044 11.6704 94.8942C11.6704 94.6905 11.8357 94.5197 12.0473 94.5197C12.2523 94.5197 12.4242 94.6905 12.4242 94.8942Z" fill="white"/>
<path d="M12.4242 103.717C12.4242 103.92 12.2589 104.091 12.0473 104.091C11.8423 104.091 11.6704 103.927 11.6704 103.717C11.6704 103.513 11.8357 103.342 12.0473 103.342C12.2523 103.342 12.4242 103.513 12.4242 103.717Z" fill="white"/>
<path d="M12.4242 111.6C12.4242 111.804 12.2589 111.974 12.0473 111.974C11.8423 111.974 11.6704 111.81 11.6704 111.6C11.6704 111.396 11.8357 111.226 12.0473 111.226C12.2523 111.226 12.4242 111.396 12.4242 111.6Z" fill="white"/>
<path d="M12.4242 120.403C12.4242 120.607 12.2589 120.777 12.0473 120.777C11.8423 120.777 11.6704 120.613 11.6704 120.403C11.6704 120.199 11.8357 120.029 12.0473 120.029C12.2523 120.029 12.4242 120.193 12.4242 120.403Z" fill="white"/>
<path d="M12.4242 128.976C12.4242 129.18 12.2589 129.35 12.0473 129.35C11.8423 129.35 11.6704 129.186 11.6704 128.976C11.6704 128.766 11.8357 128.601 12.0473 128.601C12.2523 128.601 12.4242 128.766 12.4242 128.976Z" fill="white"/>
<path d="M12.5763 141.576C12.5763 141.78 12.411 141.95 12.1994 141.95C11.9944 141.95 11.8225 141.786 11.8225 141.576C11.8225 141.372 11.9878 141.201 12.1994 141.201C12.4044 141.201 12.5763 141.372 12.5763 141.576Z" fill="white"/>
<path d="M26.1445 141.95C26.1445 142.154 25.9792 142.325 25.7676 142.325C25.5627 142.325 25.3907 142.161 25.3907 141.95C25.3907 141.747 25.5561 141.576 25.7676 141.576C25.9792 141.576 26.1445 141.747 26.1445 141.95Z" fill="white"/>
<path d="M43.6337 141.95C43.6337 142.154 43.4684 142.325 43.2568 142.325C43.0452 142.325 42.8799 142.161 42.8799 141.95C42.8799 141.747 43.0452 141.576 43.2568 141.576C43.4684 141.576 43.6337 141.747 43.6337 141.95Z" fill="white"/>
<path d="M61.0964 141.95C61.0964 142.154 60.9311 142.325 60.7195 142.325C60.508 142.325 60.3427 142.161 60.3427 141.95C60.3427 141.747 60.508 141.576 60.7195 141.576C60.9311 141.576 61.0964 141.747 61.0964 141.95Z" fill="white"/>
<path d="M78.1029 141.95C78.1029 142.154 77.9376 142.325 77.726 142.325C77.521 142.325 77.3491 142.161 77.3491 141.95C77.3491 141.747 77.5144 141.576 77.726 141.576C77.931 141.576 78.1029 141.747 78.1029 141.95Z" fill="white"/>
<path d="M98.5741 77.3934C98.5741 77.5971 98.4088 77.7679 98.1972 77.7679C97.9922 77.7679 97.8203 77.6037 97.8203 77.3934C97.8203 77.1832 97.9856 77.019 98.1972 77.019C98.4022 77.019 98.5741 77.1898 98.5741 77.3934Z" fill="white"/>
<path d="M98.5741 85.4935C98.5741 85.6971 98.4088 85.8679 98.1972 85.8679C97.9922 85.8679 97.8203 85.7037 97.8203 85.4935C97.8203 85.2898 97.9856 85.119 98.1972 85.119C98.4022 85.119 98.5741 85.2898 98.5741 85.4935Z" fill="white"/>
<path d="M98.5741 94.2241C98.5741 94.4277 98.4088 94.5985 98.1972 94.5985C97.9922 94.5985 97.8203 94.4343 97.8203 94.2241C97.8203 94.0204 97.9856 93.8496 98.1972 93.8496C98.4022 93.8562 98.5741 94.0204 98.5741 94.2241Z" fill="white"/>
<path d="M98.5741 102.836C98.5741 103.04 98.4088 103.211 98.1972 103.211C97.9922 103.211 97.8203 103.047 97.8203 102.836C97.8203 102.633 97.9856 102.462 98.1972 102.462C98.4022 102.462 98.5741 102.626 98.5741 102.836Z" fill="white"/>
<path d="M98.5741 111.212C98.5741 111.416 98.4088 111.587 98.1972 111.587C97.9922 111.587 97.8203 111.423 97.8203 111.212C97.8203 111.009 97.9856 110.838 98.1972 110.838C98.4022 110.838 98.5741 111.009 98.5741 111.212Z" fill="white"/>
<path d="M98.5741 119.477C98.5741 119.68 98.4088 119.851 98.1972 119.851C97.9922 119.851 97.8203 119.687 97.8203 119.477C97.8203 119.273 97.9856 119.102 98.1972 119.102C98.4022 119.102 98.5741 119.266 98.5741 119.477Z" fill="white"/>
<path d="M98.5741 127.912C98.5741 128.115 98.4088 128.286 98.1972 128.286C97.9922 128.286 97.8203 128.122 97.8203 127.912C97.8203 127.708 97.9856 127.537 98.1972 127.537C98.4022 127.537 98.5741 127.701 98.5741 127.912Z" fill="white"/>
<path d="M98.5741 140.768C98.5741 140.972 98.4088 141.142 98.1972 141.142C97.9922 141.142 97.8203 140.978 97.8203 140.768C97.8203 140.564 97.9856 140.393 98.1972 140.393C98.4022 140.393 98.5741 140.558 98.5741 140.768Z" fill="white"/>
<path d="M15.2144 20.5292C14.5069 19.7606 13.6804 19.0117 13.3366 18.6175C13.0787 18.3219 12.8936 18.0985 12.8208 18.0066V17.9606C12.8208 17.9606 12.8142 17.9671 12.801 17.9868C12.7878 17.9737 12.7812 17.9606 12.7812 17.9606V18.0066C12.7084 18.0985 12.5233 18.3219 12.2654 18.6175C11.9216 19.0117 11.0951 19.7606 10.3876 20.5292C9.68005 21.2978 9.62054 22.0664 9.75278 22.7036C9.88503 23.3409 10.5595 23.9387 11.6108 23.8073C11.9414 23.7679 12.1861 23.6102 12.358 23.4131C12.239 24.3131 11.7497 24.7861 11.7497 24.7861H13.7928C13.4225 24.3722 13.2903 23.7876 13.2374 23.4197C13.4159 23.6168 13.654 23.7679 13.9846 23.8073C15.0359 23.9387 15.7103 23.3409 15.8426 22.7036C15.9814 22.0598 15.9219 21.2912 15.2144 20.5292Z" fill="#151515"/>
<path d="M68.3764 71.7504C64.5215 67.5788 60.045 63.5059 58.1738 61.3642C56.7654 59.7613 55.7736 58.5394 55.3636 58.0336V57.7708C55.3636 57.7708 55.3239 57.8168 55.2578 57.9022C55.1917 57.8168 55.152 57.7708 55.152 57.7708V58.0336C54.7421 58.5394 53.7436 59.7613 52.3419 61.3642C50.4706 63.4993 45.9942 67.5723 42.1393 71.7504C38.2844 75.9219 37.9736 80.1 38.701 83.5555C39.4283 87.0175 43.0716 90.2759 48.7977 89.5599C50.5962 89.3365 51.9121 88.4825 52.8708 87.4117C52.2295 92.3124 49.5647 94.8613 49.5647 94.8613H60.6666C58.6366 92.6146 57.9225 89.4219 57.6647 87.438C58.6234 88.4956 59.926 89.3365 61.7113 89.5599C67.4374 90.2694 71.0807 87.0175 71.8081 83.5555C72.542 80.1 72.2313 75.9285 68.3764 71.7504Z" fill="#151515"/>
<path d="M8.89333 15.3131H9.36941C9.87193 15.3131 10.2422 15.0044 10.4736 14.3803L13.2309 6.6416H13.5483L16.332 14.7482C16.418 14.9584 16.5172 15.1095 16.6428 15.1883C16.7618 15.2672 16.9139 15.3066 17.1056 15.3066H17.8264V15.7139H13.8458V15.3066H14.6922C14.8178 15.3066 14.9302 15.2737 15.0162 15.208C15.1022 15.1423 15.1418 15.0701 15.1418 14.9847C15.1418 14.873 15.122 14.781 15.0889 14.7022L14.4872 13.0073H11.4853L11.1745 13.8613C11.0555 14.2029 10.996 14.446 10.996 14.6036C10.996 14.7876 11.0423 14.9518 11.1349 15.0963C11.2274 15.2343 11.3927 15.3066 11.6242 15.3066H12.4044V15.7139H8.88672V15.3131H8.89333ZM11.6308 12.6131H14.3484L13.0127 8.72408L11.6308 12.6131Z" fill="black"/>
<path d="M93.8398 134.146H97.3575V134.553H96.5773C96.3459 134.553 96.1806 134.626 96.088 134.763C95.9954 134.901 95.9491 135.066 95.9491 135.256C95.9491 135.407 96.0086 135.657 96.1277 135.992L96.4384 136.846H99.4403L100.042 135.151C100.075 135.072 100.095 134.98 100.095 134.869C100.095 134.783 100.049 134.711 99.9693 134.645C99.8834 134.58 99.7776 134.547 99.6453 134.547H98.799V134.139H102.779V134.547H102.059C101.867 134.547 101.715 134.586 101.596 134.672C101.477 134.75 101.371 134.901 101.285 135.112L98.5014 143.218H98.184L95.4268 135.48C95.1953 134.862 94.8251 134.547 94.3225 134.547H93.8465V134.146H93.8398ZM97.9592 141.149L99.2949 137.26H96.5773L97.9592 141.149Z" fill="black"/>
<path d="M101.378 129.672C100.67 130.441 99.8436 131.19 99.4998 131.584C99.2419 131.88 99.0568 132.103 98.984 132.195V132.241C98.984 132.241 98.9774 132.234 98.9642 132.215C98.951 132.228 98.9444 132.241 98.9444 132.241V132.195C98.8716 132.103 98.6865 131.88 98.4286 131.584C98.0848 131.19 97.2583 130.441 96.5508 129.672C95.8433 128.904 95.7837 128.135 95.916 127.498C96.0482 126.861 96.7227 126.263 97.774 126.394C98.1046 126.434 98.3493 126.591 98.5212 126.788C98.4022 125.888 97.9129 125.415 97.9129 125.415H99.956C99.5857 125.829 99.4535 126.414 99.4006 126.782C99.5791 126.585 99.8172 126.434 100.148 126.394C101.199 126.263 101.874 126.861 102.006 127.498C102.138 128.135 102.092 128.904 101.378 129.672Z" fill="#151515"/>
</svg>
